<?xml version="1.0" standalone="no"?>
<!DOCTYPE svg PUBLIC "-//W3C//DTD SVG 1.1//EN" "http://www.w3.org/Graphics/SVG/1.1/DTD/svg11.dtd" >
<svg xmlns="http://www.w3.org/2000/svg" xmlns:xlink="http://www.w3.org/1999/xlink" version="1.1">
<metadata>
Created by FontForge 20200427 at Wed Jun  5 00:08:45 2019
 By www
(c) 2019, Copyright by Pandora A/S. All rights reserved
</metadata>
<defs>
<font id="PanDisplay-Regular" horiz-adv-x="0" >
  <font-face 
    font-family="Pan Display"
    font-weight="400"
    font-stretch="normal"
    units-per-em="1000"
    panose-1="2 11 5 4 2 1 1 1 1 2"
    ascent="800"
    descent="-200"
    x-height="500"
    cap-height="700"
    bbox="-598 -211 1123 994"
    underline-thickness="50"
    underline-position="-125"
    unicode-range="U+000D-FEFF"
  />
<missing-glyph horiz-adv-x="731" 
d="M640 -120h-550v820h550v-820zM176 618v-654h378v654h-378z" />
    <glyph glyph-name="f_f.liga" unicode="ff" horiz-adv-x="808" 
d="M114 119v304h-5q-25 0 -51.5 -2t-35.5 -2v84q60 -3 85 -3h7v56q0 101 48 151.5t135 50.5q63 0 112 -29v-90h-1q-26 20 -52 29.5t-56 9.5q-44 0 -69 -31t-25 -92v-55h320v56q0 101 48 151.5t135 50.5q63 0 112 -29v-90h-1q-26 20 -52 29.5t-56 9.5q-44 0 -69 -31t-25 -92
v-55h59q81 0 120 3v-84q-52 4 -120 4h-59v-304q0 -65 4 -119h-101q5 68 5 119v304h-320v-304q0 -65 4 -119h-101q5 68 5 119z" />
    <glyph glyph-name="f_f_i.liga" unicode="ffi" horiz-adv-x="1036" 
d="M114 119v304h-5q-25 0 -51.5 -2t-35.5 -2v84q60 -3 85 -3h7v56q0 101 48 151.5t135 50.5q63 0 112 -29v-90h-1q-26 20 -52 29.5t-56 9.5q-44 0 -69 -31t-25 -92v-55h320v56q0 101 48 151.5t135 50.5q63 0 112 -29v-90h-1q-26 20 -52 29.5t-56 9.5q-44 0 -69 -31t-25 -92
v-55h352q-4 -52 -4 -119v-262q0 -65 4 -119h-100l1 25q3 81 3 94v262q0 29 -1 42h-255v-304q0 -65 4 -119h-101q5 68 5 119v304h-320v-304q0 -65 4 -119h-101q5 68 5 119zM882 600.5q-15 14.5 -15 37.5q0 24 15 39t38 15t38 -15t15 -39q0 -23 -15 -37.5t-38 -14.5t-38 14.5z
" />
    <glyph glyph-name="f_f_l.liga" unicode="ffl" horiz-adv-x="1033" 
d="M114 119v304h-5q-25 0 -51.5 -2t-35.5 -2v84q60 -3 85 -3h7v56q0 101 48 151.5t135 50.5q63 0 112 -29v-90h-1q-26 20 -52 29.5t-56 9.5q-44 0 -69 -31t-25 -92v-55h320v56q0 101 48 151.5t135 50.5q63 0 112 -29v-90h-1q-26 20 -52 29.5t-56 9.5q-44 0 -69 -31t-25 -92
v-55h253v132q0 67 -4 119h100q-4 -52 -4 -119v-513q0 -65 4 -119h-100q4 54 4 119v304h-253v-304q0 -65 4 -119h-101q5 68 5 119v304h-320v-304q0 -65 4 -119h-101q5 68 5 119z" />
    <glyph glyph-name="f_i.liga" unicode="fi" horiz-adv-x="624" 
d="M114 119v304h-5q-25 0 -51.5 -2t-35.5 -2v84q60 -3 85 -3h7v56q0 101 48 151.5t135 50.5q63 0 112 -29v-90h-1q-26 20 -52 29.5t-56 9.5q-44 0 -69 -31t-25 -92v-55h352q-4 -52 -4 -119v-262q0 -65 4 -119h-100l1 25q3 81 3 94v262q0 29 -1 42h-255v-304q0 -65 4 -119
h-101q5 68 5 119zM470 600.5q-15 14.5 -15 37.5q0 24 15 39t38 15t38 -15t15 -39q0 -23 -15 -37.5t-38 -14.5t-38 14.5z" />
    <glyph glyph-name="f_l.liga" unicode="fl" horiz-adv-x="621" 
d="M114 119v304h-5q-25 0 -51.5 -2t-35.5 -2v84q57 -3 85 -3h7v56q0 101 48 151.5t135 50.5q63 0 112 -29v-90h-1q-26 20 -52 29.5t-56 9.5q-44 0 -69 -31t-25 -92v-55h253v132q0 67 -4 119h100q-4 -52 -4 -119v-513q0 -65 4 -119h-100q4 54 4 119v304h-253v-304
q0 -65 4 -119h-101q5 68 5 119z" />
    <glyph glyph-name=".notdef" horiz-adv-x="731" 
d="M640 -120h-550v820h550v-820zM176 618v-654h378v654h-378z" />
    <glyph glyph-name="glyph1" 
 />
    <glyph glyph-name="uni000D" unicode="&#xd;" horiz-adv-x="240" 
 />
    <glyph glyph-name="space" unicode=" " horiz-adv-x="240" 
 />
    <glyph glyph-name="exclam" unicode="!" horiz-adv-x="245" 
d="M82 294l-5 300q-2 67 -9 106h109q-7 -39 -9 -106l-5 -300q0 -63 -22 -107h-37q-22 44 -22 107zM82 8q-16 16 -16 40q0 25 16 41t41 16t41.5 -16t16.5 -41q0 -24 -16.5 -40t-41.5 -16t-41 16z" />
    <glyph glyph-name="quotedbl" unicode="&#x22;" horiz-adv-x="366" 
d="M59 572q-13 57 -13 80t15.5 38.5t38.5 15.5q24 0 39.5 -15.5t15.5 -38.5q0 -16 -5.5 -43.5t-7.5 -36.5l-21 -114h-41zM224 572q-13 57 -13 80t15.5 38.5t38.5 15.5q24 0 39.5 -15.5t15.5 -38.5q0 -16 -5.5 -43.5t-7.5 -36.5l-21 -114h-41z" />
    <glyph glyph-name="numbersign" unicode="#" horiz-adv-x="786" 
d="M137 88l30 94h-20q-79 0 -116 -3v87q50 -4 116 -4h46l58 178h-14q-66 0 -116 -4v86q37 -3 116 -3h40l30 93q11 31 19 88h104q-23 -51 -36 -88l-30 -93h168l30 93q12 38 19 88h104q-18 -37 -36 -88l-30 -93h20q78 0 116 3v-86q-50 4 -116 4h-46l-58 -178h14q66 0 116 4
v-87q-38 3 -116 3h-40l-31 -94q-10 -32 -18 -88h-105q23 48 36 88l31 94h-168l-30 -94q-11 -31 -19 -88h-104q23 51 36 88zM448 262l58 178h-168l-58 -178h168z" />
    <glyph glyph-name="dollar" unicode="$" horiz-adv-x="504" 
d="M194 -5q-86 9 -152 57v123h1q89 -103 198 -103q59 0 96.5 32t37.5 80q0 36 -22 64t-73 53l-111 54q-58 28 -88 70t-30 105q0 70 45 116.5t121 57.5q-1 51 -5 87h101q-2 -22 -4 -86q86 -10 133 -49v-122h-1q-33 42 -78 68t-100 26q-52 0 -86.5 -25.5t-34.5 -67.5
q0 -39 22.5 -63t64.5 -44l115 -54q59 -28 90.5 -75t31.5 -109q0 -77 -49 -129t-131 -65q2 -65 4 -87h-100q2 22 4 86z" />
    <glyph glyph-name="percent" unicode="%" horiz-adv-x="807" 
d="M105.5 407.5q-34.5 21.5 -54.5 58.5t-20 82q0 44 20 81t54.5 58.5t76.5 21.5q43 0 77.5 -21.5t54 -58t19.5 -81.5t-19.5 -82t-54 -58.5t-77.5 -21.5q-42 0 -76.5 21.5zM246 480.5q20 32.5 20 67.5t-20 66.5t-64 31.5q-43 0 -63.5 -31.5t-20.5 -66.5t20.5 -67.5
t63.5 -32.5q44 0 64 32.5zM605 700h89l-493 -700h-89zM547.5 17.5q-34.5 21.5 -54.5 58.5t-20 82q0 44 20 81t54.5 58.5t76.5 21.5q43 0 77.5 -21.5t54 -58t19.5 -81.5t-19.5 -82t-54 -58.5t-77.5 -21.5q-42 0 -76.5 21.5zM688 90.5q20 32.5 20 67.5t-20 66.5t-64 31.5
q-43 0 -63.5 -31.5t-20.5 -66.5t20.5 -67.5t63.5 -32.5q44 0 64 32.5z" />
    <glyph glyph-name="ampersand" unicode="&#x26;" horiz-adv-x="716" 
d="M115.5 53q-71.5 63 -71.5 169q0 73 37 126.5t96 78.5q-22 23 -34 52.5t-12 60.5q0 44 22.5 82.5t62.5 62t89 23.5t89 -23.5t62.5 -62t22.5 -82.5q0 -56 -36 -101.5t-93 -60.5v-1l174 -171q19 48 19 103q0 42 -5 99h103q-6 -56 -6 -100q0 -92 -45 -168l138 -136v-3h-122
l-71 71q-43 -39 -99.5 -60.5t-121.5 -21.5q-127 0 -198.5 63zM366 478q24 25 24 62q0 38 -24 63t-61 25t-61 -25t-24 -63q0 -37 24 -62t61 -25t61 25zM402.5 86q40.5 16 71.5 46l-239 237q-46 -18 -73 -56t-27 -92q0 -67 49 -109t132 -42q46 0 86.5 16z" />
    <glyph glyph-name="quotesingle" unicode="'" horiz-adv-x="201" 
d="M59 572q-13 57 -13 80t15.5 38.5t38.5 15.5q24 0 39.5 -15.5t15.5 -38.5q0 -16 -5.5 -43.5t-7.5 -36.5l-21 -114h-41z" />
    <glyph glyph-name="parenleft" unicode="(" horiz-adv-x="295" 
d="M173 -88q-37 56 -63.5 105.5t-46 119.5t-19.5 153t19.5 153t45.5 118.5t63 106.5q10 14 21 32h84q-55 -65 -98.5 -167t-43.5 -243t43.5 -243t98.5 -167h-84z" />
    <glyph glyph-name="parenright" unicode=")" horiz-adv-x="295" 
d="M116.5 47q43.5 102 43.5 243t-43.5 243t-98.5 167h84l20 -32q37 -56 63.5 -105.5t46 -119.5t19.5 -153t-19.5 -153t-45.5 -118.5t-63 -106.5q-10 -14 -21 -32h-84q55 65 98.5 167z" />
    <glyph glyph-name="asterisk" unicode="*" horiz-adv-x="412" 
d="M78 467l23 28q30 33 49 60q-25 9 -54 15.5t-36 8.5l-20 5l26 79q53 -25 106 -43q0 27 -5 94q-2 16 -2 21h81q-6 -81 -6 -115q34 11 105 43l27 -79q-8 -2 -42.5 -10t-68.5 -19q14 -20 33 -42t25 -29q7 -7 15 -17l-68 -48q-33 58 -60 95q-25 -34 -61 -95z" />
    <glyph glyph-name="plus" unicode="+" horiz-adv-x="545" 
d="M234 181v41h-38q-65 0 -137 -5v81q73 -5 137 -5h38v40q0 65 -5 137h86q-5 -72 -5 -137v-40h38q62 0 137 5v-81q-75 5 -137 5h-38v-41q0 -64 5 -137h-86q5 73 5 137z" />
    <glyph glyph-name="comma" unicode="," horiz-adv-x="215" 
d="M53 45q1 29 16.5 44.5t43.5 15.5q22 0 35.5 -13.5t13.5 -34.5q0 -10 -8.5 -36.5t-23.5 -60.5l-44 -103h-39z" />
    <glyph glyph-name="hyphen" unicode="-" horiz-adv-x="443" 
d="M63 300q38 -3 116 -3h84q78 0 117 3v-87q-52 4 -117 4h-84q-66 0 -116 -4v87z" />
    <glyph glyph-name="period" unicode="." horiz-adv-x="213" 
d="M65 8q-16 16 -16 40q0 25 16 41t41 16t41.5 -16t16.5 -41q0 -24 -16.5 -40t-41.5 -16t-41 16z" />
    <glyph glyph-name="slash" unicode="/" horiz-adv-x="569" 
d="M461 800h89l-442 -874h-90z" />
    <glyph glyph-name="zero" unicode="0" horiz-adv-x="757" 
d="M209.5 40q-75.5 47 -118 129t-42.5 182t42.5 182t118 129t169.5 47t169 -47t117.5 -128.5t42.5 -182.5t-42.5 -182.5t-117.5 -128.5t-169 -47t-169.5 47zM498 106.5q54 33.5 86 97t32 147.5t-32 147.5t-86 97t-119 33.5t-119.5 -33.5t-86.5 -97t-32 -147.5t32 -147.5
t86.5 -97t119.5 -33.5t119 33.5z" />
    <glyph glyph-name="one" unicode="1" horiz-adv-x="347" 
d="M169 137v431h-1l-132 -143h-3v112l171 163h62l-1 -20q-4 -66 -4 -117v-426q0 -18 3 -105q2 -24 2 -32h-102q5 73 5 137z" />
    <glyph glyph-name="two" unicode="2" horiz-adv-x="534" 
d="M458 -3q-16 1 -39.5 2t-55.5 1h-335v1l169 220q15 20 51 65q76 98 104.5 145t28.5 91q0 49 -31.5 78t-85.5 29q-62 0 -114.5 -40.5t-89.5 -104.5h-2v120q28 42 80.5 73.5t129.5 31.5q96 0 150 -49.5t54 -135.5q0 -41 -17.5 -82.5t-44 -80.5t-74.5 -101l-25 -32l-113 -146
v-1h165q32 0 55.5 1t39.5 2q20 2 31 2v-91q-11 0 -31 2z" />
    <glyph glyph-name="three" unicode="3" horiz-adv-x="547" 
d="M124.5 16q-52.5 25 -95.5 74l70 68q51 -87 160 -87q65 0 106 43t41 106q0 65 -42 106.5t-122 41.5h-109v1l191 249v1h-138q-26 0 -53 -1.5t-39 -1.5l-32 -2v91l32 -2q12 0 39 -1.5t53 -1.5h299v-2l-192 -249v-1q91 -12 147.5 -73.5t56.5 -154.5q0 -61 -31 -113.5
t-85.5 -84t-122.5 -31.5q-81 0 -133.5 25z" />
    <glyph glyph-name="four" unicode="4" horiz-adv-x="566" 
d="M329 137v43h-173q-33 0 -57.5 -1t-41.5 -2q-22 -2 -33 -2v85l292 440h111q-5 -67 -5 -137v-303h112v-85l-112 5v-43q0 -64 5 -137h-103q5 73 5 137zM329 260v308h-1l-204 -307v-1h205z" />
    <glyph glyph-name="five" unicode="5" horiz-adv-x="544" 
d="M120 22.5q-61 30.5 -94 77.5l75 66q31 -48 68.5 -71t92.5 -23q46 0 81 21.5t53.5 57.5t18.5 78q0 65 -41.5 108.5t-111.5 43.5q-78 0 -164 -67h-3v386h215q35 0 60.5 1t43.5 2l36 2v-91l-36 2q-18 1 -43.5 2t-60.5 1h-123v-173q41 15 81 15q74 0 128 -30.5t82 -83.5
t28 -118q0 -67 -31 -121t-86 -85t-125 -31q-83 0 -144 30.5z" />
    <glyph glyph-name="six" unicode="6" horiz-adv-x="544" 
d="M158.5 20.5q-53.5 28.5 -83.5 80.5t-30 118q0 89 54 179l178 302h114l-174 -264l1 -1q24 11 61 11q67 0 120.5 -29t84 -80.5t30.5 -117.5q0 -62 -30.5 -114t-84 -82.5t-120.5 -30.5t-120.5 28.5zM383.5 114.5q39.5 42.5 39.5 104.5q0 39 -17.5 72.5t-50.5 54t-76 20.5
q-66 0 -104.5 -42t-38.5 -105q0 -62 39 -104.5t104 -42.5t104.5 42.5z" />
    <glyph glyph-name="seven" unicode="7" horiz-adv-x="490" 
d="M68 29q24 40 33 60l247 529l-1 1h-183q-33 0 -57.5 -1t-41.5 -2l-33 -2v91q11 0 33 -2q17 -1 41.5 -2t57.5 -1h319l-281 -611q-7 -14 -13 -33t-9 -27l-9 -29h-119z" />
    <glyph glyph-name="eight" unicode="8" horiz-adv-x="546" 
d="M155 19.5q-51 28.5 -79.5 78.5t-28.5 112q0 59 28.5 108.5t78.5 79.5v1q-28 24 -44 57.5t-16 72.5q0 48 23 89t64 65.5t92 24.5t91.5 -25t64 -66t23.5 -88q0 -39 -16 -72.5t-44 -57.5v-1q50 -30 78.5 -79t28.5 -109q0 -62 -28.5 -112t-79.5 -78.5t-118 -28.5t-118 28.5z
M339.5 462.5q26.5 28.5 26.5 66.5t-26.5 66.5t-66.5 28.5t-66.5 -28.5t-26.5 -66.5t26.5 -66.5t66.5 -28.5t66.5 28.5zM370 111q38 40 38 99q0 60 -37.5 100.5t-97.5 40.5t-97.5 -40.5t-37.5 -100.5q0 -59 38 -99t97 -40t97 40z" />
    <glyph glyph-name="nine" unicode="9" horiz-adv-x="544" 
d="M327 264l-1 1q-24 -11 -61 -11q-67 0 -120.5 29t-84 80.5t-30.5 117.5q0 62 30.5 114t84 82.5t120.5 30.5t120.5 -28.5t83.5 -80.5t30 -118q0 -89 -54 -179l-178 -302h-114zM369.5 376q38.5 42 38.5 105q0 62 -39 104.5t-104 42.5t-104.5 -42.5t-39.5 -104.5
q0 -39 17.5 -72.5t50.5 -54t76 -20.5q66 0 104.5 42z" />
    <glyph glyph-name="colon" unicode=":" horiz-adv-x="241" 
d="M79 8q-16 16 -16 40q0 25 16 41t41 16t41.5 -16t16.5 -41q0 -24 -16.5 -40t-41.5 -16t-41 16zM79 405q-16 16 -16 40q0 25 16 41t41 16t41.5 -16t16.5 -41q0 -24 -16.5 -40t-41.5 -16t-41 16z" />
    <glyph glyph-name="semicolon" unicode=";" horiz-adv-x="252" 
d="M71 45q1 29 16.5 44.5t43.5 15.5q22 0 35.5 -13.5t13.5 -34.5q0 -10 -8.5 -36.5t-23.5 -60.5l-44 -103h-39zM88 405q-16 16 -16 40q0 25 16 41t41 16t41.5 -16t16.5 -41q0 -24 -16.5 -40t-41.5 -16t-41 16z" />
    <glyph glyph-name="less" unicode="&#x3c;" horiz-adv-x="545" 
d="M391 65l-289 156q-19 10 -33 13v65q14 3 33 13l289 156q44 23 69 44h1v-104q-6 0 -19.5 -5t-28.5 -13l-235 -123v-2l235 -122q15 -8 28.5 -13t19.5 -5v-104h-1q-25 21 -69 44z" />
    <glyph glyph-name="equal" unicode="=" horiz-adv-x="545" 
d="M59 386q73 -5 137 -5h152q64 0 137 5v-82q-73 5 -137 5h-152q-64 0 -137 -5v82zM59 210q72 -5 137 -5h152q64 0 137 5v-82q-73 5 -137 5h-152q-64 0 -137 -5v82z" />
    <glyph glyph-name="greater" unicode="&#x3e;" horiz-adv-x="545" 
d="M84 125q6 0 19.5 5t28.5 13l235 122v2l-235 123q-15 8 -28.5 13t-19.5 5v104h1q25 -21 69 -44l289 -156q19 -10 33 -13v-65q-14 -3 -33 -13l-289 -156q-44 -23 -69 -44h-1v104z" />
    <glyph glyph-name="question" unicode="?" horiz-adv-x="436" 
d="M145 267q0 37 15 65t56 65q5 4 33.5 29t44 53t15.5 58q0 41 -26.5 66t-72.5 25q-48 0 -94.5 -27t-79.5 -70h-3v115q36 26 82.5 44t96.5 18q86 0 138.5 -43.5t52.5 -120.5q0 -62 -28 -103t-83 -86q-45 -38 -65 -69t-20 -68q0 -16 4 -31h-53q-13 42 -13 80zM145 8
q-16 16 -16 40q0 25 16 41t41 16t41.5 -16t16.5 -41q0 -24 -16.5 -40t-41.5 -16t-41 16z" />
    <glyph glyph-name="at" unicode="@" horiz-adv-x="895" 
d="M246 -106.5q-95 47.5 -150.5 137.5t-55.5 213q0 122 58 218t155 149t208 53q106 0 195 -46.5t142 -131.5t53 -193q0 -77 -27 -136.5t-76.5 -92.5t-115.5 -33q-34 0 -63.5 17t-37.5 46h-2q-21 -28 -52.5 -45.5t-71.5 -17.5q-79 0 -123.5 51.5t-44.5 145.5q0 76 27 133
t73 87.5t101 30.5q46 0 75.5 -19t44.5 -48h2q1 10 3 23.5t2 22.5h92l-10 -40l-7 -29l-35 -165q-10 -42 -10 -64q0 -26 17.5 -38t40.5 -12q31 0 59 23.5t45.5 65.5t17.5 94q0 91 -43 159.5t-115 105t-157 36.5q-87 0 -165.5 -42t-127 -121.5t-48.5 -186.5q0 -100 42.5 -174.5
t119.5 -114t176 -39.5q62 0 111 13.5t83 32.5v-72q-30 -17 -81.5 -30.5t-112.5 -13.5q-116 0 -211 47.5zM501 167q28 57 28 130q0 48 -23 76t-67 28q-31 0 -57 -21.5t-41 -60.5t-15 -90q0 -55 23 -87t68 -32q56 0 84 57z" />
    <glyph glyph-name="A" unicode="A" horiz-adv-x="684" 
d="M8 1q18 31 26 51l247 601q15 39 17 47h79q5 -17 17 -47l262 -602l26 -50v-1h-105q-4 8 -8.5 21.5t-12.5 32.5l-57 133h-316l-54 -133q-14 -32 -18 -54h-103v1zM463 270l-128 297l-119 -297h247z" />
    <glyph glyph-name="B" unicode="B" horiz-adv-x="570" 
d="M221 -2q-32 2 -41 2h-101q4 54 4 119v462q0 67 -4 119h192q108 0 167.5 -47t59.5 -134q0 -54 -32.5 -98.5t-80.5 -61.5v-2q61 -14 101 -62.5t40 -110.5q0 -88 -59 -138.5t-159 -50.5q-15 0 -87 3zM278 394q56 0 89 32t33 86q0 48 -31.5 77t-89.5 29h-99q-1 -12 -1 -38
v-186h99zM392.5 106.5q36.5 30.5 36.5 88.5q0 54 -39.5 85.5t-101.5 31.5h-109v-193q0 -24 1 -36q35 -7 109 -7q67 0 103.5 30.5z" />
    <glyph glyph-name="C" unicode="C" horiz-adv-x="689" 
d="M225 39q-84 47 -132.5 129t-48.5 183t48.5 183t132.5 129t187 47q79 0 137 -17t95 -43v-115h-1q-97 93 -231 93q-75 0 -137 -37t-97.5 -100.5t-35.5 -139.5t35.5 -139.5t97.5 -100.5t137 -37q134 0 231 93h1v-115q-37 -26 -95 -43t-137 -17q-103 0 -187 47z" />
    <glyph glyph-name="D" unicode="D" horiz-adv-x="699" 
d="M219 -2q-30 2 -44 2h-96q4 54 4 119v462q0 67 -4 119h219q101 0 182.5 -46.5t128 -127t46.5 -177.5t-47 -178t-129.5 -128.5t-182.5 -47.5q-14 0 -77 3zM425.5 114.5q61.5 36.5 96.5 98.5t35 135t-35 135t-97 98.5t-138 36.5h-107q-1 -14 -1 -40v-471q1 -20 21 -23
q34 -6 90 -6q74 0 135.5 36.5z" />
    <glyph glyph-name="E" unicode="E" horiz-adv-x="560" 
d="M83 119v462q0 67 -4 119h425l3 -86l-113 4h-214q-1 -12 -1 -38v-186h182l113 4v-90l-114 4h-181v-191q0 -26 1 -38h219l113 4l-3 -87h-430q4 54 4 119z" />
    <glyph glyph-name="F" unicode="F" horiz-adv-x="546" 
d="M83 119v462q0 67 -4 119h435l2 -86q-15 0 -45 2q-44 2 -67 2h-224q-1 -12 -1 -39v-196h192q22 0 68 2q30 2 45 2v-90q-15 0 -45 2q-46 2 -68 2h-192v-182q0 -65 4 -119h-104q4 54 4 119z" />
    <glyph glyph-name="G" unicode="G" horiz-adv-x="725" 
d="M225 38q-84 46 -132.5 128t-48.5 185q0 101 51 183t138.5 129t191.5 47q73 0 127.5 -16.5t100.5 -49.5v-117h-1q-44 49 -99 75t-128 26q-77 0 -142 -37t-103 -100.5t-38 -139.5q0 -78 35.5 -141t98 -99t140.5 -36q40 0 81 7.5t73 20.5v101q0 29 -1 51.5t-2 37.5
q-2 18 -2 27h101q0 -14 -2 -46q-2 -44 -2 -68v-81q0 -24 2 -74q2 -34 2 -51q-30 0 -59 3q-34 2 -50 2q-11 0 -28.5 -2t-27.5 -3q-52 -8 -88 -8q-104 0 -188 46z" />
    <glyph glyph-name="H" unicode="H" horiz-adv-x="720" 
d="M83 119v462q0 67 -4 119h103q-5 -65 -5 -119v-187h365v187q0 67 -4 119h103q-4 -52 -4 -119v-462q0 -65 4 -119h-103q4 54 4 119v192h-365v-192q0 -51 5 -119h-103q4 54 4 119z" />
    <glyph glyph-name="I" unicode="I" horiz-adv-x="261" 
d="M83 119v462q0 67 -4 119h103q-4 -52 -4 -119v-462q0 -65 4 -119h-103q4 54 4 119z" />
    <glyph glyph-name="J" unicode="J" horiz-adv-x="455" 
d="M99 6q-41 15 -71 45v133h2q36 -52 71 -81t80 -29q46 0 72 31.5t26 86.5v390q0 22 -2 70q-2 32 -2 48h105l-2 -31q-1 -15 -2 -36.5t-1 -50.5v-406q0 -91 -52 -138t-140 -47q-43 0 -84 15z" />
    <glyph glyph-name="K" unicode="K" horiz-adv-x="586" 
d="M83 119v462q0 67 -4 119h104q-4 -52 -4 -119v-462q0 -65 4 -119h-104q4 54 4 119zM411 70l-228 279l228 281q25 33 52 70h115l-283 -351l291 -349h-123q-27 37 -52 70z" />
    <glyph glyph-name="L" unicode="L" horiz-adv-x="536" 
d="M83 119v462q0 67 -4 119h104q-4 -52 -4 -119v-460q0 -26 1 -38h247q31 0 58 2t35 3l-2 -88h-439q4 54 4 119z" />
    <glyph glyph-name="M" unicode="M" horiz-adv-x="909" 
d="M83 119v462q0 79 -3 119h135l241 -583h1l238 583h135q-4 -52 -4 -119v-462q0 -65 4 -119h-104q4 54 4 119v438h-1l-227 -557h-94l-234 560h-1v-441q0 -38 3 -119h-96q3 42 3 119z" />
    <glyph glyph-name="N" unicode="N" horiz-adv-x="739" 
d="M82 48q2 48 2 71v528q0 17 -14 53h96l405 -539h1v421q0 22 -2 70q-2 32 -2 48h92q0 -16 -2 -48q-2 -48 -2 -70v-463q0 -23 2 -71q2 -32 2 -48h-84l-407 545h-1v-426q0 -50 3 -119h-91q0 16 2 48z" />
    <glyph glyph-name="O" unicode="O" horiz-adv-x="809" 
d="M221.5 39.5q-82.5 47.5 -130 129.5t-47.5 182t47.5 182t130 129.5t182.5 47.5q101 0 183.5 -47t130 -129.5t47.5 -182.5q0 -101 -47.5 -183t-130 -129t-183.5 -47q-100 0 -182.5 47.5zM537 111.5q60 36.5 95 100t35 139.5t-35 139.5t-95 100t-133 36.5q-72 0 -132 -36.5
t-95 -100t-35 -139.5t35 -139.5t95 -100t132 -36.5q73 0 133 36.5z" />
    <glyph glyph-name="P" unicode="P" horiz-adv-x="542" 
d="M81 48q2 48 2 71v463q0 22 -2 70q-2 32 -2 48h192q68 0 123.5 -27t87 -74.5t31.5 -106.5q0 -64 -32.5 -114.5t-90.5 -78t-131 -27.5q-22 0 -80 6v-159q0 -23 2 -71q2 -32 2 -48h-104q0 16 2 48zM374 394.5q41 35.5 41 97.5q0 55 -40.5 90t-104.5 35h-91v-251q36 -7 82 -7
q72 0 113 35.5z" />
    <glyph glyph-name="Q" unicode="Q" horiz-adv-x="809" 
d="M580 -83q-28 11 -109 53q-14 8 -25 13.5l-19 9.5q-7 -1 -23 -1q-100 0 -182.5 47.5t-130 129.5t-47.5 182t47.5 182t130 129.5t182.5 47.5q101 0 183.5 -47t130 -129.5t47.5 -182.5q0 -116 -61.5 -205.5t-164.5 -129.5v-1q71 -30 101 -39q68 -19 134 -27l-53 -79
q-79 21 -141 47zM537 111.5q60 36.5 95 100t35 139.5t-35 139.5t-95 100t-133 36.5q-72 0 -132 -36.5t-95 -100t-35 -139.5t35 -139.5t95 -100t132 -36.5q73 0 133 36.5z" />
    <glyph glyph-name="R" unicode="R" horiz-adv-x="592" 
d="M80 25q1 13 2 32.5t1 44.5v496q0 25 -1 44.5t-2 32.5q-2 16 -2 25h203q61 0 111.5 -25t79.5 -71t29 -107q0 -48 -21.5 -89.5t-55.5 -68t-70 -33.5v-1q21 -8 39 -26.5t37 -48.5l81 -129q18 -30 42 -61t30 -39v-1h-123q-30 59 -68 118l-67 103q-38 61 -118 61h-30v-180
q0 -25 1 -44.5t2 -32.5q2 -16 2 -25h-104q0 9 2 25zM362 398.5q41 33.5 41 98.5q0 52 -37 86.5t-100 34.5h-89v-246q23 -7 71 -7q73 0 114 33.5z" />
    <glyph glyph-name="S" unicode="S" horiz-adv-x="542" 
d="M150 8q-55 16 -93 44v125h1q42 -48 96.5 -75t110.5 -27q63 0 99.5 32t36.5 86q0 41 -24.5 67.5t-80.5 47.5l-101 38q-70 26 -105.5 67t-35.5 108q0 53 29 96t80 67t116 24q57 0 107.5 -15.5t79.5 -40.5v-124h-1q-33 42 -80.5 69.5t-104.5 27.5q-58 0 -93 -27.5t-35 -69.5
q0 -38 23.5 -61t74.5 -42l101 -38q77 -29 112.5 -74t35.5 -115q0 -94 -64 -150t-172 -56q-58 0 -113 16z" />
    <glyph glyph-name="T" unicode="T" horiz-adv-x="562" 
d="M233 118v499h-103q-24 0 -68 -2q-32 -2 -46 -2v87h530v-87q-16 0 -46 2q-46 2 -68 2h-103v-499q0 -50 5 -118h-105q4 54 4 118z" />
    <glyph glyph-name="U" unicode="U" horiz-adv-x="709" 
d="M145.5 67.5q-69.5 75.5 -69.5 217.5v296q0 54 -5 119h105q-4 -52 -4 -119v-294q0 -105 43.5 -158.5t136.5 -53.5q91 0 138 55.5t47 156.5v294q0 18 -3 96l-1 23h104q-4 -52 -4 -119v-296q0 -140 -72 -216.5t-209 -76.5t-206.5 75.5z" />
    <glyph glyph-name="V" unicode="V" horiz-adv-x="657" 
d="M267 46l-231 601q-11 32 -25 53h109q3 -17 16 -53l193 -525h1l191 525q9 25 17 53h109q-15 -22 -26 -52l-231 -602q-13 -36 -16 -46h-91q-7 24 -16 46z" />
    <glyph glyph-name="W" unicode="W" horiz-adv-x="934" 
d="M258 46l-220 601q-12 34 -25 53h101l199 -579h1l107 259l-106 268q-16 37 -26 52h101l77 -216h1l83 216h102q-13 -19 -26 -52l-114 -269l95 -258h1l218 579h102q-13 -19 -26 -52l-238 -601q-8 -19 -16 -47h-77q-2 6 -6 17.5t-11 29.5l-88 229h-1l-99 -229
q-11 -24 -17 -47h-77q-2 10 -15 46z" />
    <glyph glyph-name="X" unicode="X" horiz-adv-x="584" 
d="M34 38l202 322l-185 290l-33 50h109q9 -24 30 -55l134 -214h1l136 214q18 28 30 55h109l-12 -18l-21 -32l-186 -291l202 -321q9 -15 16 -24t10 -14h-101q-3 9 -16 27l-13 21l-153 245h-1l-153 -245q-20 -33 -26 -48h-105q19 25 26 38z" />
    <glyph glyph-name="Y" unicode="Y" horiz-adv-x="622" 
d="M264 119v179l-215 352q-7 12 -31 50h105q17 -36 28 -55l161 -267h1l161 266q20 32 29 56h101q-3 -5 -11 -17t-21 -33l-212 -352v-179q0 -65 4 -119h-104q4 54 4 119z" />
    <glyph glyph-name="Z" unicode="Z" horiz-adv-x="667" 
d="M518 0h-497v67l478 549v1h-326q-63 0 -114 -4v91q78 -4 114 -4h455v-73l-466 -543v-1h356q39 0 115 4v-91q-76 4 -115 4z" />
    <glyph glyph-name="bracketleft" unicode="[" horiz-adv-x="309" 
d="M79 700h199v-82h-113v-654h113v-84h-199v820z" />
    <glyph glyph-name="backslash" unicode="\" horiz-adv-x="569" 
d="M19 800h90l442 -874h-89z" />
    <glyph glyph-name="bracketright" unicode="]" horiz-adv-x="309" 
d="M31 -38h113v654h-113v84h199v-820h-199v82z" />
    <glyph glyph-name="asciicircum" unicode="^" horiz-adv-x="545" 
d="M235 700h74l177 -200h-89l-125 142l-125 -142h-89z" />
    <glyph glyph-name="underscore" unicode="_" horiz-adv-x="553" 
d="M43 -46h467v-76h-467v76z" />
    <glyph glyph-name="grave" unicode="`" horiz-adv-x="319" 
d="M50 700h134l85 -112h-88z" />
    <glyph glyph-name="a" unicode="a" horiz-adv-x="506" 
d="M83 31.5q-48 39.5 -48 107.5q0 62 42 98t120 44l155 16v32q0 101 -105 101q-45 0 -91 -20t-83 -49h-2v95q29 19 81 35.5t97 16.5q194 0 194 -177v-213v-34q0 -29 2 -47t9 -37h-92q-5 12 -9 49h-1q-22 -26 -59.5 -41.5t-89.5 -15.5q-72 0 -120 39.5zM282 77q30 13 50 40.5
t20 68.5v38l-125 -13q-47 -5 -72.5 -24.5t-25.5 -47.5q0 -34 24 -54.5t67 -20.5q32 0 62 13z" />
    <glyph glyph-name="b" unicode="b" horiz-adv-x="610" 
d="M227 13q-42 21 -67 57h-1l-18 -70h-75q4 54 4 137v495q0 67 -4 119h100q-4 -52 -4 -119v-197h1q25 34 66.5 53.5t92.5 19.5q74 0 130 -34.5t87 -93.5t31 -130t-31 -130t-87 -93.5t-130 -34.5q-53 0 -95 21zM403.5 96q35.5 24 55 64.5t19.5 89.5t-19.5 89.5t-55 64.5
t-82.5 24q-46 0 -82.5 -23t-56.5 -63.5t-20 -91.5q0 -79 44.5 -128.5t114.5 -49.5q47 0 82.5 24z" />
    <glyph glyph-name="c" unicode="c" horiz-adv-x="495" 
d="M164.5 25q-59.5 33 -92 92t-32.5 133q0 72 33 131t92.5 93t135.5 34q44 0 84 -13.5t67 -35.5v-99h-1q-61 68 -149 68q-49 0 -88 -24t-60.5 -65t-21.5 -89q0 -50 21 -90.5t60 -64t89 -23.5q47 0 85.5 18t63.5 50h1v-99q-23 -23 -64 -36t-87 -13q-77 0 -136.5 33z" />
    <glyph glyph-name="d" unicode="d" horiz-adv-x="610" 
d="M158 26.5q-56 34.5 -87 93.5t-31 130t31 130t87 93.5t130 34.5q51 0 92.5 -19.5t66.5 -53.5h1v197q0 67 -4 119h100q-4 -52 -4 -119v-495q0 -83 4 -137h-75l-18 70h-1q-25 -36 -67 -57t-95 -21q-74 0 -130 34.5zM403.5 121.5q44.5 49.5 44.5 128.5q0 51 -20 91.5
t-56.5 63.5t-82.5 23q-47 0 -82.5 -24t-55 -64.5t-19.5 -89.5t19.5 -89.5t55 -64.5t82.5 -24q70 0 114.5 49.5z" />
    <glyph glyph-name="e" unicode="e" horiz-adv-x="555" 
d="M161 24q-57 32 -89 90.5t-32 135.5q0 73 31.5 132t87 92.5t124.5 33.5q65 0 118.5 -31.5t85 -90t31.5 -136.5q0 -22 -3 -36h-384q8 -64 52.5 -102.5t109.5 -38.5q46 0 82 18t60 50l58 -65q-86 -84 -203 -84q-72 0 -129 32zM428 290q-7 67 -47.5 104t-97.5 37
q-61 0 -102 -39.5t-49 -101.5h296z" />
    <glyph glyph-name="f" unicode="f" horiz-adv-x="396" 
d="M114 119v304h-5q-25 0 -51.5 -2t-35.5 -2v84q60 -3 85 -3h7v56q0 101 48 151.5t135 50.5q63 0 112 -29v-90h-1q-26 20 -52 29.5t-56 9.5q-44 0 -69 -31t-25 -92v-55h59q81 0 120 3v-84q-52 4 -120 4h-59v-304q0 -65 4 -119h-101q5 68 5 119z" />
    <glyph glyph-name="g" unicode="g" horiz-adv-x="513" 
d="M101.5 -176.5q-60.5 31.5 -60.5 88.5q0 51 62 76v1q-57 29 -57 85q0 34 20 58.5t59 36.5v1q-34 28 -52.5 66t-18.5 82q0 52 26 95.5t71 69t98 25.5q22 0 41.5 -4t47.5 -12q37 -11 51 -11q57 0 97 35h1v-83q-19 -12 -55 -12q-16 0 -31 4v-4q43 -41 43 -103
q0 -53 -26 -96.5t-71 -69t-98 -25.5h-59q-27 0 -46 -10.5t-19 -28.5q0 -31 51 -31h168q66 0 109.5 -31.5t43.5 -84.5q0 -72 -60.5 -110.5t-166.5 -38.5q-108 0 -168.5 31.5zM329 235.5q33 32.5 33 82.5q0 49 -33 81.5t-80 32.5t-80 -32.5t-33 -81.5q0 -50 33 -82.5t80 -32.5
t80 32.5zM371 -125q37 18 37 49q0 48 -85 48h-104q-40 0 -65 -14t-25 -40q0 -29 36.5 -45t104.5 -16q64 0 101 18z" />
    <glyph glyph-name="h" unicode="h" horiz-adv-x="557" 
d="M67 25q3 81 3 94v513q0 67 -4 119h100q-4 -52 -4 -119v-182h1q22 25 56 41.5t76 16.5q58 0 103 -23.5t69.5 -65t24.5 -93.5v-207q0 -65 4 -119h-100q4 54 4 119v179q0 63 -34 96.5t-84 33.5q-48 0 -84 -30.5t-36 -82.5v-196q0 -92 2 -119h-98z" />
    <glyph glyph-name="i" unicode="i" horiz-adv-x="232" 
d="M67 25q3 81 3 94v262q0 18 -3 96l-1 23h100q-4 -52 -4 -119v-262q0 -65 4 -119h-100zM78 600.5q-15 14.5 -15 37.5q0 24 15 39t38 15t38 -15t15 -39q0 -23 -15 -37.5t-38 -14.5t-38 14.5z" />
    <glyph glyph-name="j" unicode="j" horiz-adv-x="240" 
d="M-43 -202q-22 6 -37 16v90h2q37 -29 78 -29q39 0 58.5 25t19.5 71v410q0 67 -4 119h100q-4 -52 -4 -119v-426q0 -81 -43 -122t-124 -41q-24 0 -46 6zM86 600.5q-15 14.5 -15 37.5q0 24 15 39t38 15t38 -15t15 -39q0 -23 -15 -37.5t-38 -14.5t-38 14.5z" />
    <glyph glyph-name="k" unicode="k" horiz-adv-x="480" 
d="M70 119v513q0 67 -4 119h100q-4 -52 -4 -119v-356l142 163q25 30 47 61h116l-202 -229l216 -271h-117l-16 24q-4 5 -11.5 16t-15.5 21l-159 200v-142q0 -65 4 -119h-100q4 54 4 119z" />
    <glyph glyph-name="l" unicode="l" horiz-adv-x="232" 
d="M70 119v513q0 67 -4 119h100q-4 -52 -4 -119v-513q0 -65 4 -119h-100q4 54 4 119z" />
    <glyph glyph-name="m" unicode="m" horiz-adv-x="863" 
d="M67 25q3 81 3 94v262q0 18 -3 96l-1 23h82l5 -55h1q15 24 54.5 43.5t77.5 19.5q46 0 91.5 -19t71.5 -57q28 40 65.5 58t87.5 18q86 0 141 -51t55 -142v-196q0 -65 4 -119h-100q4 54 4 119v191q0 39 -16.5 66.5t-42.5 41t-54 13.5q-49 0 -80.5 -31.5t-31.5 -91.5v-189
q0 -65 4 -119h-101q5 68 5 119v189q0 58 -34.5 90.5t-81.5 32.5q-46 0 -78.5 -33t-32.5 -81v-198q0 -65 4 -119h-100z" />
    <glyph glyph-name="n" unicode="n" horiz-adv-x="557" 
d="M67 25q3 81 3 94v262q0 18 -3 96l-1 23h82l6 -59h1q22 32 61 49.5t79 17.5q58 0 103 -23.5t69.5 -65t24.5 -93.5v-207q0 -65 4 -119h-100q4 54 4 119v179q0 63 -34 96.5t-84 33.5q-48 0 -84 -32.5t-36 -86.5v-190q0 -65 4 -119h-100z" />
    <glyph glyph-name="o" unicode="o" horiz-adv-x="596" 
d="M166.5 26q-59.5 34 -93.5 93t-34 131t34 131t93.5 93t131.5 34t131.5 -34t93.5 -93t34 -131q0 -73 -34 -131.5t-93 -92.5t-132 -34q-72 0 -131.5 34zM383 96q38 24 60 64.5t22 89.5t-22 89.5t-60 64.5t-85 24t-85 -24t-60 -64.5t-22 -89.5t22 -89.5t60 -64.5t85 -24
t85 24z" />
    <glyph glyph-name="p" unicode="p" horiz-adv-x="611" 
d="M70 -81v444q0 83 -4 137h75l18 -70h1q25 36 67 57t95 21q74 0 130 -34.5t87 -93.5t31 -130t-31 -130t-87 -93.5t-130 -34.5q-51 0 -92.5 19.5t-66.5 53.5h-1v-146q0 -67 4 -119h-100q4 52 4 119zM403.5 96q35.5 24 55 64.5t19.5 89.5t-19.5 89.5t-55 64.5t-82.5 24
q-70 0 -114.5 -49.5t-44.5 -128.5q0 -51 20 -91.5t56.5 -63.5t82.5 -23q47 0 82.5 24z" />
    <glyph glyph-name="q" unicode="q" horiz-adv-x="610" 
d="M448 -81v146h-1q-25 -34 -66.5 -53.5t-92.5 -19.5q-74 0 -130 34.5t-87 93.5t-31 130t31 130t87 93.5t130 34.5q53 0 95 -21t67 -57h1l18 70h75q-4 -54 -4 -137v-444q0 -67 4 -119h-100q4 52 4 119zM371.5 95q36.5 23 56.5 63.5t20 91.5q0 79 -44.5 128.5t-114.5 49.5
q-47 0 -82.5 -24t-55 -64.5t-19.5 -89.5t19.5 -89.5t55 -64.5t82.5 -24q46 0 82.5 23z" />
    <glyph glyph-name="r" unicode="r" horiz-adv-x="371" 
d="M67 25q3 81 3 94v262q0 18 -3 96l-1 23h82l6 -57h1q21 31 53.5 48t73.5 17q22 0 41.5 -4.5t30.5 -11.5v-104h-2q-35 39 -83 39t-77.5 -35.5t-29.5 -95.5v-177q0 -65 4 -119h-100z" />
    <glyph glyph-name="s" unicode="s" horiz-adv-x="443" 
d="M130.5 3.5q-46.5 12.5 -80.5 29.5v107h2q31 -31 78.5 -51.5t92.5 -20.5q41 0 66 19.5t25 49.5q0 25 -15.5 41t-49.5 27l-86 27q-115 37 -115 132q0 70 52.5 107t128.5 37q40 0 79.5 -10.5t66.5 -26.5v-103h-1q-29 29 -67 46.5t-75 17.5q-43 0 -68 -18t-25 -45
q0 -26 19 -39.5t52 -24.5l79 -26q61 -20 88.5 -52.5t27.5 -86.5q0 -67 -50.5 -108t-134.5 -41q-43 0 -89.5 12.5z" />
    <glyph glyph-name="t" unicode="t" horiz-adv-x="402" 
d="M151.5 29.5q-42.5 37.5 -42.5 109.5v283h-8q-24 0 -84 -3v84q28 -3 85 -3h7v51q0 65 -4 119h100q-4 -54 -4 -119v-51h59q82 0 121 3v-85q-52 4 -121 4h-59v-268q0 -82 79 -82q27 0 53.5 13t45.5 32h2v-96q-61 -29 -118 -29q-69 0 -111.5 37.5z" />
    <glyph glyph-name="u" unicode="u" horiz-adv-x="548" 
d="M116 39.5q-51 47.5 -51 138.5v203q0 13 -3 94l-1 25h100q-4 -54 -4 -119v-182q0 -64 26.5 -95.5t82.5 -31.5t88 31t32 94v184q0 65 -4 119h100q-4 -54 -4 -119v-262q0 -67 4 -119h-82l-6 57h-1q-14 -26 -52.5 -45.5t-79.5 -19.5q-94 0 -145 47.5z" />
    <glyph glyph-name="v" unicode="v" horiz-adv-x="476" 
d="M184 41l-146 405q-13 38 -28 53v1h111q-2 -15 8 -46l109 -336h1l110 336q9 28 9 46h108v-1q-7 -7 -13.5 -18.5t-14.5 -34.5l-146 -405l-14 -41h-80z" />
    <glyph glyph-name="w" unicode="w" horiz-adv-x="715" 
d="M151 13.5q-1 10.5 -6 27.5l-106 405q-12 43 -25 53v1h105q0 -12 8 -46l78 -339h1l99 339q7 25 10 46h89q0 -7 2.5 -22t5.5 -24l101 -339h1l77 339q7 29 9 46h102v-1q-16 -20 -25 -53l-107 -405q-7 -26 -6 -41h-98q0 2 -1.5 13.5t-5.5 27.5l-101 353h-1l-101 -353
q-6 -22 -6 -41h-98q0 3 -1 13.5z" />
    <glyph glyph-name="x" unicode="x" horiz-adv-x="476" 
d="M41 44l144 210l-127 192q-5 8 -18 27.5t-20 26.5h112q2 -4 5.5 -14.5t16.5 -31.5l84 -137h1l84 137q21 36 22 46h111q-5 -5 -19 -25.5t-19 -28.5l-126 -192l143 -210q7 -12 18 -27t14 -17h-113q-1 3 -4 14.5t-13 26.5l-98 146h-1l-99 -146q-7 -10 -11 -22t-5 -19h-115
q4 2 33 44z" />
    <glyph glyph-name="y" unicode="y" horiz-adv-x="485" 
d="M103 -199q1 2 8.5 12.5t14.5 30.5l75 196l-164 406q-13 32 -28 53v1h108q-1 -3 -1 -9q0 -14 9 -37l122 -313h1l112 313q11 31 9 46h107v-1q-2 -3 -12 -19t-17 -34l-231 -605q-5 -13 -5 -23q0 -9 4 -17v-1h-112v1z" />
    <glyph glyph-name="z" unicode="z" horiz-adv-x="473" 
d="M403 -2q-38 2 -56 2h-318v61l283 358v1h-168q-19 0 -57 -2q-24 -2 -37 -2v88q13 0 37 -2q38 -2 57 -2h286v-67l-275 -351v-1h192q18 0 56 2q24 2 37 2v-89q-13 0 -37 2z" />
    <glyph glyph-name="braceleft" unicode="{" horiz-adv-x="293" 
d="M169 -104.5q-37 17.5 -60 50t-23 75.5q0 25 3.5 44t9.5 45q11 39 11 63q0 74 -77 83v68q77 9 77 83q0 25 -11 63q-6 26 -9.5 45t-3.5 44q0 43 23 75.5t60 50t78 19.5v-84q-40 0 -57 -15.5t-17 -44.5q0 -18 4.5 -37.5t5.5 -23.5q14 -54 14 -96q0 -38 -15.5 -68.5
t-53.5 -43.5v-2q69 -23 69 -112q0 -42 -14 -96q-1 -4 -5.5 -23.5t-4.5 -37.5q0 -29 17 -44.5t57 -15.5v-84q-41 2 -78 19.5z" />
    <glyph glyph-name="bar" unicode="|" horiz-adv-x="252" 
d="M80 -16v697q0 67 -4 119h100q-4 -52 -4 -119v-697q0 -65 4 -119h-100q4 54 4 119z" />
    <glyph glyph-name="braceright" unicode="}" horiz-adv-x="293" 
d="M46 -40q40 0 57 15.5t17 44.5q0 18 -4.5 37.5t-5.5 23.5q-14 54 -14 96q0 38 15 68.5t54 43.5v2q-38 13 -53.5 43.5t-15.5 68.5q0 42 14 96q1 4 5.5 23.5t4.5 37.5q0 29 -17 44.5t-57 15.5v84q41 -2 78 -19.5t60 -50t23 -75.5q0 -25 -3.5 -44t-9.5 -45q-11 -38 -11 -63
q0 -74 77 -83v-68q-77 -9 -77 -83q0 -24 11 -63q6 -26 9.5 -45t3.5 -44q0 -43 -23 -75.5t-60 -50t-78 -19.5v84z" />
    <glyph glyph-name="asciitilde" unicode="~" horiz-adv-x="545" 
d="M318.5 192.5q-17.5 6.5 -38.5 19.5l-21 13q-4 3 -18.5 12t-26 13t-22.5 4q-22 0 -32 -17t-12 -41h-82q9 61 39.5 96.5t81.5 35.5q21 0 39 -6t39 -19l21 -13q5 -3 19.5 -12.5t25 -13.5t21.5 -4q22 0 32.5 17.5t11.5 40.5h83q-9 -61 -40 -96.5t-81 -35.5q-22 0 -39.5 6.5z
" />
    <glyph glyph-name="uni00A0" unicode="&#xa0;" horiz-adv-x="240" 
 />
    <glyph glyph-name="exclamdown" unicode="&#xa1;" horiz-adv-x="233" 
d="M74.5 462q-16.5 16 -16.5 41q0 24 16.5 40t41.5 16t41 -16t16 -40q0 -25 -16 -41t-41 -16t-41.5 16zM71 -43l5 300q0 63 22 107h37q22 -44 22 -107l5 -300q2 -67 9 -106h-109q7 39 9 106z" />
    <glyph glyph-name="cent" unicode="&#xa2;" horiz-adv-x="507" 
d="M260 -5q-99 13 -158.5 83t-59.5 172q0 65 27 119.5t76.5 90.5t114.5 45q-2 64 -4 86h100q-2 -22 -4 -88q62 -11 102 -44v-99h-1q-61 68 -149 68q-49 0 -88 -24t-60.5 -65t-21.5 -89q0 -50 21 -90.5t60 -64t89 -23.5q47 0 85.5 18t63.5 50h1v-99q-33 -33 -102 -45
q2 -65 4 -87h-100q2 22 4 86z" />
    <glyph glyph-name="sterling" unicode="&#xa3;" horiz-adv-x="504" 
d="M56 74q35 22 66.5 66.5t31.5 111.5q0 26 -3 47q-71 0 -106 -3v87q20 -2 85 -4q-14 43 -20.5 70.5t-6.5 65.5q0 51 26 95t74.5 71t112.5 27q72 0 126 -29v-99h-1q-20 22 -50 35t-67 13q-59 0 -94 -34t-35 -86q0 -26 6 -50t17 -56l7 -23h72q65 0 117 4v-87q-39 3 -117 3
h-54q3 -22 3 -47q0 -105 -89 -171v-1h193q21 0 67 2q30 2 46 2l-3 -84h-404v74z" />
    <glyph glyph-name="currency" unicode="&#xa4;" horiz-adv-x="517" 
d="M51 190l60 61q-31 47 -31 104t31 104l-60 60l43 44l60 -60q46 33 104 33q59 0 105 -33l60 60l43 -44l-60 -60q31 -45 31 -104t-31 -104l60 -61l-43 -43l-60 60q-46 -33 -105 -33q-58 0 -104 33l-60 -60zM334.5 275.5q30.5 32.5 30.5 79.5t-30.5 79.5t-76.5 32.5
q-44 0 -75 -32.5t-31 -79.5t31 -79.5t75 -32.5q46 0 76.5 32.5z" />
    <glyph glyph-name="yen" unicode="&#xa5;" horiz-adv-x="606" 
d="M256 119v31h-56q-66 0 -116 -4v82q37 -3 116 -3h56v73h-56q-78 0 -116 -3v82q50 -4 116 -4h14v1l-153 276q-6 12 -31 50h105q9 -19 28 -55l141 -272h1l141 271l11 20q15 29 18 36h101q-3 -5 -13.5 -20t-18.5 -30l-151 -276v-1h13q82 0 117 4v-82q-39 3 -117 3h-54v-73h54
q78 0 117 3v-82q-52 4 -117 4h-54v-31q0 -65 4 -119h-104q4 54 4 119z" />
    <glyph glyph-name="brokenbar" unicode="&#xa6;" horiz-adv-x="252" 
d="M80 558v123q0 67 -4 119h100q-4 -52 -4 -119v-123q0 -67 4 -119h-100q4 52 4 119zM80 -16v123q0 67 -4 119h100q-4 -52 -4 -119v-123q0 -67 4 -119h-100q4 52 4 119z" />
    <glyph glyph-name="section" unicode="&#xa7;" horiz-adv-x="470" 
d="M146.5 2.5q-39.5 10.5 -66.5 26.5v103h1q29 -29 67 -46.5t75 -17.5q43 0 68 18t25 45q0 25 -18.5 39t-52.5 25l-79 26q-61 20 -88.5 52.5t-27.5 86.5q0 70 61 105v1q-48 36 -48 98q0 70 52.5 107t128.5 37q40 0 79.5 -10.5t66.5 -26.5v-103h-1q-29 29 -67 46.5t-75 17.5
q-43 0 -68 -18t-25 -45q0 -25 18.5 -39t52.5 -25l79 -26q61 -20 88.5 -52.5t27.5 -86.5q0 -70 -61 -105v-1q48 -36 48 -98q0 -70 -52.5 -107t-128.5 -37q-40 0 -79.5 10.5zM315 298q14 17 14 39q0 26 -16 41.5t-49 26.5l-70 22q-25 -8 -39 -25t-14 -39q0 -25 16 -41t49 -27
l70 -22q25 8 39 25z" />
    <glyph glyph-name="dieresis" unicode="&#xa8;" horiz-adv-x="396" 
d="M64.5 602q-14.5 14 -14.5 36q0 23 14 37.5t37 14.5q24 0 38.5 -14.5t14.5 -37.5t-14.5 -36.5t-38.5 -13.5q-22 0 -36.5 14zM256.5 602q-14.5 14 -14.5 36q0 23 14 37.5t37 14.5q24 0 38.5 -14.5t14.5 -37.5t-14.5 -36.5t-38.5 -13.5q-22 0 -36.5 14z" />
    <glyph glyph-name="copyright" unicode="&#xa9;" horiz-adv-x="904" 
d="M246.5 -95q-94.5 55 -149.5 149.5t-55 205.5t55 205.5t149.5 149.5t205.5 55t205.5 -55t149.5 -149.5t55 -205.5t-55 -205.5t-149.5 -149.5t-205.5 -55t-205.5 55zM624.5 -34q76.5 46 119.5 124t43 170t-43 170t-119.5 124t-172.5 46t-172.5 -46t-119.5 -124t-43 -170
t43 -170t119.5 -124t172.5 -46t172.5 46zM351.5 58q-53.5 30 -83 82.5t-29.5 119.5q0 65 30 118t83.5 83.5t121.5 30.5q39 0 75 -12t61 -32v-89h-1q-54 61 -134 61q-44 0 -79 -21.5t-54.5 -58.5t-19.5 -80q0 -69 42 -114.5t111 -45.5q43 0 77 16t57 45h1v-89
q-21 -21 -58 -32.5t-78 -11.5q-69 0 -122.5 30z" />
    <glyph glyph-name="ordfeminine" unicode="&#xaa;" horiz-adv-x="302" 
d="M121 473q-33 0 -55.5 19.5t-22.5 51.5q0 25 18 42.5t51 21.5l70 9q0 16 -11.5 24t-32.5 8q-19 0 -38.5 -8t-34.5 -19h-1v61q20 11 37 17t46 6q35 0 62.5 -18t27.5 -64v-77q0 -43 4 -70h-59l-4 21h-1q-19 -25 -56 -25zM170 529.5q12 11.5 12 26.5v16l-45 -6
q-34 -5 -34 -23q0 -11 9.5 -18t25.5 -7q20 0 32 11.5z" />
    <glyph glyph-name="guillemotleft" unicode="&#xab;" horiz-adv-x="485" 
d="M40 248v4l130 190h73l-107 -192l107 -192h-73zM232 248v4l130 190h73l-107 -192l107 -192h-73z" />
    <glyph glyph-name="logicalnot" unicode="&#xac;" horiz-adv-x="545" 
d="M403 269v39q-19 1 -61 1h-152q-65 0 -137 -5v82q72 -5 137 -5h289v-112q0 -64 5 -137h-86q5 73 5 137z" />
    <glyph glyph-name="uni00AD" unicode="&#xad;" horiz-adv-x="443" 
d="M63 300q38 -3 116 -3h84q78 0 117 3v-87q-52 4 -117 4h-84q-66 0 -116 -4v87z" />
    <glyph glyph-name="registered" unicode="&#xae;" horiz-adv-x="499" 
d="M145 320q-48 28 -76 76t-28 105t28 104.5t76 75.5t105 28t104.5 -28t75.5 -75.5t28 -104.5t-28 -105t-75.5 -76t-104.5 -28t-105 28zM355 393.5q40 43.5 40 107.5t-40 107t-105 43t-105.5 -43t-40.5 -107t40.5 -107.5t105.5 -43.5t105 43.5zM174 445v118q0 16 -2 46h79
q38 0 54.5 -20.5t16.5 -45.5q0 -19 -8.5 -33t-25.5 -21v-1q8 -3 19 -22l6 -10q3 -5 13 -22.5t20 -33.5v-1h-65q-8 20 -20 43l-12 22q-5 10 -14 10h-6v-29q0 -31 2 -46h-59q2 30 2 46zM262.5 524q6.5 5 6.5 15q0 17 -23 17h-17v-36q8 -1 18 -1q9 0 15.5 5z" />
    <glyph glyph-name="macron" unicode="&#xaf;" horiz-adv-x="376" 
d="M50 676h276v-74h-276v74z" />
    <glyph glyph-name="degree" unicode="&#xb0;" horiz-adv-x="328" 
d="M75.5 494q-36.5 37 -36.5 89q0 33 17 62t45.5 46t62.5 17t62.5 -17t45.5 -46t17 -62q0 -52 -36.5 -89t-88.5 -37t-88.5 37zM206 540q17 18 17 43t-17 42.5t-42 17.5t-42 -17.5t-17 -42.5t17 -43t42 -18t42 18z" />
    <glyph glyph-name="plusminus" unicode="&#xb1;" horiz-adv-x="545" 
d="M234 290h-38q-64 0 -137 -5v81q73 -5 137 -5h38q-2 65 -5 107h86q-3 -42 -5 -107h38q62 0 137 5v-81q-75 5 -137 5h-38q2 -66 5 -108h-86q4 42 5 108zM59 146q72 -5 137 -5h152q62 0 137 5v-81q-75 5 -137 5h-152q-64 0 -137 -5v81z" />
    <glyph glyph-name="uni00B2" unicode="&#xb2;" horiz-adv-x="292" 
d="M197 510h-162v1l79 107q34 46 49 72t15 45q0 14 -9 23t-28 9q-23 0 -49 -19t-48 -47h-1v89q17 15 45.5 27t57.5 12q43 0 69 -22.5t26 -67.5q0 -25 -13 -53t-38 -65l-33 -48v-1h40q22 0 55 3v-67q-36 2 -55 2z" />
    <glyph glyph-name="uni00B3" unicode="&#xb3;" horiz-adv-x="296" 
d="M73 516.5q-27 10.5 -42 23.5l39 53q17 -12 31 -18t34 -6q25 0 41 13.5t16 37.5q0 25 -17.5 38t-49.5 13h-48v1l61 90v1h-39q-16 0 -54 -2v66q38 -2 54 -2h152v-1l-70 -99q37 -11 55.5 -40.5t18.5 -64.5q0 -48 -32.5 -81t-89.5 -33q-33 0 -60 10.5z" />
    <glyph glyph-name="acute" unicode="&#xb4;" horiz-adv-x="319" 
d="M135 700h134l-131 -112h-88z" />
    <glyph glyph-name="uni00B5" unicode="&#xb5;" horiz-adv-x="567" 
d="M77 -81v462q0 13 -3 94l-1 25h100q-4 -54 -4 -119v-182q0 -64 26.5 -95.5t82.5 -31.5t88 31t32 94v184q0 65 -4 119h100q-4 -54 -4 -119v-262q0 -67 4 -119h-82l-6 57h-1q-14 -26 -52.5 -45.5t-79.5 -19.5q-61 0 -103 33h-1v-106q0 -65 4 -119h-100q4 54 4 119z" />
    <glyph glyph-name="paragraph" unicode="&#xb6;" horiz-adv-x="684" 
d="M256 -81v326q-62 0 -114.5 30.5t-83 83t-30.5 114.5t30.5 114t83 82.5t114.5 30.5h270q78 0 117 3v-87q-21 2 -85 4v-39v-662q0 -65 4 -119h-100q4 54 4 119v662v39h-118v-39v-662q0 -65 4 -119h-100q4 54 4 119z" />
    <glyph glyph-name="periodcentered" unicode="&#xb7;" horiz-adv-x="238" 
d="M78 222q-16 16 -16 40q0 25 16 41t41 16t41.5 -16t16.5 -41q0 -24 -16.5 -40t-41.5 -16t-41 16z" />
    <glyph glyph-name="cedilla" unicode="&#xb8;" horiz-adv-x="261" 
d="M50 -185v60h1q29 -16 58 -16q17 0 27 8.5t10 23.5q0 13 -10.5 20.5t-28.5 7.5q-13 0 -23 -2h-1l23 83h55l-10 -36q60 -13 60 -72q0 -43 -26 -66t-70 -23q-40 0 -65 12z" />
    <glyph glyph-name="uni00B9" unicode="&#xb9;" horiz-adv-x="214" 
d="M91 564v172h-1l-55 -55h-1v64l85 80h40q0 -3 -1 -16t-1 -38v-207q0 -32 2 -54h-70q2 22 2 54z" />
    <glyph glyph-name="ordmasculine" unicode="&#xba;" horiz-adv-x="308" 
d="M73.5 506.5q-33.5 33.5 -33.5 83.5q0 49 33.5 82.5t80.5 33.5q48 0 81 -34t33 -82q0 -50 -32.5 -83.5t-81.5 -33.5q-47 0 -80.5 33.5zM191 551q15 15 15 39q0 23 -15 38t-37 15q-21 0 -36.5 -15t-15.5 -38t15.5 -38.5t36.5 -15.5q22 0 37 15z" />
    <glyph glyph-name="guillemotright" unicode="&#xbb;" horiz-adv-x="485" 
d="M157 250l-107 192h73l130 -190v-4l-130 -190h-73zM349 250l-107 192h73l130 -190v-4l-130 -190h-73z" />
    <glyph glyph-name="onequarter" unicode="&#xbc;" horiz-adv-x="679" 
d="M171 444v172h-1l-55 -55h-1v64l85 80h40q0 -3 -1 -16t-1 -38v-207q0 -32 2 -54h-70q2 22 2 54zM518 700h89l-493 -700h-89zM508 21.5q1 13.5 1 32.5v17h-82q-15 0 -51 -2v64l123 182h77q-2 -22 -2 -54v-128h60v-64q-36 2 -60 2v-17q0 -32 2 -54h-69q0 8 1 21.5zM509 133
v98h-1l-68 -97v-1h69z" />
    <glyph glyph-name="onehalf" unicode="&#xbd;" horiz-adv-x="672" 
d="M171 444v172h-1l-55 -55h-1v64l85 80h40q0 -3 -1 -16t-1 -38v-207q0 -32 2 -54h-70q2 22 2 54zM518 700h89l-493 -700h-89zM562 0h-162v1l79 107q34 46 49 72t15 45q0 14 -9 23t-28 9q-23 0 -49 -19t-48 -47h-1v89q17 15 45.5 27t57.5 12q43 0 69 -22.5t26 -67.5
q0 -25 -13 -53t-38 -65l-33 -48v-1h40q22 0 55 3v-67q-36 2 -55 2z" />
    <glyph glyph-name="threequarters" unicode="&#xbe;" horiz-adv-x="684" 
d="M84 396.5q-27 10.5 -42 23.5l39 53q17 -12 31 -18t34 -6q25 0 41 13.5t16 37.5q0 25 -17.5 38t-49.5 13h-48v1l61 90v1h-39q-16 0 -54 -2v66q38 -2 54 -2h152v-1l-70 -99q37 -11 55.5 -40.5t18.5 -64.5q0 -48 -32.5 -81t-89.5 -33q-33 0 -60 10.5zM536 700h89l-493 -700
h-89zM526 21.5q1 13.5 1 32.5v17h-82q-15 0 -51 -2v64l123 182h77q-2 -22 -2 -54v-128h60v-64q-36 2 -60 2v-17q0 -32 2 -54h-69q0 8 1 21.5zM527 133v98h-1l-68 -97v-1h69z" />
    <glyph glyph-name="questiondown" unicode="&#xbf;" horiz-adv-x="429" 
d="M204.5 462q-16.5 16 -16.5 41q0 24 16.5 40t41.5 16t41 -16t16 -40q0 -25 -16 -41t-41 -16t-41.5 16zM81.5 -113.5q-52.5 43.5 -52.5 120.5q0 62 28 103t83 86q45 38 65 69t20 68q0 16 -4 31h53q13 -42 13 -80q0 -37 -15 -65t-56 -65q-5 -4 -33.5 -29t-44 -53t-15.5 -58
q0 -41 26.5 -66t72.5 -25q48 0 94.5 27t79.5 70h3v-115q-36 -26 -82.5 -44t-96.5 -18q-86 0 -138.5 43.5z" />
    <glyph glyph-name="Agrave" unicode="&#xc0;" horiz-adv-x="684" 
d="M8 1q18 31 26 51l247 601q15 39 17 47h79q5 -17 17 -47l262 -602l26 -50v-1h-105q-4 8 -8.5 21.5t-12.5 32.5l-57 133h-316l-54 -133q-14 -32 -18 -54h-103v1zM463 270l-128 297l-119 -297h247zM177 900h134l85 -112h-88z" />
    <glyph glyph-name="Aacute" unicode="&#xc1;" horiz-adv-x="684" 
d="M8 1q18 31 26 51l247 601q15 39 17 47h79q5 -17 17 -47l262 -602l26 -50v-1h-105q-4 8 -8.5 21.5t-12.5 32.5l-57 133h-316l-54 -133q-14 -32 -18 -54h-103v1zM463 270l-128 297l-119 -297h247zM377 900h134l-131 -112h-88z" />
    <glyph glyph-name="Acircumflex" unicode="&#xc2;" horiz-adv-x="684" 
d="M8 1q18 31 26 51l247 601q15 39 17 47h79q5 -17 17 -47l262 -602l26 -50v-1h-105q-4 8 -8.5 21.5t-12.5 32.5l-57 133h-316l-54 -133q-14 -32 -18 -54h-103v1zM463 270l-128 297l-119 -297h247zM293 900h101l115 -112h-95l-70 63l-71 -63h-95z" />
    <glyph glyph-name="Atilde" unicode="&#xc3;" horiz-adv-x="684" 
d="M8 1q18 31 26 51l247 601q15 39 17 47h79q5 -17 17 -47l262 -602l26 -50v-1h-105q-4 8 -8.5 21.5t-12.5 32.5l-57 133h-316l-54 -133q-14 -32 -18 -54h-103v1zM463 270l-128 297l-119 -297h247zM350 808l-16 11q-5 4 -16 11t-18 10.5t-14 3.5q-18 0 -24.5 -12t-7.5 -32
h-73q7 51 32.5 82t68.5 31q30 0 56 -18l16 -11q20 -14 29.5 -19.5t18.5 -5.5q18 0 24.5 12t7.5 32h73q-7 -51 -32.5 -82t-68.5 -31q-30 0 -56 18z" />
    <glyph glyph-name="Adieresis" unicode="&#xc4;" horiz-adv-x="684" 
d="M8 1q18 31 26 51l247 601q15 39 17 47h79q5 -17 17 -47l262 -602l26 -50v-1h-105q-4 8 -8.5 21.5t-12.5 32.5l-57 133h-316l-54 -133q-14 -32 -18 -54h-103v1zM463 270l-128 297l-119 -297h247zM210.5 802q-14.5 14 -14.5 36q0 23 14 37.5t37 14.5q24 0 38.5 -14.5
t14.5 -37.5t-14.5 -36.5t-38.5 -13.5q-22 0 -36.5 14zM402.5 802q-14.5 14 -14.5 36q0 23 14 37.5t37 14.5q24 0 38.5 -14.5t14.5 -37.5t-14.5 -36.5t-38.5 -13.5q-22 0 -36.5 14z" />
    <glyph glyph-name="Aring" unicode="&#xc5;" horiz-adv-x="684" 
d="M8 1q18 31 26 51l247 601q15 39 17 47h79q5 -17 17 -47l262 -602l26 -50v-1h-105q-4 8 -8.5 21.5t-12.5 32.5l-57 133h-316l-54 -133q-14 -32 -18 -54h-103v1zM463 270l-128 297l-119 -297h247zM272.5 770.5q-29.5 29.5 -29.5 70.5t29.5 70.5t71.5 29.5q41 0 71 -29.5
t30 -70.5t-30 -70.5t-71 -29.5q-42 0 -71.5 29.5zM368.5 815.5q10.5 10.5 10.5 25.5t-10.5 25.5t-24.5 10.5q-15 0 -25 -10.5t-10 -25.5q0 -16 10 -26t25 -10q14 0 24.5 10.5z" />
    <glyph glyph-name="AE" unicode="&#xc6;" horiz-adv-x="948" 
d="M-24 1q3 4 14 18t23 33l374 601q21 34 27 47h478l3 -86l-113 4h-214q-1 -12 -1 -38v-186h182l113 4v-90l-114 4h-181v-191q0 -26 1 -38h219l113 4l-3 -87h-430q4 54 4 119v68h-272l-82 -133q-21 -34 -29 -54h-112v1zM471 270v311v41h-1l-220 -352h221z" />
    <glyph glyph-name="Ccedilla" unicode="&#xc7;" horiz-adv-x="689" 
d="M275 591q-62 -37 -97.5 -100.5t-35.5 -139.5t35.5 -139.5t97.5 -100.5t137 -37q134 0 231 93h1v-115q-77 -54 -205 -59l-8 -29q60 -13 60 -72q0 -43 -26 -66t-70 -23q-40 0 -65 12v60h1q29 -16 58 -16q17 0 27 8.5t10 23.5q0 13 -10.5 20.5t-28.5 7.5q-13 0 -23 -2h-1
l21 76q-96 6 -173.5 54.5t-122 128t-44.5 175.5q0 101 48.5 183t132.5 129t187 47q79 0 137 -17t95 -43v-115h-1q-97 93 -231 93q-75 0 -137 -37z" />
    <glyph glyph-name="Egrave" unicode="&#xc8;" horiz-adv-x="560" 
d="M83 119v462q0 67 -4 119h425l3 -86l-113 4h-214q-1 -12 -1 -38v-186h182l113 4v-90l-114 4h-181v-191q0 -26 1 -38h219l113 4l-3 -87h-430q4 54 4 119zM129 900h134l85 -112h-88z" />
    <glyph glyph-name="Eacute" unicode="&#xc9;" horiz-adv-x="560" 
d="M83 119v462q0 67 -4 119h425l3 -86l-113 4h-214q-1 -12 -1 -38v-186h182l113 4v-90l-114 4h-181v-191q0 -26 1 -38h219l113 4l-3 -87h-430q4 54 4 119zM329 900h134l-131 -112h-88z" />
    <glyph glyph-name="Ecircumflex" unicode="&#xca;" horiz-adv-x="560" 
d="M83 119v462q0 67 -4 119h425l3 -86l-113 4h-214q-1 -12 -1 -38v-186h182l113 4v-90l-114 4h-181v-191q0 -26 1 -38h219l113 4l-3 -87h-430q4 54 4 119zM245 900h101l115 -112h-95l-70 63l-71 -63h-95z" />
    <glyph glyph-name="Edieresis" unicode="&#xcb;" horiz-adv-x="560" 
d="M83 119v462q0 67 -4 119h425l3 -86l-113 4h-214q-1 -12 -1 -38v-186h182l113 4v-90l-114 4h-181v-191q0 -26 1 -38h219l113 4l-3 -87h-430q4 54 4 119zM162.5 802q-14.5 14 -14.5 36q0 23 14 37.5t37 14.5q24 0 38.5 -14.5t14.5 -37.5t-14.5 -36.5t-38.5 -13.5
q-22 0 -36.5 14zM354.5 802q-14.5 14 -14.5 36q0 23 14 37.5t37 14.5q24 0 38.5 -14.5t14.5 -37.5t-14.5 -36.5t-38.5 -13.5q-22 0 -36.5 14z" />
    <glyph glyph-name="Igrave" unicode="&#xcc;" horiz-adv-x="261" 
d="M83 119v462q0 67 -4 119h103q-4 -52 -4 -119v-462q0 -65 4 -119h-103q4 54 4 119zM-36 900h134l85 -112h-88z" />
    <glyph glyph-name="Iacute" unicode="&#xcd;" horiz-adv-x="261" 
d="M83 119v462q0 67 -4 119h103q-4 -52 -4 -119v-462q0 -65 4 -119h-103q4 54 4 119zM164 900h134l-131 -112h-88z" />
    <glyph glyph-name="Icircumflex" unicode="&#xce;" horiz-adv-x="261" 
d="M83 119v462q0 67 -4 119h103q-4 -52 -4 -119v-462q0 -65 4 -119h-103q4 54 4 119zM80 900h101l115 -112h-95l-70 63l-71 -63h-95z" />
    <glyph glyph-name="Idieresis" unicode="&#xcf;" horiz-adv-x="261" 
d="M83 119v462q0 67 -4 119h103q-4 -52 -4 -119v-462q0 -65 4 -119h-103q4 54 4 119zM-2.5 802q-14.5 14 -14.5 36q0 23 14 37.5t37 14.5q24 0 38.5 -14.5t14.5 -37.5t-14.5 -36.5t-38.5 -13.5q-22 0 -36.5 14zM189.5 802q-14.5 14 -14.5 36q0 23 14 37.5t37 14.5
q24 0 38.5 -14.5t14.5 -37.5t-14.5 -36.5t-38.5 -13.5q-22 0 -36.5 14z" />
    <glyph glyph-name="Eth" unicode="&#xd0;" horiz-adv-x="720" 
d="M501.5 653.5q81.5 -46.5 128 -127t46.5 -177.5t-47 -178t-129.5 -128.5t-182.5 -47.5q-14 0 -77 3q-30 2 -44 2h-96q4 54 4 119v191q-65 -2 -85 -4v87q26 -2 56 -2l29 -1v191q0 67 -4 119h219q101 0 182.5 -46.5zM446.5 114.5q61.5 36.5 96.5 98.5t35 135t-35 135
t-97 98.5t-138 36.5h-107q-1 -14 -1 -40v-188h68q78 0 117 3v-87q-52 4 -117 4h-68v-203q1 -20 21 -23q34 -6 90 -6q74 0 135.5 36.5z" />
    <glyph glyph-name="Ntilde" unicode="&#xd1;" horiz-adv-x="739" 
d="M82 48q2 48 2 71v528q0 17 -14 53h96l405 -539h1v421q0 22 -2 70q-2 32 -2 48h92q0 -16 -2 -48q-2 -48 -2 -70v-463q0 -23 2 -71q2 -32 2 -48h-84l-407 545h-1v-426q0 -50 3 -119h-91q0 16 2 48zM371 808l-16 11q-5 4 -16 11t-18 10.5t-14 3.5q-18 0 -24.5 -12t-7.5 -32
h-73q7 51 32.5 82t68.5 31q30 0 56 -18l16 -11q20 -14 29.5 -19.5t18.5 -5.5q18 0 24.5 12t7.5 32h73q-7 -51 -32.5 -82t-68.5 -31q-30 0 -56 18z" />
    <glyph glyph-name="Ograve" unicode="&#xd2;" horiz-adv-x="809" 
d="M221.5 39.5q-82.5 47.5 -130 129.5t-47.5 182t47.5 182t130 129.5t182.5 47.5q101 0 183.5 -47t130 -129.5t47.5 -182.5q0 -101 -47.5 -183t-130 -129t-183.5 -47q-100 0 -182.5 47.5zM537 111.5q60 36.5 95 100t35 139.5t-35 139.5t-95 100t-133 36.5q-72 0 -132 -36.5
t-95 -100t-35 -139.5t35 -139.5t95 -100t132 -36.5q73 0 133 36.5zM237 900h134l85 -112h-88z" />
    <glyph glyph-name="Oacute" unicode="&#xd3;" horiz-adv-x="809" 
d="M221.5 39.5q-82.5 47.5 -130 129.5t-47.5 182t47.5 182t130 129.5t182.5 47.5q101 0 183.5 -47t130 -129.5t47.5 -182.5q0 -101 -47.5 -183t-130 -129t-183.5 -47q-100 0 -182.5 47.5zM537 111.5q60 36.5 95 100t35 139.5t-35 139.5t-95 100t-133 36.5q-72 0 -132 -36.5
t-95 -100t-35 -139.5t35 -139.5t95 -100t132 -36.5q73 0 133 36.5zM437 900h134l-131 -112h-88z" />
    <glyph glyph-name="Ocircumflex" unicode="&#xd4;" horiz-adv-x="809" 
d="M221.5 39.5q-82.5 47.5 -130 129.5t-47.5 182t47.5 182t130 129.5t182.5 47.5q101 0 183.5 -47t130 -129.5t47.5 -182.5q0 -101 -47.5 -183t-130 -129t-183.5 -47q-100 0 -182.5 47.5zM537 111.5q60 36.5 95 100t35 139.5t-35 139.5t-95 100t-133 36.5q-72 0 -132 -36.5
t-95 -100t-35 -139.5t35 -139.5t95 -100t132 -36.5q73 0 133 36.5zM353 900h101l115 -112h-95l-70 63l-71 -63h-95z" />
    <glyph glyph-name="Otilde" unicode="&#xd5;" horiz-adv-x="809" 
d="M221.5 39.5q-82.5 47.5 -130 129.5t-47.5 182t47.5 182t130 129.5t182.5 47.5q101 0 183.5 -47t130 -129.5t47.5 -182.5q0 -101 -47.5 -183t-130 -129t-183.5 -47q-100 0 -182.5 47.5zM537 111.5q60 36.5 95 100t35 139.5t-35 139.5t-95 100t-133 36.5q-72 0 -132 -36.5
t-95 -100t-35 -139.5t35 -139.5t95 -100t132 -36.5q73 0 133 36.5zM410 808l-16 11q-5 4 -16 11t-18 10.5t-14 3.5q-18 0 -24.5 -12t-7.5 -32h-73q7 51 32.5 82t68.5 31q30 0 56 -18l16 -11q20 -14 29.5 -19.5t18.5 -5.5q18 0 24.5 12t7.5 32h73q-7 -51 -32.5 -82t-68.5 -31
q-30 0 -56 18z" />
    <glyph glyph-name="Odieresis" unicode="&#xd6;" horiz-adv-x="809" 
d="M221.5 39.5q-82.5 47.5 -130 129.5t-47.5 182t47.5 182t130 129.5t182.5 47.5q101 0 183.5 -47t130 -129.5t47.5 -182.5q0 -101 -47.5 -183t-130 -129t-183.5 -47q-100 0 -182.5 47.5zM537 111.5q60 36.5 95 100t35 139.5t-35 139.5t-95 100t-133 36.5q-72 0 -132 -36.5
t-95 -100t-35 -139.5t35 -139.5t95 -100t132 -36.5q73 0 133 36.5zM270.5 802q-14.5 14 -14.5 36q0 23 14 37.5t37 14.5q24 0 38.5 -14.5t14.5 -37.5t-14.5 -36.5t-38.5 -13.5q-22 0 -36.5 14zM462.5 802q-14.5 14 -14.5 36q0 23 14 37.5t37 14.5q24 0 38.5 -14.5
t14.5 -37.5t-14.5 -36.5t-38.5 -13.5q-22 0 -36.5 14z" />
    <glyph glyph-name="multiply" unicode="&#xd7;" horiz-adv-x="545" 
d="M76 120q64 58 98 91l46 46l-46 46q-34 33 -98 91l59 59q58 -64 91 -98l46 -46l46 46q33 34 91 98l59 -59q-64 -58 -98 -91l-46 -46l46 -46q34 -33 98 -91l-59 -59q-58 64 -91 98l-46 46l-46 -46q-33 -34 -91 -98z" />
    <glyph glyph-name="Oslash" unicode="&#xd8;" horiz-adv-x="810" 
d="M745 473q20 -57 20 -122q0 -101 -47.5 -183t-130 -129t-183.5 -47q-63 0 -120.5 19.5t-104.5 55.5q-33 -35 -51 -58l-63 65q6 5 22 19t34 31q-37 48 -57 105.5t-20 121.5q0 100 47.5 182t130 129.5t182.5 47.5q65 0 122.5 -20t105.5 -57q14 15 51 59l61 -66
q-37 -32 -56 -50q37 -46 57 -103zM272 590.5q-60 -36.5 -95 -100t-35 -139.5q0 -89 47 -160l379 377q-34 28 -76 43.5t-88 15.5q-72 0 -132 -36.5zM537 111.5q60 36.5 95 100t35 139.5q0 88 -46 159l-378 -378q33 -27 74.5 -42t86.5 -15q73 0 133 36.5z" />
    <glyph glyph-name="Ugrave" unicode="&#xd9;" horiz-adv-x="709" 
d="M145.5 67.5q-69.5 75.5 -69.5 217.5v296q0 54 -5 119h105q-4 -52 -4 -119v-294q0 -105 43.5 -158.5t136.5 -53.5q91 0 138 55.5t47 156.5v294q0 18 -3 96l-1 23h104q-4 -52 -4 -119v-296q0 -140 -72 -216.5t-209 -76.5t-206.5 75.5zM187 900h134l85 -112h-88z" />
    <glyph glyph-name="Uacute" unicode="&#xda;" horiz-adv-x="709" 
d="M145.5 67.5q-69.5 75.5 -69.5 217.5v296q0 54 -5 119h105q-4 -52 -4 -119v-294q0 -105 43.5 -158.5t136.5 -53.5q91 0 138 55.5t47 156.5v294q0 18 -3 96l-1 23h104q-4 -52 -4 -119v-296q0 -140 -72 -216.5t-209 -76.5t-206.5 75.5zM387 900h134l-131 -112h-88z" />
    <glyph glyph-name="Ucircumflex" unicode="&#xdb;" horiz-adv-x="709" 
d="M145.5 67.5q-69.5 75.5 -69.5 217.5v296q0 54 -5 119h105q-4 -52 -4 -119v-294q0 -105 43.5 -158.5t136.5 -53.5q91 0 138 55.5t47 156.5v294q0 18 -3 96l-1 23h104q-4 -52 -4 -119v-296q0 -140 -72 -216.5t-209 -76.5t-206.5 75.5zM303 900h101l115 -112h-95l-70 63
l-71 -63h-95z" />
    <glyph glyph-name="Udieresis" unicode="&#xdc;" horiz-adv-x="709" 
d="M145.5 67.5q-69.5 75.5 -69.5 217.5v296q0 54 -5 119h105q-4 -52 -4 -119v-294q0 -105 43.5 -158.5t136.5 -53.5q91 0 138 55.5t47 156.5v294q0 18 -3 96l-1 23h104q-4 -52 -4 -119v-296q0 -140 -72 -216.5t-209 -76.5t-206.5 75.5zM220.5 802q-14.5 14 -14.5 36
q0 23 14 37.5t37 14.5q24 0 38.5 -14.5t14.5 -37.5t-14.5 -36.5t-38.5 -13.5q-22 0 -36.5 14zM412.5 802q-14.5 14 -14.5 36q0 23 14 37.5t37 14.5q24 0 38.5 -14.5t14.5 -37.5t-14.5 -36.5t-38.5 -13.5q-22 0 -36.5 14z" />
    <glyph glyph-name="Yacute" unicode="&#xdd;" horiz-adv-x="622" 
d="M264 119v179l-215 352q-7 12 -31 50h105q17 -36 28 -55l161 -267h1l161 266q20 32 29 56h101q-3 -5 -11 -17t-21 -33l-212 -352v-179q0 -65 4 -119h-104q4 54 4 119zM347 900h134l-131 -112h-88z" />
    <glyph glyph-name="Thorn" unicode="&#xde;" horiz-adv-x="552" 
d="M83 119v462q0 67 -4 119h104q-4 -52 -4 -119v-11h93q68 0 123.5 -27t87 -74.5t31.5 -106.5q0 -64 -32.5 -114.5t-90.5 -78t-131 -27.5q-23 0 -81 6v-29q0 -65 4 -119h-104q4 54 4 119zM375 264.5q41 35.5 41 97.5q0 55 -40.5 90t-104.5 35h-92v-251q36 -7 83 -7
q72 0 113 35.5z" />
    <glyph glyph-name="germandbls" unicode="&#xdf;" horiz-adv-x="607" 
d="M244 9v88h1q26 -12 48.5 -18.5t51.5 -6.5q55 0 93 38.5t38 106.5q0 69 -44.5 105t-130.5 36h-27v76q61 4 101.5 38.5t40.5 93.5q0 47 -31.5 80t-92.5 33q-57 0 -93.5 -41t-36.5 -109v-410q0 -65 4 -119h-100q4 54 4 119v420q0 67 29.5 117t80 76.5t113.5 26.5t112 -25.5
t76 -68t27 -90.5q0 -104 -76 -159v-1q136 -55 136 -203q0 -66 -30.5 -116t-81.5 -77t-110 -27q-61 0 -102 17z" />
    <glyph glyph-name="agrave" unicode="&#xe0;" horiz-adv-x="506" 
d="M83 31.5q-48 39.5 -48 107.5q0 62 42 98t120 44l155 16v32q0 101 -105 101q-45 0 -91 -20t-83 -49h-2v95q29 19 81 35.5t97 16.5q194 0 194 -177v-213v-34q0 -29 2 -47t9 -37h-92q-5 12 -9 49h-1q-22 -26 -59.5 -41.5t-89.5 -15.5q-72 0 -120 39.5zM282 77q30 13 50 40.5
t20 68.5v38l-125 -13q-47 -5 -72.5 -24.5t-25.5 -47.5q0 -34 24 -54.5t67 -20.5q32 0 62 13zM80 700h134l85 -112h-88z" />
    <glyph glyph-name="aacute" unicode="&#xe1;" horiz-adv-x="506" 
d="M83 31.5q-48 39.5 -48 107.5q0 62 42 98t120 44l155 16v32q0 101 -105 101q-45 0 -91 -20t-83 -49h-2v95q29 19 81 35.5t97 16.5q194 0 194 -177v-213v-34q0 -29 2 -47t9 -37h-92q-5 12 -9 49h-1q-22 -26 -59.5 -41.5t-89.5 -15.5q-72 0 -120 39.5zM282 77q30 13 50 40.5
t20 68.5v38l-125 -13q-47 -5 -72.5 -24.5t-25.5 -47.5q0 -34 24 -54.5t67 -20.5q32 0 62 13zM280 700h134l-131 -112h-88z" />
    <glyph glyph-name="acircumflex" unicode="&#xe2;" horiz-adv-x="506" 
d="M83 31.5q-48 39.5 -48 107.5q0 62 42 98t120 44l155 16v32q0 101 -105 101q-45 0 -91 -20t-83 -49h-2v95q29 19 81 35.5t97 16.5q194 0 194 -177v-213v-34q0 -29 2 -47t9 -37h-92q-5 12 -9 49h-1q-22 -26 -59.5 -41.5t-89.5 -15.5q-72 0 -120 39.5zM282 77q30 13 50 40.5
t20 68.5v38l-125 -13q-47 -5 -72.5 -24.5t-25.5 -47.5q0 -34 24 -54.5t67 -20.5q32 0 62 13zM196 700h101l115 -112h-95l-70 63l-71 -63h-95z" />
    <glyph glyph-name="atilde" unicode="&#xe3;" horiz-adv-x="506" 
d="M83 31.5q-48 39.5 -48 107.5q0 62 42 98t120 44l155 16v32q0 101 -105 101q-45 0 -91 -20t-83 -49h-2v95q29 19 81 35.5t97 16.5q194 0 194 -177v-213v-34q0 -29 2 -47t9 -37h-92q-5 12 -9 49h-1q-22 -26 -59.5 -41.5t-89.5 -15.5q-72 0 -120 39.5zM282 77q30 13 50 40.5
t20 68.5v38l-125 -13q-47 -5 -72.5 -24.5t-25.5 -47.5q0 -34 24 -54.5t67 -20.5q32 0 62 13zM253 608l-16 11q-5 4 -16 11t-18 10.5t-14 3.5q-18 0 -24.5 -12t-7.5 -32h-73q7 51 32.5 82t68.5 31q30 0 56 -18l16 -11q20 -14 29.5 -19.5t18.5 -5.5q18 0 24.5 12t7.5 32h73
q-7 -51 -32.5 -82t-68.5 -31q-30 0 -56 18z" />
    <glyph glyph-name="adieresis" unicode="&#xe4;" horiz-adv-x="506" 
d="M83 31.5q-48 39.5 -48 107.5q0 62 42 98t120 44l155 16v32q0 101 -105 101q-45 0 -91 -20t-83 -49h-2v95q29 19 81 35.5t97 16.5q194 0 194 -177v-213v-34q0 -29 2 -47t9 -37h-92q-5 12 -9 49h-1q-22 -26 -59.5 -41.5t-89.5 -15.5q-72 0 -120 39.5zM282 77q30 13 50 40.5
t20 68.5v38l-125 -13q-47 -5 -72.5 -24.5t-25.5 -47.5q0 -34 24 -54.5t67 -20.5q32 0 62 13zM113.5 602q-14.5 14 -14.5 36q0 23 14 37.5t37 14.5q24 0 38.5 -14.5t14.5 -37.5t-14.5 -36.5t-38.5 -13.5q-22 0 -36.5 14zM305.5 602q-14.5 14 -14.5 36q0 23 14 37.5t37 14.5
q24 0 38.5 -14.5t14.5 -37.5t-14.5 -36.5t-38.5 -13.5q-22 0 -36.5 14z" />
    <glyph glyph-name="aring" unicode="&#xe5;" horiz-adv-x="506" 
d="M83 31.5q-48 39.5 -48 107.5q0 62 42 98t120 44l155 16v32q0 101 -105 101q-45 0 -91 -20t-83 -49h-2v95q29 19 81 35.5t97 16.5q194 0 194 -177v-213v-34q0 -29 2 -47t9 -37h-92q-5 12 -9 49h-1q-22 -26 -59.5 -41.5t-89.5 -15.5q-72 0 -120 39.5zM282 77q30 13 50 40.5
t20 68.5v38l-125 -13q-47 -5 -72.5 -24.5t-25.5 -47.5q0 -34 24 -54.5t67 -20.5q32 0 62 13zM175.5 570.5q-29.5 29.5 -29.5 70.5t29.5 70.5t71.5 29.5q41 0 71 -29.5t30 -70.5t-30 -70.5t-71 -29.5q-42 0 -71.5 29.5zM271.5 615.5q10.5 10.5 10.5 25.5t-10.5 25.5
t-24.5 10.5q-15 0 -25 -10.5t-10 -25.5q0 -16 10 -26t25 -10q14 0 24.5 10.5z" />
    <glyph glyph-name="ae" unicode="&#xe6;" horiz-adv-x="867" 
d="M127 11.5q-42 19.5 -67 54.5t-25 81q0 71 50.5 107t146.5 36h120v39q0 101 -105 101q-45 0 -91 -20t-83 -49h-2v95q29 19 81 35.5t97 16.5q127 0 170 -75h1q33 36 78 55.5t97 19.5q65 0 118.5 -31.5t85 -90t31.5 -136.5q0 -22 -3 -36h-384q8 -64 52.5 -102.5t109.5 -38.5
q46 0 82 18t60 50l58 -65q-86 -84 -203 -84q-61 0 -111.5 23.5t-83.5 65.5h-1q-68 -89 -186 -89q-51 0 -93 19.5zM740 290q-7 67 -47.5 104t-97.5 37q-61 0 -102 -39.5t-49 -101.5h296zM316 102q36 29 36 90v22h-116q-53 0 -80 -18.5t-27 -48.5q0 -35 27.5 -54.5t70.5 -19.5
q53 0 89 29z" />
    <glyph glyph-name="ccedilla" unicode="&#xe7;" horiz-adv-x="495" 
d="M214 404q-39 -24 -60.5 -65t-21.5 -89q0 -50 21 -90.5t60 -64t89 -23.5q47 0 85.5 18t63.5 50h1v-99q-20 -20 -52.5 -32t-70.5 -16l-8 -29q60 -13 60 -72q0 -43 -26 -66t-70 -23q-40 0 -65 12v60h1q29 -16 58 -16q17 0 27 8.5t10 23.5q0 13 -10.5 20.5t-28.5 7.5
q-13 0 -23 -2h-1l21 76q-70 6 -123 40.5t-82 90.5t-29 126q0 72 33 131t92.5 93t135.5 34q44 0 84 -13.5t67 -35.5v-99h-1q-61 68 -149 68q-49 0 -88 -24z" />
    <glyph glyph-name="egrave" unicode="&#xe8;" horiz-adv-x="555" 
d="M161 24q-57 32 -89 90.5t-32 135.5q0 73 31.5 132t87 92.5t124.5 33.5q65 0 118.5 -31.5t85 -90t31.5 -136.5q0 -22 -3 -36h-384q8 -64 52.5 -102.5t109.5 -38.5q46 0 82 18t60 50l58 -65q-86 -84 -203 -84q-72 0 -129 32zM428 290q-7 67 -47.5 104t-97.5 37
q-61 0 -102 -39.5t-49 -101.5h296zM118 700h134l85 -112h-88z" />
    <glyph glyph-name="eacute" unicode="&#xe9;" horiz-adv-x="555" 
d="M161 24q-57 32 -89 90.5t-32 135.5q0 73 31.5 132t87 92.5t124.5 33.5q65 0 118.5 -31.5t85 -90t31.5 -136.5q0 -22 -3 -36h-384q8 -64 52.5 -102.5t109.5 -38.5q46 0 82 18t60 50l58 -65q-86 -84 -203 -84q-72 0 -129 32zM428 290q-7 67 -47.5 104t-97.5 37
q-61 0 -102 -39.5t-49 -101.5h296zM318 700h134l-131 -112h-88z" />
    <glyph glyph-name="ecircumflex" unicode="&#xea;" horiz-adv-x="555" 
d="M161 24q-57 32 -89 90.5t-32 135.5q0 73 31.5 132t87 92.5t124.5 33.5q65 0 118.5 -31.5t85 -90t31.5 -136.5q0 -22 -3 -36h-384q8 -64 52.5 -102.5t109.5 -38.5q46 0 82 18t60 50l58 -65q-86 -84 -203 -84q-72 0 -129 32zM428 290q-7 67 -47.5 104t-97.5 37
q-61 0 -102 -39.5t-49 -101.5h296zM234 700h101l115 -112h-95l-70 63l-71 -63h-95z" />
    <glyph glyph-name="edieresis" unicode="&#xeb;" horiz-adv-x="555" 
d="M161 24q-57 32 -89 90.5t-32 135.5q0 73 31.5 132t87 92.5t124.5 33.5q65 0 118.5 -31.5t85 -90t31.5 -136.5q0 -22 -3 -36h-384q8 -64 52.5 -102.5t109.5 -38.5q46 0 82 18t60 50l58 -65q-86 -84 -203 -84q-72 0 -129 32zM428 290q-7 67 -47.5 104t-97.5 37
q-61 0 -102 -39.5t-49 -101.5h296zM151.5 602q-14.5 14 -14.5 36q0 23 14 37.5t37 14.5q24 0 38.5 -14.5t14.5 -37.5t-14.5 -36.5t-38.5 -13.5q-22 0 -36.5 14zM343.5 602q-14.5 14 -14.5 36q0 23 14 37.5t37 14.5q24 0 38.5 -14.5t14.5 -37.5t-14.5 -36.5t-38.5 -13.5
q-22 0 -36.5 14z" />
    <glyph glyph-name="igrave" unicode="&#xec;" horiz-adv-x="232" 
d="M67 25q3 81 3 94v262q0 18 -3 96l-1 23h100q-4 -52 -4 -119v-262q0 -65 4 -119h-100zM-51 700h134l85 -112h-88z" />
    <glyph glyph-name="iacute" unicode="&#xed;" horiz-adv-x="232" 
d="M67 25q3 81 3 94v262q0 18 -3 96l-1 23h100q-4 -52 -4 -119v-262q0 -65 4 -119h-100zM149 700h134l-131 -112h-88z" />
    <glyph glyph-name="icircumflex" unicode="&#xee;" horiz-adv-x="232" 
d="M67 25q3 81 3 94v262q0 18 -3 96l-1 23h100q-4 -52 -4 -119v-262q0 -65 4 -119h-100zM65 700h101l115 -112h-95l-70 63l-71 -63h-95z" />
    <glyph glyph-name="idieresis" unicode="&#xef;" horiz-adv-x="232" 
d="M67 25q3 81 3 94v262q0 18 -3 96l-1 23h100q-4 -52 -4 -119v-262q0 -65 4 -119h-100zM-17.5 602q-14.5 14 -14.5 36q0 23 14 37.5t37 14.5q24 0 38.5 -14.5t14.5 -37.5t-14.5 -36.5t-38.5 -13.5q-22 0 -36.5 14zM174.5 602q-14.5 14 -14.5 36q0 23 14 37.5t37 14.5
q24 0 38.5 -14.5t14.5 -37.5t-14.5 -36.5t-38.5 -13.5q-22 0 -36.5 14z" />
    <glyph glyph-name="eth" unicode="&#xf0;" horiz-adv-x="601" 
d="M166.5 26q-59.5 34 -93.5 93t-34 131t34 131t93.5 93t131.5 34q48 0 82 -14.5t61 -41.5l1 1q-34 75 -108 145l-27 -10q-51 -18 -108 -43l-27 80q21 5 95 31q-71 54 -146 93v2h142q49 -32 87 -65l20 7q81 30 109 43l28 -80q-37 -10 -95 -30q75 -82 110 -167.5t35 -198.5
q0 -79 -33.5 -140t-92.5 -94.5t-133 -33.5q-72 0 -131.5 34zM383 96q38 24 60 64.5t22 89.5t-22 89.5t-60 64.5t-85 24t-85 -24t-60 -64.5t-22 -89.5t22 -89.5t60 -64.5t85 -24t85 24z" />
    <glyph glyph-name="ntilde" unicode="&#xf1;" horiz-adv-x="557" 
d="M67 25q3 81 3 94v262q0 18 -3 96l-1 23h82l6 -59h1q22 32 61 49.5t79 17.5q58 0 103 -23.5t69.5 -65t24.5 -93.5v-207q0 -65 4 -119h-100q4 54 4 119v179q0 63 -34 96.5t-84 33.5q-48 0 -84 -32.5t-36 -86.5v-190q0 -65 4 -119h-100zM284 608l-16 11q-5 4 -16 11
t-18 10.5t-14 3.5q-18 0 -24.5 -12t-7.5 -32h-73q7 51 32.5 82t68.5 31q30 0 56 -18l16 -11q20 -14 29.5 -19.5t18.5 -5.5q18 0 24.5 12t7.5 32h73q-7 -51 -32.5 -82t-68.5 -31q-30 0 -56 18z" />
    <glyph glyph-name="ograve" unicode="&#xf2;" horiz-adv-x="596" 
d="M166.5 26q-59.5 34 -93.5 93t-34 131t34 131t93.5 93t131.5 34t131.5 -34t93.5 -93t34 -131q0 -73 -34 -131.5t-93 -92.5t-132 -34q-72 0 -131.5 34zM383 96q38 24 60 64.5t22 89.5t-22 89.5t-60 64.5t-85 24t-85 -24t-60 -64.5t-22 -89.5t22 -89.5t60 -64.5t85 -24
t85 24zM131 700h134l85 -112h-88z" />
    <glyph glyph-name="oacute" unicode="&#xf3;" horiz-adv-x="596" 
d="M166.5 26q-59.5 34 -93.5 93t-34 131t34 131t93.5 93t131.5 34t131.5 -34t93.5 -93t34 -131q0 -73 -34 -131.5t-93 -92.5t-132 -34q-72 0 -131.5 34zM383 96q38 24 60 64.5t22 89.5t-22 89.5t-60 64.5t-85 24t-85 -24t-60 -64.5t-22 -89.5t22 -89.5t60 -64.5t85 -24
t85 24zM331 700h134l-131 -112h-88z" />
    <glyph glyph-name="ocircumflex" unicode="&#xf4;" horiz-adv-x="596" 
d="M166.5 26q-59.5 34 -93.5 93t-34 131t34 131t93.5 93t131.5 34t131.5 -34t93.5 -93t34 -131q0 -73 -34 -131.5t-93 -92.5t-132 -34q-72 0 -131.5 34zM383 96q38 24 60 64.5t22 89.5t-22 89.5t-60 64.5t-85 24t-85 -24t-60 -64.5t-22 -89.5t22 -89.5t60 -64.5t85 -24
t85 24zM247 700h101l115 -112h-95l-70 63l-71 -63h-95z" />
    <glyph glyph-name="otilde" unicode="&#xf5;" horiz-adv-x="596" 
d="M166.5 26q-59.5 34 -93.5 93t-34 131t34 131t93.5 93t131.5 34t131.5 -34t93.5 -93t34 -131q0 -73 -34 -131.5t-93 -92.5t-132 -34q-72 0 -131.5 34zM383 96q38 24 60 64.5t22 89.5t-22 89.5t-60 64.5t-85 24t-85 -24t-60 -64.5t-22 -89.5t22 -89.5t60 -64.5t85 -24
t85 24zM304 608l-16 11q-5 4 -16 11t-18 10.5t-14 3.5q-18 0 -24.5 -12t-7.5 -32h-73q7 51 32.5 82t68.5 31q30 0 56 -18l16 -11q20 -14 29.5 -19.5t18.5 -5.5q18 0 24.5 12t7.5 32h73q-7 -51 -32.5 -82t-68.5 -31q-30 0 -56 18z" />
    <glyph glyph-name="odieresis" unicode="&#xf6;" horiz-adv-x="596" 
d="M166.5 26q-59.5 34 -93.5 93t-34 131t34 131t93.5 93t131.5 34t131.5 -34t93.5 -93t34 -131q0 -73 -34 -131.5t-93 -92.5t-132 -34q-72 0 -131.5 34zM383 96q38 24 60 64.5t22 89.5t-22 89.5t-60 64.5t-85 24t-85 -24t-60 -64.5t-22 -89.5t22 -89.5t60 -64.5t85 -24
t85 24zM164.5 602q-14.5 14 -14.5 36q0 23 14 37.5t37 14.5q24 0 38.5 -14.5t14.5 -37.5t-14.5 -36.5t-38.5 -13.5q-22 0 -36.5 14zM356.5 602q-14.5 14 -14.5 36q0 23 14 37.5t37 14.5q24 0 38.5 -14.5t14.5 -37.5t-14.5 -36.5t-38.5 -13.5q-22 0 -36.5 14z" />
    <glyph glyph-name="divide" unicode="&#xf7;" horiz-adv-x="545" 
d="M234 370.5q-15 14.5 -15 37.5q0 24 15 39t38 15t38 -15t15 -39q0 -23 -15 -37.5t-38 -14.5t-38 14.5zM59 298q73 -5 137 -5h152q64 0 137 5v-82q-73 5 -137 5h-152q-65 0 -137 -5v82zM234 66.5q-15 14.5 -15 37.5q0 24 15 39t38 15t38 -15t15 -39q0 -23 -15 -37.5
t-38 -14.5t-38 14.5z" />
    <glyph glyph-name="oslash" unicode="&#xf8;" horiz-adv-x="597" 
d="M557 250q0 -73 -34 -131.5t-93 -92.5t-132 -34q-84 0 -151 46q-13 -14 -20.5 -23.5t-11.5 -13.5l-63 65q23 19 35 31q-48 67 -48 153q0 72 34 131t93.5 93t131.5 34q87 0 154 -48l31 38l61 -66l-34 -30q47 -66 47 -152zM213 404q-38 -24 -60 -64.5t-22 -89.5
q0 -48 22 -89l239 237q-41 30 -94 30q-47 0 -85 -24zM383 96q38 24 60 64.5t22 89.5q0 47 -21 89l-238 -239q40 -28 92 -28q47 0 85 24z" />
    <glyph glyph-name="ugrave" unicode="&#xf9;" horiz-adv-x="548" 
d="M116 39.5q-51 47.5 -51 138.5v203q0 13 -3 94l-1 25h100q-4 -54 -4 -119v-182q0 -64 26.5 -95.5t82.5 -31.5t88 31t32 94v184q0 65 -4 119h100q-4 -54 -4 -119v-262q0 -67 4 -119h-82l-6 57h-1q-14 -26 -52.5 -45.5t-79.5 -19.5q-94 0 -145 47.5zM104 700h134l85 -112
h-88z" />
    <glyph glyph-name="uacute" unicode="&#xfa;" horiz-adv-x="548" 
d="M116 39.5q-51 47.5 -51 138.5v203q0 13 -3 94l-1 25h100q-4 -54 -4 -119v-182q0 -64 26.5 -95.5t82.5 -31.5t88 31t32 94v184q0 65 -4 119h100q-4 -54 -4 -119v-262q0 -67 4 -119h-82l-6 57h-1q-14 -26 -52.5 -45.5t-79.5 -19.5q-94 0 -145 47.5zM304 700h134l-131 -112
h-88z" />
    <glyph glyph-name="ucircumflex" unicode="&#xfb;" horiz-adv-x="548" 
d="M116 39.5q-51 47.5 -51 138.5v203q0 13 -3 94l-1 25h100q-4 -54 -4 -119v-182q0 -64 26.5 -95.5t82.5 -31.5t88 31t32 94v184q0 65 -4 119h100q-4 -54 -4 -119v-262q0 -67 4 -119h-82l-6 57h-1q-14 -26 -52.5 -45.5t-79.5 -19.5q-94 0 -145 47.5zM220 700h101l115 -112
h-95l-70 63l-71 -63h-95z" />
    <glyph glyph-name="udieresis" unicode="&#xfc;" horiz-adv-x="548" 
d="M116 39.5q-51 47.5 -51 138.5v203q0 13 -3 94l-1 25h100q-4 -54 -4 -119v-182q0 -64 26.5 -95.5t82.5 -31.5t88 31t32 94v184q0 65 -4 119h100q-4 -54 -4 -119v-262q0 -67 4 -119h-82l-6 57h-1q-14 -26 -52.5 -45.5t-79.5 -19.5q-94 0 -145 47.5zM137.5 602
q-14.5 14 -14.5 36q0 23 14 37.5t37 14.5q24 0 38.5 -14.5t14.5 -37.5t-14.5 -36.5t-38.5 -13.5q-22 0 -36.5 14zM329.5 602q-14.5 14 -14.5 36q0 23 14 37.5t37 14.5q24 0 38.5 -14.5t14.5 -37.5t-14.5 -36.5t-38.5 -13.5q-22 0 -36.5 14z" />
    <glyph glyph-name="yacute" unicode="&#xfd;" horiz-adv-x="485" 
d="M103 -199q1 2 8.5 12.5t14.5 30.5l75 196l-164 406q-13 32 -28 53v1h108q-1 -3 -1 -9q0 -14 9 -37l122 -313h1l112 313q11 31 9 46h107v-1q-2 -3 -12 -19t-17 -34l-231 -605q-5 -13 -5 -23q0 -9 4 -17v-1h-112v1zM275 700h134l-131 -112h-88z" />
    <glyph glyph-name="thorn" unicode="&#xfe;" horiz-adv-x="611" 
d="M67 -177q3 78 3 96v713q0 67 -4 119h100q-4 -52 -4 -119v-198q27 35 69 54.5t92 19.5q73 0 129.5 -34.5t87.5 -93.5t31 -130t-31 -130t-87 -93.5t-130 -34.5q-51 0 -93 20t-68 55v-148q0 -67 4 -119h-100zM404.5 96q35.5 24 55 64.5t19.5 89.5t-19.5 89.5t-55 64.5
t-82.5 24q-46 0 -82.5 -22.5t-57 -63t-20.5 -92.5q0 -51 20.5 -91.5t57 -63.5t82.5 -23q47 0 82.5 24z" />
    <glyph glyph-name="ydieresis" unicode="&#xff;" horiz-adv-x="485" 
d="M103 -199q1 2 8.5 12.5t14.5 30.5l75 196l-164 406q-13 32 -28 53v1h108q-1 -3 -1 -9q0 -14 9 -37l122 -313h1l112 313q11 31 9 46h107v-1q-2 -3 -12 -19t-17 -34l-231 -605q-5 -13 -5 -23q0 -9 4 -17v-1h-112v1zM108.5 602q-14.5 14 -14.5 36q0 23 14 37.5t37 14.5
q24 0 38.5 -14.5t14.5 -37.5t-14.5 -36.5t-38.5 -13.5q-22 0 -36.5 14zM300.5 602q-14.5 14 -14.5 36q0 23 14 37.5t37 14.5q24 0 38.5 -14.5t14.5 -37.5t-14.5 -36.5t-38.5 -13.5q-22 0 -36.5 14z" />
    <glyph glyph-name="Amacron" unicode="&#x100;" horiz-adv-x="684" 
d="M8 1q18 31 26 51l247 601q15 39 17 47h79q5 -17 17 -47l262 -602l26 -50v-1h-105q-4 8 -8.5 21.5t-12.5 32.5l-57 133h-316l-54 -133q-14 -32 -18 -54h-103v1zM463 270l-128 297l-119 -297h247zM206 876h276v-74h-276v74z" />
    <glyph glyph-name="amacron" unicode="&#x101;" horiz-adv-x="506" 
d="M83 31.5q-48 39.5 -48 107.5q0 62 42 98t120 44l155 16v32q0 101 -105 101q-45 0 -91 -20t-83 -49h-2v95q29 19 81 35.5t97 16.5q194 0 194 -177v-213v-34q0 -29 2 -47t9 -37h-92q-5 12 -9 49h-1q-22 -26 -59.5 -41.5t-89.5 -15.5q-72 0 -120 39.5zM282 77q30 13 50 40.5
t20 68.5v38l-125 -13q-47 -5 -72.5 -24.5t-25.5 -47.5q0 -34 24 -54.5t67 -20.5q32 0 62 13zM109 676h276v-74h-276v74z" />
    <glyph glyph-name="Abreve" unicode="&#x102;" horiz-adv-x="684" 
d="M8 1q18 31 26 51l247 601q15 39 17 47h79q5 -17 17 -47l262 -602l26 -50v-1h-105q-4 8 -8.5 21.5t-12.5 32.5l-57 133h-316l-54 -133q-14 -32 -18 -54h-103v1zM463 270l-128 297l-119 -297h247zM239 807.5q-41 33.5 -47 92.5h75q5 -27 24.5 -42.5t52.5 -15.5t52.5 15.5
t24.5 42.5h75q-6 -59 -47 -92.5t-105 -33.5t-105 33.5z" />
    <glyph glyph-name="abreve" unicode="&#x103;" horiz-adv-x="506" 
d="M83 31.5q-48 39.5 -48 107.5q0 62 42 98t120 44l155 16v32q0 101 -105 101q-45 0 -91 -20t-83 -49h-2v95q29 19 81 35.5t97 16.5q194 0 194 -177v-213v-34q0 -29 2 -47t9 -37h-92q-5 12 -9 49h-1q-22 -26 -59.5 -41.5t-89.5 -15.5q-72 0 -120 39.5zM282 77q30 13 50 40.5
t20 68.5v38l-125 -13q-47 -5 -72.5 -24.5t-25.5 -47.5q0 -34 24 -54.5t67 -20.5q32 0 62 13zM142 607.5q-41 33.5 -47 92.5h75q5 -27 24.5 -42.5t52.5 -15.5t52.5 15.5t24.5 42.5h75q-6 -59 -47 -92.5t-105 -33.5t-105 33.5z" />
    <glyph glyph-name="Aogonek" unicode="&#x104;" horiz-adv-x="684" 
d="M682 1v-1h-5q-39 -23 -59.5 -42t-20.5 -46q0 -16 9.5 -25t25.5 -9q19 0 37 10h1v-73q-29 -9 -56 -9q-45 0 -73.5 24.5t-28.5 65.5q0 59 65 104q-4 8 -8.5 21.5t-12.5 32.5l-57 133h-316l-54 -133q-14 -32 -18 -54h-103v1q18 31 26 51l247 601q15 39 17 47h79
q5 -17 17 -47l262 -602zM463 270l-128 297l-119 -297h247z" />
    <glyph glyph-name="aogonek" unicode="&#x105;" horiz-adv-x="506" 
d="M446 -112h1v-73q-29 -9 -56 -9q-45 0 -73.5 24.5t-28.5 65.5q0 60 71 109q-3 10 -7 44h-1q-22 -26 -59.5 -41.5t-89.5 -15.5q-72 0 -120 39.5t-48 107.5q0 62 42 98t120 44l155 16v32q0 101 -105 101q-45 0 -91 -20t-83 -49h-2v95q29 19 81 35.5t97 16.5q194 0 194 -177
v-213v-34q0 -29 2 -47t9 -37q-39 -23 -59.5 -42t-20.5 -46q0 -16 9.5 -25t25.5 -9q19 0 37 10zM352 224l-125 -13q-47 -5 -72.5 -24.5t-25.5 -47.5q0 -34 24 -54.5t67 -20.5q32 0 62 13t50 40.5t20 68.5v38z" />
    <glyph glyph-name="Cacute" unicode="&#x106;" horiz-adv-x="689" 
d="M225 39q-84 47 -132.5 129t-48.5 183t48.5 183t132.5 129t187 47q79 0 137 -17t95 -43v-115h-1q-97 93 -231 93q-75 0 -137 -37t-97.5 -100.5t-35.5 -139.5t35.5 -139.5t97.5 -100.5t137 -37q134 0 231 93h1v-115q-37 -26 -95 -43t-137 -17q-103 0 -187 47zM445 900h134
l-131 -112h-88z" />
    <glyph glyph-name="cacute" unicode="&#x107;" horiz-adv-x="495" 
d="M164.5 25q-59.5 33 -92 92t-32.5 133q0 72 33 131t92.5 93t135.5 34q44 0 84 -13.5t67 -35.5v-99h-1q-61 68 -149 68q-49 0 -88 -24t-60.5 -65t-21.5 -89q0 -50 21 -90.5t60 -64t89 -23.5q47 0 85.5 18t63.5 50h1v-99q-23 -23 -64 -36t-87 -13q-77 0 -136.5 33zM335 700
h134l-131 -112h-88z" />
    <glyph glyph-name="Cdotaccent" unicode="&#x10a;" horiz-adv-x="689" 
d="M225 39q-84 47 -132.5 129t-48.5 183t48.5 183t132.5 129t187 47q79 0 137 -17t95 -43v-115h-1q-97 93 -231 93q-75 0 -137 -37t-97.5 -100.5t-35.5 -139.5t35.5 -139.5t97.5 -100.5t137 -37q134 0 231 93h1v-115q-37 -26 -95 -43t-137 -17q-103 0 -187 47zM374 800.5
q-15 14.5 -15 37.5q0 24 15 39t38 15t38 -15t15 -39q0 -23 -15 -37.5t-38 -14.5t-38 14.5z" />
    <glyph glyph-name="cdotaccent" unicode="&#x10b;" horiz-adv-x="495" 
d="M164.5 25q-59.5 33 -92 92t-32.5 133q0 72 33 131t92.5 93t135.5 34q44 0 84 -13.5t67 -35.5v-99h-1q-61 68 -149 68q-49 0 -88 -24t-60.5 -65t-21.5 -89q0 -50 21 -90.5t60 -64t89 -23.5q47 0 85.5 18t63.5 50h1v-99q-23 -23 -64 -36t-87 -13q-77 0 -136.5 33z
M264 600.5q-15 14.5 -15 37.5q0 24 15 39t38 15t38 -15t15 -39q0 -23 -15 -37.5t-38 -14.5t-38 14.5z" />
    <glyph glyph-name="Ccaron" unicode="&#x10c;" horiz-adv-x="689" 
d="M225 39q-84 47 -132.5 129t-48.5 183t48.5 183t132.5 129t187 47q79 0 137 -17t95 -43v-115h-1q-97 93 -231 93q-75 0 -137 -37t-97.5 -100.5t-35.5 -139.5t35.5 -139.5t97.5 -100.5t137 -37q134 0 231 93h1v-115q-37 -26 -95 -43t-137 -17q-103 0 -187 47zM246 900h95
l71 -63l70 63h95l-115 -112h-101z" />
    <glyph glyph-name="ccaron" unicode="&#x10d;" horiz-adv-x="495" 
d="M164.5 25q-59.5 33 -92 92t-32.5 133q0 72 33 131t92.5 93t135.5 34q44 0 84 -13.5t67 -35.5v-99h-1q-61 68 -149 68q-49 0 -88 -24t-60.5 -65t-21.5 -89q0 -50 21 -90.5t60 -64t89 -23.5q47 0 85.5 18t63.5 50h1v-99q-23 -23 -64 -36t-87 -13q-77 0 -136.5 33zM136 700
h95l71 -63l70 63h95l-115 -112h-101z" />
    <glyph glyph-name="Dcaron" unicode="&#x10e;" horiz-adv-x="699" 
d="M219 -2q-30 2 -44 2h-96q4 54 4 119v462q0 67 -4 119h219q101 0 182.5 -46.5t128 -127t46.5 -177.5t-47 -178t-129.5 -128.5t-182.5 -47.5q-14 0 -77 3zM425.5 114.5q61.5 36.5 96.5 98.5t35 135t-35 135t-97 98.5t-138 36.5h-107q-1 -14 -1 -40v-471q1 -20 21 -23
q34 -6 90 -6q74 0 135.5 36.5zM177 900h95l71 -63l70 63h95l-115 -112h-101z" />
    <glyph glyph-name="dcaron" unicode="&#x10f;" horiz-adv-x="624" 
d="M158 26.5q-56 34.5 -87 93.5t-31 130t31 130t87 93.5t130 34.5q51 0 92.5 -19.5t66.5 -53.5h1v197q0 67 -4 119h100q-4 -52 -4 -119v-495q0 -83 4 -137h-75l-18 70h-1q-25 -36 -67 -57t-95 -21q-74 0 -130 34.5zM403.5 121.5q44.5 49.5 44.5 128.5q0 51 -20 91.5
t-56.5 63.5t-82.5 23q-47 0 -82.5 -24t-55 -64.5t-19.5 -89.5t19.5 -89.5t55 -64.5t82.5 -24q70 0 114.5 49.5zM640 751h105l-72 -146h-81z" />
    <glyph glyph-name="Dcroat" unicode="&#x110;" horiz-adv-x="720" 
d="M501.5 653.5q81.5 -46.5 128 -127t46.5 -177.5t-47 -178t-129.5 -128.5t-182.5 -47.5q-14 0 -77 3q-30 2 -44 2h-96q4 54 4 119v191q-65 -2 -85 -4v87q26 -2 56 -2l29 -1v191q0 67 -4 119h219q101 0 182.5 -46.5zM446.5 114.5q61.5 36.5 96.5 98.5t35 135t-35 135
t-97 98.5t-138 36.5h-107q-1 -14 -1 -40v-188h68q78 0 117 3v-87q-52 4 -117 4h-68v-203q1 -20 21 -23q34 -6 90 -6q74 0 135.5 36.5z" />
    <glyph glyph-name="dcroat" unicode="&#x111;" horiz-adv-x="610" 
d="M540 586v-449q0 -83 4 -137h-75l-18 70h-1q-25 -36 -67 -57t-95 -21q-74 0 -130 34.5t-87 93.5t-31 130t31 130t87 93.5t130 34.5q51 0 92.5 -19.5t66.5 -53.5h1v152h-60q-66 0 -116 -4v84q37 -3 116 -3h60q-2 65 -4 87h100q-2 -22 -4 -87l69 3v-84q-51 3 -69 3z
M403.5 121.5q44.5 49.5 44.5 128.5q0 51 -20 91.5t-56.5 63.5t-82.5 23q-47 0 -82.5 -24t-55 -64.5t-19.5 -89.5t19.5 -89.5t55 -64.5t82.5 -24q70 0 114.5 49.5z" />
    <glyph glyph-name="Emacron" unicode="&#x112;" horiz-adv-x="560" 
d="M83 119v462q0 67 -4 119h425l3 -86l-113 4h-214q-1 -12 -1 -38v-186h182l113 4v-90l-114 4h-181v-191q0 -26 1 -38h219l113 4l-3 -87h-430q4 54 4 119zM158 876h276v-74h-276v74z" />
    <glyph glyph-name="emacron" unicode="&#x113;" horiz-adv-x="555" 
d="M161 24q-57 32 -89 90.5t-32 135.5q0 73 31.5 132t87 92.5t124.5 33.5q65 0 118.5 -31.5t85 -90t31.5 -136.5q0 -22 -3 -36h-384q8 -64 52.5 -102.5t109.5 -38.5q46 0 82 18t60 50l58 -65q-86 -84 -203 -84q-72 0 -129 32zM428 290q-7 67 -47.5 104t-97.5 37
q-61 0 -102 -39.5t-49 -101.5h296zM147 676h276v-74h-276v74z" />
    <glyph glyph-name="Edotaccent" unicode="&#x116;" horiz-adv-x="560" 
d="M83 119v462q0 67 -4 119h425l3 -86l-113 4h-214q-1 -12 -1 -38v-186h182l113 4v-90l-114 4h-181v-191q0 -26 1 -38h219l113 4l-3 -87h-430q4 54 4 119zM258 800.5q-15 14.5 -15 37.5q0 24 15 39t38 15t38 -15t15 -39q0 -23 -15 -37.5t-38 -14.5t-38 14.5z" />
    <glyph glyph-name="edotaccent" unicode="&#x117;" horiz-adv-x="555" 
d="M161 24q-57 32 -89 90.5t-32 135.5q0 73 31.5 132t87 92.5t124.5 33.5q65 0 118.5 -31.5t85 -90t31.5 -136.5q0 -22 -3 -36h-384q8 -64 52.5 -102.5t109.5 -38.5q46 0 82 18t60 50l58 -65q-86 -84 -203 -84q-72 0 -129 32zM428 290q-7 67 -47.5 104t-97.5 37
q-61 0 -102 -39.5t-49 -101.5h296zM247 600.5q-15 14.5 -15 37.5q0 24 15 39t38 15t38 -15t15 -39q0 -23 -15 -37.5t-38 -14.5t-38 14.5z" />
    <glyph glyph-name="Eogonek" unicode="&#x118;" horiz-adv-x="560" 
d="M449.5 -42q-20.5 -19 -20.5 -46q0 -16 9.5 -25t25.5 -9q19 0 37 10h1v-73q-29 -9 -56 -9q-45 0 -73.5 24.5t-28.5 65.5q0 58 65 104h-330q4 54 4 119v462q0 67 -4 119h425l3 -86l-113 4h-214q-1 -12 -1 -38v-186h182l113 4v-90l-114 4h-181v-191q0 -26 1 -38h219l113 4
l-3 -87q-39 -23 -59.5 -42z" />
    <glyph glyph-name="eogonek" unicode="&#x119;" horiz-adv-x="555" 
d="M287.5 -169.5q-28.5 24.5 -28.5 65.5q0 51 53 96v1q-8 -1 -22 -1q-72 0 -129 32t-89 90.5t-32 135.5q0 73 31.5 132t87 92.5t124.5 33.5q65 0 118.5 -31.5t85 -90t31.5 -136.5q0 -22 -3 -36h-384q8 -64 52.5 -102.5t109.5 -38.5q46 0 82 18t60 50l58 -65q-29 -29 -69 -52
q-36 -20 -58 -47t-22 -57q0 -20 10.5 -31t26.5 -11q20 0 35 10h1v-73q-29 -9 -56 -9q-45 0 -73.5 24.5zM428 290q-7 67 -47.5 104t-97.5 37q-61 0 -102 -39.5t-49 -101.5h296z" />
    <glyph glyph-name="Ecaron" unicode="&#x11a;" horiz-adv-x="560" 
d="M83 119v462q0 67 -4 119h425l3 -86l-113 4h-214q-1 -12 -1 -38v-186h182l113 4v-90l-114 4h-181v-191q0 -26 1 -38h219l113 4l-3 -87h-430q4 54 4 119zM130 900h95l71 -63l70 63h95l-115 -112h-101z" />
    <glyph glyph-name="ecaron" unicode="&#x11b;" horiz-adv-x="555" 
d="M161 24q-57 32 -89 90.5t-32 135.5q0 73 31.5 132t87 92.5t124.5 33.5q65 0 118.5 -31.5t85 -90t31.5 -136.5q0 -22 -3 -36h-384q8 -64 52.5 -102.5t109.5 -38.5q46 0 82 18t60 50l58 -65q-86 -84 -203 -84q-72 0 -129 32zM428 290q-7 67 -47.5 104t-97.5 37
q-61 0 -102 -39.5t-49 -101.5h296zM119 700h95l71 -63l70 63h95l-115 -112h-101z" />
    <glyph glyph-name="Gcircumflex" unicode="&#x11c;" horiz-adv-x="725" 
d="M225 38q-84 46 -132.5 128t-48.5 185q0 101 51 183t138.5 129t191.5 47q73 0 127.5 -16.5t100.5 -49.5v-117h-1q-44 49 -99 75t-128 26q-77 0 -142 -37t-103 -100.5t-38 -139.5q0 -78 35.5 -141t98 -99t140.5 -36q40 0 81 7.5t73 20.5v101q0 29 -1 51.5t-2 37.5
q-2 18 -2 27h101q0 -14 -2 -46q-2 -44 -2 -68v-81q0 -24 2 -74q2 -34 2 -51q-30 0 -59 3q-34 2 -50 2q-11 0 -28.5 -2t-27.5 -3q-52 -8 -88 -8q-104 0 -188 46zM374 900h101l115 -112h-95l-70 63l-71 -63h-95z" />
    <glyph glyph-name="gcircumflex" unicode="&#x11d;" horiz-adv-x="513" 
d="M101.5 -176.5q-60.5 31.5 -60.5 88.5q0 51 62 76v1q-57 29 -57 85q0 34 20 58.5t59 36.5v1q-34 28 -52.5 66t-18.5 82q0 52 26 95.5t71 69t98 25.5q22 0 41.5 -4t47.5 -12q37 -11 51 -11q57 0 97 35h1v-83q-19 -12 -55 -12q-16 0 -31 4v-4q43 -41 43 -103
q0 -53 -26 -96.5t-71 -69t-98 -25.5h-59q-27 0 -46 -10.5t-19 -28.5q0 -31 51 -31h168q66 0 109.5 -31.5t43.5 -84.5q0 -72 -60.5 -110.5t-166.5 -38.5q-108 0 -168.5 31.5zM329 235.5q33 32.5 33 82.5q0 49 -33 81.5t-80 32.5t-80 -32.5t-33 -81.5q0 -50 33 -82.5t80 -32.5
t80 32.5zM371 -125q37 18 37 49q0 48 -85 48h-104q-40 0 -65 -14t-25 -40q0 -29 36.5 -45t104.5 -16q64 0 101 18zM198 700h101l115 -112h-95l-70 63l-71 -63h-95z" />
    <glyph glyph-name="Gbreve" unicode="&#x11e;" horiz-adv-x="725" 
d="M225 38q-84 46 -132.5 128t-48.5 185q0 101 51 183t138.5 129t191.5 47q73 0 127.5 -16.5t100.5 -49.5v-117h-1q-44 49 -99 75t-128 26q-77 0 -142 -37t-103 -100.5t-38 -139.5q0 -78 35.5 -141t98 -99t140.5 -36q40 0 81 7.5t73 20.5v101q0 29 -1 51.5t-2 37.5
q-2 18 -2 27h101q0 -14 -2 -46q-2 -44 -2 -68v-81q0 -24 2 -74q2 -34 2 -51q-30 0 -59 3q-34 2 -50 2q-11 0 -28.5 -2t-27.5 -3q-52 -8 -88 -8q-104 0 -188 46zM320 807.5q-41 33.5 -47 92.5h75q5 -27 24.5 -42.5t52.5 -15.5t52.5 15.5t24.5 42.5h75q-6 -59 -47 -92.5
t-105 -33.5t-105 33.5z" />
    <glyph glyph-name="gbreve" unicode="&#x11f;" horiz-adv-x="513" 
d="M101.5 -176.5q-60.5 31.5 -60.5 88.5q0 51 62 76v1q-57 29 -57 85q0 34 20 58.5t59 36.5v1q-34 28 -52.5 66t-18.5 82q0 52 26 95.5t71 69t98 25.5q22 0 41.5 -4t47.5 -12q37 -11 51 -11q57 0 97 35h1v-83q-19 -12 -55 -12q-16 0 -31 4v-4q43 -41 43 -103
q0 -53 -26 -96.5t-71 -69t-98 -25.5h-59q-27 0 -46 -10.5t-19 -28.5q0 -31 51 -31h168q66 0 109.5 -31.5t43.5 -84.5q0 -72 -60.5 -110.5t-166.5 -38.5q-108 0 -168.5 31.5zM329 235.5q33 32.5 33 82.5q0 49 -33 81.5t-80 32.5t-80 -32.5t-33 -81.5q0 -50 33 -82.5t80 -32.5
t80 32.5zM371 -125q37 18 37 49q0 48 -85 48h-104q-40 0 -65 -14t-25 -40q0 -29 36.5 -45t104.5 -16q64 0 101 18zM144 607.5q-41 33.5 -47 92.5h75q5 -27 24.5 -42.5t52.5 -15.5t52.5 15.5t24.5 42.5h75q-6 -59 -47 -92.5t-105 -33.5t-105 33.5z" />
    <glyph glyph-name="Gdotaccent" unicode="&#x120;" horiz-adv-x="725" 
d="M225 38q-84 46 -132.5 128t-48.5 185q0 101 51 183t138.5 129t191.5 47q73 0 127.5 -16.5t100.5 -49.5v-117h-1q-44 49 -99 75t-128 26q-77 0 -142 -37t-103 -100.5t-38 -139.5q0 -78 35.5 -141t98 -99t140.5 -36q40 0 81 7.5t73 20.5v101q0 29 -1 51.5t-2 37.5
q-2 18 -2 27h101q0 -14 -2 -46q-2 -44 -2 -68v-81q0 -24 2 -74q2 -34 2 -51q-30 0 -59 3q-34 2 -50 2q-11 0 -28.5 -2t-27.5 -3q-52 -8 -88 -8q-104 0 -188 46zM387 800.5q-15 14.5 -15 37.5q0 24 15 39t38 15t38 -15t15 -39q0 -23 -15 -37.5t-38 -14.5t-38 14.5z" />
    <glyph glyph-name="gdotaccent" unicode="&#x121;" horiz-adv-x="513" 
d="M101.5 -176.5q-60.5 31.5 -60.5 88.5q0 51 62 76v1q-57 29 -57 85q0 34 20 58.5t59 36.5v1q-34 28 -52.5 66t-18.5 82q0 52 26 95.5t71 69t98 25.5q22 0 41.5 -4t47.5 -12q37 -11 51 -11q57 0 97 35h1v-83q-19 -12 -55 -12q-16 0 -31 4v-4q43 -41 43 -103
q0 -53 -26 -96.5t-71 -69t-98 -25.5h-59q-27 0 -46 -10.5t-19 -28.5q0 -31 51 -31h168q66 0 109.5 -31.5t43.5 -84.5q0 -72 -60.5 -110.5t-166.5 -38.5q-108 0 -168.5 31.5zM329 235.5q33 32.5 33 82.5q0 49 -33 81.5t-80 32.5t-80 -32.5t-33 -81.5q0 -50 33 -82.5t80 -32.5
t80 32.5zM371 -125q37 18 37 49q0 48 -85 48h-104q-40 0 -65 -14t-25 -40q0 -29 36.5 -45t104.5 -16q64 0 101 18zM211 600.5q-15 14.5 -15 37.5q0 24 15 39t38 15t38 -15t15 -39q0 -23 -15 -37.5t-38 -14.5t-38 14.5z" />
    <glyph glyph-name="Gcommaaccent" unicode="&#x122;" horiz-adv-x="725" 
d="M225 38q-84 46 -132.5 128t-48.5 185q0 101 51 183t138.5 129t191.5 47q73 0 127.5 -16.5t100.5 -49.5v-117h-1q-44 49 -99 75t-128 26q-77 0 -142 -37t-103 -100.5t-38 -139.5q0 -78 35.5 -141t98 -99t140.5 -36q40 0 81 7.5t73 20.5v101q0 29 -1 51.5t-2 37.5
q-2 18 -2 27h101q0 -14 -2 -46q-2 -44 -2 -68v-81q0 -24 2 -74q2 -34 2 -51q-30 0 -59 3q-34 2 -50 2q-11 0 -28.5 -2t-27.5 -3q-52 -8 -88 -8q-104 0 -188 46zM378 -54h105l-72 -146h-81z" />
    <glyph glyph-name="gcommaaccent" unicode="&#x123;" horiz-adv-x="513" 
d="M101.5 -176.5q-60.5 31.5 -60.5 88.5q0 51 62 76v1q-57 29 -57 85q0 34 20 58.5t59 36.5v1q-34 28 -52.5 66t-18.5 82q0 52 26 95.5t71 69t98 25.5q22 0 41.5 -4t47.5 -12q37 -11 51 -11q57 0 97 35h1v-83q-19 -12 -55 -12q-16 0 -31 4v-4q43 -41 43 -103
q0 -53 -26 -96.5t-71 -69t-98 -25.5h-59q-27 0 -46 -10.5t-19 -28.5q0 -31 51 -31h168q66 0 109.5 -31.5t43.5 -84.5q0 -72 -60.5 -110.5t-166.5 -38.5q-108 0 -168.5 31.5zM329 235.5q33 32.5 33 82.5q0 49 -33 81.5t-80 32.5t-80 -32.5t-33 -81.5q0 -50 33 -82.5t80 -32.5
t80 32.5zM371 -125q37 18 37 49q0 48 -85 48h-104q-40 0 -65 -14t-25 -40q0 -29 36.5 -45t104.5 -16q64 0 101 18zM263 734h81l-48 -146h-105z" />
    <glyph glyph-name="Hcircumflex" unicode="&#x124;" horiz-adv-x="720" 
d="M83 119v462q0 67 -4 119h103q-5 -65 -5 -119v-187h365v187q0 67 -4 119h103q-4 -52 -4 -119v-462q0 -65 4 -119h-103q4 54 4 119v192h-365v-192q0 -51 5 -119h-103q4 54 4 119zM309 900h101l115 -112h-95l-70 63l-71 -63h-95z" />
    <glyph glyph-name="hcircumflex" unicode="&#x125;" horiz-adv-x="557" 
d="M67 25q3 81 3 94v513q0 67 -4 119h100q-4 -52 -4 -119v-182h1q22 25 56 41.5t76 16.5q58 0 103 -23.5t69.5 -65t24.5 -93.5v-207q0 -65 4 -119h-100q4 54 4 119v179q0 63 -34 96.5t-84 33.5q-48 0 -84 -30.5t-36 -82.5v-196q0 -92 2 -119h-98zM229 951h101l115 -112h-95
l-70 63l-71 -63h-95z" />
    <glyph glyph-name="Hbar" unicode="&#x126;" horiz-adv-x="748" 
d="M651 508v-389q0 -65 4 -119h-103q4 54 4 119v192h-365v-192q0 -51 5 -119h-103q4 54 4 119v389q-20 0 -71 -3v87l71 -3q0 61 -4 111h103q-5 -62 -5 -111h365q0 61 -4 111h103q-4 -50 -4 -111l71 3v-87q-51 3 -71 3zM556 394v115h-365v-115h365z" />
    <glyph glyph-name="hbar" unicode="&#x127;" horiz-adv-x="557" 
d="M400 119v179q0 63 -34 96.5t-84 33.5q-48 0 -84 -30.5t-36 -82.5v-196q0 -92 2 -119h-98l1 25q3 81 3 94v467q-18 0 -69 -3v84l69 -3q-2 65 -4 87h100q-2 -22 -4 -87h36q79 0 116 3v-84q-50 4 -116 4h-36v-137h1q22 25 56 41.5t76 16.5q58 0 103 -23.5t69.5 -65
t24.5 -93.5v-207q0 -65 4 -119h-100q4 54 4 119z" />
    <glyph glyph-name="Itilde" unicode="&#x128;" horiz-adv-x="261" 
d="M83 119v462q0 67 -4 119h103q-4 -52 -4 -119v-462q0 -65 4 -119h-103q4 54 4 119zM137 808l-16 11q-5 4 -16 11t-18 10.5t-14 3.5q-18 0 -24.5 -12t-7.5 -32h-73q7 51 32.5 82t68.5 31q30 0 56 -18l16 -11q20 -14 29.5 -19.5t18.5 -5.5q18 0 24.5 12t7.5 32h73
q-7 -51 -32.5 -82t-68.5 -31q-30 0 -56 18z" />
    <glyph glyph-name="itilde" unicode="&#x129;" horiz-adv-x="232" 
d="M67 25q3 81 3 94v262q0 18 -3 96l-1 23h100q-4 -52 -4 -119v-262q0 -65 4 -119h-100zM122 608l-16 11q-5 4 -16 11t-18 10.5t-14 3.5q-18 0 -24.5 -12t-7.5 -32h-73q7 51 32.5 82t68.5 31q30 0 56 -18l16 -11q20 -14 29.5 -19.5t18.5 -5.5q18 0 24.5 12t7.5 32h73
q-7 -51 -32.5 -82t-68.5 -31q-30 0 -56 18z" />
    <glyph glyph-name="Imacron" unicode="&#x12a;" horiz-adv-x="261" 
d="M83 119v462q0 67 -4 119h103q-4 -52 -4 -119v-462q0 -65 4 -119h-103q4 54 4 119zM-7 876h276v-74h-276v74z" />
    <glyph glyph-name="imacron" unicode="&#x12b;" horiz-adv-x="232" 
d="M67 25q3 81 3 94v262q0 18 -3 96l-1 23h100q-4 -52 -4 -119v-262q0 -65 4 -119h-100zM-22 676h276v-74h-276v74z" />
    <glyph glyph-name="Iogonek" unicode="&#x12e;" horiz-adv-x="261" 
d="M178 119q0 -65 4 -119h-3q-39 -23 -59.5 -42t-20.5 -46q0 -16 9.5 -25t25.5 -9q19 0 37 10h1v-73q-29 -9 -56 -9q-45 0 -73.5 24.5t-28.5 65.5q0 59 65 104q4 54 4 119v462q0 67 -4 119h103q-4 -52 -4 -119v-462z" />
    <glyph glyph-name="iogonek" unicode="&#x12f;" horiz-adv-x="232" 
d="M78 600.5q-15 14.5 -15 37.5q0 24 15 39t38 15t38 -15t15 -39q0 -23 -15 -37.5t-38 -14.5t-38 14.5zM162 381v-262q0 -65 4 -119q-39 -23 -59.5 -42t-20.5 -46q0 -16 9.5 -25t25.5 -9q19 0 37 10h1v-73q-29 -9 -56 -9q-45 0 -73.5 24.5t-28.5 65.5q0 59 65 104l1 25
q3 81 3 94v262q0 18 -3 96l-1 23h100q-4 -52 -4 -119z" />
    <glyph glyph-name="Idotaccent" unicode="&#x130;" horiz-adv-x="261" 
d="M83 119v462q0 67 -4 119h103q-4 -52 -4 -119v-462q0 -65 4 -119h-103q4 54 4 119zM93 800.5q-15 14.5 -15 37.5q0 24 15 39t38 15t38 -15t15 -39q0 -23 -15 -37.5t-38 -14.5t-38 14.5z" />
    <glyph glyph-name="dotlessi" unicode="&#x131;" horiz-adv-x="232" 
d="M67 25q3 81 3 94v262q0 18 -3 96l-1 23h100q-4 -52 -4 -119v-262q0 -65 4 -119h-100z" />
    <glyph glyph-name="Jcircumflex" unicode="&#x134;" horiz-adv-x="455" 
d="M99 6q-41 15 -71 45v133h2q36 -52 71 -81t80 -29q46 0 72 31.5t26 86.5v390q0 22 -2 70q-2 32 -2 48h105l-2 -31q-1 -15 -2 -36.5t-1 -50.5v-406q0 -91 -52 -138t-140 -47q-43 0 -84 15zM276 900h101l115 -112h-95l-70 63l-71 -63h-95z" />
    <glyph glyph-name="jcircumflex" unicode="&#x135;" horiz-adv-x="240" 
d="M-43 -202q-22 6 -37 16v90h2q37 -29 78 -29q39 0 58.5 25t19.5 71v410q0 67 -4 119h100q-4 -52 -4 -119v-426q0 -81 -43 -122t-124 -41q-24 0 -46 6zM73 700h101l115 -112h-95l-70 63l-71 -63h-95z" />
    <glyph glyph-name="Kcommaaccent" unicode="&#x136;" horiz-adv-x="586" 
d="M83 119v462q0 67 -4 119h104q-4 -52 -4 -119v-462q0 -65 4 -119h-104q4 54 4 119zM411 70l-228 279l228 281q25 33 52 70h115l-283 -351l291 -349h-123q-27 37 -52 70zM248 -54h105l-72 -146h-81z" />
    <glyph glyph-name="kcommaaccent" unicode="&#x137;" horiz-adv-x="480" 
d="M70 119v513q0 67 -4 119h100q-4 -52 -4 -119v-356l142 163q25 30 47 61h116l-202 -229l216 -271h-117l-16 24q-4 5 -11.5 16t-15.5 21l-159 200v-142q0 -65 4 -119h-100q4 54 4 119zM217 -54h105l-72 -146h-81z" />
    <glyph glyph-name="kgreenlandic" unicode="&#x138;" horiz-adv-x="480" 
d="M70 119v262q0 67 -4 119h100q-4 -52 -4 -119v-105l142 163q25 30 47 61h116l-202 -229l216 -271h-117l-16 24q-4 5 -11.5 16t-15.5 21l-159 200v-142q0 -65 4 -119h-100q4 54 4 119z" />
    <glyph glyph-name="Lacute" unicode="&#x139;" horiz-adv-x="536" 
d="M83 119v462q0 67 -4 119h104q-4 -52 -4 -119v-460q0 -26 1 -38h247q31 0 58 2t35 3l-2 -88h-439q4 54 4 119zM164 900h134l-131 -112h-88z" />
    <glyph glyph-name="lacute" unicode="&#x13a;" horiz-adv-x="232" 
d="M70 119v513q0 67 -4 119h100q-4 -52 -4 -119v-513q0 -65 4 -119h-100q4 54 4 119zM149 951h134l-131 -112h-88z" />
    <glyph glyph-name="Lcommaaccent" unicode="&#x13b;" horiz-adv-x="536" 
d="M83 119v462q0 67 -4 119h104q-4 -52 -4 -119v-460q0 -26 1 -38h247q31 0 58 2t35 3l-2 -88h-439q4 54 4 119zM256 -54h105l-72 -146h-81z" />
    <glyph glyph-name="lcommaaccent" unicode="&#x13c;" horiz-adv-x="232" 
d="M70 119v513q0 67 -4 119h100q-4 -52 -4 -119v-513q0 -65 4 -119h-100q4 54 4 119zM69 -54h105l-72 -146h-81z" />
    <glyph glyph-name="Lcaron" unicode="&#x13d;" horiz-adv-x="537" 
d="M83 119v462q0 67 -4 119h104q-4 -52 -4 -119v-460q0 -26 1 -38h247q31 0 58 2t35 3l-2 -88h-439q4 54 4 119zM319 700h105l-72 -146h-81z" />
    <glyph glyph-name="lcaron" unicode="&#x13e;" horiz-adv-x="246" 
d="M70 119v513q0 67 -4 119h100q-4 -52 -4 -119v-513q0 -65 4 -119h-100q4 54 4 119zM262 751h105l-72 -146h-81z" />
    <glyph glyph-name="Ldot" unicode="&#x13f;" horiz-adv-x="539" 
d="M83 119v462q0 67 -4 119h104q-4 -52 -4 -119v-460q0 -26 1 -38h247q31 0 58 2t35 3l-2 -88h-439q4 54 4 119zM373 317q-16 16 -16 40q0 25 16 41t41 16t41.5 -16t16.5 -41q0 -24 -16.5 -40t-41.5 -16t-41 16z" />
    <glyph glyph-name="ldot" unicode="&#x140;" horiz-adv-x="339" 
d="M70 119v513q0 67 -4 119h100q-4 -52 -4 -119v-513q0 -65 4 -119h-100q4 54 4 119zM250 257q-16 16 -16 40q0 25 16 41t41 16t41.5 -16t16.5 -41q0 -24 -16.5 -40t-41.5 -16t-41 16z" />
    <glyph glyph-name="Lslash" unicode="&#x141;" horiz-adv-x="563" 
d="M511 85q27 2 35 3l-2 -88h-439q4 54 4 119v124l-68 -44v100l68 44v238q0 67 -4 119h104q-4 -52 -4 -119v-176l188 121v-100l-188 -121v-184q0 -26 1 -38h247q31 0 58 2z" />
    <glyph glyph-name="lslash" unicode="&#x142;" horiz-adv-x="331" 
d="M214 364v-245q0 -65 4 -119h-100q4 54 4 119v182l-87 -61v87l87 61v244q0 67 -4 119h100q-4 -52 -4 -119v-181l87 61v-87z" />
    <glyph glyph-name="Nacute" unicode="&#x143;" horiz-adv-x="739" 
d="M82 48q2 48 2 71v528q0 17 -14 53h96l405 -539h1v421q0 22 -2 70q-2 32 -2 48h92q0 -16 -2 -48q-2 -48 -2 -70v-463q0 -23 2 -71q2 -32 2 -48h-84l-407 545h-1v-426q0 -50 3 -119h-91q0 16 2 48zM398 900h134l-131 -112h-88z" />
    <glyph glyph-name="nacute" unicode="&#x144;" horiz-adv-x="557" 
d="M67 25q3 81 3 94v262q0 18 -3 96l-1 23h82l6 -59h1q22 32 61 49.5t79 17.5q58 0 103 -23.5t69.5 -65t24.5 -93.5v-207q0 -65 4 -119h-100q4 54 4 119v179q0 63 -34 96.5t-84 33.5q-48 0 -84 -32.5t-36 -86.5v-190q0 -65 4 -119h-100zM311 700h134l-131 -112h-88z" />
    <glyph glyph-name="Ncommaaccent" unicode="&#x145;" horiz-adv-x="739" 
d="M82 48q2 48 2 71v528q0 17 -14 53h96l405 -539h1v421q0 22 -2 70q-2 32 -2 48h92q0 -16 -2 -48q-2 -48 -2 -70v-463q0 -23 2 -71q2 -32 2 -48h-84l-407 545h-1v-426q0 -50 3 -119h-91q0 16 2 48zM318 -54h105l-72 -146h-81z" />
    <glyph glyph-name="ncommaaccent" unicode="&#x146;" horiz-adv-x="557" 
d="M67 25q3 81 3 94v262q0 18 -3 96l-1 23h82l6 -59h1q22 32 61 49.5t79 17.5q58 0 103 -23.5t69.5 -65t24.5 -93.5v-207q0 -65 4 -119h-100q4 54 4 119v179q0 63 -34 96.5t-84 33.5q-48 0 -84 -32.5t-36 -86.5v-190q0 -65 4 -119h-100zM231 -54h105l-72 -146h-81z" />
    <glyph glyph-name="Ncaron" unicode="&#x147;" horiz-adv-x="739" 
d="M82 48q2 48 2 71v528q0 17 -14 53h96l405 -539h1v421q0 22 -2 70q-2 32 -2 48h92q0 -16 -2 -48q-2 -48 -2 -70v-463q0 -23 2 -71q2 -32 2 -48h-84l-407 545h-1v-426q0 -50 3 -119h-91q0 16 2 48zM199 900h95l71 -63l70 63h95l-115 -112h-101z" />
    <glyph glyph-name="ncaron" unicode="&#x148;" horiz-adv-x="557" 
d="M67 25q3 81 3 94v262q0 18 -3 96l-1 23h82l6 -59h1q22 32 61 49.5t79 17.5q58 0 103 -23.5t69.5 -65t24.5 -93.5v-207q0 -65 4 -119h-100q4 54 4 119v179q0 63 -34 96.5t-84 33.5q-48 0 -84 -32.5t-36 -86.5v-190q0 -65 4 -119h-100zM112 700h95l71 -63l70 63h95
l-115 -112h-101z" />
    <glyph glyph-name="Eng" unicode="&#x14a;" horiz-adv-x="739" 
d="M421 -202.5q-24 5.5 -51 16.5v108h2q22 -24 46.5 -35.5t58.5 -11.5q83 0 83 116v30l-392 525v-427q0 -50 3 -119h-91q0 16 2 48q2 48 2 71v528q0 17 -14 53h96l405 -539h1v421q0 22 -2 70q-2 32 -2 48h92q0 -16 -2 -48q-2 -48 -2 -70v-605q0 -92 -46.5 -138.5
t-133.5 -46.5q-31 0 -55 5.5z" />
    <glyph glyph-name="eng" unicode="&#x14b;" horiz-adv-x="557" 
d="M300 -206.5q-12 1.5 -21 4.5v86h2q18 -9 41 -9q44 0 61 23.5t17 72.5v327q0 63 -34 96.5t-84 33.5q-48 0 -84 -32.5t-36 -86.5v-190q0 -65 4 -119h-100l1 25q3 81 3 94v262q0 18 -3 96l-1 23h82l6 -60h1q22 32 61 50t79 18q58 0 103 -23.5t69.5 -65t24.5 -93.5v-371
q0 -81 -43 -122t-124 -41q-13 0 -25 1.5z" />
    <glyph glyph-name="Omacron" unicode="&#x14c;" horiz-adv-x="809" 
d="M221.5 39.5q-82.5 47.5 -130 129.5t-47.5 182t47.5 182t130 129.5t182.5 47.5q101 0 183.5 -47t130 -129.5t47.5 -182.5q0 -101 -47.5 -183t-130 -129t-183.5 -47q-100 0 -182.5 47.5zM537 111.5q60 36.5 95 100t35 139.5t-35 139.5t-95 100t-133 36.5q-72 0 -132 -36.5
t-95 -100t-35 -139.5t35 -139.5t95 -100t132 -36.5q73 0 133 36.5zM266 876h276v-74h-276v74z" />
    <glyph glyph-name="omacron" unicode="&#x14d;" horiz-adv-x="596" 
d="M166.5 26q-59.5 34 -93.5 93t-34 131t34 131t93.5 93t131.5 34t131.5 -34t93.5 -93t34 -131q0 -73 -34 -131.5t-93 -92.5t-132 -34q-72 0 -131.5 34zM383 96q38 24 60 64.5t22 89.5t-22 89.5t-60 64.5t-85 24t-85 -24t-60 -64.5t-22 -89.5t22 -89.5t60 -64.5t85 -24
t85 24zM160 676h276v-74h-276v74z" />
    <glyph glyph-name="Ohungarumlaut" unicode="&#x150;" horiz-adv-x="809" 
d="M221.5 39.5q-82.5 47.5 -130 129.5t-47.5 182t47.5 182t130 129.5t182.5 47.5q101 0 183.5 -47t130 -129.5t47.5 -182.5q0 -101 -47.5 -183t-130 -129t-183.5 -47q-100 0 -182.5 47.5zM537 111.5q60 36.5 95 100t35 139.5t-35 139.5t-95 100t-133 36.5q-72 0 -132 -36.5
t-95 -100t-35 -139.5t35 -139.5t95 -100t132 -36.5q73 0 133 36.5zM349 900h134l-131 -112h-88zM524 900h134l-131 -112h-88z" />
    <glyph glyph-name="ohungarumlaut" unicode="&#x151;" horiz-adv-x="596" 
d="M166.5 26q-59.5 34 -93.5 93t-34 131t34 131t93.5 93t131.5 34t131.5 -34t93.5 -93t34 -131q0 -73 -34 -131.5t-93 -92.5t-132 -34q-72 0 -131.5 34zM383 96q38 24 60 64.5t22 89.5t-22 89.5t-60 64.5t-85 24t-85 -24t-60 -64.5t-22 -89.5t22 -89.5t60 -64.5t85 -24
t85 24zM243 700h134l-131 -112h-88zM418 700h134l-131 -112h-88z" />
    <glyph glyph-name="OE" unicode="&#x152;" horiz-adv-x="1144" 
d="M221.5 39.5q-82.5 47.5 -130 129.5t-47.5 182t47.5 182t130 129.5t182.5 47.5q77 0 144.5 -28.5t117.5 -79.5h1q-2 74 -4 98h425l3 -86l-113 4h-214q-1 -12 -1 -38v-186h182l113 4v-90l-114 4h-181v-191q0 -26 1 -38h219l113 4l-3 -87h-430q2 23 4 100h-1
q-50 -51 -117.5 -79.5t-144.5 -28.5q-100 0 -182.5 47.5zM537 111.5q60 36.5 95 100t35 139.5t-35 139.5t-95 100t-133 36.5q-72 0 -132 -36.5t-95 -100t-35 -139.5t35 -139.5t95 -100t132 -36.5q73 0 133 36.5z" />
    <glyph glyph-name="oe" unicode="&#x153;" horiz-adv-x="980" 
d="M940 214h-384q8 -64 52.5 -102.5t109.5 -38.5q46 0 82 18t60 50l58 -65q-86 -84 -203 -84q-66 0 -119.5 27t-86.5 77h-1q-36 -49 -90.5 -76.5t-119.5 -27.5q-72 0 -131.5 34t-93.5 93t-34 131t34 131t93.5 93t131.5 34q66 0 120.5 -27.5t89.5 -77.5h1q33 49 85 77t114 28
q65 0 118.5 -31.5t85 -90t31.5 -136.5q0 -22 -3 -36zM853 290q-7 67 -47.5 104t-97.5 37q-61 0 -102 -39.5t-49 -101.5h296zM383 96q38 24 60 64.5t22 89.5t-22 89.5t-60 64.5t-85 24t-85 -24t-60 -64.5t-22 -89.5t22 -89.5t60 -64.5t85 -24t85 24z" />
    <glyph glyph-name="Racute" unicode="&#x154;" horiz-adv-x="592" 
d="M80 25q1 13 2 32.5t1 44.5v496q0 25 -1 44.5t-2 32.5q-2 16 -2 25h203q61 0 111.5 -25t79.5 -71t29 -107q0 -48 -21.5 -89.5t-55.5 -68t-70 -33.5v-1q21 -8 39 -26.5t37 -48.5l81 -129q18 -30 42 -61t30 -39v-1h-123q-30 59 -68 118l-67 103q-38 61 -118 61h-30v-180
q0 -25 1 -44.5t2 -32.5q2 -16 2 -25h-104q0 9 2 25zM362 398.5q41 33.5 41 98.5q0 52 -37 86.5t-100 34.5h-89v-246q23 -7 71 -7q73 0 114 33.5zM297 900h134l-131 -112h-88z" />
    <glyph glyph-name="racute" unicode="&#x155;" horiz-adv-x="371" 
d="M67 25q3 81 3 94v262q0 18 -3 96l-1 23h82l6 -57h1q21 31 53.5 48t73.5 17q22 0 41.5 -4.5t30.5 -11.5v-104h-2q-35 39 -83 39t-77.5 -35.5t-29.5 -95.5v-177q0 -65 4 -119h-100zM242 700h134l-131 -112h-88z" />
    <glyph glyph-name="Rcommaaccent" unicode="&#x156;" horiz-adv-x="592" 
d="M80 25q1 13 2 32.5t1 44.5v496q0 25 -1 44.5t-2 32.5q-2 16 -2 25h203q61 0 111.5 -25t79.5 -71t29 -107q0 -48 -21.5 -89.5t-55.5 -68t-70 -33.5v-1q21 -8 39 -26.5t37 -48.5l81 -129q18 -30 42 -61t30 -39v-1h-123q-30 59 -68 118l-67 103q-38 61 -118 61h-30v-180
q0 -25 1 -44.5t2 -32.5q2 -16 2 -25h-104q0 9 2 25zM362 398.5q41 33.5 41 98.5q0 52 -37 86.5t-100 34.5h-89v-246q23 -7 71 -7q73 0 114 33.5zM271 -54h105l-72 -146h-81z" />
    <glyph glyph-name="rcommaaccent" unicode="&#x157;" horiz-adv-x="371" 
d="M67 25q3 81 3 94v262q0 18 -3 96l-1 23h82l6 -57h1q21 31 53.5 48t73.5 17q22 0 41.5 -4.5t30.5 -11.5v-104h-2q-35 39 -83 39t-77.5 -35.5t-29.5 -95.5v-177q0 -65 4 -119h-100zM69 -54h105l-72 -146h-81z" />
    <glyph glyph-name="Rcaron" unicode="&#x158;" horiz-adv-x="592" 
d="M80 25q1 13 2 32.5t1 44.5v496q0 25 -1 44.5t-2 32.5q-2 16 -2 25h203q61 0 111.5 -25t79.5 -71t29 -107q0 -48 -21.5 -89.5t-55.5 -68t-70 -33.5v-1q21 -8 39 -26.5t37 -48.5l81 -129q18 -30 42 -61t30 -39v-1h-123q-30 59 -68 118l-67 103q-38 61 -118 61h-30v-180
q0 -25 1 -44.5t2 -32.5q2 -16 2 -25h-104q0 9 2 25zM362 398.5q41 33.5 41 98.5q0 52 -37 86.5t-100 34.5h-89v-246q23 -7 71 -7q73 0 114 33.5zM98 900h95l71 -63l70 63h95l-115 -112h-101z" />
    <glyph glyph-name="rcaron" unicode="&#x159;" horiz-adv-x="371" 
d="M67 25q3 81 3 94v262q0 18 -3 96l-1 23h82l6 -57h1q21 31 53.5 48t73.5 17q22 0 41.5 -4.5t30.5 -11.5v-104h-2q-35 39 -83 39t-77.5 -35.5t-29.5 -95.5v-177q0 -65 4 -119h-100zM43 700h95l71 -63l70 63h95l-115 -112h-101z" />
    <glyph glyph-name="Sacute" unicode="&#x15a;" horiz-adv-x="542" 
d="M150 8q-55 16 -93 44v125h1q42 -48 96.5 -75t110.5 -27q63 0 99.5 32t36.5 86q0 41 -24.5 67.5t-80.5 47.5l-101 38q-70 26 -105.5 67t-35.5 108q0 53 29 96t80 67t116 24q57 0 107.5 -15.5t79.5 -40.5v-124h-1q-33 42 -80.5 69.5t-104.5 27.5q-58 0 -93 -27.5t-35 -69.5
q0 -38 23.5 -61t74.5 -42l101 -38q77 -29 112.5 -74t35.5 -115q0 -94 -64 -150t-172 -56q-58 0 -113 16zM308 900h134l-131 -112h-88z" />
    <glyph glyph-name="sacute" unicode="&#x15b;" horiz-adv-x="443" 
d="M130.5 3.5q-46.5 12.5 -80.5 29.5v107h2q31 -31 78.5 -51.5t92.5 -20.5q41 0 66 19.5t25 49.5q0 25 -15.5 41t-49.5 27l-86 27q-115 37 -115 132q0 70 52.5 107t128.5 37q40 0 79.5 -10.5t66.5 -26.5v-103h-1q-29 29 -67 46.5t-75 17.5q-43 0 -68 -18t-25 -45
q0 -26 19 -39.5t52 -24.5l79 -26q61 -20 88.5 -52.5t27.5 -86.5q0 -67 -50.5 -108t-134.5 -41q-43 0 -89.5 12.5zM258 700h134l-131 -112h-88z" />
    <glyph glyph-name="Scedilla" unicode="&#x15e;" horiz-adv-x="542" 
d="M446.5 59q-52.5 -54 -144.5 -65l-8 -30q60 -13 60 -72q0 -43 -26 -66t-70 -23q-40 0 -65 12v60h1q29 -16 58 -16q17 0 27 8.5t10 23.5q0 13 -10.5 20.5t-28.5 7.5q-13 0 -23 -2h-1l21 75q-54 2 -104 18t-86 42v125h1q42 -48 96.5 -75t110.5 -27q63 0 99.5 32t36.5 86
q0 41 -24.5 67.5t-80.5 47.5l-101 38q-70 26 -105.5 67t-35.5 108q0 53 29 96t80 67t116 24q57 0 107.5 -15.5t79.5 -40.5v-124h-1q-33 42 -80.5 69.5t-104.5 27.5q-58 0 -93 -27.5t-35 -69.5q0 -38 23.5 -61t74.5 -42l101 -38q77 -29 112.5 -74t35.5 -115q0 -85 -52.5 -139
z" />
    <glyph glyph-name="scedilla" unicode="&#x15f;" horiz-adv-x="443" 
d="M363.5 40.5q-41.5 -40.5 -111.5 -47.5l-8 -29q60 -13 60 -72q0 -43 -26 -66t-70 -23q-40 0 -65 12v60h1q29 -16 58 -16q17 0 27 8.5t10 23.5q0 13 -10.5 20.5t-28.5 7.5q-13 0 -23 -2h-1l21 75q-39 3 -78 14.5t-69 26.5v107h2q31 -31 78.5 -51.5t92.5 -20.5q41 0 66 19.5
t25 49.5q0 25 -15.5 41t-49.5 27l-86 27q-115 37 -115 132q0 70 52.5 107t128.5 37q40 0 79.5 -10.5t66.5 -26.5v-103h-1q-29 29 -67 46.5t-75 17.5q-43 0 -68 -18t-25 -45q0 -26 19 -39.5t52 -24.5l79 -26q61 -20 88.5 -52.5t27.5 -86.5q0 -59 -41.5 -99.5z" />
    <glyph glyph-name="Scaron" unicode="&#x160;" horiz-adv-x="542" 
d="M150 8q-55 16 -93 44v125h1q42 -48 96.5 -75t110.5 -27q63 0 99.5 32t36.5 86q0 41 -24.5 67.5t-80.5 47.5l-101 38q-70 26 -105.5 67t-35.5 108q0 53 29 96t80 67t116 24q57 0 107.5 -15.5t79.5 -40.5v-124h-1q-33 42 -80.5 69.5t-104.5 27.5q-58 0 -93 -27.5t-35 -69.5
q0 -38 23.5 -61t74.5 -42l101 -38q77 -29 112.5 -74t35.5 -115q0 -94 -64 -150t-172 -56q-58 0 -113 16zM109 900h95l71 -63l70 63h95l-115 -112h-101z" />
    <glyph glyph-name="scaron" unicode="&#x161;" horiz-adv-x="443" 
d="M130.5 3.5q-46.5 12.5 -80.5 29.5v107h2q31 -31 78.5 -51.5t92.5 -20.5q41 0 66 19.5t25 49.5q0 25 -15.5 41t-49.5 27l-86 27q-115 37 -115 132q0 70 52.5 107t128.5 37q40 0 79.5 -10.5t66.5 -26.5v-103h-1q-29 29 -67 46.5t-75 17.5q-43 0 -68 -18t-25 -45
q0 -26 19 -39.5t52 -24.5l79 -26q61 -20 88.5 -52.5t27.5 -86.5q0 -67 -50.5 -108t-134.5 -41q-43 0 -89.5 12.5zM59 700h95l71 -63l70 63h95l-115 -112h-101z" />
    <glyph glyph-name="Tcommaaccent" unicode="&#x162;" horiz-adv-x="562" 
d="M233 118v499h-103q-24 0 -68 -2q-32 -2 -46 -2v87h530v-87q-16 0 -46 2q-46 2 -68 2h-103v-499q0 -50 5 -118h-105q4 54 4 118zM199 -185v60h1q29 -16 58 -16q17 0 27 8.5t10 23.5q0 13 -10.5 20.5t-28.5 7.5q-13 0 -23 -2h-1l23 83h55l-10 -36q60 -13 60 -72
q0 -43 -26 -66t-70 -23q-40 0 -65 12z" />
    <glyph glyph-name="tcommaaccent" unicode="&#x163;" horiz-adv-x="402" 
d="M201 422v-268q0 -82 79 -82q27 0 53.5 13t45.5 32h2v-96q-56 -28 -113 -29l-8 -28q60 -13 60 -72q0 -43 -26 -66t-70 -23q-40 0 -65 12v60h1q29 -16 58 -16q17 0 27 8.5t10 23.5q0 13 -10.5 20.5t-28.5 7.5q-13 0 -23 -2h-1l22 80q-48 12 -76.5 48t-28.5 94v283h-8
q-24 0 -84 -3v84q28 -3 85 -3h7v51q0 65 -4 119h100q-4 -54 -4 -119v-51h59q82 0 121 3v-85q-52 4 -121 4h-59z" />
    <glyph glyph-name="Tcaron" unicode="&#x164;" horiz-adv-x="562" 
d="M233 118v499h-103q-24 0 -68 -2q-32 -2 -46 -2v87h530v-87q-16 0 -46 2q-46 2 -68 2h-103v-499q0 -50 5 -118h-105q4 54 4 118zM115 900h95l71 -63l70 63h95l-115 -112h-101z" />
    <glyph glyph-name="tcaron" unicode="&#x165;" horiz-adv-x="402" 
d="M151.5 29.5q-42.5 37.5 -42.5 109.5v283h-8q-24 0 -84 -3v84q28 -3 85 -3h7v51q0 65 -4 119h100q-4 -54 -4 -119v-51h59q82 0 121 3v-85q-52 4 -121 4h-59v-268q0 -82 79 -82q27 0 53.5 13t45.5 32h2v-96q-61 -29 -118 -29q-69 0 -111.5 37.5zM301 751h105l-72 -146h-81z
" />
    <glyph glyph-name="Tbar" unicode="&#x166;" horiz-adv-x="584" 
d="M340 617v-217h33q78 0 117 3v-87q-52 4 -117 4h-33v-202q0 -50 5 -118h-105q4 54 4 118v202h-35q-66 0 -116 -4v87q37 -3 116 -3h35v217h-103q-24 0 -68 -2q-32 -2 -46 -2v87h530v-87q-16 0 -46 2q-46 2 -68 2h-103z" />
    <glyph glyph-name="tbar" unicode="&#x167;" horiz-adv-x="416" 
d="M210 422v-110h63q78 0 117 3v-84q-52 4 -117 4h-63v-81q0 -82 79 -82q27 0 53.5 13t45.5 32h2v-96q-61 -29 -118 -29q-69 0 -111.5 37.5t-42.5 109.5v96q-70 -2 -92 -4v84q32 -3 92 -3v110h-8q-24 0 -84 -3v84q29 -3 85 -3h7v51q0 65 -4 119h100q-4 -54 -4 -119v-51h59
q82 0 121 3v-85q-52 4 -121 4h-59z" />
    <glyph glyph-name="Umacron" unicode="&#x16a;" horiz-adv-x="709" 
d="M145.5 67.5q-69.5 75.5 -69.5 217.5v296q0 54 -5 119h105q-4 -52 -4 -119v-294q0 -105 43.5 -158.5t136.5 -53.5q91 0 138 55.5t47 156.5v294q0 18 -3 96l-1 23h104q-4 -52 -4 -119v-296q0 -140 -72 -216.5t-209 -76.5t-206.5 75.5zM216 876h276v-74h-276v74z" />
    <glyph glyph-name="umacron" unicode="&#x16b;" horiz-adv-x="548" 
d="M116 39.5q-51 47.5 -51 138.5v203q0 13 -3 94l-1 25h100q-4 -54 -4 -119v-182q0 -64 26.5 -95.5t82.5 -31.5t88 31t32 94v184q0 65 -4 119h100q-4 -54 -4 -119v-262q0 -67 4 -119h-82l-6 57h-1q-14 -26 -52.5 -45.5t-79.5 -19.5q-94 0 -145 47.5zM133 676h276v-74h-276
v74z" />
    <glyph glyph-name="Uring" unicode="&#x16e;" horiz-adv-x="709" 
d="M145.5 67.5q-69.5 75.5 -69.5 217.5v296q0 54 -5 119h105q-4 -52 -4 -119v-294q0 -105 43.5 -158.5t136.5 -53.5q91 0 138 55.5t47 156.5v294q0 18 -3 96l-1 23h104q-4 -52 -4 -119v-296q0 -140 -72 -216.5t-209 -76.5t-206.5 75.5zM282.5 770.5q-29.5 29.5 -29.5 70.5
t29.5 70.5t71.5 29.5q41 0 71 -29.5t30 -70.5t-30 -70.5t-71 -29.5q-42 0 -71.5 29.5zM378.5 815.5q10.5 10.5 10.5 25.5t-10.5 25.5t-24.5 10.5q-15 0 -25 -10.5t-10 -25.5q0 -16 10 -26t25 -10q14 0 24.5 10.5z" />
    <glyph glyph-name="uring" unicode="&#x16f;" horiz-adv-x="548" 
d="M116 39.5q-51 47.5 -51 138.5v203q0 13 -3 94l-1 25h100q-4 -54 -4 -119v-182q0 -64 26.5 -95.5t82.5 -31.5t88 31t32 94v184q0 65 -4 119h100q-4 -54 -4 -119v-262q0 -67 4 -119h-82l-6 57h-1q-14 -26 -52.5 -45.5t-79.5 -19.5q-94 0 -145 47.5zM199.5 570.5
q-29.5 29.5 -29.5 70.5t29.5 70.5t71.5 29.5q41 0 71 -29.5t30 -70.5t-30 -70.5t-71 -29.5q-42 0 -71.5 29.5zM295.5 615.5q10.5 10.5 10.5 25.5t-10.5 25.5t-24.5 10.5q-15 0 -25 -10.5t-10 -25.5q0 -16 10 -26t25 -10q14 0 24.5 10.5z" />
    <glyph glyph-name="Uhungarumlaut" unicode="&#x170;" horiz-adv-x="709" 
d="M145.5 67.5q-69.5 75.5 -69.5 217.5v296q0 54 -5 119h105q-4 -52 -4 -119v-294q0 -105 43.5 -158.5t136.5 -53.5q91 0 138 55.5t47 156.5v294q0 18 -3 96l-1 23h104q-4 -52 -4 -119v-296q0 -140 -72 -216.5t-209 -76.5t-206.5 75.5zM299 900h134l-131 -112h-88zM474 900
h134l-131 -112h-88z" />
    <glyph glyph-name="uhungarumlaut" unicode="&#x171;" horiz-adv-x="548" 
d="M116 39.5q-51 47.5 -51 138.5v203q0 13 -3 94l-1 25h100q-4 -54 -4 -119v-182q0 -64 26.5 -95.5t82.5 -31.5t88 31t32 94v184q0 65 -4 119h100q-4 -54 -4 -119v-262q0 -67 4 -119h-82l-6 57h-1q-14 -26 -52.5 -45.5t-79.5 -19.5q-94 0 -145 47.5zM216 700h134l-131 -112
h-88zM391 700h134l-131 -112h-88z" />
    <glyph glyph-name="Uogonek" unicode="&#x172;" horiz-adv-x="709" 
d="M311.5 -169.5q-28.5 24.5 -28.5 65.5q0 53 53 95v1q-129 4 -194.5 79.5t-65.5 213.5v296q0 54 -5 119h105q-4 -52 -4 -119v-294q0 -105 43.5 -158.5t136.5 -53.5q91 0 138 55.5t47 156.5v294q0 18 -3 96l-1 23h104q-4 -52 -4 -119v-296q0 -110 -44.5 -181.5t-131.5 -97.5
q-38 -15 -63.5 -40t-25.5 -52q0 -17 10 -26.5t26 -9.5q18 0 36 10h1v-73q-29 -9 -56 -9q-45 0 -73.5 24.5z" />
    <glyph glyph-name="uogonek" unicode="&#x173;" horiz-adv-x="548" 
d="M422.5 -42q-20.5 -19 -20.5 -46q0 -16 9.5 -25t25.5 -9q19 0 37 10h1v-73q-29 -9 -56 -9q-45 0 -73.5 24.5t-28.5 65.5q0 37 23.5 65.5t58.5 49.5l-5 46h-1q-14 -26 -52.5 -45.5t-79.5 -19.5q-94 0 -145 47.5t-51 138.5v203q0 13 -3 94l-1 25h100q-4 -54 -4 -119v-182
q0 -64 26.5 -95.5t82.5 -31.5t88 31t32 94v184q0 65 -4 119h100q-4 -54 -4 -119v-262q0 -67 4 -119q-39 -23 -59.5 -42z" />
    <glyph glyph-name="Wcircumflex" unicode="&#x174;" horiz-adv-x="934" 
d="M258 46l-220 601q-12 34 -25 53h101l199 -579h1l107 259l-106 268q-16 37 -26 52h101l77 -216h1l83 216h102q-13 -19 -26 -52l-114 -269l95 -258h1l218 579h102q-13 -19 -26 -52l-238 -601q-8 -19 -16 -47h-77q-2 6 -6 17.5t-11 29.5l-88 229h-1l-99 -229
q-11 -24 -17 -47h-77q-2 10 -15 46zM418 900h101l115 -112h-95l-70 63l-71 -63h-95z" />
    <glyph glyph-name="wcircumflex" unicode="&#x175;" horiz-adv-x="715" 
d="M151 13.5q-1 10.5 -6 27.5l-106 405q-12 43 -25 53v1h105q0 -12 8 -46l78 -339h1l99 339q7 25 10 46h89q0 -7 2.5 -22t5.5 -24l101 -339h1l77 339q7 29 9 46h102v-1q-16 -20 -25 -53l-107 -405q-7 -26 -6 -41h-98q0 2 -1.5 13.5t-5.5 27.5l-101 353h-1l-101 -353
q-6 -22 -6 -41h-98q0 3 -1 13.5zM307 700h101l115 -112h-95l-70 63l-71 -63h-95z" />
    <glyph glyph-name="Ycircumflex" unicode="&#x176;" horiz-adv-x="622" 
d="M264 119v179l-215 352q-7 12 -31 50h105q17 -36 28 -55l161 -267h1l161 266q20 32 29 56h101q-3 -5 -11 -17t-21 -33l-212 -352v-179q0 -65 4 -119h-104q4 54 4 119zM263 900h101l115 -112h-95l-70 63l-71 -63h-95z" />
    <glyph glyph-name="ycircumflex" unicode="&#x177;" horiz-adv-x="485" 
d="M103 -199q1 2 8.5 12.5t14.5 30.5l75 196l-164 406q-13 32 -28 53v1h108q-1 -3 -1 -9q0 -14 9 -37l122 -313h1l112 313q11 31 9 46h107v-1q-2 -3 -12 -19t-17 -34l-231 -605q-5 -13 -5 -23q0 -9 4 -17v-1h-112v1zM191 700h101l115 -112h-95l-70 63l-71 -63h-95z" />
    <glyph glyph-name="Ydieresis" unicode="&#x178;" horiz-adv-x="622" 
d="M264 119v179l-215 352q-7 12 -31 50h105q17 -36 28 -55l161 -267h1l161 266q20 32 29 56h101q-3 -5 -11 -17t-21 -33l-212 -352v-179q0 -65 4 -119h-104q4 54 4 119zM180.5 802q-14.5 14 -14.5 36q0 23 14 37.5t37 14.5q24 0 38.5 -14.5t14.5 -37.5t-14.5 -36.5
t-38.5 -13.5q-22 0 -36.5 14zM372.5 802q-14.5 14 -14.5 36q0 23 14 37.5t37 14.5q24 0 38.5 -14.5t14.5 -37.5t-14.5 -36.5t-38.5 -13.5q-22 0 -36.5 14z" />
    <glyph glyph-name="Zacute" unicode="&#x179;" horiz-adv-x="667" 
d="M518 0h-497v67l478 549v1h-326q-63 0 -114 -4v91q78 -4 114 -4h455v-73l-466 -543v-1h356q39 0 115 4v-91q-76 4 -115 4zM360 900h134l-131 -112h-88z" />
    <glyph glyph-name="zacute" unicode="&#x17a;" horiz-adv-x="473" 
d="M403 -2q-38 2 -56 2h-318v61l283 358v1h-168q-19 0 -57 -2q-24 -2 -37 -2v88q13 0 37 -2q38 -2 57 -2h286v-67l-275 -351v-1h192q18 0 56 2q24 2 37 2v-89q-13 0 -37 2zM258 700h134l-131 -112h-88z" />
    <glyph glyph-name="Zdotaccent" unicode="&#x17b;" horiz-adv-x="667" 
d="M518 0h-497v67l478 549v1h-326q-63 0 -114 -4v91q78 -4 114 -4h455v-73l-466 -543v-1h356q39 0 115 4v-91q-76 4 -115 4zM289 800.5q-15 14.5 -15 37.5q0 24 15 39t38 15t38 -15t15 -39q0 -23 -15 -37.5t-38 -14.5t-38 14.5z" />
    <glyph glyph-name="zdotaccent" unicode="&#x17c;" horiz-adv-x="473" 
d="M403 -2q-38 2 -56 2h-318v61l283 358v1h-168q-19 0 -57 -2q-24 -2 -37 -2v88q13 0 37 -2q38 -2 57 -2h286v-67l-275 -351v-1h192q18 0 56 2q24 2 37 2v-89q-13 0 -37 2zM197 600.5q-15 14.5 -15 37.5q0 24 15 39t38 15t38 -15t15 -39q0 -23 -15 -37.5t-38 -14.5t-38 14.5
z" />
    <glyph glyph-name="Zcaron" unicode="&#x17d;" horiz-adv-x="667" 
d="M518 0h-497v67l478 549v1h-326q-63 0 -114 -4v91q78 -4 114 -4h455v-73l-466 -543v-1h356q39 0 115 4v-91q-76 4 -115 4zM161 900h95l71 -63l70 63h95l-115 -112h-101z" />
    <glyph glyph-name="zcaron" unicode="&#x17e;" horiz-adv-x="473" 
d="M403 -2q-38 2 -56 2h-318v61l283 358v1h-168q-19 0 -57 -2q-24 -2 -37 -2v88q13 0 37 -2q38 -2 57 -2h286v-67l-275 -351v-1h192q18 0 56 2q24 2 37 2v-89q-13 0 -37 2zM79 700h95l71 -63l70 63h95l-115 -112h-101z" />
    <glyph glyph-name="florin" unicode="&#x192;" horiz-adv-x="600" 
d="M25 -192v90h1q17 -13 34.5 -18.5t40.5 -5.5q38 0 60.5 25.5t30.5 67.5l72 363h-15q-68 0 -120 -4v84q39 -3 120 -3h30l41 208q13 63 58 103t115 40q49 0 80 -14v-90h-1q-17 13 -34.5 18.5t-40.5 5.5q-38 0 -60.5 -25.5t-30.5 -67.5l-35 -178h23q81 0 120 3v-84
q-52 4 -120 4h-38l-78 -393q-13 -63 -58 -103t-115 -40q-48 0 -80 14z" />
    <glyph glyph-name="Scommaaccent" unicode="&#x218;" horiz-adv-x="542" 
d="M150 8q-55 16 -93 44v125h1q42 -48 96.5 -75t110.5 -27q63 0 99.5 32t36.5 86q0 41 -24.5 67.5t-80.5 47.5l-101 38q-70 26 -105.5 67t-35.5 108q0 53 29 96t80 67t116 24q57 0 107.5 -15.5t79.5 -40.5v-124h-1q-33 42 -80.5 69.5t-104.5 27.5q-58 0 -93 -27.5t-35 -69.5
q0 -38 23.5 -61t74.5 -42l101 -38q77 -29 112.5 -74t35.5 -115q0 -94 -64 -150t-172 -56q-58 0 -113 16zM228 -54h105l-72 -146h-81z" />
    <glyph glyph-name="scommaaccent" unicode="&#x219;" horiz-adv-x="443" 
d="M130.5 3.5q-46.5 12.5 -80.5 29.5v107h2q31 -31 78.5 -51.5t92.5 -20.5q41 0 66 19.5t25 49.5q0 25 -15.5 41t-49.5 27l-86 27q-115 37 -115 132q0 70 52.5 107t128.5 37q40 0 79.5 -10.5t66.5 -26.5v-103h-1q-29 29 -67 46.5t-75 17.5q-43 0 -68 -18t-25 -45
q0 -26 19 -39.5t52 -24.5l79 -26q61 -20 88.5 -52.5t27.5 -86.5q0 -67 -50.5 -108t-134.5 -41q-43 0 -89.5 12.5zM178 -54h105l-72 -146h-81z" />
    <glyph glyph-name="uni021A" unicode="&#x21a;" horiz-adv-x="562" 
d="M233 118v499h-103q-24 0 -68 -2q-32 -2 -46 -2v87h530v-87q-16 0 -46 2q-46 2 -68 2h-103v-499q0 -50 5 -118h-105q4 54 4 118zM234 -54h105l-72 -146h-81z" />
    <glyph glyph-name="uni021B" unicode="&#x21b;" horiz-adv-x="402" 
d="M151.5 29.5q-42.5 37.5 -42.5 109.5v283h-8q-24 0 -84 -3v84q28 -3 85 -3h7v51q0 65 -4 119h100q-4 -54 -4 -119v-51h59q82 0 121 3v-85q-52 4 -121 4h-59v-268q0 -82 79 -82q27 0 53.5 13t45.5 32h2v-96q-61 -29 -118 -29q-69 0 -111.5 37.5zM194 -54h105l-72 -146h-81z
" />
    <glyph glyph-name="uni0237" unicode="&#x237;" horiz-adv-x="240" 
d="M-43 -202q-22 6 -37 16v90h2q37 -29 78 -29q39 0 58.5 25t19.5 71v410q0 67 -4 119h100q-4 -52 -4 -119v-426q0 -81 -43 -122t-124 -41q-24 0 -46 6z" />
    <glyph glyph-name="circumflex" unicode="&#x2c6;" horiz-adv-x="431" 
d="M165 700h101l115 -112h-95l-70 63l-71 -63h-95z" />
    <glyph glyph-name="caron" unicode="&#x2c7;" horiz-adv-x="431" 
d="M50 700h95l71 -63l70 63h95l-115 -112h-101z" />
    <glyph glyph-name="breve" unicode="&#x2d8;" horiz-adv-x="404" 
d="M97 607.5q-41 33.5 -47 92.5h75q5 -27 24.5 -42.5t52.5 -15.5t52.5 15.5t24.5 42.5h75q-6 -59 -47 -92.5t-105 -33.5t-105 33.5z" />
    <glyph glyph-name="dotaccent" unicode="&#x2d9;" horiz-adv-x="206" 
d="M65 600.5q-15 14.5 -15 37.5q0 24 15 39t38 15t38 -15t15 -39q0 -23 -15 -37.5t-38 -14.5t-38 14.5z" />
    <glyph glyph-name="ring" unicode="&#x2da;" horiz-adv-x="302" 
d="M79.5 570.5q-29.5 29.5 -29.5 70.5t29.5 70.5t71.5 29.5q41 0 71 -29.5t30 -70.5t-30 -70.5t-71 -29.5q-42 0 -71.5 29.5zM175.5 615.5q10.5 10.5 10.5 25.5t-10.5 25.5t-24.5 10.5q-15 0 -25 -10.5t-10 -25.5q0 -16 10 -26t25 -10q14 0 24.5 10.5z" />
    <glyph glyph-name="ogonek" unicode="&#x2db;" horiz-adv-x="265" 
d="M78.5 -169.5q-28.5 24.5 -28.5 65.5q0 68 88 119l77 -15q-39 -23 -59.5 -42t-20.5 -46q0 -16 9.5 -25t25.5 -9q19 0 37 10h1v-73q-29 -9 -56 -9q-45 0 -73.5 24.5z" />
    <glyph glyph-name="tilde" unicode="&#x2dc;" horiz-adv-x="426" 
d="M219 608l-16 11q-5 4 -16 11t-18 10.5t-14 3.5q-18 0 -24.5 -12t-7.5 -32h-73q7 51 32.5 82t68.5 31q30 0 56 -18l16 -11q20 -14 29.5 -19.5t18.5 -5.5q18 0 24.5 12t7.5 32h73q-7 -51 -32.5 -82t-68.5 -31q-30 0 -56 18z" />
    <glyph glyph-name="hungarumlaut" unicode="&#x2dd;" horiz-adv-x="494" 
d="M135 700h134l-131 -112h-88zM310 700h134l-131 -112h-88z" />
    <glyph glyph-name="gravecomb" unicode="&#x300;" 
d="M-359 700h134l85 -112h-88z" />
    <glyph glyph-name="acutecomb" unicode="&#x301;" 
d="M-274 700h134l-131 -112h-88z" />
    <glyph glyph-name="uni0302" unicode="&#x302;" 
d="M-300 700h101l115 -112h-95l-70 63l-71 -63h-95z" />
    <glyph glyph-name="tildecomb" unicode="&#x303;" 
d="M-244 608l-16 11q-5 4 -16 11t-18 10.5t-14 3.5q-18 0 -24.5 -12t-7.5 -32h-73q7 51 32.5 82t68.5 31q30 0 56 -18l16 -11q20 -14 29.5 -19.5t18.5 -5.5q18 0 24.5 12t7.5 32h73q-7 -51 -32.5 -82t-68.5 -31q-30 0 -56 18z" />
    <glyph glyph-name="uni0304" unicode="&#x304;" 
d="M-388 676h276v-74h-276v74z" />
    <glyph glyph-name="uni0306" unicode="&#x306;" 
d="M-355 607.5q-41 33.5 -47 92.5h75q5 -27 24.5 -42.5t52.5 -15.5t52.5 15.5t24.5 42.5h75q-6 -59 -47 -92.5t-105 -33.5t-105 33.5z" />
    <glyph glyph-name="uni0307" unicode="&#x307;" 
d="M-288 600.5q-15 14.5 -15 37.5q0 24 15 39t38 15t38 -15t15 -39q0 -23 -15 -37.5t-38 -14.5t-38 14.5z" />
    <glyph glyph-name="uni0308" unicode="&#x308;" 
d="M-383.5 602q-14.5 14 -14.5 36q0 23 14 37.5t37 14.5q24 0 38.5 -14.5t14.5 -37.5t-14.5 -36.5t-38.5 -13.5q-22 0 -36.5 14zM-191.5 602q-14.5 14 -14.5 36q0 23 14 37.5t37 14.5q24 0 38.5 -14.5t14.5 -37.5t-14.5 -36.5t-38.5 -13.5q-22 0 -36.5 14z" />
    <glyph glyph-name="uni030A" unicode="&#x30a;" 
d="M-321.5 570.5q-29.5 29.5 -29.5 70.5t29.5 70.5t71.5 29.5q41 0 71 -29.5t30 -70.5t-30 -70.5t-71 -29.5q-42 0 -71.5 29.5zM-225.5 615.5q10.5 10.5 10.5 25.5t-10.5 25.5t-24.5 10.5q-15 0 -25 -10.5t-10 -25.5q0 -16 10 -26t25 -10q14 0 24.5 10.5z" />
    <glyph glyph-name="uni030B" unicode="&#x30b;" 
d="M-362 700h134l-131 -112h-88zM-187 700h134l-131 -112h-88z" />
    <glyph glyph-name="uni030C" unicode="&#x30c;" 
d="M-415 700h95l71 -63l70 63h95l-115 -112h-101z" />
    <glyph glyph-name="uni0312" unicode="&#x312;" 
d="M-254 734h81l-48 -146h-105z" />
    <glyph glyph-name="uni0326" unicode="&#x326;" 
d="M-278 -54h105l-72 -146h-81z" />
    <glyph glyph-name="uni0327" unicode="&#x327;" 
d="M-330 -185v60h1q29 -16 58 -16q17 0 27 8.5t10 23.5q0 13 -10.5 20.5t-28.5 7.5q-13 0 -23 -2h-1l23 83h55l-10 -36q60 -13 60 -72q0 -43 -26 -66t-70 -23q-40 0 -65 12z" />
    <glyph glyph-name="uni0328" unicode="&#x328;" 
d="M-303.5 -169.5q-28.5 24.5 -28.5 65.5q0 68 88 119l77 -15q-39 -23 -59.5 -42t-20.5 -46q0 -16 9.5 -25t25.5 -9q19 0 37 10h1v-73q-29 -9 -56 -9q-45 0 -73.5 24.5z" />
    <glyph glyph-name="uni0335" unicode="&#x335;" 
d="M-448 300q37 -3 116 -3h164q78 0 117 3v-87q-52 4 -117 4h-164q-66 0 -116 -4v87z" />
    <glyph glyph-name="uni0336" unicode="&#x336;" 
d="M-598 397q37 -3 116 -3h463q78 0 117 3v-87q-52 4 -117 4h-463q-66 0 -116 -4v87z" />
    <glyph glyph-name="uni0337" unicode="&#x337;" 
d="M-496 79q36 30 78 72l286 284q28 28 67 76l61 -66l-16 -14q-23 -18 -60 -55l-286 -287q-32 -32 -67 -75z" />
    <glyph glyph-name="uni0338" unicode="&#x338;" 
d="M-589 79q48 41 78 72l473 470q33 34 67 76l61 -66q-6 -5 -25.5 -22t-50.5 -47l-473 -473q-32 -32 -67 -75z" />
    <glyph glyph-name="Delta" unicode="&#x394;" horiz-adv-x="648" 
d="M27 83l234 570q12 27 17 47h79q5 -17 17 -47l248 -570v-83h-595v83zM524 83v1l-209 483h-1l-193 -483v-1h403z" />
    <glyph glyph-name="Omega" unicode="&#x3a9;" horiz-adv-x="812" 
d="M55 87l30 -1q33 -3 83 -3h51v1q-43 21 -81 63t-61 101t-23 129q0 96 46 172t126.5 118.5t179.5 42.5t179.5 -42.5t126.5 -118.5t46 -172q0 -70 -23 -129t-61 -101t-81 -63v-1h51q50 0 83 3l30 1l-3 -87h-286v82q53 21 97.5 63t70.5 98.5t26 118.5q0 76 -33.5 134.5
t-92 90.5t-130.5 32t-130.5 -32t-92 -90.5t-33.5 -134.5q0 -62 26 -118.5t70.5 -98.5t97.5 -63v-82h-286z" />
    <glyph glyph-name="mu" unicode="&#x3bc;" horiz-adv-x="553" 
d="M70 -81v462q0 13 -3 94l-1 25h100q-4 -54 -4 -119v-182q0 -64 26.5 -95.5t82.5 -31.5t88 31t32 94v184q0 65 -4 119h100q-4 -54 -4 -119v-262q0 -67 4 -119h-82l-6 57h-1q-14 -26 -52.5 -45.5t-79.5 -19.5q-61 0 -103 33h-1v-106q0 -65 4 -119h-100q4 54 4 119z" />
    <glyph glyph-name="pi" unicode="&#x3c0;" horiz-adv-x="651" 
d="M448 22q-33 30 -33 89v311h-200v-303q0 -65 4 -119h-100l1 25q3 81 3 94v303h-22q-25 0 -85 -3v84q28 -3 85 -3h428q57 0 85 3v-84q-60 3 -85 3h-22v-293q0 -29 12 -43t38 -14q25 0 46 14h2v-85q-11 -3 -31.5 -6t-37.5 -3q-55 0 -88 30z" />
    <glyph glyph-name="Wgrave" unicode="&#x1e80;" horiz-adv-x="934" 
d="M258 46l-220 601q-12 34 -25 53h101l199 -579h1l107 259l-106 268q-16 37 -26 52h101l77 -216h1l83 216h102q-13 -19 -26 -52l-114 -269l95 -258h1l218 579h102q-13 -19 -26 -52l-238 -601q-8 -19 -16 -47h-77q-2 6 -6 17.5t-11 29.5l-88 229h-1l-99 -229
q-11 -24 -17 -47h-77q-2 10 -15 46zM302 900h134l85 -112h-88z" />
    <glyph glyph-name="wgrave" unicode="&#x1e81;" horiz-adv-x="715" 
d="M151 13.5q-1 10.5 -6 27.5l-106 405q-12 43 -25 53v1h105q0 -12 8 -46l78 -339h1l99 339q7 25 10 46h89q0 -7 2.5 -22t5.5 -24l101 -339h1l77 339q7 29 9 46h102v-1q-16 -20 -25 -53l-107 -405q-7 -26 -6 -41h-98q0 2 -1.5 13.5t-5.5 27.5l-101 353h-1l-101 -353
q-6 -22 -6 -41h-98q0 3 -1 13.5zM191 700h134l85 -112h-88z" />
    <glyph glyph-name="Wacute" unicode="&#x1e82;" horiz-adv-x="934" 
d="M258 46l-220 601q-12 34 -25 53h101l199 -579h1l107 259l-106 268q-16 37 -26 52h101l77 -216h1l83 216h102q-13 -19 -26 -52l-114 -269l95 -258h1l218 579h102q-13 -19 -26 -52l-238 -601q-8 -19 -16 -47h-77q-2 6 -6 17.5t-11 29.5l-88 229h-1l-99 -229
q-11 -24 -17 -47h-77q-2 10 -15 46zM502 900h134l-131 -112h-88z" />
    <glyph glyph-name="wacute" unicode="&#x1e83;" horiz-adv-x="715" 
d="M151 13.5q-1 10.5 -6 27.5l-106 405q-12 43 -25 53v1h105q0 -12 8 -46l78 -339h1l99 339q7 25 10 46h89q0 -7 2.5 -22t5.5 -24l101 -339h1l77 339q7 29 9 46h102v-1q-16 -20 -25 -53l-107 -405q-7 -26 -6 -41h-98q0 2 -1.5 13.5t-5.5 27.5l-101 353h-1l-101 -353
q-6 -22 -6 -41h-98q0 3 -1 13.5zM391 700h134l-131 -112h-88z" />
    <glyph glyph-name="Wdieresis" unicode="&#x1e84;" horiz-adv-x="934" 
d="M258 46l-220 601q-12 34 -25 53h101l199 -579h1l107 259l-106 268q-16 37 -26 52h101l77 -216h1l83 216h102q-13 -19 -26 -52l-114 -269l95 -258h1l218 579h102q-13 -19 -26 -52l-238 -601q-8 -19 -16 -47h-77q-2 6 -6 17.5t-11 29.5l-88 229h-1l-99 -229
q-11 -24 -17 -47h-77q-2 10 -15 46zM335.5 802q-14.5 14 -14.5 36q0 23 14 37.5t37 14.5q24 0 38.5 -14.5t14.5 -37.5t-14.5 -36.5t-38.5 -13.5q-22 0 -36.5 14zM527.5 802q-14.5 14 -14.5 36q0 23 14 37.5t37 14.5q24 0 38.5 -14.5t14.5 -37.5t-14.5 -36.5t-38.5 -13.5
q-22 0 -36.5 14z" />
    <glyph glyph-name="wdieresis" unicode="&#x1e85;" horiz-adv-x="715" 
d="M151 13.5q-1 10.5 -6 27.5l-106 405q-12 43 -25 53v1h105q0 -12 8 -46l78 -339h1l99 339q7 25 10 46h89q0 -7 2.5 -22t5.5 -24l101 -339h1l77 339q7 29 9 46h102v-1q-16 -20 -25 -53l-107 -405q-7 -26 -6 -41h-98q0 2 -1.5 13.5t-5.5 27.5l-101 353h-1l-101 -353
q-6 -22 -6 -41h-98q0 3 -1 13.5zM224.5 602q-14.5 14 -14.5 36q0 23 14 37.5t37 14.5q24 0 38.5 -14.5t14.5 -37.5t-14.5 -36.5t-38.5 -13.5q-22 0 -36.5 14zM416.5 602q-14.5 14 -14.5 36q0 23 14 37.5t37 14.5q24 0 38.5 -14.5t14.5 -37.5t-14.5 -36.5t-38.5 -13.5
q-22 0 -36.5 14z" />
    <glyph glyph-name="uni1E9E" unicode="&#x1e9e;" horiz-adv-x="668" 
d="M332.5 -1q-21.5 4 -54.5 13v95h1q32 -16 58 -23.5t57 -7.5q61 0 97.5 42.5t36.5 107.5q0 60 -39.5 98t-106.5 38h-81v2l135 253v1h-256q-1 -12 -1 -37v-462q0 -65 4 -119h-104q4 54 4 119v462q0 67 -4 119h503v-1l-139 -261q98 -20 140 -80t42 -132t-30 -124t-82.5 -79.5
t-119.5 -27.5q-39 0 -60.5 4z" />
    <glyph glyph-name="Ygrave" unicode="&#x1ef2;" horiz-adv-x="622" 
d="M264 119v179l-215 352q-7 12 -31 50h105q17 -36 28 -55l161 -267h1l161 266q20 32 29 56h101q-3 -5 -11 -17t-21 -33l-212 -352v-179q0 -65 4 -119h-104q4 54 4 119zM147 900h134l85 -112h-88z" />
    <glyph glyph-name="ygrave" unicode="&#x1ef3;" horiz-adv-x="485" 
d="M103 -199q1 2 8.5 12.5t14.5 30.5l75 196l-164 406q-13 32 -28 53v1h108q-1 -3 -1 -9q0 -14 9 -37l122 -313h1l112 313q11 31 9 46h107v-1q-2 -3 -12 -19t-17 -34l-231 -605q-5 -13 -5 -23q0 -9 4 -17v-1h-112v1zM75 700h134l85 -112h-88z" />
    <glyph glyph-name="uni2002" unicode="&#x2002;" horiz-adv-x="444" 
 />
    <glyph glyph-name="uni2003" unicode="&#x2003;" horiz-adv-x="888" 
 />
    <glyph glyph-name="uni2004" unicode="&#x2004;" horiz-adv-x="296" 
 />
    <glyph glyph-name="uni2005" unicode="&#x2005;" horiz-adv-x="222" 
 />
    <glyph glyph-name="uni2007" unicode="&#x2007;" horiz-adv-x="757" 
 />
    <glyph glyph-name="uni2008" unicode="&#x2008;" horiz-adv-x="213" 
 />
    <glyph glyph-name="uni2009" unicode="&#x2009;" horiz-adv-x="111" 
 />
    <glyph glyph-name="uni200A" unicode="&#x200a;" horiz-adv-x="37" 
 />
    <glyph glyph-name="uni200B" unicode="&#x200b;" 
 />
    <glyph glyph-name="endash" unicode="&#x2013;" horiz-adv-x="612" 
d="M63 300q38 -3 116 -3h253q78 0 117 3v-87q-52 4 -117 4h-253q-66 0 -116 -4v87z" />
    <glyph glyph-name="emdash" unicode="&#x2014;" horiz-adv-x="787" 
d="M63 300q38 -3 116 -3h428q78 0 117 3v-87q-52 4 -117 4h-428q-66 0 -116 -4v87z" />
    <glyph glyph-name="quoteleft" unicode="&#x2018;" horiz-adv-x="209" 
d="M54.5 465.5q-13.5 13.5 -13.5 34.5q0 10 8.5 36.5t23.5 60.5l44 103h39l-6 -188q-1 -29 -16.5 -44.5t-43.5 -15.5q-22 0 -35.5 13.5z" />
    <glyph glyph-name="quoteright" unicode="&#x2019;" horiz-adv-x="208" 
d="M65 646q1 29 16.5 44.5t43.5 15.5q22 0 35.5 -13.5t13.5 -34.5q0 -10 -8.5 -36.5t-23.5 -60.5l-44 -103h-39z" />
    <glyph glyph-name="quotesinglbase" unicode="&#x201a;" horiz-adv-x="215" 
d="M53 45q1 29 16.5 44.5t43.5 15.5q22 0 35.5 -13.5t13.5 -34.5q0 -10 -8.5 -36.5t-23.5 -60.5l-44 -103h-39z" />
    <glyph glyph-name="quotedblleft" unicode="&#x201c;" horiz-adv-x="383" 
d="M54.5 465.5q-13.5 13.5 -13.5 34.5q0 10 8.5 36.5t23.5 60.5l44 103h39l-6 -188q-1 -29 -16.5 -44.5t-43.5 -15.5q-22 0 -35.5 13.5zM228.5 465.5q-13.5 13.5 -13.5 34.5q0 10 8.5 36.5t23.5 60.5l44 103h39l-6 -188q-1 -29 -16.5 -44.5t-43.5 -15.5q-22 0 -35.5 13.5z
" />
    <glyph glyph-name="quotedblright" unicode="&#x201d;" horiz-adv-x="382" 
d="M65 646q1 29 16.5 44.5t43.5 15.5q22 0 35.5 -13.5t13.5 -34.5q0 -10 -8.5 -36.5t-23.5 -60.5l-44 -103h-39zM239 646q1 29 16.5 44.5t43.5 15.5q22 0 35.5 -13.5t13.5 -34.5q0 -10 -8.5 -36.5t-23.5 -60.5l-44 -103h-39z" />
    <glyph glyph-name="quotedblbase" unicode="&#x201e;" horiz-adv-x="389" 
d="M53 45q1 29 16.5 44.5t43.5 15.5q22 0 35.5 -13.5t13.5 -34.5q0 -10 -8.5 -36.5t-23.5 -60.5l-44 -103h-39zM227 45q1 29 16.5 44.5t43.5 15.5q22 0 35.5 -13.5t13.5 -34.5q0 -10 -8.5 -36.5t-23.5 -60.5l-44 -103h-39z" />
    <glyph glyph-name="dagger" unicode="&#x2020;" horiz-adv-x="473" 
d="M191 -1v421h-47q-66 0 -116 -4v87q38 -3 116 -3h47v81q0 67 -4 119h100q-4 -52 -4 -119v-81h45q78 0 117 3v-87q-52 4 -117 4h-45v-421q0 -65 4 -119h-100q4 54 4 119z" />
    <glyph glyph-name="daggerdbl" unicode="&#x2021;" horiz-adv-x="527" 
d="M218 -1v81h-46q-78 0 -117 -3v87q52 -4 117 -4h46v260h-47q-66 0 -116 -4v87q37 -3 116 -3h47v81q0 67 -4 119h100q-4 -52 -4 -119v-81h45q78 0 117 3v-87q-52 4 -117 4h-45v-260h46q66 0 116 4v-87q-38 3 -116 3h-46v-81q0 -65 4 -119h-100q4 54 4 119z" />
    <glyph glyph-name="bullet" unicode="&#x2022;" horiz-adv-x="346" 
d="M106 204q-27 27 -27 66q0 40 27 67.5t67 27.5t67 -27.5t27 -67.5q0 -39 -27 -66t-67 -27t-67 27z" />
    <glyph glyph-name="ellipsis" unicode="&#x2026;" horiz-adv-x="629" 
d="M65 8q-16 16 -16 40q0 25 16 41t41 16t41.5 -16t16.5 -41q0 -24 -16.5 -40t-41.5 -16t-41 16zM273 8q-16 16 -16 40q0 25 16 41t41 16t41.5 -16t16.5 -41q0 -24 -16.5 -40t-41.5 -16t-41 16zM481 8q-16 16 -16 40q0 25 16 41t41 16t41.5 -16t16.5 -41q0 -24 -16.5 -40
t-41.5 -16t-41 16z" />
    <glyph glyph-name="perthousand" unicode="&#x2030;" horiz-adv-x="1152" 
d="M105.5 407.5q-34.5 21.5 -54.5 58.5t-20 82q0 44 20 81t54.5 58.5t76.5 21.5q43 0 77.5 -21.5t54 -58t19.5 -81.5t-19.5 -82t-54 -58.5t-77.5 -21.5q-42 0 -76.5 21.5zM246 480.5q20 32.5 20 67.5t-20 66.5t-64 31.5q-43 0 -63.5 -31.5t-20.5 -66.5t20.5 -67.5
t63.5 -32.5q44 0 64 32.5zM605 700h89l-493 -700h-89zM547.5 17.5q-34.5 21.5 -54.5 58.5t-20 82q0 44 20 81t54.5 58.5t76.5 21.5q43 0 77.5 -21.5t54 -58t19.5 -81.5t-19.5 -82t-54 -58.5t-77.5 -21.5q-42 0 -76.5 21.5zM688 90.5q20 32.5 20 67.5t-20 66.5t-64 31.5
q-43 0 -63.5 -31.5t-20.5 -66.5t20.5 -67.5t63.5 -32.5q44 0 64 32.5zM895.5 17.5q-34.5 21.5 -54.5 58.5t-20 82q0 44 20 81t54.5 58.5t76.5 21.5q43 0 77.5 -21.5t54 -58t19.5 -81.5t-19.5 -82t-54 -58.5t-77.5 -21.5q-42 0 -76.5 21.5zM1036 90.5q20 32.5 20 67.5
t-20 66.5t-64 31.5q-43 0 -63.5 -31.5t-20.5 -66.5t20.5 -67.5t63.5 -32.5q44 0 64 32.5z" />
    <glyph glyph-name="guilsinglleft" unicode="&#x2039;" horiz-adv-x="293" 
d="M40 248v4l130 190h73l-107 -192l107 -192h-73z" />
    <glyph glyph-name="guilsinglright" unicode="&#x203a;" horiz-adv-x="293" 
d="M157 250l-107 192h73l130 -190v-4l-130 -190h-73z" />
    <glyph glyph-name="fraction" unicode="&#x2044;" horiz-adv-x="120" 
d="M260 700h89l-493 -700h-89z" />
    <glyph glyph-name="uni2070" unicode="&#x2070;" horiz-adv-x="379" 
d="M112.5 527.5q-34.5 21.5 -54.5 58.5t-20 82q0 44 20 81t54.5 58.5t76.5 21.5q43 0 77.5 -21.5t54 -58t19.5 -81.5t-19.5 -82t-54 -58.5t-77.5 -21.5q-42 0 -76.5 21.5zM253 600.5q20 32.5 20 67.5t-20 66.5t-64 31.5q-43 0 -63.5 -31.5t-20.5 -66.5t20.5 -67.5
t63.5 -32.5q44 0 64 32.5z" />
    <glyph glyph-name="uni2074" unicode="&#x2074;" horiz-adv-x="321" 
d="M163 531.5q1 13.5 1 32.5v17h-82q-15 0 -51 -2v64l123 182h77q-2 -22 -2 -54v-128h60v-64q-36 2 -60 2v-17q0 -32 2 -54h-69q0 8 1 21.5zM164 643v98h-1l-68 -97v-1h69z" />
    <glyph glyph-name="uni2075" unicode="&#x2075;" horiz-adv-x="284" 
d="M69.5 516q-26.5 10 -42.5 24l44 52q12 -11 27.5 -17.5t30.5 -6.5q26 0 40.5 13.5t14.5 34.5q0 20 -14.5 32t-38.5 12q-26 0 -46.5 -8t-23.5 -9h-1v182h113q18 0 52 2v-66q-36 2 -52 2h-51v-47q10 2 17 2q46 0 76.5 -28t30.5 -74t-31 -78t-85 -32q-34 0 -60.5 10z" />
    <glyph glyph-name="uni2076" unicode="&#x2076;" horiz-adv-x="274" 
d="M68.5 533q-30.5 27 -30.5 75q0 33 9 55t29 58l59 104h75l-80 -118l1 -1q3 1 10 1q43 0 72 -28t29 -71q0 -46 -31 -74t-70 -28q-42 0 -72.5 27zM168 581q11 12 11 27q0 14 -11 25.5t-27 11.5q-18 0 -29 -11.5t-11 -25.5q0 -16 11 -27.5t29 -11.5q16 0 27 12z" />
    <glyph glyph-name="uni2077" unicode="&#x2077;" horiz-adv-x="276" 
d="M61 547l110 215v1h-87q-13 0 -51 -2v66q36 -2 51 -2h178l-130 -279l-14 -36h-77z" />
    <glyph glyph-name="uni2078" unicode="&#x2078;" horiz-adv-x="294" 
d="M70 535.5q-32 29.5 -32 77.5q0 54 40 81v1q-19 20 -19 50q0 37 25 60.5t63 23.5t63 -23.5t25 -60.5q0 -30 -19 -50v-1q40 -27 40 -81q0 -48 -32 -77.5t-77 -29.5t-77 29.5zM169 720.5q10 8.5 10 23.5t-10 23.5t-22 8.5t-22 -8.5t-10 -23.5t10 -23.5t22 -8.5t22 8.5z
M181.5 582.5q13.5 13.5 13.5 33.5q0 17 -14 30t-34 13t-34 -13t-14 -30q0 -20 13.5 -33.5t34.5 -13.5t34.5 13.5z" />
    <glyph glyph-name="uni2079" unicode="&#x2079;" horiz-adv-x="274" 
d="M144 628l-1 1q-3 -1 -10 -1q-43 0 -72 28t-29 71q0 46 31 74t70 28q42 0 72.5 -27t30.5 -75q0 -33 -9 -55t-29 -58l-59 -104h-75zM162 701.5q11 11.5 11 25.5q0 16 -11 27.5t-29 11.5q-16 0 -27 -12t-11 -27q0 -14 11 -25.5t27 -11.5q18 0 29 11.5z" />
    <glyph glyph-name="uni2080" unicode="&#x2080;" horiz-adv-x="379" 
d="M112.5 -107.5q-34.5 21.5 -54.5 58.5t-20 82q0 44 20 81t54.5 58.5t76.5 21.5q43 0 77.5 -21.5t54 -58t19.5 -81.5t-19.5 -82t-54 -58.5t-77.5 -21.5q-42 0 -76.5 21.5zM253 -34.5q20 32.5 20 67.5t-20 66.5t-64 31.5q-43 0 -63.5 -31.5t-20.5 -66.5t20.5 -67.5
t63.5 -32.5q44 0 64 32.5z" />
    <glyph glyph-name="uni2081" unicode="&#x2081;" horiz-adv-x="214" 
d="M91 -71v172h-1l-55 -55h-1v64l85 80h40q0 -3 -1 -16t-1 -38v-207q0 -32 2 -54h-70q2 22 2 54z" />
    <glyph glyph-name="uni2082" unicode="&#x2082;" horiz-adv-x="292" 
d="M197 -125h-162v1l79 107q34 46 49 72t15 45q0 14 -9 23t-28 9q-23 0 -49 -19t-48 -47h-1v89q17 15 45.5 27t57.5 12q43 0 69 -22.5t26 -67.5q0 -25 -13 -53t-38 -65l-33 -48v-1h40q22 0 55 3v-67q-36 2 -55 2z" />
    <glyph glyph-name="uni2083" unicode="&#x2083;" horiz-adv-x="296" 
d="M74 -118.5q-27 10.5 -42 23.5l39 53q17 -12 31 -18t34 -6q25 0 41 13.5t16 37.5q0 25 -17.5 38t-49.5 13h-48v1l61 90v1h-39q-16 0 -54 -2v66q38 -2 54 -2h152v-1l-70 -99q37 -11 55.5 -40.5t18.5 -64.5q0 -48 -32.5 -81t-89.5 -33q-33 0 -60 10.5z" />
    <glyph glyph-name="uni2084" unicode="&#x2084;" horiz-adv-x="321" 
d="M163 -103.5q1 13.5 1 32.5v17h-82q-15 0 -51 -2v64l123 182h77q-2 -22 -2 -54v-128h60v-64q-36 2 -60 2v-17q0 -32 2 -54h-69q0 8 1 21.5zM164 8v98h-1l-68 -97v-1h69z" />
    <glyph glyph-name="uni2085" unicode="&#x2085;" horiz-adv-x="284" 
d="M69.5 -119q-26.5 10 -42.5 24l44 52q12 -11 27.5 -17.5t30.5 -6.5q26 0 40.5 13.5t14.5 34.5q0 20 -14.5 32t-38.5 12q-26 0 -46.5 -8t-23.5 -9h-1v182h113q18 0 52 2v-66q-36 2 -52 2h-51v-47q10 2 17 2q46 0 76.5 -28t30.5 -74t-31 -78t-85 -32q-34 0 -60.5 10z" />
    <glyph glyph-name="uni2086" unicode="&#x2086;" horiz-adv-x="274" 
d="M68.5 -102q-30.5 27 -30.5 75q0 33 9 55t29 58l59 104h75l-80 -118l1 -1q3 1 10 1q43 0 72 -28t29 -71q0 -46 -31 -74t-70 -28q-42 0 -72.5 27zM168 -54q11 12 11 27q0 14 -11 25.5t-27 11.5q-18 0 -29 -11.5t-11 -25.5q0 -16 11 -27.5t29 -11.5q16 0 27 12z" />
    <glyph glyph-name="uni2087" unicode="&#x2087;" horiz-adv-x="276" 
d="M61 -88l110 215v1h-87q-13 0 -51 -2v66q36 -2 51 -2h178l-130 -279l-14 -36h-77z" />
    <glyph glyph-name="uni2088" unicode="&#x2088;" horiz-adv-x="294" 
d="M70 -99.5q-32 29.5 -32 77.5q0 54 40 81v1q-19 20 -19 50q0 37 25 60.5t63 23.5t63 -23.5t25 -60.5q0 -30 -19 -50v-1q40 -27 40 -81q0 -48 -32 -77.5t-77 -29.5t-77 29.5zM169 85.5q10 8.5 10 23.5t-10 23.5t-22 8.5t-22 -8.5t-10 -23.5t10 -23.5t22 -8.5t22 8.5z
M181.5 -52.5q13.5 13.5 13.5 33.5q0 17 -14 30t-34 13t-34 -13t-14 -30q0 -20 13.5 -33.5t34.5 -13.5t34.5 13.5z" />
    <glyph glyph-name="uni2089" unicode="&#x2089;" horiz-adv-x="274" 
d="M145 -7l-1 1q-4 -1 -11 -1q-43 0 -72 28t-29 71q0 46 31 74t70 28q42 0 72.5 -27t30.5 -75q0 -33 -9 -55t-29 -58l-59 -104h-75zM162 66.5q11 11.5 11 25.5q0 16 -11 27.5t-29 11.5q-16 0 -27 -12t-11 -27q0 -14 11 -25.5t27 -11.5q18 0 29 11.5z" />
    <glyph glyph-name="uni20A9" unicode="&#x20a9;" horiz-adv-x="858" 
d="M210 41l-43 197q-76 0 -114 -3v87q22 -2 97 -4l-18 80l-79 -3v87l61 -3l-36 167q-4 18 -10.5 32.5t-14.5 20.5v1h105q0 -9 8 -46l35 -176h135l45 222h96l45 -222h135l35 176q8 37 8 46h105v-1q-8 -6 -14.5 -20.5t-10.5 -32.5l-37 -167q39 0 62 3v-87l-79 3l-18 -80
q68 0 97 4v-87q-39 3 -114 3l-43 -197q-3 -15 -7 -41h-103q0 21 -4 41l-40 197h-130l-40 -197q-4 -20 -4 -41h-103q-4 26 -7 41zM444 478l-15 76h-1l-14 -76h30zM303 318l16 80h-103l16 -80h71zM477 318l-16 80h-64l-16 -80h96zM626 318l16 80h-103l16 -80h71zM267 142
l19 96h-38l18 -96h1zM592 142l18 96h-38l19 -96h1z" />
    <glyph glyph-name="Euro" unicode="&#x20ac;" horiz-adv-x="654" 
d="M305 21.5q-65 29.5 -112 84.5t-68 131q-68 -2 -89 -4v87l75 -3q-1 11 -1 34t1 34l-75 -3v87q21 -2 89 -4q21 76 68 131t112 84.5t140 29.5q50 0 94 -12.5t65 -30.5v-103h-2q-61 66 -157 66q-80 0 -139.5 -44t-85.5 -121h158q82 0 117 4v-87q-39 3 -117 3h-175
q-1 -11 -1 -34t1 -34h175q78 0 117 3v-87q-52 4 -117 4h-158q26 -77 85.5 -121t139.5 -44q96 0 157 66h2v-103q-21 -18 -65 -30.5t-94 -12.5q-75 0 -140 29.5z" />
    <glyph glyph-name="uni20B9" unicode="&#x20b9;" horiz-adv-x="510" 
d="M267 118l-67 103q-40 61 -121 61h-2q-8 0 -28 -2v83q27 -3 62 -3h9q61 0 102.5 26t53.5 73h-111q-66 0 -116 -4v85q37 -3 116 -3h110q-12 37 -45 60.5t-85 24.5q-75 -2 -96 -4v85q37 -3 116 -3h184q78 0 117 3v-85q-52 4 -117 4h-17v-1q28 -38 37 -84q64 0 97 3v-85
q-23 2 -97 4q-12 -59 -53 -102t-88 -52v-1q20 -7 37 -25.5t37 -48.5l81 -129q18 -30 42 -61t30 -39v-1h-120q-30 59 -68 118z" />
    <glyph glyph-name="trademark" unicode="&#x2122;" horiz-adv-x="707" 
d="M117 440l1 38v158h-28q-18 0 -56 -2v66h237v-66q-38 2 -56 2h-28v-158q0 -19 3 -58h-74q0 12 1 20zM313 485v151q0 32 -2 64h100l63 -190h1l60 190h103q-2 -28 -2 -64v-151q0 -35 2 -65h-72q0 4 1 20.5t1 44.5v114h-1l-58 -179h-69l-58 175h-1v-110q0 -20 3 -65h-73
q2 42 2 65z" />
    <glyph glyph-name="uni2126" unicode="&#x2126;" horiz-adv-x="812" 
d="M55 87l30 -1q33 -3 83 -3h51v1q-43 21 -81 63t-61 101t-23 129q0 96 46 172t126.5 118.5t179.5 42.5t179.5 -42.5t126.5 -118.5t46 -172q0 -70 -23 -129t-61 -101t-81 -63v-1h51q50 0 83 3l30 1l-3 -87h-286v82q53 21 97.5 63t70.5 98.5t26 118.5q0 76 -33.5 134.5
t-92 90.5t-130.5 32t-130.5 -32t-92 -90.5t-33.5 -134.5q0 -62 26 -118.5t70.5 -98.5t97.5 -63v-82h-286z" />
    <glyph glyph-name="uni2150" unicode="&#x2150;" horiz-adv-x="653" 
d="M171 444v172h-1l-55 -55h-1v64l85 80h40q0 -3 -1 -16t-1 -38v-207q0 -32 2 -54h-70q2 22 2 54zM518 700h89l-493 -700h-89zM406 37l110 215v1h-87q-13 0 -51 -2v66q36 -2 51 -2h178l-130 -279l-14 -36h-77z" />
    <glyph glyph-name="uni2151" unicode="&#x2151;" horiz-adv-x="655" 
d="M171 444v172h-1l-55 -55h-1v64l85 80h40q0 -3 -1 -16t-1 -38v-207q0 -32 2 -54h-70q2 22 2 54zM518 700h89l-493 -700h-89zM504 118l-1 1q-3 -1 -10 -1q-43 0 -72 28t-29 71q0 46 31 74t70 28q42 0 72.5 -27t30.5 -75q0 -33 -9 -55t-29 -58l-59 -104h-75zM522 191.5
q11 11.5 11 25.5q0 16 -11 27.5t-29 11.5q-16 0 -27 -12t-11 -27q0 -14 11 -25.5t27 -11.5q18 0 29 11.5z" />
    <glyph glyph-name="onethird" unicode="&#x2153;" horiz-adv-x="669" 
d="M171 444v172h-1l-55 -55h-1v64l85 80h40q0 -3 -1 -16t-1 -38v-207q0 -32 2 -54h-70q2 22 2 54zM518 700h89l-493 -700h-89zM425 6.5q-27 10.5 -42 23.5l39 53q17 -12 31 -18t34 -6q25 0 41 13.5t16 37.5q0 25 -17.5 38t-49.5 13h-48v1l61 90v1h-39q-16 0 -54 -2v66
q38 -2 54 -2h152v-1l-70 -99q37 -11 55.5 -40.5t18.5 -64.5q0 -48 -32.5 -81t-89.5 -33q-33 0 -60 10.5z" />
    <glyph glyph-name="twothirds" unicode="&#x2154;" horiz-adv-x="680" 
d="M206 390h-162v1l79 107q34 46 49 72t15 45q0 14 -9 23t-28 9q-23 0 -49 -19t-48 -47h-1v89q17 15 45.5 27t57.5 12q43 0 69 -22.5t26 -67.5q0 -25 -13 -53t-38 -65l-33 -48v-1h40q22 0 55 3v-67q-36 2 -55 2zM544 700h89l-493 -700h-89zM451 6.5q-27 10.5 -42 23.5l39 53
q17 -12 31 -18t34 -6q25 0 41 13.5t16 37.5q0 25 -17.5 38t-49.5 13h-48v1l61 90v1h-39q-16 0 -54 -2v66q38 -2 54 -2h152v-1l-70 -99q37 -11 55.5 -40.5t18.5 -64.5q0 -48 -32.5 -81t-89.5 -33q-33 0 -60 10.5z" />
    <glyph glyph-name="uni2155" unicode="&#x2155;" horiz-adv-x="659" 
d="M171 444v172h-1l-55 -55h-1v64l85 80h40q0 -3 -1 -16t-1 -38v-207q0 -32 2 -54h-70q2 22 2 54zM518 700h89l-493 -700h-89zM419.5 6q-26.5 10 -42.5 24l44 52q12 -11 27.5 -17.5t30.5 -6.5q26 0 40.5 13.5t14.5 34.5q0 20 -14.5 32t-38.5 12q-26 0 -46.5 -8t-23.5 -9h-1
v182h113q18 0 52 2v-66q-36 2 -52 2h-51v-47q10 2 17 2q46 0 76.5 -28t30.5 -74t-31 -78t-85 -32q-34 0 -60.5 10z" />
    <glyph glyph-name="uni2156" unicode="&#x2156;" horiz-adv-x="670" 
d="M206 390h-162v1l79 107q34 46 49 72t15 45q0 14 -9 23t-28 9q-23 0 -49 -19t-48 -47h-1v89q17 15 45.5 27t57.5 12q43 0 69 -22.5t26 -67.5q0 -25 -13 -53t-38 -65l-33 -48v-1h40q22 0 55 3v-67q-36 2 -55 2zM544 700h89l-493 -700h-89zM445.5 6q-26.5 10 -42.5 24l44 52
q12 -11 27.5 -17.5t30.5 -6.5q26 0 40.5 13.5t14.5 34.5q0 20 -14.5 32t-38.5 12q-26 0 -46.5 -8t-23.5 -9h-1v182h113q18 0 52 2v-66q-36 2 -52 2h-51v-47q10 2 17 2q46 0 76.5 -28t30.5 -74t-31 -78t-85 -32q-34 0 -60.5 10z" />
    <glyph glyph-name="uni2157" unicode="&#x2157;" horiz-adv-x="660" 
d="M82 396.5q-27 10.5 -42 23.5l39 53q17 -12 31 -18t34 -6q25 0 41 13.5t16 37.5q0 25 -17.5 38t-49.5 13h-48v1l61 90v1h-39q-16 0 -54 -2v66q38 -2 54 -2h152v-1l-70 -99q37 -11 55.5 -40.5t18.5 -64.5q0 -48 -32.5 -81t-89.5 -33q-33 0 -60 10.5zM534 700h89l-493 -700
h-89zM435.5 6q-26.5 10 -42.5 24l44 52q12 -11 27.5 -17.5t30.5 -6.5q26 0 40.5 13.5t14.5 34.5q0 20 -14.5 32t-38.5 12q-26 0 -46.5 -8t-23.5 -9h-1v182h113q18 0 52 2v-66q-36 2 -52 2h-51v-47q10 2 17 2q46 0 76.5 -28t30.5 -74t-31 -78t-85 -32q-34 0 -60.5 10z" />
    <glyph glyph-name="uni2158" unicode="&#x2158;" horiz-adv-x="680" 
d="M164 411.5q1 13.5 1 32.5v17h-82q-15 0 -51 -2v64l123 182h77q-2 -22 -2 -54v-128h60v-64q-36 2 -60 2v-17q0 -32 2 -54h-69q0 8 1 21.5zM165 523v98h-1l-68 -97v-1h69zM552 700h89l-493 -700h-89zM453.5 6q-26.5 10 -42.5 24l44 52q12 -11 27.5 -17.5t30.5 -6.5
q26 0 40.5 13.5t14.5 34.5q0 20 -14.5 32t-38.5 12q-26 0 -46.5 -8t-23.5 -9h-1v182h113q18 0 52 2v-66q-36 2 -52 2h-51v-47q10 2 17 2q46 0 76.5 -28t30.5 -74t-31 -78t-85 -32q-34 0 -60.5 10z" />
    <glyph glyph-name="uni2159" unicode="&#x2159;" horiz-adv-x="655" 
d="M171 444v172h-1l-55 -55h-1v64l85 80h40q0 -3 -1 -16t-1 -38v-207q0 -32 2 -54h-70q2 22 2 54zM518 700h89l-493 -700h-89zM421.5 23q-30.5 27 -30.5 75q0 33 9 55t29 58l59 104h75l-80 -118l1 -1q3 1 10 1q43 0 72 -28t29 -71q0 -46 -31 -74t-70 -28q-42 0 -72.5 27z
M521 71q11 12 11 27q0 14 -11 25.5t-27 11.5q-18 0 -29 -11.5t-11 -25.5q0 -16 11 -27.5t29 -11.5q16 0 27 12z" />
    <glyph glyph-name="uni215A" unicode="&#x215a;" horiz-adv-x="649" 
d="M85.5 396q-26.5 10 -42.5 24l44 52q12 -11 27.5 -17.5t30.5 -6.5q26 0 40.5 13.5t14.5 34.5q0 20 -14.5 32t-38.5 12q-26 0 -46.5 -8t-23.5 -9h-1v182h113q18 0 52 2v-66q-36 2 -52 2h-51v-47q10 2 17 2q46 0 76.5 -28t30.5 -74t-31 -78t-85 -32q-34 0 -60.5 10zM526 700
h89l-493 -700h-89zM429.5 23q-30.5 27 -30.5 75q0 33 9 55t29 58l59 104h75l-80 -118l1 -1q3 1 10 1q43 0 72 -28t29 -71q0 -46 -31 -74t-70 -28q-42 0 -72.5 27zM529 71q11 12 11 27q0 14 -11 25.5t-27 11.5q-18 0 -29 -11.5t-11 -25.5q0 -16 11 -27.5t29 -11.5q16 0 27 12
z" />
    <glyph glyph-name="oneeighth" unicode="&#x215b;" horiz-adv-x="662" 
d="M171 444v172h-1l-55 -55h-1v64l85 80h40q0 -3 -1 -16t-1 -38v-207q0 -32 2 -54h-70q2 22 2 54zM518 700h89l-493 -700h-89zM416 25.5q-32 29.5 -32 77.5q0 54 40 81v1q-19 20 -19 50q0 37 25 60.5t63 23.5t63 -23.5t25 -60.5q0 -30 -19 -50v-1q40 -27 40 -81
q0 -48 -32 -77.5t-77 -29.5t-77 29.5zM515 210.5q10 8.5 10 23.5t-10 23.5t-22 8.5t-22 -8.5t-10 -23.5t10 -23.5t22 -8.5t22 8.5zM527.5 72.5q13.5 13.5 13.5 33.5q0 17 -14 30t-34 13t-34 -13t-14 -30q0 -20 13.5 -33.5t34.5 -13.5t34.5 13.5z" />
    <glyph glyph-name="threeeighths" unicode="&#x215c;" horiz-adv-x="663" 
d="M82 396.5q-27 10.5 -42 23.5l39 53q17 -12 31 -18t34 -6q25 0 41 13.5t16 37.5q0 25 -17.5 38t-49.5 13h-48v1l61 90v1h-39q-16 0 -54 -2v66q38 -2 54 -2h152v-1l-70 -99q37 -11 55.5 -40.5t18.5 -64.5q0 -48 -32.5 -81t-89.5 -33q-33 0 -60 10.5zM534 700h89l-493 -700
h-89zM432 25.5q-32 29.5 -32 77.5q0 54 40 81v1q-19 20 -19 50q0 37 25 60.5t63 23.5t63 -23.5t25 -60.5q0 -30 -19 -50v-1q40 -27 40 -81q0 -48 -32 -77.5t-77 -29.5t-77 29.5zM531 210.5q10 8.5 10 23.5t-10 23.5t-22 8.5t-22 -8.5t-10 -23.5t10 -23.5t22 -8.5t22 8.5z
M543.5 72.5q13.5 13.5 13.5 33.5q0 17 -14 30t-34 13t-34 -13t-14 -30q0 -20 13.5 -33.5t34.5 -13.5t34.5 13.5z" />
    <glyph glyph-name="fiveeighths" unicode="&#x215d;" horiz-adv-x="656" 
d="M85.5 396q-26.5 10 -42.5 24l44 52q12 -11 27.5 -17.5t30.5 -6.5q26 0 40.5 13.5t14.5 34.5q0 20 -14.5 32t-38.5 12q-26 0 -46.5 -8t-23.5 -9h-1v182h113q18 0 52 2v-66q-36 2 -52 2h-51v-47q10 2 17 2q46 0 76.5 -28t30.5 -74t-31 -78t-85 -32q-34 0 -60.5 10zM526 700
h89l-493 -700h-89zM424 25.5q-32 29.5 -32 77.5q0 54 40 81v1q-19 20 -19 50q0 37 25 60.5t63 23.5t63 -23.5t25 -60.5q0 -30 -19 -50v-1q40 -27 40 -81q0 -48 -32 -77.5t-77 -29.5t-77 29.5zM523 210.5q10 8.5 10 23.5t-10 23.5t-22 8.5t-22 -8.5t-10 -23.5t10 -23.5
t22 -8.5t22 8.5zM535.5 72.5q13.5 13.5 13.5 33.5q0 17 -14 30t-34 13t-34 -13t-14 -30q0 -20 13.5 -33.5t34.5 -13.5t34.5 13.5z" />
    <glyph glyph-name="seveneighths" unicode="&#x215e;" horiz-adv-x="662" 
d="M73 427l110 215v1h-87q-13 0 -51 -2v66q36 -2 51 -2h178l-130 -279l-14 -36h-77zM533 700h89l-493 -700h-89zM431 25.5q-32 29.5 -32 77.5q0 54 40 81v1q-19 20 -19 50q0 37 25 60.5t63 23.5t63 -23.5t25 -60.5q0 -30 -19 -50v-1q40 -27 40 -81q0 -48 -32 -77.5
t-77 -29.5t-77 29.5zM530 210.5q10 8.5 10 23.5t-10 23.5t-22 8.5t-22 -8.5t-10 -23.5t10 -23.5t22 -8.5t22 8.5zM542.5 72.5q13.5 13.5 13.5 33.5q0 17 -14 30t-34 13t-34 -13t-14 -30q0 -20 13.5 -33.5t34.5 -13.5t34.5 13.5z" />
    <glyph glyph-name="partialdiff" unicode="&#x2202;" horiz-adv-x="542" 
d="M139 23.5q-52 31.5 -80.5 88t-28.5 128.5t28.5 128.5t78 88t111.5 31.5q86 0 143 -47l1 1q-19 103 -82 159t-192 76l17 79q197 -27 278 -145.5t81 -305.5q0 -93 -28.5 -164t-81.5 -110t-126 -39q-67 0 -119 31.5zM365 134q37 62 37 171q0 25 -1 36q-35 33 -71 50t-77 17
q-60 0 -95.5 -46.5t-35.5 -121.5t36.5 -121.5t99.5 -46.5q70 0 107 62z" />
    <glyph glyph-name="emptyset" unicode="&#x2205;" horiz-adv-x="612" 
d="M156 40l-33 -39l-63 65q22 19 37 33q-24 32 -36.5 70.5t-12.5 80.5q0 70 35 129t94 94t129 35q85 0 152 -50l33 40l61 -66l-37 -32q49 -66 49 -150q0 -70 -35 -129t-94 -94t-129 -35q-81 0 -150 48zM395 393q-40 27 -89 27q-45 0 -83 -23t-60.5 -62t-22.5 -85
q0 -49 23 -87zM389 103q38 23 60.5 62t22.5 85q0 48 -23 86l-230 -231q39 -25 87 -25q45 0 83 23z" />
    <glyph glyph-name="uni2206" unicode="&#x2206;" horiz-adv-x="652" 
d="M29 83l234 570q12 27 17 47h79q5 -17 17 -47l248 -570v-83h-595v83zM526 83v1l-209 483h-1l-193 -483v-1h403z" />
    <glyph glyph-name="product" unicode="&#x220f;" horiz-adv-x="666" 
d="M127 118v499l-94 -4v87h600v-87l-94 4v-499q0 -50 5 -118h-105q4 54 4 118v499h-220v-499q0 -50 5 -118h-105q4 54 4 118z" />
    <glyph glyph-name="summation" unicode="&#x2211;" horiz-adv-x="517" 
d="M51 77l172 273l-172 273v77h425l3 -86q-16 0 -46 2q-46 2 -67 2h-208v-1l165 -262v-10l-165 -262v-1h208q21 0 67 2q30 2 46 2l-3 -86h-425v77z" />
    <glyph glyph-name="minus" unicode="&#x2212;" horiz-adv-x="545" 
d="M59 298q73 -5 137 -5h152q64 0 137 5v-82q-73 5 -137 5h-152q-65 0 -137 -5v82z" />
    <glyph glyph-name="uni2219" unicode="&#x2219;" horiz-adv-x="545" 
d="M231 222q-16 16 -16 40q0 25 16 41t41 16t41.5 -16t16.5 -41q0 -24 -16.5 -40t-41.5 -16t-41 16z" />
    <glyph glyph-name="radical" unicode="&#x221a;" horiz-adv-x="585" 
d="M174 41l-136 405q-13 38 -28 53v1h109q-2 -13 8 -46l101 -335h1l161 581h197v-80q-52 4 -117 4h-13l-175 -583q-10 -32 -12 -41h-84q-4 17 -12 41z" />
    <glyph glyph-name="infinity" unicode="&#x221e;" horiz-adv-x="577" 
d="M88 184q-31 29 -31 75t31 75t83 29q35 0 63 -14.5t55 -41.5q26 27 54 41.5t63 14.5q52 0 83 -29t31 -75t-31 -75t-83 -29q-35 0 -63 14.5t-55 41.5q-26 -27 -54 -41.5t-63 -14.5q-52 0 -83 29zM250 259q-40 44 -77 44q-23 0 -35.5 -12t-12.5 -32t12.5 -32t35.5 -12
q37 0 77 44zM439.5 227q12.5 12 12.5 32t-12.5 32t-35.5 12q-37 0 -77 -44q40 -44 77 -44q23 0 35.5 12z" />
    <glyph glyph-name="integral" unicode="&#x222b;" horiz-adv-x="526" 
d="M-10 -192v90h1q17 -13 34.5 -18.5t40.5 -5.5q38 0 60.5 25.5t30.5 67.5l128 648q13 63 58 103t115 40q48 0 80 -14v-90h-1q-17 13 -34.5 18.5t-40.5 5.5q-38 0 -60.5 -25.5t-30.5 -67.5l-128 -648q-13 -63 -58 -103t-115 -40q-49 0 -80 14z" />
    <glyph glyph-name="approxequal" unicode="&#x2248;" horiz-adv-x="545" 
d="M324 281.5q-18 6.5 -43 20.5l-23 13q-26 15 -41.5 21.5t-33.5 6.5q-23 0 -36.5 -17.5t-15.5 -40.5h-80q10 60 42.5 94t87.5 34q22 0 41 -6.5t42 -19.5l23 -13q30 -17 43.5 -23t30.5 -6q24 0 37.5 18t14.5 40h81q-10 -60 -43 -94t-87 -34q-22 0 -40 6.5zM324 107.5
q-18 6.5 -43 20.5l-23 13q-26 15 -41.5 21.5t-33.5 6.5q-23 0 -36.5 -17.5t-15.5 -40.5h-80q10 60 42.5 94t87.5 34q22 0 41 -6.5t42 -19.5l23 -13q30 -17 43.5 -23t30.5 -6q24 0 37.5 18t14.5 40h81q-10 -60 -43 -94t-87 -34q-22 0 -40 6.5z" />
    <glyph glyph-name="notequal" unicode="&#x2260;" horiz-adv-x="545" 
d="M197 133q-64 0 -137 -5v82q73 -5 137 -5h35l50 104h-85q-65 0 -137 -5v82q72 -5 137 -5h120l38 79h82l-38 -78q16 0 87 4v-82q-44 3 -122 5l-50 -104h35q65 0 137 5v-82q-72 5 -137 5h-70l-38 -78h-82z" />
    <glyph glyph-name="lessequal" unicode="&#x2264;" horiz-adv-x="545" 
d="M61 260q20 0 48 6l272 60v2l-272 60q-28 6 -48 6v87h1q21 -14 69 -26l323 -81q23 -6 33 -7v-80q-10 -1 -33 -7l-323 -81q-48 -12 -69 -26h-1v87zM61 134q75 -5 137 -5h152q64 0 137 5v-81q-73 5 -137 5h-152q-62 0 -137 -5v81z" />
    <glyph glyph-name="greaterequal" unicode="&#x2265;" horiz-adv-x="545" 
d="M414 199l-323 81q-23 6 -33 7v80q10 1 33 7l323 81q48 12 69 26h1v-87q-20 0 -48 -6l-272 -60v-2l272 -60q28 -6 48 -6v-87h-1q-21 14 -69 26zM58 134q73 -5 137 -5h152q62 0 137 5v-81q-75 5 -137 5h-152q-64 0 -137 -5v81z" />
    <glyph glyph-name="lozenge" unicode="&#x25ca;" horiz-adv-x="494" 
d="M190 47l-158 303l158 303q13 25 19 47h76q6 -23 19 -47l158 -303l-158 -303q-13 -24 -19 -47h-76q-6 22 -19 47zM370 350l-123 237h-1l-122 -237l122 -237h1z" />
    <glyph glyph-name="uniF8FF" unicode="&#xf8ff;" horiz-adv-x="798" 
d="M378 821l18 172l1 1h5l1 -1l17 -172l-1 -1h-40zM301 810l-29 154l1 1l5 1l1 -1l64 -146l-1 -1l-40 -9zM456 818l-1 1l64 146l1 1l5 -1l1 -1l-29 -154l-1 -1zM382 757q-7 7 -7 17t7 16.5t17 6.5q9 0 16 -6.5t7 -16.5t-7 -17t-16 -7q-10 0 -17 7zM315 750q-7 7 -7 17
t7 16.5t17 6.5q9 0 16 -6.5t7 -16.5t-7 -17t-16 -7q-10 0 -17 7zM449 750q-7 7 -7 17t7 16.5t17 6.5q9 0 16 -6.5t7 -16.5t-7 -17t-16 -7q-10 0 -17 7zM217 39q-82 47 -129.5 129.5t-47.5 182.5t47.5 182t129.5 129.5t182 47.5t182.5 -47.5t129.5 -129.5t47 -182
q0 -101 -47 -183t-129 -129t-183 -47q-100 0 -182 47zM517 139q53 32 83.5 88t30.5 124t-30.5 124t-83.5 88t-118 32q-64 0 -117 -32t-83.5 -88t-30.5 -124t30.5 -124t83.5 -88t117 -32q65 0 118 32z" />
    <glyph glyph-name="uniFB01" unicode="&#xfb01;" horiz-adv-x="624" 
d="M114 119v304h-5q-25 0 -51.5 -2t-35.5 -2v84q60 -3 85 -3h7v56q0 101 48 151.5t135 50.5q63 0 112 -29v-90h-1q-26 20 -52 29.5t-56 9.5q-44 0 -69 -31t-25 -92v-55h352q-4 -52 -4 -119v-262q0 -65 4 -119h-100l1 25q3 81 3 94v262q0 29 -1 42h-255v-304q0 -65 4 -119
h-101q5 68 5 119zM470 600.5q-15 14.5 -15 37.5q0 24 15 39t38 15t38 -15t15 -39q0 -23 -15 -37.5t-38 -14.5t-38 14.5z" />
    <glyph glyph-name="uniFB02" unicode="&#xfb02;" horiz-adv-x="621" 
d="M114 119v304h-5q-25 0 -51.5 -2t-35.5 -2v84q57 -3 85 -3h7v56q0 101 48 151.5t135 50.5q63 0 112 -29v-90h-1q-26 20 -52 29.5t-56 9.5q-44 0 -69 -31t-25 -92v-55h253v132q0 67 -4 119h100q-4 -52 -4 -119v-513q0 -65 4 -119h-100q4 54 4 119v304h-253v-304
q0 -65 4 -119h-101q5 68 5 119z" />
    <glyph glyph-name="uniFEFF" unicode="&#xfeff;" 
 />
    <glyph glyph-name="i.aalt" horiz-adv-x="232" 
d="M67 25q3 81 3 94v262q0 18 -3 96l-1 23h100q-4 -52 -4 -119v-262q0 -65 4 -119h-100zM78 600.5q-15 14.5 -15 37.5q0 24 15 39t38 15t38 -15t15 -39q0 -23 -15 -37.5t-38 -14.5t-38 14.5z" />
    <glyph glyph-name="glyph431" horiz-adv-x="232" 
d="M67 25q3 81 3 94v262q0 18 -3 96l-1 23h100q-4 -52 -4 -119v-262q0 -65 4 -119h-100zM78 600.5q-15 14.5 -15 37.5q0 24 15 39t38 15t38 -15t15 -39q0 -23 -15 -37.5t-38 -14.5t-38 14.5z" />
    <glyph glyph-name="glyph432" horiz-adv-x="546" 
d="M83 119v462q0 67 -4 119h104q-4 -52 -4 -119v-460q0 -26 1 -38h247q31 0 58 2t35 3l-2 -88h-439q4 54 4 119zM373 317q-16 16 -16 40q0 25 16 41t41 16t41.5 -16t16.5 -41q0 -24 -16.5 -40t-41.5 -16t-41 16z" />
    <glyph glyph-name="glyph433" horiz-adv-x="339" 
d="M70 119v513q0 67 -4 119h100q-4 -52 -4 -119v-513q0 -65 4 -119h-100q4 54 4 119zM250 257q-16 16 -16 40q0 25 16 41t41 16t41.5 -16t16.5 -41q0 -24 -16.5 -40t-41.5 -16t-41 16z" />
    <glyph glyph-name="zero.numr" horiz-adv-x="379" 
d="M112.5 407.5q-34.5 21.5 -54.5 58.5t-20 82q0 44 20 81t54.5 58.5t76.5 21.5q43 0 77.5 -21.5t54 -58t19.5 -81.5t-19.5 -82t-54 -58.5t-77.5 -21.5q-42 0 -76.5 21.5zM253 480.5q20 32.5 20 67.5t-20 66.5t-64 31.5q-43 0 -63.5 -31.5t-20.5 -66.5t20.5 -67.5
t63.5 -32.5q44 0 64 32.5z" />
    <glyph glyph-name="one.numr" horiz-adv-x="214" 
d="M91 444v172h-1l-55 -55h-1v64l85 80h40q0 -3 -1 -16t-1 -38v-207q0 -32 2 -54h-70q2 22 2 54z" />
    <glyph glyph-name="two.numr" horiz-adv-x="292" 
d="M197 390h-162v1l79 107q34 46 49 72t15 45q0 14 -9 23t-28 9q-23 0 -49 -19t-48 -47h-1v89q17 15 45.5 27t57.5 12q43 0 69 -22.5t26 -67.5q0 -25 -13 -53t-38 -65l-33 -48v-1h40q22 0 55 3v-67q-36 2 -55 2z" />
    <glyph glyph-name="three.numr" horiz-adv-x="296" 
d="M73 396.5q-27 10.5 -42 23.5l39 53q17 -12 31 -18t34 -6q25 0 41 13.5t16 37.5q0 25 -17.5 38t-49.5 13h-48v1l61 90v1h-39q-16 0 -54 -2v66q38 -2 54 -2h152v-1l-70 -99q37 -11 55.5 -40.5t18.5 -64.5q0 -48 -32.5 -81t-89.5 -33q-33 0 -60 10.5z" />
    <glyph glyph-name="four.numr" horiz-adv-x="321" 
d="M163 411.5q1 13.5 1 32.5v17h-82q-15 0 -51 -2v64l123 182h77q-2 -22 -2 -54v-128h60v-64q-36 2 -60 2v-17q0 -32 2 -54h-69q0 8 1 21.5zM164 523v98h-1l-68 -97v-1h69z" />
    <glyph glyph-name="five.numr" horiz-adv-x="284" 
d="M69.5 396q-26.5 10 -42.5 24l44 52q12 -11 27.5 -17.5t30.5 -6.5q26 0 40.5 13.5t14.5 34.5q0 20 -14.5 32t-38.5 12q-26 0 -46.5 -8t-23.5 -9h-1v182h113q18 0 52 2v-66q-36 2 -52 2h-51v-47q10 2 17 2q46 0 76.5 -28t30.5 -74t-31 -78t-85 -32q-34 0 -60.5 10z" />
    <glyph glyph-name="six.numr" horiz-adv-x="274" 
d="M68.5 413q-30.5 27 -30.5 75q0 33 9 55t29 58l59 104h75l-80 -118l1 -1q3 1 10 1q43 0 72 -28t29 -71q0 -46 -31 -74t-70 -28q-42 0 -72.5 27zM168 461q11 12 11 27q0 14 -11 25.5t-27 11.5q-18 0 -29 -11.5t-11 -25.5q0 -16 11 -27.5t29 -11.5q16 0 27 12z" />
    <glyph glyph-name="seven.numr" horiz-adv-x="276" 
d="M61 427l110 215v1h-87q-13 0 -51 -2v66q36 -2 51 -2h178l-130 -279l-14 -36h-77z" />
    <glyph glyph-name="eight.numr" horiz-adv-x="294" 
d="M70 415.5q-32 29.5 -32 77.5q0 54 40 81v1q-19 20 -19 50q0 37 25 60.5t63 23.5t63 -23.5t25 -60.5q0 -30 -19 -50v-1q40 -27 40 -81q0 -48 -32 -77.5t-77 -29.5t-77 29.5zM169 600.5q10 8.5 10 23.5t-10 23.5t-22 8.5t-22 -8.5t-10 -23.5t10 -23.5t22 -8.5t22 8.5z
M181.5 462.5q13.5 13.5 13.5 33.5q0 17 -14 30t-34 13t-34 -13t-14 -30q0 -20 13.5 -33.5t34.5 -13.5t34.5 13.5z" />
    <glyph glyph-name="nine.numr" horiz-adv-x="274" 
d="M144 508l-1 1q-3 -1 -10 -1q-43 0 -72 28t-29 71q0 46 31 74t70 28q42 0 72.5 -27t30.5 -75q0 -33 -9 -55t-29 -58l-59 -104h-75zM162 581.5q11 11.5 11 25.5q0 16 -11 27.5t-29 11.5q-16 0 -27 -12t-11 -27q0 -14 11 -25.5t27 -11.5q18 0 29 11.5z" />
    <glyph glyph-name="zero.dnom" horiz-adv-x="379" 
d="M112.5 17.5q-34.5 21.5 -54.5 58.5t-20 82q0 44 20 81t54.5 58.5t76.5 21.5q43 0 77.5 -21.5t54 -58t19.5 -81.5t-19.5 -82t-54 -58.5t-77.5 -21.5q-42 0 -76.5 21.5zM253 90.5q20 32.5 20 67.5t-20 66.5t-64 31.5q-43 0 -63.5 -31.5t-20.5 -66.5t20.5 -67.5t63.5 -32.5
q44 0 64 32.5z" />
    <glyph glyph-name="one.dnom" horiz-adv-x="214" 
d="M91 54v172h-1l-55 -55h-1v64l85 80h40q0 -3 -1 -16t-1 -38v-207q0 -32 2 -54h-70q2 22 2 54z" />
    <glyph glyph-name="two.dnom" horiz-adv-x="292" 
d="M197 0h-162v1l79 107q34 46 49 72t15 45q0 14 -9 23t-28 9q-23 0 -49 -19t-48 -47h-1v89q17 15 45.5 27t57.5 12q43 0 69 -22.5t26 -67.5q0 -25 -13 -53t-38 -65l-33 -48v-1h40q22 0 55 3v-67q-36 2 -55 2z" />
    <glyph glyph-name="three.dnom" horiz-adv-x="296" 
d="M74 6.5q-27 10.5 -42 23.5l39 53q17 -12 31 -18t34 -6q25 0 41 13.5t16 37.5q0 25 -17.5 38t-49.5 13h-48v1l61 90v1h-39q-16 0 -54 -2v66q38 -2 54 -2h152v-1l-70 -99q37 -11 55.5 -40.5t18.5 -64.5q0 -48 -32.5 -81t-89.5 -33q-33 0 -60 10.5z" />
    <glyph glyph-name="four.dnom" horiz-adv-x="321" 
d="M163 21.5q1 13.5 1 32.5v17h-82q-15 0 -51 -2v64l123 182h77q-2 -22 -2 -54v-128h60v-64q-36 2 -60 2v-17q0 -32 2 -54h-69q0 8 1 21.5zM164 133v98h-1l-68 -97v-1h69z" />
    <glyph glyph-name="five.dnom" horiz-adv-x="284" 
d="M69.5 6q-26.5 10 -42.5 24l44 52q12 -11 27.5 -17.5t30.5 -6.5q26 0 40.5 13.5t14.5 34.5q0 20 -14.5 32t-38.5 12q-26 0 -46.5 -8t-23.5 -9h-1v182h113q18 0 52 2v-66q-36 2 -52 2h-51v-47q10 2 17 2q46 0 76.5 -28t30.5 -74t-31 -78t-85 -32q-34 0 -60.5 10z" />
    <glyph glyph-name="six.dnom" horiz-adv-x="274" 
d="M68.5 23q-30.5 27 -30.5 75q0 33 9 55t29 58l59 104h75l-80 -118l1 -1q3 1 10 1q43 0 72 -28t29 -71q0 -46 -31 -74t-70 -28q-42 0 -72.5 27zM168 71q11 12 11 27q0 14 -11 25.5t-27 11.5q-18 0 -29 -11.5t-11 -25.5q0 -16 11 -27.5t29 -11.5q16 0 27 12z" />
    <glyph glyph-name="seven.dnom" horiz-adv-x="276" 
d="M62 37l110 215v1h-87q-13 0 -51 -2v66q36 -2 51 -2h178l-130 -279l-14 -36h-77z" />
    <glyph glyph-name="eight.dnom" horiz-adv-x="294" 
d="M70 25.5q-32 29.5 -32 77.5q0 54 40 81v1q-19 20 -19 50q0 37 25 60.5t63 23.5t63 -23.5t25 -60.5q0 -30 -19 -50v-1q40 -27 40 -81q0 -48 -32 -77.5t-77 -29.5t-77 29.5zM169 210.5q10 8.5 10 23.5t-10 23.5t-22 8.5t-22 -8.5t-10 -23.5t10 -23.5t22 -8.5t22 8.5z
M181.5 72.5q13.5 13.5 13.5 33.5q0 17 -14 30t-34 13t-34 -13t-14 -30q0 -20 13.5 -33.5t34.5 -13.5t34.5 13.5z" />
    <glyph glyph-name="nine.dnom" horiz-adv-x="274" 
d="M144 118l-1 1q-3 -1 -10 -1q-43 0 -72 28t-29 71q0 46 31 74t70 28q42 0 72.5 -27t30.5 -75q0 -33 -9 -55t-29 -58l-59 -104h-75zM162 191.5q11 11.5 11 25.5q0 16 -11 27.5t-29 11.5q-16 0 -27 -12t-11 -27q0 -14 11 -25.5t27 -11.5q18 0 29 11.5z" />
    <glyph glyph-name="glyph454" horiz-adv-x="44" 
 />
    <glyph glyph-name="zero.oldstyle" horiz-adv-x="608" 
d="M172.5 26q-59.5 34 -93.5 93t-34 131t34 131t93.5 93t131.5 34t131.5 -34t93.5 -93t34 -131q0 -73 -34 -131.5t-93 -92.5t-132 -34q-72 0 -131.5 34zM389 96q38 24 60 64.5t22 89.5t-22 89.5t-60 64.5t-85 24t-85 -24t-60 -64.5t-22 -89.5t22 -89.5t60 -64.5t85 -24
t85 24z" />
    <glyph glyph-name="one.oldstyle" horiz-adv-x="339" 
d="M171 137v231h-1l-132 -143h-3v112l171 163h62l-1 -20q-4 -66 -4 -117v-226q0 -18 3 -105q2 -24 2 -32h-102q5 73 5 137z" />
    <glyph glyph-name="two.oldstyle" horiz-adv-x="525" 
d="M454 -3q-16 1 -39.5 2t-55.5 1h-335v1l165 137q85 71 127 118t42 93q0 37 -26 58.5t-70 21.5q-59 0 -107 -34.5t-89 -84.5h-2v109q30 34 83.5 62t115.5 28q87 0 137 -42.5t50 -119.5q0 -64 -38.5 -114t-104.5 -105l-56 -46v-1h108q32 0 55.5 1t39.5 2q20 2 31 2v-91
q-11 0 -31 2z" />
    <glyph glyph-name="three.oldstyle" horiz-adv-x="527" 
d="M115.5 -184q-52.5 25 -95.5 74l70 68q51 -87 160 -87q65 0 106 43t41 106q0 65 -42 106.5t-122 41.5h-109v1l191 249v1h-138q-26 0 -53 -1.5t-39 -1.5l-32 -2v91l32 -2q12 0 39 -1.5t53 -1.5h299v-2l-192 -249v-1q91 -12 147.5 -73.5t56.5 -154.5q0 -61 -31 -113.5
t-85.5 -84t-122.5 -31.5q-81 0 -133.5 25z" />
    <glyph glyph-name="four.oldstyle" horiz-adv-x="564" 
d="M333 -63v63h-173q-33 0 -57.5 -1t-41.5 -2q-22 -2 -33 -2v85l292 420h111q-5 -67 -5 -137v-283h112v-85l-112 5v-63q0 -65 5 -137h-103q5 72 5 137zM333 80v294h-1l-203 -293v-1h204z" />
    <glyph glyph-name="five.oldstyle" horiz-adv-x="529" 
d="M112 -177.5q-61 30.5 -94 77.5l75 66q31 -48 68.5 -71t92.5 -23q46 0 81 21.5t53.5 57.5t18.5 78q0 65 -41.5 108.5t-111.5 43.5q-78 0 -164 -67h-3v386h215q35 0 60.5 1t43.5 2l36 2v-91l-36 2q-18 1 -43.5 2t-60.5 1h-123v-173q41 15 81 15q74 0 128 -30.5t82 -83.5
t28 -118q0 -67 -31 -121t-86 -85t-125 -31q-83 0 -144 30.5z" />
    <glyph glyph-name="six.oldstyle" horiz-adv-x="540" 
d="M156.5 20.5q-53.5 28.5 -83.5 80.5t-30 118q0 89 54 179l178 302h114l-174 -264l1 -1q24 11 61 11q67 0 120.5 -29t84 -80.5t30.5 -117.5q0 -62 -30.5 -114t-84 -82.5t-120.5 -30.5t-120.5 28.5zM381.5 114.5q39.5 42.5 39.5 104.5q0 39 -17.5 72.5t-50.5 54t-76 20.5
q-66 0 -104.5 -42t-38.5 -105q0 -62 39 -104.5t104 -42.5t104.5 42.5z" />
    <glyph glyph-name="seven.oldstyle" horiz-adv-x="481" 
d="M61 -171q24 40 33 60l247 529l-1 1h-183q-33 0 -57.5 -1t-41.5 -2l-33 -2v91q11 0 33 -2q17 -1 41.5 -2t57.5 -1h319l-281 -611q-7 -14 -13 -33t-9 -27l-9 -29h-119z" />
    <glyph glyph-name="eight.oldstyle" horiz-adv-x="540" 
d="M152 19.5q-51 28.5 -79.5 78.5t-28.5 112q0 59 28.5 108.5t78.5 79.5v1q-28 24 -44 57.5t-16 72.5q0 48 23 89t64 65.5t92 24.5t91.5 -25t64 -66t23.5 -88q0 -39 -16 -72.5t-44 -57.5v-1q50 -30 78.5 -79t28.5 -109q0 -62 -28.5 -112t-79.5 -78.5t-118 -28.5t-118 28.5z
M336.5 462.5q26.5 28.5 26.5 66.5t-26.5 66.5t-66.5 28.5t-66.5 -28.5t-26.5 -66.5t26.5 -66.5t66.5 -28.5t66.5 28.5zM367 111q38 40 38 99q0 60 -37.5 100.5t-97.5 40.5t-97.5 -40.5t-37.5 -100.5q0 -59 38 -99t97 -40t97 40z" />
    <glyph glyph-name="nine.oldstyle" horiz-adv-x="533" 
d="M322 64l-1 1q-22 -11 -61 -11q-67 0 -120.5 29t-84 80.5t-30.5 117.5q0 62 30.5 114t84 82.5t120.5 30.5t120.5 -28.5t83.5 -80.5t30 -118q0 -89 -54 -179l-178 -302h-114zM364.5 176q38.5 42 38.5 105q0 62 -39 104.5t-104 42.5t-104.5 -42.5t-39.5 -104.5
q0 -39 17.5 -72.5t50.5 -54t76 -20.5q66 0 104.5 42z" />
    <glyph glyph-name="uni2007.aalt" horiz-adv-x="608" 
 />
    <glyph glyph-name="Euro.aalt" horiz-adv-x="600" 
d="M221 56q-70 64 -93 181q-65 -2 -85 -4v87l75 -3q-1 11 -1 34t1 34l-75 -3v87q20 -2 85 -4q23 117 93 181t178 64q47 0 82.5 -11t59.5 -28v-117h-2q-20 32 -57 54t-83 22q-75 0 -118.5 -43.5t-60.5 -121.5h95q82 0 117 4v-87q-39 3 -117 3h-105q-1 -11 -1 -34t1 -34h105
q78 0 117 3v-87q-52 4 -117 4h-95q17 -78 60.5 -121.5t118.5 -43.5q46 0 83 22t57 54h2v-117q-24 -17 -59.5 -28t-82.5 -11q-108 0 -178 64z" />
    <glyph glyph-name="parenleft.aalt" horiz-adv-x="295" 
d="M173 -28q-37 56 -63.5 105.5t-46 119.5t-19.5 153t19.5 153t45.5 118.5t63 106.5q10 14 21 32h84q-55 -65 -98.5 -167t-43.5 -243t43.5 -243t98.5 -167h-84z" />
    <glyph glyph-name="parenright.aalt" horiz-adv-x="295" 
d="M116.5 107q43.5 102 43.5 243t-43.5 243t-98.5 167h84l20 -32q37 -56 63.5 -105.5t46 -119.5t19.5 -153t-19.5 -153t-45.5 -118.5t-63 -106.5q-10 -14 -21 -32h-84q55 65 98.5 167z" />
    <glyph glyph-name="plus.aalt" horiz-adv-x="545" 
d="M234 274v41h-38q-65 0 -137 -5v81q73 -5 137 -5h38v40q0 65 -5 137h86q-5 -72 -5 -137v-40h38q62 0 137 5v-81q-75 5 -137 5h-38v-41q0 -64 5 -137h-86q5 73 5 137z" />
    <glyph glyph-name="hyphen.aalt" horiz-adv-x="443" 
d="M63 394q38 -3 116 -3h84q78 0 117 3v-87q-52 4 -117 4h-84q-66 0 -116 -4v87z" />
    <glyph glyph-name="less.aalt" horiz-adv-x="545" 
d="M388 158l-289 156q-19 10 -33 13v65q14 3 33 13l289 156q44 23 69 44h1v-104q-6 0 -19.5 -5t-28.5 -13l-235 -123v-2l235 -122q15 -8 28.5 -13t19.5 -5v-104h-1q-25 21 -69 44z" />
    <glyph glyph-name="equal.aalt" horiz-adv-x="545" 
d="M59 303q73 -5 137 -5h152q64 0 137 5v-82q-73 5 -137 5h-152q-65 0 -137 -5v82zM59 479q73 -5 137 -5h152q64 0 137 5v-82q-73 5 -137 5h-152q-65 0 -137 -5v82z" />
    <glyph glyph-name="greater.aalt" horiz-adv-x="545" 
d="M87 218q6 0 19.5 5t28.5 13l236 124l-236 123q-15 8 -28.5 13t-19.5 5v104h1q25 -21 69 -44l289 -156q19 -10 33 -13v-65q-14 -3 -33 -13l-289 -156q-44 -23 -69 -44h-1v104z" />
    <glyph glyph-name="at.aalt" horiz-adv-x="875" 
d="M246 -16.5q-95 47.5 -150.5 137.5t-55.5 213q0 122 58 218t155 149t208 53q106 0 195 -46.5t142 -131.5t53 -193q0 -77 -27 -136.5t-76.5 -92.5t-115.5 -33q-34 0 -63.5 17t-37.5 46h-2q-21 -28 -52.5 -45.5t-71.5 -17.5q-79 0 -123.5 51.5t-44.5 145.5q0 76 27 133
t73 87.5t101 30.5q46 0 75.5 -19t44.5 -48h2q1 10 3 23.5t2 22.5h92l-10 -40l-7 -29l-35 -165q-10 -42 -10 -64q0 -26 17.5 -38t40.5 -12q31 0 59 23.5t45.5 65.5t17.5 94q0 91 -43 159.5t-115 105t-157 36.5q-87 0 -165.5 -42t-127 -121.5t-48.5 -186.5q0 -100 42.5 -174.5
t119.5 -114t176 -39.5q62 0 111 13.5t83 32.5v-72q-30 -17 -81.5 -30.5t-112.5 -13.5q-116 0 -211 47.5zM501 257q28 57 28 130q0 48 -23 76t-67 28q-31 0 -57 -21.5t-41 -60.5t-15 -90q0 -55 23 -87t68 -32q56 0 84 57z" />
    <glyph glyph-name="bracketleft.aalt" horiz-adv-x="309" 
d="M79 760h199v-82h-113v-654h113v-84h-199v820z" />
    <glyph glyph-name="bracketright.aalt" horiz-adv-x="309" 
d="M31 22h113v654h-113v84h199v-820h-199v82z" />
    <glyph glyph-name="braceleft.aalt" horiz-adv-x="294" 
d="M170 -44.5q-37 17.5 -60 50t-23 75.5q0 25 3.5 44t9.5 45q11 39 11 63q0 74 -77 83v68q77 9 77 83q0 25 -11 63q-6 26 -9.5 45t-3.5 44q0 43 23 75.5t60 50t78 19.5v-84q-40 0 -57 -15.5t-17 -44.5q0 -18 4.5 -37.5t5.5 -23.5q14 -54 14 -96q0 -38 -15.5 -68.5
t-53.5 -43.5v-2q69 -23 69 -112q0 -42 -14 -96q-1 -4 -5.5 -23.5t-4.5 -37.5q0 -29 17 -44.5t57 -15.5v-84q-41 2 -78 19.5z" />
    <glyph glyph-name="bar.aalt" horiz-adv-x="252" 
d="M80 1v697q0 67 -4 119h100q-4 -52 -4 -119v-697q0 -65 4 -119h-100q4 54 4 119z" />
    <glyph glyph-name="braceright.aalt" horiz-adv-x="294" 
d="M46 20q40 0 57 15.5t17 44.5q0 18 -4.5 37.5t-5.5 23.5q-14 54 -14 96q0 38 15 68.5t54 43.5v2q-38 13 -53.5 43.5t-15.5 68.5q0 42 14 96q1 4 5.5 23.5t4.5 37.5q0 29 -17 44.5t-57 15.5v84q41 -2 78 -19.5t60 -50t23 -75.5q0 -25 -3.5 -44t-9.5 -45q-11 -38 -11 -63
q0 -74 77 -83v-68q-77 -9 -77 -83q0 -24 11 -63q6 -26 9.5 -45t3.5 -44q0 -43 -23 -75.5t-60 -50t-78 -19.5v84z" />
    <glyph glyph-name="exclamdown.aalt" horiz-adv-x="245" 
d="M80.5 611q-16.5 16 -16.5 41q0 24 16.5 40t41.5 16t41 -16t16 -40q0 -25 -16 -41t-41 -16t-41.5 16zM77 106l5 300q0 63 22 107h37q22 -44 22 -107l5 -300q2 -67 9 -106h-109q7 39 9 106z" />
    <glyph glyph-name="brokenbar.aalt" horiz-adv-x="252" 
d="M80 575v123q0 67 -4 119h100q-4 -52 -4 -119v-123q0 -67 4 -119h-100q4 52 4 119zM80 1v123q0 67 -4 119h100q-4 -52 -4 -119v-123q0 -67 4 -119h-100q4 52 4 119z" />
    <glyph glyph-name="guillemotleft.aalt" horiz-adv-x="483" 
d="M40 348v4l130 190h73l-107 -192l107 -192h-73zM232 348v4l130 190h73l-107 -192l107 -192h-73z" />
    <glyph glyph-name="logicalnot.aalt" horiz-adv-x="545" 
d="M400 362v39q-19 1 -61 1h-152q-65 0 -137 -5v82q72 -5 137 -5h289v-112q0 -64 5 -137h-86q5 73 5 137z" />
    <glyph glyph-name="uni00AD.aalt" horiz-adv-x="443" 
d="M63 394q38 -3 116 -3h84q78 0 117 3v-87q-52 4 -117 4h-84q-66 0 -116 -4v87z" />
    <glyph glyph-name="plusminus.aalt" horiz-adv-x="545" 
d="M234 383h-38q-64 0 -137 -5v81q73 -5 137 -5h38q-2 65 -5 107h86q-3 -42 -5 -107h38q62 0 137 5v-81q-75 5 -137 5h-38q2 -66 5 -108h-86q4 42 5 108zM59 239q72 -5 137 -5h152q62 0 137 5v-81q-75 5 -137 5h-152q-64 0 -137 -5v81z" />
    <glyph glyph-name="guillemotright.aalt" horiz-adv-x="483" 
d="M155 350l-107 192h73l130 -190v-4l-130 -190h-73zM347 350l-107 192h73l130 -190v-4l-130 -190h-73z" />
    <glyph glyph-name="questiondown.aalt" horiz-adv-x="435" 
d="M208.5 611q-16.5 16 -16.5 41q0 24 16.5 40t41.5 16t41 -16t16 -40q0 -25 -16 -41t-41 -16t-41.5 16zM85.5 35.5q-52.5 43.5 -52.5 120.5q0 62 28 103t83 86q45 38 65 69t20 68q0 16 -4 31h53q13 -42 13 -80q0 -37 -15 -65t-56 -65q-5 -4 -33.5 -29t-44 -53t-15.5 -58
q0 -41 26.5 -66t72.5 -25q48 0 94.5 27t79.5 70h3v-115q-36 -26 -82.5 -44t-96.5 -18q-86 0 -138.5 43.5z" />
    <glyph glyph-name="x.aalt" horiz-adv-x="545" 
d="M76 213q64 58 98 91l46 46l-46 46q-34 33 -98 91l59 59q58 -64 91 -98l46 -46l46 46q33 34 91 98l59 -59q-64 -58 -98 -91l-46 -46l46 -46q34 -33 98 -91l-59 -59q-58 64 -91 98l-46 46l-46 -46q-33 -34 -91 -98z" />
    <glyph glyph-name="divide.aalt" horiz-adv-x="545" 
d="M234 463.5q-15 14.5 -15 37.5q0 24 15 39t38 15t38 -15t15 -39q0 -23 -15 -37.5t-38 -14.5t-38 14.5zM59 391q73 -5 137 -5h152q64 0 137 5v-82q-73 5 -137 5h-152q-65 0 -137 -5v82zM234 159.5q-15 14.5 -15 37.5q0 24 15 39t38 15t38 -15t15 -39q0 -23 -15 -37.5
t-38 -14.5t-38 14.5z" />
    <glyph glyph-name="endash.aalt" horiz-adv-x="612" 
d="M63 394q38 -3 116 -3h253q78 0 117 3v-87q-52 4 -117 4h-253q-66 0 -116 -4v87z" />
    <glyph glyph-name="emdash.aalt" horiz-adv-x="787" 
d="M63 394q38 -3 116 -3h428q78 0 117 3v-87q-52 4 -117 4h-428q-66 0 -116 -4v87z" />
    <glyph glyph-name="guilsinglleft.aalt" horiz-adv-x="291" 
d="M40 348v4l130 190h73l-107 -192l107 -192h-73z" />
    <glyph glyph-name="guilsinglright.aalt" horiz-adv-x="291" 
d="M155 350l-107 192h73l130 -190v-4l-130 -190h-73z" />
    <glyph glyph-name="minus.aalt" horiz-adv-x="545" 
d="M59 391q73 -5 137 -5h152q64 0 137 5v-82q-73 5 -137 5h-152q-65 0 -137 -5v82z" />
    <glyph glyph-name="infinity.aalt" horiz-adv-x="571" 
d="M85 277q-31 29 -31 75t31 75t83 29q35 0 63 -14.5t55 -41.5q26 27 54 41.5t63 14.5q52 0 83 -29t31 -75t-31 -75t-83 -29q-35 0 -63 14.5t-55 41.5q-26 -27 -54 -41.5t-63 -14.5q-52 0 -83 29zM247 352q-40 44 -77 44q-23 0 -35.5 -12t-12.5 -32t12.5 -32t35.5 -12
q37 0 77 44zM436.5 320q12.5 12 12.5 32t-12.5 32t-35.5 12q-37 0 -77 -44q40 -44 77 -44q23 0 35.5 12z" />
    <glyph glyph-name="approxequal.aalt" horiz-adv-x="545" 
d="M329 374.5q-18 6.5 -43 20.5l-23 13q-26 15 -41.5 21.5t-33.5 6.5q-23 0 -36.5 -17.5t-15.5 -40.5h-80q10 60 42.5 94t87.5 34q22 0 41 -6.5t42 -19.5l23 -13q30 -17 43.5 -23t30.5 -6q24 0 37.5 18t14.5 40h81q-10 -60 -43 -94t-87 -34q-22 0 -40 6.5zM329 200.5
q-18 6.5 -43 20.5l-23 13q-26 15 -41.5 21.5t-33.5 6.5q-23 0 -36.5 -17.5t-15.5 -40.5h-80q10 60 42.5 94t87.5 34q22 0 41 -6.5t42 -19.5l23 -13q30 -17 43.5 -23t30.5 -6q24 0 37.5 18t14.5 40h81q-10 -60 -43 -94t-87 -34q-22 0 -40 6.5z" />
    <glyph glyph-name="notequal.aalt" horiz-adv-x="545" 
d="M196 226q-64 0 -137 -5v82q73 -5 137 -5h35l50 104h-85q-65 0 -137 -5v82q72 -5 137 -5h120l38 79h82l-38 -78q16 0 87 4v-82q-44 3 -122 5l-50 -104h35q65 0 137 5v-82q-72 5 -137 5h-70l-38 -78h-82z" />
    <glyph glyph-name="lessequal.aalt" horiz-adv-x="545" 
d="M62 353q20 0 48 6l272 60v2l-272 60q-28 6 -48 6v87h1q21 -14 69 -26l323 -81q23 -6 33 -7v-80q-10 -1 -33 -7l-323 -81q-48 -12 -69 -26h-1v87zM62 227q75 -5 137 -5h152q64 0 137 5v-81q-73 5 -137 5h-152q-62 0 -137 -5v81z" />
    <glyph glyph-name="greaterequal.aalt" horiz-adv-x="545" 
d="M413 292l-323 81q-23 6 -33 7v80q10 1 33 7l323 81q48 12 69 26h1v-87q-20 0 -48 -6l-272 -60v-2l272 -60q28 -6 48 -6v-87h-1q-21 14 -69 26zM57 227q73 -5 137 -5h152q62 0 137 5v-81q-75 5 -137 5h-152q-64 0 -137 -5v81z" />
    <glyph glyph-name="a.salt" horiz-adv-x="611" 
d="M157.5 26.5q-56.5 34.5 -87 93.5t-30.5 130t30.5 130t87 93.5t129.5 34.5q52 0 94.5 -20t69.5 -57h1q8 35 18 69h75q-4 -54 -4 -137v-226q0 -83 4 -137h-75q-12 42 -18 70h-1q-28 -37 -70 -57.5t-94 -20.5q-73 0 -129.5 34.5zM404 121.5q45 49.5 45 128.5t-45 128.5
t-116 49.5q-46 0 -81.5 -24t-55 -64.5t-19.5 -89.5t19.5 -89.5t55 -64.5t81.5 -24q71 0 116 49.5z" />
    <glyph glyph-name="agrave.salt" horiz-adv-x="611" 
d="M157.5 26.5q-56.5 34.5 -87 93.5t-30.5 130t30.5 130t87 93.5t129.5 34.5q52 0 94.5 -20t69.5 -57h1q8 35 18 69h75q-4 -54 -4 -137v-226q0 -83 4 -137h-75q-12 42 -18 70h-1q-28 -37 -70 -57.5t-94 -20.5q-73 0 -129.5 34.5zM404 121.5q45 49.5 45 128.5t-45 128.5
t-116 49.5q-46 0 -81.5 -24t-55 -64.5t-19.5 -89.5t19.5 -89.5t55 -64.5t81.5 -24q71 0 116 49.5zM135 700h134l85 -112h-88z" />
    <glyph glyph-name="aacute.salt" horiz-adv-x="611" 
d="M157.5 26.5q-56.5 34.5 -87 93.5t-30.5 130t30.5 130t87 93.5t129.5 34.5q52 0 94.5 -20t69.5 -57h1q8 35 18 69h75q-4 -54 -4 -137v-226q0 -83 4 -137h-75q-12 42 -18 70h-1q-28 -37 -70 -57.5t-94 -20.5q-73 0 -129.5 34.5zM404 121.5q45 49.5 45 128.5t-45 128.5
t-116 49.5q-46 0 -81.5 -24t-55 -64.5t-19.5 -89.5t19.5 -89.5t55 -64.5t81.5 -24q71 0 116 49.5zM335 700h134l-131 -112h-88z" />
    <glyph glyph-name="acircumflex.salt" horiz-adv-x="611" 
d="M157.5 26.5q-56.5 34.5 -87 93.5t-30.5 130t30.5 130t87 93.5t129.5 34.5q52 0 94.5 -20t69.5 -57h1q8 35 18 69h75q-4 -54 -4 -137v-226q0 -83 4 -137h-75q-12 42 -18 70h-1q-28 -37 -70 -57.5t-94 -20.5q-73 0 -129.5 34.5zM404 121.5q45 49.5 45 128.5t-45 128.5
t-116 49.5q-46 0 -81.5 -24t-55 -64.5t-19.5 -89.5t19.5 -89.5t55 -64.5t81.5 -24q71 0 116 49.5zM251 700h101l115 -112h-95l-70 63l-71 -63h-95z" />
    <glyph glyph-name="atilde.salt" horiz-adv-x="611" 
d="M157.5 26.5q-56.5 34.5 -87 93.5t-30.5 130t30.5 130t87 93.5t129.5 34.5q52 0 94.5 -20t69.5 -57h1q8 35 18 69h75q-4 -54 -4 -137v-226q0 -83 4 -137h-75q-12 42 -18 70h-1q-28 -37 -70 -57.5t-94 -20.5q-73 0 -129.5 34.5zM404 121.5q45 49.5 45 128.5t-45 128.5
t-116 49.5q-46 0 -81.5 -24t-55 -64.5t-19.5 -89.5t19.5 -89.5t55 -64.5t81.5 -24q71 0 116 49.5zM308 608l-16 11q-5 4 -16 11t-18 10.5t-14 3.5q-18 0 -24.5 -12t-7.5 -32h-73q7 51 32.5 82t68.5 31q30 0 56 -18l16 -11q20 -14 29.5 -19.5t18.5 -5.5q18 0 24.5 12t7.5 32
h73q-7 -51 -32.5 -82t-68.5 -31q-30 0 -56 18z" />
    <glyph glyph-name="adieresis.aalt" horiz-adv-x="611" 
d="M157.5 26.5q-56.5 34.5 -87 93.5t-30.5 130t30.5 130t87 93.5t129.5 34.5q52 0 94.5 -20t69.5 -57h1q8 35 18 69h75q-4 -54 -4 -137v-226q0 -83 4 -137h-75q-12 42 -18 70h-1q-28 -37 -70 -57.5t-94 -20.5q-73 0 -129.5 34.5zM404 121.5q45 49.5 45 128.5t-45 128.5
t-116 49.5q-46 0 -81.5 -24t-55 -64.5t-19.5 -89.5t19.5 -89.5t55 -64.5t81.5 -24q71 0 116 49.5zM168.5 602q-14.5 14 -14.5 36q0 23 14 37.5t37 14.5q24 0 38.5 -14.5t14.5 -37.5t-14.5 -36.5t-38.5 -13.5q-22 0 -36.5 14zM360.5 602q-14.5 14 -14.5 36q0 23 14 37.5
t37 14.5q24 0 38.5 -14.5t14.5 -37.5t-14.5 -36.5t-38.5 -13.5q-22 0 -36.5 14z" />
    <glyph glyph-name="aring.aalt" horiz-adv-x="611" 
d="M157.5 26.5q-56.5 34.5 -87 93.5t-30.5 130t30.5 130t87 93.5t129.5 34.5q52 0 94.5 -20t69.5 -57h1q8 35 18 69h75q-4 -54 -4 -137v-226q0 -83 4 -137h-75q-12 42 -18 70h-1q-28 -37 -70 -57.5t-94 -20.5q-73 0 -129.5 34.5zM404 121.5q45 49.5 45 128.5t-45 128.5
t-116 49.5q-46 0 -81.5 -24t-55 -64.5t-19.5 -89.5t19.5 -89.5t55 -64.5t81.5 -24q71 0 116 49.5zM230.5 570.5q-29.5 29.5 -29.5 70.5t29.5 70.5t71.5 29.5q41 0 71 -29.5t30 -70.5t-30 -70.5t-71 -29.5q-42 0 -71.5 29.5zM326.5 615.5q10.5 10.5 10.5 25.5t-10.5 25.5
t-24.5 10.5q-15 0 -25 -10.5t-10 -25.5q0 -16 10 -26t25 -10q14 0 24.5 10.5z" />
    <glyph glyph-name="amacron.salt" horiz-adv-x="611" 
d="M157.5 26.5q-56.5 34.5 -87 93.5t-30.5 130t30.5 130t87 93.5t129.5 34.5q52 0 94.5 -20t69.5 -57h1q8 35 18 69h75q-4 -54 -4 -137v-226q0 -83 4 -137h-75q-12 42 -18 70h-1q-28 -37 -70 -57.5t-94 -20.5q-73 0 -129.5 34.5zM404 121.5q45 49.5 45 128.5t-45 128.5
t-116 49.5q-46 0 -81.5 -24t-55 -64.5t-19.5 -89.5t19.5 -89.5t55 -64.5t81.5 -24q71 0 116 49.5zM164 676h276v-74h-276v74z" />
    <glyph glyph-name="abreve.salt" horiz-adv-x="611" 
d="M157.5 26.5q-56.5 34.5 -87 93.5t-30.5 130t30.5 130t87 93.5t129.5 34.5q52 0 94.5 -20t69.5 -57h1q8 35 18 69h75q-4 -54 -4 -137v-226q0 -83 4 -137h-75q-12 42 -18 70h-1q-28 -37 -70 -57.5t-94 -20.5q-73 0 -129.5 34.5zM404 121.5q45 49.5 45 128.5t-45 128.5
t-116 49.5q-46 0 -81.5 -24t-55 -64.5t-19.5 -89.5t19.5 -89.5t55 -64.5t81.5 -24q71 0 116 49.5zM197 607.5q-41 33.5 -47 92.5h75q5 -27 24.5 -42.5t52.5 -15.5t52.5 15.5t24.5 42.5h75q-6 -59 -47 -92.5t-105 -33.5t-105 33.5z" />
    <glyph glyph-name="aogonek.aalt" horiz-adv-x="611" 
d="M485.5 -42q-20.5 -19 -20.5 -46q0 -16 9.5 -25t25.5 -9q19 0 37 10h1v-73q-29 -9 -56 -9q-45 0 -73.5 24.5t-28.5 65.5q0 38 25 67.5t61 50.5q-6 19 -14 56h-1q-28 -37 -70 -57.5t-94 -20.5q-73 0 -129.5 34.5t-87 93.5t-30.5 130t30.5 130t87 93.5t129.5 34.5
q52 0 94.5 -20t69.5 -57h1q8 35 18 69h75q-4 -54 -4 -137v-226q0 -83 4 -137q-39 -23 -59.5 -42zM404 121.5q45 49.5 45 128.5t-45 128.5t-116 49.5q-46 0 -81.5 -24t-55 -64.5t-19.5 -89.5t19.5 -89.5t55 -64.5t81.5 -24q71 0 116 49.5z" />
    <glyph glyph-name="e.aalt" horiz-adv-x="550" 
d="M162.5 22.5q-57.5 30.5 -89.5 89t-32 138.5q0 74 30.5 132.5t85 92t123.5 33.5q65 0 117 -31t82 -89.5t30 -137.5q0 -22 -3 -36h-374q7 -65 53 -103t115 -38q59 0 108 27t74 66h2v-112q-31 -26 -80.5 -44t-109.5 -18q-74 0 -131.5 30.5zM419 290q-6 68 -44 104.5
t-95 36.5q-60 0 -99.5 -39t-47.5 -102h286z" />
    <glyph glyph-name="ae.aalt" horiz-adv-x="861" 
d="M127 11.5q-42 19.5 -67 54.5t-25 81q0 71 50.5 107t146.5 36h120v39q0 101 -105 101q-45 0 -91 -20t-83 -49h-2v95q29 19 81 35.5t97 16.5q127 0 170 -75h1q31 36 75 55.5t96 19.5q65 0 117 -31t82 -89.5t30 -137.5q0 -22 -3 -36h-374q7 -65 53 -103t115 -38q59 0 108 27
t74 66h2v-112q-31 -26 -80.5 -44t-109.5 -18q-63 0 -114.5 23t-83.5 66h-1q-68 -89 -186 -89q-51 0 -93 19.5zM730 290q-6 68 -44 104.5t-95 36.5q-60 0 -99.5 -39t-47.5 -102h286zM316 102q36 29 36 90v22h-116q-53 0 -80 -18.5t-27 -48.5q0 -35 27.5 -54.5t70.5 -19.5
q53 0 89 29z" />
    <glyph glyph-name="egrave.ss02" horiz-adv-x="550" 
d="M162.5 22.5q-57.5 30.5 -89.5 89t-32 138.5q0 74 30.5 132.5t85 92t123.5 33.5q65 0 117 -31t82 -89.5t30 -137.5q0 -22 -3 -36h-374q7 -65 53 -103t115 -38q59 0 108 27t74 66h2v-112q-31 -26 -80.5 -44t-109.5 -18q-74 0 -131.5 30.5zM419 290q-6 68 -44 104.5
t-95 36.5q-60 0 -99.5 -39t-47.5 -102h286zM113 700h134l85 -112h-88z" />
    <glyph glyph-name="eacute.ss02" horiz-adv-x="550" 
d="M162.5 22.5q-57.5 30.5 -89.5 89t-32 138.5q0 74 30.5 132.5t85 92t123.5 33.5q65 0 117 -31t82 -89.5t30 -137.5q0 -22 -3 -36h-374q7 -65 53 -103t115 -38q59 0 108 27t74 66h2v-112q-31 -26 -80.5 -44t-109.5 -18q-74 0 -131.5 30.5zM419 290q-6 68 -44 104.5
t-95 36.5q-60 0 -99.5 -39t-47.5 -102h286zM313 700h134l-131 -112h-88z" />
    <glyph glyph-name="ecircumflex.ss02" horiz-adv-x="550" 
d="M162.5 22.5q-57.5 30.5 -89.5 89t-32 138.5q0 74 30.5 132.5t85 92t123.5 33.5q65 0 117 -31t82 -89.5t30 -137.5q0 -22 -3 -36h-374q7 -65 53 -103t115 -38q59 0 108 27t74 66h2v-112q-31 -26 -80.5 -44t-109.5 -18q-74 0 -131.5 30.5zM419 290q-6 68 -44 104.5
t-95 36.5q-60 0 -99.5 -39t-47.5 -102h286zM229 700h101l115 -112h-95l-70 63l-71 -63h-95z" />
    <glyph glyph-name="edieresis.aalt" horiz-adv-x="550" 
d="M162.5 22.5q-57.5 30.5 -89.5 89t-32 138.5q0 74 30.5 132.5t85 92t123.5 33.5q65 0 117 -31t82 -89.5t30 -137.5q0 -22 -3 -36h-374q7 -65 53 -103t115 -38q59 0 108 27t74 66h2v-112q-31 -26 -80.5 -44t-109.5 -18q-74 0 -131.5 30.5zM419 290q-6 68 -44 104.5
t-95 36.5q-60 0 -99.5 -39t-47.5 -102h286zM146.5 602q-14.5 14 -14.5 36q0 23 14 37.5t37 14.5q24 0 38.5 -14.5t14.5 -37.5t-14.5 -36.5t-38.5 -13.5q-22 0 -36.5 14zM338.5 602q-14.5 14 -14.5 36q0 23 14 37.5t37 14.5q24 0 38.5 -14.5t14.5 -37.5t-14.5 -36.5
t-38.5 -13.5q-22 0 -36.5 14z" />
    <glyph glyph-name="emacron.ss02" horiz-adv-x="550" 
d="M162.5 22.5q-57.5 30.5 -89.5 89t-32 138.5q0 74 30.5 132.5t85 92t123.5 33.5q65 0 117 -31t82 -89.5t30 -137.5q0 -22 -3 -36h-374q7 -65 53 -103t115 -38q59 0 108 27t74 66h2v-112q-31 -26 -80.5 -44t-109.5 -18q-74 0 -131.5 30.5zM419 290q-6 68 -44 104.5
t-95 36.5q-60 0 -99.5 -39t-47.5 -102h286zM142 676h276v-74h-276v74z" />
    <glyph glyph-name="edotaccent.aalt" horiz-adv-x="550" 
d="M162.5 22.5q-57.5 30.5 -89.5 89t-32 138.5q0 74 30.5 132.5t85 92t123.5 33.5q65 0 117 -31t82 -89.5t30 -137.5q0 -22 -3 -36h-374q7 -65 53 -103t115 -38q59 0 108 27t74 66h2v-112q-31 -26 -80.5 -44t-109.5 -18q-74 0 -131.5 30.5zM419 290q-6 68 -44 104.5
t-95 36.5q-60 0 -99.5 -39t-47.5 -102h286zM242 600.5q-15 14.5 -15 37.5q0 24 15 39t38 15t38 -15t15 -39q0 -23 -15 -37.5t-38 -14.5t-38 14.5z" />
    <glyph glyph-name="eogonek.aalt" horiz-adv-x="550" 
d="M288.5 -169.5q-28.5 24.5 -28.5 65.5q0 53 54 96v1q-7 -1 -20 -1q-74 0 -131.5 30.5t-89.5 89t-32 138.5q0 74 30.5 132.5t85 92t123.5 33.5q65 0 117 -31t82 -89.5t30 -137.5q0 -22 -3 -36h-374q7 -65 53 -103t115 -38q59 0 108 27t74 66h2v-112q-23 -20 -62 -37
q-77 -34 -77 -98q0 -18 10 -29.5t26 -11.5q18 0 36 10h1v-73q-29 -9 -56 -9q-45 0 -73.5 24.5zM419 290q-6 68 -44 104.5t-95 36.5q-60 0 -99.5 -39t-47.5 -102h286z" />
    <glyph glyph-name="ecaron.ss02" horiz-adv-x="550" 
d="M162.5 22.5q-57.5 30.5 -89.5 89t-32 138.5q0 74 30.5 132.5t85 92t123.5 33.5q65 0 117 -31t82 -89.5t30 -137.5q0 -22 -3 -36h-374q7 -65 53 -103t115 -38q59 0 108 27t74 66h2v-112q-31 -26 -80.5 -44t-109.5 -18q-74 0 -131.5 30.5zM419 290q-6 68 -44 104.5
t-95 36.5q-60 0 -99.5 -39t-47.5 -102h286zM114 700h95l71 -63l70 63h95l-115 -112h-101z" />
    <glyph glyph-name="oe.aalt" horiz-adv-x="974" 
d="M166.5 26q-59.5 34 -93.5 93t-34 131t34 131t93.5 93t131.5 34q65 0 119.5 -27.5t89.5 -76.5h1q32 49 83 76.5t113 27.5q65 0 117 -31t82 -89.5t30 -137.5q0 -22 -3 -36h-374q7 -65 53 -103t115 -38q59 0 108 27t74 66h2v-112q-31 -26 -80.5 -44t-109.5 -18
q-68 0 -122.5 26.5t-87.5 75.5h-1q-36 -48 -90 -75t-119 -27q-72 0 -131.5 34zM843 290q-6 68 -44 104.5t-95 36.5q-60 0 -99.5 -39t-47.5 -102h286zM383 96q38 24 60 64.5t22 89.5t-22 89.5t-60 64.5t-85 24t-85 -24t-60 -64.5t-22 -89.5t22 -89.5t60 -64.5t85 -24t85 24z
" />
    <glyph glyph-name="g.aalt" horiz-adv-x="610" 
d="M147.5 -182q-62.5 26 -101.5 73l66 64q62 -82 172 -82q76 0 120 43.5t44 125.5v34h-1q-25 -34 -66.5 -54t-93.5 -20q-73 0 -129.5 33.5t-87 91t-30.5 128.5t30.5 128.5t87 91t129.5 33.5q54 0 96 -20.5t67 -56.5h1q5 24 18 69h75q-4 -54 -4 -137v-318q0 -129 -70.5 -191
t-189.5 -62q-70 0 -132.5 26zM403.5 130q44.5 48 44.5 125q0 78 -44 125.5t-116 47.5q-46 0 -81.5 -23t-55 -62.5t-19.5 -87.5t19.5 -87.5t55 -62.5t81.5 -23q71 0 115.5 48z" />
    <glyph glyph-name="gcircumflex.ss03" horiz-adv-x="610" 
d="M147.5 -182q-62.5 26 -101.5 73l66 64q62 -82 172 -82q76 0 120 43.5t44 125.5v34h-1q-25 -34 -66.5 -54t-93.5 -20q-73 0 -129.5 33.5t-87 91t-30.5 128.5t30.5 128.5t87 91t129.5 33.5q54 0 96 -20.5t67 -56.5h1q5 24 18 69h75q-4 -54 -4 -137v-318q0 -129 -70.5 -191
t-189.5 -62q-70 0 -132.5 26zM403.5 130q44.5 48 44.5 125q0 78 -44 125.5t-116 47.5q-46 0 -81.5 -23t-55 -62.5t-19.5 -87.5t19.5 -87.5t55 -62.5t81.5 -23q71 0 115.5 48zM250 700h101l115 -112h-95l-70 63l-71 -63h-95z" />
    <glyph glyph-name="gbreve.ss03" horiz-adv-x="610" 
d="M147.5 -182q-62.5 26 -101.5 73l66 64q62 -82 172 -82q76 0 120 43.5t44 125.5v34h-1q-25 -34 -66.5 -54t-93.5 -20q-73 0 -129.5 33.5t-87 91t-30.5 128.5t30.5 128.5t87 91t129.5 33.5q54 0 96 -20.5t67 -56.5h1q5 24 18 69h75q-4 -54 -4 -137v-318q0 -129 -70.5 -191
t-189.5 -62q-70 0 -132.5 26zM403.5 130q44.5 48 44.5 125q0 78 -44 125.5t-116 47.5q-46 0 -81.5 -23t-55 -62.5t-19.5 -87.5t19.5 -87.5t55 -62.5t81.5 -23q71 0 115.5 48zM196 607.5q-41 33.5 -47 92.5h75q5 -27 24.5 -42.5t52.5 -15.5t52.5 15.5t24.5 42.5h75
q-6 -59 -47 -92.5t-105 -33.5t-105 33.5z" />
    <glyph glyph-name="gdotaccent.aalt" horiz-adv-x="610" 
d="M147.5 -182q-62.5 26 -101.5 73l66 64q62 -82 172 -82q76 0 120 43.5t44 125.5v34h-1q-25 -34 -66.5 -54t-93.5 -20q-73 0 -129.5 33.5t-87 91t-30.5 128.5t30.5 128.5t87 91t129.5 33.5q54 0 96 -20.5t67 -56.5h1q5 24 18 69h75q-4 -54 -4 -137v-318q0 -129 -70.5 -191
t-189.5 -62q-70 0 -132.5 26zM403.5 130q44.5 48 44.5 125q0 78 -44 125.5t-116 47.5q-46 0 -81.5 -23t-55 -62.5t-19.5 -87.5t19.5 -87.5t55 -62.5t81.5 -23q71 0 115.5 48zM263 600.5q-15 14.5 -15 37.5q0 24 15 39t38 15t38 -15t15 -39q0 -23 -15 -37.5t-38 -14.5
t-38 14.5z" />
    <glyph glyph-name="gcommaaccent.ss03" horiz-adv-x="610" 
d="M147.5 -182q-62.5 26 -101.5 73l66 64q62 -82 172 -82q76 0 120 43.5t44 125.5v34h-1q-25 -34 -66.5 -54t-93.5 -20q-73 0 -129.5 33.5t-87 91t-30.5 128.5t30.5 128.5t87 91t129.5 33.5q54 0 96 -20.5t67 -56.5h1q5 24 18 69h75q-4 -54 -4 -137v-318q0 -129 -70.5 -191
t-189.5 -62q-70 0 -132.5 26zM403.5 130q44.5 48 44.5 125q0 78 -44 125.5t-116 47.5q-46 0 -81.5 -23t-55 -62.5t-19.5 -87.5t19.5 -87.5t55 -62.5t81.5 -23q71 0 115.5 48zM315 734h81l-48 -146h-105z" />
    <glyph glyph-name="t.aalt" horiz-adv-x="397" 
d="M114 119v303h-8q-24 0 -84 -3v84q29 -3 85 -3h7v51q0 65 -4 119h100q-4 -54 -4 -119v-51h59q82 0 121 3v-85q-52 4 -121 4h-59v-303q0 -65 4 -119h-100q4 54 4 119z" />
    <glyph glyph-name="tcommaaccent.ss04" horiz-adv-x="397" 
d="M114 119v303h-8q-24 0 -84 -3v84q29 -3 85 -3h7v51q0 65 -4 119h100q-4 -54 -4 -119v-51h59q82 0 121 3v-85q-52 4 -121 4h-59v-303q0 -65 4 -119h-100q4 54 4 119zM78 -185v60h1q29 -16 58 -16q17 0 27 8.5t10 23.5q0 13 -10.5 20.5t-28.5 7.5q-13 0 -23 -2h-1l23 83h55
l-10 -36q60 -13 60 -72q0 -43 -26 -66t-70 -23q-40 0 -65 12z" />
    <glyph glyph-name="tcaron.ss04" horiz-adv-x="397" 
d="M114 119v303h-8q-24 0 -84 -3v84q29 -3 85 -3h7v51q0 65 -4 119h100q-4 -54 -4 -119v-51h59q82 0 121 3v-85q-52 4 -121 4h-59v-303q0 -65 4 -119h-100q4 54 4 119zM306 751h105l-72 -146h-81z" />
    <glyph glyph-name="tbar.aalt" horiz-adv-x="444" 
d="M225 422v-110h63q78 0 117 3v-84q-52 4 -117 4h-63v-116q0 -65 4 -119h-100q4 54 4 119v116q-70 -2 -92 -4v84q32 -3 92 -3v110h-8q-24 0 -84 -3v84q29 -3 85 -3h7v51q0 65 -4 119h100q-4 -54 -4 -119v-51h59q82 0 121 3v-85q-52 4 -121 4h-59z" />
    <glyph glyph-name="uni021B.ss04" horiz-adv-x="397" 
d="M114 119v303h-8q-24 0 -84 -3v84q29 -3 85 -3h7v51q0 65 -4 119h100q-4 -54 -4 -119v-51h59q82 0 121 3v-85q-52 4 -121 4h-59v-303q0 -65 4 -119h-100q4 54 4 119zM113 -54h105l-72 -146h-81z" />
    <glyph glyph-name="y.aalt" horiz-adv-x="485" 
d="M53.5 -205q-18.5 3 -30.5 8v87q29 -18 59 -18q31 0 50 18t33 56l36 94l-164 406q-13 32 -28 53v1h108q-1 -3 -1 -9q0 -14 9 -37l122 -313h1l112 313q11 31 9 46h107v-1q-2 -3 -12 -19t-17 -34l-193 -504q-31 -80 -70.5 -115t-94.5 -35q-17 0 -35.5 3z" />
    <glyph glyph-name="yacute.ss05" horiz-adv-x="485" 
d="M53.5 -205q-18.5 3 -30.5 8v87q29 -18 59 -18q31 0 50 18t33 56l36 94l-164 406q-13 32 -28 53v1h108q-1 -3 -1 -9q0 -14 9 -37l122 -313h1l112 313q11 31 9 46h107v-1q-2 -3 -12 -19t-17 -34l-193 -504q-31 -80 -70.5 -115t-94.5 -35q-17 0 -35.5 3zM275 700h134
l-131 -112h-88z" />
    <glyph glyph-name="ydieresis.aalt" horiz-adv-x="485" 
d="M53.5 -205q-18.5 3 -30.5 8v87q29 -18 59 -18q31 0 50 18t33 56l36 94l-164 406q-13 32 -28 53v1h108q-1 -3 -1 -9q0 -14 9 -37l122 -313h1l112 313q11 31 9 46h107v-1q-2 -3 -12 -19t-17 -34l-193 -504q-31 -80 -70.5 -115t-94.5 -35q-17 0 -35.5 3zM108.5 602
q-14.5 14 -14.5 36q0 23 14 37.5t37 14.5q24 0 38.5 -14.5t14.5 -37.5t-14.5 -36.5t-38.5 -13.5q-22 0 -36.5 14zM300.5 602q-14.5 14 -14.5 36q0 23 14 37.5t37 14.5q24 0 38.5 -14.5t14.5 -37.5t-14.5 -36.5t-38.5 -13.5q-22 0 -36.5 14z" />
    <glyph glyph-name="ycircumflex.ss05" horiz-adv-x="485" 
d="M53.5 -205q-18.5 3 -30.5 8v87q29 -18 59 -18q31 0 50 18t33 56l36 94l-164 406q-13 32 -28 53v1h108q-1 -3 -1 -9q0 -14 9 -37l122 -313h1l112 313q11 31 9 46h107v-1q-2 -3 -12 -19t-17 -34l-193 -504q-31 -80 -70.5 -115t-94.5 -35q-17 0 -35.5 3zM191 700h101
l115 -112h-95l-70 63l-71 -63h-95z" />
    <glyph glyph-name="ygrave.ss05" horiz-adv-x="485" 
d="M53.5 -205q-18.5 3 -30.5 8v87q29 -18 59 -18q31 0 50 18t33 56l36 94l-164 406q-13 32 -28 53v1h108q-1 -3 -1 -9q0 -14 9 -37l122 -313h1l112 313q11 31 9 46h107v-1q-2 -3 -12 -19t-17 -34l-193 -504q-31 -80 -70.5 -115t-94.5 -35q-17 0 -35.5 3zM75 700h134l85 -112
h-88z" />
    <glyph glyph-name="G.aalt" horiz-adv-x="786" 
d="M224 37.5q-83 45.5 -131.5 127t-48.5 186.5q0 101 48 183t131 129t183 47q90 0 155.5 -27t106.5 -64v-131h-1q-39 58 -103 99t-158 41q-75 0 -135 -36.5t-94.5 -100t-34.5 -140.5q0 -78 34.5 -141.5t95 -99.5t135.5 -36q72 0 126.5 30t84.5 82t33 116h-100q-24 0 -68 -2
q-32 -2 -46 -2v90q15 0 45 -2q46 -2 68 -2h196v-37q0 -113 -44.5 -193.5t-121.5 -121t-173 -40.5q-100 0 -183 45.5z" />
    <glyph glyph-name="Gcircumflex.ss06" horiz-adv-x="786" 
d="M224 37.5q-83 45.5 -131.5 127t-48.5 186.5q0 101 48 183t131 129t183 47q90 0 155.5 -27t106.5 -64v-131h-1q-39 58 -103 99t-158 41q-75 0 -135 -36.5t-94.5 -100t-34.5 -140.5q0 -78 34.5 -141.5t95 -99.5t135.5 -36q72 0 126.5 30t84.5 82t33 116h-100q-24 0 -68 -2
q-32 -2 -46 -2v90q15 0 45 -2q46 -2 68 -2h196v-37q0 -113 -44.5 -193.5t-121.5 -121t-173 -40.5q-100 0 -183 45.5zM354 900h101l115 -112h-95l-70 63l-71 -63h-95z" />
    <glyph glyph-name="Gbreve.ss06" horiz-adv-x="786" 
d="M224 37.5q-83 45.5 -131.5 127t-48.5 186.5q0 101 48 183t131 129t183 47q90 0 155.5 -27t106.5 -64v-131h-1q-39 58 -103 99t-158 41q-75 0 -135 -36.5t-94.5 -100t-34.5 -140.5q0 -78 34.5 -141.5t95 -99.5t135.5 -36q72 0 126.5 30t84.5 82t33 116h-100q-24 0 -68 -2
q-32 -2 -46 -2v90q15 0 45 -2q46 -2 68 -2h196v-37q0 -113 -44.5 -193.5t-121.5 -121t-173 -40.5q-100 0 -183 45.5zM300 807.5q-41 33.5 -47 92.5h75q5 -27 24.5 -42.5t52.5 -15.5t52.5 15.5t24.5 42.5h75q-6 -59 -47 -92.5t-105 -33.5t-105 33.5z" />
    <glyph glyph-name="Gdotaccent.aalt" horiz-adv-x="786" 
d="M224 37.5q-83 45.5 -131.5 127t-48.5 186.5q0 101 48 183t131 129t183 47q90 0 155.5 -27t106.5 -64v-131h-1q-39 58 -103 99t-158 41q-75 0 -135 -36.5t-94.5 -100t-34.5 -140.5q0 -78 34.5 -141.5t95 -99.5t135.5 -36q72 0 126.5 30t84.5 82t33 116h-100q-24 0 -68 -2
q-32 -2 -46 -2v90q15 0 45 -2q46 -2 68 -2h196v-37q0 -113 -44.5 -193.5t-121.5 -121t-173 -40.5q-100 0 -183 45.5zM367 800.5q-15 14.5 -15 37.5q0 24 15 39t38 15t38 -15t15 -39q0 -23 -15 -37.5t-38 -14.5t-38 14.5z" />
    <glyph glyph-name="Gcommaaccent.ss06" horiz-adv-x="786" 
d="M224 37.5q-83 45.5 -131.5 127t-48.5 186.5q0 101 48 183t131 129t183 47q90 0 155.5 -27t106.5 -64v-131h-1q-39 58 -103 99t-158 41q-75 0 -135 -36.5t-94.5 -100t-34.5 -140.5q0 -78 34.5 -141.5t95 -99.5t135.5 -36q72 0 126.5 30t84.5 82t33 116h-100q-24 0 -68 -2
q-32 -2 -46 -2v90q15 0 45 -2q46 -2 68 -2h196v-37q0 -113 -44.5 -193.5t-121.5 -121t-173 -40.5q-100 0 -183 45.5zM358 -54h105l-72 -146h-81z" />
    <glyph glyph-name="M.aalt" horiz-adv-x="941" 
d="M59 119l80 462q6 39 6 73q0 22 -2 46h131l198 -574h1l194 574h132q-2 -26 -2 -51q0 -37 5 -68l80 -462q15 -84 24 -119h-104q-9 77 -16 119l-77 442h-1l-190 -561h-94l-197 563h-1l-77 -444q-14 -79 -17 -119h-96z" />
    <glyph glyph-name="Q.aalt" horiz-adv-x="809" 
d="M856.5 -176.5q-82.5 18.5 -181.5 49.5q-78 24 -129 46t-121 56l-35 17q-97 3 -176 51.5t-124.5 129t-45.5 178.5q0 100 47.5 182t130 129.5t182.5 47.5q101 0 183.5 -47t130 -129.5t47.5 -182.5q0 -80 -30.5 -149t-85 -118.5t-126.5 -72.5v-1q84 -43 199 -76
q109 -31 187.5 -42.5t188.5 -16.5l-57 -86q-102 16 -184.5 34.5zM537 111.5q60 36.5 95 100t35 139.5t-35 139.5t-95 100t-133 36.5q-72 0 -132 -36.5t-95 -100t-35 -139.5t35 -139.5t95 -100t132 -36.5q73 0 133 36.5z" />
    <glyph glyph-name="W.aalt" horiz-adv-x="1043" 
d="M236 46l-201 601q-11 33 -25 52v1h110q1 -9 15 -53l165 -526h1l155 526q9 31 13 53h105q4 -22 13 -53l155 -525h1l165 525q13 40 14 53h111v-1q-14 -18 -25 -52l-201 -601q-9 -25 -13 -46h-99q-5 26 -11 46l-162 554h-1l-162 -554q-6 -20 -11 -46h-99q-4 21 -13 46z" />
    <glyph glyph-name="Wcircumflex.ss09" horiz-adv-x="1043" 
d="M236 46l-201 601q-11 33 -25 52v1h110q1 -9 15 -53l165 -526h1l155 526q9 31 13 53h105q4 -22 13 -53l155 -525h1l165 525q13 40 14 53h111v-1q-14 -18 -25 -52l-201 -601q-9 -25 -13 -46h-99q-5 26 -11 46l-162 554h-1l-162 -554q-6 -20 -11 -46h-99q-4 21 -13 46z
M471 900h101l115 -112h-95l-70 63l-71 -63h-95z" />
    <glyph glyph-name="Wgrave.ss09" horiz-adv-x="1043" 
d="M236 46l-201 601q-11 33 -25 52v1h110q1 -9 15 -53l165 -526h1l155 526q9 31 13 53h105q4 -22 13 -53l155 -525h1l165 525q13 40 14 53h111v-1q-14 -18 -25 -52l-201 -601q-9 -25 -13 -46h-99q-5 26 -11 46l-162 554h-1l-162 -554q-6 -20 -11 -46h-99q-4 21 -13 46z
M355 900h134l85 -112h-88z" />
    <glyph glyph-name="Wacute.ss09" horiz-adv-x="1043" 
d="M236 46l-201 601q-11 33 -25 52v1h110q1 -9 15 -53l165 -526h1l155 526q9 31 13 53h105q4 -22 13 -53l155 -525h1l165 525q13 40 14 53h111v-1q-14 -18 -25 -52l-201 -601q-9 -25 -13 -46h-99q-5 26 -11 46l-162 554h-1l-162 -554q-6 -20 -11 -46h-99q-4 21 -13 46z
M555 900h134l-131 -112h-88z" />
    <glyph glyph-name="Wdieresis.aalt" horiz-adv-x="1043" 
d="M236 46l-201 601q-11 33 -25 52v1h110q1 -9 15 -53l165 -526h1l155 526q9 31 13 53h105q4 -22 13 -53l155 -525h1l165 525q13 40 14 53h111v-1q-14 -18 -25 -52l-201 -601q-9 -25 -13 -46h-99q-5 26 -11 46l-162 554h-1l-162 -554q-6 -20 -11 -46h-99q-4 21 -13 46z
M388.5 802q-14.5 14 -14.5 36q0 23 14 37.5t37 14.5q24 0 38.5 -14.5t14.5 -37.5t-14.5 -36.5t-38.5 -13.5q-22 0 -36.5 14zM580.5 802q-14.5 14 -14.5 36q0 23 14 37.5t37 14.5q24 0 38.5 -14.5t14.5 -37.5t-14.5 -36.5t-38.5 -13.5q-22 0 -36.5 14z" />
    <glyph glyph-name="ampersand.aalt" horiz-adv-x="670" 
d="M171.5 18.5q-62.5 27.5 -95.5 77t-33 114.5q0 63 33.5 111.5t87.5 73.5v1q-74 54 -74 133q0 56 30 96.5t81.5 61.5t113.5 21q60 0 110.5 -21t68.5 -40v-96h-2q-32 34 -78 55.5t-97 21.5q-63 0 -102 -26.5t-39 -73.5q0 -45 31.5 -72t81.5 -33v-60q-69 -8 -111.5 -48
t-42.5 -104q0 -65 51 -102.5t135 -37.5q80 0 133 37.5t53 104.5q0 38 -14.5 65t-43.5 35q-21 6 -47 8q-25 4 -35 7v88h1q24 -12 58.5 -16t82.5 -4q53 0 87 -2t54 -9v-88h-1q-32 16 -90 19v-1q17 -19 28 -48t11 -60q0 -65 -35 -114t-98 -75.5t-144 -26.5q-87 0 -149.5 27.5z
" />
    <glyph glyph-name="grave.aalt" horiz-adv-x="319" 
d="M7 617l-64 55q-28 23 -34 27v1h140q8 -16 26 -41l24 -32q15 -20 31 -38v-1h-94q-11 12 -29 29z" />
    <glyph glyph-name="macron.aalt" horiz-adv-x="376" 
d="M-62 679q38 -3 116 -3h44q78 0 116 3v-80q-38 3 -116 3h-44q-78 0 -116 -3v80z" />
    <glyph glyph-name="acute.aalt" horiz-adv-x="319" 
d="M-91 589q16 18 31 38l24 32q18 25 26 41h140v-1q-6 -4 -34 -27l-64 -55q-18 -17 -29 -29h-94v1z" />
    <glyph glyph-name="Agrave.aalt" horiz-adv-x="684" 
d="M8 1q18 31 26 51l247 601q15 39 17 47h79q5 -17 17 -47l262 -602l26 -50v-1h-105q-4 8 -8.5 21.5t-12.5 32.5l-57 133h-316l-54 -133q-14 -32 -18 -54h-103v1zM463 270l-128 297l-119 -297h247zM274 817l-64 55q-28 23 -34 27v1h140q8 -16 26 -41l24 -32q15 -20 31 -38
v-1h-94q-11 12 -29 29z" />
    <glyph glyph-name="Aacute.aalt" horiz-adv-x="684" 
d="M8 1q18 31 26 51l247 601q15 39 17 47h79q5 -17 17 -47l262 -602l26 -50v-1h-105q-4 8 -8.5 21.5t-12.5 32.5l-57 133h-316l-54 -133q-14 -32 -18 -54h-103v1zM463 270l-128 297l-119 -297h247zM291 789q16 18 31 38l24 32q18 25 26 41h140v-1q-6 -4 -34 -27l-64 -55
q-18 -17 -29 -29h-94v1z" />
    <glyph glyph-name="Acircumflex.aalt" horiz-adv-x="684" 
d="M8 1q18 31 26 51l247 601q15 39 17 47h79q5 -17 17 -47l262 -602l26 -50v-1h-105q-4 8 -8.5 21.5t-12.5 32.5l-57 133h-316l-54 -133q-14 -32 -18 -54h-103v1zM463 270l-128 297l-119 -297h247zM177 789q12 9 31 28l51 50q19 17 27 33h115q8 -16 27 -33l51 -50
q19 -19 31 -28v-1h-101q-8 14 -26 30l-39 35l-40 -35q-18 -16 -26 -30h-101v1z" />
    <glyph glyph-name="Atilde.aalt" horiz-adv-x="684" 
d="M8 1q18 31 26 51l247 601q15 39 17 47h79q5 -17 17 -47l262 -602l26 -50v-1h-105q-4 8 -8.5 21.5t-12.5 32.5l-57 133h-316l-54 -133q-14 -32 -18 -54h-103v1zM463 270l-128 297l-119 -297h247zM350 808l-16 11q-7 4 -17 11.5t-17 10.5t-14 3q-14 0 -22.5 -8t-8.5 -25
l1 -11h-77l7 25q10 41 34.5 64.5t61.5 23.5q30 0 56 -18l16 -11q4 -3 15 -11t18 -11t15 -3q14 0 22.5 8t8.5 25l-1 11h77l-7 -25q-10 -40 -34.5 -64t-61.5 -24q-30 0 -56 18z" />
    <glyph glyph-name="Egrave.aalt" horiz-adv-x="560" 
d="M83 119v462q0 67 -4 119h425l3 -86l-113 4h-214q-1 -12 -1 -38v-186h182l113 4v-90l-114 4h-181v-191q0 -26 1 -38h219l113 4l-3 -87h-430q4 54 4 119zM226 817l-64 55q-28 23 -34 27v1h140q8 -16 26 -41l24 -32q15 -20 31 -38v-1h-94q-11 12 -29 29z" />
    <glyph glyph-name="Eacute.aalt" horiz-adv-x="560" 
d="M83 119v462q0 67 -4 119h425l3 -86l-113 4h-214q-1 -12 -1 -38v-186h182l113 4v-90l-114 4h-181v-191q0 -26 1 -38h219l113 4l-3 -87h-430q4 54 4 119zM243 789q16 18 31 38l24 32q18 25 26 41h140v-1q-6 -4 -34 -27l-64 -55q-18 -17 -29 -29h-94v1z" />
    <glyph glyph-name="Ecircumflex.aalt" horiz-adv-x="560" 
d="M83 119v462q0 67 -4 119h425l3 -86l-113 4h-214q-1 -12 -1 -38v-186h182l113 4v-90l-114 4h-181v-191q0 -26 1 -38h219l113 4l-3 -87h-430q4 54 4 119zM129 789q12 9 31 28l51 50q19 17 27 33h115q8 -16 27 -33l51 -50q19 -19 31 -28v-1h-101q-8 14 -26 30l-39 35
l-40 -35q-18 -16 -26 -30h-101v1z" />
    <glyph glyph-name="Igrave.aalt" horiz-adv-x="261" 
d="M83 119v462q0 67 -4 119h103q-4 -52 -4 -119v-462q0 -65 4 -119h-103q4 54 4 119zM61 817l-64 55q-28 23 -34 27v1h140q8 -16 26 -41l24 -32q15 -20 31 -38v-1h-94q-11 12 -29 29z" />
    <glyph glyph-name="Iacute.aalt" horiz-adv-x="261" 
d="M83 119v462q0 67 -4 119h103q-4 -52 -4 -119v-462q0 -65 4 -119h-103q4 54 4 119zM78 789q16 18 31 38l24 32q18 25 26 41h140v-1q-6 -4 -34 -27l-64 -55q-18 -17 -29 -29h-94v1z" />
    <glyph glyph-name="Icircumflex.aalt" horiz-adv-x="261" 
d="M83 119v462q0 67 -4 119h103q-4 -52 -4 -119v-462q0 -65 4 -119h-103q4 54 4 119zM-36 789q12 9 31 28l51 50q19 17 27 33h115q8 -16 27 -33l51 -50q19 -19 31 -28v-1h-101q-8 14 -26 30l-39 35l-40 -35q-18 -16 -26 -30h-101v1z" />
    <glyph glyph-name="Ntilde.aalt" horiz-adv-x="739" 
d="M82 48q2 48 2 71v528q0 17 -14 53h96l405 -539h1v421q0 22 -2 70q-2 32 -2 48h92q0 -16 -2 -48q-2 -48 -2 -70v-463q0 -23 2 -71q2 -32 2 -48h-84l-407 545h-1v-426q0 -50 3 -119h-91q0 16 2 48zM371 808l-16 11q-7 4 -17 11.5t-17 10.5t-14 3q-14 0 -22.5 -8t-8.5 -25
l1 -11h-77l7 25q10 41 34.5 64.5t61.5 23.5q30 0 56 -18l16 -11q4 -3 15 -11t18 -11t15 -3q14 0 22.5 8t8.5 25l-1 11h77l-7 -25q-10 -40 -34.5 -64t-61.5 -24q-30 0 -56 18z" />
    <glyph glyph-name="Ograve.aalt" horiz-adv-x="809" 
d="M221.5 39.5q-82.5 47.5 -130 129.5t-47.5 182t47.5 182t130 129.5t182.5 47.5q101 0 183.5 -47t130 -129.5t47.5 -182.5q0 -101 -47.5 -183t-130 -129t-183.5 -47q-100 0 -182.5 47.5zM537 111.5q60 36.5 95 100t35 139.5t-35 139.5t-95 100t-133 36.5q-72 0 -132 -36.5
t-95 -100t-35 -139.5t35 -139.5t95 -100t132 -36.5q73 0 133 36.5zM334 817l-64 55q-28 23 -34 27v1h140q8 -16 26 -41l24 -32q15 -20 31 -38v-1h-94q-11 12 -29 29z" />
    <glyph glyph-name="Oacute.aalt" horiz-adv-x="809" 
d="M221.5 39.5q-82.5 47.5 -130 129.5t-47.5 182t47.5 182t130 129.5t182.5 47.5q101 0 183.5 -47t130 -129.5t47.5 -182.5q0 -101 -47.5 -183t-130 -129t-183.5 -47q-100 0 -182.5 47.5zM537 111.5q60 36.5 95 100t35 139.5t-35 139.5t-95 100t-133 36.5q-72 0 -132 -36.5
t-95 -100t-35 -139.5t35 -139.5t95 -100t132 -36.5q73 0 133 36.5zM351 789q16 18 31 38l24 32q18 25 26 41h140v-1q-6 -4 -34 -27l-64 -55q-18 -17 -29 -29h-94v1z" />
    <glyph glyph-name="Ocircumflex.aalt" horiz-adv-x="809" 
d="M221.5 39.5q-82.5 47.5 -130 129.5t-47.5 182t47.5 182t130 129.5t182.5 47.5q101 0 183.5 -47t130 -129.5t47.5 -182.5q0 -101 -47.5 -183t-130 -129t-183.5 -47q-100 0 -182.5 47.5zM537 111.5q60 36.5 95 100t35 139.5t-35 139.5t-95 100t-133 36.5q-72 0 -132 -36.5
t-95 -100t-35 -139.5t35 -139.5t95 -100t132 -36.5q73 0 133 36.5zM237 789q12 9 31 28l51 50q19 17 27 33h115q8 -16 27 -33l51 -50q19 -19 31 -28v-1h-101q-8 14 -26 30l-39 35l-40 -35q-18 -16 -26 -30h-101v1z" />
    <glyph glyph-name="Otilde.aalt" horiz-adv-x="809" 
d="M221.5 39.5q-82.5 47.5 -130 129.5t-47.5 182t47.5 182t130 129.5t182.5 47.5q101 0 183.5 -47t130 -129.5t47.5 -182.5q0 -101 -47.5 -183t-130 -129t-183.5 -47q-100 0 -182.5 47.5zM537 111.5q60 36.5 95 100t35 139.5t-35 139.5t-95 100t-133 36.5q-72 0 -132 -36.5
t-95 -100t-35 -139.5t35 -139.5t95 -100t132 -36.5q73 0 133 36.5zM410 808l-16 11q-7 4 -17 11.5t-17 10.5t-14 3q-14 0 -22.5 -8t-8.5 -25l1 -11h-77l7 25q10 41 34.5 64.5t61.5 23.5q30 0 56 -18l16 -11q4 -3 15 -11t18 -11t15 -3q14 0 22.5 8t8.5 25l-1 11h77l-7 -25
q-10 -40 -34.5 -64t-61.5 -24q-30 0 -56 18z" />
    <glyph glyph-name="Ugrave.aalt" horiz-adv-x="709" 
d="M145.5 67.5q-69.5 75.5 -69.5 217.5v296q0 54 -5 119h105q-4 -52 -4 -119v-294q0 -105 43.5 -158.5t136.5 -53.5q91 0 138 55.5t47 156.5v294q0 18 -3 96l-1 23h104q-4 -52 -4 -119v-296q0 -140 -72 -216.5t-209 -76.5t-206.5 75.5zM284 817l-64 55q-28 23 -34 27v1h140
q8 -16 26 -41l24 -32q15 -20 31 -38v-1h-94q-11 12 -29 29z" />
    <glyph glyph-name="Uacute.aalt" horiz-adv-x="709" 
d="M145.5 67.5q-69.5 75.5 -69.5 217.5v296q0 54 -5 119h105q-4 -52 -4 -119v-294q0 -105 43.5 -158.5t136.5 -53.5q91 0 138 55.5t47 156.5v294q0 18 -3 96l-1 23h104q-4 -52 -4 -119v-296q0 -140 -72 -216.5t-209 -76.5t-206.5 75.5zM301 789q16 18 31 38l24 32
q18 25 26 41h140v-1q-6 -4 -34 -27l-64 -55q-18 -17 -29 -29h-94v1z" />
    <glyph glyph-name="Ucircumflex.aalt" horiz-adv-x="709" 
d="M145.5 67.5q-69.5 75.5 -69.5 217.5v296q0 54 -5 119h105q-4 -52 -4 -119v-294q0 -105 43.5 -158.5t136.5 -53.5q91 0 138 55.5t47 156.5v294q0 18 -3 96l-1 23h104q-4 -52 -4 -119v-296q0 -140 -72 -216.5t-209 -76.5t-206.5 75.5zM187 789q12 9 31 28l51 50
q19 17 27 33h115q8 -16 27 -33l51 -50q19 -19 31 -28v-1h-101q-8 14 -26 30l-39 35l-40 -35q-18 -16 -26 -30h-101v1z" />
    <glyph glyph-name="Yacute.aalt" horiz-adv-x="622" 
d="M264 119v179l-215 352q-7 12 -31 50h105q17 -36 28 -55l161 -267h1l161 266q20 32 29 56h101q-3 -5 -11 -17t-21 -33l-212 -352v-179q0 -65 4 -119h-104q4 54 4 119zM261 789q16 18 31 38l24 32q18 25 26 41h140v-1q-6 -4 -34 -27l-64 -55q-18 -17 -29 -29h-94v1z" />
    <glyph glyph-name="agrave.ss11" horiz-adv-x="506" 
d="M83 31.5q-48 39.5 -48 107.5q0 62 42 98t120 44l155 16v32q0 101 -105 101q-45 0 -91 -20t-83 -49h-2v95q29 19 81 35.5t97 16.5q194 0 194 -177v-213v-34q0 -29 2 -47t9 -37h-92q-5 12 -9 49h-1q-22 -26 -59.5 -41.5t-89.5 -15.5q-72 0 -120 39.5zM282 77q30 13 50 40.5
t20 68.5v38l-125 -13q-47 -5 -72.5 -24.5t-25.5 -47.5q0 -34 24 -54.5t67 -20.5q32 0 62 13zM177 617l-64 55q-28 23 -34 27v1h140q8 -16 26 -41l24 -32q15 -20 31 -38v-1h-94q-11 12 -29 29z" />
    <glyph glyph-name="aacute.ss11" horiz-adv-x="506" 
d="M83 31.5q-48 39.5 -48 107.5q0 62 42 98t120 44l155 16v32q0 101 -105 101q-45 0 -91 -20t-83 -49h-2v95q29 19 81 35.5t97 16.5q194 0 194 -177v-213v-34q0 -29 2 -47t9 -37h-92q-5 12 -9 49h-1q-22 -26 -59.5 -41.5t-89.5 -15.5q-72 0 -120 39.5zM282 77q30 13 50 40.5
t20 68.5v38l-125 -13q-47 -5 -72.5 -24.5t-25.5 -47.5q0 -34 24 -54.5t67 -20.5q32 0 62 13zM194 589q16 18 31 38l24 32q18 25 26 41h140v-1q-6 -4 -34 -27l-64 -55q-18 -17 -29 -29h-94v1z" />
    <glyph glyph-name="acircumflex.ss11" horiz-adv-x="506" 
d="M83 31.5q-48 39.5 -48 107.5q0 62 42 98t120 44l155 16v32q0 101 -105 101q-45 0 -91 -20t-83 -49h-2v95q29 19 81 35.5t97 16.5q194 0 194 -177v-213v-34q0 -29 2 -47t9 -37h-92q-5 12 -9 49h-1q-22 -26 -59.5 -41.5t-89.5 -15.5q-72 0 -120 39.5zM282 77q30 13 50 40.5
t20 68.5v38l-125 -13q-47 -5 -72.5 -24.5t-25.5 -47.5q0 -34 24 -54.5t67 -20.5q32 0 62 13zM80 589q12 9 31 28l51 50q19 17 27 33h115q8 -16 27 -33l51 -50q19 -19 31 -28v-1h-101q-8 14 -26 30l-39 35l-40 -35q-18 -16 -26 -30h-101v1z" />
    <glyph glyph-name="atilde.ss11" horiz-adv-x="506" 
d="M83 31.5q-48 39.5 -48 107.5q0 62 42 98t120 44l155 16v32q0 101 -105 101q-45 0 -91 -20t-83 -49h-2v95q29 19 81 35.5t97 16.5q194 0 194 -177v-213v-34q0 -29 2 -47t9 -37h-92q-5 12 -9 49h-1q-22 -26 -59.5 -41.5t-89.5 -15.5q-72 0 -120 39.5zM282 77q30 13 50 40.5
t20 68.5v38l-125 -13q-47 -5 -72.5 -24.5t-25.5 -47.5q0 -34 24 -54.5t67 -20.5q32 0 62 13zM253 608l-16 11q-7 4 -17 11.5t-17 10.5t-14 3q-14 0 -22.5 -8t-8.5 -25l1 -11h-77l7 25q10 41 34.5 64.5t61.5 23.5q30 0 56 -18l16 -11q4 -3 15 -11t18 -11t15 -3q14 0 22.5 8
t8.5 25l-1 11h77l-7 -25q-10 -40 -34.5 -64t-61.5 -24q-30 0 -56 18z" />
    <glyph glyph-name="egrave.ss11" horiz-adv-x="555" 
d="M161 24q-57 32 -89 90.5t-32 135.5q0 73 31.5 132t87 92.5t124.5 33.5q65 0 118.5 -31.5t85 -90t31.5 -136.5q0 -22 -3 -36h-384q8 -64 52.5 -102.5t109.5 -38.5q46 0 82 18t60 50l58 -65q-86 -84 -203 -84q-72 0 -129 32zM428 290q-7 67 -47.5 104t-97.5 37
q-61 0 -102 -39.5t-49 -101.5h296zM215 617l-64 55q-28 23 -34 27v1h140q8 -16 26 -41l24 -32q15 -20 31 -38v-1h-94q-11 12 -29 29z" />
    <glyph glyph-name="eacute.ss11" horiz-adv-x="555" 
d="M161 24q-57 32 -89 90.5t-32 135.5q0 73 31.5 132t87 92.5t124.5 33.5q65 0 118.5 -31.5t85 -90t31.5 -136.5q0 -22 -3 -36h-384q8 -64 52.5 -102.5t109.5 -38.5q46 0 82 18t60 50l58 -65q-86 -84 -203 -84q-72 0 -129 32zM428 290q-7 67 -47.5 104t-97.5 37
q-61 0 -102 -39.5t-49 -101.5h296zM232 589q16 18 31 38l24 32q18 25 26 41h140v-1q-6 -4 -34 -27l-64 -55q-18 -17 -29 -29h-94v1z" />
    <glyph glyph-name="ecircumflex.ss11" horiz-adv-x="555" 
d="M161 24q-57 32 -89 90.5t-32 135.5q0 73 31.5 132t87 92.5t124.5 33.5q65 0 118.5 -31.5t85 -90t31.5 -136.5q0 -22 -3 -36h-384q8 -64 52.5 -102.5t109.5 -38.5q46 0 82 18t60 50l58 -65q-86 -84 -203 -84q-72 0 -129 32zM428 290q-7 67 -47.5 104t-97.5 37
q-61 0 -102 -39.5t-49 -101.5h296zM118 589q12 9 31 28l51 50q19 17 27 33h115q8 -16 27 -33l51 -50q19 -19 31 -28v-1h-101q-8 14 -26 30l-39 35l-40 -35q-18 -16 -26 -30h-101v1z" />
    <glyph glyph-name="igrave.aalt" horiz-adv-x="232" 
d="M67 25q3 81 3 94v262q0 18 -3 96l-1 23h100q-4 -52 -4 -119v-262q0 -65 4 -119h-100zM46 617l-64 55q-28 23 -34 27v1h140q8 -16 26 -41l24 -32q15 -20 31 -38v-1h-94q-11 12 -29 29z" />
    <glyph glyph-name="iacute.aalt" horiz-adv-x="232" 
d="M67 25q3 81 3 94v262q0 18 -3 96l-1 23h100q-4 -52 -4 -119v-262q0 -65 4 -119h-100zM63 589q16 18 31 38l24 32q18 25 26 41h140v-1q-6 -4 -34 -27l-64 -55q-18 -17 -29 -29h-94v1z" />
    <glyph glyph-name="icircumflex.aalt" horiz-adv-x="232" 
d="M67 25q3 81 3 94v262q0 18 -3 96l-1 23h100q-4 -52 -4 -119v-262q0 -65 4 -119h-100zM-51 589q12 9 31 28l51 50q19 17 27 33h115q8 -16 27 -33l51 -50q19 -19 31 -28v-1h-101q-8 14 -26 30l-39 35l-40 -35q-18 -16 -26 -30h-101v1z" />
    <glyph glyph-name="ntilde.aalt" horiz-adv-x="557" 
d="M67 25q3 81 3 94v262q0 18 -3 96l-1 23h82l6 -59h1q22 32 61 49.5t79 17.5q58 0 103 -23.5t69.5 -65t24.5 -93.5v-207q0 -65 4 -119h-100q4 54 4 119v179q0 63 -34 96.5t-84 33.5q-48 0 -84 -32.5t-36 -86.5v-190q0 -65 4 -119h-100zM284 608l-16 11q-7 4 -17 11.5
t-17 10.5t-14 3q-14 0 -22.5 -8t-8.5 -25l1 -11h-77l7 25q10 41 34.5 64.5t61.5 23.5q30 0 56 -18l16 -11q4 -3 15 -11t18 -11t15 -3q14 0 22.5 8t8.5 25l-1 11h77l-7 -25q-10 -40 -34.5 -64t-61.5 -24q-30 0 -56 18z" />
    <glyph glyph-name="ograve.aalt" horiz-adv-x="596" 
d="M166.5 26q-59.5 34 -93.5 93t-34 131t34 131t93.5 93t131.5 34t131.5 -34t93.5 -93t34 -131q0 -73 -34 -131.5t-93 -92.5t-132 -34q-72 0 -131.5 34zM383 96q38 24 60 64.5t22 89.5t-22 89.5t-60 64.5t-85 24t-85 -24t-60 -64.5t-22 -89.5t22 -89.5t60 -64.5t85 -24
t85 24zM228 617l-64 55q-28 23 -34 27v1h140q8 -16 26 -41l24 -32q15 -20 31 -38v-1h-94q-11 12 -29 29z" />
    <glyph glyph-name="oacute.aalt" horiz-adv-x="596" 
d="M166.5 26q-59.5 34 -93.5 93t-34 131t34 131t93.5 93t131.5 34t131.5 -34t93.5 -93t34 -131q0 -73 -34 -131.5t-93 -92.5t-132 -34q-72 0 -131.5 34zM383 96q38 24 60 64.5t22 89.5t-22 89.5t-60 64.5t-85 24t-85 -24t-60 -64.5t-22 -89.5t22 -89.5t60 -64.5t85 -24
t85 24zM245 589q16 18 31 38l24 32q18 25 26 41h140v-1q-6 -4 -34 -27l-64 -55q-18 -17 -29 -29h-94v1z" />
    <glyph glyph-name="ocircumflex.aalt" horiz-adv-x="596" 
d="M166.5 26q-59.5 34 -93.5 93t-34 131t34 131t93.5 93t131.5 34t131.5 -34t93.5 -93t34 -131q0 -73 -34 -131.5t-93 -92.5t-132 -34q-72 0 -131.5 34zM383 96q38 24 60 64.5t22 89.5t-22 89.5t-60 64.5t-85 24t-85 -24t-60 -64.5t-22 -89.5t22 -89.5t60 -64.5t85 -24
t85 24zM131 589q12 9 31 28l51 50q19 17 27 33h115q8 -16 27 -33l51 -50q19 -19 31 -28v-1h-101q-8 14 -26 30l-39 35l-40 -35q-18 -16 -26 -30h-101v1z" />
    <glyph glyph-name="otilde.aalt" horiz-adv-x="596" 
d="M166.5 26q-59.5 34 -93.5 93t-34 131t34 131t93.5 93t131.5 34t131.5 -34t93.5 -93t34 -131q0 -73 -34 -131.5t-93 -92.5t-132 -34q-72 0 -131.5 34zM383 96q38 24 60 64.5t22 89.5t-22 89.5t-60 64.5t-85 24t-85 -24t-60 -64.5t-22 -89.5t22 -89.5t60 -64.5t85 -24
t85 24zM304 608l-16 11q-7 4 -17 11.5t-17 10.5t-14 3q-14 0 -22.5 -8t-8.5 -25l1 -11h-77l7 25q10 41 34.5 64.5t61.5 23.5q30 0 56 -18l16 -11q4 -3 15 -11t18 -11t15 -3q14 0 22.5 8t8.5 25l-1 11h77l-7 -25q-10 -40 -34.5 -64t-61.5 -24q-30 0 -56 18z" />
    <glyph glyph-name="ugrave.aalt" horiz-adv-x="548" 
d="M116 39.5q-51 47.5 -51 138.5v203q0 13 -3 94l-1 25h100q-4 -54 -4 -119v-182q0 -64 26.5 -95.5t82.5 -31.5t88 31t32 94v184q0 65 -4 119h100q-4 -54 -4 -119v-262q0 -67 4 -119h-82l-6 57h-1q-14 -26 -52.5 -45.5t-79.5 -19.5q-94 0 -145 47.5zM201 617l-64 55
q-28 23 -34 27v1h140q8 -16 26 -41l24 -32q15 -20 31 -38v-1h-94q-11 12 -29 29z" />
    <glyph glyph-name="uacute.aalt" horiz-adv-x="548" 
d="M116 39.5q-51 47.5 -51 138.5v203q0 13 -3 94l-1 25h100q-4 -54 -4 -119v-182q0 -64 26.5 -95.5t82.5 -31.5t88 31t32 94v184q0 65 -4 119h100q-4 -54 -4 -119v-262q0 -67 4 -119h-82l-6 57h-1q-14 -26 -52.5 -45.5t-79.5 -19.5q-94 0 -145 47.5zM218 589q16 18 31 38
l24 32q18 25 26 41h140v-1q-6 -4 -34 -27l-64 -55q-18 -17 -29 -29h-94v1z" />
    <glyph glyph-name="ucircumflex.aalt" horiz-adv-x="548" 
d="M116 39.5q-51 47.5 -51 138.5v203q0 13 -3 94l-1 25h100q-4 -54 -4 -119v-182q0 -64 26.5 -95.5t82.5 -31.5t88 31t32 94v184q0 65 -4 119h100q-4 -54 -4 -119v-262q0 -67 4 -119h-82l-6 57h-1q-14 -26 -52.5 -45.5t-79.5 -19.5q-94 0 -145 47.5zM104 589q12 9 31 28
l51 50q19 17 27 33h115q8 -16 27 -33l51 -50q19 -19 31 -28v-1h-101q-8 14 -26 30l-39 35l-40 -35q-18 -16 -26 -30h-101v1z" />
    <glyph glyph-name="yacute.ss11" horiz-adv-x="485" 
d="M103 -199q1 2 8.5 12.5t14.5 30.5l75 196l-164 406q-13 32 -28 53v1h108q-1 -3 -1 -9q0 -14 9 -37l122 -313h1l112 313q11 31 9 46h107v-1q-2 -3 -12 -19t-17 -34l-231 -605q-5 -13 -5 -23q0 -9 4 -17v-1h-112v1zM189 589q16 18 31 38l24 32q18 25 26 41h140v-1
q-6 -4 -34 -27l-64 -55q-18 -17 -29 -29h-94v1z" />
    <glyph glyph-name="Amacron.aalt" horiz-adv-x="684" 
d="M8 1q18 31 26 51l247 601q15 39 17 47h79q5 -17 17 -47l262 -602l26 -50v-1h-105q-4 8 -8.5 21.5t-12.5 32.5l-57 133h-316l-54 -133q-14 -32 -18 -54h-103v1zM463 270l-128 297l-119 -297h247zM206 879q38 -3 116 -3h44q78 0 116 3v-80q-38 3 -116 3h-44q-78 0 -116 -3
v80z" />
    </font>
</defs>
</svg>
