<?xml version="1.0" standalone="no"?>
<!DOCTYPE svg PUBLIC "-//W3C//DTD SVG 1.1//EN" "http://www.w3.org/Graphics/SVG/1.1/DTD/svg11.dtd" >
<svg>
<metadata>
Created by FontForge 20090914 at Mon Jan 30 15:54:15 2023
 By www-data
&#194;&#169; 2019, Copyright by Pandora A/S. All rights reserved
</metadata>
<defs>
<font id="PanDisplay-Regular" horiz-adv-x="0" >
  <font-face 
    font-family="Pan Display"
    font-weight="400"
    font-stretch="normal"
    units-per-em="1000"
    panose-1="2 11 5 4 2 1 1 1 1 2"
    ascent="800"
    descent="-200"
    x-height="500"
    cap-height="700.001"
    bbox="-598 -211 1123 994"
    underline-thickness="50"
    underline-position="-75"
    unicode-range="U+000D-U+FEFF"
  />
<missing-glyph horiz-adv-x="731" 
d="M640 -120h-550v820h550v-820zM176 618v-654h378v654h-378z" />
    <glyph glyph-name="f_f.liga" unicode="ff" horiz-adv-x="808" 
d="M114 119l-0.000976562 304.004h-5c-16.667 0 -33.834 -0.666992 -51.501 -2s-29.5 -2 -35.5 -2v84c40 -2 68.333 -3 85 -3h7v56c0 67.333 16 117.833 48 151.5s77 50.5 135 50.5c42 0 79.333 -9.66699 112 -29v-90h-1c-17.333 13.333 -34.666 23.166 -51.999 29.499
s-36 9.5 -56 9.5c-29.333 0 -52.333 -10.333 -69 -31s-25 -51.334 -25 -92.001v-55h320v56c0 67.333 16 117.833 48 151.5s77 50.5 135 50.5c42 0 79.333 -9.66699 112 -29v-90h-1c-17.333 13.333 -34.666 23.166 -51.999 29.499s-36 9.5 -56 9.5
c-29.333 0 -52.333 -10.333 -69 -31s-25 -51.334 -25 -92.001v-55h59c54 0 94 1 120 3v-84c-34.667 2.66699 -74.667 4 -120 4h-59v-304c0 -43.333 1.33301 -83 4 -119h-101c3.33301 45.333 5 85 5 119v304h-320v-304c0 -43.333 1.33301 -83 4 -119h-101
c3.33301 45.333 5 85 5 119z" />
    <glyph glyph-name="f_f_i.liga" unicode="ffi" horiz-adv-x="1036" 
d="M114 119l-0.000976562 304.005h-5c-16.667 0 -33.834 -0.666992 -51.501 -2s-29.5 -2 -35.5 -2v84c40 -2 68.333 -3 85 -3h7v56c0 67.333 16 117.833 48 151.5s77 50.5 135 50.5c42 0 79.333 -9.66699 112 -29v-90h-1c-17.333 13.333 -34.666 23.166 -51.999 29.499
s-36 9.5 -56 9.5c-29.333 0 -52.333 -10.333 -69 -31s-25 -51.334 -25 -92.001v-55h320v56c0 67.333 16 117.833 48 151.5s77 50.5 135 50.5c42 0 79.333 -9.66699 112 -29v-90h-1c-17.333 13.333 -34.666 23.166 -51.999 29.499s-36 9.5 -56 9.5
c-29.333 0 -52.333 -10.333 -69 -31s-25 -51.334 -25 -92.001v-55h352c-2.66699 -34.667 -4 -74.334 -4 -119.001v-262c0 -43.333 1.33301 -83 4 -119h-100l1 25c2 54 3 85.333 3 94v262c0 19.333 -0.333008 33.333 -1 42h-255v-304c0 -43.333 1.33301 -83 4 -119h-101
c3.33301 45.333 5 85 5 119v304h-320v-304c0 -43.333 1.33301 -83 4 -119h-101c3.33301 45.333 5 85 5 119zM881.999 600.505c-10 9.66699 -15 22.167 -15 37.5c0 16 5 29 15 39s22.667 15 38 15s28 -5 38 -15s15 -23 15 -39c0 -15.333 -5 -27.833 -15 -37.5
s-22.667 -14.5 -38 -14.5s-28 4.83301 -38 14.5z" />
    <glyph glyph-name="f_f_l.liga" unicode="ffl" horiz-adv-x="1033" 
d="M114 119l-0.000976562 304.004h-5c-16.667 0 -33.834 -0.666992 -51.501 -2s-29.5 -2 -35.5 -2v84c40 -2 68.333 -3 85 -3h7v56c0 67.333 16 117.833 48 151.5s77 50.5 135 50.5c42 0 79.333 -9.66699 112 -29v-90h-1c-17.333 13.333 -34.666 23.166 -51.999 29.499
s-36 9.5 -56 9.5c-29.333 0 -52.333 -10.333 -69 -31s-25 -51.334 -25 -92.001v-55h320v56c0 67.333 16 117.833 48 151.5s77 50.5 135 50.5c42 0 79.333 -9.66699 112 -29v-90h-1c-17.333 13.333 -34.666 23.166 -51.999 29.499s-36 9.5 -56 9.5
c-29.333 0 -52.333 -10.333 -69 -31s-25 -51.334 -25 -92.001v-55h253v132c0 44.667 -1.33301 84.334 -4 119.001h100c-2.66699 -34.667 -4 -74.334 -4 -119.001v-513c0 -43.333 1.33301 -83 4 -119h-100c2.66699 36 4 75.667 4 119v304h-253v-304
c0 -43.333 1.33301 -83 4 -119h-101c3.33301 45.333 5 85 5 119v304h-320v-304c0 -43.333 1.33301 -83 4 -119h-101c3.33301 45.333 5 85 5 119z" />
    <glyph glyph-name="f_i.liga" unicode="fi" horiz-adv-x="624" 
d="M114 119v304.003h-5c-16.667 0 -33.834 -0.666992 -51.501 -2s-29.5 -2 -35.5 -2v84c40 -2 68.333 -3 85 -3h7v56c0 67.333 16 117.833 48 151.5s77 50.5 135 50.5c42 0 79.333 -9.66699 112 -29v-90h-1c-17.333 13.333 -34.666 23.166 -51.999 29.499s-36 9.5 -56 9.5
c-29.333 0 -52.333 -10.333 -69 -31s-25 -51.334 -25 -92.001v-55h352c-2.66699 -34.667 -4 -74.334 -4 -119.001v-262c0 -43.333 1.33301 -83 4 -119h-100l1 25c2 54 3 85.333 3 94v262c0 19.333 -0.333008 33.333 -1 42h-255v-304c0 -43.333 1.33301 -83 4 -119h-101
c3.33301 45.333 5 85 5 119zM470 600.503c-10 9.66699 -15 22.167 -15 37.5c0 16 5 29 15 39s22.667 15 38 15s28 -5 38 -15s15 -23 15 -39c0 -15.333 -5 -27.833 -15 -37.5s-22.667 -14.5 -38 -14.5s-28 4.83301 -38 14.5z" />
    <glyph glyph-name="f_l.liga" unicode="fl" horiz-adv-x="621" 
d="M114 119v304.002h-5c-16.667 0 -33.834 -0.666992 -51.501 -2s-29.5 -2 -35.5 -2v84c38 -2 66.333 -3 85 -3h7v56c0 67.333 16 117.833 48 151.5s77 50.5 135 50.5c42 0 79.333 -9.66699 112 -29v-90h-1c-17.333 13.333 -34.666 23.166 -51.999 29.499s-36 9.5 -56 9.5
c-29.333 0 -52.333 -10.333 -69 -31s-25 -51.334 -25 -92.001v-55h253v132c0 44.667 -1.33301 84.334 -4 119.001h100c-2.66699 -34.667 -4 -74.334 -4 -119.001v-513c0 -43.333 1.33301 -83 4 -119h-100c2.66699 36 4 75.667 4 119v304h-253v-304
c0 -43.333 1.33301 -83 4 -119h-101c3.33301 45.333 5 85 5 119z" />
    <glyph glyph-name=".notdef" horiz-adv-x="731" 
d="M640 -120h-550v820h550v-820zM176 618v-654h378v654h-378z" />
    <glyph glyph-name="uni000D" unicode="&#xd;" horiz-adv-x="240" 
 />
    <glyph glyph-name="space" unicode=" " horiz-adv-x="240" 
 />
    <glyph glyph-name="exclam" unicode="!" horiz-adv-x="245" 
d="M82 294l-5 300c-1.33301 44.667 -4.33301 80 -9 106h109c-4.66699 -26 -7.66699 -61.333 -9 -106l-5 -300c0 -42 -7.33301 -77.667 -22 -107h-37c-14.667 29.333 -22 65 -22 107zM82 8c-10.667 10.667 -16 24 -16 40c0 16.667 5.33301 30.334 16 41.001
s24.334 16 41.001 16s30.5 -5.33301 41.5 -16s16.5 -24.334 16.5 -41.001c0 -16 -5.5 -29.333 -16.5 -40s-24.833 -16 -41.5 -16s-30.334 5.33301 -41.001 16z" />
    <glyph glyph-name="quotedbl" unicode="&#x22;" horiz-adv-x="366" 
d="M59 572c-8.66699 38 -12.999 64.667 -12.999 80s5.16699 28.166 15.5 38.499s23.166 15.5 38.499 15.5c16 0 29.167 -5.16699 39.5 -15.5s15.5 -23.166 15.5 -38.499c0 -10.667 -1.83301 -25.167 -5.5 -43.5s-6.16699 -30.5 -7.5 -36.5l-21 -114h-41zM224.001 572
c-8.66699 38 -12.999 64.667 -12.999 80s5.16699 28.166 15.5 38.499s23.166 15.5 38.499 15.5c16 0 29.167 -5.16699 39.5 -15.5s15.5 -23.166 15.5 -38.499c0 -10.667 -1.83301 -25.167 -5.5 -43.5s-6.16699 -30.5 -7.5 -36.5l-21 -114h-41z" />
    <glyph glyph-name="numbersign" unicode="#" horiz-adv-x="786" 
d="M137 88l30 94h-20c-52.667 0 -91.334 -1 -116.001 -3v87c33.333 -2.66699 72 -4 116 -4h46l58 178h-14c-44 0 -82.667 -1.33301 -116 -4v86c24.667 -2 63.334 -3 116.001 -3h40l30 93c7.33301 20.667 13.666 50 18.999 88h104c-15.333 -34 -27.333 -63.333 -36 -88
l-30 -93h168l30 93c8 25.333 14.333 54.666 19 87.999h104c-12 -24.667 -24 -54 -36 -88l-30 -93h20c52 0 90.667 1 116 3v-86c-33.333 2.66699 -72 4 -116 4h-46l-58 -178h14c44 0 82.667 1.33301 116 4v-87c-25.333 2 -64 3 -116 3h-40l-31 -94
c-6.66699 -21.333 -12.667 -50.666 -18 -87.999h-105c15.333 32 27.333 61.333 36 88l31 94h-168l-30 -94c-7.33301 -20.667 -13.666 -50 -18.999 -88h-104c15.333 34 27.333 63.333 36 88zM448 262l58 178h-168l-58 -178h168z" />
    <glyph glyph-name="dollar" unicode="$" horiz-adv-x="504" 
d="M194 -5c-57.333 6 -107.996 24.999 -151.996 56.999v123h1c59.333 -68.667 125.333 -103 198 -103c39.333 0 71.5 10.667 96.5 32s37.5 48 37.5 80c0 24 -7.33301 45.333 -22 64s-39 36.334 -73 53.001l-111 54c-38.667 18.667 -68 42 -88 70s-30 63 -30 105
c0 46.667 15 85.5 45 116.5s70.333 50.167 121 57.5c-0.666992 34 -2.33398 63 -5.00098 87h101c-1.33301 -14.667 -2.66602 -43.334 -3.99902 -86.001c57.333 -6.66699 101.666 -23 132.999 -49v-122h-1c-22 28 -48 50.667 -78 68s-63.333 26 -100 26
c-34.667 0 -63.5 -8.5 -86.5 -25.5s-34.5 -39.5 -34.5 -67.5c0 -26 7.5 -47 22.5 -63s36.5 -30.667 64.5 -44l115 -54c39.333 -18.667 69.5 -43.667 90.5 -75s31.5 -67.666 31.5 -108.999c0 -51.333 -16.333 -94.333 -49 -129s-76.334 -56.334 -131.001 -65.001
c1.33301 -43.333 2.66602 -72.333 3.99902 -87h-100c1.33301 14.667 2.66602 43.334 3.99902 86.001z" />
    <glyph glyph-name="percent" unicode="%" horiz-adv-x="807" 
d="M105.5 407.5c-23 14.333 -41.167 33.832 -54.5 58.499s-20 52 -20 82c0 29.333 6.66699 56.333 20 81s31.5 44.167 54.5 58.5s48.5 21.5 76.5 21.5c28.667 0 54.5 -7.16699 77.5 -21.5s41 -33.666 54 -57.999s19.5 -51.5 19.5 -81.5s-6.5 -57.333 -19.5 -82
s-31 -44.167 -54 -58.5s-48.833 -21.5 -77.5 -21.5c-28 0 -53.5 7.16699 -76.5 21.5zM246 480.499c13.333 21.667 20 44.167 20 67.5s-6.66699 45.5 -20 66.5s-34.666 31.5 -63.999 31.5c-28.667 0 -49.834 -10.5 -63.501 -31.5s-20.5 -43.167 -20.5 -66.5
s6.83301 -45.833 20.5 -67.5s34.834 -32.5 63.501 -32.5c29.333 0 50.666 10.833 63.999 32.5zM605 699.999h89l-493 -700h-89zM547.5 17.499c-23 14.333 -41.167 33.832 -54.5 58.499s-20 52 -20 82c0 29.333 6.66699 56.333 20 81s31.5 44.167 54.5 58.5
s48.5 21.5 76.5 21.5c28.667 0 54.5 -7.16699 77.5 -21.5s41 -33.666 54 -57.999s19.5 -51.5 19.5 -81.5s-6.5 -57.333 -19.5 -82s-31 -44.167 -54 -58.5s-48.833 -21.5 -77.5 -21.5c-28 0 -53.5 7.16699 -76.5 21.5zM688 90.498c13.333 21.667 20 44.167 20 67.5
s-6.66699 45.5 -20 66.5s-34.666 31.5 -63.999 31.5c-28.667 0 -49.834 -10.5 -63.501 -31.5s-20.5 -43.167 -20.5 -66.5s6.83301 -45.833 20.5 -67.5s34.834 -32.5 63.501 -32.5c29.333 0 50.666 10.833 63.999 32.5z" />
    <glyph glyph-name="ampersand" unicode="&#x26;" horiz-adv-x="716" 
d="M115.5 53c-47.667 42 -71.5 98.3281 -71.5 168.995c0 48.667 12.333 90.834 37 126.501s56.667 61.834 96 78.501c-14.667 15.333 -26 32.833 -34 52.5s-12 39.834 -12 60.501c0 29.333 7.5 56.833 22.5 82.5s35.833 46.334 62.5 62.001s56.334 23.5 89.001 23.5
s62.334 -7.83301 89.001 -23.5s47.5 -36.334 62.5 -62.001s22.5 -53.167 22.5 -82.5c0 -37.333 -12 -71.166 -36 -101.499s-55 -50.5 -93 -60.5v-1l174 -171c12.667 32 19 66.333 19 103c0 28 -1.66699 61 -5 99h103c-4 -37.333 -6 -70.666 -6 -99.999
c0 -61.333 -15 -117.333 -45 -168l138 -136v-3h-122l-71 71c-28.667 -26 -61.834 -46.167 -99.501 -60.5s-78.167 -21.5 -121.5 -21.5c-84.667 0 -150.834 21 -198.501 63zM366 477.995c16 16.667 24 37.334 24 62.001c0 25.333 -8 46.333 -24 63s-36.333 25 -61 25
s-45 -8.33301 -61 -25s-24 -37.667 -24 -63c0 -24.667 8 -45.334 24 -62.001s36.333 -25 61 -25s45 8.33301 61 25zM402.5 85.9951c27 10.667 50.833 26 71.5 46l-239 237c-30.667 -12 -55 -30.667 -73 -56s-27 -56 -27 -92c0 -44.667 16.333 -81 49 -109
s76.667 -42 132 -42c30.667 0 59.5 5.33301 86.5 16z" />
    <glyph glyph-name="quotesingle" unicode="'" horiz-adv-x="201" 
d="M59 572c-8.66699 38 -12.999 64.667 -12.999 80s5.16699 28.166 15.5 38.499s23.166 15.5 38.499 15.5c16 0 29.167 -5.16699 39.5 -15.5s15.5 -23.166 15.5 -38.499c0 -10.667 -1.83301 -25.167 -5.5 -43.5s-6.16699 -30.5 -7.5 -36.5l-21 -114h-41z" />
    <glyph glyph-name="parenleft" unicode="(" horiz-adv-x="295" 
d="M173 -88c-24.667 37.333 -45.833 72.5 -63.5 105.5s-33 72.833 -46 119.5s-19.5 97.667 -19.5 153s6.5 106.333 19.5 153s28.167 86.167 45.5 118.5s38.333 67.833 63 106.5c6.66699 9.33301 13.667 20 21 32h84c-36.667 -43.333 -69.5 -99 -98.5 -167
s-43.5 -149 -43.5 -243s14.5 -175 43.5 -243s61.833 -123.667 98.5 -167h-84z" />
    <glyph glyph-name="parenright" unicode=")" horiz-adv-x="295" 
d="M116.5 47c29 68 43.499 149 43.499 243s-14.5 175 -43.5 243s-61.833 123.667 -98.5 167h84l20 -32c24.667 -37.333 45.834 -72.5 63.501 -105.5s33 -72.833 46 -119.5s19.5 -97.667 19.5 -153s-6.5 -106.333 -19.5 -153s-28.167 -86.167 -45.5 -118.5
s-38.333 -67.833 -63 -106.5c-6.66699 -9.33301 -13.667 -20 -21 -32h-84c36.667 43.333 69.5 99 98.5 167z" />
    <glyph glyph-name="asterisk" unicode="*" horiz-adv-x="412" 
d="M78 467l23.001 28.001c20 22 36.333 42 49 60c-16.667 6 -34.667 11.167 -54 15.5s-31.333 7.16602 -36 8.49902l-20 5l26 79c35.333 -16.667 70.666 -31 105.999 -43c0 18 -1.66699 49.333 -5 94c-1.33301 10.667 -2 17.667 -2 21h81c-4 -54 -6 -92.333 -6 -115
c22.667 7.33301 57.667 21.666 105 42.999l27 -79c-5.33301 -1.33301 -19.5 -4.66602 -42.5 -9.99902s-45.833 -11.666 -68.5 -18.999c9.33301 -13.333 20.333 -27.333 33 -42l25 -29c4.66699 -4.66699 9.66699 -10.334 15 -17.001l-68 -48
c-22 38.667 -42 70.334 -60 95.001c-16.667 -22.667 -37 -54.334 -61 -95.001z" />
    <glyph glyph-name="plus" unicode="+" horiz-adv-x="545" 
d="M234 181l-0.000976562 41h-38c-43.333 0 -89 -1.66699 -137 -5v81c48.667 -3.33301 94.334 -5 137.001 -5h38v40c0 43.333 -1.66699 89 -5 137h86c-3.33301 -48 -5 -93.667 -5 -137v-40h38c41.333 0 87 1.66699 137 5v-81c-50 3.33301 -95.667 5 -137 5h-38v-41
c0 -42.667 1.66699 -88.334 5 -137.001h-86c3.33301 48.667 5 94.334 5 137.001z" />
    <glyph glyph-name="comma" unicode="," horiz-adv-x="215" 
d="M53 45c0.666992 19.333 6.16699 34.1689 16.5 44.502s24.833 15.5 43.5 15.5c14.667 0 26.5 -4.5 35.5 -13.5s13.5 -20.5 13.5 -34.5c0 -6.66699 -2.83301 -18.834 -8.5 -36.501s-13.5 -37.834 -23.5 -60.501l-44 -103h-39z" />
    <glyph glyph-name="hyphen" unicode="-" horiz-adv-x="443" 
d="M63 300c25.333 -2 64 -3 116 -3h84c52 0 91 1 117 3v-87c-34.667 2.66699 -73.667 4 -117 4h-84c-44 0 -82.667 -1.33301 -116 -4v87z" />
    <glyph glyph-name="period" unicode="." horiz-adv-x="213" 
d="M65 8c-10.667 10.667 -16 24 -16 40c0 16.667 5.33301 30.334 16 41.001s24.334 16 41.001 16s30.5 -5.33301 41.5 -16s16.5 -24.334 16.5 -41.001c0 -16 -5.5 -29.333 -16.5 -40s-24.833 -16 -41.5 -16s-30.334 5.33301 -41.001 16z" />
    <glyph glyph-name="slash" unicode="/" horiz-adv-x="569" 
d="M461 800h89l-442 -874h-90z" />
    <glyph glyph-name="zero" unicode="0" horiz-adv-x="757" 
d="M209.5 40c-50.333 31.333 -89.666 74.3271 -117.999 128.994s-42.5 115.334 -42.5 182.001s14.167 127.334 42.5 182.001s67.666 97.667 117.999 129s106.833 47 169.5 47s119 -15.667 169 -47s89.167 -74.166 117.5 -128.499s42.5 -115.166 42.5 -182.499
s-14.167 -128.166 -42.5 -182.499s-67.5 -97.166 -117.5 -128.499s-106.333 -47 -169 -47s-119.167 15.667 -169.5 47zM498 106.494c36 22.333 64.667 54.666 86 96.999s32 91.5 32 147.5s-10.667 105.167 -32 147.5s-50 74.666 -86 96.999s-75.667 33.5 -119 33.5
s-83.166 -11.167 -119.499 -33.5s-65.166 -54.666 -86.499 -96.999s-32 -91.5 -32 -147.5s10.667 -105.167 32 -147.5s50.166 -74.666 86.499 -96.999s76.166 -33.5 119.499 -33.5s83 11.167 119 33.5z" />
    <glyph glyph-name="one" unicode="1" horiz-adv-x="347" 
d="M169 137v430.999h-1l-132 -143h-3v112l171 163h62l-1 -20c-2.66699 -44 -4 -83 -4 -117v-426c0 -12 1 -47 3 -105c1.33301 -16 2 -26.667 2 -32h-102c3.33301 48.667 5 94.334 5 137.001z" />
    <glyph glyph-name="two" unicode="2" horiz-adv-x="534" 
d="M458 -3c-10.667 0.666992 -23.833 1.33398 -39.5 2.00098s-34.167 1 -55.5 1h-335v1l169 220l51 65c50.667 65.333 85.5 113.666 104.5 144.999s28.5 61.666 28.5 90.999c0 32.667 -10.5 58.667 -31.5 78s-49.5 29 -85.5 29c-41.333 0 -79.5 -13.5 -114.5 -40.5
s-64.833 -61.833 -89.5 -104.5h-2v120c18.667 28 45.5 52.5 80.5 73.5s78.167 31.5 129.5 31.5c64 0 114 -16.5 150 -49.5s54 -78.167 54 -135.5c0 -27.333 -5.83301 -54.833 -17.5 -82.5s-26.334 -54.5 -44.001 -80.5s-42.5 -59.667 -74.5 -101l-25 -32l-113 -146v-1h165
c21.333 0 39.833 0.333008 55.5 1s28.834 1.33398 39.501 2.00098c13.333 1.33301 23.666 2 30.999 2v-91c-7.33301 0 -17.666 0.666992 -30.999 2z" />
    <glyph glyph-name="three" unicode="3" horiz-adv-x="547" 
d="M124.5 16c-35 16.667 -66.834 41.333 -95.501 74l70 68c34 -58 87.333 -87 160 -87c43.333 0 78.666 14.333 105.999 43s41 64 41 106c0 43.333 -14 78.833 -42 106.5s-68.667 41.5 -122 41.5h-109v1l191 249v1h-138c-17.333 0 -35 -0.5 -53 -1.5s-31 -1.5 -39 -1.5
l-32 -2v91l32 -2c8 0 21 -0.5 39 -1.5s35.667 -1.5 53 -1.5h299v-2l-192 -249v-1c60.667 -8 109.834 -32.5 147.501 -73.5s56.5 -92.5 56.5 -154.5c0 -40.667 -10.333 -78.5 -31 -113.5s-49.167 -63 -85.5 -84s-77.166 -31.5 -122.499 -31.5c-54 0 -98.5 8.33301 -133.5 25z
" />
    <glyph glyph-name="four" unicode="4" horiz-adv-x="566" 
d="M329 137l-0.000976562 43.002h-173c-22 0 -41.167 -0.333008 -57.5 -1s-30.166 -1.33398 -41.499 -2.00098c-14.667 -1.33301 -25.667 -2 -33 -2v85l292 440h111c-3.33301 -44.667 -5 -90.334 -5 -137.001v-303h112v-85l-112 5v-43c0 -42.667 1.66699 -88.334 5 -137.001
h-103c3.33301 48.667 5 94.334 5 137.001zM328.999 260.002v308h-1l-204 -307v-1h205z" />
    <glyph glyph-name="five" unicode="5" horiz-adv-x="544" 
d="M120 22.5c-40.667 20.333 -71.9961 46.1631 -93.9961 77.4961l75 66c20.667 -32 43.5 -55.667 68.5 -71s55.833 -23 92.5 -23c30.667 0 57.667 7.16699 81 21.5s41.166 33.5 53.499 57.5s18.5 50 18.5 78c0 43.333 -13.833 79.5 -41.5 108.5s-64.834 43.5 -111.501 43.5
c-52 0 -106.667 -22.333 -164 -67h-3v386h215c23.333 0 43.5 0.333008 60.5 1s31.5 1.33398 43.5 2.00098l36 2v-91l-36 2c-12 0.666992 -26.5 1.33398 -43.5 2.00098s-37.167 1 -60.5 1h-123v-173c27.333 10 54.333 15 81 15c49.333 0 92 -10.167 128 -30.5
s63.333 -48.166 82 -83.499s28 -74.666 28 -117.999c0 -44.667 -10.333 -85 -31 -121s-49.334 -64.333 -86.001 -85s-78.334 -31 -125.001 -31c-55.333 0 -103.333 10.167 -144 30.5z" />
    <glyph glyph-name="six" unicode="6" horiz-adv-x="544" 
d="M158.5 20.5c-35.667 19 -63.499 45.832 -83.499 80.499s-30 74 -30 118c0 59.333 18 119 54 179l178 302h114l-174 -264l1 -1c16 7.33301 36.333 11 61 11c44.667 0 84.834 -9.66699 120.501 -29s63.667 -46.166 84 -80.499s30.5 -73.5 30.5 -117.5
c0 -41.333 -10.167 -79.333 -30.5 -114s-48.333 -62.167 -84 -82.5s-75.834 -30.5 -120.501 -30.5s-84.834 9.5 -120.501 28.5zM383.501 114.499c26.333 28.333 39.501 63.166 39.501 104.499c0 26 -5.83301 50.167 -17.5 72.5s-28.5 40.333 -50.5 54s-47.333 20.5 -76 20.5
c-44 0 -78.833 -14 -104.5 -42s-38.5 -63 -38.5 -105c0 -41.333 13 -76.166 39 -104.499s60.667 -42.5 104 -42.5s78.166 14.167 104.499 42.5z" />
    <glyph glyph-name="seven" unicode="7" horiz-adv-x="490" 
d="M68 29c16 26.667 27 46.6689 33 60.002l247 529l-1 1h-183c-22 0 -41.167 -0.333008 -57.5 -1s-30.166 -1.33398 -41.499 -2.00098l-33 -2v91c7.33301 0 18.333 -0.666992 33 -2c11.333 -0.666992 25.166 -1.33398 41.499 -2.00098s35.5 -1 57.5 -1h319l-281 -611
c-4.66699 -9.33301 -9 -20.333 -13 -33s-7 -21.667 -9 -27l-9 -29h-119z" />
    <glyph glyph-name="eight" unicode="8" horiz-adv-x="546" 
d="M155 19.5c-34 19 -60.4971 45.167 -79.4971 78.5s-28.5 70.666 -28.5 111.999c0 39.333 9.5 75.5 28.5 108.5s45.167 59.5 78.5 79.5v1c-18.667 16 -33.334 35.167 -44.001 57.5s-16 46.5 -16 72.5c0 32 7.66699 61.667 23 89s36.666 49.166 63.999 65.499
s58 24.5 92 24.5s64.5 -8.33301 91.5 -25s48.333 -38.667 64 -66s23.5 -56.666 23.5 -87.999c0 -26 -5.33301 -50.167 -16 -72.5s-25.334 -41.5 -44.001 -57.5v-1c33.333 -20 59.5 -46.333 78.5 -79s28.5 -69 28.5 -109c0 -41.333 -9.5 -78.666 -28.5 -111.999
s-45.5 -59.5 -79.5 -78.5s-73.333 -28.5 -118 -28.5s-84 9.5 -118 28.5zM339.503 462.5c17.667 19 26.5 41.167 26.5 66.5s-8.83301 47.5 -26.5 66.5s-39.834 28.5 -66.501 28.5s-48.834 -9.5 -66.501 -28.5s-26.5 -41.167 -26.5 -66.5s8.83301 -47.5 26.5 -66.5
s39.834 -28.5 66.501 -28.5s48.834 9.5 66.501 28.5zM370.003 111c25.333 26.667 38.002 59.667 38.002 99c0 40 -12.5 73.5 -37.5 100.5s-57.5 40.5 -97.5 40.5s-72.5 -13.5 -97.5 -40.5s-37.5 -60.5 -37.5 -100.5c0 -39.333 12.667 -72.333 38 -99s57.666 -40 96.999 -40
s71.666 13.333 96.999 40z" />
    <glyph glyph-name="nine" unicode="9" horiz-adv-x="544" 
d="M327 264l-1.00098 1.00098c-16 -7.33301 -36.333 -11 -61 -11c-44.667 0 -84.834 9.66699 -120.501 29s-63.667 46.166 -84 80.499s-30.5 73.5 -30.5 117.5c0 41.333 10.167 79.333 30.5 114s48.333 62.167 84 82.5s75.834 30.5 120.501 30.5s84.834 -9.5 120.501 -28.5
s63.5 -45.833 83.5 -80.5s30 -74 30 -118c0 -59.333 -18 -119 -54 -179l-178 -302h-114zM369.499 376.001c25.667 28 38.499 63 38.499 105c0 41.333 -13 76.166 -39 104.499s-60.667 42.5 -104 42.5s-78.166 -14.167 -104.499 -42.5s-39.5 -63.166 -39.5 -104.499
c0 -26 5.83301 -50.167 17.5 -72.5s28.5 -40.333 50.5 -54s47.333 -20.5 76 -20.5c44 0 78.833 14 104.5 42z" />
    <glyph glyph-name="colon" unicode=":" horiz-adv-x="241" 
d="M79 8c-10.667 10.667 -16 24 -16 40c0 16.667 5.33301 30.334 16 41.001s24.334 16 41.001 16s30.5 -5.33301 41.5 -16s16.5 -24.334 16.5 -41.001c0 -16 -5.5 -29.333 -16.5 -40s-24.833 -16 -41.5 -16s-30.334 5.33301 -41.001 16zM79 405
c-10.667 10.667 -16 24 -16 40c0 16.667 5.33301 30.334 16 41.001s24.334 16 41.001 16s30.5 -5.33301 41.5 -16s16.5 -24.334 16.5 -41.001c0 -16 -5.5 -29.333 -16.5 -40s-24.833 -16 -41.5 -16s-30.334 5.33301 -41.001 16z" />
    <glyph glyph-name="semicolon" unicode=";" horiz-adv-x="252" 
d="M71 45c0.666992 19.333 6.16699 34.1689 16.5 44.502s24.833 15.5 43.5 15.5c14.667 0 26.5 -4.5 35.5 -13.5s13.5 -20.5 13.5 -34.5c0 -6.66699 -2.83301 -18.834 -8.5 -36.501s-13.5 -37.834 -23.5 -60.501l-44 -103h-39zM88 405.003c-10.667 10.667 -16 24 -16 40
c0 16.667 5.33301 30.334 16 41.001s24.334 16 41.001 16s30.5 -5.33301 41.5 -16s16.5 -24.334 16.5 -41.001c0 -16 -5.5 -29.333 -16.5 -40s-24.833 -16 -41.5 -16s-30.334 5.33301 -41.001 16z" />
    <glyph glyph-name="less" unicode="&#x3c;" horiz-adv-x="545" 
d="M391 65l-289 155.998c-12.667 6.66699 -23.667 11 -33 13v65c9.33301 2 20.333 6.33301 33 13l289 156c29.333 15.333 52.333 30 69 44h1v-104c-4 0 -10.5 -1.66699 -19.5 -5s-18.5 -7.66602 -28.5 -12.999l-235 -123v-2l235 -122
c10 -5.33301 19.5 -9.66602 28.5 -12.999s15.5 -5 19.5 -5v-104h-1c-16.667 14 -39.667 28.667 -69 44z" />
    <glyph glyph-name="equal" unicode="=" horiz-adv-x="545" 
d="M59 386c48.667 -3.33301 94.334 -5 137.001 -5h152c42.667 0 88.334 1.66699 137.001 5v-82c-48.667 3.33301 -94.334 5 -137.001 5h-152c-42.667 0 -88.334 -1.66699 -137.001 -5v82zM59 210c48 -3.33301 93.668 -5 137.001 -5h152c42.667 0 88.334 1.66699 137.001 5
v-82c-48.667 3.33301 -94.334 5 -137.001 5h-152c-42.667 0 -88.334 -1.66699 -137.001 -5v82z" />
    <glyph glyph-name="greater" unicode="&#x3e;" horiz-adv-x="545" 
d="M84 125c4 0 10.5 1.66895 19.5 5.00195s18.5 7.66602 28.5 12.999l235 122v2l-235 123c-10 5.33301 -19.5 9.66602 -28.5 12.999s-15.5 5 -19.5 5v104h1c16.667 -14 39.667 -28.667 69 -44l289 -156c12.667 -6.66699 23.667 -11 33 -13v-65
c-9.33301 -2 -20.333 -6.33301 -33 -13l-289 -156c-29.333 -15.333 -52.333 -30 -69 -44h-1v104z" />
    <glyph glyph-name="question" unicode="?" horiz-adv-x="436" 
d="M145 267c0 24.667 5.00195 46.3301 15.002 64.9971s28.667 40.334 56 65.001c3.33301 2.66699 14.5 12.334 33.5 29.001s33.667 34.334 44 53.001s15.5 38 15.5 58c0 27.333 -8.83301 49.333 -26.5 66s-41.834 25 -72.501 25c-32 0 -63.5 -9 -94.5 -27
s-57.5 -41.333 -79.5 -70h-3v115c24 17.333 51.5 32 82.5 44s63.167 18 96.5 18c57.333 0 103.5 -14.5 138.5 -43.5s52.5 -69.167 52.5 -120.5c0 -41.333 -9.33301 -75.666 -28 -102.999s-46.334 -56 -83.001 -86c-30 -25.333 -51.667 -48.333 -65 -69
s-20 -43.334 -20 -68.001c0 -10.667 1.33301 -21 4 -31h-53c-8.66699 28 -13 54.667 -13 80zM145.002 7.99609c-10.667 10.667 -16 24 -16 40c0 16.667 5.33301 30.334 16 41.001s24.334 16 41.001 16s30.5 -5.33301 41.5 -16s16.5 -24.334 16.5 -41.001
c0 -16 -5.5 -29.333 -16.5 -40s-24.833 -16 -41.5 -16s-30.334 5.33301 -41.001 16z" />
    <glyph glyph-name="at" unicode="@" horiz-adv-x="895" 
d="M246 -106.5c-63.333 31.667 -113.504 77.502 -150.504 137.502s-55.5 131 -55.5 213c0 81.333 19.333 154 58 218s90.334 113.667 155.001 149s134 53 208 53c70.667 0 135.667 -15.5 195 -46.5s106.666 -74.833 141.999 -131.5s53 -121 53 -193
c0 -51.333 -9 -96.833 -27 -136.5s-43.5 -70.5 -76.5 -92.5s-71.5 -33 -115.5 -33c-22.667 0 -43.834 5.66699 -63.501 17s-32.167 26.666 -37.5 45.999h-2c-14 -18.667 -31.5 -33.834 -52.5 -45.501s-44.833 -17.5 -71.5 -17.5c-52.667 0 -93.834 17.167 -123.501 51.5
s-44.5 82.833 -44.5 145.5c0 50.667 9 95 27 133s42.333 67.167 73 87.5s64.334 30.5 101.001 30.5c30.667 0 55.834 -6.33301 75.501 -19s34.5 -28.667 44.5 -48h2c0.666992 6.66699 1.66699 14.5 3 23.5s2 16.5 2 22.5h92l-10 -40l-7 -29l-35 -165
c-6.66699 -28 -10 -49.333 -10 -64c0 -17.333 5.83301 -30 17.5 -38s25.167 -12 40.5 -12c20.667 0 40.334 7.83301 59.001 23.5s33.834 37.5 45.501 65.5s17.5 59.333 17.5 94c0 60.667 -14.333 113.834 -43 159.501s-67 80.667 -115 105s-100.333 36.5 -157 36.5
c-58 0 -113.167 -14 -165.5 -42s-94.666 -68.5 -126.999 -121.5s-48.5 -115.167 -48.5 -186.5c0 -66.667 14.167 -124.834 42.5 -174.501s68.166 -87.667 119.499 -114s110 -39.5 176 -39.5c41.333 0 78.333 4.5 111 13.5s60.334 19.833 83.001 32.5v-72
c-20 -11.333 -47.167 -21.5 -81.5 -30.5s-71.833 -13.5 -112.5 -13.5c-77.333 0 -147.666 15.833 -210.999 47.5zM500.996 167.002c18.667 38 27.999 81.333 27.999 130c0 32 -7.66699 57.333 -23 76s-37.666 28 -66.999 28c-20.667 0 -39.667 -7.16699 -57 -21.5
s-31 -34.5 -41 -60.5s-15 -56 -15 -90c0 -36.667 7.66699 -65.667 23 -87s38 -32 68 -32c37.333 0 65.333 19 84 57z" />
    <glyph glyph-name="A" unicode="A" horiz-adv-x="684" 
d="M8 1c12 20.667 20.667 37.667 26 51l247 601c10 26 15.667 41.667 17 47h79c3.33301 -11.333 9 -27 17 -47l262 -602l26 -50v-1h-105c-2.66699 5.33301 -5.5 12.5 -8.5 21.5s-7.16699 19.833 -12.5 32.5l-57 133h-316l-54 -133c-9.33301 -21.333 -15.333 -39.333 -18 -54
h-103v1zM463 270l-128 297l-119 -297h247z" />
    <glyph glyph-name="B" unicode="B" horiz-adv-x="570" 
d="M221 -2c-21.333 1.33301 -35.001 1.99805 -41.001 1.99805h-101c2.66699 36 4 75.667 4 119v462c0 44.667 -1.33301 84.334 -4 119.001h192c72 0 127.833 -15.667 167.5 -47s59.5 -76 59.5 -134c0 -36 -10.833 -68.833 -32.5 -98.5s-48.5 -50.167 -80.5 -61.5v-2
c40.667 -9.33301 74.334 -30.166 101.001 -62.499s40 -69.166 40 -110.499c0 -58.667 -19.667 -104.834 -59 -138.501s-92.333 -50.5 -159 -50.5c-10 0 -39 1 -87 3zM277.999 393.998c37.333 0 67 10.667 89 32s33 50 33 86c0 32 -10.5 57.667 -31.5 77s-50.833 29 -89.5 29
h-99c-0.666992 -8 -1 -20.667 -1 -38v-186h99zM392.499 106.498c24.333 20.333 36.5 49.833 36.5 88.5c0 36 -13.167 64.5 -39.5 85.5s-60.166 31.5 -101.499 31.5h-109v-193c0 -16 0.333008 -28 1 -36c23.333 -4.66699 59.666 -7 108.999 -7
c44.667 0 79.167 10.167 103.5 30.5z" />
    <glyph glyph-name="C" unicode="C" horiz-adv-x="689" 
d="M225 39c-56 31.333 -100.167 74.3311 -132.5 128.998s-48.5 115.667 -48.5 183s16.167 128.333 48.5 183s76.5 97.667 132.5 129s118.333 47 187 47c52.667 0 98.334 -5.66699 137.001 -17s70.334 -25.666 95.001 -42.999v-115h-1c-64.667 62 -141.667 93 -231 93
c-50 0 -95.667 -12.333 -137 -37s-73.833 -58.167 -97.5 -100.5s-35.5 -88.833 -35.5 -139.5s11.833 -97.167 35.5 -139.5s56.167 -75.833 97.5 -100.5s87 -37 137 -37c89.333 0 166.333 31 231 93h1v-115c-24.667 -17.333 -56.334 -31.666 -95.001 -42.999
s-84.334 -17 -137.001 -17c-68.667 0 -131 15.667 -187 47z" />
    <glyph glyph-name="D" unicode="D" horiz-adv-x="699" 
d="M219 -2c-20 1.33301 -34.666 2 -43.999 2h-96c2.66699 36 4 75.667 4 119v462c0 44.667 -1.33301 84.334 -4 119.001h219c67.333 0 128.166 -15.5 182.499 -46.5s97 -73.333 128 -127s46.5 -112.834 46.5 -177.501s-15.667 -124 -47 -178s-74.5 -96.833 -129.5 -128.5
s-115.833 -47.5 -182.5 -47.5c-9.33301 0 -35 1 -77 3zM425.501 114.5c41 24.333 73.166 57.167 96.499 98.5s35 86.333 35 135s-11.667 93.667 -35 135s-55.666 74.166 -96.999 98.499s-87.333 36.5 -138 36.5h-107c-0.666992 -9.33301 -1 -22.666 -1 -39.999v-471
c0.666992 -13.333 7.66699 -21 21 -23c22.667 -4 52.667 -6 90 -6c49.333 0 94.5 12.167 135.5 36.5z" />
    <glyph glyph-name="E" unicode="E" horiz-adv-x="560" 
d="M83 119v461.999c0 44.667 -1.33301 84.334 -4 119.001h425l3 -86l-113 4h-214c-0.666992 -8 -1 -20.667 -1 -38v-186h182l113 4v-90l-114 4h-181v-191c0 -17.333 0.333008 -30 1 -38h219l113 4l-3 -87h-430c2.66699 36 4 75.667 4 119z" />
    <glyph glyph-name="F" unicode="F" horiz-adv-x="546" 
d="M83 119l-0.000976562 461.999c0 44.667 -1.33301 84.334 -4 119.001h435l2 -86c-10 0 -25 0.666992 -45 2c-29.333 1.33301 -51.666 2 -66.999 2h-224c-0.666992 -8 -1 -21 -1 -39v-196h192c14.667 0 37.334 0.666992 68.001 2c20 1.33301 35 2 45 2v-90
c-10 0 -25 0.666992 -45 2c-30.667 1.33301 -53.334 2 -68.001 2h-192v-182c0 -43.333 1.33301 -83 4 -119h-104c2.66699 36 4 75.667 4 119z" />
    <glyph glyph-name="G" unicode="G" horiz-adv-x="725" 
d="M225 38c-56 30.667 -100.164 73.3311 -132.497 127.998s-48.5 116.334 -48.5 185.001c0 67.333 17 128.333 51 183s80.167 97.667 138.5 129s122.166 47 191.499 47c48.667 0 91.167 -5.5 127.5 -16.5s69.833 -27.5 100.5 -49.5v-117h-1
c-29.333 32.667 -62.333 57.667 -99 75s-79.334 26 -128.001 26c-51.333 0 -98.666 -12.333 -141.999 -37s-77.666 -58.167 -102.999 -100.5s-38 -88.833 -38 -139.5c0 -52 11.833 -99 35.5 -141s56.334 -75 98.001 -99s88.5 -36 140.5 -36c26.667 0 53.667 2.5 81 7.5
s51.666 11.833 72.999 20.5v101c0 19.333 -0.333008 36.5 -1 51.5s-1.33398 27.5 -2.00098 37.5c-1.33301 12 -2 21 -2 27h101c0 -9.33301 -0.666992 -24.666 -2 -45.999c-1.33301 -29.333 -2 -52 -2 -68v-81c0 -16 0.666992 -40.667 2 -74c1.33301 -22.667 2 -39.667 2 -51
c-20 0 -39.667 1 -59 3c-22.667 1.33301 -39.334 2 -50.001 2c-7.33301 0 -16.833 -0.666992 -28.5 -2s-20.834 -2.33301 -27.501 -3c-34.667 -5.33301 -64 -8 -88 -8c-69.333 0 -132 15.333 -188 46z" />
    <glyph glyph-name="H" unicode="H" horiz-adv-x="720" 
d="M83 119v461.999c0 44.667 -1.33301 84.334 -4 119.001h103c-3.33301 -43.333 -5 -83 -5 -119v-187h365v187c0 44.667 -1.33301 84.334 -4 119.001h103c-2.66699 -34.667 -4 -74.334 -4 -119.001v-462c0 -43.333 1.33301 -83 4 -119h-103c2.66699 36 4 75.667 4 119v192
h-365v-192c0 -34 1.66699 -73.667 5 -119h-103c2.66699 36 4 75.667 4 119z" />
    <glyph glyph-name="I" unicode="I" horiz-adv-x="261" 
d="M83 119v462c0 44.667 -1.33301 84.334 -4 119.001h103c-2.66699 -34.667 -4 -74.334 -4 -119.001v-462c0 -43.333 1.33301 -83 4 -119h-103c2.66699 36 4 75.667 4 119z" />
    <glyph glyph-name="J" unicode="J" horiz-adv-x="455" 
d="M99 6c-27.333 10 -50.998 24.999 -70.998 44.999v133h2c24 -34.667 47.667 -61.667 71 -81s50 -29 80 -29c30.667 0 54.667 10.5 72 31.5s26 49.833 26 86.5v390c0 14.667 -0.666992 38 -2 70c-1.33301 21.333 -2 37.333 -2 48h105l-2 -31
c-0.666992 -10 -1.33398 -22.167 -2.00098 -36.5s-1 -31.166 -1 -50.499v-406c0 -60.667 -17.333 -106.667 -52 -138s-81.334 -47 -140.001 -47c-28.667 0 -56.667 5 -84 15z" />
    <glyph glyph-name="K" unicode="K" horiz-adv-x="586" 
d="M83 119v462c0 44.667 -1.33301 84.334 -4 119.001h104c-2.66699 -34.667 -4 -74.334 -4 -119.001v-462c0 -43.333 1.33301 -83 4 -119h-104c2.66699 36 4 75.667 4 119zM411 70l-228 279l228 281l52 70h115l-283 -351l291 -349h-123z" />
    <glyph glyph-name="L" unicode="L" horiz-adv-x="536" 
d="M83 119v462c0 44.667 -1.33301 84.334 -4 119.001h104c-2.66699 -34.667 -4 -74.334 -4 -119.001v-460c0 -17.333 0.333008 -30 1 -38h247c20.667 0 40 0.666992 58 2s29.667 2.33301 35 3l-2 -88h-439c2.66699 36 4 75.667 4 119z" />
    <glyph glyph-name="M" unicode="M" horiz-adv-x="909" 
d="M83 119v462c0 52.667 -1 92.334 -3 119.001h135l241 -583h1l238 583h135c-2.66699 -34.667 -4 -74.334 -4 -119.001v-462c0 -43.333 1.33301 -83 4 -119h-104c2.66699 36 4 75.667 4 119v438h-1l-227 -557h-94l-234 560h-1v-441c0 -25.333 1 -65 3 -119h-96
c2 28 3 67.667 3 119z" />
    <glyph glyph-name="N" unicode="N" horiz-adv-x="739" 
d="M82 48c1.33301 32 2 55.667 2 71v528c0 11.333 -4.66699 29 -14 53h96l405 -539h1v421c0 14.667 -0.666992 38 -2 70c-1.33301 21.333 -2 37.333 -2 48h92c0 -10.667 -0.666992 -26.667 -2 -48c-1.33301 -32 -2 -55.333 -2 -70v-463c0 -15.333 0.666992 -39 2 -71
c1.33301 -21.333 2 -37.333 2 -48h-84l-407 545h-1v-426c0 -33.333 1 -73 3 -119h-91c0 10.667 0.666992 26.667 2 48z" />
    <glyph glyph-name="O" unicode="O" horiz-adv-x="809" 
d="M221.5 39.5c-55 31.667 -98.333 74.8301 -130 129.497s-47.5 115.334 -47.5 182.001s15.833 127.334 47.5 182.001s75 97.834 130 129.501s115.833 47.5 182.5 47.5c67.333 0 128.5 -15.667 183.5 -47s98.333 -74.5 130 -129.5s47.5 -115.833 47.5 -182.5
c0 -67.333 -15.833 -128.333 -47.5 -183s-75 -97.667 -130 -129s-116.167 -47 -183.5 -47c-66.667 0 -127.5 15.833 -182.5 47.5zM537 111.496c40 24.333 71.667 57.666 95 99.999s35 88.833 35 139.5s-11.667 97.167 -35 139.5s-55 75.666 -95 99.999
s-84.333 36.5 -133 36.5c-48 0 -92 -12.167 -132 -36.5s-71.667 -57.666 -95 -99.999s-35 -88.833 -35 -139.5s11.667 -97.167 35 -139.5s55 -75.666 95 -99.999s84 -36.5 132 -36.5c48.667 0 93 12.167 133 36.5z" />
    <glyph glyph-name="P" unicode="P" horiz-adv-x="542" 
d="M81 48c1.33301 32 2.00293 55.668 2.00293 71.001v463c0 14.667 -0.666992 38 -2 70c-1.33301 21.333 -2 37.333 -2 48h192c45.333 0 86.5 -9 123.5 -27s66 -42.833 87 -74.5s31.5 -67.167 31.5 -106.5c0 -42.667 -10.833 -80.834 -32.5 -114.501
s-51.834 -59.667 -90.501 -78s-82.334 -27.5 -131.001 -27.5c-14.667 0 -41.334 2 -80.001 6v-159c0 -15.333 0.666992 -39 2 -71c1.33301 -21.333 2 -37.333 2 -48h-104c0 10.667 0.666992 26.667 2 48zM374.003 394.501c27.333 23.667 41 56.167 41 97.5
c0 36.667 -13.5 66.667 -40.5 90s-61.833 35 -104.5 35h-91v-251c24 -4.66699 51.333 -7 82 -7c48 0 85.667 11.833 113 35.5z" />
    <glyph glyph-name="Q" unicode="Q" horiz-adv-x="809" 
d="M580 -83c-18.667 7.33301 -55 24.9971 -109 52.9971c-9.33301 5.33301 -17.666 9.83301 -24.999 13.5l-19 9.5c-4.66699 -0.666992 -12.334 -1 -23.001 -1c-66.667 0 -127.5 15.833 -182.5 47.5s-98.333 74.834 -130 129.501s-47.5 115.334 -47.5 182.001
s15.833 127.334 47.5 182.001s75 97.834 130 129.501s115.833 47.5 182.5 47.5c67.333 0 128.5 -15.667 183.5 -47s98.333 -74.5 130 -129.5s47.5 -115.833 47.5 -182.5c0 -77.333 -20.5 -145.833 -61.5 -205.5s-95.833 -102.834 -164.5 -129.501v-1
c47.333 -20 81 -33 101 -39c45.333 -12.667 90 -21.667 134 -27l-53 -79c-52.667 14 -99.667 29.667 -141 47zM537 111.497c40 24.333 71.667 57.666 95 99.999s35 88.833 35 139.5s-11.667 97.167 -35 139.5s-55 75.666 -95 99.999s-84.333 36.5 -133 36.5
c-48 0 -92 -12.167 -132 -36.5s-71.667 -57.666 -95 -99.999s-35 -88.833 -35 -139.5s11.667 -97.167 35 -139.5s55 -75.666 95 -99.999s84 -36.5 132 -36.5c48.667 0 93 12.167 133 36.5z" />
    <glyph glyph-name="R" unicode="R" horiz-adv-x="592" 
d="M80 25c0.666992 8.66699 1.33105 19.5039 1.99805 32.5039s1 27.833 1 44.5v496c0 16.667 -0.333008 31.5 -1 44.5s-1.33398 23.833 -2.00098 32.5c-1.33301 10.667 -2 19 -2 25h203c40.667 0 77.834 -8.33301 111.501 -25s60.167 -40.334 79.5 -71.001
s29 -66.334 29 -107.001c0 -32 -7.16699 -61.833 -21.5 -89.5s-32.833 -50.334 -55.5 -68.001s-46 -28.834 -70 -33.501v-1c14 -5.33301 27 -14.166 39 -26.499s24.333 -28.5 37 -48.5l81 -129c12 -20 26 -40.333 42 -61l30 -39v-1h-123
c-20 39.333 -42.667 78.666 -68 117.999l-67 103c-25.333 40.667 -64.666 61 -117.999 61h-30v-180c0 -16.667 0.333008 -31.5 1 -44.5s1.33398 -23.833 2.00098 -32.5c1.33301 -10.667 2 -19 2 -25h-104c0 6 0.666992 14.333 2 25zM361.997 398.504
c27.333 22.333 41 55.167 41 98.5c0 34.667 -12.333 63.5 -37 86.5s-58 34.5 -100 34.5h-89v-246c15.333 -4.66699 39 -7 71 -7c48.667 0 86.667 11.167 114 33.5z" />
    <glyph glyph-name="S" unicode="S" horiz-adv-x="542" 
d="M150 8c-36.667 10.667 -67.665 25.333 -92.998 44v125h1c28 -32 60.167 -57 96.5 -75s73.166 -27 110.499 -27c42 0 75.167 10.667 99.5 32s36.5 50 36.5 86c0 27.333 -8.16699 49.833 -24.5 67.5s-43.166 33.5 -80.499 47.5l-101 38
c-46.667 17.333 -81.834 39.666 -105.501 66.999s-35.5 63.333 -35.5 108c0 35.333 9.66699 67.333 29 96s46 51 80 67s72.667 24 116 24c38 0 73.833 -5.16699 107.5 -15.5s60.167 -23.833 79.5 -40.5v-124h-1c-22 28 -48.833 51.167 -80.5 69.5s-66.5 27.5 -104.5 27.5
c-38.667 0 -69.667 -9.16699 -93 -27.5s-35 -41.5 -35 -69.5c0 -25.333 7.83301 -45.666 23.5 -60.999s40.5 -29.333 74.5 -42l101 -38c51.333 -19.333 88.833 -44 112.5 -74s35.5 -68.333 35.5 -115c0 -62.667 -21.333 -112.667 -64 -150s-100 -56 -172 -56
c-38.667 0 -76.334 5.33301 -113.001 16z" />
    <glyph glyph-name="T" unicode="T" horiz-adv-x="562" 
d="M233 118v498.999h-103c-16 0 -38.667 -0.666992 -68 -2c-21.333 -1.33301 -36.666 -2 -45.999 -2v87h530v-87c-10.667 0 -26 0.666992 -46 2c-30.667 1.33301 -53.334 2 -68.001 2h-103v-499c0 -33.333 1.66699 -72.666 5 -117.999h-105c2.66699 36 4 75.333 4 118z" />
    <glyph glyph-name="U" unicode="U" horiz-adv-x="709" 
d="M145.5 67.5c-46.333 50.333 -69.501 122.835 -69.501 217.502v296c0 36 -1.66699 75.667 -5 119h105c-2.66699 -34.667 -4 -74.334 -4 -119.001v-294c0 -70 14.5 -122.833 43.5 -158.5s74.5 -53.5 136.5 -53.5c60.667 0 106.667 18.5 138 55.5s47 89.167 47 156.5v294
c0 12 -1 44 -3 96l-1 23h104c-2.66699 -34.667 -4 -74.334 -4 -119.001v-296c0 -93.333 -24 -165.5 -72 -216.5s-117.667 -76.5 -209 -76.5s-160.166 25.167 -206.499 75.5z" />
    <glyph glyph-name="V" unicode="V" horiz-adv-x="657" 
d="M267 46l-231.001 600.999c-7.33301 21.333 -15.666 39 -24.999 53h109c2 -11.333 7.33301 -29 16 -53l193 -525h1l191 525c6 16.667 11.667 34.334 17 53.001h109c-10 -14.667 -18.667 -32 -26 -52l-231 -602c-8.66699 -24 -14 -39.333 -16 -46h-91
c-4.66699 16 -10 31.333 -16 46z" />
    <glyph glyph-name="W" unicode="W" horiz-adv-x="934" 
d="M258 46l-219.997 601c-8 22.667 -16.333 40.334 -25 53.001h101l199 -579h1l107 259l-106 268c-10.667 24.667 -19.334 42 -26.001 52h101l77 -216h1l83 216h102c-8.66699 -12.667 -17.334 -30 -26.001 -52l-114 -269l95 -258h1l218 579h102
c-8.66699 -12.667 -17.334 -30 -26.001 -52l-238 -601c-5.33301 -12.667 -10.666 -28.334 -15.999 -47.001h-77l-6 17.5c-2.66699 7.66699 -6.33398 17.5 -11.001 29.5l-88 229h-1l-99 -229c-7.33301 -16 -13 -31.667 -17 -47h-77c-1.33301 6.66699 -6.33301 22 -15 46z" />
    <glyph glyph-name="X" unicode="X" horiz-adv-x="584" 
d="M34 38l201.999 321.999l-185 290l-33 50h109c6 -16 16 -34.333 30 -55l134 -214h1l136 214c12 18.667 22 37 30 55h109l-12 -18l-21 -32l-186 -291l202 -321c6 -10 11.333 -18 16 -24s8 -10.667 10 -14h-101c-2 6 -7.33301 15 -16 27l-13 21l-153 245h-1l-153 -245
c-13.333 -22 -22 -38 -26 -48h-105c12.667 16.667 21.334 29.334 26.001 38.001z" />
    <glyph glyph-name="Y" unicode="Y" horiz-adv-x="622" 
d="M264 119l0.000976562 179l-215 352c-4.66699 8 -15 24.667 -31 50h105c11.333 -24 20.666 -42.333 27.999 -55l161 -267h1l161 266c13.333 21.333 23 40 29 56h101c-2 -3.33301 -5.66699 -9 -11 -17l-21 -33l-212 -352v-179c0 -43.333 1.33301 -83 4 -119h-104
c2.66699 36 4 75.667 4 119z" />
    <glyph glyph-name="Z" unicode="Z" horiz-adv-x="667" 
d="M518 0h-497v67l478 549v1h-326c-42 0 -80 -1.33301 -114 -4v91c52 -2.66699 90 -4 114 -4h455v-73l-466 -543v-1h356c26 0 64.333 1.33301 115 4v-91c-50.667 2.66699 -89 4 -115 4z" />
    <glyph glyph-name="bracketleft" unicode="[" horiz-adv-x="309" 
d="M79 700h199v-82h-113v-654h113v-84h-199v820z" />
    <glyph glyph-name="backslash" unicode="\" horiz-adv-x="569" 
d="M19 800h90l442 -874h-89z" />
    <glyph glyph-name="bracketright" unicode="]" horiz-adv-x="309" 
d="M31 -38h113v654h-113v84h199v-820h-199v82z" />
    <glyph glyph-name="asciicircum" unicode="^" horiz-adv-x="545" 
d="M235 700h74l177 -200h-89l-125 142l-125 -142h-89z" />
    <glyph glyph-name="underscore" unicode="_" horiz-adv-x="553" 
d="M43 -46h467v-76h-467v76z" />
    <glyph glyph-name="grave" unicode="`" horiz-adv-x="319" 
d="M50 700h134l85 -112h-88z" />
    <glyph glyph-name="a" unicode="a" horiz-adv-x="506" 
d="M83 31.5c-32 26.333 -47.999 62.165 -47.999 107.498c0 41.333 14 74 42 98s68 38.667 120 44l155 16v32c0 67.333 -35 101 -105 101c-30 0 -60.333 -6.66699 -91 -20s-58.334 -29.666 -83.001 -48.999h-2v95c19.333 12.667 46.333 24.5 81 35.5s67 16.5 97 16.5
c129.333 0 194 -59 194 -177v-213v-34c0 -19.333 0.666992 -35 2 -47s4.33301 -24.333 9 -37h-92c-3.33301 8 -6.33301 24.333 -9 49h-1c-14.667 -17.333 -34.5 -31.166 -59.5 -41.499s-54.833 -15.5 -89.5 -15.5c-48 0 -88 13.167 -120 39.5zM282.001 76.999
c20 8.66699 36.667 22.1689 50 40.502s20 41.166 20 68.499v38l-125 -13c-31.333 -3.33301 -55.5 -11.5 -72.5 -24.5s-25.5 -28.833 -25.5 -47.5c0 -22.667 8 -40.834 24 -54.501s38.333 -20.5 67 -20.5c21.333 0 42 4.33301 62 13z" />
    <glyph glyph-name="b" unicode="b" horiz-adv-x="610" 
d="M227 13c-28 14 -50.334 32.998 -67.001 56.998h-1l-18 -70h-75c2.66699 36 4 81.667 4 137v495c0 44.667 -1.33301 84.334 -4 119.001h100c-2.66699 -34.667 -4 -74.334 -4 -119.001v-197h1c16.667 22.667 38.834 40.5 66.501 53.5s58.5 19.5 92.5 19.5
c49.333 0 92.666 -11.5 129.999 -34.5s66.333 -54.167 87 -93.5s31 -82.666 31 -129.999s-10.333 -90.666 -31 -129.999s-49.667 -70.5 -87 -93.5s-80.666 -34.5 -129.999 -34.5c-35.333 0 -67 7 -95 21zM403.499 95.998c23.667 16 41.998 37.5 54.998 64.5
s19.5 56.833 19.5 89.5s-6.5 62.5 -19.5 89.5s-31.333 48.5 -55 64.5s-51.167 24 -82.5 24c-30.667 0 -58.167 -7.66699 -82.5 -23s-43.166 -36.5 -56.499 -63.5s-20 -57.5 -20 -91.5c0 -52.667 14.833 -95.5 44.5 -128.5s67.834 -49.5 114.501 -49.5
c31.333 0 58.833 8 82.5 24z" />
    <glyph glyph-name="c" unicode="c" horiz-adv-x="495" 
d="M164.5 25c-39.667 22 -70.335 52.668 -92.002 92.001s-32.5 83.666 -32.5 132.999c0 48 11 91.667 33 131s52.833 70.333 92.5 93s84.834 34 135.501 34c29.333 0 57.333 -4.5 84 -13.5s49 -20.833 67 -35.5v-99h-1c-40.667 45.333 -90.334 68 -149.001 68
c-32.667 0 -62 -8 -88 -24s-46.167 -37.667 -60.5 -65s-21.5 -57 -21.5 -89c0 -33.333 7 -63.5 21 -90.5s34 -48.333 60 -64s55.667 -23.5 89 -23.5c31.333 0 59.833 6 85.5 18s46.834 28.667 63.501 50h1v-99c-15.333 -15.333 -36.666 -27.333 -63.999 -36
s-56.333 -13 -87 -13c-51.333 0 -96.833 11 -136.5 33z" />
    <glyph glyph-name="d" unicode="d" horiz-adv-x="610" 
d="M158 26.5c-37.333 23 -66.334 54.1689 -87.001 93.502s-31 82.666 -31 129.999s10.333 90.666 31 129.999s49.667 70.5 87 93.5s80.666 34.5 129.999 34.5c34 0 64.833 -6.5 92.5 -19.5s49.834 -30.833 66.501 -53.5h1v197c0 44.667 -1.33301 84.334 -4 119.001h100
c-2.66699 -34.667 -4 -74.334 -4 -119.001v-495c0 -55.333 1.33301 -101 4 -137h-75l-18 70h-1c-16.667 -24 -39 -43 -67 -57s-59.667 -21 -95 -21c-49.333 0 -92.666 11.5 -129.999 34.5zM403.499 121.502c29.667 33 44.498 75.833 44.498 128.5
c0 34 -6.66699 64.5 -20 91.5s-32.166 48.167 -56.499 63.5s-51.833 23 -82.5 23c-31.333 0 -58.833 -8 -82.5 -24s-42 -37.5 -55 -64.5s-19.5 -56.833 -19.5 -89.5s6.5 -62.5 19.5 -89.5s31.333 -48.5 55 -64.5s51.167 -24 82.5 -24c46.667 0 84.834 16.5 114.501 49.5z
" />
    <glyph glyph-name="e" unicode="e" horiz-adv-x="555" 
d="M161 24c-38 21.333 -67.667 51.502 -89 90.502s-32 84.167 -32 135.5c0 48.667 10.5 92.667 31.5 132s50 70.166 87 92.499s78.5 33.5 124.5 33.5c43.333 0 82.833 -10.5 118.5 -31.5s64 -51 85 -90s31.5 -84.5 31.5 -136.5c0 -14.667 -1 -26.667 -3 -36h-384
c5.33301 -42.667 22.833 -76.834 52.5 -102.501s66.167 -38.5 109.5 -38.5c30.667 0 58 6 82 18s44 28.667 60 50l58 -65c-57.333 -56 -125 -84 -203 -84c-48 0 -91 10.667 -129 32zM428 290.002c-4.66699 44.667 -20.501 79.332 -47.501 103.999s-59.5 37 -97.5 37
c-40.667 0 -74.667 -13.167 -102 -39.5s-43.666 -60.166 -48.999 -101.499h296z" />
    <glyph glyph-name="f" unicode="f" horiz-adv-x="396" 
d="M114 119v304.002h-5c-16.667 0 -33.834 -0.666992 -51.501 -2s-29.5 -2 -35.5 -2v84c40 -2 68.333 -3 85 -3h7v56c0 67.333 16 117.833 48 151.5s77 50.5 135 50.5c42 0 79.333 -9.66699 112 -29v-90h-1c-17.333 13.333 -34.666 23.166 -51.999 29.499s-36 9.5 -56 9.5
c-29.333 0 -52.333 -10.333 -69 -31s-25 -51.334 -25 -92.001v-55h59c54 0 94 1 120 3v-84c-34.667 2.66699 -74.667 4 -120 4h-59v-304c0 -43.333 1.33301 -83 4 -119h-101c3.33301 45.333 5 85 5 119z" />
    <glyph glyph-name="g" unicode="g" horiz-adv-x="513" 
d="M101.5 -176.5c-40.333 21 -60.5 50.501 -60.5 88.501c0 34 20.667 59.333 62 76v1c-38 19.333 -57 47.666 -57 84.999c0 22.667 6.66699 42.167 20 58.5s33 28.5 59 36.5v1c-22.667 18.667 -40.167 40.667 -52.5 66s-18.5 52.666 -18.5 81.999
c0 34.667 8.66699 66.5 26 95.5s41 52 71 69s62.667 25.5 98 25.5c14.667 0 28.5 -1.33301 41.5 -4s28.833 -6.66699 47.5 -12c24.667 -7.33301 41.667 -11 51 -11c38 0 70.333 11.667 97 35h1v-83c-12.667 -8 -31 -12 -55 -12c-10.667 0 -21 1.33301 -31 4v-4
c28.667 -27.333 43 -61.666 43 -102.999c0 -35.333 -8.66699 -67.5 -26 -96.5s-41 -52 -71 -69s-62.667 -25.5 -98 -25.5h-59c-18 0 -33.333 -3.5 -46 -10.5s-19 -16.5 -19 -28.5c0 -20.667 17 -31 51 -31h168c44 0 80.5 -10.5 109.5 -31.5s43.5 -49.167 43.5 -84.5
c0 -48 -20.167 -84.833 -60.5 -110.5s-95.833 -38.5 -166.5 -38.5c-72 0 -128.167 10.5 -168.5 31.5zM329 235.501c22 21.667 33 49.167 33 82.5c0 32.667 -11 59.834 -33 81.501s-48.667 32.5 -80 32.5s-58 -10.833 -80 -32.5s-33 -48.834 -33 -81.501
c0 -33.333 11 -60.833 33 -82.5s48.667 -32.5 80 -32.5s58 10.833 80 32.5zM371 -124.999c24.667 12 37.001 28.332 37.001 48.999c0 32 -28.333 48 -85 48h-104c-26.667 0 -48.334 -4.66699 -65.001 -14s-25 -22.666 -25 -39.999c0 -19.333 12.167 -34.333 36.5 -45
s59.166 -16 104.499 -16c42.667 0 76.334 6 101.001 18z" />
    <glyph glyph-name="h" unicode="h" horiz-adv-x="557" 
d="M67 25c2 54 2.99902 85.335 2.99902 94.002v513c0 44.667 -1.33301 84.334 -4 119.001h100c-2.66699 -34.667 -4 -74.334 -4 -119.001v-182h1c14.667 16.667 33.334 30.5 56.001 41.5s48 16.5 76 16.5c38.667 0 73 -7.83301 103 -23.5s53.167 -37.334 69.5 -65.001
s24.5 -58.834 24.5 -93.501v-207c0 -43.333 1.33301 -83 4 -119h-100c2.66699 36 4 75.667 4 119v179c0 42 -11.333 74.167 -34 96.5s-50.667 33.5 -84 33.5c-32 0 -60 -10.167 -84 -30.5s-36 -47.833 -36 -82.5v-196c0 -61.333 0.666992 -101 2 -119h-98z" />
    <glyph glyph-name="i" unicode="i" horiz-adv-x="232" 
d="M67 25c2 54 3 85.334 3 94.001v262c0 12 -1 44 -3 96l-1 23h100c-2.66699 -34.667 -4 -74.334 -4 -119.001v-262c0 -43.333 1.33301 -83 4 -119h-100zM78 600.501c-10 9.66699 -15 22.167 -15 37.5c0 16 5 29 15 39s22.667 15 38 15s28 -5 38 -15s15 -23 15 -39
c0 -15.333 -5 -27.833 -15 -37.5s-22.667 -14.5 -38 -14.5s-28 4.83301 -38 14.5z" />
    <glyph glyph-name="j" unicode="j" horiz-adv-x="240" 
d="M-43 -202c-14.667 4 -27 9.33203 -37 15.999v90h2c24.667 -19.333 50.667 -29 78 -29c26 0 45.5 8.33301 58.5 25s19.5 40.334 19.5 71.001v410c0 44.667 -1.33301 84.334 -4 119.001h100c-2.66699 -34.667 -4 -74.334 -4 -119.001v-426c0 -54 -14.333 -94.667 -43 -122
s-70 -41 -124 -41c-16 0 -31.333 2 -46 6zM86 600.499c-10 9.66699 -15 22.167 -15 37.5c0 16 5 29 15 39s22.667 15 38 15s28 -5 38 -15s15 -23 15 -39c0 -15.333 -5 -27.833 -15 -37.5s-22.667 -14.5 -38 -14.5s-28 4.83301 -38 14.5z" />
    <glyph glyph-name="k" unicode="k" horiz-adv-x="480" 
d="M70 119l-0.000976562 513.001c0 44.667 -1.33301 84.334 -4 119.001h100c-2.66699 -34.667 -4 -74.334 -4 -119.001v-356l142 163c16.667 20 32.334 40.333 47.001 61h116l-202 -229l216 -271h-117l-16 24c-2.66699 3.33301 -6.5 8.66602 -11.5 15.999
s-10.167 14.333 -15.5 21l-159 200v-142c0 -43.333 1.33301 -83 4 -119h-100c2.66699 36 4 75.667 4 119z" />
    <glyph glyph-name="l" unicode="l" horiz-adv-x="232" 
d="M70 119v513c0 44.667 -1.33301 84.334 -4 119.001h100c-2.66699 -34.667 -4 -74.334 -4 -119.001v-513c0 -43.333 1.33301 -83 4 -119h-100c2.66699 36 4 75.667 4 119z" />
    <glyph glyph-name="m" unicode="m" horiz-adv-x="863" 
d="M67 25c2 54 3.00293 85.332 3.00293 93.999v262c0 12 -1 44 -3 96l-1 23h82l5 -55h1c10 16 28.167 30.5 54.5 43.5s52.166 19.5 77.499 19.5c30.667 0 61.167 -6.33301 91.5 -19s54.166 -31.667 71.499 -57c18.667 26.667 40.5 46 65.5 58s54.167 18 87.5 18
c57.333 0 104.333 -17 141 -51s55 -81.333 55 -142v-196c0 -43.333 1.33301 -83 4 -119h-100c2.66699 36 4 75.667 4 119v191c0 26 -5.5 48.167 -16.5 66.5s-25.167 32 -42.5 41s-35.333 13.5 -54 13.5c-32.667 0 -59.5 -10.5 -80.5 -31.5s-31.5 -51.5 -31.5 -91.5v-189
c0 -43.333 1.33301 -83 4 -119h-101c3.33301 45.333 5 85 5 119v189c0 38.667 -11.5 68.834 -34.5 90.501s-50.167 32.5 -81.5 32.5c-30.667 0 -56.834 -11 -78.501 -33s-32.5 -49 -32.5 -81v-198c0 -43.333 1.33301 -83 4 -119h-100z" />
    <glyph glyph-name="n" unicode="n" horiz-adv-x="557" 
d="M67 25c2 54 3 85.335 3 94.002v262c0 12 -1 44 -3 96l-1 23h82l6 -59h1c14.667 21.333 35 37.833 61 49.5s52.333 17.5 79 17.5c38.667 0 73 -7.83301 103 -23.5s53.167 -37.334 69.5 -65.001s24.5 -58.834 24.5 -93.501v-207c0 -43.333 1.33301 -83 4 -119h-100
c2.66699 36 4 75.667 4 119v179c0 42 -11.333 74.167 -34 96.5s-50.667 33.5 -84 33.5c-32 0 -60 -10.833 -84 -32.5s-36 -50.5 -36 -86.5v-190c0 -43.333 1.33301 -83 4 -119h-100z" />
    <glyph glyph-name="o" unicode="o" horiz-adv-x="596" 
d="M166.5 26c-39.667 22.667 -70.835 53.667 -93.502 93s-34 83 -34 131s11.333 91.667 34 131s53.834 70.333 93.501 93s83.5 34 131.5 34s91.833 -11.333 131.5 -34s70.834 -53.667 93.501 -93s34 -83 34 -131c0 -48.667 -11.333 -92.5 -34 -131.5
s-53.667 -69.833 -93 -92.5s-83.333 -34 -132 -34c-48 0 -91.833 11.333 -131.5 34zM382.999 96c25.333 16 45.333 37.5 60 64.5s22 56.833 22 89.5s-7.33301 62.5 -22 89.5s-34.667 48.5 -60 64.5s-53.666 24 -84.999 24s-59.666 -8 -84.999 -24s-45.333 -37.5 -60 -64.5
s-22 -56.833 -22 -89.5s7.33301 -62.5 22 -89.5s34.667 -48.5 60 -64.5s53.666 -24 84.999 -24s59.666 8 84.999 24z" />
    <glyph glyph-name="p" unicode="p" horiz-adv-x="611" 
d="M70 -81l0.000976562 443.998c0 55.333 -1.33301 101 -4 137h75l18 -70h1c16.667 24 39 43 67 57s59.667 21 95 21c49.333 0 92.666 -11.5 129.999 -34.5s66.333 -54.167 87 -93.5s31 -82.666 31 -129.999s-10.333 -90.666 -31 -129.999s-49.667 -70.5 -87 -93.5
s-80.666 -34.5 -129.999 -34.5c-34 0 -64.833 6.5 -92.5 19.5s-49.834 30.833 -66.501 53.5h-1v-146c0 -44.667 1.33301 -84.334 4 -119.001h-100c2.66699 34.667 4 74.334 4 119.001zM403.501 95.998c23.667 16 42.002 37.5 55.002 64.5s19.5 56.833 19.5 89.5
s-6.5 62.5 -19.5 89.5s-31.333 48.5 -55 64.5s-51.167 24 -82.5 24c-46.667 0 -84.834 -16.5 -114.501 -49.5s-44.5 -75.833 -44.5 -128.5c0 -34 6.66699 -64.5 20 -91.5s32.166 -48.167 56.499 -63.5s51.833 -23 82.5 -23c31.333 0 58.833 8 82.5 24z" />
    <glyph glyph-name="q" unicode="q" horiz-adv-x="610" 
d="M448 -81l0.000976562 146.002h-1c-16.667 -22.667 -38.834 -40.5 -66.501 -53.5s-58.5 -19.5 -92.5 -19.5c-49.333 0 -92.666 11.5 -129.999 34.5s-66.333 54.167 -87 93.5s-31 82.666 -31 129.999s10.333 90.666 31 129.999s49.667 70.5 87 93.5
s80.666 34.5 129.999 34.5c35.333 0 67 -7 95 -21s50.333 -33 67 -57h1l18 70h75c-2.66699 -36 -4 -81.667 -4 -137v-444c0 -44.667 1.33301 -84.334 4 -119.001h-100c2.66699 34.667 4 74.334 4 119.001zM371.501 95.002c24.333 15.333 43.168 36.5 56.501 63.5
s20 57.5 20 91.5c0 52.667 -14.833 95.5 -44.5 128.5s-67.834 49.5 -114.501 49.5c-31.333 0 -58.833 -8 -82.5 -24s-42 -37.5 -55 -64.5s-19.5 -56.833 -19.5 -89.5s6.5 -62.5 19.5 -89.5s31.333 -48.5 55 -64.5s51.167 -24 82.5 -24c30.667 0 58.167 7.66699 82.5 23z" />
    <glyph glyph-name="r" unicode="r" horiz-adv-x="371" 
d="M67 25c2 54 3 85.333 3 94v262c0 12 -1 44 -3 96l-1 23h82l6 -57h1c14 20.667 31.833 36.667 53.5 48s46.167 17 73.5 17c14.667 0 28.5 -1.5 41.5 -4.5s23.167 -6.83301 30.5 -11.5v-104h-2c-23.333 26 -51 39 -83 39s-57.833 -11.833 -77.5 -35.5
s-29.5 -55.5 -29.5 -95.5v-177c0 -43.333 1.33301 -83 4 -119h-100z" />
    <glyph glyph-name="s" unicode="s" horiz-adv-x="443" 
d="M130.5 3.5c-31 8.33301 -57.834 18.166 -80.501 29.499v107h2c20.667 -20.667 46.834 -37.834 78.501 -51.501s62.5 -20.5 92.5 -20.5c27.333 0 49.333 6.5 66 19.5s25 29.5 25 49.5c0 16.667 -5.16699 30.334 -15.5 41.001s-26.833 19.667 -49.5 27l-86 27
c-76.667 24.667 -115 68.667 -115 132c0 46.667 17.5 82.334 52.5 107.001s77.833 37 128.5 37c26.667 0 53.167 -3.5 79.5 -10.5s48.5 -15.833 66.5 -26.5v-103h-1c-19.333 19.333 -41.666 34.833 -66.999 46.5s-50.333 17.5 -75 17.5c-28.667 0 -51.334 -6 -68.001 -18
s-25 -27 -25 -45c0 -17.333 6.33301 -30.5 19 -39.5s30 -17.167 52 -24.5l79 -26c40.667 -13.333 70.167 -30.833 88.5 -52.5s27.5 -50.5 27.5 -86.5c0 -44.667 -16.833 -80.667 -50.5 -108s-78.5 -41 -134.5 -41c-28.667 0 -58.5 4.16699 -89.5 12.5z" />
    <glyph glyph-name="t" unicode="t" horiz-adv-x="402" 
d="M151.5 29.5c-28.333 25 -42.501 61.499 -42.501 109.499v283h-8c-16 0 -44 -1 -84 -3v84c18.667 -2 47 -3 85 -3h7v51c0 43.333 -1.33301 83 -4 119h100c-2.66699 -36 -4 -75.667 -4 -119v-51h59c54.667 0 95 1 121 3v-85c-34.667 2.66699 -75 4 -121 4h-59v-268
c0 -54.667 26.333 -82 79 -82c18 0 35.833 4.33301 53.5 13s32.834 19.334 45.501 32.001h2v-96c-40.667 -19.333 -80 -29 -118 -29c-46 0 -83.167 12.5 -111.5 37.5z" />
    <glyph glyph-name="u" unicode="u" horiz-adv-x="548" 
d="M116 39.5c-34 31.667 -50.999 77.834 -50.999 138.501v203c0 8.66699 -1 40 -3 94l-1 25h100c-2.66699 -36 -4 -75.667 -4 -119v-182c0 -42.667 8.83301 -74.5 26.5 -95.5s45.167 -31.5 82.5 -31.5s66.666 10.333 87.999 31s32 52 32 94v184c0 43.333 -1.33301 83 -4 119
h100c-2.66699 -36 -4 -75.667 -4 -119v-262c0 -44.667 1.33301 -84.334 4 -119.001h-82l-6 57h-1c-9.33301 -17.333 -26.833 -32.5 -52.5 -45.5s-52.167 -19.5 -79.5 -19.5c-62.667 0 -111 15.833 -145 47.5z" />
    <glyph glyph-name="v" unicode="v" horiz-adv-x="476" 
d="M184 41l-146.002 405.001c-8.66699 25.333 -18 43 -28 53v1h111c-1.33301 -10 1.33398 -25.333 8.00098 -46l109 -336h1l110 336c6 18.667 9 34 9 46h108v-1c-4.66699 -4.66699 -9.16699 -10.834 -13.5 -18.501s-9.16602 -19.167 -14.499 -34.5l-146 -405l-14 -41h-80z
" />
    <glyph glyph-name="w" unicode="w" horiz-adv-x="715" 
d="M151 13.5c-0.666992 7 -2.66699 16.167 -6 27.5l-106 405c-8 28.667 -16.333 46.334 -25 53.001v1h105c0 -8 2.66699 -23.333 8 -46l78 -339h1l99 339c4.66699 16.667 8 32 10 46h89c0 -4.66699 0.833008 -12 2.5 -22s3.5 -18 5.5 -24l101 -339h1l77 339
c4.66699 19.333 7.66699 34.666 9 45.999h102v-1c-10.667 -13.333 -19 -31 -25 -53l-107 -405c-4.66699 -17.333 -6.66699 -31 -6 -41h-98c0 1.33301 -0.5 5.83301 -1.5 13.5s-2.83301 16.834 -5.5 27.501l-101 353h-1l-101 -353c-4 -14.667 -6 -28.334 -6 -41.001h-98
c0 2 -0.333008 6.5 -1 13.5z" />
    <glyph glyph-name="x" unicode="x" horiz-adv-x="476" 
d="M41 44l144.002 210l-127 192l-18 27.5c-8.66699 13 -15.334 21.833 -20.001 26.5h112c1.33301 -2.66699 3.16602 -7.5 5.49902 -14.5s7.83301 -17.5 16.5 -31.5l84 -137h1l84 137c14 24 21.333 39.333 22 46h111c-3.33301 -3.33301 -9.66602 -11.833 -18.999 -25.5
s-15.666 -23.167 -18.999 -28.5l-126 -192l143 -210c4.66699 -8 10.667 -17 18 -27s12 -15.667 14 -17h-113c-0.666992 2 -2 6.83301 -4 14.5s-6.33301 16.5 -13 26.5l-98 146h-1l-99 -146c-4.66699 -6.66699 -8.33398 -14 -11.001 -22s-4.33398 -14.333 -5.00098 -19h-115
c2.66699 1.33301 13.667 16 33 44z" />
    <glyph glyph-name="y" unicode="y" horiz-adv-x="485" 
d="M103 -199c0.666992 1.33301 3.50098 5.5 8.50098 12.5s9.83301 17.167 14.5 30.5l75 196l-164 406c-8.66699 21.333 -18 39 -28 53v1h108c-0.666992 -2 -1 -5 -1 -9c0 -9.33301 3 -21.666 9 -36.999l122 -313h1l112 313c7.33301 20.667 10.333 36 9 46h107v-1
c-1.33301 -2 -5.33301 -8.33301 -12 -19s-12.334 -22 -17.001 -34l-231 -605c-3.33301 -8.66699 -5 -16.334 -5 -23.001c0 -6 1.33301 -11.667 4 -17v-1h-112v1z" />
    <glyph glyph-name="z" unicode="z" horiz-adv-x="473" 
d="M403 -2c-25.333 1.33301 -44 2 -56 2h-318v61l283 358v1h-168c-12.667 0 -31.667 -0.666992 -57 -2c-16 -1.33301 -28.333 -2 -37 -2v88c8.66699 0 21 -0.666992 37 -2c25.333 -1.33301 44.333 -2 57 -2h286v-67l-275 -351v-1h192c12 0 30.667 0.666992 56 2
c16 1.33301 28.333 2 37 2v-89c-8.66699 0 -21 0.666992 -37 2z" />
    <glyph glyph-name="braceleft" unicode="{" horiz-adv-x="293" 
d="M169 -104.5c-24.667 11.667 -44.668 28.3242 -60.001 49.9912s-23 46.834 -23 75.501c0 16.667 1.16699 31.334 3.5 44.001s5.5 27.667 9.5 45c7.33301 26 11 47 11 63c0 49.333 -25.667 77 -77 83v68c51.333 6 77 33.667 77 83c0 16.667 -3.66699 37.667 -11 63
c-4 17.333 -7.16699 32.333 -9.5 45s-3.5 27.334 -3.5 44.001c0 28.667 7.66699 53.834 23 75.501s35.333 38.334 60 50.001s50.667 18.167 78 19.5v-84c-26.667 0 -45.667 -5.16699 -57 -15.5s-17 -25.166 -17 -44.499c0 -12 1.5 -24.5 4.5 -37.5
s4.83301 -20.833 5.5 -23.5c9.33301 -36 14 -68 14 -96c0 -25.333 -5.16699 -48.166 -15.5 -68.499s-28.166 -34.833 -53.499 -43.5v-2c46 -15.333 69 -52.666 69 -111.999c0 -28 -4.66699 -60 -14 -96c-0.666992 -2.66699 -2.5 -10.5 -5.5 -23.5s-4.5 -25.5 -4.5 -37.5
c0 -19.333 5.66699 -34.166 17 -44.499s30.333 -15.5 57 -15.5v-84c-27.333 1.33301 -53.333 7.83301 -78 19.5z" />
    <glyph glyph-name="bar" unicode="|" horiz-adv-x="252" 
d="M80 -16v697c0 44.667 -1.33301 84.334 -4 119.001h100c-2.66699 -34.667 -4 -74.334 -4 -119.001v-697c0 -43.333 1.33301 -83 4 -119h-100c2.66699 36 4 75.667 4 119z" />
    <glyph glyph-name="braceright" unicode="}" horiz-adv-x="293" 
d="M46 -40c26.667 0 45.666 5.17676 56.999 15.5098s17 25.166 17 44.499c0 12 -1.5 24.5 -4.5 37.5s-4.83301 20.833 -5.5 23.5c-9.33301 36 -14 68 -14 96c0 25.333 5 48.166 15 68.499s28 34.833 54 43.5v2c-25.333 8.66699 -43.166 23.167 -53.499 43.5
s-15.5 43.166 -15.5 68.499c0 28 4.66699 60 14 96c0.666992 2.66699 2.5 10.5 5.5 23.5s4.5 25.5 4.5 37.5c0 19.333 -5.66699 34.166 -17 44.499s-30.333 15.5 -57 15.5v84c27.333 -1.33301 53.333 -7.83301 78 -19.5s44.667 -28.334 60 -50.001s23 -46.834 23 -75.501
c0 -16.667 -1.16699 -31.334 -3.5 -44.001s-5.5 -27.667 -9.5 -45c-7.33301 -25.333 -11 -46.333 -11 -63c0 -49.333 25.667 -77 77 -83v-68c-51.333 -6 -77 -33.667 -77 -83c0 -16 3.66699 -37 11 -63c4 -17.333 7.16699 -32.333 9.5 -45s3.5 -27.334 3.5 -44.001
c0 -28.667 -7.66699 -53.834 -23 -75.501s-35.333 -38.334 -60 -50.001s-50.667 -18.167 -78 -19.5v84z" />
    <glyph glyph-name="asciitilde" unicode="~" horiz-adv-x="545" 
d="M318.5 192.5c-11.667 4.33301 -24.4961 10.833 -38.4961 19.5l-21 13c-2.66699 2 -8.83398 6 -18.501 12s-18.334 10.333 -26.001 13s-15.167 4 -22.5 4c-14.667 0 -25.334 -5.66699 -32.001 -17s-10.667 -25 -12 -41h-82c6 40.667 19.167 72.834 39.5 96.501
s47.5 35.5 81.5 35.5c14 0 27 -2 39 -6s25 -10.333 39 -19l21 -13c3.33301 -2 9.83301 -6.16699 19.5 -12.5s18 -10.833 25 -13.5s14.167 -4 21.5 -4c14.667 0 25.5 5.83301 32.5 17.5s10.833 25.167 11.5 40.5h83c-6 -40.667 -19.333 -72.834 -40 -96.501
s-47.667 -35.5 -81 -35.5c-14.667 0 -27.834 2.16699 -39.501 6.5z" />
    <glyph glyph-name="uni00A0" unicode="&#xa0;" horiz-adv-x="240" 
 />
    <glyph glyph-name="exclamdown" unicode="&#xa1;" horiz-adv-x="233" 
d="M74.5 462c-11 10.667 -16.5 24.334 -16.5 41.001c0 16 5.5 29.333 16.5 40s24.833 16 41.5 16s30.334 -5.33301 41.001 -16s16 -24 16 -40c0 -16.667 -5.33301 -30.334 -16 -41.001s-24.334 -16 -41.001 -16s-30.5 5.33301 -41.5 16zM71 -43l5 300
c0 42 7.33301 77.667 22 107h37c14.667 -29.333 22 -65 22 -107l5 -300c1.33301 -44.667 4.33301 -80 9 -106h-109c4.66699 26 7.66699 61.333 9 106z" />
    <glyph glyph-name="cent" unicode="&#xa2;" horiz-adv-x="507" 
d="M260 -5c-66 8.66699 -118.833 36.332 -158.5 82.999s-59.5 104 -59.5 172c0 43.333 9 83.166 27 119.499s43.5 66.5 76.5 90.5s71.167 39 114.5 45c-1.33301 42.667 -2.66602 71.334 -3.99902 86.001h100c-1.33301 -14.667 -2.66602 -44 -3.99902 -88
c41.333 -7.33301 75.333 -22 102 -44v-99h-1c-40.667 45.333 -90.334 68 -149.001 68c-32.667 0 -62 -8 -88 -24s-46.167 -37.667 -60.5 -65s-21.5 -57 -21.5 -89c0 -33.333 7 -63.5 21 -90.5s34 -48.333 60 -64s55.667 -23.5 89 -23.5c31.333 0 59.833 6 85.5 18
s46.834 28.667 63.501 50h1v-99c-22 -22 -56 -37 -102 -45c1.33301 -43.333 2.66602 -72.333 3.99902 -87h-100c1.33301 14.667 2.66602 43.334 3.99902 86.001z" />
    <glyph glyph-name="sterling" unicode="&#xa3;" horiz-adv-x="504" 
d="M56 74c23.333 14.667 45.499 36.833 66.499 66.5s31.5 66.834 31.5 111.501c0 17.333 -1 33 -3 47c-47.333 0 -82.666 -1 -105.999 -3v87c13.333 -1.33301 41.666 -2.66602 84.999 -3.99902c-9.33301 28.667 -16.166 52.167 -20.499 70.5s-6.5 40.166 -6.5 65.499
c0 34 8.66699 65.667 26 95s42.166 53 74.499 71s69.833 27 112.5 27c48 0 90 -9.66699 126 -29v-99h-1c-13.333 14.667 -30 26.334 -50 35.001s-42.333 13 -67 13c-39.333 0 -70.666 -11.333 -93.999 -34s-35 -51.334 -35 -86.001c0 -17.333 2 -34 6 -50
s9.66699 -34.667 17 -56l7 -23h72c43.333 0 82.333 1.33301 117 4v-87c-26 2 -65 3 -117 3h-54c2 -14.667 3 -30.334 3 -47.001c0 -70 -29.667 -127 -89 -171v-1h193c14 0 36.333 0.666992 67 2c20 1.33301 35.333 2 46 2l-3 -84h-404v74z" />
    <glyph glyph-name="currency" unicode="&#xa4;" horiz-adv-x="517" 
d="M51 190l60 61c-20.667 31.333 -31 66 -31 104s10.333 72.667 31 104l-60 60l43 44l60 -60c30.667 22 65.334 33 104.001 33c39.333 0 74.333 -11 105 -33l60 60l43 -44l-60 -60c20.667 -30 31 -64.667 31 -104s-10.333 -74 -31 -104l60 -61l-43 -43l-60 60
c-30.667 -22 -65.667 -33 -105 -33c-38.667 0 -73.334 11 -104.001 33l-60 -60zM334.5 275.5c20.333 21.667 30.5 48.167 30.5 79.5s-10.167 57.833 -30.5 79.5s-45.833 32.5 -76.5 32.5c-29.333 0 -54.333 -10.833 -75 -32.5s-31 -48.167 -31 -79.5
s10.333 -57.833 31 -79.5s45.667 -32.5 75 -32.5c30.667 0 56.167 10.833 76.5 32.5z" />
    <glyph glyph-name="yen" unicode="&#xa5;" horiz-adv-x="606" 
d="M256 119l-0.000976562 31h-56c-44 0 -82.667 -1.33301 -116 -4v82c24.667 -2 63.334 -3 116.001 -3h56v73h-56c-52 0 -90.667 -1 -116 -3v82c33.333 -2.66699 72 -4 116 -4h14v1l-153 276c-4 8 -14.333 24.667 -31 50h105c6 -12.667 15.333 -31 28 -55l141 -272h1
l141 271l11 20c10 19.333 16 31.333 18 36h101c-2 -3.33301 -6.5 -10 -13.5 -20s-13.167 -20 -18.5 -30l-151 -276v-1h13c54.667 0 93.667 1.33301 117 4v-82c-26 2 -65 3 -117 3h-54v-73h54c52 0 91 1 117 3v-82c-34.667 2.66699 -73.667 4 -117 4h-54v-31
c0 -43.333 1.33301 -83 4 -119h-104c2.66699 36 4 75.667 4 119z" />
    <glyph glyph-name="brokenbar" unicode="&#xa6;" horiz-adv-x="252" 
d="M80 558v123c0 44.667 -1.33301 84.334 -4 119.001h100c-2.66699 -34.667 -4 -74.334 -4 -119.001v-123c0 -44.667 1.33301 -84.334 4 -119.001h-100c2.66699 34.667 4 74.334 4 119.001zM80 -16v123c0 44.667 -1.33301 84.334 -4 119.001h100
c-2.66699 -34.667 -4 -74.334 -4 -119.001v-123c0 -44.667 1.33301 -84.334 4 -119.001h-100c2.66699 34.667 4 74.334 4 119.001z" />
    <glyph glyph-name="section" unicode="&#xa7;" horiz-adv-x="470" 
d="M146.5 2.5c-26.333 7 -48.5 15.833 -66.5 26.5v103h1c19.333 -19.333 41.666 -34.833 66.999 -46.5s50.333 -17.5 75 -17.5c28.667 0 51.334 6 68.001 18s25 27 25 45c0 16.667 -6.16699 29.667 -18.5 39s-29.833 17.666 -52.5 24.999l-79 26
c-40.667 13.333 -70.167 30.833 -88.5 52.5s-27.5 50.5 -27.5 86.5c0 46.667 20.333 81.667 61 105v1c-32 24 -48 56.667 -48 98c0 46.667 17.5 82.334 52.5 107.001s77.833 37 128.5 37c26.667 0 53.167 -3.5 79.5 -10.5s48.5 -15.833 66.5 -26.5v-103h-1
c-19.333 19.333 -41.666 34.833 -66.999 46.5s-50.333 17.5 -75 17.5c-28.667 0 -51.334 -6 -68.001 -18s-25 -27 -25 -45c0 -16.667 6.16699 -29.667 18.5 -39s29.833 -17.666 52.5 -24.999l79 -26c40.667 -13.333 70.167 -30.833 88.5 -52.5s27.5 -50.5 27.5 -86.5
c0 -46.667 -20.333 -81.667 -61 -105v-1c32 -24 48 -56.667 48 -98c0 -46.667 -17.5 -82.334 -52.5 -107.001s-77.833 -37 -128.5 -37c-26.667 0 -53.167 3.5 -79.5 10.5zM315 298c9.33301 11.333 14 24.3359 14 39.0029c0 17.333 -5.33301 31.166 -16 41.499
s-27 19.166 -49 26.499l-70 22c-16.667 -5.33301 -29.667 -13.666 -39 -24.999s-14 -24.333 -14 -39c0 -16.667 5.33301 -30.334 16 -41.001s27 -19.667 49 -27l70 -22c16.667 5.33301 29.667 13.666 39 24.999z" />
    <glyph glyph-name="dieresis" unicode="&#xa8;" horiz-adv-x="396" 
d="M64.5 602c-9.66699 9.33301 -14.498 21.333 -14.498 36c0 15.333 4.66699 27.833 14 37.5s21.666 14.5 36.999 14.5c16 0 28.833 -4.83301 38.5 -14.5s14.5 -22.167 14.5 -37.5s-4.83301 -27.5 -14.5 -36.5s-22.5 -13.5 -38.5 -13.5
c-14.667 0 -26.834 4.66699 -36.501 14zM256.502 602c-9.66699 9.33301 -14.498 21.333 -14.498 36c0 15.333 4.66699 27.833 14 37.5s21.666 14.5 36.999 14.5c16 0 28.833 -4.83301 38.5 -14.5s14.5 -22.167 14.5 -37.5s-4.83301 -27.5 -14.5 -36.5
s-22.5 -13.5 -38.5 -13.5c-14.667 0 -26.834 4.66699 -36.501 14z" />
    <glyph glyph-name="copyright" unicode="&#xa9;" horiz-adv-x="904" 
d="M246.5 -95c-63 36.667 -112.833 86.5 -149.5 149.5s-55 131.5 -55 205.5s18.333 142.5 55 205.5s86.5 112.833 149.5 149.5s131.5 55 205.5 55s142.5 -18.333 205.5 -55s112.833 -86.5 149.5 -149.5s55 -131.5 55 -205.5s-18.333 -142.5 -55 -205.5
s-86.5 -112.833 -149.5 -149.5s-131.5 -55 -205.5 -55s-142.5 18.333 -205.5 55zM624.5 -34c51 30.667 90.833 72 119.5 124s43 108.667 43 170s-14.333 118 -43 170s-68.5 93.333 -119.5 124s-108.5 46 -172.5 46s-121.5 -15.333 -172.5 -46s-90.833 -72 -119.5 -124
s-43 -108.667 -43 -170s14.333 -118 43 -170s68.5 -93.333 119.5 -124s108.5 -46 172.5 -46s121.5 15.333 172.5 46zM351.5 58c-35.667 20 -63.335 47.5029 -83.002 82.5029s-29.5 74.833 -29.5 119.5c0 43.333 10 82.666 30 117.999s47.833 63.166 83.5 83.499
s76.167 30.5 121.5 30.5c26 0 51 -4 75 -12s44.333 -18.667 61 -32v-89h-1c-36 40.667 -80.667 61 -134 61c-29.333 0 -55.666 -7.16699 -78.999 -21.5s-41.5 -33.833 -54.5 -58.5s-19.5 -51.334 -19.5 -80.001c0 -46 14 -84.167 42 -114.5s65 -45.5 111 -45.5
c28.667 0 54.334 5.33301 77.001 16s41.667 25.667 57 45h1v-89c-14 -14 -33.333 -24.833 -58 -32.5s-50.667 -11.5 -78 -11.5c-46 0 -86.833 10 -122.5 30z" />
    <glyph glyph-name="ordfeminine" unicode="&#xaa;" horiz-adv-x="302" 
d="M121 473c-22 0 -40.4961 6.49707 -55.4961 19.4971s-22.5 30.167 -22.5 51.5c0 16.667 6 30.834 18 42.501s29 18.834 51 21.501l70 9c0 10.667 -3.83301 18.667 -11.5 24s-18.5 8 -32.5 8c-12.667 0 -25.5 -2.66699 -38.5 -8s-24.5 -11.666 -34.5 -18.999h-1v61
c13.333 7.33301 25.666 13 36.999 17s26.666 6 45.999 6c23.333 0 44.166 -6 62.499 -18s27.5 -33.333 27.5 -64v-77c0 -28.667 1.33301 -52 4 -70h-59l-4 21h-1c-12.667 -16.667 -31.334 -25 -56.001 -25zM170.004 529.497c8 7.66699 12 16.5 12 26.5v16l-45 -6
c-22.667 -3.33301 -34 -11 -34 -23c0 -7.33301 3.16699 -13.333 9.5 -18s14.833 -7 25.5 -7c13.333 0 24 3.83301 32 11.5z" />
    <glyph glyph-name="guillemotleft" unicode="&#xab;" horiz-adv-x="485" 
d="M40 248v4l130 190h73l-107 -192l107 -192h-73zM232 248v4l130 190h73l-107 -192l107 -192h-73z" />
    <glyph glyph-name="logicalnot" unicode="&#xac;" horiz-adv-x="545" 
d="M403 269v39c-12.667 0.666992 -33 1 -61 1h-152c-43.333 0 -89 -1.66699 -137 -5v82c48 -3.33301 93.667 -5 137 -5h289v-112c0 -42.667 1.66699 -88.334 5 -137.001h-86c3.33301 48.667 5 94.334 5 137.001z" />
    <glyph glyph-name="uni00AD" unicode="&#xad;" horiz-adv-x="443" 
d="M63 300c25.333 -2 64 -3 116 -3h84c52 0 91 1 117 3v-87c-34.667 2.66699 -73.667 4 -117 4h-84c-44 0 -82.667 -1.33301 -116 -4v87z" />
    <glyph glyph-name="registered" unicode="&#xae;" horiz-adv-x="499" 
d="M145 320c-32 18.667 -57.333 44 -76 76s-28 67 -28 105s9.33301 72.833 28 104.5s44 56.834 76 75.501s67 28 105 28s72.833 -9.33301 104.5 -28s56.834 -43.834 75.501 -75.501s28 -66.5 28 -104.5s-9.33301 -73 -28 -105s-43.834 -57.333 -75.501 -76
s-66.5 -28 -104.5 -28s-73 9.33301 -105 28zM355 393.5c26.667 29 40 64.833 40 107.5s-13.333 78.334 -40 107.001s-61.667 43 -105 43s-78.5 -14.333 -105.5 -43s-40.5 -64.334 -40.5 -107.001s13.5 -78.5 40.5 -107.5s62.167 -43.5 105.5 -43.5s78.333 14.5 105 43.5z
M174 445l0.000976562 118.002c0 10.667 -0.666992 26 -2 46h79c25.333 0 43.5 -6.83301 54.5 -20.5s16.5 -28.834 16.5 -45.501c0 -12.667 -2.83301 -23.667 -8.5 -33s-14.167 -16.333 -25.5 -21v-1c5.33301 -2 11.666 -9.33301 18.999 -22l6 -10l13 -22.5l20 -33.5v-1h-65
c-5.33301 13.333 -12 27.666 -20 42.999l-12 22c-3.33301 6.66699 -8 10 -14 10h-6v-29c0 -20.667 0.666992 -36 2 -46h-59c1.33301 20 2 35.333 2 46zM262.501 524.002c4.33301 3.33301 6.5 8.33301 6.5 15c0 11.333 -7.66699 17 -23 17h-17v-36
c5.33301 -0.666992 11.333 -1 18 -1c6 0 11.167 1.66699 15.5 5z" />
    <glyph glyph-name="macron" unicode="&#xaf;" horiz-adv-x="376" 
d="M50 676h276v-74h-276v74z" />
    <glyph glyph-name="degree" unicode="&#xb0;" horiz-adv-x="328" 
d="M75.5 494c-24.333 24.667 -36.5 54.334 -36.5 89.001c0 22 5.66699 42.667 17 62s26.5 34.666 45.5 45.999s39.833 17 62.5 17s43.5 -5.66699 62.5 -17s34.167 -26.666 45.5 -45.999s17 -40 17 -62c0 -34.667 -12.167 -64.334 -36.5 -89.001s-53.833 -37 -88.5 -37
s-64.167 12.333 -88.5 37zM206 540c11.333 12 17 26.333 17 43s-5.66699 30.834 -17 42.501s-25.333 17.5 -42 17.5s-30.667 -5.83301 -42 -17.5s-17 -25.834 -17 -42.501s5.66699 -31 17 -43s25.333 -18 42 -18s30.667 6 42 18z" />
    <glyph glyph-name="plusminus" unicode="&#xb1;" horiz-adv-x="545" 
d="M234 290h-38.001c-42.667 0 -88.334 -1.66699 -137.001 -5v81c48.667 -3.33301 94.334 -5 137.001 -5h38c-1.33301 43.333 -3 79 -5 107h86c-2 -28 -3.66699 -63.667 -5 -107h38c41.333 0 87 1.66699 137 5v-81c-50 3.33301 -95.667 5 -137 5h-38
c1.33301 -44 3 -80 5 -108h-86c2.66699 28 4.33398 64 5.00098 108zM58.999 146c48 -3.33301 93.668 -5 137.001 -5h152c41.333 0 87 1.66699 137 5v-81c-50 3.33301 -95.667 5 -137 5h-152c-42.667 0 -88.334 -1.66699 -137.001 -5v81z" />
    <glyph glyph-name="uni00B2" unicode="&#xb2;" horiz-adv-x="292" 
d="M197 510l-162 0.00292969v1l79 107c22.667 30.667 39 54.667 49 72s15 32.333 15 45c0 9.33301 -3 17 -9 23s-15.333 9 -28 9c-15.333 0 -31.666 -6.33301 -48.999 -19s-33.333 -28.334 -48 -47.001h-1v89c11.333 10 26.5 19 45.5 27s38.167 12 57.5 12
c28.667 0 51.667 -7.5 69 -22.5s26 -37.5 26 -67.5c0 -16.667 -4.33301 -34.334 -13 -53.001s-21.334 -40.334 -38.001 -65.001l-33 -48v-1h40c14.667 0 33 1 55 3v-67c-24 1.33301 -42.333 2 -55 2z" />
    <glyph glyph-name="uni00B3" unicode="&#xb3;" horiz-adv-x="296" 
d="M73 516.5c-18 7 -31.999 14.832 -41.999 23.499l39 53c11.333 -8 21.666 -14 30.999 -18s20.666 -6 33.999 -6c16.667 0 30.334 4.5 41.001 13.5s16 21.5 16 37.5c0 16.667 -5.83301 29.334 -17.5 38.001s-28.167 13 -49.5 13h-48v1l61 90v1h-39
c-10.667 0 -28.667 -0.666992 -54 -2v66c25.333 -1.33301 43.333 -2 54 -2h152v-1l-70 -99c24.667 -7.33301 43.167 -20.833 55.5 -40.5s18.5 -41.167 18.5 -64.5c0 -32 -10.833 -59 -32.5 -81s-51.5 -33 -89.5 -33c-22 0 -42 3.5 -60 10.5z" />
    <glyph glyph-name="acute" unicode="&#xb4;" horiz-adv-x="319" 
d="M135 700h134l-131 -112h-88z" />
    <glyph glyph-name="uni00B5" unicode="&#xb5;" horiz-adv-x="567" 
d="M77 -81l0.000976562 462.001c0 8.66699 -1 40 -3 94l-1 25h100c-2.66699 -36 -4 -75.667 -4 -119v-182c0 -42.667 8.83301 -74.5 26.5 -95.5s45.167 -31.5 82.5 -31.5s66.666 10.333 87.999 31s32 52 32 94v184c0 43.333 -1.33301 83 -4 119h100
c-2.66699 -36 -4 -75.667 -4 -119v-262c0 -44.667 1.33301 -84.334 4 -119.001h-82l-6 57h-1c-9.33301 -17.333 -26.833 -32.5 -52.5 -45.5s-52.167 -19.5 -79.5 -19.5c-40.667 0 -75 11 -103 33h-1v-106c0 -43.333 1.33301 -83 4 -119h-100c2.66699 36 4 75.667 4 119z" />
    <glyph glyph-name="paragraph" unicode="&#xb6;" horiz-adv-x="684" 
d="M256 -81v326.001c-41.333 0 -79.5 10.167 -114.5 30.5s-62.667 48 -83 83s-30.5 73.167 -30.5 114.5s10.167 79.333 30.5 114s48 62.167 83 82.5s73.167 30.5 114.5 30.5h270c52 0 91 1 117 3v-87c-14 1.33301 -42.333 2.66602 -85 3.99902v-39v-662
c0 -43.333 1.33301 -83 4 -119h-100c2.66699 36 4 75.667 4 119v662v39h-118v-39v-662c0 -43.333 1.33301 -83 4 -119h-100c2.66699 36 4 75.667 4 119z" />
    <glyph glyph-name="periodcentered" unicode="&#xb7;" horiz-adv-x="238" 
d="M78 222c-10.667 10.667 -16 24 -16 40c0 16.667 5.33301 30.334 16 41.001s24.334 16 41.001 16s30.5 -5.33301 41.5 -16s16.5 -24.334 16.5 -41.001c0 -16 -5.5 -29.333 -16.5 -40s-24.833 -16 -41.5 -16s-30.334 5.33301 -41.001 16z" />
    <glyph glyph-name="cedilla" unicode="&#xb8;" horiz-adv-x="261" 
d="M50 -185l0.00195312 60h1c19.333 -10.667 38.666 -16 57.999 -16c11.333 0 20.333 2.83301 27 8.5s10 13.5 10 23.5c0 8.66699 -3.5 15.5 -10.5 20.5s-16.5 7.5 -28.5 7.5c-8.66699 0 -16.334 -0.666992 -23.001 -2h-1l23 83h55l-10 -36c40 -8.66699 60 -32.667 60 -72
c0 -28.667 -8.66699 -50.667 -26 -66s-40.666 -23 -69.999 -23c-26.667 0 -48.334 4 -65.001 12z" />
    <glyph glyph-name="uni00B9" unicode="&#xb9;" horiz-adv-x="214" 
d="M91 564v172.001h-1l-55 -55h-1v64l85 80h40c0 -2 -0.333008 -7.33301 -1 -16s-1 -21.334 -1 -38.001v-207c0 -21.333 0.666992 -39.333 2 -54h-70c1.33301 14.667 2 32.667 2 54z" />
    <glyph glyph-name="ordmasculine" unicode="&#xba;" horiz-adv-x="308" 
d="M73.5 506.5c-22.333 22.333 -33.499 50.166 -33.499 83.499c0 32.667 11.167 60.167 33.5 82.5s49.166 33.5 80.499 33.5c32 0 59 -11.333 81 -34s33 -50 33 -82c0 -33.333 -10.833 -61.166 -32.5 -83.499s-48.834 -33.5 -81.501 -33.5
c-31.333 0 -58.166 11.167 -80.499 33.5zM191.001 551c10 10 15 22.999 15 38.999c0 15.333 -5 28 -15 38s-22.333 15 -37 15c-14 0 -26.167 -5 -36.5 -15s-15.5 -22.667 -15.5 -38s5.16699 -28.166 15.5 -38.499s22.5 -15.5 36.5 -15.5c14.667 0 27 5 37 15z" />
    <glyph glyph-name="guillemotright" unicode="&#xbb;" horiz-adv-x="485" 
d="M157 250l-107 192h73l130 -190v-4l-130 -190h-73zM349 250l-107 192h73l130 -190v-4l-130 -190h-73z" />
    <glyph glyph-name="onequarter" unicode="&#xbc;" horiz-adv-x="679" 
d="M171 444v172.001h-1l-55 -55h-1v64l85 80h40c0 -2 -0.333008 -7.33301 -1 -16s-1 -21.334 -1 -38.001v-207c0 -21.333 0.666992 -39.333 2 -54h-70c1.33301 14.667 2 32.667 2 54zM518 700.001h89l-493 -700h-89zM508 21.501c0.666992 9 1 19.833 1 32.5v17h-82
c-10 0 -27 -0.666992 -51 -2v64l123 182h77c-1.33301 -14.667 -2 -32.667 -2 -54v-128h60v-64c-24 1.33301 -44 2 -60 2v-17c0 -21.333 0.666992 -39.333 2 -54h-69c0 5.33301 0.333008 12.5 1 21.5zM509 133.001v98h-1l-68 -97v-1h69z" />
    <glyph glyph-name="onehalf" unicode="&#xbd;" horiz-adv-x="672" 
d="M171 444v172.001h-1l-55 -55h-1v64l85 80h40c0 -2 -0.333008 -7.33301 -1 -16s-1 -21.334 -1 -38.001v-207c0 -21.333 0.666992 -39.333 2 -54h-70c1.33301 14.667 2 32.667 2 54zM518 700.001h89l-493 -700h-89zM562 0.000976562l-162 0.00292969v1l79 107
c22.667 30.667 39 54.667 49 72s15 32.333 15 45c0 9.33301 -3 17 -9 23s-15.333 9 -28 9c-15.333 0 -31.666 -6.33301 -48.999 -19s-33.333 -28.334 -48 -47.001h-1v89c11.333 10 26.5 19 45.5 27s38.167 12 57.5 12c28.667 0 51.667 -7.5 69 -22.5s26 -37.5 26 -67.5
c0 -16.667 -4.33301 -34.334 -13 -53.001s-21.334 -40.334 -38.001 -65.001l-33 -48v-1h40c14.667 0 33 1 55 3v-67c-24 1.33301 -42.333 2 -55 2z" />
    <glyph glyph-name="threequarters" unicode="&#xbe;" horiz-adv-x="684" 
d="M84 396.5c-18 7 -31.999 14.832 -41.999 23.499l39 53c11.333 -8 21.666 -14 30.999 -18s20.666 -6 33.999 -6c16.667 0 30.334 4.5 41.001 13.5s16 21.5 16 37.5c0 16.667 -5.83301 29.334 -17.5 38.001s-28.167 13 -49.5 13h-48v1l61 90v1h-39
c-10.667 0 -28.667 -0.666992 -54 -2v66c25.333 -1.33301 43.333 -2 54 -2h152v-1l-70 -99c24.667 -7.33301 43.167 -20.833 55.5 -40.5s18.5 -41.167 18.5 -64.5c0 -32 -10.833 -59 -32.5 -81s-51.5 -33 -89.5 -33c-22 0 -42 3.5 -60 10.5zM536.001 699.999h89l-493 -700
h-89zM526.001 21.499c0.666992 9 1 19.833 1 32.5v17h-82c-10 0 -27 -0.666992 -51 -2v64l123 182h77c-1.33301 -14.667 -2 -32.667 -2 -54v-128h60v-64c-24 1.33301 -44 2 -60 2v-17c0 -21.333 0.666992 -39.333 2 -54h-69c0 5.33301 0.333008 12.5 1 21.5z
M527.001 132.999v98h-1l-68 -97v-1h69z" />
    <glyph glyph-name="questiondown" unicode="&#xbf;" horiz-adv-x="429" 
d="M204.5 462c-11 10.667 -16.5 24.334 -16.5 41.001c0 16 5.5 29.333 16.5 40s24.833 16 41.5 16s30.334 -5.33301 41.001 -16s16 -24 16 -40c0 -16.667 -5.33301 -30.334 -16 -41.001s-24.334 -16 -41.001 -16s-30.5 5.33301 -41.5 16zM81.5 -113.5
c-35 29 -52.502 69.1709 -52.502 120.504c0 41.333 9.33301 75.666 28 102.999s46.334 56 83.001 86c30 25.333 51.667 48.333 65 69s20 43.334 20 68.001c0 10.667 -1.33301 21 -4 31h53c8.66699 -28 13 -54.667 13 -80c0 -24.667 -5 -46.334 -15 -65.001
s-28.667 -40.334 -56 -65.001c-3.33301 -2.66699 -14.5 -12.334 -33.5 -29.001s-33.667 -34.334 -44 -53.001s-15.5 -38 -15.5 -58c0 -27.333 8.83301 -49.333 26.5 -66s41.834 -25 72.501 -25c32 0 63.5 9 94.5 27s57.5 41.333 79.5 70h3v-115
c-24 -17.333 -51.5 -32 -82.5 -44s-63.167 -18 -96.5 -18c-57.333 0 -103.5 14.5 -138.5 43.5z" />
    <glyph glyph-name="Agrave" unicode="&#xc0;" horiz-adv-x="684" 
d="M8 1c12 20.667 20.667 37.667 26 51l247 601c10 26 15.667 41.667 17 47h79c3.33301 -11.333 9 -27 17 -47l262 -602l26 -50v-1h-105c-2.66699 5.33301 -5.5 12.5 -8.5 21.5s-7.16699 19.833 -12.5 32.5l-57 133h-316l-54 -133c-9.33301 -21.333 -15.333 -39.333 -18 -54
h-103v1zM463 270l-128 297l-119 -297h247zM177 900h134l85 -112h-88z" />
    <glyph glyph-name="Aacute" unicode="&#xc1;" horiz-adv-x="684" 
d="M8 1c12 20.667 20.667 37.667 26 51l247 601c10 26 15.667 41.667 17 47h79c3.33301 -11.333 9 -27 17 -47l262 -602l26 -50v-1h-105c-2.66699 5.33301 -5.5 12.5 -8.5 21.5s-7.16699 19.833 -12.5 32.5l-57 133h-316l-54 -133c-9.33301 -21.333 -15.333 -39.333 -18 -54
h-103v1zM463 270l-128 297l-119 -297h247zM377 900h134l-131 -112h-88z" />
    <glyph glyph-name="Acircumflex" unicode="&#xc2;" horiz-adv-x="684" 
d="M8 1c12 20.667 20.667 37.667 26 51l247 601c10 26 15.667 41.667 17 47h79c3.33301 -11.333 9 -27 17 -47l262 -602l26 -50v-1h-105c-2.66699 5.33301 -5.5 12.5 -8.5 21.5s-7.16699 19.833 -12.5 32.5l-57 133h-316l-54 -133c-9.33301 -21.333 -15.333 -39.333 -18 -54
h-103v1zM463 270l-128 297l-119 -297h247zM293 900h101l115 -112h-95l-70 63l-71 -63h-95z" />
    <glyph glyph-name="Atilde" unicode="&#xc3;" horiz-adv-x="684" 
d="M8 1c12 20.667 20.667 37.667 26 51l247 601c10 26 15.667 41.667 17 47h79c3.33301 -11.333 9 -27 17 -47l262 -602l26 -50v-1h-105c-2.66699 5.33301 -5.5 12.5 -8.5 21.5s-7.16699 19.833 -12.5 32.5l-57 133h-316l-54 -133c-9.33301 -21.333 -15.333 -39.333 -18 -54
h-103v1zM463 270l-128 297l-119 -297h247zM350 808l-15.999 10.999c-3.33301 2.66699 -8.66602 6.33398 -15.999 11.001s-13.333 8.16699 -18 10.5s-9.33398 3.5 -14.001 3.5c-12 0 -20.167 -4 -24.5 -12s-6.83301 -18.667 -7.5 -32h-73c4.66699 34 15.5 61.333 32.5 82
s39.833 31 68.5 31c20 0 38.667 -6 56 -18l16 -11c13.333 -9.33301 23.166 -15.833 29.499 -19.5s12.5 -5.5 18.5 -5.5c12 0 20.167 4 24.5 12s6.83301 18.667 7.5 32h73c-4.66699 -34 -15.5 -61.333 -32.5 -82s-39.833 -31 -68.5 -31c-20 0 -38.667 6 -56 18z" />
    <glyph glyph-name="Adieresis" unicode="&#xc4;" horiz-adv-x="684" 
d="M8 1c12 20.667 20.667 37.667 26 51l247 601c10 26 15.667 41.667 17 47h79c3.33301 -11.333 9 -27 17 -47l262 -602l26 -50v-1h-105c-2.66699 5.33301 -5.5 12.5 -8.5 21.5s-7.16699 19.833 -12.5 32.5l-57 133h-316l-54 -133c-9.33301 -21.333 -15.333 -39.333 -18 -54
h-103v1zM463 270l-128 297l-119 -297h247zM210.5 802c-9.66699 9.33301 -14.498 21.333 -14.498 36c0 15.333 4.66699 27.833 14 37.5s21.666 14.5 36.999 14.5c16 0 28.833 -4.83301 38.5 -14.5s14.5 -22.167 14.5 -37.5s-4.83301 -27.5 -14.5 -36.5
s-22.5 -13.5 -38.5 -13.5c-14.667 0 -26.834 4.66699 -36.501 14zM402.502 802c-9.66699 9.33301 -14.498 21.333 -14.498 36c0 15.333 4.66699 27.833 14 37.5s21.666 14.5 36.999 14.5c16 0 28.833 -4.83301 38.5 -14.5s14.5 -22.167 14.5 -37.5
s-4.83301 -27.5 -14.5 -36.5s-22.5 -13.5 -38.5 -13.5c-14.667 0 -26.834 4.66699 -36.501 14z" />
    <glyph glyph-name="Aring" unicode="&#xc5;" horiz-adv-x="684" 
d="M8 1c12 20.667 20.667 37.667 26 51l247 601c10 26 15.667 41.667 17 47h79c3.33301 -11.333 9 -27 17 -47l262 -602l26 -50v-1h-105c-2.66699 5.33301 -5.5 12.5 -8.5 21.5s-7.16699 19.833 -12.5 32.5l-57 133h-316l-54 -133c-9.33301 -21.333 -15.333 -39.333 -18 -54
h-103v1zM463 270l-128 297l-119 -297h247zM272.5 770.5c-19.667 19.667 -29.5 43.167 -29.5 70.5s9.83301 50.833 29.5 70.5s43.5 29.5 71.5 29.5c27.333 0 51 -9.83301 71 -29.5s30 -43.167 30 -70.5s-10 -50.833 -30 -70.5s-43.667 -29.5 -71 -29.5
c-28 0 -51.833 9.83301 -71.5 29.5zM368.5 815.5c7 7 10.5 15.501 10.5 25.501s-3.5 18.5 -10.5 25.5s-15.167 10.5 -24.5 10.5c-10 0 -18.333 -3.5 -25 -10.5s-10 -15.5 -10 -25.5c0 -10.667 3.33301 -19.334 10 -26.001s15 -10 25 -10c9.33301 0 17.5 3.5 24.5 10.5z" />
    <glyph glyph-name="AE" unicode="&#xc6;" horiz-adv-x="948" 
d="M-24 1l14 17.999c7.33301 9.33301 15 20.333 23 33l374 601c14 22.667 23 38.334 27 47.001h478l3 -86l-113 4h-214c-0.666992 -8 -1 -20.667 -1 -38v-186h182l113 4v-90l-114 4h-181v-191c0 -17.333 0.333008 -30 1 -38h219l113 4l-3 -87h-430
c2.66699 36 4 75.667 4 119v68h-272l-82 -133c-14 -22.667 -23.667 -40.667 -29 -54h-112v1zM471 269.999v311v41h-1l-220 -352h221z" />
    <glyph glyph-name="Ccedilla" unicode="&#xc7;" horiz-adv-x="689" 
d="M275 591c-41.333 -24.667 -73.833 -58.168 -97.5 -100.501s-35.5 -88.833 -35.5 -139.5s11.833 -97.167 35.5 -139.5s56.167 -75.833 97.5 -100.5s87 -37 137 -37c89.333 0 166.333 31 231 93h1v-115c-51.333 -36 -119.666 -55.667 -204.999 -59l-8 -29
c40 -8.66699 60 -32.667 60 -72c0 -28.667 -8.66699 -50.667 -26 -66s-40.666 -23 -69.999 -23c-26.667 0 -48.334 4 -65.001 12v60h1c19.333 -10.667 38.666 -16 57.999 -16c11.333 0 20.333 2.83301 27 8.5s10 13.5 10 23.5c0 8.66699 -3.5 15.5 -10.5 20.5
s-16.5 7.5 -28.5 7.5c-8.66699 0 -16.334 -0.666992 -23.001 -2h-1l21 76c-64 4 -121.833 22.167 -173.5 54.5s-92.334 75 -122.001 128s-44.5 111.5 -44.5 175.5c0 67.333 16.167 128.333 48.5 183s76.5 97.667 132.5 129s118.333 47 187 47
c52.667 0 98.334 -5.66699 137.001 -17s70.334 -25.666 95.001 -42.999v-115h-1c-64.667 62 -141.667 93 -231 93c-50 0 -95.667 -12.333 -137 -37z" />
    <glyph glyph-name="Egrave" unicode="&#xc8;" horiz-adv-x="560" 
d="M83 119v461.999c0 44.667 -1.33301 84.334 -4 119.001h425l3 -86l-113 4h-214c-0.666992 -8 -1 -20.667 -1 -38v-186h182l113 4v-90l-114 4h-181v-191c0 -17.333 0.333008 -30 1 -38h219l113 4l-3 -87h-430c2.66699 36 4 75.667 4 119zM129 899.999h134l85 -112h-88z" />
    <glyph glyph-name="Eacute" unicode="&#xc9;" horiz-adv-x="560" 
d="M83 119v461.999c0 44.667 -1.33301 84.334 -4 119.001h425l3 -86l-113 4h-214c-0.666992 -8 -1 -20.667 -1 -38v-186h182l113 4v-90l-114 4h-181v-191c0 -17.333 0.333008 -30 1 -38h219l113 4l-3 -87h-430c2.66699 36 4 75.667 4 119zM329 899.999h134l-131 -112h-88z
" />
    <glyph glyph-name="Ecircumflex" unicode="&#xca;" horiz-adv-x="560" 
d="M83 119v461.999c0 44.667 -1.33301 84.334 -4 119.001h425l3 -86l-113 4h-214c-0.666992 -8 -1 -20.667 -1 -38v-186h182l113 4v-90l-114 4h-181v-191c0 -17.333 0.333008 -30 1 -38h219l113 4l-3 -87h-430c2.66699 36 4 75.667 4 119zM245 899.999h101l115 -112h-95
l-70 63l-71 -63h-95z" />
    <glyph glyph-name="Edieresis" unicode="&#xcb;" horiz-adv-x="560" 
d="M83 119v461.999c0 44.667 -1.33301 84.334 -4 119.001h425l3 -86l-113 4h-214c-0.666992 -8 -1 -20.667 -1 -38v-186h182l113 4v-90l-114 4h-181v-191c0 -17.333 0.333008 -30 1 -38h219l113 4l-3 -87h-430c2.66699 36 4 75.667 4 119zM162.5 801.999
c-9.66699 9.33301 -14.498 21.333 -14.498 36c0 15.333 4.66699 27.833 14 37.5s21.666 14.5 36.999 14.5c16 0 28.833 -4.83301 38.5 -14.5s14.5 -22.167 14.5 -37.5s-4.83301 -27.5 -14.5 -36.5s-22.5 -13.5 -38.5 -13.5c-14.667 0 -26.834 4.66699 -36.501 14z
M354.502 801.999c-9.66699 9.33301 -14.498 21.333 -14.498 36c0 15.333 4.66699 27.833 14 37.5s21.666 14.5 36.999 14.5c16 0 28.833 -4.83301 38.5 -14.5s14.5 -22.167 14.5 -37.5s-4.83301 -27.5 -14.5 -36.5s-22.5 -13.5 -38.5 -13.5
c-14.667 0 -26.834 4.66699 -36.501 14z" />
    <glyph glyph-name="Igrave" unicode="&#xcc;" horiz-adv-x="261" 
d="M83 119v462c0 44.667 -1.33301 84.334 -4 119.001h103c-2.66699 -34.667 -4 -74.334 -4 -119.001v-462c0 -43.333 1.33301 -83 4 -119h-103c2.66699 36 4 75.667 4 119zM-36 900h134l85 -112h-88z" />
    <glyph glyph-name="Iacute" unicode="&#xcd;" horiz-adv-x="261" 
d="M83 119v462c0 44.667 -1.33301 84.334 -4 119.001h103c-2.66699 -34.667 -4 -74.334 -4 -119.001v-462c0 -43.333 1.33301 -83 4 -119h-103c2.66699 36 4 75.667 4 119zM164 900h134l-131 -112h-88z" />
    <glyph glyph-name="Icircumflex" unicode="&#xce;" horiz-adv-x="261" 
d="M83 119v462c0 44.667 -1.33301 84.334 -4 119.001h103c-2.66699 -34.667 -4 -74.334 -4 -119.001v-462c0 -43.333 1.33301 -83 4 -119h-103c2.66699 36 4 75.667 4 119zM80 900h101l115 -112h-95l-70 63l-71 -63h-95z" />
    <glyph glyph-name="Idieresis" unicode="&#xcf;" horiz-adv-x="261" 
d="M83 119v462c0 44.667 -1.33301 84.334 -4 119.001h103c-2.66699 -34.667 -4 -74.334 -4 -119.001v-462c0 -43.333 1.33301 -83 4 -119h-103c2.66699 36 4 75.667 4 119zM-2.5 802c-9.66699 9.33301 -14.498 21.333 -14.498 36c0 15.333 4.66699 27.833 14 37.5
s21.666 14.5 36.999 14.5c16 0 28.833 -4.83301 38.5 -14.5s14.5 -22.167 14.5 -37.5s-4.83301 -27.5 -14.5 -36.5s-22.5 -13.5 -38.5 -13.5c-14.667 0 -26.834 4.66699 -36.501 14zM189.502 802c-9.66699 9.33301 -14.498 21.333 -14.498 36
c0 15.333 4.66699 27.833 14 37.5s21.666 14.5 36.999 14.5c16 0 28.833 -4.83301 38.5 -14.5s14.5 -22.167 14.5 -37.5s-4.83301 -27.5 -14.5 -36.5s-22.5 -13.5 -38.5 -13.5c-14.667 0 -26.834 4.66699 -36.501 14z" />
    <glyph glyph-name="Eth" unicode="&#xd0;" horiz-adv-x="720" 
d="M501.5 653.5c54.333 -31 97 -73.334 128 -127.001s46.5 -112.834 46.5 -177.501s-15.667 -124 -47 -178s-74.5 -96.833 -129.5 -128.5s-115.833 -47.5 -182.5 -47.5c-9.33301 0 -35 1 -77 3c-20 1.33301 -34.667 2 -44 2h-96c2.66699 36 4 75.667 4 119v191
c-43.333 -1.33301 -71.666 -2.66602 -84.999 -3.99902v87c17.333 -1.33301 36 -2 56 -2l29 -1v191c0 44.667 -1.33301 84.334 -4 119.001h219c67.333 0 128.166 -15.5 182.499 -46.5zM446.5 114.499c41 24.333 73.166 57.167 96.499 98.5s35 86.333 35 135
s-11.667 93.667 -35 135s-55.666 74.166 -96.999 98.499s-87.333 36.5 -138 36.5h-107c-0.666992 -9.33301 -1 -22.666 -1 -39.999v-188h68c52 0 91 1 117 3v-87c-34.667 2.66699 -73.667 4 -117 4h-68v-203c0.666992 -13.333 7.66699 -21 21 -23c22.667 -4 52.667 -6 90 -6
c49.333 0 94.5 12.167 135.5 36.5z" />
    <glyph glyph-name="Ntilde" unicode="&#xd1;" horiz-adv-x="739" 
d="M82 48c1.33301 32 2 55.667 2 71v528c0 11.333 -4.66699 29 -14 53h96l405 -539h1v421c0 14.667 -0.666992 38 -2 70c-1.33301 21.333 -2 37.333 -2 48h92c0 -10.667 -0.666992 -26.667 -2 -48c-1.33301 -32 -2 -55.333 -2 -70v-463c0 -15.333 0.666992 -39 2 -71
c1.33301 -21.333 2 -37.333 2 -48h-84l-407 545h-1v-426c0 -33.333 1 -73 3 -119h-91c0 10.667 0.666992 26.667 2 48zM371 808l-15.999 10.999c-3.33301 2.66699 -8.66602 6.33398 -15.999 11.001s-13.333 8.16699 -18 10.5s-9.33398 3.5 -14.001 3.5
c-12 0 -20.167 -4 -24.5 -12s-6.83301 -18.667 -7.5 -32h-73c4.66699 34 15.5 61.333 32.5 82s39.833 31 68.5 31c20 0 38.667 -6 56 -18l16 -11c13.333 -9.33301 23.166 -15.833 29.499 -19.5s12.5 -5.5 18.5 -5.5c12 0 20.167 4 24.5 12s6.83301 18.667 7.5 32h73
c-4.66699 -34 -15.5 -61.333 -32.5 -82s-39.833 -31 -68.5 -31c-20 0 -38.667 6 -56 18z" />
    <glyph glyph-name="Ograve" unicode="&#xd2;" horiz-adv-x="809" 
d="M221.5 39.5c-55 31.667 -98.333 74.8301 -130 129.497s-47.5 115.334 -47.5 182.001s15.833 127.334 47.5 182.001s75 97.834 130 129.501s115.833 47.5 182.5 47.5c67.333 0 128.5 -15.667 183.5 -47s98.333 -74.5 130 -129.5s47.5 -115.833 47.5 -182.5
c0 -67.333 -15.833 -128.333 -47.5 -183s-75 -97.667 -130 -129s-116.167 -47 -183.5 -47c-66.667 0 -127.5 15.833 -182.5 47.5zM537 111.496c40 24.333 71.667 57.666 95 99.999s35 88.833 35 139.5s-11.667 97.167 -35 139.5s-55 75.666 -95 99.999
s-84.333 36.5 -133 36.5c-48 0 -92 -12.167 -132 -36.5s-71.667 -57.666 -95 -99.999s-35 -88.833 -35 -139.5s11.667 -97.167 35 -139.5s55 -75.666 95 -99.999s84 -36.5 132 -36.5c48.667 0 93 12.167 133 36.5zM237 899.996h134l85 -112h-88z" />
    <glyph glyph-name="Oacute" unicode="&#xd3;" horiz-adv-x="809" 
d="M221.5 39.5c-55 31.667 -98.333 74.8301 -130 129.497s-47.5 115.334 -47.5 182.001s15.833 127.334 47.5 182.001s75 97.834 130 129.501s115.833 47.5 182.5 47.5c67.333 0 128.5 -15.667 183.5 -47s98.333 -74.5 130 -129.5s47.5 -115.833 47.5 -182.5
c0 -67.333 -15.833 -128.333 -47.5 -183s-75 -97.667 -130 -129s-116.167 -47 -183.5 -47c-66.667 0 -127.5 15.833 -182.5 47.5zM537 111.496c40 24.333 71.667 57.666 95 99.999s35 88.833 35 139.5s-11.667 97.167 -35 139.5s-55 75.666 -95 99.999
s-84.333 36.5 -133 36.5c-48 0 -92 -12.167 -132 -36.5s-71.667 -57.666 -95 -99.999s-35 -88.833 -35 -139.5s11.667 -97.167 35 -139.5s55 -75.666 95 -99.999s84 -36.5 132 -36.5c48.667 0 93 12.167 133 36.5zM437 899.996h134l-131 -112h-88z" />
    <glyph glyph-name="Ocircumflex" unicode="&#xd4;" horiz-adv-x="809" 
d="M221.5 39.5c-55 31.667 -98.333 74.8301 -130 129.497s-47.5 115.334 -47.5 182.001s15.833 127.334 47.5 182.001s75 97.834 130 129.501s115.833 47.5 182.5 47.5c67.333 0 128.5 -15.667 183.5 -47s98.333 -74.5 130 -129.5s47.5 -115.833 47.5 -182.5
c0 -67.333 -15.833 -128.333 -47.5 -183s-75 -97.667 -130 -129s-116.167 -47 -183.5 -47c-66.667 0 -127.5 15.833 -182.5 47.5zM537 111.496c40 24.333 71.667 57.666 95 99.999s35 88.833 35 139.5s-11.667 97.167 -35 139.5s-55 75.666 -95 99.999
s-84.333 36.5 -133 36.5c-48 0 -92 -12.167 -132 -36.5s-71.667 -57.666 -95 -99.999s-35 -88.833 -35 -139.5s11.667 -97.167 35 -139.5s55 -75.666 95 -99.999s84 -36.5 132 -36.5c48.667 0 93 12.167 133 36.5zM353 899.996h101l115 -112h-95l-70 63l-71 -63h-95z" />
    <glyph glyph-name="Otilde" unicode="&#xd5;" horiz-adv-x="809" 
d="M221.5 39.5c-55 31.667 -98.333 74.8301 -130 129.497s-47.5 115.334 -47.5 182.001s15.833 127.334 47.5 182.001s75 97.834 130 129.501s115.833 47.5 182.5 47.5c67.333 0 128.5 -15.667 183.5 -47s98.333 -74.5 130 -129.5s47.5 -115.833 47.5 -182.5
c0 -67.333 -15.833 -128.333 -47.5 -183s-75 -97.667 -130 -129s-116.167 -47 -183.5 -47c-66.667 0 -127.5 15.833 -182.5 47.5zM537 111.496c40 24.333 71.667 57.666 95 99.999s35 88.833 35 139.5s-11.667 97.167 -35 139.5s-55 75.666 -95 99.999
s-84.333 36.5 -133 36.5c-48 0 -92 -12.167 -132 -36.5s-71.667 -57.666 -95 -99.999s-35 -88.833 -35 -139.5s11.667 -97.167 35 -139.5s55 -75.666 95 -99.999s84 -36.5 132 -36.5c48.667 0 93 12.167 133 36.5zM410 807.996l-15.999 10.999
c-3.33301 2.66699 -8.66602 6.33398 -15.999 11.001s-13.333 8.16699 -18 10.5s-9.33398 3.5 -14.001 3.5c-12 0 -20.167 -4 -24.5 -12s-6.83301 -18.667 -7.5 -32h-73c4.66699 34 15.5 61.333 32.5 82s39.833 31 68.5 31c20 0 38.667 -6 56 -18l16 -11
c13.333 -9.33301 23.166 -15.833 29.499 -19.5s12.5 -5.5 18.5 -5.5c12 0 20.167 4 24.5 12s6.83301 18.667 7.5 32h73c-4.66699 -34 -15.5 -61.333 -32.5 -82s-39.833 -31 -68.5 -31c-20 0 -38.667 6 -56 18z" />
    <glyph glyph-name="Odieresis" unicode="&#xd6;" horiz-adv-x="809" 
d="M221.5 39.5c-55 31.667 -98.333 74.8301 -130 129.497s-47.5 115.334 -47.5 182.001s15.833 127.334 47.5 182.001s75 97.834 130 129.501s115.833 47.5 182.5 47.5c67.333 0 128.5 -15.667 183.5 -47s98.333 -74.5 130 -129.5s47.5 -115.833 47.5 -182.5
c0 -67.333 -15.833 -128.333 -47.5 -183s-75 -97.667 -130 -129s-116.167 -47 -183.5 -47c-66.667 0 -127.5 15.833 -182.5 47.5zM537 111.496c40 24.333 71.667 57.666 95 99.999s35 88.833 35 139.5s-11.667 97.167 -35 139.5s-55 75.666 -95 99.999
s-84.333 36.5 -133 36.5c-48 0 -92 -12.167 -132 -36.5s-71.667 -57.666 -95 -99.999s-35 -88.833 -35 -139.5s11.667 -97.167 35 -139.5s55 -75.666 95 -99.999s84 -36.5 132 -36.5c48.667 0 93 12.167 133 36.5zM270.5 801.996
c-9.66699 9.33301 -14.498 21.333 -14.498 36c0 15.333 4.66699 27.833 14 37.5s21.666 14.5 36.999 14.5c16 0 28.833 -4.83301 38.5 -14.5s14.5 -22.167 14.5 -37.5s-4.83301 -27.5 -14.5 -36.5s-22.5 -13.5 -38.5 -13.5c-14.667 0 -26.834 4.66699 -36.501 14z
M462.502 801.996c-9.66699 9.33301 -14.498 21.333 -14.498 36c0 15.333 4.66699 27.833 14 37.5s21.666 14.5 36.999 14.5c16 0 28.833 -4.83301 38.5 -14.5s14.5 -22.167 14.5 -37.5s-4.83301 -27.5 -14.5 -36.5s-22.5 -13.5 -38.5 -13.5
c-14.667 0 -26.834 4.66699 -36.501 14z" />
    <glyph glyph-name="multiply" unicode="&#xd7;" horiz-adv-x="545" 
d="M76 120l98 91l46 46l-46 46l-98 91l59 59l91 -98l46 -46l46 46l91 98l59 -59l-98 -91l-46 -46l46 -46l98 -91l-59 -59l-91 98l-46 46l-46 -46l-91 -98z" />
    <glyph glyph-name="Oslash" unicode="&#xd8;" horiz-adv-x="810" 
d="M745 473c13.333 -38 20.001 -78.6699 20.001 -122.003c0 -67.333 -15.833 -128.333 -47.5 -183s-75 -97.667 -130 -129s-116.167 -47 -183.5 -47c-42 0 -82.167 6.5 -120.5 19.5s-73.166 31.5 -104.499 55.5c-22 -23.333 -39 -42.666 -51 -57.999l-63 65l22 19l34 31
c-24.667 32 -43.667 67.167 -57 105.5s-20 78.833 -20 121.5c0 66.667 15.833 127.334 47.5 182.001s75 97.834 130 129.501s115.833 47.5 182.5 47.5c43.333 0 84.166 -6.66699 122.499 -20s73.5 -32.333 105.5 -57c9.33301 10 26.333 29.667 51 59l61 -66
c-24.667 -21.333 -43.334 -38 -56.001 -50c24.667 -30.667 43.667 -65 57 -103zM272.001 590.497c-40 -24.333 -71.667 -57.668 -95 -100.001s-35 -88.833 -35 -139.5c0 -59.333 15.667 -112.666 47 -159.999l379 377c-22.667 18.667 -48 33.167 -76 43.5
s-57.333 15.5 -88 15.5c-48 0 -92 -12.167 -132 -36.5zM537.001 111.495c40 24.333 71.667 57.667 95 100s35 88.833 35 139.5c0 58.667 -15.333 111.667 -46 159l-378 -378c22 -18 46.833 -32 74.5 -42s56.5 -15 86.5 -15c48.667 0 93 12.167 133 36.5z" />
    <glyph glyph-name="Ugrave" unicode="&#xd9;" horiz-adv-x="709" 
d="M145.5 67.5c-46.333 50.333 -69.501 122.835 -69.501 217.502v296c0 36 -1.66699 75.667 -5 119h105c-2.66699 -34.667 -4 -74.334 -4 -119.001v-294c0 -70 14.5 -122.833 43.5 -158.5s74.5 -53.5 136.5 -53.5c60.667 0 106.667 18.5 138 55.5s47 89.167 47 156.5v294
c0 12 -1 44 -3 96l-1 23h104c-2.66699 -34.667 -4 -74.334 -4 -119.001v-296c0 -93.333 -24 -165.5 -72 -216.5s-117.667 -76.5 -209 -76.5s-160.166 25.167 -206.499 75.5zM186.999 900.002h134l85 -112h-88z" />
    <glyph glyph-name="Uacute" unicode="&#xda;" horiz-adv-x="709" 
d="M145.5 67.5c-46.333 50.333 -69.501 122.835 -69.501 217.502v296c0 36 -1.66699 75.667 -5 119h105c-2.66699 -34.667 -4 -74.334 -4 -119.001v-294c0 -70 14.5 -122.833 43.5 -158.5s74.5 -53.5 136.5 -53.5c60.667 0 106.667 18.5 138 55.5s47 89.167 47 156.5v294
c0 12 -1 44 -3 96l-1 23h104c-2.66699 -34.667 -4 -74.334 -4 -119.001v-296c0 -93.333 -24 -165.5 -72 -216.5s-117.667 -76.5 -209 -76.5s-160.166 25.167 -206.499 75.5zM386.999 900.002h134l-131 -112h-88z" />
    <glyph glyph-name="Ucircumflex" unicode="&#xdb;" horiz-adv-x="709" 
d="M145.5 67.5c-46.333 50.333 -69.501 122.835 -69.501 217.502v296c0 36 -1.66699 75.667 -5 119h105c-2.66699 -34.667 -4 -74.334 -4 -119.001v-294c0 -70 14.5 -122.833 43.5 -158.5s74.5 -53.5 136.5 -53.5c60.667 0 106.667 18.5 138 55.5s47 89.167 47 156.5v294
c0 12 -1 44 -3 96l-1 23h104c-2.66699 -34.667 -4 -74.334 -4 -119.001v-296c0 -93.333 -24 -165.5 -72 -216.5s-117.667 -76.5 -209 -76.5s-160.166 25.167 -206.499 75.5zM302.999 900.002h101l115 -112h-95l-70 63l-71 -63h-95z" />
    <glyph glyph-name="Udieresis" unicode="&#xdc;" horiz-adv-x="709" 
d="M145.5 67.5c-46.333 50.333 -69.501 122.835 -69.501 217.502v296c0 36 -1.66699 75.667 -5 119h105c-2.66699 -34.667 -4 -74.334 -4 -119.001v-294c0 -70 14.5 -122.833 43.5 -158.5s74.5 -53.5 136.5 -53.5c60.667 0 106.667 18.5 138 55.5s47 89.167 47 156.5v294
c0 12 -1 44 -3 96l-1 23h104c-2.66699 -34.667 -4 -74.334 -4 -119.001v-296c0 -93.333 -24 -165.5 -72 -216.5s-117.667 -76.5 -209 -76.5s-160.166 25.167 -206.499 75.5zM220.499 802.002c-9.66699 9.33301 -14.498 21.333 -14.498 36c0 15.333 4.66699 27.833 14 37.5
s21.666 14.5 36.999 14.5c16 0 28.833 -4.83301 38.5 -14.5s14.5 -22.167 14.5 -37.5s-4.83301 -27.5 -14.5 -36.5s-22.5 -13.5 -38.5 -13.5c-14.667 0 -26.834 4.66699 -36.501 14zM412.501 802.002c-9.66699 9.33301 -14.498 21.333 -14.498 36
c0 15.333 4.66699 27.833 14 37.5s21.666 14.5 36.999 14.5c16 0 28.833 -4.83301 38.5 -14.5s14.5 -22.167 14.5 -37.5s-4.83301 -27.5 -14.5 -36.5s-22.5 -13.5 -38.5 -13.5c-14.667 0 -26.834 4.66699 -36.501 14z" />
    <glyph glyph-name="Yacute" unicode="&#xdd;" horiz-adv-x="622" 
d="M264 119l0.000976562 179l-215 352c-4.66699 8 -15 24.667 -31 50h105c11.333 -24 20.666 -42.333 27.999 -55l161 -267h1l161 266c13.333 21.333 23 40 29 56h101c-2 -3.33301 -5.66699 -9 -11 -17l-21 -33l-212 -352v-179c0 -43.333 1.33301 -83 4 -119h-104
c2.66699 36 4 75.667 4 119zM347.001 900h134l-131 -112h-88z" />
    <glyph glyph-name="Thorn" unicode="&#xde;" horiz-adv-x="552" 
d="M83 119l0.00195312 462.001c0 44.667 -1.33301 84.334 -4 119.001h104c-2.66699 -34.667 -4 -74.334 -4 -119.001v-11h93c45.333 0 86.5 -9 123.5 -27s66 -42.833 87 -74.5s31.5 -67.167 31.5 -106.5c0 -42.667 -10.833 -80.834 -32.5 -114.501
s-51.834 -59.667 -90.501 -78s-82.334 -27.5 -131.001 -27.5c-15.333 0 -42.333 2 -81 6v-29c0 -43.333 1.33301 -83 4 -119h-104c2.66699 36 4 75.667 4 119zM375.002 264.501c27.333 23.667 41 56.167 41 97.5c0 36.667 -13.5 66.667 -40.5 90s-61.833 35 -104.5 35h-92
v-251c24 -4.66699 51.667 -7 83 -7c48 0 85.667 11.833 113 35.5z" />
    <glyph glyph-name="germandbls" unicode="&#xdf;" horiz-adv-x="607" 
d="M244 9l-0.000976562 88h1c17.333 -8 33.5 -14.167 48.5 -18.5s32.167 -6.5 51.5 -6.5c36.667 0 67.667 12.833 93 38.5s38 61.167 38 106.5c0 46 -14.833 81 -44.5 105s-73.167 36 -130.5 36h-27v76c40.667 2.66699 74.5 15.5 101.5 38.5s40.5 54.167 40.5 93.5
c0 31.333 -10.5 58 -31.5 80s-51.833 33 -92.5 33c-38 0 -69.167 -13.667 -93.5 -41s-36.5 -63.666 -36.5 -108.999v-410c0 -43.333 1.33301 -83 4 -119h-100c2.66699 36 4 75.667 4 119v420c0 44.667 9.83301 83.667 29.5 117s46.334 58.833 80.001 76.5
s71.5 26.5 113.5 26.5s79.333 -8.5 112 -25.5s58 -39.667 76 -68s27 -58.5 27 -90.5c0 -69.333 -25.333 -122.333 -76 -159v-1c90.667 -36.667 136 -104.334 136 -203.001c0 -44 -10.167 -82.667 -30.5 -116s-47.5 -59 -81.5 -77s-70.667 -27 -110 -27
c-40.667 0 -74.667 5.66699 -102 17z" />
    <glyph glyph-name="agrave" unicode="&#xe0;" horiz-adv-x="506" 
d="M83 31.5c-32 26.333 -47.999 62.165 -47.999 107.498c0 41.333 14 74 42 98s68 38.667 120 44l155 16v32c0 67.333 -35 101 -105 101c-30 0 -60.333 -6.66699 -91 -20s-58.334 -29.666 -83.001 -48.999h-2v95c19.333 12.667 46.333 24.5 81 35.5s67 16.5 97 16.5
c129.333 0 194 -59 194 -177v-213v-34c0 -19.333 0.666992 -35 2 -47s4.33301 -24.333 9 -37h-92c-3.33301 8 -6.33301 24.333 -9 49h-1c-14.667 -17.333 -34.5 -31.166 -59.5 -41.499s-54.833 -15.5 -89.5 -15.5c-48 0 -88 13.167 -120 39.5zM282.001 76.999
c20 8.66699 36.667 22.1689 50 40.502s20 41.166 20 68.499v38l-125 -13c-31.333 -3.33301 -55.5 -11.5 -72.5 -24.5s-25.5 -28.833 -25.5 -47.5c0 -22.667 8 -40.834 24 -54.501s38.333 -20.5 67 -20.5c21.333 0 42 4.33301 62 13zM80.001 700.001h134l85 -112h-88z" />
    <glyph glyph-name="aacute" unicode="&#xe1;" horiz-adv-x="506" 
d="M83 31.5c-32 26.333 -47.999 62.165 -47.999 107.498c0 41.333 14 74 42 98s68 38.667 120 44l155 16v32c0 67.333 -35 101 -105 101c-30 0 -60.333 -6.66699 -91 -20s-58.334 -29.666 -83.001 -48.999h-2v95c19.333 12.667 46.333 24.5 81 35.5s67 16.5 97 16.5
c129.333 0 194 -59 194 -177v-213v-34c0 -19.333 0.666992 -35 2 -47s4.33301 -24.333 9 -37h-92c-3.33301 8 -6.33301 24.333 -9 49h-1c-14.667 -17.333 -34.5 -31.166 -59.5 -41.499s-54.833 -15.5 -89.5 -15.5c-48 0 -88 13.167 -120 39.5zM282.001 76.999
c20 8.66699 36.667 22.1689 50 40.502s20 41.166 20 68.499v38l-125 -13c-31.333 -3.33301 -55.5 -11.5 -72.5 -24.5s-25.5 -28.833 -25.5 -47.5c0 -22.667 8 -40.834 24 -54.501s38.333 -20.5 67 -20.5c21.333 0 42 4.33301 62 13zM280.001 700.001h134l-131 -112h-88z" />
    <glyph glyph-name="acircumflex" unicode="&#xe2;" horiz-adv-x="506" 
d="M83 31.5c-32 26.333 -47.999 62.165 -47.999 107.498c0 41.333 14 74 42 98s68 38.667 120 44l155 16v32c0 67.333 -35 101 -105 101c-30 0 -60.333 -6.66699 -91 -20s-58.334 -29.666 -83.001 -48.999h-2v95c19.333 12.667 46.333 24.5 81 35.5s67 16.5 97 16.5
c129.333 0 194 -59 194 -177v-213v-34c0 -19.333 0.666992 -35 2 -47s4.33301 -24.333 9 -37h-92c-3.33301 8 -6.33301 24.333 -9 49h-1c-14.667 -17.333 -34.5 -31.166 -59.5 -41.499s-54.833 -15.5 -89.5 -15.5c-48 0 -88 13.167 -120 39.5zM282.001 76.999
c20 8.66699 36.667 22.1689 50 40.502s20 41.166 20 68.499v38l-125 -13c-31.333 -3.33301 -55.5 -11.5 -72.5 -24.5s-25.5 -28.833 -25.5 -47.5c0 -22.667 8 -40.834 24 -54.501s38.333 -20.5 67 -20.5c21.333 0 42 4.33301 62 13zM196.001 700.001h101l115 -112h-95
l-70 63l-71 -63h-95z" />
    <glyph glyph-name="atilde" unicode="&#xe3;" horiz-adv-x="506" 
d="M83 31.5c-32 26.333 -47.999 62.165 -47.999 107.498c0 41.333 14 74 42 98s68 38.667 120 44l155 16v32c0 67.333 -35 101 -105 101c-30 0 -60.333 -6.66699 -91 -20s-58.334 -29.666 -83.001 -48.999h-2v95c19.333 12.667 46.333 24.5 81 35.5s67 16.5 97 16.5
c129.333 0 194 -59 194 -177v-213v-34c0 -19.333 0.666992 -35 2 -47s4.33301 -24.333 9 -37h-92c-3.33301 8 -6.33301 24.333 -9 49h-1c-14.667 -17.333 -34.5 -31.166 -59.5 -41.499s-54.833 -15.5 -89.5 -15.5c-48 0 -88 13.167 -120 39.5zM282.001 76.999
c20 8.66699 36.667 22.1689 50 40.502s20 41.166 20 68.499v38l-125 -13c-31.333 -3.33301 -55.5 -11.5 -72.5 -24.5s-25.5 -28.833 -25.5 -47.5c0 -22.667 8 -40.834 24 -54.501s38.333 -20.5 67 -20.5c21.333 0 42 4.33301 62 13zM253.001 608.001l-15.999 10.999
c-3.33301 2.66699 -8.66602 6.33398 -15.999 11.001s-13.333 8.16699 -18 10.5s-9.33398 3.5 -14.001 3.5c-12 0 -20.167 -4 -24.5 -12s-6.83301 -18.667 -7.5 -32h-73c4.66699 34 15.5 61.333 32.5 82s39.833 31 68.5 31c20 0 38.667 -6 56 -18l16 -11
c13.333 -9.33301 23.166 -15.833 29.499 -19.5s12.5 -5.5 18.5 -5.5c12 0 20.167 4 24.5 12s6.83301 18.667 7.5 32h73c-4.66699 -34 -15.5 -61.333 -32.5 -82s-39.833 -31 -68.5 -31c-20 0 -38.667 6 -56 18z" />
    <glyph glyph-name="adieresis" unicode="&#xe4;" horiz-adv-x="506" 
d="M83 31.5c-32 26.333 -47.999 62.165 -47.999 107.498c0 41.333 14 74 42 98s68 38.667 120 44l155 16v32c0 67.333 -35 101 -105 101c-30 0 -60.333 -6.66699 -91 -20s-58.334 -29.666 -83.001 -48.999h-2v95c19.333 12.667 46.333 24.5 81 35.5s67 16.5 97 16.5
c129.333 0 194 -59 194 -177v-213v-34c0 -19.333 0.666992 -35 2 -47s4.33301 -24.333 9 -37h-92c-3.33301 8 -6.33301 24.333 -9 49h-1c-14.667 -17.333 -34.5 -31.166 -59.5 -41.499s-54.833 -15.5 -89.5 -15.5c-48 0 -88 13.167 -120 39.5zM282.001 76.999
c20 8.66699 36.667 22.1689 50 40.502s20 41.166 20 68.499v38l-125 -13c-31.333 -3.33301 -55.5 -11.5 -72.5 -24.5s-25.5 -28.833 -25.5 -47.5c0 -22.667 8 -40.834 24 -54.501s38.333 -20.5 67 -20.5c21.333 0 42 4.33301 62 13zM113.501 602.001
c-9.66699 9.33301 -14.498 21.333 -14.498 36c0 15.333 4.66699 27.833 14 37.5s21.666 14.5 36.999 14.5c16 0 28.833 -4.83301 38.5 -14.5s14.5 -22.167 14.5 -37.5s-4.83301 -27.5 -14.5 -36.5s-22.5 -13.5 -38.5 -13.5c-14.667 0 -26.834 4.66699 -36.501 14z
M305.503 602.001c-9.66699 9.33301 -14.498 21.333 -14.498 36c0 15.333 4.66699 27.833 14 37.5s21.666 14.5 36.999 14.5c16 0 28.833 -4.83301 38.5 -14.5s14.5 -22.167 14.5 -37.5s-4.83301 -27.5 -14.5 -36.5s-22.5 -13.5 -38.5 -13.5
c-14.667 0 -26.834 4.66699 -36.501 14z" />
    <glyph glyph-name="aring" unicode="&#xe5;" horiz-adv-x="506" 
d="M83 31.5c-32 26.333 -47.999 62.165 -47.999 107.498c0 41.333 14 74 42 98s68 38.667 120 44l155 16v32c0 67.333 -35 101 -105 101c-30 0 -60.333 -6.66699 -91 -20s-58.334 -29.666 -83.001 -48.999h-2v95c19.333 12.667 46.333 24.5 81 35.5s67 16.5 97 16.5
c129.333 0 194 -59 194 -177v-213v-34c0 -19.333 0.666992 -35 2 -47s4.33301 -24.333 9 -37h-92c-3.33301 8 -6.33301 24.333 -9 49h-1c-14.667 -17.333 -34.5 -31.166 -59.5 -41.499s-54.833 -15.5 -89.5 -15.5c-48 0 -88 13.167 -120 39.5zM282.001 76.999
c20 8.66699 36.667 22.1689 50 40.502s20 41.166 20 68.499v38l-125 -13c-31.333 -3.33301 -55.5 -11.5 -72.5 -24.5s-25.5 -28.833 -25.5 -47.5c0 -22.667 8 -40.834 24 -54.501s38.333 -20.5 67 -20.5c21.333 0 42 4.33301 62 13zM175.501 570.501
c-19.667 19.667 -29.5 43.167 -29.5 70.5s9.83301 50.833 29.5 70.5s43.5 29.5 71.5 29.5c27.333 0 51 -9.83301 71 -29.5s30 -43.167 30 -70.5s-10 -50.833 -30 -70.5s-43.667 -29.5 -71 -29.5c-28 0 -51.833 9.83301 -71.5 29.5zM271.501 615.501
c7 7 10.5 15.501 10.5 25.501s-3.5 18.5 -10.5 25.5s-15.167 10.5 -24.5 10.5c-10 0 -18.333 -3.5 -25 -10.5s-10 -15.5 -10 -25.5c0 -10.667 3.33301 -19.334 10 -26.001s15 -10 25 -10c9.33301 0 17.5 3.5 24.5 10.5z" />
    <glyph glyph-name="ae" unicode="&#xe6;" horiz-adv-x="867" 
d="M127 11.5c-28 13 -50.332 31.167 -66.999 54.5s-25 50.333 -25 81c0 47.333 16.833 83 50.5 107s82.5 36 146.5 36h120v39c0 67.333 -35 101 -105 101c-30 0 -60.333 -6.66699 -91 -20s-58.334 -29.666 -83.001 -48.999h-2v95c19.333 12.667 46.333 24.5 81 35.5
s67 16.5 97 16.5c84.667 0 141.334 -25 170.001 -75h1c22 24 48 42.5 78 55.5s62.333 19.5 97 19.5c43.333 0 82.833 -10.5 118.5 -31.5s64 -51 85 -90s31.5 -84.5 31.5 -136.5c0 -14.667 -1 -26.667 -3 -36h-384c5.33301 -42.667 22.833 -76.834 52.5 -102.501
s66.167 -38.5 109.5 -38.5c30.667 0 58 6 82 18s44 28.667 60 50l58 -65c-57.333 -56 -125 -84 -203 -84c-40.667 0 -77.834 7.83301 -111.501 23.5s-61.5 37.5 -83.5 65.5h-1c-45.333 -59.333 -107.333 -89 -186 -89c-34 0 -65 6.5 -93 19.5zM740.001 290
c-4.66699 44.667 -20.501 79.332 -47.501 103.999s-59.5 37 -97.5 37c-40.667 0 -74.667 -13.167 -102 -39.5s-43.666 -60.166 -48.999 -101.499h296zM316 101.998c24 19.333 36 49.333 36 90v22h-116c-35.333 0 -62 -6.16699 -80 -18.5s-27 -28.5 -27 -48.5
c0 -23.333 9.16699 -41.5 27.5 -54.5s41.833 -19.5 70.5 -19.5c35.333 0 65 9.66699 89 29z" />
    <glyph glyph-name="ccedilla" unicode="&#xe7;" horiz-adv-x="495" 
d="M214 404c-26 -16 -46.167 -37.667 -60.5 -65s-21.5 -57 -21.5 -89c0 -33.333 7 -63.5 21 -90.5s34 -48.333 60 -64s55.667 -23.5 89 -23.5c31.333 0 59.833 6 85.5 18s46.834 28.667 63.501 50h1v-99c-13.333 -13.333 -30.833 -24 -52.5 -32s-45.167 -13.333 -70.5 -16
l-8 -29c40 -8.66699 60 -32.667 60 -72c0 -28.667 -8.66699 -50.667 -26 -66s-40.666 -23 -69.999 -23c-26.667 0 -48.334 4 -65.001 12v60h1c19.333 -10.667 38.666 -16 57.999 -16c11.333 0 20.333 2.83301 27 8.5s10 13.5 10 23.5c0 8.66699 -3.5 15.5 -10.5 20.5
s-16.5 7.5 -28.5 7.5c-8.66699 0 -16.334 -0.666992 -23.001 -2h-1l21 76c-46.667 4 -87.667 17.5 -123 40.5s-62.666 53.167 -81.999 90.5s-29 79.333 -29 126c0 48 11 91.667 33 131s52.833 70.333 92.5 93s84.834 34 135.501 34c29.333 0 57.333 -4.5 84 -13.5
s49 -20.833 67 -35.5v-99h-1c-40.667 45.333 -90.334 68 -149.001 68c-32.667 0 -62 -8 -88 -24z" />
    <glyph glyph-name="egrave" unicode="&#xe8;" horiz-adv-x="555" 
d="M161 24c-38 21.333 -67.667 51.502 -89 90.502s-32 84.167 -32 135.5c0 48.667 10.5 92.667 31.5 132s50 70.166 87 92.499s78.5 33.5 124.5 33.5c43.333 0 82.833 -10.5 118.5 -31.5s64 -51 85 -90s31.5 -84.5 31.5 -136.5c0 -14.667 -1 -26.667 -3 -36h-384
c5.33301 -42.667 22.833 -76.834 52.5 -102.501s66.167 -38.5 109.5 -38.5c30.667 0 58 6 82 18s44 28.667 60 50l58 -65c-57.333 -56 -125 -84 -203 -84c-48 0 -91 10.667 -129 32zM428 290.002c-4.66699 44.667 -20.501 79.332 -47.501 103.999s-59.5 37 -97.5 37
c-40.667 0 -74.667 -13.167 -102 -39.5s-43.666 -60.166 -48.999 -101.499h296zM117.999 700h134l85 -112h-88z" />
    <glyph glyph-name="eacute" unicode="&#xe9;" horiz-adv-x="555" 
d="M161 24c-38 21.333 -67.667 51.502 -89 90.502s-32 84.167 -32 135.5c0 48.667 10.5 92.667 31.5 132s50 70.166 87 92.499s78.5 33.5 124.5 33.5c43.333 0 82.833 -10.5 118.5 -31.5s64 -51 85 -90s31.5 -84.5 31.5 -136.5c0 -14.667 -1 -26.667 -3 -36h-384
c5.33301 -42.667 22.833 -76.834 52.5 -102.501s66.167 -38.5 109.5 -38.5c30.667 0 58 6 82 18s44 28.667 60 50l58 -65c-57.333 -56 -125 -84 -203 -84c-48 0 -91 10.667 -129 32zM428 290.002c-4.66699 44.667 -20.501 79.332 -47.501 103.999s-59.5 37 -97.5 37
c-40.667 0 -74.667 -13.167 -102 -39.5s-43.666 -60.166 -48.999 -101.499h296zM317.999 700h134l-131 -112h-88z" />
    <glyph glyph-name="ecircumflex" unicode="&#xea;" horiz-adv-x="555" 
d="M161 24c-38 21.333 -67.667 51.502 -89 90.502s-32 84.167 -32 135.5c0 48.667 10.5 92.667 31.5 132s50 70.166 87 92.499s78.5 33.5 124.5 33.5c43.333 0 82.833 -10.5 118.5 -31.5s64 -51 85 -90s31.5 -84.5 31.5 -136.5c0 -14.667 -1 -26.667 -3 -36h-384
c5.33301 -42.667 22.833 -76.834 52.5 -102.501s66.167 -38.5 109.5 -38.5c30.667 0 58 6 82 18s44 28.667 60 50l58 -65c-57.333 -56 -125 -84 -203 -84c-48 0 -91 10.667 -129 32zM428 290.002c-4.66699 44.667 -20.501 79.332 -47.501 103.999s-59.5 37 -97.5 37
c-40.667 0 -74.667 -13.167 -102 -39.5s-43.666 -60.166 -48.999 -101.499h296zM233.999 700h101l115 -112h-95l-70 63l-71 -63h-95z" />
    <glyph glyph-name="edieresis" unicode="&#xeb;" horiz-adv-x="555" 
d="M161 24c-38 21.333 -67.667 51.502 -89 90.502s-32 84.167 -32 135.5c0 48.667 10.5 92.667 31.5 132s50 70.166 87 92.499s78.5 33.5 124.5 33.5c43.333 0 82.833 -10.5 118.5 -31.5s64 -51 85 -90s31.5 -84.5 31.5 -136.5c0 -14.667 -1 -26.667 -3 -36h-384
c5.33301 -42.667 22.833 -76.834 52.5 -102.501s66.167 -38.5 109.5 -38.5c30.667 0 58 6 82 18s44 28.667 60 50l58 -65c-57.333 -56 -125 -84 -203 -84c-48 0 -91 10.667 -129 32zM428 290.002c-4.66699 44.667 -20.501 79.332 -47.501 103.999s-59.5 37 -97.5 37
c-40.667 0 -74.667 -13.167 -102 -39.5s-43.666 -60.166 -48.999 -101.499h296zM151.499 602c-9.66699 9.33301 -14.498 21.333 -14.498 36c0 15.333 4.66699 27.833 14 37.5s21.666 14.5 36.999 14.5c16 0 28.833 -4.83301 38.5 -14.5s14.5 -22.167 14.5 -37.5
s-4.83301 -27.5 -14.5 -36.5s-22.5 -13.5 -38.5 -13.5c-14.667 0 -26.834 4.66699 -36.501 14zM343.501 602c-9.66699 9.33301 -14.498 21.333 -14.498 36c0 15.333 4.66699 27.833 14 37.5s21.666 14.5 36.999 14.5c16 0 28.833 -4.83301 38.5 -14.5
s14.5 -22.167 14.5 -37.5s-4.83301 -27.5 -14.5 -36.5s-22.5 -13.5 -38.5 -13.5c-14.667 0 -26.834 4.66699 -36.501 14z" />
    <glyph glyph-name="igrave" unicode="&#xec;" horiz-adv-x="232" 
d="M67 25c2 54 3 85.334 3 94.001v262c0 12 -1 44 -3 96l-1 23h100c-2.66699 -34.667 -4 -74.334 -4 -119.001v-262c0 -43.333 1.33301 -83 4 -119h-100zM-51 700.001h134l85 -112h-88z" />
    <glyph glyph-name="iacute" unicode="&#xed;" horiz-adv-x="232" 
d="M67 25c2 54 3 85.334 3 94.001v262c0 12 -1 44 -3 96l-1 23h100c-2.66699 -34.667 -4 -74.334 -4 -119.001v-262c0 -43.333 1.33301 -83 4 -119h-100zM149 700.001h134l-131 -112h-88z" />
    <glyph glyph-name="icircumflex" unicode="&#xee;" horiz-adv-x="232" 
d="M67 25c2 54 3 85.334 3 94.001v262c0 12 -1 44 -3 96l-1 23h100c-2.66699 -34.667 -4 -74.334 -4 -119.001v-262c0 -43.333 1.33301 -83 4 -119h-100zM65 700.001h101l115 -112h-95l-70 63l-71 -63h-95z" />
    <glyph glyph-name="idieresis" unicode="&#xef;" horiz-adv-x="232" 
d="M67 25c2 54 3 85.334 3 94.001v262c0 12 -1 44 -3 96l-1 23h100c-2.66699 -34.667 -4 -74.334 -4 -119.001v-262c0 -43.333 1.33301 -83 4 -119h-100zM-17.5 602.001c-9.66699 9.33301 -14.498 21.333 -14.498 36c0 15.333 4.66699 27.833 14 37.5
s21.666 14.5 36.999 14.5c16 0 28.833 -4.83301 38.5 -14.5s14.5 -22.167 14.5 -37.5s-4.83301 -27.5 -14.5 -36.5s-22.5 -13.5 -38.5 -13.5c-14.667 0 -26.834 4.66699 -36.501 14zM174.502 602.001c-9.66699 9.33301 -14.498 21.333 -14.498 36
c0 15.333 4.66699 27.833 14 37.5s21.666 14.5 36.999 14.5c16 0 28.833 -4.83301 38.5 -14.5s14.5 -22.167 14.5 -37.5s-4.83301 -27.5 -14.5 -36.5s-22.5 -13.5 -38.5 -13.5c-14.667 0 -26.834 4.66699 -36.501 14z" />
    <glyph glyph-name="eth" unicode="&#xf0;" horiz-adv-x="601" 
d="M166.5 26c-39.667 22.667 -70.835 53.6689 -93.502 93.002s-34 83 -34 131s11.333 91.667 34 131s53.834 70.333 93.501 93s83.5 34 131.5 34c32 0 59.333 -4.83301 82 -14.5s43 -23.5 61 -41.5l1 1c-22.667 50 -58.667 98.333 -108 145l-27 -10
c-34 -12 -70 -26.333 -108 -43l-27 80c14 3.33301 45.667 13.666 95 30.999c-47.333 36 -96 67 -146 93v2h142c32.667 -21.333 61.667 -43 87 -65l20 7c54 20 90.333 34.333 109 43l28 -80c-24.667 -6.66699 -56.334 -16.667 -95.001 -30
c50 -54.667 86.667 -110.5 110 -167.5s35 -123.167 35 -198.5c0 -52.667 -11.167 -99.334 -33.5 -140.001s-53.166 -72.167 -92.499 -94.5s-83.666 -33.5 -132.999 -33.5c-48 0 -91.833 11.333 -131.5 34zM382.999 96.002c25.333 16 45.333 37.5 60 64.5s22 56.833 22 89.5
s-7.33301 62.5 -22 89.5s-34.667 48.5 -60 64.5s-53.666 24 -84.999 24s-59.666 -8 -84.999 -24s-45.333 -37.5 -60 -64.5s-22 -56.833 -22 -89.5s7.33301 -62.5 22 -89.5s34.667 -48.5 60 -64.5s53.666 -24 84.999 -24s59.666 8 84.999 24z" />
    <glyph glyph-name="ntilde" unicode="&#xf1;" horiz-adv-x="557" 
d="M67 25c2 54 3 85.335 3 94.002v262c0 12 -1 44 -3 96l-1 23h82l6 -59h1c14.667 21.333 35 37.833 61 49.5s52.333 17.5 79 17.5c38.667 0 73 -7.83301 103 -23.5s53.167 -37.334 69.5 -65.001s24.5 -58.834 24.5 -93.501v-207c0 -43.333 1.33301 -83 4 -119h-100
c2.66699 36 4 75.667 4 119v179c0 42 -11.333 74.167 -34 96.5s-50.667 33.5 -84 33.5c-32 0 -60 -10.833 -84 -32.5s-36 -50.5 -36 -86.5v-190c0 -43.333 1.33301 -83 4 -119h-100zM284 608.002l-15.999 10.999c-3.33301 2.66699 -8.66602 6.33398 -15.999 11.001
s-13.333 8.16699 -18 10.5s-9.33398 3.5 -14.001 3.5c-12 0 -20.167 -4 -24.5 -12s-6.83301 -18.667 -7.5 -32h-73c4.66699 34 15.5 61.333 32.5 82s39.833 31 68.5 31c20 0 38.667 -6 56 -18l16 -11c13.333 -9.33301 23.166 -15.833 29.499 -19.5s12.5 -5.5 18.5 -5.5
c12 0 20.167 4 24.5 12s6.83301 18.667 7.5 32h73c-4.66699 -34 -15.5 -61.333 -32.5 -82s-39.833 -31 -68.5 -31c-20 0 -38.667 6 -56 18z" />
    <glyph glyph-name="ograve" unicode="&#xf2;" horiz-adv-x="596" 
d="M166.5 26c-39.667 22.667 -70.835 53.667 -93.502 93s-34 83 -34 131s11.333 91.667 34 131s53.834 70.333 93.501 93s83.5 34 131.5 34s91.833 -11.333 131.5 -34s70.834 -53.667 93.501 -93s34 -83 34 -131c0 -48.667 -11.333 -92.5 -34 -131.5
s-53.667 -69.833 -93 -92.5s-83.333 -34 -132 -34c-48 0 -91.833 11.333 -131.5 34zM382.999 96c25.333 16 45.333 37.5 60 64.5s22 56.833 22 89.5s-7.33301 62.5 -22 89.5s-34.667 48.5 -60 64.5s-53.666 24 -84.999 24s-59.666 -8 -84.999 -24s-45.333 -37.5 -60 -64.5
s-22 -56.833 -22 -89.5s7.33301 -62.5 22 -89.5s34.667 -48.5 60 -64.5s53.666 -24 84.999 -24s59.666 8 84.999 24zM130.999 700h134l85 -112h-88z" />
    <glyph glyph-name="oacute" unicode="&#xf3;" horiz-adv-x="596" 
d="M166.5 26c-39.667 22.667 -70.835 53.667 -93.502 93s-34 83 -34 131s11.333 91.667 34 131s53.834 70.333 93.501 93s83.5 34 131.5 34s91.833 -11.333 131.5 -34s70.834 -53.667 93.501 -93s34 -83 34 -131c0 -48.667 -11.333 -92.5 -34 -131.5
s-53.667 -69.833 -93 -92.5s-83.333 -34 -132 -34c-48 0 -91.833 11.333 -131.5 34zM382.999 96c25.333 16 45.333 37.5 60 64.5s22 56.833 22 89.5s-7.33301 62.5 -22 89.5s-34.667 48.5 -60 64.5s-53.666 24 -84.999 24s-59.666 -8 -84.999 -24s-45.333 -37.5 -60 -64.5
s-22 -56.833 -22 -89.5s7.33301 -62.5 22 -89.5s34.667 -48.5 60 -64.5s53.666 -24 84.999 -24s59.666 8 84.999 24zM330.999 700h134l-131 -112h-88z" />
    <glyph glyph-name="ocircumflex" unicode="&#xf4;" horiz-adv-x="596" 
d="M166.5 26c-39.667 22.667 -70.835 53.667 -93.502 93s-34 83 -34 131s11.333 91.667 34 131s53.834 70.333 93.501 93s83.5 34 131.5 34s91.833 -11.333 131.5 -34s70.834 -53.667 93.501 -93s34 -83 34 -131c0 -48.667 -11.333 -92.5 -34 -131.5
s-53.667 -69.833 -93 -92.5s-83.333 -34 -132 -34c-48 0 -91.833 11.333 -131.5 34zM382.999 96c25.333 16 45.333 37.5 60 64.5s22 56.833 22 89.5s-7.33301 62.5 -22 89.5s-34.667 48.5 -60 64.5s-53.666 24 -84.999 24s-59.666 -8 -84.999 -24s-45.333 -37.5 -60 -64.5
s-22 -56.833 -22 -89.5s7.33301 -62.5 22 -89.5s34.667 -48.5 60 -64.5s53.666 -24 84.999 -24s59.666 8 84.999 24zM246.999 700h101l115 -112h-95l-70 63l-71 -63h-95z" />
    <glyph glyph-name="otilde" unicode="&#xf5;" horiz-adv-x="596" 
d="M166.5 26c-39.667 22.667 -70.835 53.667 -93.502 93s-34 83 -34 131s11.333 91.667 34 131s53.834 70.333 93.501 93s83.5 34 131.5 34s91.833 -11.333 131.5 -34s70.834 -53.667 93.501 -93s34 -83 34 -131c0 -48.667 -11.333 -92.5 -34 -131.5
s-53.667 -69.833 -93 -92.5s-83.333 -34 -132 -34c-48 0 -91.833 11.333 -131.5 34zM382.999 96c25.333 16 45.333 37.5 60 64.5s22 56.833 22 89.5s-7.33301 62.5 -22 89.5s-34.667 48.5 -60 64.5s-53.666 24 -84.999 24s-59.666 -8 -84.999 -24s-45.333 -37.5 -60 -64.5
s-22 -56.833 -22 -89.5s7.33301 -62.5 22 -89.5s34.667 -48.5 60 -64.5s53.666 -24 84.999 -24s59.666 8 84.999 24zM303.999 608l-15.999 10.999c-3.33301 2.66699 -8.66602 6.33398 -15.999 11.001s-13.333 8.16699 -18 10.5s-9.33398 3.5 -14.001 3.5
c-12 0 -20.167 -4 -24.5 -12s-6.83301 -18.667 -7.5 -32h-73c4.66699 34 15.5 61.333 32.5 82s39.833 31 68.5 31c20 0 38.667 -6 56 -18l16 -11c13.333 -9.33301 23.166 -15.833 29.499 -19.5s12.5 -5.5 18.5 -5.5c12 0 20.167 4 24.5 12s6.83301 18.667 7.5 32h73
c-4.66699 -34 -15.5 -61.333 -32.5 -82s-39.833 -31 -68.5 -31c-20 0 -38.667 6 -56 18z" />
    <glyph glyph-name="odieresis" unicode="&#xf6;" horiz-adv-x="596" 
d="M166.5 26c-39.667 22.667 -70.835 53.667 -93.502 93s-34 83 -34 131s11.333 91.667 34 131s53.834 70.333 93.501 93s83.5 34 131.5 34s91.833 -11.333 131.5 -34s70.834 -53.667 93.501 -93s34 -83 34 -131c0 -48.667 -11.333 -92.5 -34 -131.5
s-53.667 -69.833 -93 -92.5s-83.333 -34 -132 -34c-48 0 -91.833 11.333 -131.5 34zM382.999 96c25.333 16 45.333 37.5 60 64.5s22 56.833 22 89.5s-7.33301 62.5 -22 89.5s-34.667 48.5 -60 64.5s-53.666 24 -84.999 24s-59.666 -8 -84.999 -24s-45.333 -37.5 -60 -64.5
s-22 -56.833 -22 -89.5s7.33301 -62.5 22 -89.5s34.667 -48.5 60 -64.5s53.666 -24 84.999 -24s59.666 8 84.999 24zM164.499 602c-9.66699 9.33301 -14.498 21.333 -14.498 36c0 15.333 4.66699 27.833 14 37.5s21.666 14.5 36.999 14.5c16 0 28.833 -4.83301 38.5 -14.5
s14.5 -22.167 14.5 -37.5s-4.83301 -27.5 -14.5 -36.5s-22.5 -13.5 -38.5 -13.5c-14.667 0 -26.834 4.66699 -36.501 14zM356.501 602c-9.66699 9.33301 -14.498 21.333 -14.498 36c0 15.333 4.66699 27.833 14 37.5s21.666 14.5 36.999 14.5
c16 0 28.833 -4.83301 38.5 -14.5s14.5 -22.167 14.5 -37.5s-4.83301 -27.5 -14.5 -36.5s-22.5 -13.5 -38.5 -13.5c-14.667 0 -26.834 4.66699 -36.501 14z" />
    <glyph glyph-name="divide" unicode="&#xf7;" horiz-adv-x="545" 
d="M234 370.5c-10 9.66699 -15 22.167 -15 37.5c0 16 5 29 15 39s22.667 15 38 15s28 -5 38 -15s15 -23 15 -39c0 -15.333 -5 -27.833 -15 -37.5s-22.667 -14.5 -38 -14.5s-28 4.83301 -38 14.5zM59 298c48.667 -3.33301 94.333 -5 137 -5h152
c42.667 0 88.334 1.66699 137.001 5v-82c-48.667 3.33301 -94.334 5 -137.001 5h-152c-43.333 0 -89 -1.66699 -137 -5v82zM233.999 66.5c-10 9.66699 -15 22.167 -15 37.5c0 16 5 29 15 39s22.667 15 38 15s28 -5 38 -15s15 -23 15 -39c0 -15.333 -5 -27.833 -15 -37.5
s-22.667 -14.5 -38 -14.5s-28 4.83301 -38 14.5z" />
    <glyph glyph-name="oslash" unicode="&#xf8;" horiz-adv-x="597" 
d="M557 250c0 -48.667 -11.334 -92.501 -34.001 -131.501s-53.667 -69.833 -93 -92.5s-83.333 -34 -132 -34c-56 0 -106.333 15.333 -151 46c-8.66699 -9.33301 -15.5 -17.166 -20.5 -23.499s-8.83301 -10.833 -11.5 -13.5l-63 65c15.333 12.667 27 23 35 31
c-32 44.667 -48 95.667 -48 153c0 48 11.333 91.667 34 131s53.834 70.333 93.501 93s83.5 34 131.5 34c58 0 109.333 -16 154 -48l31 38l61 -66l-34 -30c31.333 -44 47 -94.667 47 -152zM212.999 403.999c-25.333 -16 -45.335 -37.5 -60.002 -64.5s-22 -56.833 -22 -89.5
c0 -32 7.33301 -61.667 22 -89l239 237c-27.333 20 -58.666 30 -93.999 30c-31.333 0 -59.666 -8 -84.999 -24zM382.997 95.999c25.333 16 45.333 37.5 60 64.5s22 56.833 22 89.5c0 31.333 -7 61 -21 89l-238 -239c26.667 -18.667 57.334 -28 92.001 -28
c31.333 0 59.666 8 84.999 24z" />
    <glyph glyph-name="ugrave" unicode="&#xf9;" horiz-adv-x="548" 
d="M116 39.5c-34 31.667 -50.999 77.834 -50.999 138.501v203c0 8.66699 -1 40 -3 94l-1 25h100c-2.66699 -36 -4 -75.667 -4 -119v-182c0 -42.667 8.83301 -74.5 26.5 -95.5s45.167 -31.5 82.5 -31.5s66.666 10.333 87.999 31s32 52 32 94v184c0 43.333 -1.33301 83 -4 119
h100c-2.66699 -36 -4 -75.667 -4 -119v-262c0 -44.667 1.33301 -84.334 4 -119.001h-82l-6 57h-1c-9.33301 -17.333 -26.833 -32.5 -52.5 -45.5s-52.167 -19.5 -79.5 -19.5c-62.667 0 -111 15.833 -145 47.5zM104.001 700h134l85 -112h-88z" />
    <glyph glyph-name="uacute" unicode="&#xfa;" horiz-adv-x="548" 
d="M116 39.5c-34 31.667 -50.999 77.834 -50.999 138.501v203c0 8.66699 -1 40 -3 94l-1 25h100c-2.66699 -36 -4 -75.667 -4 -119v-182c0 -42.667 8.83301 -74.5 26.5 -95.5s45.167 -31.5 82.5 -31.5s66.666 10.333 87.999 31s32 52 32 94v184c0 43.333 -1.33301 83 -4 119
h100c-2.66699 -36 -4 -75.667 -4 -119v-262c0 -44.667 1.33301 -84.334 4 -119.001h-82l-6 57h-1c-9.33301 -17.333 -26.833 -32.5 -52.5 -45.5s-52.167 -19.5 -79.5 -19.5c-62.667 0 -111 15.833 -145 47.5zM304.001 700h134l-131 -112h-88z" />
    <glyph glyph-name="ucircumflex" unicode="&#xfb;" horiz-adv-x="548" 
d="M116 39.5c-34 31.667 -50.999 77.834 -50.999 138.501v203c0 8.66699 -1 40 -3 94l-1 25h100c-2.66699 -36 -4 -75.667 -4 -119v-182c0 -42.667 8.83301 -74.5 26.5 -95.5s45.167 -31.5 82.5 -31.5s66.666 10.333 87.999 31s32 52 32 94v184c0 43.333 -1.33301 83 -4 119
h100c-2.66699 -36 -4 -75.667 -4 -119v-262c0 -44.667 1.33301 -84.334 4 -119.001h-82l-6 57h-1c-9.33301 -17.333 -26.833 -32.5 -52.5 -45.5s-52.167 -19.5 -79.5 -19.5c-62.667 0 -111 15.833 -145 47.5zM220.001 700h101l115 -112h-95l-70 63l-71 -63h-95z" />
    <glyph glyph-name="udieresis" unicode="&#xfc;" horiz-adv-x="548" 
d="M116 39.5c-34 31.667 -50.999 77.834 -50.999 138.501v203c0 8.66699 -1 40 -3 94l-1 25h100c-2.66699 -36 -4 -75.667 -4 -119v-182c0 -42.667 8.83301 -74.5 26.5 -95.5s45.167 -31.5 82.5 -31.5s66.666 10.333 87.999 31s32 52 32 94v184c0 43.333 -1.33301 83 -4 119
h100c-2.66699 -36 -4 -75.667 -4 -119v-262c0 -44.667 1.33301 -84.334 4 -119.001h-82l-6 57h-1c-9.33301 -17.333 -26.833 -32.5 -52.5 -45.5s-52.167 -19.5 -79.5 -19.5c-62.667 0 -111 15.833 -145 47.5zM137.501 602c-9.66699 9.33301 -14.498 21.333 -14.498 36
c0 15.333 4.66699 27.833 14 37.5s21.666 14.5 36.999 14.5c16 0 28.833 -4.83301 38.5 -14.5s14.5 -22.167 14.5 -37.5s-4.83301 -27.5 -14.5 -36.5s-22.5 -13.5 -38.5 -13.5c-14.667 0 -26.834 4.66699 -36.501 14zM329.503 602
c-9.66699 9.33301 -14.498 21.333 -14.498 36c0 15.333 4.66699 27.833 14 37.5s21.666 14.5 36.999 14.5c16 0 28.833 -4.83301 38.5 -14.5s14.5 -22.167 14.5 -37.5s-4.83301 -27.5 -14.5 -36.5s-22.5 -13.5 -38.5 -13.5c-14.667 0 -26.834 4.66699 -36.501 14z" />
    <glyph glyph-name="yacute" unicode="&#xfd;" horiz-adv-x="485" 
d="M103 -199c0.666992 1.33301 3.50098 5.5 8.50098 12.5s9.83301 17.167 14.5 30.5l75 196l-164 406c-8.66699 21.333 -18 39 -28 53v1h108c-0.666992 -2 -1 -5 -1 -9c0 -9.33301 3 -21.666 9 -36.999l122 -313h1l112 313c7.33301 20.667 10.333 36 9 46h107v-1
c-1.33301 -2 -5.33301 -8.33301 -12 -19s-12.334 -22 -17.001 -34l-231 -605c-3.33301 -8.66699 -5 -16.334 -5 -23.001c0 -6 1.33301 -11.667 4 -17v-1h-112v1zM275.001 700h134l-131 -112h-88z" />
    <glyph glyph-name="thorn" unicode="&#xfe;" horiz-adv-x="611" 
d="M67 -177c2 52 2.99707 84 2.99707 96v713c0 44.667 -1.33301 84.334 -4 119.001h100c-2.66699 -34.667 -4 -74.334 -4 -119.001v-198c18 23.333 41 41.5 69 54.5s58.667 19.5 92 19.5c48.667 0 91.834 -11.5 129.501 -34.5s66.834 -54.167 87.501 -93.5
s31 -82.666 31 -129.999s-10.333 -90.666 -31 -129.999s-49.667 -70.5 -87 -93.5s-80.666 -34.5 -129.999 -34.5c-34 0 -65 6.66699 -93 20s-50.667 31.666 -68 54.999v-148c0 -44.667 1.33301 -84.334 4 -119.001h-100zM404.497 96c23.667 16 42 37.5 55 64.5
s19.5 56.833 19.5 89.5s-6.5 62.5 -19.5 89.5s-31.333 48.5 -55 64.5s-51.167 24 -82.5 24c-30.667 0 -58.167 -7.5 -82.5 -22.5s-43.333 -36 -57 -63s-20.5 -57.833 -20.5 -92.5c0 -34 6.83301 -64.5 20.5 -91.5s32.667 -48.167 57 -63.5s51.833 -23 82.5 -23
c31.333 0 58.833 8 82.5 24z" />
    <glyph glyph-name="ydieresis" unicode="&#xff;" horiz-adv-x="485" 
d="M103 -199c0.666992 1.33301 3.50098 5.5 8.50098 12.5s9.83301 17.167 14.5 30.5l75 196l-164 406c-8.66699 21.333 -18 39 -28 53v1h108c-0.666992 -2 -1 -5 -1 -9c0 -9.33301 3 -21.666 9 -36.999l122 -313h1l112 313c7.33301 20.667 10.333 36 9 46h107v-1
c-1.33301 -2 -5.33301 -8.33301 -12 -19s-12.334 -22 -17.001 -34l-231 -605c-3.33301 -8.66699 -5 -16.334 -5 -23.001c0 -6 1.33301 -11.667 4 -17v-1h-112v1zM108.501 602c-9.66699 9.33301 -14.498 21.333 -14.498 36c0 15.333 4.66699 27.833 14 37.5
s21.666 14.5 36.999 14.5c16 0 28.833 -4.83301 38.5 -14.5s14.5 -22.167 14.5 -37.5s-4.83301 -27.5 -14.5 -36.5s-22.5 -13.5 -38.5 -13.5c-14.667 0 -26.834 4.66699 -36.501 14zM300.503 602c-9.66699 9.33301 -14.498 21.333 -14.498 36
c0 15.333 4.66699 27.833 14 37.5s21.666 14.5 36.999 14.5c16 0 28.833 -4.83301 38.5 -14.5s14.5 -22.167 14.5 -37.5s-4.83301 -27.5 -14.5 -36.5s-22.5 -13.5 -38.5 -13.5c-14.667 0 -26.834 4.66699 -36.501 14z" />
    <glyph glyph-name="Amacron" unicode="&#x100;" horiz-adv-x="684" 
d="M8 1c12 20.667 20.667 37.667 26 51l247 601c10 26 15.667 41.667 17 47h79c3.33301 -11.333 9 -27 17 -47l262 -602l26 -50v-1h-105c-2.66699 5.33301 -5.5 12.5 -8.5 21.5s-7.16699 19.833 -12.5 32.5l-57 133h-316l-54 -133c-9.33301 -21.333 -15.333 -39.333 -18 -54
h-103v1zM463 270l-128 297l-119 -297h247zM206 876h276v-74h-276v74z" />
    <glyph glyph-name="amacron" unicode="&#x101;" horiz-adv-x="506" 
d="M83 31.5c-32 26.333 -47.999 62.165 -47.999 107.498c0 41.333 14 74 42 98s68 38.667 120 44l155 16v32c0 67.333 -35 101 -105 101c-30 0 -60.333 -6.66699 -91 -20s-58.334 -29.666 -83.001 -48.999h-2v95c19.333 12.667 46.333 24.5 81 35.5s67 16.5 97 16.5
c129.333 0 194 -59 194 -177v-213v-34c0 -19.333 0.666992 -35 2 -47s4.33301 -24.333 9 -37h-92c-3.33301 8 -6.33301 24.333 -9 49h-1c-14.667 -17.333 -34.5 -31.166 -59.5 -41.499s-54.833 -15.5 -89.5 -15.5c-48 0 -88 13.167 -120 39.5zM282.001 76.999
c20 8.66699 36.667 22.1689 50 40.502s20 41.166 20 68.499v38l-125 -13c-31.333 -3.33301 -55.5 -11.5 -72.5 -24.5s-25.5 -28.833 -25.5 -47.5c0 -22.667 8 -40.834 24 -54.501s38.333 -20.5 67 -20.5c21.333 0 42 4.33301 62 13zM109.001 676.001h276v-74h-276v74z" />
    <glyph glyph-name="Abreve" unicode="&#x102;" horiz-adv-x="684" 
d="M8 1c12 20.667 20.667 37.667 26 51l247 601c10 26 15.667 41.667 17 47h79c3.33301 -11.333 9 -27 17 -47l262 -602l26 -50v-1h-105c-2.66699 5.33301 -5.5 12.5 -8.5 21.5s-7.16699 19.833 -12.5 32.5l-57 133h-316l-54 -133c-9.33301 -21.333 -15.333 -39.333 -18 -54
h-103v1zM463 270l-128 297l-119 -297h247zM239 807.5c-27.333 22.333 -43 53.166 -47 92.499h75c3.33301 -18 11.5 -32.167 24.5 -42.5s30.5 -15.5 52.5 -15.5s39.5 5.16699 52.5 15.5s21.167 24.5 24.5 42.5h75c-4 -39.333 -19.667 -70.166 -47 -92.499
s-62.333 -33.5 -105 -33.5s-77.667 11.167 -105 33.5z" />
    <glyph glyph-name="abreve" unicode="&#x103;" horiz-adv-x="506" 
d="M83 31.5c-32 26.333 -47.999 62.165 -47.999 107.498c0 41.333 14 74 42 98s68 38.667 120 44l155 16v32c0 67.333 -35 101 -105 101c-30 0 -60.333 -6.66699 -91 -20s-58.334 -29.666 -83.001 -48.999h-2v95c19.333 12.667 46.333 24.5 81 35.5s67 16.5 97 16.5
c129.333 0 194 -59 194 -177v-213v-34c0 -19.333 0.666992 -35 2 -47s4.33301 -24.333 9 -37h-92c-3.33301 8 -6.33301 24.333 -9 49h-1c-14.667 -17.333 -34.5 -31.166 -59.5 -41.499s-54.833 -15.5 -89.5 -15.5c-48 0 -88 13.167 -120 39.5zM282.001 76.999
c20 8.66699 36.667 22.1689 50 40.502s20 41.166 20 68.499v38l-125 -13c-31.333 -3.33301 -55.5 -11.5 -72.5 -24.5s-25.5 -28.833 -25.5 -47.5c0 -22.667 8 -40.834 24 -54.501s38.333 -20.5 67 -20.5c21.333 0 42 4.33301 62 13zM142.001 607.501
c-27.333 22.333 -43 53.166 -47 92.499h75c3.33301 -18 11.5 -32.167 24.5 -42.5s30.5 -15.5 52.5 -15.5s39.5 5.16699 52.5 15.5s21.167 24.5 24.5 42.5h75c-4 -39.333 -19.667 -70.166 -47 -92.499s-62.333 -33.5 -105 -33.5s-77.667 11.167 -105 33.5z" />
    <glyph glyph-name="Aogonek" unicode="&#x104;" horiz-adv-x="684" 
d="M682 1v-0.999023h-5c-26 -15.333 -45.833 -29.333 -59.5 -42s-20.5 -28 -20.5 -46c0 -10.667 3.16699 -19 9.5 -25s14.833 -9 25.5 -9c12.667 0 25 3.33301 37 10h1v-73c-19.333 -6 -38 -9 -56 -9c-30 0 -54.5 8.16699 -73.5 24.5s-28.5 38.166 -28.5 65.499
c0 39.333 21.667 74 65 104c-2.66699 5.33301 -5.5 12.5 -8.5 21.5s-7.16699 19.833 -12.5 32.5l-57 133h-316l-54 -133c-9.33301 -21.333 -15.333 -39.333 -18 -54h-103v1c12 20.667 20.667 37.667 26 51l247 601c10 26 15.667 41.667 17 47h79
c3.33301 -11.333 9 -27 17 -47l262 -602zM463 270.001l-128 297l-119 -297h247z" />
    <glyph glyph-name="aogonek" unicode="&#x105;" horiz-adv-x="506" 
d="M446 -112l1.00098 -0.000976562v-73c-19.333 -6 -38 -9 -56 -9c-30 0 -54.5 8.16699 -73.5 24.5s-28.5 38.166 -28.5 65.499c0 40 23.667 76.333 71 109c-2 6.66699 -4.33301 21.334 -7 44.001h-1c-14.667 -17.333 -34.5 -31.166 -59.5 -41.499
s-54.833 -15.5 -89.5 -15.5c-48 0 -88 13.167 -120 39.5s-48 62.166 -48 107.499c0 41.333 14 74 42 98s68 38.667 120 44l155 16v32c0 67.333 -35 101 -105 101c-30 0 -60.333 -6.66699 -91 -20s-58.334 -29.666 -83.001 -48.999h-2v95c19.333 12.667 46.333 24.5 81 35.5
s67 16.5 97 16.5c129.333 0 194 -59 194 -177v-213v-34c0 -19.333 0.666992 -35 2 -47s4.33301 -24.333 9 -37c-26 -15.333 -45.833 -29.333 -59.5 -42s-20.5 -28 -20.5 -46c0 -10.667 3.16699 -19 9.5 -25s14.833 -9 25.5 -9c12.667 0 25 3.33301 37 10zM352.001 223.999
l-125 -12.998c-31.333 -3.33301 -55.5 -11.5 -72.5 -24.5s-25.5 -28.833 -25.5 -47.5c0 -22.667 8 -40.834 24 -54.501s38.333 -20.5 67 -20.5c21.333 0 42 4.33301 62 13s36.667 22.167 50 40.5s20 41.166 20 68.499v38z" />
    <glyph glyph-name="Cacute" unicode="&#x106;" horiz-adv-x="689" 
d="M225 39c-56 31.333 -100.167 74.3311 -132.5 128.998s-48.5 115.667 -48.5 183s16.167 128.333 48.5 183s76.5 97.667 132.5 129s118.333 47 187 47c52.667 0 98.334 -5.66699 137.001 -17s70.334 -25.666 95.001 -42.999v-115h-1c-64.667 62 -141.667 93 -231 93
c-50 0 -95.667 -12.333 -137 -37s-73.833 -58.167 -97.5 -100.5s-35.5 -88.833 -35.5 -139.5s11.833 -97.167 35.5 -139.5s56.167 -75.833 97.5 -100.5s87 -37 137 -37c89.333 0 166.333 31 231 93h1v-115c-24.667 -17.333 -56.334 -31.666 -95.001 -42.999
s-84.334 -17 -137.001 -17c-68.667 0 -131 15.667 -187 47zM445 899.998h134l-131 -112h-88z" />
    <glyph glyph-name="cacute" unicode="&#x107;" horiz-adv-x="495" 
d="M164.5 25c-39.667 22 -70.335 52.668 -92.002 92.001s-32.5 83.666 -32.5 132.999c0 48 11 91.667 33 131s52.833 70.333 92.5 93s84.834 34 135.501 34c29.333 0 57.333 -4.5 84 -13.5s49 -20.833 67 -35.5v-99h-1c-40.667 45.333 -90.334 68 -149.001 68
c-32.667 0 -62 -8 -88 -24s-46.167 -37.667 -60.5 -65s-21.5 -57 -21.5 -89c0 -33.333 7 -63.5 21 -90.5s34 -48.333 60 -64s55.667 -23.5 89 -23.5c31.333 0 59.833 6 85.5 18s46.834 28.667 63.501 50h1v-99c-15.333 -15.333 -36.666 -27.333 -63.999 -36
s-56.333 -13 -87 -13c-51.333 0 -96.833 11 -136.5 33zM334.999 700.001h134l-131 -112h-88z" />
    <glyph glyph-name="Cdotaccent" unicode="&#x10a;" horiz-adv-x="689" 
d="M225 39c-56 31.333 -100.167 74.3311 -132.5 128.998s-48.5 115.667 -48.5 183s16.167 128.333 48.5 183s76.5 97.667 132.5 129s118.333 47 187 47c52.667 0 98.334 -5.66699 137.001 -17s70.334 -25.666 95.001 -42.999v-115h-1c-64.667 62 -141.667 93 -231 93
c-50 0 -95.667 -12.333 -137 -37s-73.833 -58.167 -97.5 -100.5s-35.5 -88.833 -35.5 -139.5s11.833 -97.167 35.5 -139.5s56.167 -75.833 97.5 -100.5s87 -37 137 -37c89.333 0 166.333 31 231 93h1v-115c-24.667 -17.333 -56.334 -31.666 -95.001 -42.999
s-84.334 -17 -137.001 -17c-68.667 0 -131 15.667 -187 47zM374 800.498c-10 9.66699 -15 22.167 -15 37.5c0 16 5 29 15 39s22.667 15 38 15s28 -5 38 -15s15 -23 15 -39c0 -15.333 -5 -27.833 -15 -37.5s-22.667 -14.5 -38 -14.5s-28 4.83301 -38 14.5z" />
    <glyph glyph-name="cdotaccent" unicode="&#x10b;" horiz-adv-x="495" 
d="M164.5 25c-39.667 22 -70.335 52.668 -92.002 92.001s-32.5 83.666 -32.5 132.999c0 48 11 91.667 33 131s52.833 70.333 92.5 93s84.834 34 135.501 34c29.333 0 57.333 -4.5 84 -13.5s49 -20.833 67 -35.5v-99h-1c-40.667 45.333 -90.334 68 -149.001 68
c-32.667 0 -62 -8 -88 -24s-46.167 -37.667 -60.5 -65s-21.5 -57 -21.5 -89c0 -33.333 7 -63.5 21 -90.5s34 -48.333 60 -64s55.667 -23.5 89 -23.5c31.333 0 59.833 6 85.5 18s46.834 28.667 63.501 50h1v-99c-15.333 -15.333 -36.666 -27.333 -63.999 -36
s-56.333 -13 -87 -13c-51.333 0 -96.833 11 -136.5 33zM263.999 600.501c-10 9.66699 -15 22.167 -15 37.5c0 16 5 29 15 39s22.667 15 38 15s28 -5 38 -15s15 -23 15 -39c0 -15.333 -5 -27.833 -15 -37.5s-22.667 -14.5 -38 -14.5s-28 4.83301 -38 14.5z" />
    <glyph glyph-name="Ccaron" unicode="&#x10c;" horiz-adv-x="689" 
d="M225 39c-56 31.333 -100.167 74.3311 -132.5 128.998s-48.5 115.667 -48.5 183s16.167 128.333 48.5 183s76.5 97.667 132.5 129s118.333 47 187 47c52.667 0 98.334 -5.66699 137.001 -17s70.334 -25.666 95.001 -42.999v-115h-1c-64.667 62 -141.667 93 -231 93
c-50 0 -95.667 -12.333 -137 -37s-73.833 -58.167 -97.5 -100.5s-35.5 -88.833 -35.5 -139.5s11.833 -97.167 35.5 -139.5s56.167 -75.833 97.5 -100.5s87 -37 137 -37c89.333 0 166.333 31 231 93h1v-115c-24.667 -17.333 -56.334 -31.666 -95.001 -42.999
s-84.334 -17 -137.001 -17c-68.667 0 -131 15.667 -187 47zM246 899.998h95l71 -63l70 63h95l-115 -112h-101z" />
    <glyph glyph-name="ccaron" unicode="&#x10d;" horiz-adv-x="495" 
d="M164.5 25c-39.667 22 -70.335 52.668 -92.002 92.001s-32.5 83.666 -32.5 132.999c0 48 11 91.667 33 131s52.833 70.333 92.5 93s84.834 34 135.501 34c29.333 0 57.333 -4.5 84 -13.5s49 -20.833 67 -35.5v-99h-1c-40.667 45.333 -90.334 68 -149.001 68
c-32.667 0 -62 -8 -88 -24s-46.167 -37.667 -60.5 -65s-21.5 -57 -21.5 -89c0 -33.333 7 -63.5 21 -90.5s34 -48.333 60 -64s55.667 -23.5 89 -23.5c31.333 0 59.833 6 85.5 18s46.834 28.667 63.501 50h1v-99c-15.333 -15.333 -36.666 -27.333 -63.999 -36
s-56.333 -13 -87 -13c-51.333 0 -96.833 11 -136.5 33zM135.999 700.001h95l71 -63l70 63h95l-115 -112h-101z" />
    <glyph glyph-name="Dcaron" unicode="&#x10e;" horiz-adv-x="699" 
d="M219 -2c-20 1.33301 -34.666 2 -43.999 2h-96c2.66699 36 4 75.667 4 119v462c0 44.667 -1.33301 84.334 -4 119.001h219c67.333 0 128.166 -15.5 182.499 -46.5s97 -73.333 128 -127s46.5 -112.834 46.5 -177.501s-15.667 -124 -47 -178s-74.5 -96.833 -129.5 -128.5
s-115.833 -47.5 -182.5 -47.5c-9.33301 0 -35 1 -77 3zM425.501 114.5c41 24.333 73.166 57.167 96.499 98.5s35 86.333 35 135s-11.667 93.667 -35 135s-55.666 74.166 -96.999 98.499s-87.333 36.5 -138 36.5h-107c-0.666992 -9.33301 -1 -22.666 -1 -39.999v-471
c0.666992 -13.333 7.66699 -21 21 -23c22.667 -4 52.667 -6 90 -6c49.333 0 94.5 12.167 135.5 36.5zM177 900.001h95l71 -63l70 63h95l-115 -112h-101z" />
    <glyph glyph-name="dcaron" unicode="&#x10f;" horiz-adv-x="624" 
d="M158 26.5c-37.333 23 -66.334 54.1689 -87.001 93.502s-31 82.666 -31 129.999s10.333 90.666 31 129.999s49.667 70.5 87 93.5s80.666 34.5 129.999 34.5c34 0 64.833 -6.5 92.5 -19.5s49.834 -30.833 66.501 -53.5h1v197c0 44.667 -1.33301 84.334 -4 119.001h100
c-2.66699 -34.667 -4 -74.334 -4 -119.001v-495c0 -55.333 1.33301 -101 4 -137h-75l-18 70h-1c-16.667 -24 -39 -43 -67 -57s-59.667 -21 -95 -21c-49.333 0 -92.666 11.5 -129.999 34.5zM403.499 121.502c29.667 33 44.498 75.833 44.498 128.5
c0 34 -6.66699 64.5 -20 91.5s-32.166 48.167 -56.499 63.5s-51.833 23 -82.5 23c-31.333 0 -58.833 -8 -82.5 -24s-42 -37.5 -55 -64.5s-19.5 -56.833 -19.5 -89.5s6.5 -62.5 19.5 -89.5s31.333 -48.5 55 -64.5s51.167 -24 82.5 -24c46.667 0 84.834 16.5 114.501 49.5z
M639.997 751.002h105l-72 -146h-81z" />
    <glyph glyph-name="Dcroat" unicode="&#x110;" horiz-adv-x="720" 
d="M501.5 653.5c54.333 -31 97 -73.334 128 -127.001s46.5 -112.834 46.5 -177.501s-15.667 -124 -47 -178s-74.5 -96.833 -129.5 -128.5s-115.833 -47.5 -182.5 -47.5c-9.33301 0 -35 1 -77 3c-20 1.33301 -34.667 2 -44 2h-96c2.66699 36 4 75.667 4 119v191
c-43.333 -1.33301 -71.666 -2.66602 -84.999 -3.99902v87c17.333 -1.33301 36 -2 56 -2l29 -1v191c0 44.667 -1.33301 84.334 -4 119.001h219c67.333 0 128.166 -15.5 182.499 -46.5zM446.5 114.499c41 24.333 73.166 57.167 96.499 98.5s35 86.333 35 135
s-11.667 93.667 -35 135s-55.666 74.166 -96.999 98.499s-87.333 36.5 -138 36.5h-107c-0.666992 -9.33301 -1 -22.666 -1 -39.999v-188h68c52 0 91 1 117 3v-87c-34.667 2.66699 -73.667 4 -117 4h-68v-203c0.666992 -13.333 7.66699 -21 21 -23c22.667 -4 52.667 -6 90 -6
c49.333 0 94.5 12.167 135.5 36.5z" />
    <glyph glyph-name="dcroat" unicode="&#x111;" horiz-adv-x="610" 
d="M540 586l-0.00390625 -448.998c0 -55.333 1.33301 -101 4 -137h-75l-18 70h-1c-16.667 -24 -39 -43 -67 -57s-59.667 -21 -95 -21c-49.333 0 -92.666 11.5 -129.999 34.5s-66.333 54.167 -87 93.5s-31 82.666 -31 129.999s10.333 90.666 31 129.999s49.667 70.5 87 93.5
s80.666 34.5 129.999 34.5c34 0 64.833 -6.5 92.5 -19.5s49.834 -30.833 66.501 -53.5h1v152h-60c-44 0 -82.667 -1.33301 -116 -4v84c24.667 -2 63.334 -3 116.001 -3h60c-1.33301 43.333 -2.66602 72.333 -3.99902 87h100c-1.33301 -14.667 -2.66602 -43.667 -3.99902 -87
l69 3v-84c-34 2 -57 3 -69 3zM403.496 121.502c29.667 33 44.498 75.833 44.498 128.5c0 34 -6.66699 64.5 -20 91.5s-32.166 48.167 -56.499 63.5s-51.833 23 -82.5 23c-31.333 0 -58.833 -8 -82.5 -24s-42 -37.5 -55 -64.5s-19.5 -56.833 -19.5 -89.5
s6.5 -62.5 19.5 -89.5s31.333 -48.5 55 -64.5s51.167 -24 82.5 -24c46.667 0 84.834 16.5 114.501 49.5z" />
    <glyph glyph-name="Emacron" unicode="&#x112;" horiz-adv-x="560" 
d="M83 119v461.999c0 44.667 -1.33301 84.334 -4 119.001h425l3 -86l-113 4h-214c-0.666992 -8 -1 -20.667 -1 -38v-186h182l113 4v-90l-114 4h-181v-191c0 -17.333 0.333008 -30 1 -38h219l113 4l-3 -87h-430c2.66699 36 4 75.667 4 119zM158 875.999h276v-74h-276v74z" />
    <glyph glyph-name="emacron" unicode="&#x113;" horiz-adv-x="555" 
d="M161 24c-38 21.333 -67.667 51.502 -89 90.502s-32 84.167 -32 135.5c0 48.667 10.5 92.667 31.5 132s50 70.166 87 92.499s78.5 33.5 124.5 33.5c43.333 0 82.833 -10.5 118.5 -31.5s64 -51 85 -90s31.5 -84.5 31.5 -136.5c0 -14.667 -1 -26.667 -3 -36h-384
c5.33301 -42.667 22.833 -76.834 52.5 -102.501s66.167 -38.5 109.5 -38.5c30.667 0 58 6 82 18s44 28.667 60 50l58 -65c-57.333 -56 -125 -84 -203 -84c-48 0 -91 10.667 -129 32zM428 290.002c-4.66699 44.667 -20.501 79.332 -47.501 103.999s-59.5 37 -97.5 37
c-40.667 0 -74.667 -13.167 -102 -39.5s-43.666 -60.166 -48.999 -101.499h296zM146.999 676h276v-74h-276v74z" />
    <glyph glyph-name="Edotaccent" unicode="&#x116;" horiz-adv-x="560" 
d="M83 119v461.999c0 44.667 -1.33301 84.334 -4 119.001h425l3 -86l-113 4h-214c-0.666992 -8 -1 -20.667 -1 -38v-186h182l113 4v-90l-114 4h-181v-191c0 -17.333 0.333008 -30 1 -38h219l113 4l-3 -87h-430c2.66699 36 4 75.667 4 119zM258 800.499
c-10 9.66699 -15 22.167 -15 37.5c0 16 5 29 15 39s22.667 15 38 15s28 -5 38 -15s15 -23 15 -39c0 -15.333 -5 -27.833 -15 -37.5s-22.667 -14.5 -38 -14.5s-28 4.83301 -38 14.5z" />
    <glyph glyph-name="edotaccent" unicode="&#x117;" horiz-adv-x="555" 
d="M161 24c-38 21.333 -67.667 51.502 -89 90.502s-32 84.167 -32 135.5c0 48.667 10.5 92.667 31.5 132s50 70.166 87 92.499s78.5 33.5 124.5 33.5c43.333 0 82.833 -10.5 118.5 -31.5s64 -51 85 -90s31.5 -84.5 31.5 -136.5c0 -14.667 -1 -26.667 -3 -36h-384
c5.33301 -42.667 22.833 -76.834 52.5 -102.501s66.167 -38.5 109.5 -38.5c30.667 0 58 6 82 18s44 28.667 60 50l58 -65c-57.333 -56 -125 -84 -203 -84c-48 0 -91 10.667 -129 32zM428 290.002c-4.66699 44.667 -20.501 79.332 -47.501 103.999s-59.5 37 -97.5 37
c-40.667 0 -74.667 -13.167 -102 -39.5s-43.666 -60.166 -48.999 -101.499h296zM246.999 600.5c-10 9.66699 -15 22.167 -15 37.5c0 16 5 29 15 39s22.667 15 38 15s28 -5 38 -15s15 -23 15 -39c0 -15.333 -5 -27.833 -15 -37.5s-22.667 -14.5 -38 -14.5
s-28 4.83301 -38 14.5z" />
    <glyph glyph-name="Eogonek" unicode="&#x118;" horiz-adv-x="560" 
d="M449.5 -42c-13.667 -12.667 -20.5 -28.001 -20.5 -46.001c0 -10.667 3.16699 -19 9.5 -25s14.833 -9 25.5 -9c12.667 0 25 3.33301 37 10h1v-73c-19.333 -6 -38 -9 -56 -9c-30 0 -54.5 8.16699 -73.5 24.5s-28.5 38.166 -28.5 65.499c0 38.667 21.667 73.334 65 104.001
h-330c2.66699 36 4 75.667 4 119v462c0 44.667 -1.33301 84.334 -4 119.001h425l3 -86l-113 4h-214c-0.666992 -8 -1 -20.667 -1 -38v-186h182l113 4v-90l-114 4h-181v-191c0 -17.333 0.333008 -30 1 -38h219l113 4l-3 -87c-26 -15.333 -45.833 -29.333 -59.5 -42z" />
    <glyph glyph-name="eogonek" unicode="&#x119;" horiz-adv-x="555" 
d="M287.5 -169.5c-19 16.333 -28.501 38.167 -28.501 65.5c0 34 17.667 66 53 96v1c-5.33301 -0.666992 -12.666 -1 -21.999 -1c-48 0 -91 10.667 -129 32s-67.667 51.5 -89 90.5s-32 84.167 -32 135.5c0 48.667 10.5 92.667 31.5 132s50 70.166 87 92.499
s78.5 33.5 124.5 33.5c43.333 0 82.833 -10.5 118.5 -31.5s64 -51 85 -90s31.5 -84.5 31.5 -136.5c0 -14.667 -1 -26.667 -3 -36h-384c5.33301 -42.667 22.833 -76.834 52.5 -102.501s66.167 -38.5 109.5 -38.5c30.667 0 58 6 82 18s44 28.667 60 50l58 -65
c-19.333 -19.333 -42.333 -36.666 -69 -51.999c-24 -13.333 -43.333 -29 -58 -47s-22 -37 -22 -57c0 -13.333 3.5 -23.666 10.5 -30.999s15.833 -11 26.5 -11c13.333 0 25 3.33301 35 10h1v-73c-19.333 -6 -38 -9 -56 -9c-30 0 -54.5 8.16699 -73.5 24.5zM427.999 290.001
c-4.66699 44.667 -20.501 79.332 -47.501 103.999s-59.5 37 -97.5 37c-40.667 0 -74.667 -13.167 -102 -39.5s-43.666 -60.166 -48.999 -101.499h296z" />
    <glyph glyph-name="Ecaron" unicode="&#x11a;" horiz-adv-x="560" 
d="M83 119v461.999c0 44.667 -1.33301 84.334 -4 119.001h425l3 -86l-113 4h-214c-0.666992 -8 -1 -20.667 -1 -38v-186h182l113 4v-90l-114 4h-181v-191c0 -17.333 0.333008 -30 1 -38h219l113 4l-3 -87h-430c2.66699 36 4 75.667 4 119zM130 899.999h95l71 -63l70 63h95
l-115 -112h-101z" />
    <glyph glyph-name="ecaron" unicode="&#x11b;" horiz-adv-x="555" 
d="M161 24c-38 21.333 -67.667 51.502 -89 90.502s-32 84.167 -32 135.5c0 48.667 10.5 92.667 31.5 132s50 70.166 87 92.499s78.5 33.5 124.5 33.5c43.333 0 82.833 -10.5 118.5 -31.5s64 -51 85 -90s31.5 -84.5 31.5 -136.5c0 -14.667 -1 -26.667 -3 -36h-384
c5.33301 -42.667 22.833 -76.834 52.5 -102.501s66.167 -38.5 109.5 -38.5c30.667 0 58 6 82 18s44 28.667 60 50l58 -65c-57.333 -56 -125 -84 -203 -84c-48 0 -91 10.667 -129 32zM428 290.002c-4.66699 44.667 -20.501 79.332 -47.501 103.999s-59.5 37 -97.5 37
c-40.667 0 -74.667 -13.167 -102 -39.5s-43.666 -60.166 -48.999 -101.499h296zM118.999 700h95l71 -63l70 63h95l-115 -112h-101z" />
    <glyph glyph-name="Gcircumflex" unicode="&#x11c;" horiz-adv-x="725" 
d="M225 38c-56 30.667 -100.164 73.3311 -132.497 127.998s-48.5 116.334 -48.5 185.001c0 67.333 17 128.333 51 183s80.167 97.667 138.5 129s122.166 47 191.499 47c48.667 0 91.167 -5.5 127.5 -16.5s69.833 -27.5 100.5 -49.5v-117h-1
c-29.333 32.667 -62.333 57.667 -99 75s-79.334 26 -128.001 26c-51.333 0 -98.666 -12.333 -141.999 -37s-77.666 -58.167 -102.999 -100.5s-38 -88.833 -38 -139.5c0 -52 11.833 -99 35.5 -141s56.334 -75 98.001 -99s88.5 -36 140.5 -36c26.667 0 53.667 2.5 81 7.5
s51.666 11.833 72.999 20.5v101c0 19.333 -0.333008 36.5 -1 51.5s-1.33398 27.5 -2.00098 37.5c-1.33301 12 -2 21 -2 27h101c0 -9.33301 -0.666992 -24.666 -2 -45.999c-1.33301 -29.333 -2 -52 -2 -68v-81c0 -16 0.666992 -40.667 2 -74c1.33301 -22.667 2 -39.667 2 -51
c-20 0 -39.667 1 -59 3c-22.667 1.33301 -39.334 2 -50.001 2c-7.33301 0 -16.833 -0.666992 -28.5 -2s-20.834 -2.33301 -27.501 -3c-34.667 -5.33301 -64 -8 -88 -8c-69.333 0 -132 15.333 -188 46zM374.003 899.997h101l115 -112h-95l-70 63l-71 -63h-95z" />
    <glyph glyph-name="gcircumflex" unicode="&#x11d;" horiz-adv-x="513" 
d="M101.5 -176.5c-40.333 21 -60.5 50.501 -60.5 88.501c0 34 20.667 59.333 62 76v1c-38 19.333 -57 47.666 -57 84.999c0 22.667 6.66699 42.167 20 58.5s33 28.5 59 36.5v1c-22.667 18.667 -40.167 40.667 -52.5 66s-18.5 52.666 -18.5 81.999
c0 34.667 8.66699 66.5 26 95.5s41 52 71 69s62.667 25.5 98 25.5c14.667 0 28.5 -1.33301 41.5 -4s28.833 -6.66699 47.5 -12c24.667 -7.33301 41.667 -11 51 -11c38 0 70.333 11.667 97 35h1v-83c-12.667 -8 -31 -12 -55 -12c-10.667 0 -21 1.33301 -31 4v-4
c28.667 -27.333 43 -61.666 43 -102.999c0 -35.333 -8.66699 -67.5 -26 -96.5s-41 -52 -71 -69s-62.667 -25.5 -98 -25.5h-59c-18 0 -33.333 -3.5 -46 -10.5s-19 -16.5 -19 -28.5c0 -20.667 17 -31 51 -31h168c44 0 80.5 -10.5 109.5 -31.5s43.5 -49.167 43.5 -84.5
c0 -48 -20.167 -84.833 -60.5 -110.5s-95.833 -38.5 -166.5 -38.5c-72 0 -128.167 10.5 -168.5 31.5zM329 235.501c22 21.667 33 49.167 33 82.5c0 32.667 -11 59.834 -33 81.501s-48.667 32.5 -80 32.5s-58 -10.833 -80 -32.5s-33 -48.834 -33 -81.501
c0 -33.333 11 -60.833 33 -82.5s48.667 -32.5 80 -32.5s58 10.833 80 32.5zM371 -124.999c24.667 12 37.001 28.332 37.001 48.999c0 32 -28.333 48 -85 48h-104c-26.667 0 -48.334 -4.66699 -65.001 -14s-25 -22.666 -25 -39.999c0 -19.333 12.167 -34.333 36.5 -45
s59.166 -16 104.499 -16c42.667 0 76.334 6 101.001 18zM198.001 700h101l115 -112h-95l-70 63l-71 -63h-95z" />
    <glyph glyph-name="Gbreve" unicode="&#x11e;" horiz-adv-x="725" 
d="M225 38c-56 30.667 -100.164 73.3311 -132.497 127.998s-48.5 116.334 -48.5 185.001c0 67.333 17 128.333 51 183s80.167 97.667 138.5 129s122.166 47 191.499 47c48.667 0 91.167 -5.5 127.5 -16.5s69.833 -27.5 100.5 -49.5v-117h-1
c-29.333 32.667 -62.333 57.667 -99 75s-79.334 26 -128.001 26c-51.333 0 -98.666 -12.333 -141.999 -37s-77.666 -58.167 -102.999 -100.5s-38 -88.833 -38 -139.5c0 -52 11.833 -99 35.5 -141s56.334 -75 98.001 -99s88.5 -36 140.5 -36c26.667 0 53.667 2.5 81 7.5
s51.666 11.833 72.999 20.5v101c0 19.333 -0.333008 36.5 -1 51.5s-1.33398 27.5 -2.00098 37.5c-1.33301 12 -2 21 -2 27h101c0 -9.33301 -0.666992 -24.666 -2 -45.999c-1.33301 -29.333 -2 -52 -2 -68v-81c0 -16 0.666992 -40.667 2 -74c1.33301 -22.667 2 -39.667 2 -51
c-20 0 -39.667 1 -59 3c-22.667 1.33301 -39.334 2 -50.001 2c-7.33301 0 -16.833 -0.666992 -28.5 -2s-20.834 -2.33301 -27.501 -3c-34.667 -5.33301 -64 -8 -88 -8c-69.333 0 -132 15.333 -188 46zM320.003 807.497c-27.333 22.333 -43 53.166 -47 92.499h75
c3.33301 -18 11.5 -32.167 24.5 -42.5s30.5 -15.5 52.5 -15.5s39.5 5.16699 52.5 15.5s21.167 24.5 24.5 42.5h75c-4 -39.333 -19.667 -70.166 -47 -92.499s-62.333 -33.5 -105 -33.5s-77.667 11.167 -105 33.5z" />
    <glyph glyph-name="gbreve" unicode="&#x11f;" horiz-adv-x="513" 
d="M101.5 -176.5c-40.333 21 -60.5 50.501 -60.5 88.501c0 34 20.667 59.333 62 76v1c-38 19.333 -57 47.666 -57 84.999c0 22.667 6.66699 42.167 20 58.5s33 28.5 59 36.5v1c-22.667 18.667 -40.167 40.667 -52.5 66s-18.5 52.666 -18.5 81.999
c0 34.667 8.66699 66.5 26 95.5s41 52 71 69s62.667 25.5 98 25.5c14.667 0 28.5 -1.33301 41.5 -4s28.833 -6.66699 47.5 -12c24.667 -7.33301 41.667 -11 51 -11c38 0 70.333 11.667 97 35h1v-83c-12.667 -8 -31 -12 -55 -12c-10.667 0 -21 1.33301 -31 4v-4
c28.667 -27.333 43 -61.666 43 -102.999c0 -35.333 -8.66699 -67.5 -26 -96.5s-41 -52 -71 -69s-62.667 -25.5 -98 -25.5h-59c-18 0 -33.333 -3.5 -46 -10.5s-19 -16.5 -19 -28.5c0 -20.667 17 -31 51 -31h168c44 0 80.5 -10.5 109.5 -31.5s43.5 -49.167 43.5 -84.5
c0 -48 -20.167 -84.833 -60.5 -110.5s-95.833 -38.5 -166.5 -38.5c-72 0 -128.167 10.5 -168.5 31.5zM329 235.501c22 21.667 33 49.167 33 82.5c0 32.667 -11 59.834 -33 81.501s-48.667 32.5 -80 32.5s-58 -10.833 -80 -32.5s-33 -48.834 -33 -81.501
c0 -33.333 11 -60.833 33 -82.5s48.667 -32.5 80 -32.5s58 10.833 80 32.5zM371 -124.999c24.667 12 37.001 28.332 37.001 48.999c0 32 -28.333 48 -85 48h-104c-26.667 0 -48.334 -4.66699 -65.001 -14s-25 -22.666 -25 -39.999c0 -19.333 12.167 -34.333 36.5 -45
s59.166 -16 104.499 -16c42.667 0 76.334 6 101.001 18zM144.001 607.5c-27.333 22.333 -43 53.166 -47 92.499h75c3.33301 -18 11.5 -32.167 24.5 -42.5s30.5 -15.5 52.5 -15.5s39.5 5.16699 52.5 15.5s21.167 24.5 24.5 42.5h75c-4 -39.333 -19.667 -70.166 -47 -92.499
s-62.333 -33.5 -105 -33.5s-77.667 11.167 -105 33.5z" />
    <glyph glyph-name="Gdotaccent" unicode="&#x120;" horiz-adv-x="725" 
d="M225 38c-56 30.667 -100.164 73.3311 -132.497 127.998s-48.5 116.334 -48.5 185.001c0 67.333 17 128.333 51 183s80.167 97.667 138.5 129s122.166 47 191.499 47c48.667 0 91.167 -5.5 127.5 -16.5s69.833 -27.5 100.5 -49.5v-117h-1
c-29.333 32.667 -62.333 57.667 -99 75s-79.334 26 -128.001 26c-51.333 0 -98.666 -12.333 -141.999 -37s-77.666 -58.167 -102.999 -100.5s-38 -88.833 -38 -139.5c0 -52 11.833 -99 35.5 -141s56.334 -75 98.001 -99s88.5 -36 140.5 -36c26.667 0 53.667 2.5 81 7.5
s51.666 11.833 72.999 20.5v101c0 19.333 -0.333008 36.5 -1 51.5s-1.33398 27.5 -2.00098 37.5c-1.33301 12 -2 21 -2 27h101c0 -9.33301 -0.666992 -24.666 -2 -45.999c-1.33301 -29.333 -2 -52 -2 -68v-81c0 -16 0.666992 -40.667 2 -74c1.33301 -22.667 2 -39.667 2 -51
c-20 0 -39.667 1 -59 3c-22.667 1.33301 -39.334 2 -50.001 2c-7.33301 0 -16.833 -0.666992 -28.5 -2s-20.834 -2.33301 -27.501 -3c-34.667 -5.33301 -64 -8 -88 -8c-69.333 0 -132 15.333 -188 46zM387.003 800.497c-10 9.66699 -15 22.167 -15 37.5c0 16 5 29 15 39
s22.667 15 38 15s28 -5 38 -15s15 -23 15 -39c0 -15.333 -5 -27.833 -15 -37.5s-22.667 -14.5 -38 -14.5s-28 4.83301 -38 14.5z" />
    <glyph glyph-name="gdotaccent" unicode="&#x121;" horiz-adv-x="513" 
d="M101.5 -176.5c-40.333 21 -60.5 50.501 -60.5 88.501c0 34 20.667 59.333 62 76v1c-38 19.333 -57 47.666 -57 84.999c0 22.667 6.66699 42.167 20 58.5s33 28.5 59 36.5v1c-22.667 18.667 -40.167 40.667 -52.5 66s-18.5 52.666 -18.5 81.999
c0 34.667 8.66699 66.5 26 95.5s41 52 71 69s62.667 25.5 98 25.5c14.667 0 28.5 -1.33301 41.5 -4s28.833 -6.66699 47.5 -12c24.667 -7.33301 41.667 -11 51 -11c38 0 70.333 11.667 97 35h1v-83c-12.667 -8 -31 -12 -55 -12c-10.667 0 -21 1.33301 -31 4v-4
c28.667 -27.333 43 -61.666 43 -102.999c0 -35.333 -8.66699 -67.5 -26 -96.5s-41 -52 -71 -69s-62.667 -25.5 -98 -25.5h-59c-18 0 -33.333 -3.5 -46 -10.5s-19 -16.5 -19 -28.5c0 -20.667 17 -31 51 -31h168c44 0 80.5 -10.5 109.5 -31.5s43.5 -49.167 43.5 -84.5
c0 -48 -20.167 -84.833 -60.5 -110.5s-95.833 -38.5 -166.5 -38.5c-72 0 -128.167 10.5 -168.5 31.5zM329 235.501c22 21.667 33 49.167 33 82.5c0 32.667 -11 59.834 -33 81.501s-48.667 32.5 -80 32.5s-58 -10.833 -80 -32.5s-33 -48.834 -33 -81.501
c0 -33.333 11 -60.833 33 -82.5s48.667 -32.5 80 -32.5s58 10.833 80 32.5zM371 -124.999c24.667 12 37.001 28.332 37.001 48.999c0 32 -28.333 48 -85 48h-104c-26.667 0 -48.334 -4.66699 -65.001 -14s-25 -22.666 -25 -39.999c0 -19.333 12.167 -34.333 36.5 -45
s59.166 -16 104.499 -16c42.667 0 76.334 6 101.001 18zM211.001 600.5c-10 9.66699 -15 22.167 -15 37.5c0 16 5 29 15 39s22.667 15 38 15s28 -5 38 -15s15 -23 15 -39c0 -15.333 -5 -27.833 -15 -37.5s-22.667 -14.5 -38 -14.5s-28 4.83301 -38 14.5z" />
    <glyph glyph-name="Gcommaaccent" unicode="&#x122;" horiz-adv-x="725" 
d="M225 38c-56 30.667 -100.164 73.3311 -132.497 127.998s-48.5 116.334 -48.5 185.001c0 67.333 17 128.333 51 183s80.167 97.667 138.5 129s122.166 47 191.499 47c48.667 0 91.167 -5.5 127.5 -16.5s69.833 -27.5 100.5 -49.5v-117h-1
c-29.333 32.667 -62.333 57.667 -99 75s-79.334 26 -128.001 26c-51.333 0 -98.666 -12.333 -141.999 -37s-77.666 -58.167 -102.999 -100.5s-38 -88.833 -38 -139.5c0 -52 11.833 -99 35.5 -141s56.334 -75 98.001 -99s88.5 -36 140.5 -36c26.667 0 53.667 2.5 81 7.5
s51.666 11.833 72.999 20.5v101c0 19.333 -0.333008 36.5 -1 51.5s-1.33398 27.5 -2.00098 37.5c-1.33301 12 -2 21 -2 27h101c0 -9.33301 -0.666992 -24.666 -2 -45.999c-1.33301 -29.333 -2 -52 -2 -68v-81c0 -16 0.666992 -40.667 2 -74c1.33301 -22.667 2 -39.667 2 -51
c-20 0 -39.667 1 -59 3c-22.667 1.33301 -39.334 2 -50.001 2c-7.33301 0 -16.833 -0.666992 -28.5 -2s-20.834 -2.33301 -27.501 -3c-34.667 -5.33301 -64 -8 -88 -8c-69.333 0 -132 15.333 -188 46zM378.003 -54.0029h105l-72 -146h-81z" />
    <glyph glyph-name="gcommaaccent" unicode="&#x123;" horiz-adv-x="513" 
d="M101.5 -176.5c-40.333 21 -60.5 50.501 -60.5 88.501c0 34 20.667 59.333 62 76v1c-38 19.333 -57 47.666 -57 84.999c0 22.667 6.66699 42.167 20 58.5s33 28.5 59 36.5v1c-22.667 18.667 -40.167 40.667 -52.5 66s-18.5 52.666 -18.5 81.999
c0 34.667 8.66699 66.5 26 95.5s41 52 71 69s62.667 25.5 98 25.5c14.667 0 28.5 -1.33301 41.5 -4s28.833 -6.66699 47.5 -12c24.667 -7.33301 41.667 -11 51 -11c38 0 70.333 11.667 97 35h1v-83c-12.667 -8 -31 -12 -55 -12c-10.667 0 -21 1.33301 -31 4v-4
c28.667 -27.333 43 -61.666 43 -102.999c0 -35.333 -8.66699 -67.5 -26 -96.5s-41 -52 -71 -69s-62.667 -25.5 -98 -25.5h-59c-18 0 -33.333 -3.5 -46 -10.5s-19 -16.5 -19 -28.5c0 -20.667 17 -31 51 -31h168c44 0 80.5 -10.5 109.5 -31.5s43.5 -49.167 43.5 -84.5
c0 -48 -20.167 -84.833 -60.5 -110.5s-95.833 -38.5 -166.5 -38.5c-72 0 -128.167 10.5 -168.5 31.5zM329 235.501c22 21.667 33 49.167 33 82.5c0 32.667 -11 59.834 -33 81.501s-48.667 32.5 -80 32.5s-58 -10.833 -80 -32.5s-33 -48.834 -33 -81.501
c0 -33.333 11 -60.833 33 -82.5s48.667 -32.5 80 -32.5s58 10.833 80 32.5zM371 -124.999c24.667 12 37.001 28.332 37.001 48.999c0 32 -28.333 48 -85 48h-104c-26.667 0 -48.334 -4.66699 -65.001 -14s-25 -22.666 -25 -39.999c0 -19.333 12.167 -34.333 36.5 -45
s59.166 -16 104.499 -16c42.667 0 76.334 6 101.001 18zM263.001 734h81l-48 -146h-105z" />
    <glyph glyph-name="Hcircumflex" unicode="&#x124;" horiz-adv-x="720" 
d="M83 119v461.999c0 44.667 -1.33301 84.334 -4 119.001h103c-3.33301 -43.333 -5 -83 -5 -119v-187h365v187c0 44.667 -1.33301 84.334 -4 119.001h103c-2.66699 -34.667 -4 -74.334 -4 -119.001v-462c0 -43.333 1.33301 -83 4 -119h-103c2.66699 36 4 75.667 4 119v192
h-365v-192c0 -34 1.66699 -73.667 5 -119h-103c2.66699 36 4 75.667 4 119zM309 899.999h101l115 -112h-95l-70 63l-71 -63h-95z" />
    <glyph glyph-name="hcircumflex" unicode="&#x125;" horiz-adv-x="557" 
d="M67 25c2 54 2.99902 85.335 2.99902 94.002v513c0 44.667 -1.33301 84.334 -4 119.001h100c-2.66699 -34.667 -4 -74.334 -4 -119.001v-182h1c14.667 16.667 33.334 30.5 56.001 41.5s48 16.5 76 16.5c38.667 0 73 -7.83301 103 -23.5s53.167 -37.334 69.5 -65.001
s24.5 -58.834 24.5 -93.501v-207c0 -43.333 1.33301 -83 4 -119h-100c2.66699 36 4 75.667 4 119v179c0 42 -11.333 74.167 -34 96.5s-50.667 33.5 -84 33.5c-32 0 -60 -10.167 -84 -30.5s-36 -47.833 -36 -82.5v-196c0 -61.333 0.666992 -101 2 -119h-98zM228.999 951.002
h101l115 -112h-95l-70 63l-71 -63h-95z" />
    <glyph glyph-name="Hbar" unicode="&#x126;" horiz-adv-x="748" 
d="M651 508v-389c0 -43.333 1.33301 -83 4 -119h-103c2.66699 36 4 75.667 4 119v192h-365v-192c0 -34 1.66699 -73.667 5 -119h-103c2.66699 36 4 75.667 4 119v389c-13.333 0 -37 -1 -71 -3v87l71 -3c0 40.667 -1.33301 77.667 -4 111h103
c-3.33301 -41.333 -5 -78.333 -5 -111h365c0 40.667 -1.33301 77.667 -4 111h103c-2.66699 -33.333 -4 -70.333 -4 -111l71 3v-87c-34 2 -57.667 3 -71 3zM556 394v115h-365v-115h365z" />
    <glyph glyph-name="hbar" unicode="&#x127;" horiz-adv-x="557" 
d="M400 119l-0.00390625 179.002c0 42 -11.333 74.167 -34 96.5s-50.667 33.5 -84 33.5c-32 0 -60 -10.167 -84 -30.5s-36 -47.833 -36 -82.5v-196c0 -61.333 0.666992 -101 2 -119h-98l1 25c2 54 3 85.333 3 94v467c-12 0 -35 -1 -69 -3v84l69 -3
c-1.33301 43.333 -2.66602 72.333 -3.99902 87h100c-1.33301 -14.667 -2.66602 -43.667 -3.99902 -87h36c52.667 0 91.334 1 116.001 3v-84c-33.333 2.66699 -72 4 -116 4h-36v-137h1c14.667 16.667 33.334 30.5 56.001 41.5s48 16.5 76 16.5
c38.667 0 73 -7.83301 103 -23.5s53.167 -37.334 69.5 -65.001s24.5 -58.834 24.5 -93.501v-207c0 -43.333 1.33301 -83 4 -119h-100c2.66699 36 4 75.667 4 119z" />
    <glyph glyph-name="Itilde" unicode="&#x128;" horiz-adv-x="261" 
d="M83 119v462c0 44.667 -1.33301 84.334 -4 119.001h103c-2.66699 -34.667 -4 -74.334 -4 -119.001v-462c0 -43.333 1.33301 -83 4 -119h-103c2.66699 36 4 75.667 4 119zM137 808l-15.999 10.999c-3.33301 2.66699 -8.66602 6.33398 -15.999 11.001
s-13.333 8.16699 -18 10.5s-9.33398 3.5 -14.001 3.5c-12 0 -20.167 -4 -24.5 -12s-6.83301 -18.667 -7.5 -32h-73c4.66699 34 15.5 61.333 32.5 82s39.833 31 68.5 31c20 0 38.667 -6 56 -18l16 -11c13.333 -9.33301 23.166 -15.833 29.499 -19.5s12.5 -5.5 18.5 -5.5
c12 0 20.167 4 24.5 12s6.83301 18.667 7.5 32h73c-4.66699 -34 -15.5 -61.333 -32.5 -82s-39.833 -31 -68.5 -31c-20 0 -38.667 6 -56 18z" />
    <glyph glyph-name="itilde" unicode="&#x129;" horiz-adv-x="232" 
d="M67 25c2 54 3 85.334 3 94.001v262c0 12 -1 44 -3 96l-1 23h100c-2.66699 -34.667 -4 -74.334 -4 -119.001v-262c0 -43.333 1.33301 -83 4 -119h-100zM122 608.001l-15.999 10.999c-3.33301 2.66699 -8.66602 6.33398 -15.999 11.001s-13.333 8.16699 -18 10.5
s-9.33398 3.5 -14.001 3.5c-12 0 -20.167 -4 -24.5 -12s-6.83301 -18.667 -7.5 -32h-73c4.66699 34 15.5 61.333 32.5 82s39.833 31 68.5 31c20 0 38.667 -6 56 -18l16 -11c13.333 -9.33301 23.166 -15.833 29.499 -19.5s12.5 -5.5 18.5 -5.5c12 0 20.167 4 24.5 12
s6.83301 18.667 7.5 32h73c-4.66699 -34 -15.5 -61.333 -32.5 -82s-39.833 -31 -68.5 -31c-20 0 -38.667 6 -56 18z" />
    <glyph glyph-name="Imacron" unicode="&#x12a;" horiz-adv-x="261" 
d="M83 119v462c0 44.667 -1.33301 84.334 -4 119.001h103c-2.66699 -34.667 -4 -74.334 -4 -119.001v-462c0 -43.333 1.33301 -83 4 -119h-103c2.66699 36 4 75.667 4 119zM-7 876h276v-74h-276v74z" />
    <glyph glyph-name="imacron" unicode="&#x12b;" horiz-adv-x="232" 
d="M67 25c2 54 3 85.334 3 94.001v262c0 12 -1 44 -3 96l-1 23h100c-2.66699 -34.667 -4 -74.334 -4 -119.001v-262c0 -43.333 1.33301 -83 4 -119h-100zM-22 676.001h276v-74h-276v74z" />
    <glyph glyph-name="Iogonek" unicode="&#x12e;" horiz-adv-x="261" 
d="M178 119c0 -43.333 1.33301 -82.999 4 -118.999h-3c-26 -15.333 -45.833 -29.333 -59.5 -42s-20.5 -28 -20.5 -46c0 -10.667 3.16699 -19 9.5 -25s14.833 -9 25.5 -9c12.667 0 25 3.33301 37 10h1v-73c-19.333 -6 -38 -9 -56 -9c-30 0 -54.5 8.16699 -73.5 24.5
s-28.5 38.166 -28.5 65.499c0 39.333 21.667 74 65 104c2.66699 36 4 75.667 4 119v462c0 44.667 -1.33301 84.334 -4 119.001h103c-2.66699 -34.667 -4 -74.334 -4 -119.001v-462z" />
    <glyph glyph-name="iogonek" unicode="&#x12f;" horiz-adv-x="232" 
d="M78 600.5c-10 9.66699 -15 22.167 -15 37.5c0 16 5 29 15 39s22.667 15 38 15s28 -5 38 -15s15 -23 15 -39c0 -15.333 -5 -27.833 -15 -37.5s-22.667 -14.5 -38 -14.5s-28 4.83301 -38 14.5zM162 381v-261.998c0 -43.333 1.33301 -83 4 -119
c-26 -15.333 -45.833 -29.333 -59.5 -42s-20.5 -28 -20.5 -46c0 -10.667 3.16699 -19 9.5 -25s14.833 -9 25.5 -9c12.667 0 25 3.33301 37 10h1v-73c-19.333 -6 -38 -9 -56 -9c-30 0 -54.5 8.16699 -73.5 24.5s-28.5 38.166 -28.5 65.499c0 39.333 21.667 74 65 104l1 25
c2 54 3 85.333 3 94v262c0 12 -1 44 -3 96l-1 23h100c-2.66699 -34.667 -4 -74.334 -4 -119.001z" />
    <glyph glyph-name="Idotaccent" unicode="&#x130;" horiz-adv-x="261" 
d="M83 119v462c0 44.667 -1.33301 84.334 -4 119.001h103c-2.66699 -34.667 -4 -74.334 -4 -119.001v-462c0 -43.333 1.33301 -83 4 -119h-103c2.66699 36 4 75.667 4 119zM93 800.5c-10 9.66699 -15 22.167 -15 37.5c0 16 5 29 15 39s22.667 15 38 15s28 -5 38 -15
s15 -23 15 -39c0 -15.333 -5 -27.833 -15 -37.5s-22.667 -14.5 -38 -14.5s-28 4.83301 -38 14.5z" />
    <glyph glyph-name="dotlessi" unicode="&#x131;" horiz-adv-x="232" 
d="M67 25c2 54 3 85.334 3 94.001v262c0 12 -1 44 -3 96l-1 23h100c-2.66699 -34.667 -4 -74.334 -4 -119.001v-262c0 -43.333 1.33301 -83 4 -119h-100z" />
    <glyph glyph-name="Jcircumflex" unicode="&#x134;" horiz-adv-x="455" 
d="M99 6c-27.333 10 -50.998 24.999 -70.998 44.999v133h2c24 -34.667 47.667 -61.667 71 -81s50 -29 80 -29c30.667 0 54.667 10.5 72 31.5s26 49.833 26 86.5v390c0 14.667 -0.666992 38 -2 70c-1.33301 21.333 -2 37.333 -2 48h105l-2 -31
c-0.666992 -10 -1.33398 -22.167 -2.00098 -36.5s-1 -31.166 -1 -50.499v-406c0 -60.667 -17.333 -106.667 -52 -138s-81.334 -47 -140.001 -47c-28.667 0 -56.667 5 -84 15zM276.002 899.999h101l115 -112h-95l-70 63l-71 -63h-95z" />
    <glyph glyph-name="jcircumflex" unicode="&#x135;" horiz-adv-x="240" 
d="M-43 -202c-14.667 4 -27 9.33203 -37 15.999v90h2c24.667 -19.333 50.667 -29 78 -29c26 0 45.5 8.33301 58.5 25s19.5 40.334 19.5 71.001v410c0 44.667 -1.33301 84.334 -4 119.001h100c-2.66699 -34.667 -4 -74.334 -4 -119.001v-426c0 -54 -14.333 -94.667 -43 -122
s-70 -41 -124 -41c-16 0 -31.333 2 -46 6zM73 699.999h101l115 -112h-95l-70 63l-71 -63h-95z" />
    <glyph glyph-name="Kcommaaccent" unicode="&#x136;" horiz-adv-x="586" 
d="M83 119v462c0 44.667 -1.33301 84.334 -4 119.001h104c-2.66699 -34.667 -4 -74.334 -4 -119.001v-462c0 -43.333 1.33301 -83 4 -119h-104c2.66699 36 4 75.667 4 119zM411 70l-228 279l228 281l52 70h115l-283 -351l291 -349h-123zM248 -54h105l-72 -146h-81z" />
    <glyph glyph-name="kcommaaccent" unicode="&#x137;" horiz-adv-x="480" 
d="M70 119l-0.000976562 513.001c0 44.667 -1.33301 84.334 -4 119.001h100c-2.66699 -34.667 -4 -74.334 -4 -119.001v-356l142 163c16.667 20 32.334 40.333 47.001 61h116l-202 -229l216 -271h-117l-16 24c-2.66699 3.33301 -6.5 8.66602 -11.5 15.999
s-10.167 14.333 -15.5 21l-159 200v-142c0 -43.333 1.33301 -83 4 -119h-100c2.66699 36 4 75.667 4 119zM216.999 -53.999h105l-72 -146h-81z" />
    <glyph glyph-name="kgreenlandic" unicode="&#x138;" horiz-adv-x="480" 
d="M70 119l-0.000976562 262.001c0 44.667 -1.33301 84.334 -4 119.001h100c-2.66699 -34.667 -4 -74.334 -4 -119.001v-105l142 163c16.667 20 32.334 40.333 47.001 61h116l-202 -229l216 -271h-117l-16 24c-2.66699 3.33301 -6.5 8.66602 -11.5 15.999
s-10.167 14.333 -15.5 21l-159 200v-142c0 -43.333 1.33301 -83 4 -119h-100c2.66699 36 4 75.667 4 119z" />
    <glyph glyph-name="Lacute" unicode="&#x139;" horiz-adv-x="536" 
d="M83 119v462c0 44.667 -1.33301 84.334 -4 119.001h104c-2.66699 -34.667 -4 -74.334 -4 -119.001v-460c0 -17.333 0.333008 -30 1 -38h247c20.667 0 40 0.666992 58 2s29.667 2.33301 35 3l-2 -88h-439c2.66699 36 4 75.667 4 119zM164 900h134l-131 -112h-88z" />
    <glyph glyph-name="lacute" unicode="&#x13a;" horiz-adv-x="232" 
d="M70 119v513c0 44.667 -1.33301 84.334 -4 119.001h100c-2.66699 -34.667 -4 -74.334 -4 -119.001v-513c0 -43.333 1.33301 -83 4 -119h-100c2.66699 36 4 75.667 4 119zM149 951h134l-131 -112h-88z" />
    <glyph glyph-name="Lcommaaccent" unicode="&#x13b;" horiz-adv-x="536" 
d="M83 119v462c0 44.667 -1.33301 84.334 -4 119.001h104c-2.66699 -34.667 -4 -74.334 -4 -119.001v-460c0 -17.333 0.333008 -30 1 -38h247c20.667 0 40 0.666992 58 2s29.667 2.33301 35 3l-2 -88h-439c2.66699 36 4 75.667 4 119zM256 -54h105l-72 -146h-81z" />
    <glyph glyph-name="lcommaaccent" unicode="&#x13c;" horiz-adv-x="232" 
d="M70 119v513c0 44.667 -1.33301 84.334 -4 119.001h100c-2.66699 -34.667 -4 -74.334 -4 -119.001v-513c0 -43.333 1.33301 -83 4 -119h-100c2.66699 36 4 75.667 4 119zM69 -54h105l-72 -146h-81z" />
    <glyph glyph-name="Lcaron" unicode="&#x13d;" horiz-adv-x="537" 
d="M83 119v462c0 44.667 -1.33301 84.334 -4 119.001h104c-2.66699 -34.667 -4 -74.334 -4 -119.001v-460c0 -17.333 0.333008 -30 1 -38h247c20.667 0 40 0.666992 58 2s29.667 2.33301 35 3l-2 -88h-439c2.66699 36 4 75.667 4 119zM319 700h105l-72 -146h-81z" />
    <glyph glyph-name="lcaron" unicode="&#x13e;" horiz-adv-x="246" 
d="M70 119v513c0 44.667 -1.33301 84.334 -4 119.001h100c-2.66699 -34.667 -4 -74.334 -4 -119.001v-513c0 -43.333 1.33301 -83 4 -119h-100c2.66699 36 4 75.667 4 119zM262 751h105l-72 -146h-81z" />
    <glyph glyph-name="Ldot" unicode="&#x13f;" horiz-adv-x="539" 
d="M83 119v462c0 44.667 -1.33301 84.334 -4 119.001h104c-2.66699 -34.667 -4 -74.334 -4 -119.001v-460c0 -17.333 0.333008 -30 1 -38h247c20.667 0 40 0.666992 58 2s29.667 2.33301 35 3l-2 -88h-439c2.66699 36 4 75.667 4 119zM373 317c-10.667 10.667 -16 24 -16 40
c0 16.667 5.33301 30.334 16 41.001s24.334 16 41.001 16s30.5 -5.33301 41.5 -16s16.5 -24.334 16.5 -41.001c0 -16 -5.5 -29.333 -16.5 -40s-24.833 -16 -41.5 -16s-30.334 5.33301 -41.001 16z" />
    <glyph glyph-name="ldot" unicode="&#x140;" horiz-adv-x="339" 
d="M70 119v513c0 44.667 -1.33301 84.334 -4 119.001h100c-2.66699 -34.667 -4 -74.334 -4 -119.001v-513c0 -43.333 1.33301 -83 4 -119h-100c2.66699 36 4 75.667 4 119zM250 257c-10.667 10.667 -16 24 -16 40c0 16.667 5.33301 30.334 16 41.001s24.334 16 41.001 16
s30.5 -5.33301 41.5 -16s16.5 -24.334 16.5 -41.001c0 -16 -5.5 -29.333 -16.5 -40s-24.833 -16 -41.5 -16s-30.334 5.33301 -41.001 16z" />
    <glyph glyph-name="Lslash" unicode="&#x141;" horiz-adv-x="563" 
d="M511 85c18 1.33301 29.667 2.33301 35 3l-2 -88h-439c2.66699 36 4 75.667 4 119v124l-68 -44v100l68 44v238c0 44.667 -1.33301 84.334 -4 119.001h104c-2.66699 -34.667 -4 -74.334 -4 -119.001v-176l188 121v-100l-188 -121v-184c0 -17.333 0.333008 -30 1 -38h247
c20.667 0 40 0.666992 58 2z" />
    <glyph glyph-name="lslash" unicode="&#x142;" horiz-adv-x="331" 
d="M214 364v-245c0 -43.333 1.33301 -83 4 -119h-100c2.66699 36 4 75.667 4 119v182l-87 -61v87l87 61v244c0 44.667 -1.33301 84.334 -4 119.001h100c-2.66699 -34.667 -4 -74.334 -4 -119.001v-181l87 61v-87z" />
    <glyph glyph-name="Nacute" unicode="&#x143;" horiz-adv-x="739" 
d="M82 48c1.33301 32 2 55.667 2 71v528c0 11.333 -4.66699 29 -14 53h96l405 -539h1v421c0 14.667 -0.666992 38 -2 70c-1.33301 21.333 -2 37.333 -2 48h92c0 -10.667 -0.666992 -26.667 -2 -48c-1.33301 -32 -2 -55.333 -2 -70v-463c0 -15.333 0.666992 -39 2 -71
c1.33301 -21.333 2 -37.333 2 -48h-84l-407 545h-1v-426c0 -33.333 1 -73 3 -119h-91c0 10.667 0.666992 26.667 2 48zM398 900h134l-131 -112h-88z" />
    <glyph glyph-name="nacute" unicode="&#x144;" horiz-adv-x="557" 
d="M67 25c2 54 3 85.335 3 94.002v262c0 12 -1 44 -3 96l-1 23h82l6 -59h1c14.667 21.333 35 37.833 61 49.5s52.333 17.5 79 17.5c38.667 0 73 -7.83301 103 -23.5s53.167 -37.334 69.5 -65.001s24.5 -58.834 24.5 -93.501v-207c0 -43.333 1.33301 -83 4 -119h-100
c2.66699 36 4 75.667 4 119v179c0 42 -11.333 74.167 -34 96.5s-50.667 33.5 -84 33.5c-32 0 -60 -10.833 -84 -32.5s-36 -50.5 -36 -86.5v-190c0 -43.333 1.33301 -83 4 -119h-100zM311 700.002h134l-131 -112h-88z" />
    <glyph glyph-name="Ncommaaccent" unicode="&#x145;" horiz-adv-x="739" 
d="M82 48c1.33301 32 2 55.667 2 71v528c0 11.333 -4.66699 29 -14 53h96l405 -539h1v421c0 14.667 -0.666992 38 -2 70c-1.33301 21.333 -2 37.333 -2 48h92c0 -10.667 -0.666992 -26.667 -2 -48c-1.33301 -32 -2 -55.333 -2 -70v-463c0 -15.333 0.666992 -39 2 -71
c1.33301 -21.333 2 -37.333 2 -48h-84l-407 545h-1v-426c0 -33.333 1 -73 3 -119h-91c0 10.667 0.666992 26.667 2 48zM318 -54h105l-72 -146h-81z" />
    <glyph glyph-name="ncommaaccent" unicode="&#x146;" horiz-adv-x="557" 
d="M67 25c2 54 3 85.335 3 94.002v262c0 12 -1 44 -3 96l-1 23h82l6 -59h1c14.667 21.333 35 37.833 61 49.5s52.333 17.5 79 17.5c38.667 0 73 -7.83301 103 -23.5s53.167 -37.334 69.5 -65.001s24.5 -58.834 24.5 -93.501v-207c0 -43.333 1.33301 -83 4 -119h-100
c2.66699 36 4 75.667 4 119v179c0 42 -11.333 74.167 -34 96.5s-50.667 33.5 -84 33.5c-32 0 -60 -10.833 -84 -32.5s-36 -50.5 -36 -86.5v-190c0 -43.333 1.33301 -83 4 -119h-100zM231 -53.998h105l-72 -146h-81z" />
    <glyph glyph-name="Ncaron" unicode="&#x147;" horiz-adv-x="739" 
d="M82 48c1.33301 32 2 55.667 2 71v528c0 11.333 -4.66699 29 -14 53h96l405 -539h1v421c0 14.667 -0.666992 38 -2 70c-1.33301 21.333 -2 37.333 -2 48h92c0 -10.667 -0.666992 -26.667 -2 -48c-1.33301 -32 -2 -55.333 -2 -70v-463c0 -15.333 0.666992 -39 2 -71
c1.33301 -21.333 2 -37.333 2 -48h-84l-407 545h-1v-426c0 -33.333 1 -73 3 -119h-91c0 10.667 0.666992 26.667 2 48zM199 900h95l71 -63l70 63h95l-115 -112h-101z" />
    <glyph glyph-name="ncaron" unicode="&#x148;" horiz-adv-x="557" 
d="M67 25c2 54 3 85.335 3 94.002v262c0 12 -1 44 -3 96l-1 23h82l6 -59h1c14.667 21.333 35 37.833 61 49.5s52.333 17.5 79 17.5c38.667 0 73 -7.83301 103 -23.5s53.167 -37.334 69.5 -65.001s24.5 -58.834 24.5 -93.501v-207c0 -43.333 1.33301 -83 4 -119h-100
c2.66699 36 4 75.667 4 119v179c0 42 -11.333 74.167 -34 96.5s-50.667 33.5 -84 33.5c-32 0 -60 -10.833 -84 -32.5s-36 -50.5 -36 -86.5v-190c0 -43.333 1.33301 -83 4 -119h-100zM112 700.002h95l71 -63l70 63h95l-115 -112h-101z" />
    <glyph glyph-name="Eng" unicode="&#x14a;" horiz-adv-x="739" 
d="M421 -202.5c-16 3.66699 -33 9.16699 -51 16.5v108h2c14.667 -16 30.167 -27.833 46.5 -35.5s35.833 -11.5 58.5 -11.5c55.333 0 83 38.667 83 116v30l-392 525v-427c0 -33.333 1 -73 3 -119h-91c0 10.667 0.666992 26.667 2 48c1.33301 32 2 55.667 2 71v528
c0 11.333 -4.66699 29 -14 53h96l405 -539h1v421c0 14.667 -0.666992 38 -2 70c-1.33301 21.333 -2 37.333 -2 48h92c0 -10.667 -0.666992 -26.667 -2 -48c-1.33301 -32 -2 -55.333 -2 -70v-605c0 -61.333 -15.5 -107.5 -46.5 -138.5s-75.5 -46.5 -133.5 -46.5
c-20.667 0 -39 1.83301 -55 5.5z" />
    <glyph glyph-name="eng" unicode="&#x14b;" horiz-adv-x="557" 
d="M300 -206.5c-8 1 -14.999 2.50098 -20.999 4.50098v86h2c12 -6 25.667 -9 41 -9c29.333 0 49.666 7.83301 60.999 23.5s17 39.834 17 72.501v327c0 42 -11.333 74.167 -34 96.5s-50.667 33.5 -84 33.5c-32 0 -60 -10.833 -84 -32.5s-36 -50.5 -36 -86.5v-190
c0 -43.333 1.33301 -83 4 -119h-100l1 25c2 54 3 85.333 3 94v262c0 12 -1 44 -3 96l-1 23h82l6 -60h1c14.667 21.333 35 38 61 50s52.333 18 79 18c38.667 0 73 -7.83301 103 -23.5s53.167 -37.334 69.5 -65.001s24.5 -58.834 24.5 -93.501v-371
c0 -54 -14.333 -94.667 -43 -122s-70 -41 -124 -41c-8.66699 0 -17 0.5 -25 1.5z" />
    <glyph glyph-name="Omacron" unicode="&#x14c;" horiz-adv-x="809" 
d="M221.5 39.5c-55 31.667 -98.333 74.8301 -130 129.497s-47.5 115.334 -47.5 182.001s15.833 127.334 47.5 182.001s75 97.834 130 129.501s115.833 47.5 182.5 47.5c67.333 0 128.5 -15.667 183.5 -47s98.333 -74.5 130 -129.5s47.5 -115.833 47.5 -182.5
c0 -67.333 -15.833 -128.333 -47.5 -183s-75 -97.667 -130 -129s-116.167 -47 -183.5 -47c-66.667 0 -127.5 15.833 -182.5 47.5zM537 111.496c40 24.333 71.667 57.666 95 99.999s35 88.833 35 139.5s-11.667 97.167 -35 139.5s-55 75.666 -95 99.999
s-84.333 36.5 -133 36.5c-48 0 -92 -12.167 -132 -36.5s-71.667 -57.666 -95 -99.999s-35 -88.833 -35 -139.5s11.667 -97.167 35 -139.5s55 -75.666 95 -99.999s84 -36.5 132 -36.5c48.667 0 93 12.167 133 36.5zM266 875.996h276v-74h-276v74z" />
    <glyph glyph-name="omacron" unicode="&#x14d;" horiz-adv-x="596" 
d="M166.5 26c-39.667 22.667 -70.835 53.667 -93.502 93s-34 83 -34 131s11.333 91.667 34 131s53.834 70.333 93.501 93s83.5 34 131.5 34s91.833 -11.333 131.5 -34s70.834 -53.667 93.501 -93s34 -83 34 -131c0 -48.667 -11.333 -92.5 -34 -131.5
s-53.667 -69.833 -93 -92.5s-83.333 -34 -132 -34c-48 0 -91.833 11.333 -131.5 34zM382.999 96c25.333 16 45.333 37.5 60 64.5s22 56.833 22 89.5s-7.33301 62.5 -22 89.5s-34.667 48.5 -60 64.5s-53.666 24 -84.999 24s-59.666 -8 -84.999 -24s-45.333 -37.5 -60 -64.5
s-22 -56.833 -22 -89.5s7.33301 -62.5 22 -89.5s34.667 -48.5 60 -64.5s53.666 -24 84.999 -24s59.666 8 84.999 24zM159.999 676h276v-74h-276v74z" />
    <glyph glyph-name="Ohungarumlaut" unicode="&#x150;" horiz-adv-x="809" 
d="M221.5 39.5c-55 31.667 -98.333 74.8301 -130 129.497s-47.5 115.334 -47.5 182.001s15.833 127.334 47.5 182.001s75 97.834 130 129.501s115.833 47.5 182.5 47.5c67.333 0 128.5 -15.667 183.5 -47s98.333 -74.5 130 -129.5s47.5 -115.833 47.5 -182.5
c0 -67.333 -15.833 -128.333 -47.5 -183s-75 -97.667 -130 -129s-116.167 -47 -183.5 -47c-66.667 0 -127.5 15.833 -182.5 47.5zM537 111.496c40 24.333 71.667 57.666 95 99.999s35 88.833 35 139.5s-11.667 97.167 -35 139.5s-55 75.666 -95 99.999
s-84.333 36.5 -133 36.5c-48 0 -92 -12.167 -132 -36.5s-71.667 -57.666 -95 -99.999s-35 -88.833 -35 -139.5s11.667 -97.167 35 -139.5s55 -75.666 95 -99.999s84 -36.5 132 -36.5c48.667 0 93 12.167 133 36.5zM349 899.996h134l-131 -112h-88zM524 899.996h134
l-131 -112h-88z" />
    <glyph glyph-name="ohungarumlaut" unicode="&#x151;" horiz-adv-x="596" 
d="M166.5 26c-39.667 22.667 -70.835 53.667 -93.502 93s-34 83 -34 131s11.333 91.667 34 131s53.834 70.333 93.501 93s83.5 34 131.5 34s91.833 -11.333 131.5 -34s70.834 -53.667 93.501 -93s34 -83 34 -131c0 -48.667 -11.333 -92.5 -34 -131.5
s-53.667 -69.833 -93 -92.5s-83.333 -34 -132 -34c-48 0 -91.833 11.333 -131.5 34zM382.999 96c25.333 16 45.333 37.5 60 64.5s22 56.833 22 89.5s-7.33301 62.5 -22 89.5s-34.667 48.5 -60 64.5s-53.666 24 -84.999 24s-59.666 -8 -84.999 -24s-45.333 -37.5 -60 -64.5
s-22 -56.833 -22 -89.5s7.33301 -62.5 22 -89.5s34.667 -48.5 60 -64.5s53.666 -24 84.999 -24s59.666 8 84.999 24zM242.999 700h134l-131 -112h-88zM417.999 700h134l-131 -112h-88z" />
    <glyph glyph-name="OE" unicode="&#x152;" horiz-adv-x="1144" 
d="M221.5 39.5c-55 31.667 -98.333 74.8311 -130 129.498s-47.5 115.334 -47.5 182.001s15.833 127.334 47.5 182.001s75 97.834 130 129.501s115.833 47.5 182.5 47.5c51.333 0 99.5 -9.5 144.5 -28.5s84.167 -45.5 117.5 -79.5h1c-1.33301 49.333 -2.66602 82 -3.99902 98
h425l3 -86l-113 4h-214c-0.666992 -8 -1 -20.667 -1 -38v-186h182l113 4v-90l-114 4h-181v-191c0 -17.333 0.333008 -30 1 -38h219l113 4l-3 -87h-430c1.33301 15.333 2.66602 48.666 3.99902 99.999h-1c-33.333 -34 -72.5 -60.5 -117.5 -79.5s-93.167 -28.5 -144.5 -28.5
c-66.667 0 -127.5 15.833 -182.5 47.5zM537 111.497c40 24.333 71.667 57.666 95 99.999s35 88.833 35 139.5s-11.667 97.167 -35 139.5s-55 75.666 -95 99.999s-84.333 36.5 -133 36.5c-48 0 -92 -12.167 -132 -36.5s-71.667 -57.666 -95 -99.999s-35 -88.833 -35 -139.5
s11.667 -97.167 35 -139.5s55 -75.666 95 -99.999s84 -36.5 132 -36.5c48.667 0 93 12.167 133 36.5z" />
    <glyph glyph-name="oe" unicode="&#x153;" horiz-adv-x="980" 
d="M940 214l-384 -0.000976562c5.33301 -42.667 22.833 -76.834 52.5 -102.501s66.167 -38.5 109.5 -38.5c30.667 0 58 6 82 18s44 28.667 60 50l58 -65c-57.333 -56 -125 -84 -203 -84c-44 0 -83.833 9 -119.5 27s-64.5 43.667 -86.5 77h-1
c-24 -32.667 -54.167 -58.167 -90.5 -76.5s-76.166 -27.5 -119.499 -27.5c-48 0 -91.833 11.333 -131.5 34s-70.834 53.667 -93.501 93s-34 83 -34 131s11.333 91.667 34 131s53.834 70.333 93.501 93s83.5 34 131.5 34c44 0 84.167 -9.16699 120.5 -27.5
s66.166 -44.166 89.499 -77.499h1c22 32.667 50.333 58.334 85 77.001s72.667 28 114 28c43.333 0 82.833 -10.5 118.5 -31.5s64 -51 85 -90s31.5 -84.5 31.5 -136.5c0 -14.667 -1 -26.667 -3 -36zM853 289.999c-4.66699 44.667 -20.501 79.332 -47.501 103.999
s-59.5 37 -97.5 37c-40.667 0 -74.667 -13.167 -102 -39.5s-43.666 -60.166 -48.999 -101.499h296zM382.999 95.9971c25.333 16 45.333 37.5 60 64.5s22 56.833 22 89.5s-7.33301 62.5 -22 89.5s-34.667 48.5 -60 64.5s-53.666 24 -84.999 24s-59.666 -8 -84.999 -24
s-45.333 -37.5 -60 -64.5s-22 -56.833 -22 -89.5s7.33301 -62.5 22 -89.5s34.667 -48.5 60 -64.5s53.666 -24 84.999 -24s59.666 8 84.999 24z" />
    <glyph glyph-name="Racute" unicode="&#x154;" horiz-adv-x="592" 
d="M80 25c0.666992 8.66699 1.33105 19.5039 1.99805 32.5039s1 27.833 1 44.5v496c0 16.667 -0.333008 31.5 -1 44.5s-1.33398 23.833 -2.00098 32.5c-1.33301 10.667 -2 19 -2 25h203c40.667 0 77.834 -8.33301 111.501 -25s60.167 -40.334 79.5 -71.001
s29 -66.334 29 -107.001c0 -32 -7.16699 -61.833 -21.5 -89.5s-32.833 -50.334 -55.5 -68.001s-46 -28.834 -70 -33.501v-1c14 -5.33301 27 -14.166 39 -26.499s24.333 -28.5 37 -48.5l81 -129c12 -20 26 -40.333 42 -61l30 -39v-1h-123
c-20 39.333 -42.667 78.666 -68 117.999l-67 103c-25.333 40.667 -64.666 61 -117.999 61h-30v-180c0 -16.667 0.333008 -31.5 1 -44.5s1.33398 -23.833 2.00098 -32.5c1.33301 -10.667 2 -19 2 -25h-104c0 6 0.666992 14.333 2 25zM361.997 398.504
c27.333 22.333 41 55.167 41 98.5c0 34.667 -12.333 63.5 -37 86.5s-58 34.5 -100 34.5h-89v-246c15.333 -4.66699 39 -7 71 -7c48.667 0 86.667 11.167 114 33.5zM296.997 900.005h134l-131 -112h-88z" />
    <glyph glyph-name="racute" unicode="&#x155;" horiz-adv-x="371" 
d="M67 25c2 54 3 85.333 3 94v262c0 12 -1 44 -3 96l-1 23h82l6 -57h1c14 20.667 31.833 36.667 53.5 48s46.167 17 73.5 17c14.667 0 28.5 -1.5 41.5 -4.5s23.167 -6.83301 30.5 -11.5v-104h-2c-23.333 26 -51 39 -83 39s-57.833 -11.833 -77.5 -35.5
s-29.5 -55.5 -29.5 -95.5v-177c0 -43.333 1.33301 -83 4 -119h-100zM242 700h134l-131 -112h-88z" />
    <glyph glyph-name="Rcommaaccent" unicode="&#x156;" horiz-adv-x="592" 
d="M80 25c0.666992 8.66699 1.33105 19.5039 1.99805 32.5039s1 27.833 1 44.5v496c0 16.667 -0.333008 31.5 -1 44.5s-1.33398 23.833 -2.00098 32.5c-1.33301 10.667 -2 19 -2 25h203c40.667 0 77.834 -8.33301 111.501 -25s60.167 -40.334 79.5 -71.001
s29 -66.334 29 -107.001c0 -32 -7.16699 -61.833 -21.5 -89.5s-32.833 -50.334 -55.5 -68.001s-46 -28.834 -70 -33.501v-1c14 -5.33301 27 -14.166 39 -26.499s24.333 -28.5 37 -48.5l81 -129c12 -20 26 -40.333 42 -61l30 -39v-1h-123
c-20 39.333 -42.667 78.666 -68 117.999l-67 103c-25.333 40.667 -64.666 61 -117.999 61h-30v-180c0 -16.667 0.333008 -31.5 1 -44.5s1.33398 -23.833 2.00098 -32.5c1.33301 -10.667 2 -19 2 -25h-104c0 6 0.666992 14.333 2 25zM361.997 398.504
c27.333 22.333 41 55.167 41 98.5c0 34.667 -12.333 63.5 -37 86.5s-58 34.5 -100 34.5h-89v-246c15.333 -4.66699 39 -7 71 -7c48.667 0 86.667 11.167 114 33.5zM270.997 -53.9951h105l-72 -146h-81z" />
    <glyph glyph-name="rcommaaccent" unicode="&#x157;" horiz-adv-x="371" 
d="M67 25c2 54 3 85.333 3 94v262c0 12 -1 44 -3 96l-1 23h82l6 -57h1c14 20.667 31.833 36.667 53.5 48s46.167 17 73.5 17c14.667 0 28.5 -1.5 41.5 -4.5s23.167 -6.83301 30.5 -11.5v-104h-2c-23.333 26 -51 39 -83 39s-57.833 -11.833 -77.5 -35.5
s-29.5 -55.5 -29.5 -95.5v-177c0 -43.333 1.33301 -83 4 -119h-100zM69 -54h105l-72 -146h-81z" />
    <glyph glyph-name="Rcaron" unicode="&#x158;" horiz-adv-x="592" 
d="M80 25c0.666992 8.66699 1.33105 19.5039 1.99805 32.5039s1 27.833 1 44.5v496c0 16.667 -0.333008 31.5 -1 44.5s-1.33398 23.833 -2.00098 32.5c-1.33301 10.667 -2 19 -2 25h203c40.667 0 77.834 -8.33301 111.501 -25s60.167 -40.334 79.5 -71.001
s29 -66.334 29 -107.001c0 -32 -7.16699 -61.833 -21.5 -89.5s-32.833 -50.334 -55.5 -68.001s-46 -28.834 -70 -33.501v-1c14 -5.33301 27 -14.166 39 -26.499s24.333 -28.5 37 -48.5l81 -129c12 -20 26 -40.333 42 -61l30 -39v-1h-123
c-20 39.333 -42.667 78.666 -68 117.999l-67 103c-25.333 40.667 -64.666 61 -117.999 61h-30v-180c0 -16.667 0.333008 -31.5 1 -44.5s1.33398 -23.833 2.00098 -32.5c1.33301 -10.667 2 -19 2 -25h-104c0 6 0.666992 14.333 2 25zM361.997 398.504
c27.333 22.333 41 55.167 41 98.5c0 34.667 -12.333 63.5 -37 86.5s-58 34.5 -100 34.5h-89v-246c15.333 -4.66699 39 -7 71 -7c48.667 0 86.667 11.167 114 33.5zM97.9971 900.005h95l71 -63l70 63h95l-115 -112h-101z" />
    <glyph glyph-name="rcaron" unicode="&#x159;" horiz-adv-x="371" 
d="M67 25c2 54 3 85.333 3 94v262c0 12 -1 44 -3 96l-1 23h82l6 -57h1c14 20.667 31.833 36.667 53.5 48s46.167 17 73.5 17c14.667 0 28.5 -1.5 41.5 -4.5s23.167 -6.83301 30.5 -11.5v-104h-2c-23.333 26 -51 39 -83 39s-57.833 -11.833 -77.5 -35.5
s-29.5 -55.5 -29.5 -95.5v-177c0 -43.333 1.33301 -83 4 -119h-100zM43 700h95l71 -63l70 63h95l-115 -112h-101z" />
    <glyph glyph-name="Sacute" unicode="&#x15a;" horiz-adv-x="542" 
d="M150 8c-36.667 10.667 -67.665 25.333 -92.998 44v125h1c28 -32 60.167 -57 96.5 -75s73.166 -27 110.499 -27c42 0 75.167 10.667 99.5 32s36.5 50 36.5 86c0 27.333 -8.16699 49.833 -24.5 67.5s-43.166 33.5 -80.499 47.5l-101 38
c-46.667 17.333 -81.834 39.666 -105.501 66.999s-35.5 63.333 -35.5 108c0 35.333 9.66699 67.333 29 96s46 51 80 67s72.667 24 116 24c38 0 73.833 -5.16699 107.5 -15.5s60.167 -23.833 79.5 -40.5v-124h-1c-22 28 -48.833 51.167 -80.5 69.5s-66.5 27.5 -104.5 27.5
c-38.667 0 -69.667 -9.16699 -93 -27.5s-35 -41.5 -35 -69.5c0 -25.333 7.83301 -45.666 23.5 -60.999s40.5 -29.333 74.5 -42l101 -38c51.333 -19.333 88.833 -44 112.5 -74s35.5 -68.333 35.5 -115c0 -62.667 -21.333 -112.667 -64 -150s-100 -56 -172 -56
c-38.667 0 -76.334 5.33301 -113.001 16zM308.002 899.999h134l-131 -112h-88z" />
    <glyph glyph-name="sacute" unicode="&#x15b;" horiz-adv-x="443" 
d="M130.5 3.5c-31 8.33301 -57.834 18.166 -80.501 29.499v107h2c20.667 -20.667 46.834 -37.834 78.501 -51.501s62.5 -20.5 92.5 -20.5c27.333 0 49.333 6.5 66 19.5s25 29.5 25 49.5c0 16.667 -5.16699 30.334 -15.5 41.001s-26.833 19.667 -49.5 27l-86 27
c-76.667 24.667 -115 68.667 -115 132c0 46.667 17.5 82.334 52.5 107.001s77.833 37 128.5 37c26.667 0 53.167 -3.5 79.5 -10.5s48.5 -15.833 66.5 -26.5v-103h-1c-19.333 19.333 -41.666 34.833 -66.999 46.5s-50.333 17.5 -75 17.5c-28.667 0 -51.334 -6 -68.001 -18
s-25 -27 -25 -45c0 -17.333 6.33301 -30.5 19 -39.5s30 -17.167 52 -24.5l79 -26c40.667 -13.333 70.167 -30.833 88.5 -52.5s27.5 -50.5 27.5 -86.5c0 -44.667 -16.833 -80.667 -50.5 -108s-78.5 -41 -134.5 -41c-28.667 0 -58.5 4.16699 -89.5 12.5zM257.999 700h134
l-131 -112h-88z" />
    <glyph glyph-name="Scedilla" unicode="&#x15e;" horiz-adv-x="542" 
d="M446.5 59c-35 -36 -83.1641 -57.667 -144.497 -65l-8 -30c40 -8.66699 60 -32.667 60 -72c0 -28.667 -8.66699 -50.667 -26 -66s-40.666 -23 -69.999 -23c-26.667 0 -48.334 4 -65.001 12v60h1c19.333 -10.667 38.666 -16 57.999 -16c11.333 0 20.333 2.83301 27 8.5
s10 13.5 10 23.5c0 8.66699 -3.5 15.5 -10.5 20.5s-16.5 7.5 -28.5 7.5c-8.66699 0 -16.334 -0.666992 -23.001 -2h-1l21 75c-36 1.33301 -70.667 7.33301 -104 18s-62 24.667 -86 42v125h1c28 -32 60.167 -57 96.5 -75s73.166 -27 110.499 -27c42 0 75.167 10.667 99.5 32
s36.5 50 36.5 86c0 27.333 -8.16699 49.833 -24.5 67.5s-43.166 33.5 -80.499 47.5l-101 38c-46.667 17.333 -81.834 39.666 -105.501 66.999s-35.5 63.333 -35.5 108c0 35.333 9.66699 67.333 29 96s46 51 80 67s72.667 24 116 24c38 0 73.833 -5.16699 107.5 -15.5
s60.167 -23.833 79.5 -40.5v-124h-1c-22 28 -48.833 51.167 -80.5 69.5s-66.5 27.5 -104.5 27.5c-38.667 0 -69.667 -9.16699 -93 -27.5s-35 -41.5 -35 -69.5c0 -25.333 7.83301 -45.666 23.5 -60.999s40.5 -29.333 74.5 -42l101 -38c51.333 -19.333 88.833 -44 112.5 -74
s35.5 -68.333 35.5 -115c0 -56.667 -17.5 -103 -52.5 -139z" />
    <glyph glyph-name="scedilla" unicode="&#x15f;" horiz-adv-x="443" 
d="M363.5 40.5c-27.667 -27 -64.832 -42.834 -111.499 -47.501l-8 -29c40 -8.66699 60 -32.667 60 -72c0 -28.667 -8.66699 -50.667 -26 -66s-40.666 -23 -69.999 -23c-26.667 0 -48.334 4 -65.001 12v60h1c19.333 -10.667 38.666 -16 57.999 -16
c11.333 0 20.333 2.83301 27 8.5s10 13.5 10 23.5c0 8.66699 -3.5 15.5 -10.5 20.5s-16.5 7.5 -28.5 7.5c-8.66699 0 -16.334 -0.666992 -23.001 -2h-1l21 75c-26 2 -52 6.83301 -78 14.5s-49 16.5 -69 26.5v107h2c20.667 -20.667 46.834 -37.834 78.501 -51.501
s62.5 -20.5 92.5 -20.5c27.333 0 49.333 6.5 66 19.5s25 29.5 25 49.5c0 16.667 -5.16699 30.334 -15.5 41.001s-26.833 19.667 -49.5 27l-86 27c-76.667 24.667 -115 68.667 -115 132c0 46.667 17.5 82.334 52.5 107.001s77.833 37 128.5 37
c26.667 0 53.167 -3.5 79.5 -10.5s48.5 -15.833 66.5 -26.5v-103h-1c-19.333 19.333 -41.666 34.833 -66.999 46.5s-50.333 17.5 -75 17.5c-28.667 0 -51.334 -6 -68.001 -18s-25 -27 -25 -45c0 -17.333 6.33301 -30.5 19 -39.5s30 -17.167 52 -24.5l79 -26
c40.667 -13.333 70.167 -30.833 88.5 -52.5s27.5 -50.5 27.5 -86.5c0 -39.333 -13.833 -72.5 -41.5 -99.5z" />
    <glyph glyph-name="Scaron" unicode="&#x160;" horiz-adv-x="542" 
d="M150 8c-36.667 10.667 -67.665 25.333 -92.998 44v125h1c28 -32 60.167 -57 96.5 -75s73.166 -27 110.499 -27c42 0 75.167 10.667 99.5 32s36.5 50 36.5 86c0 27.333 -8.16699 49.833 -24.5 67.5s-43.166 33.5 -80.499 47.5l-101 38
c-46.667 17.333 -81.834 39.666 -105.501 66.999s-35.5 63.333 -35.5 108c0 35.333 9.66699 67.333 29 96s46 51 80 67s72.667 24 116 24c38 0 73.833 -5.16699 107.5 -15.5s60.167 -23.833 79.5 -40.5v-124h-1c-22 28 -48.833 51.167 -80.5 69.5s-66.5 27.5 -104.5 27.5
c-38.667 0 -69.667 -9.16699 -93 -27.5s-35 -41.5 -35 -69.5c0 -25.333 7.83301 -45.666 23.5 -60.999s40.5 -29.333 74.5 -42l101 -38c51.333 -19.333 88.833 -44 112.5 -74s35.5 -68.333 35.5 -115c0 -62.667 -21.333 -112.667 -64 -150s-100 -56 -172 -56
c-38.667 0 -76.334 5.33301 -113.001 16zM109.002 899.999h95l71 -63l70 63h95l-115 -112h-101z" />
    <glyph glyph-name="scaron" unicode="&#x161;" horiz-adv-x="443" 
d="M130.5 3.5c-31 8.33301 -57.834 18.166 -80.501 29.499v107h2c20.667 -20.667 46.834 -37.834 78.501 -51.501s62.5 -20.5 92.5 -20.5c27.333 0 49.333 6.5 66 19.5s25 29.5 25 49.5c0 16.667 -5.16699 30.334 -15.5 41.001s-26.833 19.667 -49.5 27l-86 27
c-76.667 24.667 -115 68.667 -115 132c0 46.667 17.5 82.334 52.5 107.001s77.833 37 128.5 37c26.667 0 53.167 -3.5 79.5 -10.5s48.5 -15.833 66.5 -26.5v-103h-1c-19.333 19.333 -41.666 34.833 -66.999 46.5s-50.333 17.5 -75 17.5c-28.667 0 -51.334 -6 -68.001 -18
s-25 -27 -25 -45c0 -17.333 6.33301 -30.5 19 -39.5s30 -17.167 52 -24.5l79 -26c40.667 -13.333 70.167 -30.833 88.5 -52.5s27.5 -50.5 27.5 -86.5c0 -44.667 -16.833 -80.667 -50.5 -108s-78.5 -41 -134.5 -41c-28.667 0 -58.5 4.16699 -89.5 12.5zM58.999 700h95l71 -63
l70 63h95l-115 -112h-101z" />
    <glyph glyph-name="Tcommaaccent" unicode="&#x162;" horiz-adv-x="562" 
d="M233 118v498.999h-103c-16 0 -38.667 -0.666992 -68 -2c-21.333 -1.33301 -36.666 -2 -45.999 -2v87h530v-87c-10.667 0 -26 0.666992 -46 2c-30.667 1.33301 -53.334 2 -68.001 2h-103v-499c0 -33.333 1.66699 -72.666 5 -117.999h-105c2.66699 36 4 75.333 4 118z
M199 -185.001l0.00195312 60h1c19.333 -10.667 38.666 -16 57.999 -16c11.333 0 20.333 2.83301 27 8.5s10 13.5 10 23.5c0 8.66699 -3.5 15.5 -10.5 20.5s-16.5 7.5 -28.5 7.5c-8.66699 0 -16.334 -0.666992 -23.001 -2h-1l23 83h55l-10 -36c40 -8.66699 60 -32.667 60 -72
c0 -28.667 -8.66699 -50.667 -26 -66s-40.666 -23 -69.999 -23c-26.667 0 -48.334 4 -65.001 12z" />
    <glyph glyph-name="tcommaaccent" unicode="&#x163;" horiz-adv-x="402" 
d="M201 422l0.000976562 -268c0 -54.667 26.333 -82 79 -82c18 0 35.833 4.33301 53.5 13s32.834 19.334 45.501 32.001h2v-96c-37.333 -18.667 -75 -28.334 -113 -29.001l-8 -28c40 -8.66699 60 -32.667 60 -72c0 -28.667 -8.66699 -50.667 -26 -66
s-40.666 -23 -69.999 -23c-26.667 0 -48.334 4 -65.001 12v60h1c19.333 -10.667 38.666 -16 57.999 -16c11.333 0 20.333 2.83301 27 8.5s10 13.5 10 23.5c0 8.66699 -3.5 15.5 -10.5 20.5s-16.5 7.5 -28.5 7.5c-8.66699 0 -16.334 -0.666992 -23.001 -2h-1l22 80
c-32 8 -57.5 24 -76.5 48s-28.5 55.333 -28.5 94v283h-8c-16 0 -44 -1 -84 -3v84c18.667 -2 47 -3 85 -3h7v51c0 43.333 -1.33301 83 -4 119h100c-2.66699 -36 -4 -75.667 -4 -119v-51h59c54.667 0 95 1 121 3v-85c-34.667 2.66699 -75 4 -121 4h-59z" />
    <glyph glyph-name="Tcaron" unicode="&#x164;" horiz-adv-x="562" 
d="M233 118v498.999h-103c-16 0 -38.667 -0.666992 -68 -2c-21.333 -1.33301 -36.666 -2 -45.999 -2v87h530v-87c-10.667 0 -26 0.666992 -46 2c-30.667 1.33301 -53.334 2 -68.001 2h-103v-499c0 -33.333 1.66699 -72.666 5 -117.999h-105c2.66699 36 4 75.333 4 118z
M115 899.999h95l71 -63l70 63h95l-115 -112h-101z" />
    <glyph glyph-name="tcaron" unicode="&#x165;" horiz-adv-x="402" 
d="M151.5 29.5c-28.333 25 -42.501 61.499 -42.501 109.499v283h-8c-16 0 -44 -1 -84 -3v84c18.667 -2 47 -3 85 -3h7v51c0 43.333 -1.33301 83 -4 119h100c-2.66699 -36 -4 -75.667 -4 -119v-51h59c54.667 0 95 1 121 3v-85c-34.667 2.66699 -75 4 -121 4h-59v-268
c0 -54.667 26.333 -82 79 -82c18 0 35.833 4.33301 53.5 13s32.834 19.334 45.501 32.001h2v-96c-40.667 -19.333 -80 -29 -118 -29c-46 0 -83.167 12.5 -111.5 37.5zM300.999 750.999h105l-72 -146h-81z" />
    <glyph glyph-name="Tbar" unicode="&#x166;" horiz-adv-x="584" 
d="M340 617l-0.000976562 -217.001h33c52 0 91 1 117 3v-87c-34.667 2.66699 -73.667 4 -117 4h-33v-202c0 -33.333 1.66699 -72.666 5 -117.999h-105c2.66699 36 4 75.333 4 118v202h-35c-44 0 -82.667 -1.33301 -116 -4v87c24.667 -2 63.334 -3 116.001 -3h35v217h-103
c-16 0 -38.667 -0.666992 -68 -2c-21.333 -1.33301 -36.666 -2 -45.999 -2v87h530v-87c-10.667 0 -26 0.666992 -46 2c-30.667 1.33301 -53.334 2 -68.001 2h-103z" />
    <glyph glyph-name="tbar" unicode="&#x167;" horiz-adv-x="416" 
d="M210 422l0.000976562 -110.002h63c52 0 91 1 117 3v-84c-34.667 2.66699 -73.667 4 -117 4h-63v-81c0 -54.667 26.333 -82 79 -82c18 0 35.833 4.33301 53.5 13s32.834 19.334 45.501 32.001h2v-96c-40.667 -19.333 -80 -29 -118 -29c-46 0 -83.167 12.5 -111.5 37.5
s-42.5 61.5 -42.5 109.5v96c-46.667 -1.33301 -77.334 -2.66602 -92.001 -3.99902v84c21.333 -2 52 -3 92 -3v110h-8c-16 0 -44 -1 -84 -3v84c19.333 -2 47.666 -3 84.999 -3h7v51c0 43.333 -1.33301 83 -4 119h100c-2.66699 -36 -4 -75.667 -4 -119v-51h59
c54.667 0 95 1 121 3v-85c-34.667 2.66699 -75 4 -121 4h-59z" />
    <glyph glyph-name="Umacron" unicode="&#x16a;" horiz-adv-x="709" 
d="M145.5 67.5c-46.333 50.333 -69.501 122.835 -69.501 217.502v296c0 36 -1.66699 75.667 -5 119h105c-2.66699 -34.667 -4 -74.334 -4 -119.001v-294c0 -70 14.5 -122.833 43.5 -158.5s74.5 -53.5 136.5 -53.5c60.667 0 106.667 18.5 138 55.5s47 89.167 47 156.5v294
c0 12 -1 44 -3 96l-1 23h104c-2.66699 -34.667 -4 -74.334 -4 -119.001v-296c0 -93.333 -24 -165.5 -72 -216.5s-117.667 -76.5 -209 -76.5s-160.166 25.167 -206.499 75.5zM215.999 876.002h276v-74h-276v74z" />
    <glyph glyph-name="umacron" unicode="&#x16b;" horiz-adv-x="548" 
d="M116 39.5c-34 31.667 -50.999 77.834 -50.999 138.501v203c0 8.66699 -1 40 -3 94l-1 25h100c-2.66699 -36 -4 -75.667 -4 -119v-182c0 -42.667 8.83301 -74.5 26.5 -95.5s45.167 -31.5 82.5 -31.5s66.666 10.333 87.999 31s32 52 32 94v184c0 43.333 -1.33301 83 -4 119
h100c-2.66699 -36 -4 -75.667 -4 -119v-262c0 -44.667 1.33301 -84.334 4 -119.001h-82l-6 57h-1c-9.33301 -17.333 -26.833 -32.5 -52.5 -45.5s-52.167 -19.5 -79.5 -19.5c-62.667 0 -111 15.833 -145 47.5zM133.001 676h276v-74h-276v74z" />
    <glyph glyph-name="Uring" unicode="&#x16e;" horiz-adv-x="709" 
d="M145.5 67.5c-46.333 50.333 -69.501 122.835 -69.501 217.502v296c0 36 -1.66699 75.667 -5 119h105c-2.66699 -34.667 -4 -74.334 -4 -119.001v-294c0 -70 14.5 -122.833 43.5 -158.5s74.5 -53.5 136.5 -53.5c60.667 0 106.667 18.5 138 55.5s47 89.167 47 156.5v294
c0 12 -1 44 -3 96l-1 23h104c-2.66699 -34.667 -4 -74.334 -4 -119.001v-296c0 -93.333 -24 -165.5 -72 -216.5s-117.667 -76.5 -209 -76.5s-160.166 25.167 -206.499 75.5zM282.499 770.502c-19.667 19.667 -29.5 43.167 -29.5 70.5s9.83301 50.833 29.5 70.5
s43.5 29.5 71.5 29.5c27.333 0 51 -9.83301 71 -29.5s30 -43.167 30 -70.5s-10 -50.833 -30 -70.5s-43.667 -29.5 -71 -29.5c-28 0 -51.833 9.83301 -71.5 29.5zM378.499 815.502c7 7 10.5 15.501 10.5 25.501s-3.5 18.5 -10.5 25.5s-15.167 10.5 -24.5 10.5
c-10 0 -18.333 -3.5 -25 -10.5s-10 -15.5 -10 -25.5c0 -10.667 3.33301 -19.334 10 -26.001s15 -10 25 -10c9.33301 0 17.5 3.5 24.5 10.5z" />
    <glyph glyph-name="uring" unicode="&#x16f;" horiz-adv-x="548" 
d="M116 39.5c-34 31.667 -50.999 77.834 -50.999 138.501v203c0 8.66699 -1 40 -3 94l-1 25h100c-2.66699 -36 -4 -75.667 -4 -119v-182c0 -42.667 8.83301 -74.5 26.5 -95.5s45.167 -31.5 82.5 -31.5s66.666 10.333 87.999 31s32 52 32 94v184c0 43.333 -1.33301 83 -4 119
h100c-2.66699 -36 -4 -75.667 -4 -119v-262c0 -44.667 1.33301 -84.334 4 -119.001h-82l-6 57h-1c-9.33301 -17.333 -26.833 -32.5 -52.5 -45.5s-52.167 -19.5 -79.5 -19.5c-62.667 0 -111 15.833 -145 47.5zM199.501 570.5c-19.667 19.667 -29.5 43.167 -29.5 70.5
s9.83301 50.833 29.5 70.5s43.5 29.5 71.5 29.5c27.333 0 51 -9.83301 71 -29.5s30 -43.167 30 -70.5s-10 -50.833 -30 -70.5s-43.667 -29.5 -71 -29.5c-28 0 -51.833 9.83301 -71.5 29.5zM295.501 615.5c7 7 10.5 15.501 10.5 25.501s-3.5 18.5 -10.5 25.5
s-15.167 10.5 -24.5 10.5c-10 0 -18.333 -3.5 -25 -10.5s-10 -15.5 -10 -25.5c0 -10.667 3.33301 -19.334 10 -26.001s15 -10 25 -10c9.33301 0 17.5 3.5 24.5 10.5z" />
    <glyph glyph-name="Uhungarumlaut" unicode="&#x170;" horiz-adv-x="709" 
d="M145.5 67.5c-46.333 50.333 -69.501 122.835 -69.501 217.502v296c0 36 -1.66699 75.667 -5 119h105c-2.66699 -34.667 -4 -74.334 -4 -119.001v-294c0 -70 14.5 -122.833 43.5 -158.5s74.5 -53.5 136.5 -53.5c60.667 0 106.667 18.5 138 55.5s47 89.167 47 156.5v294
c0 12 -1 44 -3 96l-1 23h104c-2.66699 -34.667 -4 -74.334 -4 -119.001v-296c0 -93.333 -24 -165.5 -72 -216.5s-117.667 -76.5 -209 -76.5s-160.166 25.167 -206.499 75.5zM298.999 900.002h134l-131 -112h-88zM473.999 900.002h134l-131 -112h-88z" />
    <glyph glyph-name="uhungarumlaut" unicode="&#x171;" horiz-adv-x="548" 
d="M116 39.5c-34 31.667 -50.999 77.834 -50.999 138.501v203c0 8.66699 -1 40 -3 94l-1 25h100c-2.66699 -36 -4 -75.667 -4 -119v-182c0 -42.667 8.83301 -74.5 26.5 -95.5s45.167 -31.5 82.5 -31.5s66.666 10.333 87.999 31s32 52 32 94v184c0 43.333 -1.33301 83 -4 119
h100c-2.66699 -36 -4 -75.667 -4 -119v-262c0 -44.667 1.33301 -84.334 4 -119.001h-82l-6 57h-1c-9.33301 -17.333 -26.833 -32.5 -52.5 -45.5s-52.167 -19.5 -79.5 -19.5c-62.667 0 -111 15.833 -145 47.5zM216.001 700h134l-131 -112h-88zM391.001 700h134l-131 -112h-88
z" />
    <glyph glyph-name="Uogonek" unicode="&#x172;" horiz-adv-x="709" 
d="M311.5 -169.5c-19 16.333 -28.501 38.168 -28.501 65.501c0 35.333 17.667 67 53 95v1c-86 2.66699 -150.833 29.167 -194.5 79.5s-65.5 121.5 -65.5 213.5v296c0 36 -1.66699 75.667 -5 119h105c-2.66699 -34.667 -4 -74.334 -4 -119.001v-294
c0 -70 14.5 -122.833 43.5 -158.5s74.5 -53.5 136.5 -53.5c60.667 0 106.667 18.5 138 55.5s47 89.167 47 156.5v294c0 12 -1 44 -3 96l-1 23h104c-2.66699 -34.667 -4 -74.334 -4 -119.001v-296c0 -73.333 -14.833 -133.833 -44.5 -181.5s-73.5 -80.167 -131.5 -97.5
c-25.333 -10 -46.5 -23.333 -63.5 -40s-25.5 -34 -25.5 -52c0 -11.333 3.33301 -20.166 10 -26.499s15.334 -9.5 26.001 -9.5c12 0 24 3.33301 36 10h1v-73c-19.333 -6 -38 -9 -56 -9c-30 0 -54.5 8.16699 -73.5 24.5z" />
    <glyph glyph-name="uogonek" unicode="&#x173;" horiz-adv-x="548" 
d="M422.5 -42c-13.667 -12.667 -20.499 -27.999 -20.499 -45.999c0 -10.667 3.16699 -19 9.5 -25s14.833 -9 25.5 -9c12.667 0 25 3.33301 37 10h1v-73c-19.333 -6 -38 -9 -56 -9c-30 0 -54.5 8.16699 -73.5 24.5s-28.5 38.166 -28.5 65.499
c0 24.667 7.83301 46.5 23.5 65.5s35.167 35.5 58.5 49.5l-5 46h-1c-9.33301 -17.333 -26.833 -32.5 -52.5 -45.5s-52.167 -19.5 -79.5 -19.5c-62.667 0 -111 15.833 -145 47.5s-51 77.834 -51 138.501v203c0 8.66699 -1 40 -3 94l-1 25h100
c-2.66699 -36 -4 -75.667 -4 -119v-182c0 -42.667 8.83301 -74.5 26.5 -95.5s45.167 -31.5 82.5 -31.5s66.666 10.333 87.999 31s32 52 32 94v184c0 43.333 -1.33301 83 -4 119h100c-2.66699 -36 -4 -75.667 -4 -119v-262c0 -44.667 1.33301 -84.334 4 -119.001
c-26 -15.333 -45.833 -29.333 -59.5 -42z" />
    <glyph glyph-name="Wcircumflex" unicode="&#x174;" horiz-adv-x="934" 
d="M258 46l-219.997 601c-8 22.667 -16.333 40.334 -25 53.001h101l199 -579h1l107 259l-106 268c-10.667 24.667 -19.334 42 -26.001 52h101l77 -216h1l83 216h102c-8.66699 -12.667 -17.334 -30 -26.001 -52l-114 -269l95 -258h1l218 579h102
c-8.66699 -12.667 -17.334 -30 -26.001 -52l-238 -601c-5.33301 -12.667 -10.666 -28.334 -15.999 -47.001h-77l-6 17.5c-2.66699 7.66699 -6.33398 17.5 -11.001 29.5l-88 229h-1l-99 -229c-7.33301 -16 -13 -31.667 -17 -47h-77c-1.33301 6.66699 -6.33301 22 -15 46z
M418.003 900h101l115 -112h-95l-70 63l-71 -63h-95z" />
    <glyph glyph-name="wcircumflex" unicode="&#x175;" horiz-adv-x="715" 
d="M151 13.5c-0.666992 7 -2.66699 16.167 -6 27.5l-106 405c-8 28.667 -16.333 46.334 -25 53.001v1h105c0 -8 2.66699 -23.333 8 -46l78 -339h1l99 339c4.66699 16.667 8 32 10 46h89c0 -4.66699 0.833008 -12 2.5 -22s3.5 -18 5.5 -24l101 -339h1l77 339
c4.66699 19.333 7.66699 34.666 9 45.999h102v-1c-10.667 -13.333 -19 -31 -25 -53l-107 -405c-4.66699 -17.333 -6.66699 -31 -6 -41h-98c0 1.33301 -0.5 5.83301 -1.5 13.5s-2.83301 16.834 -5.5 27.501l-101 353h-1l-101 -353c-4 -14.667 -6 -28.334 -6 -41.001h-98
c0 2 -0.333008 6.5 -1 13.5zM307 700h101l115 -112h-95l-70 63l-71 -63h-95z" />
    <glyph glyph-name="Ycircumflex" unicode="&#x176;" horiz-adv-x="622" 
d="M264 119l0.000976562 179l-215 352c-4.66699 8 -15 24.667 -31 50h105c11.333 -24 20.666 -42.333 27.999 -55l161 -267h1l161 266c13.333 21.333 23 40 29 56h101c-2 -3.33301 -5.66699 -9 -11 -17l-21 -33l-212 -352v-179c0 -43.333 1.33301 -83 4 -119h-104
c2.66699 36 4 75.667 4 119zM263.001 900h101l115 -112h-95l-70 63l-71 -63h-95z" />
    <glyph glyph-name="ycircumflex" unicode="&#x177;" horiz-adv-x="485" 
d="M103 -199c0.666992 1.33301 3.50098 5.5 8.50098 12.5s9.83301 17.167 14.5 30.5l75 196l-164 406c-8.66699 21.333 -18 39 -28 53v1h108c-0.666992 -2 -1 -5 -1 -9c0 -9.33301 3 -21.666 9 -36.999l122 -313h1l112 313c7.33301 20.667 10.333 36 9 46h107v-1
c-1.33301 -2 -5.33301 -8.33301 -12 -19s-12.334 -22 -17.001 -34l-231 -605c-3.33301 -8.66699 -5 -16.334 -5 -23.001c0 -6 1.33301 -11.667 4 -17v-1h-112v1zM191.001 700h101l115 -112h-95l-70 63l-71 -63h-95z" />
    <glyph glyph-name="Ydieresis" unicode="&#x178;" horiz-adv-x="622" 
d="M264 119l0.000976562 179l-215 352c-4.66699 8 -15 24.667 -31 50h105c11.333 -24 20.666 -42.333 27.999 -55l161 -267h1l161 266c13.333 21.333 23 40 29 56h101c-2 -3.33301 -5.66699 -9 -11 -17l-21 -33l-212 -352v-179c0 -43.333 1.33301 -83 4 -119h-104
c2.66699 36 4 75.667 4 119zM180.501 802c-9.66699 9.33301 -14.498 21.333 -14.498 36c0 15.333 4.66699 27.833 14 37.5s21.666 14.5 36.999 14.5c16 0 28.833 -4.83301 38.5 -14.5s14.5 -22.167 14.5 -37.5s-4.83301 -27.5 -14.5 -36.5s-22.5 -13.5 -38.5 -13.5
c-14.667 0 -26.834 4.66699 -36.501 14zM372.503 802c-9.66699 9.33301 -14.498 21.333 -14.498 36c0 15.333 4.66699 27.833 14 37.5s21.666 14.5 36.999 14.5c16 0 28.833 -4.83301 38.5 -14.5s14.5 -22.167 14.5 -37.5s-4.83301 -27.5 -14.5 -36.5
s-22.5 -13.5 -38.5 -13.5c-14.667 0 -26.834 4.66699 -36.501 14z" />
    <glyph glyph-name="Zacute" unicode="&#x179;" horiz-adv-x="667" 
d="M518 0h-497v67l478 549v1h-326c-42 0 -80 -1.33301 -114 -4v91c52 -2.66699 90 -4 114 -4h455v-73l-466 -543v-1h356c26 0 64.333 1.33301 115 4v-91c-50.667 2.66699 -89 4 -115 4zM360 900h134l-131 -112h-88z" />
    <glyph glyph-name="zacute" unicode="&#x17a;" horiz-adv-x="473" 
d="M403 -2c-25.333 1.33301 -44 2 -56 2h-318v61l283 358v1h-168c-12.667 0 -31.667 -0.666992 -57 -2c-16 -1.33301 -28.333 -2 -37 -2v88c8.66699 0 21 -0.666992 37 -2c25.333 -1.33301 44.333 -2 57 -2h286v-67l-275 -351v-1h192c12 0 30.667 0.666992 56 2
c16 1.33301 28.333 2 37 2v-89c-8.66699 0 -21 0.666992 -37 2zM258 700h134l-131 -112h-88z" />
    <glyph glyph-name="Zdotaccent" unicode="&#x17b;" horiz-adv-x="667" 
d="M518 0h-497v67l478 549v1h-326c-42 0 -80 -1.33301 -114 -4v91c52 -2.66699 90 -4 114 -4h455v-73l-466 -543v-1h356c26 0 64.333 1.33301 115 4v-91c-50.667 2.66699 -89 4 -115 4zM289 800.5c-10 9.66699 -15 22.167 -15 37.5c0 16 5 29 15 39s22.667 15 38 15
s28 -5 38 -15s15 -23 15 -39c0 -15.333 -5 -27.833 -15 -37.5s-22.667 -14.5 -38 -14.5s-28 4.83301 -38 14.5z" />
    <glyph glyph-name="zdotaccent" unicode="&#x17c;" horiz-adv-x="473" 
d="M403 -2c-25.333 1.33301 -44 2 -56 2h-318v61l283 358v1h-168c-12.667 0 -31.667 -0.666992 -57 -2c-16 -1.33301 -28.333 -2 -37 -2v88c8.66699 0 21 -0.666992 37 -2c25.333 -1.33301 44.333 -2 57 -2h286v-67l-275 -351v-1h192c12 0 30.667 0.666992 56 2
c16 1.33301 28.333 2 37 2v-89c-8.66699 0 -21 0.666992 -37 2zM197 600.5c-10 9.66699 -15 22.167 -15 37.5c0 16 5 29 15 39s22.667 15 38 15s28 -5 38 -15s15 -23 15 -39c0 -15.333 -5 -27.833 -15 -37.5s-22.667 -14.5 -38 -14.5s-28 4.83301 -38 14.5z" />
    <glyph glyph-name="Zcaron" unicode="&#x17d;" horiz-adv-x="667" 
d="M518 0h-497v67l478 549v1h-326c-42 0 -80 -1.33301 -114 -4v91c52 -2.66699 90 -4 114 -4h455v-73l-466 -543v-1h356c26 0 64.333 1.33301 115 4v-91c-50.667 2.66699 -89 4 -115 4zM161 900h95l71 -63l70 63h95l-115 -112h-101z" />
    <glyph glyph-name="zcaron" unicode="&#x17e;" horiz-adv-x="473" 
d="M403 -2c-25.333 1.33301 -44 2 -56 2h-318v61l283 358v1h-168c-12.667 0 -31.667 -0.666992 -57 -2c-16 -1.33301 -28.333 -2 -37 -2v88c8.66699 0 21 -0.666992 37 -2c25.333 -1.33301 44.333 -2 57 -2h286v-67l-275 -351v-1h192c12 0 30.667 0.666992 56 2
c16 1.33301 28.333 2 37 2v-89c-8.66699 0 -21 0.666992 -37 2zM79 700h95l71 -63l70 63h95l-115 -112h-101z" />
    <glyph glyph-name="florin" unicode="&#x192;" horiz-adv-x="600" 
d="M25 -192l-0.000976562 90h1c11.333 -8.66699 22.833 -14.834 34.5 -18.501s25.167 -5.5 40.5 -5.5c25.333 0 45.5 8.5 60.5 25.5s25.167 39.5 30.5 67.5l72 363h-15c-45.333 0 -85.333 -1.33301 -120 -4v84c26 -2 66 -3 120 -3h30l41 208c8.66699 42 28 76.333 58 103
s68.333 40 115 40c32.667 0 59.334 -4.66699 80.001 -14v-90h-1c-11.333 8.66699 -22.833 14.834 -34.5 18.501s-25.167 5.5 -40.5 5.5c-25.333 0 -45.5 -8.5 -60.5 -25.5s-25.167 -39.5 -30.5 -67.5l-35 -178h23c54 0 94 1 120 3v-84c-34.667 2.66699 -74.667 4 -120 4h-38
l-78 -393c-8.66699 -42 -28 -76.333 -58 -103s-68.333 -40 -115 -40c-32 0 -58.667 4.66699 -80 14z" />
    <glyph glyph-name="Scommaaccent" unicode="&#x218;" horiz-adv-x="542" 
d="M150 8c-36.667 10.667 -67.665 25.333 -92.998 44v125h1c28 -32 60.167 -57 96.5 -75s73.166 -27 110.499 -27c42 0 75.167 10.667 99.5 32s36.5 50 36.5 86c0 27.333 -8.16699 49.833 -24.5 67.5s-43.166 33.5 -80.499 47.5l-101 38
c-46.667 17.333 -81.834 39.666 -105.501 66.999s-35.5 63.333 -35.5 108c0 35.333 9.66699 67.333 29 96s46 51 80 67s72.667 24 116 24c38 0 73.833 -5.16699 107.5 -15.5s60.167 -23.833 79.5 -40.5v-124h-1c-22 28 -48.833 51.167 -80.5 69.5s-66.5 27.5 -104.5 27.5
c-38.667 0 -69.667 -9.16699 -93 -27.5s-35 -41.5 -35 -69.5c0 -25.333 7.83301 -45.666 23.5 -60.999s40.5 -29.333 74.5 -42l101 -38c51.333 -19.333 88.833 -44 112.5 -74s35.5 -68.333 35.5 -115c0 -62.667 -21.333 -112.667 -64 -150s-100 -56 -172 -56
c-38.667 0 -76.334 5.33301 -113.001 16zM228.002 -54.001h105l-72 -146h-81z" />
    <glyph glyph-name="scommaaccent" unicode="&#x219;" horiz-adv-x="443" 
d="M130.5 3.5c-31 8.33301 -57.834 18.166 -80.501 29.499v107h2c20.667 -20.667 46.834 -37.834 78.501 -51.501s62.5 -20.5 92.5 -20.5c27.333 0 49.333 6.5 66 19.5s25 29.5 25 49.5c0 16.667 -5.16699 30.334 -15.5 41.001s-26.833 19.667 -49.5 27l-86 27
c-76.667 24.667 -115 68.667 -115 132c0 46.667 17.5 82.334 52.5 107.001s77.833 37 128.5 37c26.667 0 53.167 -3.5 79.5 -10.5s48.5 -15.833 66.5 -26.5v-103h-1c-19.333 19.333 -41.666 34.833 -66.999 46.5s-50.333 17.5 -75 17.5c-28.667 0 -51.334 -6 -68.001 -18
s-25 -27 -25 -45c0 -17.333 6.33301 -30.5 19 -39.5s30 -17.167 52 -24.5l79 -26c40.667 -13.333 70.167 -30.833 88.5 -52.5s27.5 -50.5 27.5 -86.5c0 -44.667 -16.833 -80.667 -50.5 -108s-78.5 -41 -134.5 -41c-28.667 0 -58.5 4.16699 -89.5 12.5zM177.999 -54h105
l-72 -146h-81z" />
    <glyph glyph-name="uni021A" unicode="&#x21a;" horiz-adv-x="562" 
d="M233 118v498.999h-103c-16 0 -38.667 -0.666992 -68 -2c-21.333 -1.33301 -36.666 -2 -45.999 -2v87h530v-87c-10.667 0 -26 0.666992 -46 2c-30.667 1.33301 -53.334 2 -68.001 2h-103v-499c0 -33.333 1.66699 -72.666 5 -117.999h-105c2.66699 36 4 75.333 4 118z
M234 -54.001h105l-72 -146h-81z" />
    <glyph glyph-name="uni021B" unicode="&#x21b;" horiz-adv-x="402" 
d="M151.5 29.5c-28.333 25 -42.501 61.499 -42.501 109.499v283h-8c-16 0 -44 -1 -84 -3v84c18.667 -2 47 -3 85 -3h7v51c0 43.333 -1.33301 83 -4 119h100c-2.66699 -36 -4 -75.667 -4 -119v-51h59c54.667 0 95 1 121 3v-85c-34.667 2.66699 -75 4 -121 4h-59v-268
c0 -54.667 26.333 -82 79 -82c18 0 35.833 4.33301 53.5 13s32.834 19.334 45.501 32.001h2v-96c-40.667 -19.333 -80 -29 -118 -29c-46 0 -83.167 12.5 -111.5 37.5zM193.999 -54.001h105l-72 -146h-81z" />
    <glyph glyph-name="uni0237" unicode="&#x237;" horiz-adv-x="240" 
d="M-43 -202c-14.667 4 -27 9.33203 -37 15.999v90h2c24.667 -19.333 50.667 -29 78 -29c26 0 45.5 8.33301 58.5 25s19.5 40.334 19.5 71.001v410c0 44.667 -1.33301 84.334 -4 119.001h100c-2.66699 -34.667 -4 -74.334 -4 -119.001v-426c0 -54 -14.333 -94.667 -43 -122
s-70 -41 -124 -41c-16 0 -31.333 2 -46 6z" />
    <glyph glyph-name="circumflex" unicode="&#x2c6;" horiz-adv-x="431" 
d="M165 700h101l115 -112h-95l-70 63l-71 -63h-95z" />
    <glyph glyph-name="caron" unicode="&#x2c7;" horiz-adv-x="431" 
d="M50 700h95l71 -63l70 63h95l-115 -112h-101z" />
    <glyph glyph-name="breve" unicode="&#x2d8;" horiz-adv-x="404" 
d="M97 607.5c-27.333 22.333 -43 53.166 -47 92.499h75c3.33301 -18 11.5 -32.167 24.5 -42.5s30.5 -15.5 52.5 -15.5s39.5 5.16699 52.5 15.5s21.167 24.5 24.5 42.5h75c-4 -39.333 -19.667 -70.166 -47 -92.499s-62.333 -33.5 -105 -33.5s-77.667 11.167 -105 33.5z" />
    <glyph glyph-name="dotaccent" unicode="&#x2d9;" horiz-adv-x="206" 
d="M65 600.5c-10 9.66699 -15 22.167 -15 37.5c0 16 5 29 15 39s22.667 15 38 15s28 -5 38 -15s15 -23 15 -39c0 -15.333 -5 -27.833 -15 -37.5s-22.667 -14.5 -38 -14.5s-28 4.83301 -38 14.5z" />
    <glyph glyph-name="ring" unicode="&#x2da;" horiz-adv-x="302" 
d="M79.5 570.5c-19.667 19.667 -29.5 43.167 -29.5 70.5s9.83301 50.833 29.5 70.5s43.5 29.5 71.5 29.5c27.333 0 51 -9.83301 71 -29.5s30 -43.167 30 -70.5s-10 -50.833 -30 -70.5s-43.667 -29.5 -71 -29.5c-28 0 -51.833 9.83301 -71.5 29.5zM175.5 615.5
c7 7 10.5 15.501 10.5 25.501s-3.5 18.5 -10.5 25.5s-15.167 10.5 -24.5 10.5c-10 0 -18.333 -3.5 -25 -10.5s-10 -15.5 -10 -25.5c0 -10.667 3.33301 -19.334 10 -26.001s15 -10 25 -10c9.33301 0 17.5 3.5 24.5 10.5z" />
    <glyph glyph-name="ogonek" unicode="&#x2db;" horiz-adv-x="265" 
d="M78.5 -169.5c-19 16.333 -28.5 38.167 -28.5 65.5c0 45.333 29.333 85 88 119l77 -15c-26 -15.333 -45.833 -29.333 -59.5 -42s-20.5 -28 -20.5 -46c0 -10.667 3.16699 -19 9.5 -25s14.833 -9 25.5 -9c12.667 0 25 3.33301 37 10h1v-73c-19.333 -6 -38 -9 -56 -9
c-30 0 -54.5 8.16699 -73.5 24.5z" />
    <glyph glyph-name="tilde" unicode="&#x2dc;" horiz-adv-x="426" 
d="M219 608l-15.999 10.999c-3.33301 2.66699 -8.66602 6.33398 -15.999 11.001s-13.333 8.16699 -18 10.5s-9.33398 3.5 -14.001 3.5c-12 0 -20.167 -4 -24.5 -12s-6.83301 -18.667 -7.5 -32h-73c4.66699 34 15.5 61.333 32.5 82s39.833 31 68.5 31c20 0 38.667 -6 56 -18
l16 -11c13.333 -9.33301 23.166 -15.833 29.499 -19.5s12.5 -5.5 18.5 -5.5c12 0 20.167 4 24.5 12s6.83301 18.667 7.5 32h73c-4.66699 -34 -15.5 -61.333 -32.5 -82s-39.833 -31 -68.5 -31c-20 0 -38.667 6 -56 18z" />
    <glyph glyph-name="hungarumlaut" unicode="&#x2dd;" horiz-adv-x="494" 
d="M135 700h134l-131 -112h-88zM310 700h134l-131 -112h-88z" />
    <glyph glyph-name="gravecomb" unicode="&#x300;" 
d="M-359 700h134l85 -112h-88z" />
    <glyph glyph-name="acutecomb" unicode="&#x301;" 
d="M-274 700h134l-131 -112h-88z" />
    <glyph glyph-name="uni0302" unicode="&#x302;" 
d="M-300 700h101l115 -112h-95l-70 63l-71 -63h-95z" />
    <glyph glyph-name="tildecomb" unicode="&#x303;" 
d="M-244 608l-15.999 10.999c-3.33301 2.66699 -8.66602 6.33398 -15.999 11.001s-13.333 8.16699 -18 10.5s-9.33398 3.5 -14.001 3.5c-12 0 -20.167 -4 -24.5 -12s-6.83301 -18.667 -7.5 -32h-73c4.66699 34 15.5 61.333 32.5 82s39.833 31 68.5 31c20 0 38.667 -6 56 -18
l16 -11c13.333 -9.33301 23.166 -15.833 29.499 -19.5s12.5 -5.5 18.5 -5.5c12 0 20.167 4 24.5 12s6.83301 18.667 7.5 32h73c-4.66699 -34 -15.5 -61.333 -32.5 -82s-39.833 -31 -68.5 -31c-20 0 -38.667 6 -56 18z" />
    <glyph glyph-name="uni0304" unicode="&#x304;" 
d="M-388 676h276v-74h-276v74z" />
    <glyph glyph-name="uni0306" unicode="&#x306;" 
d="M-355 607.5c-27.333 22.333 -43 53.166 -47 92.499h75c3.33301 -18 11.5 -32.167 24.5 -42.5s30.5 -15.5 52.5 -15.5s39.5 5.16699 52.5 15.5s21.167 24.5 24.5 42.5h75c-4 -39.333 -19.667 -70.166 -47 -92.499s-62.333 -33.5 -105 -33.5s-77.667 11.167 -105 33.5z" />
    <glyph glyph-name="uni0307" unicode="&#x307;" 
d="M-288 600.5c-10 9.66699 -15 22.167 -15 37.5c0 16 5 29 15 39s22.667 15 38 15s28 -5 38 -15s15 -23 15 -39c0 -15.333 -5 -27.833 -15 -37.5s-22.667 -14.5 -38 -14.5s-28 4.83301 -38 14.5z" />
    <glyph glyph-name="uni0308" unicode="&#x308;" 
d="M-383.5 602c-9.66699 9.33301 -14.498 21.333 -14.498 36c0 15.333 4.66699 27.833 14 37.5s21.666 14.5 36.999 14.5c16 0 28.833 -4.83301 38.5 -14.5s14.5 -22.167 14.5 -37.5s-4.83301 -27.5 -14.5 -36.5s-22.5 -13.5 -38.5 -13.5
c-14.667 0 -26.834 4.66699 -36.501 14zM-191.498 602c-9.66699 9.33301 -14.498 21.333 -14.498 36c0 15.333 4.66699 27.833 14 37.5s21.666 14.5 36.999 14.5c16 0 28.833 -4.83301 38.5 -14.5s14.5 -22.167 14.5 -37.5s-4.83301 -27.5 -14.5 -36.5
s-22.5 -13.5 -38.5 -13.5c-14.667 0 -26.834 4.66699 -36.501 14z" />
    <glyph glyph-name="uni030A" unicode="&#x30a;" 
d="M-321.5 570.5c-19.667 19.667 -29.5 43.167 -29.5 70.5s9.83301 50.833 29.5 70.5s43.5 29.5 71.5 29.5c27.333 0 51 -9.83301 71 -29.5s30 -43.167 30 -70.5s-10 -50.833 -30 -70.5s-43.667 -29.5 -71 -29.5c-28 0 -51.833 9.83301 -71.5 29.5zM-225.5 615.5
c7 7 10.5 15.501 10.5 25.501s-3.5 18.5 -10.5 25.5s-15.167 10.5 -24.5 10.5c-10 0 -18.333 -3.5 -25 -10.5s-10 -15.5 -10 -25.5c0 -10.667 3.33301 -19.334 10 -26.001s15 -10 25 -10c9.33301 0 17.5 3.5 24.5 10.5z" />
    <glyph glyph-name="uni030B" unicode="&#x30b;" 
d="M-362 700h134l-131 -112h-88zM-187 700h134l-131 -112h-88z" />
    <glyph glyph-name="uni030C" unicode="&#x30c;" 
d="M-415 700h95l71 -63l70 63h95l-115 -112h-101z" />
    </font>
</defs>
</svg>
