<?xml version="1.0" standalone="no"?>
<!DOCTYPE svg PUBLIC "-//W3C//DTD SVG 1.1//EN" "http://www.w3.org/Graphics/SVG/1.1/DTD/svg11.dtd" >
<svg>
<metadata>
Created by FontForge 20090914 at Mon Jan 30 16:09:32 2023
 By www-data
&#194;&#169; 2019, Copyright by Pandora A/S. All rights reserved
</metadata>
<defs>
<font id="PanDisplay-Bold" horiz-adv-x="0" >
  <font-face 
    font-family="Pan Display"
    font-weight="700"
    font-stretch="normal"
    units-per-em="1000"
    panose-1="2 11 8 4 2 1 1 1 1 2"
    ascent="800"
    descent="-200"
    x-height="499.999"
    cap-height="700"
    bbox="-618 -245 1124 994"
    underline-thickness="50"
    underline-position="-75"
    unicode-range="U+000D-U+FEFF"
  />
<missing-glyph horiz-adv-x="706" 
d="M655 -120h-600v820h600v-820zM195 584v-576h320v576h-320z" />
    <glyph glyph-name="f_f.liga" unicode="ff" horiz-adv-x="878" 
d="M112 35c2 64 3 100.998 3 110.998v236h-2c-20 0 -50 -2 -90 -6v129c4 0 13.5 -0.833008 28.5 -2.5s35.167 -2.5 60.5 -2.5h3v63c0 44 9.16699 80.667 27.5 110s42.333 51 72 65s61.167 21 94.5 21c50.667 0 94 -11 130 -33v-139h-2c-15.333 11.333 -31 20.5 -47 27.5
s-34 10.5 -54 10.5c-24.667 0 -44 -7 -58 -21s-21 -35.667 -21 -65v-39h300v63c0 44 9.16699 80.667 27.5 110s42.333 51 72 65s61.167 21 94.5 21c50.667 0 94 -11 130 -33v-139h-2c-15.333 11.333 -31 20.5 -47 27.5s-34 10.5 -54 10.5c-24.667 0 -44 -7 -58 -21
s-21 -35.667 -21 -65v-39h19c48.667 0 98.667 1.66699 150 5v-129c-62 4 -112 6 -150 6h-19v-236c0 -45.333 1.66699 -94 5 -146h-152c0 4.66699 0.666992 16.334 2 35.001c2 64 3 101 3 111v236h-300v-236c0 -45.333 1.66699 -94 5 -146h-152
c0 4.66699 0.666992 16.334 2 35.001z" />
    <glyph glyph-name="f_f_i.liga" unicode="ffi" horiz-adv-x="1152" 
d="M112 35c2 64 3 100.997 3 110.997v236h-2c-20 0 -50 -2 -90 -6v128c37.333 -2.66699 67 -4 89 -4h3v63c0 44 9.16699 80.667 27.5 110s42.333 51 72 65s61.167 21 94.5 21c50.667 0 94 -11 130 -33v-139h-2c-15.333 11.333 -31 20.5 -47 27.5s-34 10.5 -54 10.5
c-24.667 0 -44 -7 -58 -21s-21 -35.667 -21 -65v-39h300v63c0 44 9.16699 80.667 27.5 110s42.333 51 72 65s61.167 21 94.5 21c50.667 0 94 -11 130 -33v-139h-2c-15.333 11.333 -31 20.5 -47 27.5s-34 10.5 -54 10.5c-24.667 0 -44 -7 -58 -21s-21 -35.667 -21 -65v-39
h404c-3.33301 -48 -5 -96.667 -5 -146v-208c0 -45.333 1.66699 -94 5 -146h-152c0 4.66699 0.666992 16.334 2 35.001c2 64 3 101 3 111v208v28h-257v-236c0 -45.333 1.66699 -94 5 -146h-152c0 4.66699 0.666992 16.334 2 35.001c2 64 3 101 3 111v236h-300v-236
c0 -45.333 1.66699 -94 5 -146h-152c0 4.66699 0.666992 16.334 2 35.001zM971.5 582.997c-15 14.667 -22.5 33 -22.5 55c0 22.667 7.5 41.5 22.5 56.5s33.5 22.5 55.5 22.5s40.5 -7.5 55.5 -22.5s22.5 -33.833 22.5 -56.5c0 -22 -7.5 -40.333 -22.5 -55
s-33.5 -22 -55.5 -22s-40.5 7.33301 -55.5 22z" />
    <glyph glyph-name="f_f_l.liga" unicode="ffl" horiz-adv-x="1149" 
d="M112 35c2 64 3 100.998 3 110.998v236h-2c-20 0 -50 -2 -90 -6v129c3.33301 0 12.5 -0.833008 27.5 -2.5s35.5 -2.5 61.5 -2.5h3v63c0 44 9.16699 80.667 27.5 110s42.333 51 72 65s61.167 21 94.5 21c50.667 0 94 -11 130 -33v-139h-2c-15.333 11.333 -31 20.5 -47 27.5
s-34 10.5 -54 10.5c-24.667 0 -44 -7 -58 -21s-21 -35.667 -21 -65v-39h300v63c0 44 9.16699 80.667 27.5 110s42.333 51 72 65s61.167 21 94.5 21c50.667 0 94 -11 130 -33v-139h-2c-15.333 11.333 -31 20.5 -47 27.5s-34 10.5 -54 10.5c-24.667 0 -44 -7 -58 -21
s-21 -35.667 -21 -65v-39h254v105c0 49.333 -1.66699 98 -5 146h153c-4 -58 -6 -106.667 -6 -146v-459c0 -35.333 2 -84 6 -146h-153c3.33301 52 5 100.667 5 146v236h-254v-236c0 -45.333 1.66699 -94 5 -146h-152c0 4.66699 0.666992 16.334 2 35.001c2 64 3 101 3 111
v236h-300v-236c0 -45.333 1.66699 -94 5 -146h-152c0 4.66699 0.666992 16.334 2 35.001z" />
    <glyph glyph-name="f_i.liga" unicode="fi" horiz-adv-x="710" 
d="M112 35c2 64 3 100.998 3 110.998v236h-2c-20 0 -50 -2 -90 -6v128c37.333 -2.66699 67 -4 89 -4h3v63c0 44 9.16699 80.667 27.5 110s42.333 51 72 65s61.167 21 94.5 21c50.667 0 94 -11 130 -33v-139h-2c-15.333 11.333 -31 20.5 -47 27.5s-34 10.5 -54 10.5
c-24.667 0 -44 -7 -58 -21s-21 -35.667 -21 -65v-39h404c-3.33301 -48 -5 -96.667 -5 -146v-208c0 -45.333 1.66699 -94 5 -146h-152c0 4.66699 0.666992 16.334 2 35.001c2 64 3 101 3 111v208v28h-257v-236c0 -45.333 1.66699 -94 5 -146h-152
c0 4.66699 0.666992 16.334 2 35.001zM529.5 582.998c-15 14.667 -22.5 33 -22.5 55c0 22.667 7.5 41.5 22.5 56.5s33.5 22.5 55.5 22.5s40.5 -7.5 55.5 -22.5s22.5 -33.833 22.5 -56.5c0 -22 -7.5 -40.333 -22.5 -55s-33.5 -22 -55.5 -22s-40.5 7.33301 -55.5 22z" />
    <glyph glyph-name="f_l.liga" unicode="fl" horiz-adv-x="707" 
d="M112 35c2 64 3 100.999 3 110.999v236h-2c-20 0 -50 -2 -90 -6v128c37.333 -2.66699 67 -4 89 -4h3v63c0 44 9.16699 80.667 27.5 110s42.333 51 72 65s61.167 21 94.5 21c50.667 0 94 -11 130 -33v-139h-2c-15.333 11.333 -31 20.5 -47 27.5s-34 10.5 -54 10.5
c-24.667 0 -44 -7 -58 -21s-21 -35.667 -21 -65v-39h254v105c0 49.333 -1.66699 98 -5 146h153c-4 -58 -6 -106.667 -6 -146v-459c0 -35.333 2 -84 6 -146h-153c3.33301 52 5 100.667 5 146v236h-254v-236c0 -45.333 1.66699 -94 5 -146h-152
c0 4.66699 0.666992 16.334 2 35.001z" />
    <glyph glyph-name=".notdef" horiz-adv-x="706" 
d="M655 -120h-600v820h600v-820zM195 584v-576h320v576h-320z" />
    <glyph glyph-name="uni000D" unicode="&#xd;" horiz-adv-x="240" 
 />
    <glyph glyph-name="space" unicode=" " horiz-adv-x="240" 
 />
    <glyph glyph-name="exclam" unicode="!" horiz-adv-x="267" 
d="M67.5 328.5c-4.33301 42.333 -6.5 86.833 -6.5 133.5l1 70c0 64 -1.66699 120 -5 168h157c-3.33301 -48 -5 -104 -5 -168l1 -70c0 -48 -2.16699 -93.167 -6.5 -135.5s-9.83301 -77.833 -16.5 -106.5h-103c-6.66699 30 -12.167 66.167 -16.5 108.5zM75.5 15.5
c-15.667 15.667 -23.5 35.167 -23.5 58.5s7.83301 43 23.5 59s35.167 24 58.5 24c24 0 43.833 -8 59.5 -24s23.5 -35.667 23.5 -59s-7.83301 -42.833 -23.5 -58.5s-35.5 -23.5 -59.5 -23.5c-23.333 0 -42.833 7.83301 -58.5 23.5z" />
    <glyph glyph-name="quotedbl" unicode="&#x22;" horiz-adv-x="417" 
d="M55 521c-0.666992 4 -3.66699 19 -9 45s-8 47.333 -8 64c0 22 7.16699 40.167 21.5 54.5s32.833 21.5 55.5 21.5c22 0 40.167 -7.16699 54.5 -21.5s21.5 -32.5 21.5 -54.5c0 -16.667 -2.66699 -38 -8 -64s-8.33301 -41 -9 -45l-23 -118h-73zM247 521
c-0.666992 4 -3.66699 19 -9 45s-8 47.333 -8 64c0 22 7.16699 40.167 21.5 54.5s32.833 21.5 55.5 21.5c22 0 40.167 -7.16699 54.5 -21.5s21.5 -32.5 21.5 -54.5c0 -16.667 -2.66699 -38 -8 -64s-8.33301 -41 -9 -45l-23 -118h-73z" />
    <glyph glyph-name="numbersign" unicode="#" horiz-adv-x="831" 
d="M117 89l28.998 81c-50.667 0 -88.667 -1 -114 -3v126c34.667 -2.66699 75 -4 121 -4h34l44 124h-13c-10.667 0 -43 -1 -97 -3l-25 -1v125c26.667 -2 67.334 -3 122.001 -3h55l28 80c6.66699 20 11.334 35.333 14.001 46s5 25 7 43h157c-15.333 -26 -29 -55.667 -41 -89
l-28 -80h141l28 80c6.66699 20 11.334 35.333 14.001 46s5 25 7 43h157c-15.333 -26 -29 -55.667 -41 -89l-28 -80c50.667 0 89 1 115 3v-125l-25 1c-54 2 -86.333 3 -97 3h-35l-44 -124h15c44.667 0 85 1.33301 121 4v-126c-27.333 2 -67.666 3 -120.999 3h-56l-29 -81
c-6.66699 -20 -11.334 -35.333 -14.001 -46s-5 -25 -7 -43h-157c15.333 26 29 55.667 41 89l29 81h-141l-29 -81c-6.66699 -20 -11.334 -35.333 -14.001 -46s-5 -25 -7 -43h-157c15.333 26 29 55.667 41 89zM464.998 289l44 124h-141l-44 -124h141z" />
    <glyph glyph-name="dollar" unicode="$" horiz-adv-x="541" 
d="M199 -5c-52 5.33301 -101.997 18.9951 -149.997 40.9951v190h2c25.333 -32 57.5 -56.5 96.5 -73.5s78.833 -25.5 119.5 -25.5c33.333 0 58.833 5.83301 76.5 17.5s26.5 28.5 26.5 50.5c0 16.667 -6.66699 30.5 -20 41.5s-38.333 24.833 -75 41.5l-106 47
c-40.667 18 -71.834 41.5 -93.501 70.5s-32.5 68.167 -32.5 117.5s15.667 90.333 47 123s71.666 54.667 120.999 66c-1.33301 42.667 -3 76.667 -5 102h153c-2 -45.333 -3.33301 -78.666 -4 -99.999c22 -3.33301 41.5 -7.16602 58.5 -11.499s37.5 -10.5 61.5 -18.5v-199h-2
c-20.667 28 -49.334 51.667 -86.001 71s-73 29 -109 29c-28.667 0 -51.334 -5.33301 -68.001 -16s-25 -25 -25 -43c0 -17.333 5.83301 -31.333 17.5 -42s31.834 -22.667 60.501 -36l112 -51c91.333 -41.333 137 -102 137 -182c0 -51.333 -15.333 -94.666 -46 -129.999
s-71.667 -59.666 -123 -72.999c1.33301 -45.333 3 -80.666 5 -105.999h-153c2 46 3.33301 79 4 99z" />
    <glyph glyph-name="percent" unicode="%" horiz-adv-x="822" 
d="M72 431c-28.667 30 -43 69.001 -43 117.001c0 31.333 6.5 59.166 19.5 83.499s31 43.333 54 57s48.833 20.5 77.5 20.5c44 0 80 -14.833 108 -44.5s42 -68.5 42 -116.5s-14 -87 -42 -117s-64 -45 -108 -45c-43.333 0 -79.333 15 -108 45zM225 548.001
c0 44 -15 65.999 -45 65.999c-14.667 0 -25.834 -5.66699 -33.501 -17s-11.5 -27.666 -11.5 -48.999s3.83301 -37.833 11.5 -49.5s18.834 -17.5 33.501 -17.5c30 0 45 22.333 45 67zM598 700h122l-493 -700h-122zM538 41c-28.667 30 -43 69.001 -43 117.001
c0 31.333 6.5 59.166 19.5 83.499s31 43.333 54 57s48.833 20.5 77.5 20.5c44 0 80 -14.833 108 -44.5s42 -68.5 42 -116.5s-14 -87 -42 -117s-64 -45 -108 -45c-43.333 0 -79.333 15 -108 45zM691 158.001c0 44 -15 65.999 -45 65.999
c-14.667 0 -25.834 -5.66699 -33.501 -17s-11.5 -27.666 -11.5 -48.999s3.83301 -37.833 11.5 -49.5s18.834 -17.5 33.501 -17.5c30 0 45 22.333 45 67z" />
    <glyph glyph-name="ampersand" unicode="&#x26;" horiz-adv-x="721" 
d="M161.5 18c-41 18.667 -72.501 44.998 -94.501 78.998s-33 73.667 -33 119c0 44 10 82.833 30 116.5s47 59.834 81 78.501c-25.333 32 -38 68.333 -38 109c0 34.667 8.83301 66.334 26.5 95.001s41.667 51.334 72 68.001s63.833 25 100.5 25c37.333 0 71 -8.33301 101 -25
s53.667 -39.334 71 -68.001s26 -60.334 26 -95.001c0 -39.333 -11.167 -74.166 -33.5 -104.499s-52.166 -51.833 -89.499 -64.5v-1l121 -118c10.667 23.333 16 48 16 74c0 20 -2 54 -6 102h154c-4 -40 -6 -75.333 -6 -106c0 -63.333 -18 -120.333 -54 -171l126 -124v-7h-181
l-42 43c-59.333 -35.333 -127 -53 -203 -53c-55.333 0 -103.5 9.33301 -144.5 28zM354.999 472.998c12.667 12.667 19 29 19 49s-6.33301 36.333 -19 49s-29 19 -49 19s-36.5 -6.33301 -49.5 -19s-19.5 -29 -19.5 -49s6.5 -36.333 19.5 -49s29.5 -19 49.5 -19
s36.333 6.33301 49 19zM407.999 143.998l-172 170.998c-40 -19.333 -60 -48.666 -60 -87.999c0 -29.333 11.833 -53.666 35.5 -72.999s57.167 -29 100.5 -29c34.667 0 66.667 6.33301 96 19z" />
    <glyph glyph-name="quotesingle" unicode="'" horiz-adv-x="225" 
d="M55 521c-0.666992 4 -3.66699 19 -9 45s-8 47.333 -8 64c0 22 7.16699 40.167 21.5 54.5s32.833 21.5 55.5 21.5c22 0 40.167 -7.16699 54.5 -21.5s21.5 -32.5 21.5 -54.5c0 -16.667 -2.66699 -38 -8 -64s-8.33301 -41 -9 -45l-23 -118h-73z" />
    <glyph glyph-name="parenleft" unicode="(" horiz-adv-x="323" 
d="M151 -69c-22.667 38.667 -41.667 73.9961 -57 105.996s-28.833 69.833 -40.5 113.5s-17.5 90.167 -17.5 139.5c0 70.667 10.5 133.5 31.5 188.5s48.833 111.833 83.5 170.5c14.667 24.667 24 41.667 28 51h143c-39.333 -43.333 -74.666 -100.666 -105.999 -171.999
s-47 -150.666 -47 -237.999s15.667 -166.666 47 -237.999s66.666 -128.666 105.999 -171.999h-143c-4 9.33301 -13.333 26.333 -28 51z" />
    <glyph glyph-name="parenright" unicode=")" horiz-adv-x="323" 
d="M111 52c31.333 71.333 47 150.67 47 238.003s-15.667 166.666 -47 237.999s-66.666 128.666 -105.999 171.999h143c4 -9.33301 13.333 -26.333 28 -51c22.667 -38.667 41.667 -74 57 -106s28.833 -69.833 40.5 -113.5s17.5 -90.167 17.5 -139.5
c0 -70.667 -10.5 -133.5 -31.5 -188.5s-48.833 -111.833 -83.5 -170.5c-14.667 -24.667 -24 -41.667 -28 -51h-143c39.333 43.333 74.666 100.666 105.999 171.999z" />
    <glyph glyph-name="asterisk" unicode="*" horiz-adv-x="458" 
d="M72 415c26 32 42.666 52.835 49.999 62.502s15.333 21.167 24 34.5l-60.5 19.5c-22.333 7 -40.166 11.833 -53.499 14.5l39 111c54.667 -24.667 90.667 -40.334 108 -47.001c0 14 -0.666992 41.667 -2 83l-1 42h112c-2.66699 -54.667 -4 -96.334 -4 -125.001
c18.667 7.33301 54.667 23 108 47l39 -111c-42 -10 -80 -21.333 -114 -34c6.66699 -10 17.167 -24.5 31.5 -43.5s28.5 -36.5 42.5 -52.5l-99 -69l-60 103c-16.667 -24 -37 -58.667 -61 -104z" />
    <glyph glyph-name="plus" unicode="+" horiz-adv-x="545" 
d="M213 189l0.000976562 11h-6c-44.667 0 -93 -1.66699 -145 -5v129c52 -3.33301 100.333 -5 145 -5h6v6c0 45.333 -1.66699 93.666 -5 144.999h134c-3.33301 -51.333 -5 -99.666 -5 -144.999v-6h5c45.333 0 93.666 1.66699 144.999 5v-129c-52 3.33301 -100.333 5 -145 5
h-5v-11c0 -44.667 1.66699 -93 5 -145h-134c3.33301 52 5 100.333 5 145z" />
    <glyph glyph-name="comma" unicode="," horiz-adv-x="238" 
d="M44 73c0.666992 28 8.99805 49 24.998 63s36 21 60 21c20.667 0 38.334 -7.5 53.001 -22.5s21.334 -34.167 20.001 -57.5c-0.666992 -14.667 -6.5 -35.167 -17.5 -61.5l-19.5 -46.5l-50 -115h-77z" />
    <glyph glyph-name="hyphen" unicode="-" horiz-adv-x="434" 
d="M55 318c27.333 -2 69.333 -3 126 -3h76c57.333 0 99.333 1 126 3v-125c-36 2.66699 -78 4 -126 4h-76c-48 0 -90 -1.33301 -126 -4v125z" />
    <glyph glyph-name="period" unicode="." horiz-adv-x="235" 
d="M60.5 15.5c-15.667 15.667 -23.5 35.167 -23.5 58.5s7.83301 43 23.5 59s35.167 24 58.5 24c24 0 43.833 -8 59.5 -24s23.5 -35.667 23.5 -59s-7.83301 -42.833 -23.5 -58.5s-35.5 -23.5 -59.5 -23.5c-23.333 0 -42.833 7.83301 -58.5 23.5z" />
    <glyph glyph-name="slash" unicode="/" horiz-adv-x="648" 
d="M479 800h155l-462 -874h-155z" />
    <glyph glyph-name="zero" unicode="0" horiz-adv-x="746" 
d="M205 38.5c-50.667 31 -90.501 73.833 -119.501 128.5s-43.5 116 -43.5 184c0 67.333 14.5 128.333 43.5 183s68.833 97.5 119.5 128.5s107.667 46.5 171 46.5s120.333 -15.5 171 -46.5s90.167 -73.833 118.5 -128.5s42.5 -115.667 42.5 -183
c0 -68 -14.167 -129.333 -42.5 -184s-67.666 -97.5 -117.999 -128.5s-107.5 -46.5 -171.5 -46.5c-63.333 0 -120.333 15.5 -171 46.5zM476.499 157c27.667 20.667 48.5 48.168 62.5 82.501s21 71.5 21 111.5s-7 77 -21 111s-34.833 61.167 -62.5 81.5
s-61.167 30.5 -100.5 30.5c-38.667 0 -72 -10.333 -100 -31s-49.167 -47.834 -63.5 -81.501s-21.5 -70.5 -21.5 -110.5s7.16699 -77 21.5 -111s35.5 -61.5 63.5 -82.5s61.333 -31.5 100 -31.5c39.333 0 72.833 10.333 100.5 31z" />
    <glyph glyph-name="one" unicode="1" horiz-adv-x="379" 
d="M164 145v355.001h-1l-122 -128h-3v158l186 170h92l-1 -29c-2.66699 -40 -4 -78.667 -4 -116v-410c0 -11.333 1 -48 3 -110c1.33301 -18.667 2 -30.334 2 -35.001h-157c3.33301 52 5 100.333 5 145z" />
    <glyph glyph-name="two" unicode="2" horiz-adv-x="568" 
d="M496 -3c-10.667 0.666992 -23.998 1.33496 -39.998 2.00195s-34.667 1 -56 1h-377v1l223 297c9.33301 12 16 21 20 27c32 41.333 55.667 75.166 71 101.499s23 52.166 23 77.499c0 23.333 -7.83301 41 -23.5 53s-37.834 18 -66.501 18
c-38.667 0 -77.5 -14.833 -116.5 -44.5s-69.833 -62.5 -92.5 -98.5h-3v179c22.667 25.333 53.667 48 93 68s80.666 30 123.999 30c69.333 0 124.5 -16.667 165.5 -50s61.5 -82.333 61.5 -147c0 -42 -9.83301 -81.333 -29.5 -118s-45.5 -76.334 -77.5 -119.001l-104 -139v-1
h109c21.333 0 40 0.333008 56 1s29.333 1.33398 40 2.00098c14.667 1.33301 25 2 31 2v-145c-6 0 -16.333 0.666992 -31 2z" />
    <glyph glyph-name="three" unicode="3" horiz-adv-x="560" 
d="M121 17c-40.667 17.333 -73.001 39.6689 -97.001 67.002l101 107c18 -21.333 37.833 -37.5 59.5 -48.5s47.5 -16.5 77.5 -16.5c33.333 0 61 10.167 83 30.5s33 47.5 33 81.5c0 36 -11.667 63.833 -35 83.5s-57.666 29.5 -102.999 29.5h-120v2l142 212v1h-75
c-29.333 0 -56 -1 -80 -3c-20 -1.33301 -35.667 -2 -47 -2v144l31 -2c8.66699 0 22.334 -0.5 41.001 -1.5s37 -1.5 55 -1.5h322v-3l-151 -226v-1c52.667 -16.667 92.834 -45.834 120.501 -87.501s41.5 -89.834 41.5 -144.501c0 -45.333 -10.167 -86.833 -30.5 -124.5
s-50.333 -67.5 -90 -89.5s-86.834 -33 -141.501 -33c-50.667 0 -96.334 8.66699 -137.001 26z" />
    <glyph glyph-name="four" unicode="4" horiz-adv-x="605" 
d="M309 35c2 62 3.00098 98.667 3.00098 110v12h-145c-21.333 0 -40.833 -0.333008 -58.5 -1s-32.834 -1.33398 -45.501 -2.00098l-37 -2v139l265 409h173c-3.33301 -48 -5 -96.333 -5 -145v-264h119v-139l-53 2l-66 3v-12c0 -44.667 1.66699 -93 5 -145h-157
c0 4.66699 0.666992 16.334 2 35.001zM312.001 291v212h-1l-137 -211v-1h138z" />
    <glyph glyph-name="five" unicode="5" horiz-adv-x="561" 
d="M121 23c-43.333 20.667 -77.333 46.001 -102 76.001l107 109c16.667 -24.667 36.834 -44.5 60.501 -59.5s48.834 -22.5 75.501 -22.5c37.333 0 66.833 10.5 88.5 31.5s32.5 47.833 32.5 80.5c0 30.667 -10.5 56 -31.5 76s-50.167 30 -87.5 30
c-52.667 0 -108 -13.667 -166 -41h-3v397h223c17.333 0 37.666 0.333008 60.999 1s41.333 1.33398 54 2.00098c16 1.33301 27.667 2 35 2v-144c-14 0 -35 0.666992 -63 2c-28 2 -57 3 -87 3h-81v-97c16 2.66699 30 4 42 4c48.667 0 91.667 -10.167 129 -30.5
s66.166 -48.333 86.499 -84s30.5 -75.834 30.5 -120.501s-11 -85.834 -33 -123.501s-52.667 -67.5 -92 -89.5s-84.333 -33 -135 -33c-52.667 0 -100.667 10.333 -144 31z" />
    <glyph glyph-name="six" unicode="6" horiz-adv-x="538" 
d="M159 21c-36.667 19.333 -65.8291 46.333 -87.4961 81s-32.5 74.334 -32.5 119.001c0 43.333 5.83301 80.666 17.5 111.999s27.5 64.333 47.5 99l14 26l127 242h168l-172 -255l1 -1c14.667 2.66699 26.667 4 36 4c45.333 0 86.166 -9.5 122.499 -28.5
s64.666 -45.833 84.999 -80.5s30.5 -74 30.5 -118c0 -41.333 -10.833 -79.5 -32.5 -114.5s-50.834 -62.833 -87.501 -83.5s-76 -31 -118 -31c-42.667 0 -82.334 9.66699 -119.001 29zM348.005 154.5c17.333 18.333 26 40.499 26 66.499c0 24.667 -8.66699 46.334 -26 65.001
s-40.666 28 -69.999 28c-30 0 -53.667 -9 -71 -27s-26 -40 -26 -66s8.5 -48.167 25.5 -66.5s40.833 -27.5 71.5 -27.5c29.333 0 52.666 9.16699 69.999 27.5z" />
    <glyph glyph-name="seven" unicode="7" horiz-adv-x="531" 
d="M62 33c4 8 8.83301 17.001 14.5 27.001s11.5 21 17.5 33l231 472l-1 1h-151c-27.333 0 -54.666 -1 -81.999 -3c-26.667 -1.33301 -46.334 -2 -59.001 -2v144c7.33301 0 18.333 -0.666992 33 -2c11.333 -0.666992 28 -1.33398 50 -2.00098s41.333 -1 58 -1h360l-279 -608
c-5.33301 -12 -12 -30.667 -20 -56l-12 -36h-178z" />
    <glyph glyph-name="eight" unicode="8" horiz-adv-x="562" 
d="M504 330.5c14.667 -30.333 22 -64.8359 22 -103.503c0 -44.667 -11.167 -85 -33.5 -121s-52 -64.167 -89 -84.5s-77.167 -30.5 -120.5 -30.5s-83.5 10.167 -120.5 30.5s-66.667 48.5 -89 84.5s-33.5 76.333 -33.5 121c0 38.667 7.5 73.334 22.5 104.001
s35.833 55.334 62.5 74.001h1l-1 1c-25.333 30 -38 68.333 -38 115c0 35.333 8.66699 67.166 26 95.499s41 50.666 71 66.999s63 24.5 99 24.5s69 -8.16699 99 -24.5s53.667 -38.666 71 -66.999s26 -60.166 26 -95.499c0 -46.667 -12.667 -85 -38 -115v-1
c27.333 -19.333 48.333 -44.166 63 -74.499zM237.5 565.497c-13.667 -12.333 -20.5 -27.5 -20.5 -45.5c0 -19.333 6.83301 -34.833 20.5 -46.5s28.834 -17.5 45.501 -17.5s31.834 5.83301 45.501 17.5s20.5 27.167 20.5 46.5c0 18 -6.83301 33.167 -20.5 45.5
s-28.834 18.5 -45.501 18.5s-31.834 -6.16699 -45.501 -18.5zM354 156.497c20.667 19.667 30.998 44.5 30.998 74.5c0 28.667 -10.5 52.5 -31.5 71.5s-44.5 28.5 -70.5 28.5s-49.5 -9.5 -70.5 -28.5s-31.5 -42.833 -31.5 -71.5c0 -30 10.333 -54.833 31 -74.5
s44.334 -29.5 71.001 -29.5s50.334 9.83301 71.001 29.5z" />
    <glyph glyph-name="nine" unicode="9" horiz-adv-x="538" 
d="M301 255l-1.00488 1c-14.667 -2.66699 -26.667 -4 -36 -4c-45.333 0 -86.166 9.5 -122.499 28.5s-64.666 45.833 -84.999 80.5s-30.5 74 -30.5 118c0 41.333 10.833 79.5 32.5 114.5s50.834 62.833 87.501 83.5s76 31 118 31c42.667 0 82.334 -9.66699 119.001 -29
s65.834 -46.333 87.501 -81s32.5 -74.334 32.5 -119.001c0 -43.333 -5.83301 -80.666 -17.5 -111.999s-27.5 -64.333 -47.5 -99l-14 -26l-127 -242h-168zM334.995 413c17.333 18 26 40.001 26 66.001s-8.5 48.167 -25.5 66.5s-40.833 27.5 -71.5 27.5
c-29.333 0 -52.666 -9.16699 -69.999 -27.5s-26 -40.5 -26 -66.5c0 -24.667 8.66699 -46.334 26 -65.001s40.666 -28 69.999 -28c30 0 53.667 9 71 27z" />
    <glyph glyph-name="colon" unicode=":" horiz-adv-x="269" 
d="M77.5 15.5c-15.667 15.667 -23.5 35.167 -23.5 58.5s7.83301 43 23.5 59s35.167 24 58.5 24c24 0 43.833 -8 59.5 -24s23.5 -35.667 23.5 -59s-7.83301 -42.833 -23.5 -58.5s-35.5 -23.5 -59.5 -23.5c-23.333 0 -42.833 7.83301 -58.5 23.5zM77.5 369.5
c-15.667 15.667 -23.5 35.167 -23.5 58.5s7.83301 43 23.5 59s35.167 24 58.5 24c24 0 43.833 -8 59.5 -24s23.5 -35.667 23.5 -59s-7.83301 -42.833 -23.5 -58.5s-35.5 -23.5 -59.5 -23.5c-23.333 0 -42.833 7.83301 -58.5 23.5z" />
    <glyph glyph-name="semicolon" unicode=";" horiz-adv-x="269" 
d="M56 73c0.666992 28 8.99805 49 24.998 63s36 21 60 21c20.667 0 38.334 -7.5 53.001 -22.5s21.334 -34.167 20.001 -57.5c-0.666992 -14.667 -6.5 -35.167 -17.5 -61.5l-19.5 -46.5l-50 -115h-77zM81.498 369.5c-15.667 15.667 -23.5 35.167 -23.5 58.5
s7.83301 43 23.5 59s35.167 24 58.5 24c24 0 43.833 -8 59.5 -24s23.5 -35.667 23.5 -59s-7.83301 -42.833 -23.5 -58.5s-35.5 -23.5 -59.5 -23.5c-23.333 0 -42.833 7.83301 -58.5 23.5z" />
    <glyph glyph-name="less" unicode="&#x3c;" horiz-adv-x="545" 
d="M402 40l-306 164c-12.667 6.66699 -23.667 11 -33 13v99c9.33301 2 20.333 6.33301 33 13l306 164c29.333 15.333 52.333 30 69 44h1v-157c-13.333 0 -31.666 -6 -54.999 -18l-188 -95v-2l188 -94c23.333 -12 41.666 -18 54.999 -18v-157h-1
c-16.667 14 -39.667 28.667 -69 44z" />
    <glyph glyph-name="equal" unicode="=" horiz-adv-x="545" 
d="M62 419c52 -3.33301 100.333 -5 145 -5h135c45.333 0 93.666 1.66699 144.999 5v-129c-51.333 3.33301 -99.666 5 -144.999 5h-135c-44.667 0 -93 -1.66699 -145 -5v129zM62 229c52 -3.33301 100.333 -5 145 -5h135c44.667 0 93 1.66699 145 5v-129
c-52 3.33301 -100.333 5 -145 5h-135c-44.667 0 -93 -1.66699 -145 -5v129z" />
    <glyph glyph-name="greater" unicode="&#x3e;" horiz-adv-x="545" 
d="M77 153c13.333 0 31.666 6 54.999 18l188 94v2l-188 95c-23.333 12 -41.666 18 -54.999 18v157h1c16.667 -14 39.667 -28.667 69 -44l306 -164c12.667 -6.66699 23.667 -11 33 -13v-99c-9.33301 -2 -20.333 -6.33301 -33 -13l-306 -164
c-29.333 -15.333 -52.333 -30 -69 -44h-1v157z" />
    <glyph glyph-name="question" unicode="?" horiz-adv-x="466" 
d="M150 245c-4 14 -6.00098 29.332 -6.00098 45.999c0 24 4.33301 46.333 13 67s25.667 41.667 51 63l31.5 27c15.667 13.333 26.834 25.5 33.501 36.5s10 22.5 10 34.5c0 18.667 -6.33301 32.5 -19 41.5s-28.334 13.5 -47.001 13.5c-30 0 -60.167 -10 -90.5 -30
s-57.5 -43.667 -81.5 -71h-3v185c28 16.667 57.833 29.167 89.5 37.5s60.5 12.5 86.5 12.5c70 0 124.5 -15.333 163.5 -46s58.5 -75 58.5 -133c0 -28.667 -5.83301 -53.667 -17.5 -75s-25.5 -39 -41.5 -53s-36.667 -30 -62 -48
c-29.333 -20.667 -50.666 -39.167 -63.999 -55.5s-20 -37.166 -20 -62.499c0 -5.33301 0.333008 -10.333 1 -15h-79c-0.666992 2.66699 -3 11 -7 25zM143.499 15.499c-15.667 15.667 -23.5 35.167 -23.5 58.5s7.83301 43 23.5 59s35.167 24 58.5 24c24 0 43.833 -8 59.5 -24
s23.5 -35.667 23.5 -59s-7.83301 -42.833 -23.5 -58.5s-35.5 -23.5 -59.5 -23.5c-23.333 0 -42.833 7.83301 -58.5 23.5z" />
    <glyph glyph-name="at" unicode="@" horiz-adv-x="901" 
d="M238.5 -98c-65 32 -115.498 77.835 -151.498 137.502s-54 129.5 -54 209.5c0 79.333 18.5 151.166 55.5 215.499s88.333 115 154 152s139.5 55.5 221.5 55.5c80 0 150.667 -15.833 212 -47.5s108.666 -75 141.999 -130s50 -117.167 50 -186.5
c0 -80.667 -20.333 -145.667 -61 -195s-98.334 -74 -173.001 -74c-24.667 0 -48.334 4.83301 -71.001 14.5s-39 23.167 -49 40.5h-2c-11.333 -16.667 -26.666 -30 -45.999 -40s-42 -15 -68 -15c-50.667 0 -90 18.667 -118 56s-42 84 -42 140c0 50 8.33301 94.167 25 132.5
s39.5 67.833 68.5 88.5s60.833 31 95.5 31c52 0 87 -18.667 105 -56h2c2 15.333 3 27 3 35h133c-2.66699 -7.33301 -8.33398 -30.333 -17.001 -69l-30 -138c-7.33301 -32 -11 -58 -11 -78c0 -10.667 4.83301 -19.334 14.5 -26.001s21.167 -10 34.5 -10
c17.333 0 33.333 7 48 21s26.5 33.333 35.5 58s13.5 52.667 13.5 84c0 54.667 -12.5 102.167 -37.5 142.5s-59.667 71 -104 92s-95.5 31.5 -153.5 31.5c-56.667 0 -109 -13.5 -157 -40.5s-86.333 -65.167 -115 -114.5s-43 -106 -43 -170c0 -60 12.667 -112.333 38 -157
s61.833 -79.167 109.5 -103.5s104.167 -36.5 169.5 -36.5c43.333 0 82.333 4.5 117 13.5s63.334 19.833 86.001 32.5v-101c-20 -11.333 -48.333 -21.333 -85 -30s-76 -13 -118 -13c-86 0 -161.5 16 -226.5 48zM491.502 191.002c13.667 30.667 20.499 66 20.499 106
c0 25.333 -5.66699 45.833 -17 61.5s-27.666 23.5 -48.999 23.5c-23.333 0 -42.833 -12.833 -58.5 -38.5s-23.5 -59.5 -23.5 -101.5c0 -30.667 5.5 -54.5 16.5 -71.5s27.5 -25.5 49.5 -25.5c27.333 0 47.833 15.333 61.5 46z" />
    <glyph glyph-name="A" unicode="A" horiz-adv-x="729" 
d="M0 1c14 18.667 28.333 45.665 43 80.998l232 558c7.33301 18 12.5 31.833 15.5 41.5s4.83301 15.834 5.5 18.501h128c1.33301 -5.33301 4.66602 -15 9.99902 -29l12 -31l247 -558c8 -18 16.333 -34.5 25 -49.5s15.334 -25.5 20.001 -31.5v-1h-166c-2 4 -5 11.833 -9 23.5
s-10 26.167 -18 43.5l-42 96h-277l-39 -96c-14.667 -37.333 -22 -59.666 -22 -66.999h-165v1zM448 296.998l-90 199l-82 -199h172z" />
    <glyph glyph-name="B" unicode="B" horiz-adv-x="593" 
d="M252 -4.5c-30.667 1 -53.999 1.83691 -69.999 2.50391l-43 2h-74c3.33301 52 5 100.667 5 146v408c0 49.333 -1.66699 98 -5 146h222c74 0 133.333 -14.833 178 -44.5s67 -77.834 67 -144.501c0 -36.667 -9.83301 -68.834 -29.5 -96.501s-45.834 -46.167 -78.501 -55.5
v-2c40.667 -6.66699 73.5 -25.334 98.5 -56.001s37.5 -67.334 37.5 -110.001c0 -67.333 -22.167 -117 -66.5 -149s-101.166 -48 -170.499 -48c-16.667 0 -40.334 0.5 -71.001 1.5zM293.001 419.004c29.333 0 51.668 7.5 67.001 22.5s23 35.833 23 62.5
c0 20 -7.83301 35.5 -23.5 46.5s-36.834 16.5 -63.501 16.5h-78l-1 -16v-132h76zM384.003 145.504c18.667 15 28 35.834 28 62.501c0 25.333 -9.5 44.666 -28.5 57.999s-43.5 20 -73.5 20h-93v-144c0 -6 0.333008 -10.667 1 -14c20 -3.33301 48 -5 84 -5s63.333 7.5 82 22.5
z" />
    <glyph glyph-name="C" unicode="C" horiz-adv-x="689" 
d="M228.5 36c-58.333 29.333 -104.83 71.3311 -139.497 125.998s-52 117.667 -52 189c0 72 17.333 135.167 52 189.5s81.167 96.166 139.5 125.499s122.166 44 191.499 44c48.667 0 90.5 -5 125.5 -15s67.833 -23 98.5 -39v-187h-3c-22 22.667 -42 41.167 -60 55.5
s-40.333 26.5 -67 36.5s-58 15 -94 15c-42.667 0 -81.834 -9.66699 -117.501 -29s-64 -46.166 -85 -80.499s-31.5 -72.833 -31.5 -115.5s10.5 -81.167 31.5 -115.5s49.5 -61.166 85.5 -80.499s75 -29 117 -29c36 0 67.333 4.83301 94 14.5s49.167 21.834 67.5 36.501
s38.166 33 59.499 55h3v-186c-29.333 -16 -61.833 -29 -97.5 -39s-77.834 -15 -126.501 -15c-69.333 0 -133.166 14.667 -191.499 44z" />
    <glyph glyph-name="D" unicode="D" horiz-adv-x="711" 
d="M258.5 -4.5c-19 1 -32.832 1.5 -41.499 1.5c-26 2 -51 3 -75 3h-77c3.33301 52 5 100.667 5 146v408c0 49.333 -1.66699 98 -5 146h247c72 0 135.5 -14.833 190.5 -44.5s97.833 -71.167 128.5 -124.5s46 -114 46 -182c0 -67.333 -15.5 -128 -46.5 -182
s-74.333 -96.333 -130 -127s-118.834 -46 -189.501 -46c-16 0 -33.5 0.5 -52.5 1.5zM422.501 157c33.667 19.333 59.6689 45.667 78.002 79s27.5 70.333 27.5 111c0 42 -9.16699 79.667 -27.5 113s-44.833 59.5 -79.5 78.5s-75.334 28.5 -122.001 28.5h-81l-1 -31v-374
c0 -10.667 0.666992 -17.667 2 -21s4.66602 -5.66602 9.99902 -6.99902c8 -2.66699 18.5 -4.33398 31.5 -5.00098s27.5 -1 43.5 -1c45.333 0 84.833 9.66699 118.5 29z" />
    <glyph glyph-name="E" unicode="E" horiz-adv-x="587" 
d="M70 146v407.998c0 49.333 -1.66699 98 -5 146h473l4 -138c-48.667 3.33301 -93 5 -133 5h-193c0.666992 -4.66699 1 -10.667 1 -18v-131h146c53.333 0 98.333 1.66699 135 5v-142c-39.333 4.66699 -84 6.33398 -134 5.00098h-147v-130
c0 -9.33301 -0.333008 -16.666 -1 -21.999h196c52.667 0 97.667 1.66699 135 5l-4 -139h-478c3.33301 52 5 100.667 5 146z" />
    <glyph glyph-name="F" unicode="F" horiz-adv-x="578" 
d="M70 146l0.000976562 407.999c0 49.333 -1.66699 98 -5 146h482l4 -138c-6.66699 0 -17.334 0.666992 -32.001 2c-11.333 0.666992 -25.5 1.33398 -42.5 2.00098s-36.5 1 -58.5 1h-202c0.666992 -6 1 -13.667 1 -23v-137h156c20 0 50 1.33301 90 4c10 0 25 0.666992 45 2
v-144c-20 1.33301 -35 2 -45 2c-40 2.66699 -70 4 -90 4h-156v-129c0 -45.333 1.66699 -94 5 -146h-157c3.33301 52 5 100.667 5 146z" />
    <glyph glyph-name="G" unicode="G" horiz-adv-x="722" 
d="M225 35c-56.667 28.667 -102.166 70.1689 -136.499 124.502s-51.5 118.166 -51.5 191.499c0 71.333 17.667 134.333 53 189s82.5 96.667 141.5 126s122.833 44 191.5 44c86.667 0 163.334 -18 230.001 -54v-187h-2c-32 33.333 -65 59.5 -99 78.5s-77 28.5 -129 28.5
c-42 0 -81.167 -9.66699 -117.5 -29s-65.333 -46.166 -87 -80.499s-32.5 -72.833 -32.5 -115.5c0 -44.667 10.667 -84 32 -118s50.5 -60.167 87.5 -78.5s78.167 -27.5 123.5 -27.5c16 0 31.167 1.66699 45.5 5s32.833 8.33301 55.5 15v36c0 26 -1 52 -3 78
c-1.33301 26.667 -2 46.667 -2 60h152l-2 -37c-0.666992 -11.333 -1.33398 -25.333 -2.00098 -42s-1 -36.334 -1 -59.001v-37c0 -30.667 2 -79.334 6 -146.001c-21.333 0 -47.333 0.666992 -78 2c-26.667 1.33301 -45.334 2 -56.001 2c-12.667 0 -33 -2 -61 -6
c-29.333 -4 -53.666 -6 -72.999 -6c-66.667 0 -128.334 14.333 -185.001 43z" />
    <glyph glyph-name="H" unicode="H" horiz-adv-x="744" 
d="M70 146v408.001c0 49.333 -1.66699 98 -5 146h157c-3.33301 -48 -5 -96.667 -5 -146v-135h315v135c0 39.333 -2 88 -6 146h157l-1 -30c-2.66699 -41.333 -4 -80 -4 -116v-408c0 -10 1 -47 3 -111c1.33301 -18.667 2 -30.334 2 -35.001h-157c4 62 6 110.667 6 146v139
h-315v-139c0 -45.333 1.66699 -94 5 -146h-157c3.33301 52 5 100.667 5 146z" />
    <glyph glyph-name="I" unicode="I" horiz-adv-x="283" 
d="M70 146v408c0 49.333 -1.66699 98 -5 146h157c-3.33301 -48 -5 -96.667 -5 -146v-408c0 -45.333 1.66699 -94 5 -146h-157c3.33301 52 5 100.667 5 146z" />
    <glyph glyph-name="J" unicode="J" horiz-adv-x="457" 
d="M23 24l0.00292969 174h2c18.667 -22.667 40.167 -40.5 64.5 -53.5s51.166 -19.5 80.499 -19.5c22.667 0 41.5 6.16699 56.5 18.5s22.5 31.5 22.5 57.5v353c0 20 -0.333008 38 -1 54s-1.33398 29.333 -2.00098 40l-3 52h157l-2 -39
c-0.666992 -12.667 -1.33398 -28 -2.00098 -46s-1 -38.333 -1 -61v-364c0 -68 -21.167 -118.167 -63.5 -150.5s-97.833 -48.5 -166.5 -48.5c-50.667 0 -98 11 -142 33z" />
    <glyph glyph-name="K" unicode="K" horiz-adv-x="632" 
d="M70 146v408c0 49.333 -1.66699 98 -5 146h157c-3.33301 -48 -5 -96.667 -5 -146v-202l189 268c10.667 14 20.5 30 29.5 48s14.5 28.667 16.5 32h177l-241 -351l252 -349h-188l-17.5 34c-9 17.333 -18.5 32.333 -28.5 45l-189 267v-200c0 -45.333 1.66699 -94 5 -146h-157
c3.33301 52 5 100.667 5 146z" />
    <glyph glyph-name="L" unicode="L" horiz-adv-x="556" 
d="M70 146v408c0 49.333 -1.66699 98 -5 146h157c-3.33301 -48 -5 -96.667 -5 -146v-396c0 -10.667 -0.333008 -18.667 -1 -24h217c50 0 88.333 1.66699 115 5l-4 -139h-479c3.33301 52 5 100.667 5 146z" />
    <glyph glyph-name="M" unicode="M" horiz-adv-x="909" 
d="M70 146v407.998c0 50.667 -1.33301 99.334 -4 146.001h214l177 -508h1l172 508h218c-3.33301 -48 -5 -96.667 -5 -146v-408c0 -45.333 1.66699 -94 5 -146h-157c4 62 6 110.667 6 146v338h-1l-162 -484h-151l-166 476h-1v-330c0 -45.333 1.66699 -94 5 -146h-155
c2.66699 50.667 4 99.334 4 146.001z" />
    <glyph glyph-name="N" unicode="N" horiz-adv-x="762" 
d="M69 39c0.666992 12.667 1.33398 28 2.00098 46s1 38.333 1 61v478c0 14.667 -8.66699 40 -26 76h155l362 -452h1v306c0 20 -0.333008 38 -1 54s-1.33398 29.333 -2.00098 40l-3 52h143l-2 -39c-0.666992 -12.667 -1.33398 -28 -2.00098 -46s-1 -38.333 -1 -61v-408
c0 -22.667 0.333008 -43 1 -61s1.33398 -33.333 2.00098 -46l2 -39h-132l-364 461h-1v-315c0 -51.333 2 -100 6 -146h-143z" />
    <glyph glyph-name="O" unicode="O" horiz-adv-x="794" 
d="M216 39c-55.333 31.333 -99 74.333 -131 129s-48 115.667 -48 183s16 128.333 48 183s75.667 97.667 131 129s116.333 47 183 47s127.667 -15.667 183 -47s99 -74.333 131 -129s48 -115.667 48 -183s-16 -128.333 -48 -183s-75.667 -97.667 -131 -129
s-116.333 -47 -183 -47s-127.667 15.667 -183 47zM506.5 155.5c32.333 19.667 58 46.834 77 81.501s28.5 72.667 28.5 114s-9.5 79.333 -28.5 114s-44.667 61.834 -77 81.501s-68.166 29.5 -107.499 29.5s-75.166 -9.83301 -107.499 -29.5s-58 -46.834 -77 -81.501
s-28.5 -72.667 -28.5 -114s9.5 -79.333 28.5 -114s44.667 -61.834 77 -81.501s68.166 -29.5 107.499 -29.5s75.166 9.83301 107.499 29.5z" />
    <glyph glyph-name="P" unicode="P" horiz-adv-x="568" 
d="M67 39c0.666992 12.667 1.33301 28 2 46s1 38.333 1 61v408c0 22.667 -0.333008 43 -1 61s-1.33398 33.333 -2.00098 46l-2 39h220c46 0 89 -8.66699 129 -26s72.333 -42.5 97 -75.5s37 -72.5 37 -118.5c0 -46.667 -12 -87.667 -36 -123s-55.833 -62.333 -95.5 -81
s-82.5 -28 -128.5 -28c-17.333 0 -41 1 -71 3v-105c0 -22.667 0.333008 -43 1 -61s1.33398 -33.333 2.00098 -46l2 -39h-157zM368.499 407.5c20.333 17 30.5 41.167 30.5 72.5c0 30.667 -10.167 52.667 -30.5 66s-46.5 20 -78.5 20h-73v-180
c11.333 -2.66699 32.333 -4 63 -4c38.667 0 68.167 8.5 88.5 25.5z" />
    <glyph glyph-name="Q" unicode="Q" horiz-adv-x="794" 
d="M528 -97c-20.667 8.66699 -57.668 26.6689 -111.001 54.002c-40 20.667 -66.667 34 -80 40c-57.333 8.66699 -108.666 29.5 -153.999 62.5s-81 74.833 -107 125.5s-39 106 -39 166c0 67.333 16 128.333 48 183s75.667 97.667 131 129s116.333 47 183 47
s127.667 -15.667 183 -47s99 -74.333 131 -129s48 -115.667 48 -183c0 -72.667 -18.667 -137.834 -56 -195.501s-87 -100.834 -149 -129.501v-1c8 -4 25.333 -10.333 52 -19c45.333 -13.333 100 -23 164 -29l-85 -129c-46.667 12.667 -99.667 31 -159 55zM506.499 155.502
c32.333 19.667 58 46.834 77 81.501s28.5 72.667 28.5 114s-9.5 79.333 -28.5 114s-44.667 61.834 -77 81.501s-68.166 29.5 -107.499 29.5s-75.166 -9.83301 -107.499 -29.5s-58 -46.834 -77 -81.501s-28.5 -72.667 -28.5 -114s9.5 -79.333 28.5 -114
s44.667 -61.834 77 -81.501s68.166 -29.5 107.499 -29.5s75.166 9.83301 107.499 29.5z" />
    <glyph glyph-name="R" unicode="R" horiz-adv-x="619" 
d="M67 48c0.666992 9.33301 1.33301 20.499 2 33.499s1 28.167 1 45.5v446c0 17.333 -0.333008 32.5 -1 45.5s-1.33398 24.167 -2.00098 33.5l-3 48h242c46 0 86.5 -9.83301 121.5 -29.5s61.833 -46.167 80.5 -79.5s28 -69.666 28 -108.999
c0 -44 -12.833 -83.667 -38.5 -119s-57.5 -60 -95.5 -74v-1c25.333 -8.66699 46.333 -26.334 63 -53.001l61 -102c30 -47.333 61.333 -91.333 94 -132v-1h-190c-21.333 47.333 -43.333 90.333 -66 129l-51 84c-10 16 -22.5 27.667 -37.5 35s-33.5 11 -55.5 11h-3v-132
c0 -22 1 -44 3 -66c0.666992 -6.66699 1.33398 -16.167 2.00098 -28.5s1 -23.166 1 -32.499h-159zM360.999 412.999c17.333 16.667 25.999 39.667 25.999 69c0 24.667 -8.83301 45 -26.5 61s-42.5 24 -74.5 24h-69v-175c14.667 -2.66699 28.334 -4 41.001 -4h25
c34.667 0 60.667 8.33301 78 25z" />
    <glyph glyph-name="S" unicode="S" horiz-adv-x="566" 
d="M155 3.5c-36 7.66699 -68.3311 18.8311 -96.998 33.498v198h2c30 -36 64.167 -63.167 102.5 -81.5s77.166 -27.5 116.499 -27.5c33.333 0 58.833 6.83301 76.5 20.5s26.5 31.167 26.5 52.5c0 17.333 -7.33301 32.5 -22 45.5s-39.334 26.5 -74.001 40.5l-91 36
c-49.333 20 -85.833 44.333 -109.5 73s-35.5 67.334 -35.5 116.001c0 40.667 11 76.167 33 106.5s51.333 53.333 88 69s77 23.5 121 23.5c72 0 138 -12.333 198 -37v-196h-2c-21.333 28.667 -49 52.334 -83 71.001s-71 28 -111 28c-28 0 -50.833 -5.5 -68.5 -16.5
s-26.5 -24.833 -26.5 -41.5c0 -17.333 6.16699 -30.833 18.5 -40.5s36.833 -21.834 73.5 -36.501l91 -37c54 -21.333 92.167 -47.666 114.5 -78.999s33.5 -71 33.5 -119c0 -43.333 -11 -81 -33 -113s-52.667 -56.667 -92 -74s-85 -26 -137 -26
c-39.333 0 -77 3.83301 -113 11.5z" />
    <glyph glyph-name="T" unicode="T" horiz-adv-x="599" 
d="M229 140v426h-76c-22 0 -41.667 -0.333008 -59 -1s-32 -1.33398 -44 -2.00098l-36 -2v139h575v-139l-36 2c-12 0.666992 -26.667 1.33398 -44 2.00098s-37 1 -59 1h-75v-426c0 -33.333 2 -80 6 -140h-157c3.33301 50 5 96.667 5 140z" />
    <glyph glyph-name="U" unicode="U" horiz-adv-x="728" 
d="M208 26c-45.333 22.667 -81 56.999 -107 102.999s-39 103 -39 171v254c0 49.333 -1.66699 98 -5 146h157c-4 -58 -6 -106.667 -6 -146v-244c0 -58 13.333 -103.167 40 -135.5s65 -48.5 115 -48.5c48.667 0 87.667 16.5 117 49.5s44 77.833 44 134.5v244
c0 36 -1.33301 74.667 -4 116l-1 30h156l-1 -30c-2.66699 -41.333 -4 -80 -4 -116v-254c0 -67.333 -13.5 -124.166 -40.5 -170.499s-63.667 -80.833 -110 -103.5s-98.5 -34 -156.5 -34s-109.667 11.333 -155 34z" />
    <glyph glyph-name="V" unicode="V" horiz-adv-x="716" 
d="M263 60l-215 557.999c-14.667 40.667 -30 68 -46 82h181c3.33301 -15.333 10 -37.666 20 -66.999l158 -454h1l157 454c11.333 34.667 18 57 20 67h179c-16.667 -18.667 -32 -46 -46 -82l-215 -558c-10.667 -28.667 -17.667 -48.667 -21 -60h-152z" />
    <glyph glyph-name="W" unicode="W" horiz-adv-x="984" 
d="M256 60l-206 557.999c-14 38 -29.333 65.333 -46 82h163l177 -510h1l76 189l-95 239c-8 20.667 -16.167 38 -24.5 52s-15.5 24 -21.5 30h163l50 -140h1l55 140h163c-14.667 -17.333 -30 -44.666 -46 -81.999l-103 -240l69 -188h1l192 510h163
c-7.33301 -8 -14.333 -17.667 -21 -29s-15 -29 -25 -53l-224 -558c-11.333 -30 -18.333 -50 -21 -60h-128c-1.33301 6 -8.33301 26 -21 60l-57 147h-1l-63 -147c-10.667 -25.333 -17.667 -45.333 -21 -60h-128c-2 6.66699 -9.33301 26.667 -22 60z" />
    <glyph glyph-name="X" unicode="X" horiz-adv-x="635" 
d="M19.5 22.5c9 13 19.1689 28.834 30.502 47.501l176 285l-164 262c-10.667 17.333 -21.334 33.666 -32.001 48.999s-19 26.666 -25 33.999h173c4.66699 -13.333 16.334 -35 35.001 -65l106 -178h1l107 178c20 32.667 31.667 54.334 35 65.001h172
c-16 -20.667 -35 -48.334 -57 -83.001l-164 -263l176 -284c24.667 -39.333 40.667 -62.666 48 -69.999h-166c-4.66699 15.333 -14.334 35.333 -29.001 60l-121 200h-1l-122 -200c-14.667 -24.667 -24.334 -44.667 -29.001 -60h-167c2.66699 2 8.5 9.5 17.5 22.5z" />
    <glyph glyph-name="Y" unicode="Y" horiz-adv-x="674" 
d="M264 146l0.000976562 146.001l-199 325c-27.333 44 -45 71.667 -53 83h168c7.33301 -21.333 17.666 -43.666 30.999 -66.999l127 -218h1l132 218c18.667 31.333 29.667 53.666 33 66.999h163c-9.33301 -12.667 -27.333 -40.334 -54 -83.001l-202 -325v-146
c0 -45.333 1.66699 -94 5 -146h-157c3.33301 52 5 100.667 5 146z" />
    <glyph glyph-name="Z" unicode="Z" horiz-adv-x="685" 
d="M626 -4c-48 2.66699 -84.999 4 -110.999 4h-488v103l403 462v1h-234c-25.333 0 -62 -1.33301 -110 -4l-30 -1v144c13.333 0 32.666 -0.666992 57.999 -2c28 -2 55.333 -3 82 -3h446v-110l-391 -455v-1h264c26 0 63 1.33301 111 4l30 1v-144z" />
    <glyph glyph-name="bracketleft" unicode="[" horiz-adv-x="350" 
d="M66 700h256v-116h-116v-576h116v-128h-256v820z" />
    <glyph glyph-name="backslash" unicode="\" horiz-adv-x="648" 
d="M18 800h155l462 -874h-155z" />
    <glyph glyph-name="bracketright" unicode="]" horiz-adv-x="350" 
d="M32 -4h116v576h-116v128h256v-820h-256v116z" />
    <glyph glyph-name="asciicircum" unicode="^" horiz-adv-x="545" 
d="M220 700h108l177 -200h-148l-83 94l-83 -94h-148z" />
    <glyph glyph-name="underscore" unicode="_" horiz-adv-x="562" 
d="M38 -43h490v-118h-490v118z" />
    <glyph glyph-name="grave" unicode="`" horiz-adv-x="358" 
d="M52 700h165l93 -120h-122z" />
    <glyph glyph-name="a" unicode="a" horiz-adv-x="518" 
d="M115 11c-26 12.667 -46.6709 31.168 -62.0039 55.501s-23 52.833 -23 85.5c0 40 14 72.167 42 96.5s67.667 39.5 119 45.5l143 17c-2 48 -31 72 -87 72c-28.667 0 -57.834 -5.83301 -87.501 -17.5s-56.167 -25.5 -79.5 -41.5h-2v139
c20.667 11.333 46.834 21.666 78.501 30.999s64.834 14 99.501 14c61.333 0 111.833 -14.167 151.5 -42.5s59.5 -77.5 59.5 -147.5v-180v-42c0 -20.667 1.33301 -37.667 4 -51s8.33398 -28.333 17.001 -45h-145c-7.33301 14 -11.666 26.333 -12.999 37h-1
c-27.333 -30 -69.666 -45 -126.999 -45c-32 0 -61 6.33301 -87 19zM303.996 118.501c20 14.333 30 34.833 30 61.5v26l-106 -15c-38 -5.33301 -57 -19.666 -57 -42.999c0 -14.667 5.5 -26.834 16.5 -36.501s26.833 -14.5 47.5 -14.5c26 0 49 7.16699 69 21.5z" />
    <glyph glyph-name="b" unicode="b" horiz-adv-x="609" 
d="M246.5 9.5c-23 11.667 -40.833 25.832 -53.5 42.499h-1c-6.66699 -24 -13.667 -41.333 -21 -52h-118c3.33301 52 5 100.333 5 145v460c0 49.333 -1.66699 98 -5 146h152l-1 -30c-2.66699 -41.333 -4 -80 -4 -116v-148h1c32.667 34 75 51 127 51
c51.333 0 96 -11.167 134 -33.5s67.167 -53.166 87.5 -92.499s30.5 -83.333 30.5 -132c0 -49.333 -10.167 -93.5 -30.5 -132.5s-49.5 -69.667 -87.5 -92s-82.667 -33.5 -134 -33.5c-31.333 0 -58.5 5.83301 -81.5 17.5zM403.5 161.998c23 23.333 34.5 52.668 34.5 88.001
s-11.5 64.666 -34.5 87.999s-51.833 35 -86.5 35c-32.667 0 -60.334 -12 -83.001 -36s-34 -53 -34 -87s11.333 -63 34 -87s50.334 -36 83.001 -36c34.667 0 63.5 11.667 86.5 35z" />
    <glyph glyph-name="c" unicode="c" horiz-adv-x="487" 
d="M162 24c-40.667 21.333 -72.333 51.498 -95 90.498s-34 84.167 -34 135.5c0 49.333 11.333 93.5 34 132.5s54.167 69.667 94.5 92s86.166 33.5 137.499 33.5c26.667 0 53.334 -2.5 80.001 -7.5s49 -13.167 67 -24.5v-169h-2c-28 44 -73.333 66 -136 66
c-36.667 0 -68 -11.667 -94 -35s-39 -52.666 -39 -87.999c0 -37.333 12.667 -67.166 38 -89.499s57 -33.5 95 -33.5c62 0 107.333 22 136 66h2v-170c-18 -10.667 -40.5 -18.5 -67.5 -23.5s-52.833 -7.5 -77.5 -7.5c-52 0 -98.333 10.667 -139 32z" />
    <glyph glyph-name="d" unicode="d" horiz-adv-x="609" 
d="M151 25.5c-38 22.333 -67.167 53.002 -87.5 92.002s-30.5 83.167 -30.5 132.5c0 48.667 10.167 92.667 30.5 132s49.5 70.166 87.5 92.499s82.667 33.5 134 33.5c52 0 94.333 -17 127 -51h1v148c0 36 -1.33301 74.667 -4 116l-1 30h152c-3.33301 -48 -5 -96.667 -5 -146
v-460c0 -44.667 1.66699 -93 5 -145h-118c-7.33301 10.667 -14.333 28 -21 52h-1c-12.667 -16.667 -30.5 -30.834 -53.5 -42.501s-50.167 -17.5 -81.5 -17.5c-51.333 0 -96 11.167 -134 33.5zM379 163.002c22.667 24 34 52.998 34 86.998s-11.333 63 -34 87
s-50.334 36 -83.001 36c-34.667 0 -63.5 -11.667 -86.5 -35s-34.5 -52.666 -34.5 -87.999s11.5 -64.666 34.5 -87.999s51.833 -35 86.5 -35c32.667 0 60.334 12 83.001 36z" />
    <glyph glyph-name="e" unicode="e" horiz-adv-x="546" 
d="M156 24.5c-39.333 21.667 -69.6699 52.002 -91.0029 91.002s-32 83.833 -32 134.5c0 48.667 10.833 92.667 32.5 132s51.334 70.166 89.001 92.499s78.834 33.5 123.501 33.5s85.334 -10.5 122.001 -31.5s65.667 -51.167 87 -90.5s32 -85.333 32 -138
c0 -24 -2 -42.667 -6 -56h-337c6 -22 19.5 -39.833 40.5 -53.5s48.167 -20.5 81.5 -20.5c20.667 0 40.5 4 59.5 12s34.167 18 45.5 30l81 -102c-20.667 -20.667 -48.5 -36.834 -83.5 -48.501s-70.5 -17.5 -106.5 -17.5c-52.667 0 -98.667 10.833 -138 32.5zM382.996 310.002
c-2.66699 23.333 -13.501 42.5 -32.501 57.5s-42.833 22.5 -71.5 22.5c-26.667 0 -49.667 -7.66699 -69 -23s-31.666 -34.333 -36.999 -57h210z" />
    <glyph glyph-name="f" unicode="f" horiz-adv-x="436" 
d="M112 35c2 64 3 100.999 3 110.999v236h-2c-20 0 -50 -2 -90 -6v128c37.333 -2.66699 67 -4 89 -4h3v63c0 44 9.16699 80.667 27.5 110s42.333 51 72 65s61.167 21 94.5 21c50.667 0 94 -11 130 -33v-139h-2c-15.333 11.333 -31 20.5 -47 27.5s-34 10.5 -54 10.5
c-24.667 0 -44 -7 -58 -21s-21 -35.667 -21 -65v-39h19c48.667 0 98.667 1.66699 150 5v-129c-62 4 -112 6 -150 6h-19v-236c0 -45.333 1.66699 -94 5 -146h-152c0 4.66699 0.666992 16.334 2 35.001z" />
    <glyph glyph-name="g" unicode="g" horiz-adv-x="505" 
d="M96 -177c-43.333 20.667 -65.002 49.665 -65.002 86.998c0 28 15.667 49.333 47 64v1c-14 14 -24.5 28.5 -31.5 43.5s-10.5 32.5 -10.5 52.5c0 22.667 6.5 43.334 19.5 62.001s30.833 32.667 53.5 42v1c-20 18 -35.5 39 -46.5 63s-16.5 50 -16.5 78
c0 35.333 8.83301 67.666 26.5 96.999s41.667 52.333 72 69s63.166 25 98.499 25c24 0 55 -3.66699 93 -11c18.667 -3.33301 31.334 -5 38.001 -5c23.333 0 58.333 8.33301 105 25h2v-109c-8 -4 -18.667 -6 -32 -6c-9.33301 0 -20.666 2 -33.999 6v-3
c8.66699 -12.667 14.834 -27 18.501 -43s5.5 -31 5.5 -45c0 -36 -8.66699 -68.5 -26 -97.5s-41 -51.667 -71 -68s-63 -24.5 -99 -24.5l-67 -1c-16.667 0 -25 -7.66699 -25 -23c0 -7.33301 2.5 -13.166 7.5 -17.499s11.5 -6.5 19.5 -6.5h183c44 0 79 -11 105 -33
s39 -51.667 39 -89c0 -55.333 -21.833 -96.666 -65.5 -123.999s-102.167 -41 -175.5 -41c-68.667 0 -124.667 10.333 -168 31zM291.998 266.498c14.667 13.667 22 30.5 22 50.5s-7.33301 36.667 -22 50s-31 20 -49 20s-34.333 -6.66699 -49 -20s-22 -30 -22 -50
s7.33301 -36.833 22 -50.5s31 -20.5 49 -20.5s34.333 6.83301 49 20.5zM345.498 -98.002c17 4.66699 25.499 13.333 25.499 26c0 6.66699 -3.33301 12 -10 16s-14 6 -22 6h-139c-10.667 0 -19.167 -1.83301 -25.5 -5.5s-9.5 -8.5 -9.5 -14.5
c0 -13.333 7.33301 -22.5 22 -27.5s40.334 -7.5 77.001 -7.5c37.333 0 64.5 2.33301 81.5 7z" />
    <glyph glyph-name="h" unicode="h" horiz-adv-x="575" 
d="M55 35c2 64 3.00098 100.999 3.00098 110.999v459c0 49.333 -1.66699 98 -5 146h153c-4 -58 -6 -106.667 -6 -146v-148h1c16.667 15.333 36.167 27.666 58.5 36.999s44.833 14 67.5 14c63.333 0 112.5 -18.5 147.5 -55.5s52.5 -91.833 52.5 -164.5v-142
c0 -45.333 1.66699 -94 5 -146h-153c4 62 6 110.667 6 146v112c0 36.667 -7.83301 65 -23.5 85s-36.834 30 -63.501 30c-28 0 -51.333 -9.16699 -70 -27.5s-28 -48.166 -28 -89.499v-110c0 -45.333 1.66699 -94 5 -146h-152c0 4.66699 0.666992 16.334 2 35.001z" />
    <glyph glyph-name="i" unicode="i" horiz-adv-x="254" 
d="M55 35c2 64 3 100.999 3 110.999v208c0 36 -1.33301 74.667 -4 116l-1 30h152c-3.33301 -48 -5 -96.667 -5 -146v-208c0 -45.333 1.66699 -94 5 -146h-152c0 4.66699 0.666992 16.334 2 35.001zM73.5 582.999c-15 14.667 -22.5 33 -22.5 55c0 22.667 7.5 41.5 22.5 56.5
s33.5 22.5 55.5 22.5s40.5 -7.5 55.5 -22.5s22.5 -33.833 22.5 -56.5c0 -22 -7.5 -40.333 -22.5 -55s-33.5 -22 -55.5 -22s-40.5 7.33301 -55.5 22z" />
    <glyph glyph-name="j" unicode="j" horiz-adv-x="262" 
d="M-91 -178l-0.000976562 142h3c26.667 -25.333 57.667 -38 93 -38c20.667 0 36 5.16699 46 15.5s15 24.5 15 42.5v370c0 39.333 -2 88 -6 146h153c-3.33301 -48 -5 -96.667 -5 -146v-373c0 -64 -17.167 -111.5 -51.5 -142.5s-78.166 -46.5 -131.499 -46.5
c-41.333 0 -80 10 -116 30zM81.499 583c-15 14.667 -22.5 33 -22.5 55c0 22.667 7.5 41.5 22.5 56.5s33.5 22.5 55.5 22.5s40.5 -7.5 55.5 -22.5s22.5 -33.833 22.5 -56.5c0 -22 -7.5 -40.333 -22.5 -55s-33.5 -22 -55.5 -22s-40.5 7.33301 -55.5 22z" />
    <glyph glyph-name="k" unicode="k" horiz-adv-x="534" 
d="M58 146l-0.000976562 459c0 49.333 -1.66699 98 -5 146h153c-4 -58 -6 -106.667 -6 -146v-325l106 159c2.66699 4 8.33398 13.667 17.001 29l20 32h184l-172 -231l188 -269h-191l-20 35l-14 26l-118 196v-111c0 -35.333 2 -84 6 -146h-153c3.33301 52 5 100.667 5 146z
" />
    <glyph glyph-name="l" unicode="l" horiz-adv-x="254" 
d="M58 146v459c0 49.333 -1.66699 98 -5 146h153c-4 -58 -6 -106.667 -6 -146v-459c0 -35.333 2 -84 6 -146h-153c3.33301 52 5 100.667 5 146z" />
    <glyph glyph-name="m" unicode="m" horiz-adv-x="886" 
d="M55 35c2 64 3 100.997 3 110.997v208c0 36 -1.33301 74.667 -4 116l-1 30h130l5 -47h1c15.333 17.333 33.833 30.833 55.5 40.5s43.5 14.5 65.5 14.5c72.667 0 127.667 -23.667 165 -71c15.333 23.333 36.666 41 63.999 53s58 18 92 18c64 0 114.5 -19.167 151.5 -57.5
s55.5 -95.166 55.5 -170.499v-134c0 -35.333 2 -84 6 -146h-153c3.33301 52 5 100.667 5 146v123c0 35.333 -9 61.5 -27 78.5s-39.333 25.5 -64 25.5c-28 0 -49.5 -8 -64.5 -24s-22.5 -43.333 -22.5 -82v-121c0 -45.333 1.66699 -94 5 -146h-152
c0 4.66699 0.666992 16.334 2 35.001c2 64 3 101 3 111v123c0 35.333 -9 61.5 -27 78.5s-39.667 25.5 -65 25.5c-23.333 0 -43.166 -8.83301 -59.499 -26.5s-24.5 -44.167 -24.5 -79.5v-121c0 -45.333 1.66699 -94 5 -146h-152c0 4.66699 0.666992 16.334 2 35.001z" />
    <glyph glyph-name="n" unicode="n" horiz-adv-x="575" 
d="M55 35c2 64 3.00098 100.998 3.00098 110.998v208c0 36 -1.33301 74.667 -4 116l-1 30h130l7 -53h1c16 18.667 36.333 33.5 61 44.5s49.667 16.5 75 16.5c63.333 0 112.5 -18.5 147.5 -55.5s52.5 -91.833 52.5 -164.5v-142c0 -45.333 1.66699 -94 5 -146h-153
c4 62 6 110.667 6 146v112c0 36.667 -7.83301 65 -23.5 85s-36.834 30 -63.501 30c-28 0 -51.333 -9.16699 -70 -27.5s-28 -48.166 -28 -89.499v-110c0 -45.333 1.66699 -94 5 -146h-152c0 4.66699 0.666992 16.334 2 35.001z" />
    <glyph glyph-name="o" unicode="o" horiz-adv-x="580" 
d="M160.5 26c-39.667 22.667 -71 53.667 -94 93s-34.5 83 -34.5 131s11.5 91.667 34.5 131s54.333 70.333 94 93s83.5 34 131.5 34c48.667 0 92.834 -11.333 132.501 -34s70.834 -53.667 93.501 -93s34 -83 34 -131c0 -48.667 -11.333 -92.5 -34 -131.5
s-53.834 -69.833 -93.501 -92.5s-83.834 -34 -132.501 -34c-48 0 -91.833 11.333 -131.5 34zM376 162c22.667 23.333 34 52.666 34 87.999s-11.333 64.666 -34 87.999s-50.667 35 -84 35c-32.667 0 -60.5 -11.667 -83.5 -35s-34.5 -52.666 -34.5 -87.999
s11.5 -64.666 34.5 -87.999s50.833 -35 83.5 -35c33.333 0 61.333 11.667 84 35z" />
    <glyph glyph-name="p" unicode="p" horiz-adv-x="609" 
d="M58 -54v408.999c0 45.333 -1.66699 93.666 -5 144.999h118c7.33301 -10.667 14.333 -28 21 -52h1c12.667 16.667 30.5 30.834 53.5 42.501s50.167 17.5 81.5 17.5c51.333 0 96 -11.167 134 -33.5s67.167 -53 87.5 -92s30.5 -83.167 30.5 -132.5
c0 -48.667 -10.167 -92.667 -30.5 -132s-49.5 -70.166 -87.5 -92.499s-82.667 -33.5 -134 -33.5c-52 0 -94.333 17 -127 51h-1v-97c0 -36 1.33301 -74.667 4 -116l1 -30h-152c3.33301 48 5 96.667 5 146zM403.5 161.999c23 23.333 34.5 52.668 34.5 88.001
s-11.5 64.666 -34.5 87.999s-51.833 35 -86.5 35c-32.667 0 -60.334 -12 -83.001 -36s-34 -53 -34 -87s11.333 -63 34 -87s50.334 -36 83.001 -36c34.667 0 63.5 11.667 86.5 35z" />
    <glyph glyph-name="q" unicode="q" horiz-adv-x="609" 
d="M409 -170c2.66699 41.333 4 80.001 4 116.001v97h-1c-32.667 -34 -75 -51 -127 -51c-51.333 0 -96 11.167 -134 33.5s-67.167 53.166 -87.5 92.499s-30.5 83.333 -30.5 132c0 49.333 10.167 93.5 30.5 132.5s49.5 69.667 87.5 92s82.667 33.5 134 33.5
c31.333 0 58.5 -5.83301 81.5 -17.5s40.833 -25.834 53.5 -42.501h1c6.66699 24 13.667 41.333 21 52h118c-3.33301 -51.333 -5 -99.666 -5 -144.999v-409c0 -49.333 1.66699 -98 5 -146h-152zM379 163.001c22.667 24 34 52.998 34 86.998s-11.333 63 -34 87
s-50.334 36 -83.001 36c-34.667 0 -63.5 -11.667 -86.5 -35s-34.5 -52.666 -34.5 -87.999s11.5 -64.666 34.5 -87.999s51.833 -35 86.5 -35c32.667 0 60.334 12 83.001 36z" />
    <glyph glyph-name="r" unicode="r" horiz-adv-x="382" 
d="M55 35c2 64 3 101 3 111v208c0 36 -1.33301 74.667 -4 116l-1 30h130l6 -49h1c15.333 17.333 34.333 31.166 57 41.499s47 15.5 73 15.5c19.333 0 35 -1.33301 47 -4v-161h-3c-20.667 20.667 -45 31 -73 31c-60.667 0 -91 -38.667 -91 -116v-112
c0 -45.333 1.66699 -94 5 -146h-152c0 4.66699 0.666992 16.334 2 35.001z" />
    <glyph glyph-name="s" unicode="s" horiz-adv-x="456" 
d="M133.5 1c-31.667 6.66699 -59.8369 14.334 -84.5039 23.001v150h3c26 -20 54.667 -36.667 86 -50s61.333 -20 90 -20c18.667 0 33.167 4 43.5 12s15.5 18.333 15.5 31c0 10 -5.5 18.5 -16.5 25.5s-27.5 13.833 -49.5 20.5l-45 13
c-43.333 12.667 -76.666 30.667 -99.999 54s-35 55 -35 95c0 49.333 17.833 87.166 53.5 113.499s83.834 39.5 144.501 39.5c24.667 0 51 -2.16699 79 -6.5s51.667 -10.833 71 -19.5v-144h-2c-19.333 15.333 -43.166 28.666 -71.499 39.999s-53.833 17 -76.5 17
c-21.333 0 -36.333 -3.33301 -45 -10s-13 -15 -13 -25c0 -9.33301 3.83301 -16.166 11.5 -20.499s21.5 -9.83301 41.5 -16.5l58 -18c45.333 -14 79 -32.333 101 -55s33 -54.667 33 -96c0 -54 -17.667 -94.667 -53 -122s-84.666 -41 -147.999 -41
c-29.333 0 -59.833 3.33301 -91.5 10z" />
    <glyph glyph-name="t" unicode="t" horiz-adv-x="437" 
d="M159 40c-34.667 32 -51.998 74.334 -51.998 127.001v214h-6c-22 0 -50.333 -1.33301 -85 -4v127c28 -2 56.667 -3 86 -3h5v23c0 46 -1.66699 94.667 -5 146h152c-3.33301 -51.333 -5 -100 -5 -146v-24h17c48 0 98 1.66699 150 5v-129c-62 4 -112 6 -150 6h-17v-181
c0 -49.333 25.667 -74 77 -74c16.667 0 33.167 2.66699 49.5 8s29.166 12 38.499 20h2v-145c-2 -0.666992 -15.5 -3.83398 -40.5 -9.50098s-52.5 -8.5 -82.5 -8.5c-54.667 0 -99.334 16 -134.001 48z" />
    <glyph glyph-name="u" unicode="u" horiz-adv-x="562" 
d="M53 195l-0.000976562 159c0 10 -1 47 -3 111c-1.33301 18.667 -2 30.334 -2 35.001h152c-3.33301 -51.333 -5 -100 -5 -146v-125c0 -68 27.333 -102 82 -102c26.667 0 48.167 10 64.5 30s24.5 46 24.5 78v119c0 35.333 -2 84 -6 146h153
c-3.33301 -51.333 -5 -100 -5 -146v-208c0 -48.667 1.66699 -97.334 5 -146.001h-130l-8 57h-1c-35.333 -43.333 -78.666 -65 -129.999 -65c-127.333 0 -191 67.667 -191 203z" />
    <glyph glyph-name="v" unicode="v" horiz-adv-x="517" 
d="M171 15l-9.00195 26l-130 405c-4 12.667 -8.83301 23.834 -14.5 33.501s-10.5 16.167 -14.5 19.5v1h172c-1.33301 -8 1.33398 -23.333 8.00098 -46l78 -276h1l78 276c6 21.333 9 36.666 9 45.999h168v-1c-11.333 -13.333 -20.666 -31 -27.999 -53l-130 -405l-9 -26
l-5 -15h-169z" />
    <glyph glyph-name="w" unicode="w" horiz-adv-x="789" 
d="M155 12.5c-0.666992 6.33301 -2.66797 15.8291 -6.00098 28.4961l-113 404c-3.33301 12.667 -7.83301 23.834 -13.5 33.501s-11.5 16.5 -17.5 20.5v1h170c0 -9.33301 2.66699 -24.666 8 -45.999l65 -266h1l64 266c4.66699 20.667 7.66699 36 9 46h153
c0 -11.333 2.33301 -26.666 7 -45.999l65 -266h1l64 266c4.66699 18.667 7.66699 34 9 46h167v-1c-4.66699 -3.33301 -10.167 -10.166 -16.5 -20.499s-11.166 -21.5 -14.499 -33.5l-113 -404c-0.666992 -3.33301 -2 -8.33301 -4 -15s-3 -12.334 -3 -17.001l1 -9h-170
c-2 16.667 -4.33301 30.334 -7 41.001l-64 269h-1l-64 -269c-4 -16 -6 -29.667 -6 -41h-170c0 2 -0.333008 6.16699 -1 12.5z" />
    <glyph glyph-name="x" unicode="x" horiz-adv-x="505" 
d="M11 14.5c6 7.66699 13.001 17.501 21.001 29.501l142 208l-125 194c-17.333 28 -30 46 -38 54h162c5.33301 -16.667 12.666 -32 21.999 -46l59 -92h1l59 92c14 21.333 21.333 36.666 22 45.999h162c-15.333 -20.667 -28 -38.667 -38 -54l-123 -193l140 -209
c20 -29.333 31 -44 33 -44h-165c-5.33301 14 -12.333 27.667 -21 41l-68 105h-1l-70 -105c-5.33301 -7.33301 -9.83301 -15 -13.5 -23s-6.16699 -14 -7.5 -18h-165c2 2 6 6.83301 12 14.5z" />
    <glyph glyph-name="y" unicode="y" horiz-adv-x="528" 
d="M100 -199c0.666992 1.33301 3.33301 5.33301 8 12s9.66699 17 15 31l73 188l-169 414c-8 18.667 -17.667 36.334 -29 53.001v1h163c-0.666992 -2 -1 -5 -1 -9c0 -10 3 -22.333 9 -37l101 -249h1l96 249c7.33301 18.667 10.333 34 9 46h157v-1l-14 -23
c-6 -10 -11 -20 -15 -30l-237 -604c-3.33301 -8.66699 -5 -16.334 -5 -23.001s1.33301 -12.667 4 -18v-1h-166v1z" />
    <glyph glyph-name="z" unicode="z" horiz-adv-x="509" 
d="M445 -2c-25.333 1.33301 -44 2 -56 2h-363v89l252 292v1h-137c-12.667 0 -31.667 -0.666992 -57 -2c-16 -1.33301 -28.333 -2 -37 -2v126c8.66699 0 21 -0.666992 37 -2c25.333 -1.33301 44.333 -2 57 -2h331v-95l-243 -285v-1h160c10 0 25.667 0.666992 47 2
c20 1.33301 35.333 2 46 2v-127c-8.66699 0 -21 0.666992 -37 2z" />
    <glyph glyph-name="braceleft" unicode="{" horiz-adv-x="327" 
d="M190 -105c-30.667 12 -55.334 29.3311 -74.001 51.998s-28 48.334 -28 77.001c0 22.667 2.66699 48.667 8 78c4.66699 23.333 7 44.333 7 63c0 20.667 -5.66699 37.334 -17 50.001s-30.333 20.667 -57 24v102c26.667 3.33301 45.667 11.333 57 24s17 29.334 17 50.001
c0 18.667 -2.33301 39.667 -7 63c-5.33301 29.333 -8 55.333 -8 78c0 28.667 9.33301 54.334 28 77.001s43.334 40 74.001 52s63.667 18.333 99 19v-118c-25.333 0 -42.666 -4.5 -51.999 -13.5s-14 -23.167 -14 -42.5c0 -10 2 -24.333 6 -43c2 -10 4 -21.333 6 -34
s3 -27.334 3 -44.001c0 -24 -6.5 -46.833 -19.5 -68.5s-29.167 -38.167 -48.5 -49.5v-2c19.333 -11.333 35.5 -27.833 48.5 -49.5s19.5 -44.5 19.5 -68.5c0 -16.667 -1 -31.334 -3 -44.001s-4 -24 -6 -34c-4 -18.667 -6 -33 -6 -43c0 -19.333 4.66699 -33.5 14 -42.5
s26.666 -13.5 51.999 -13.5v-118c-35.333 0.666992 -68.333 7 -99 19z" />
    <glyph glyph-name="bar" unicode="|" horiz-adv-x="272" 
d="M67 11v643.001c0 49.333 -1.66699 98 -5 146h152l-1 -30c-2.66699 -41.333 -4 -80 -4 -116v-643c0 -10 1 -47 3 -111c1.33301 -18.667 2 -30.334 2 -35.001h-152c3.33301 51.333 5 100 5 146z" />
    <glyph glyph-name="braceright" unicode="}" horiz-adv-x="327" 
d="M42 -6c25.333 0 42.666 4.49805 51.999 13.498s14 23.167 14 42.5c0 10 -2 24.333 -6 43c-2 10 -4 21.333 -6 34s-3 27.334 -3 44.001c0 24.667 6.5 47.834 19.5 69.501s29.167 37.834 48.5 48.501v2c-19.333 10.667 -35.5 26.834 -48.5 48.501
s-19.5 44.834 -19.5 69.501c0 16.667 1 31.334 3 44.001s4 24 6 34c4 18.667 6 33 6 43c0 19.333 -4.66699 33.5 -14 42.5s-26.666 13.5 -51.999 13.5v118c35.333 -0.666992 68.333 -7 99 -19s55.334 -29.333 74.001 -52s28 -48.334 28 -77.001
c0 -22.667 -2.66699 -48.667 -8 -78c-4.66699 -23.333 -7 -44.333 -7 -63c0 -20.667 5.66699 -37.334 17 -50.001s30.333 -20.667 57 -24v-102c-26.667 -3.33301 -45.667 -11.333 -57 -24s-17 -29.334 -17 -50.001c0 -18.667 2.33301 -39.667 7 -63
c5.33301 -29.333 8 -55.333 8 -78c0 -28.667 -9.33301 -54.334 -28 -77.001s-43.334 -40 -74.001 -52s-63.667 -18.333 -99 -19v118z" />
    <glyph glyph-name="asciitilde" unicode="~" horiz-adv-x="545" 
d="M322 193.5c-12.667 5 -27.001 12.167 -43.001 21.5l-21 13l-17.5 11.5c-7.66699 5 -14.334 8.66699 -20.001 11s-11.5 3.5 -17.5 3.5c-23.333 0 -35 -19.333 -35 -58h-130c3.33301 54.667 17.833 98 43.5 130s58.5 48 98.5 48c19.333 0 35.333 -2.5 48 -7.5
s27 -12.167 43 -21.5l21 -13c16.667 -10.667 28.334 -17.667 35.001 -21s13.334 -5 20.001 -5c23.333 0 35 19.333 35 58h130c-3.33301 -54.667 -17.833 -98 -43.5 -130s-58.5 -48 -98.5 -48c-19.333 0 -35.333 2.5 -48 7.5z" />
    <glyph glyph-name="uni00A0" unicode="&#xa0;" horiz-adv-x="240" 
 />
    <glyph glyph-name="exclamdown" unicode="&#xa1;" horiz-adv-x="257" 
d="M72.5 418c-15.667 16 -23.5 35.667 -23.5 59s7.83301 42.833 23.5 58.5s35.5 23.5 59.5 23.5c23.333 0 42.833 -7.83301 58.5 -23.5s23.5 -35.167 23.5 -58.5s-7.83301 -43 -23.5 -59s-35.167 -24 -58.5 -24c-24 0 -43.833 8 -59.5 24zM57 19l-1 70
c0 48 2.16699 93.167 6.5 135.5s9.83301 77.833 16.5 106.5h103c6.66699 -30 12.167 -66.167 16.5 -108.5s6.5 -86.833 6.5 -133.5l-1 -70c0 -64 1.66699 -120 5 -168h-157c3.33301 48 5 104 5 168z" />
    <glyph glyph-name="cent" unicode="&#xa2;" horiz-adv-x="496" 
d="M219 2c-56.667 15.333 -101.498 44.8311 -134.498 88.498s-49.5 96.834 -49.5 159.501c0 60 16.667 112.333 50 157s78 74.667 134 90c-0.666992 45.333 -2.33398 80.666 -5.00098 105.999h153c-2 -45.333 -3.33301 -78.333 -4 -99c37.333 -6 65.666 -15.333 84.999 -28
v-169h-2c-28 44 -73.333 66 -136 66c-36.667 0 -68 -11.667 -94 -35s-39 -52.666 -39 -87.999c0 -37.333 12.667 -67.166 38 -89.499s57 -33.5 95 -33.5c62 0 107.333 22 136 66h2v-170c-20.667 -12.667 -49 -21.334 -85 -26.001c0.666992 -21.333 2 -54.666 4 -99.999h-153
c2 25.333 3.66699 60.333 5 105z" />
    <glyph glyph-name="sterling" unicode="&#xa3;" horiz-adv-x="533" 
d="M38 122c34.667 9.33301 62 25.999 82 49.999s30 53 30 87c0 6.66699 -0.666992 15.334 -2 26.001c-38 0 -66.667 -1 -86 -3v117l57 -3c-7.33301 30.667 -11 58.667 -11 84c0 40.667 9.16699 78.334 27.5 113.001s45.166 62.5 80.499 83.5s77.666 31.5 126.999 31.5
c26.667 0 53 -3 79 -9s46.667 -13.667 62 -23v-159h-2c-37.333 37.333 -78.666 56 -123.999 56c-33.333 0 -59.666 -9.66699 -78.999 -29s-29 -45 -29 -77c0 -19.333 4 -43.333 12 -72h70c43.333 0 82.333 1.33301 117 4v-117c-26 2 -65 3 -117 3h-41
c0.666992 -4.66699 1 -11.334 1 -20.001c0 -28.667 -8 -54.5 -24 -77.5s-37.667 -41.167 -65 -54.5v-1h154c52.667 0 97.667 1.66699 135 5l-4 -137h-450v122z" />
    <glyph glyph-name="currency" unicode="&#xa4;" horiz-adv-x="526" 
d="M47 202l56 56.001c-18.667 28 -28 60.333 -28 97c0 35.333 9.33301 67.666 28 96.999l-56 56l66 67l60 -60c24.667 14 53.667 21 87 21c34 0 66 -8 96 -24l63 63l66 -67l-63 -63c15.333 -26.667 23 -56.667 23 -90s-7.66699 -63.333 -23 -90l63 -63l-66 -67l-63 63
c-30 -16 -62 -24 -96 -24c-32 0 -61.333 6.66699 -88 20l-59 -59zM312 300.501c14 14.333 21 32.5 21 54.5s-7 40.167 -21 54.5s-31.333 21.5 -52 21.5c-20 0 -37.167 -7.16699 -51.5 -21.5s-21.5 -32.5 -21.5 -54.5s7.16699 -40.167 21.5 -54.5s31.5 -21.5 51.5 -21.5
c20.667 0 38 7.16699 52 21.5z" />
    <glyph glyph-name="yen" unicode="&#xa5;" horiz-adv-x="668" 
d="M261 134l-59 0.000976562c-44 0 -82.667 -1.33301 -116 -4v117c24.667 -2 63.334 -3 116.001 -3h59v48h-59c-52.667 0 -91.334 -1 -116.001 -3v117c33.333 -2.66699 71.333 -4 114 -4v1l-118 214c-14.667 26.667 -26.667 46.5 -36 59.5l-17 23.5h168
c4 -12.667 14.333 -35 31 -67l107 -212h1l112 212l17.5 33.5c9 17 14.167 28.167 15.5 33.5h163c-22 -30.667 -40 -58.334 -54 -83.001l-120 -214v-1c42 0 79.667 1.33301 113 4v-117c-26 2 -65 3 -117 3h-58v-48h58c52 0 91 1 117 3v-117c-34.667 2.66699 -73.667 4 -117 4
h-58c0 -40.667 1.66699 -85.334 5 -134.001h-157c3.33301 48.667 5 93.334 5 134.001z" />
    <glyph glyph-name="brokenbar" unicode="&#xa6;" horiz-adv-x="272" 
d="M67 580v73.999c0 49.333 -1.66699 98 -5 146h152l-1 -30c-2.66699 -41.333 -4 -80 -4 -116v-74c0 -36 1.33301 -74.667 4 -116l1 -30h-152c3.33301 48.667 5 97.334 5 146.001zM67 10.999v74c0 49.333 -1.66699 98 -5 146h152l-1 -30c-2.66699 -41.333 -4 -80 -4 -116
v-74c0 -36 1.33301 -74.667 4 -116l1 -30h-152c3.33301 48 5 96.667 5 146z" />
    <glyph glyph-name="section" unicode="&#xa7;" horiz-adv-x="485" 
d="M160 -1.5c-28 4.33301 -51.667 10.833 -71 19.5v144h2c19.333 -15.333 43.166 -28.666 71.499 -39.999s53.833 -17 76.5 -17c21.333 0 36.333 3.33301 45 10s13 15 13 25c0 9.33301 -3.83301 16.166 -11.5 20.499s-21.5 9.83301 -41.5 16.5l-58 18
c-46.667 14 -82.334 32.667 -107.001 56s-37 55 -37 95c0 48 17 83.667 51 107c-27.333 26 -41 60 -41 102c0 49.333 17.833 87.166 53.5 113.499s83.834 39.5 144.501 39.5c24.667 0 51 -2.16699 79 -6.5s51.667 -10.833 71 -19.5v-144h-2
c-19.333 15.333 -43.166 28.666 -71.499 39.999s-53.833 17 -76.5 17c-21.333 0 -36.333 -3.33301 -45 -10s-13 -15 -13 -25c0 -9.33301 3.83301 -16.166 11.5 -20.499s21.5 -9.83301 41.5 -16.5l58 -18c46.667 -14 82.334 -32.667 107.001 -56s37 -55 37 -95
c0 -48 -17 -83.667 -51 -107c27.333 -26 41 -60 41 -102c0 -49.333 -17.833 -87.166 -53.5 -113.499s-83.834 -39.5 -144.501 -39.5c-24.667 0 -51 2.16699 -79 6.5zM295 319c8.66699 7.33301 13 16.333 13 27c0 11.333 -6.66699 21 -20 29s-32 14.667 -56 20
c-16.667 -2 -29.334 -6.66699 -38.001 -14s-13 -16.333 -13 -27c0 -11.333 6.66699 -21 20 -29s32 -14.667 56 -20c16.667 2 29.334 6.66699 38.001 14z" />
    <glyph glyph-name="dieresis" unicode="&#xa8;" horiz-adv-x="444" 
d="M71.5 584c-13 13.333 -19.5 29.998 -19.5 49.998c0 20.667 6.5 37.834 19.5 51.501s29.5 20.5 49.5 20.5c21.333 0 38.833 -6.66699 52.5 -20s20.5 -30.666 20.5 -51.999c0 -20 -6.83301 -36.667 -20.5 -50s-31.167 -20 -52.5 -20c-20 0 -36.5 6.66699 -49.5 20z
M273.5 583.998c-13 13.333 -19.5 29.998 -19.5 49.998c0 20.667 6.5 37.834 19.5 51.501s29.5 20.5 49.5 20.5c21.333 0 38.833 -6.66699 52.5 -20s20.5 -30.666 20.5 -51.999c0 -20 -6.83301 -36.667 -20.5 -50s-31.167 -20 -52.5 -20c-20 0 -36.5 6.66699 -49.5 20z" />
    <glyph glyph-name="copyright" unicode="&#xa9;" horiz-adv-x="886" 
d="M239.5 -95c-63 36.667 -112.833 86.5 -149.5 149.5s-55 131.5 -55 205.5s18.333 142.5 55 205.5s86.5 112.833 149.5 149.5s131.5 55 205.5 55s142.5 -18.333 205.5 -55s112.833 -86.5 149.5 -149.5s55 -131.5 55 -205.5s-18.333 -142.5 -55 -205.5
s-86.5 -112.833 -149.5 -149.5s-131.5 -55 -205.5 -55s-142.5 18.333 -205.5 55zM601.5 -8c46.333 28 82.666 65.667 108.999 113s39.5 99 39.5 155s-13.167 107.667 -39.5 155s-62.666 85 -108.999 113s-98.5 42 -156.5 42s-110.167 -14 -156.5 -42
s-82.666 -65.667 -108.999 -113s-39.5 -99 -39.5 -155s13.167 -107.667 39.5 -155s62.666 -85 108.999 -113s98.5 -42 156.5 -42s110.167 14 156.5 42zM343 57c-36.667 19.333 -65.165 46.498 -85.498 81.498s-30.5 75.5 -30.5 121.5c0 44 10.167 83.667 30.5 119
s48.666 63 84.999 83s77.5 30 123.5 30c24 0 48 -2.16699 72 -6.5s44.333 -11.833 61 -22.5v-152h-2c-24.667 40 -65.667 60 -123 60c-32.667 0 -60.667 -10.667 -84 -32s-35 -47.666 -35 -78.999c0 -33.333 11.5 -60.166 34.5 -80.499s51.167 -30.5 84.5 -30.5
c56.667 0 97.667 20 123 60h2v-153c-16.667 -9.33301 -37.167 -16.333 -61.5 -21s-47.5 -7 -69.5 -7c-46.667 0 -88.334 9.66699 -125.001 29z" />
    <glyph glyph-name="ordfeminine" unicode="&#xaa;" horiz-adv-x="283" 
d="M111 473c-21.333 0 -39.502 6.49805 -54.502 19.498s-22.5 30.833 -22.5 53.5c0 36.667 24.333 58.334 73 65.001l60 8c-1.33301 8.66699 -4.66602 14.834 -9.99902 18.501s-14 5.5 -26 5.5c-21.333 0 -45.666 -8.33301 -72.999 -25v70
c8.66699 4.66699 20.167 8.83398 34.5 12.501s28.833 5.5 43.5 5.5c66.667 0 100 -30.333 100 -91v-88c0 -18.667 0.666992 -35.334 2 -50.001h-68l-3 11h-1c-12 -10 -30.333 -15 -55 -15zM156.498 534.998c7.66699 5.33301 11.501 13.334 11.501 24.001v6l-41 -7
c-14 -2 -21 -7.33301 -21 -16c0 -4.66699 2.16699 -8.33398 6.5 -11.001s10.166 -4 17.499 -4c10 0 18.833 2.66699 26.5 8z" />
    <glyph glyph-name="guillemotleft" unicode="&#xab;" horiz-adv-x="501" 
d="M32 248v4l122 190h101l-85 -192l85 -192h-101zM240 248v4l122 190h101l-85 -192l85 -192h-101z" />
    <glyph glyph-name="logicalnot" unicode="&#xac;" horiz-adv-x="545" 
d="M356 250v45h-21h-135c-44.667 0 -93 -1.66699 -145 -5v129c52 -3.33301 100.333 -5 145 -5h280v-164c0 -44.667 1.66699 -93 5 -145h-134c3.33301 52 5 100.333 5 145z" />
    <glyph glyph-name="uni00AD" unicode="&#xad;" horiz-adv-x="434" 
d="M55 318c27.333 -2 69.333 -3 126 -3h76c57.333 0 99.333 1 126 3v-125c-36 2.66699 -78 4 -126 4h-76c-48 0 -90 -1.33301 -126 -4v125z" />
    <glyph glyph-name="registered" unicode="&#xae;" horiz-adv-x="499" 
d="M141.5 301c-33.667 19.333 -60.167 45.833 -79.5 79.5s-29 70.5 -29 110.5s9.83301 76.667 29.5 110s46.167 59.666 79.5 78.999s70 29 110 29s76.667 -9.66699 110 -29s59.666 -45.666 78.999 -78.999s29 -70 29 -110s-9.66699 -76.667 -29 -110
s-45.666 -59.833 -78.999 -79.5s-70 -29.5 -110 -29.5s-76.833 9.66699 -110.5 29zM329 357.5c22.667 13.667 40.167 32.333 52.5 56s18.5 49.5 18.5 77.5s-6.16699 53.667 -18.5 77s-29.833 41.833 -52.5 55.5s-48.334 20.5 -77.001 20.5
c-29.333 0 -55.333 -6.83301 -78 -20.5s-40.167 -32.167 -52.5 -55.5s-18.5 -49 -18.5 -77c0 -28.667 6.16699 -54.667 18.5 -78s29.833 -41.833 52.5 -55.5s48.667 -20.5 78 -20.5c28.667 0 54.334 6.83301 77.001 20.5zM174 395.999c0.666992 5.33301 1 11.666 1 18.999
v150c0 19.333 -0.666992 35.333 -2 48h85c23.333 0 42.333 -7.5 57 -22.5s22 -32.833 22 -53.5c0 -13.333 -3.83301 -25.166 -11.5 -35.499s-17.5 -17.833 -29.5 -22.5v-1c5.33301 -2 10.333 -5.83301 15 -11.5s8 -11.5 10 -17.5l10 -23l8 -19
c6.66699 -14 10.334 -22 11.001 -24v-1h-70c-1.33301 6.66699 -7.33301 21.667 -18 45l-10 21c-1.33301 4 -2.83301 7 -4.5 9s-3.83398 3 -6.50098 3h-2v-45c0 -6 1 -17 3 -33h-69c0 4 0.333008 8.66699 1 14zM269.5 520.999c3.66699 3.33301 5.5 8.66797 5.5 16.001
c0 5.33301 -2.16699 9.66602 -6.5 12.999s-9.83301 5 -16.5 5h-13v-38c2 -0.666992 5.66699 -1 11 -1c9.33301 0 15.833 1.66699 19.5 5z" />
    <glyph glyph-name="macron" unicode="&#xaf;" horiz-adv-x="414" 
d="M52 689h314v-100h-314v100z" />
    <glyph glyph-name="degree" unicode="&#xb0;" horiz-adv-x="306" 
d="M66.5 494c-24.333 24.667 -36.5 54.334 -36.5 89.001c0 22 5.66699 42.667 17 62s26.5 34.666 45.5 45.999s39.833 17 62.5 17s43.5 -5.66699 62.5 -17s34.167 -26.666 45.5 -45.999s17 -40 17 -62c0 -34.667 -12.167 -64.334 -36.5 -89.001s-53.833 -37 -88.5 -37
s-64.167 12.333 -88.5 37zM179 558.5c6.66699 7 10 15.167 10 24.5s-3.33301 17.333 -10 24s-14.667 10 -24 10s-17.333 -3.33301 -24 -10s-10 -14.667 -10 -24s3.33301 -17.5 10 -24.5s14.667 -10.5 24 -10.5s17.333 3.5 24 10.5z" />
    <glyph glyph-name="plusminus" unicode="&#xb1;" horiz-adv-x="545" 
d="M214 275h-7c-44.667 0 -93 -1.66699 -145 -5v124c52 -3.33301 100.333 -5 145 -5h7c-0.666992 13.333 -2 43 -4 89h130c-2 -46 -3.33301 -75.667 -4 -89h6c45.333 0 93.666 1.66699 144.999 5v-124c-51.333 3.33301 -99.666 5 -144.999 5h-6
c0.666992 -12.667 2 -42 4 -88h-130c2 46 3.33301 75.333 4 88zM62 162c52 -3.33301 100.332 -5 144.999 -5h135c44.667 0 93 1.66699 145 5v-123c-51.333 3.33301 -99.666 5 -144.999 5h-135c-44.667 0 -93 -1.66699 -145 -5v123z" />
    <glyph glyph-name="uni00B2" unicode="&#xb2;" horiz-adv-x="299" 
d="M236 509l-31 1h-177v1l46 64c32.667 45.333 54 76 64 92s15 29.333 15 40c0 8 -2.33301 14.167 -7 18.5s-11.667 6.5 -21 6.5c-12 0 -25.333 -6 -40 -18s-29 -28.333 -43 -49h-3v122c14 12 31 22 51 30s41.333 12 64 12c34 0 60.833 -8.5 80.5 -25.5
s29.5 -40.833 29.5 -71.5c0 -36 -19.333 -75.667 -58 -119l-6 -7v-1h20c12.667 0 28 1 46 3v-100c-13.333 0 -23.333 0.333008 -30 1z" />
    <glyph glyph-name="uni00B3" unicode="&#xb3;" horiz-adv-x="296" 
d="M69.5 518.5c-20.333 8.33301 -36.168 19.168 -47.501 32.501l60 72c15.333 -16.667 33.333 -25 54 -25c11.333 0 20 2.66699 26 8s9 12.333 9 21c0 18.667 -12.667 28 -38 28h-54v2l41 72v1h-10h-30c-16.667 0 -28.667 -0.666992 -36 -2v99c12 -1.33301 34 -2 66 -2h150
v-2l-57 -104c20.667 -6.66699 36.834 -17.834 48.501 -33.501s17.5 -34.167 17.5 -55.5c0 -37.333 -11.667 -67.333 -35 -90s-56 -34 -98 -34c-24 0 -46.167 4.16699 -66.5 12.5z" />
    <glyph glyph-name="acute" unicode="&#xb4;" horiz-adv-x="358" 
d="M145 700h165l-136 -120h-122z" />
    <glyph glyph-name="uni00B5" unicode="&#xb5;" horiz-adv-x="581" 
d="M65 -54v408c0 10 -1 47 -3 111c-1.33301 18.667 -2 30.334 -2 35.001h152c-3.33301 -51.333 -5 -100 -5 -146v-125c0 -68 27.333 -102 82 -102c26.667 0 48.167 10 64.5 30s24.5 46 24.5 78v119c0 35.333 -2 84 -6 146h153c-3.33301 -51.333 -5 -100 -5 -146v-208
c0 -48.667 1.66699 -97.334 5 -146.001h-130l-8 57h-1c-12.667 -21.333 -29.167 -37.5 -49.5 -48.5s-40.5 -16.5 -60.5 -16.5c-16 0 -28.333 1.16699 -37 3.5s-19 5.83301 -31 10.5h-1v-60c0 -35.333 2 -84 6 -146h-153c3.33301 51.333 5 100 5 146z" />
    <glyph glyph-name="paragraph" unicode="&#xb6;" horiz-adv-x="798" 
d="M265 -54l-0.000976562 279.006c-43.333 0 -83.166 10.667 -119.499 32s-65.166 50.166 -86.499 86.499s-32 76.166 -32 119.499c0 42.667 10.667 82.167 32 118.5s50.166 65.166 86.499 86.499s76.166 32 119.499 32h372c56.667 0 98.667 1 126 3v-125
c-15.333 1.33301 -50.666 2.66602 -105.999 3.99902v-28v-608c0 -10 1 -47 3 -111c1.33301 -18.667 2 -30.334 2 -35.001h-152c3.33301 51.333 5 100 5 146v608v28h-108v-28v-608c0 -10 1 -47 3 -111c1.33301 -18.667 2 -30.334 2 -35.001h-152c3.33301 51.333 5 100 5 146z
" />
    <glyph glyph-name="periodcentered" unicode="&#xb7;" horiz-adv-x="249" 
d="M67.5 213.5c-15.667 15.667 -23.5 35.167 -23.5 58.5s7.83301 43 23.5 59s35.167 24 58.5 24c24 0 43.833 -8 59.5 -24s23.5 -35.667 23.5 -59s-7.83301 -42.833 -23.5 -58.5s-35.5 -23.5 -59.5 -23.5c-23.333 0 -42.833 7.83301 -58.5 23.5z" />
    <glyph glyph-name="cedilla" unicode="&#xb8;" horiz-adv-x="283" 
d="M52 -199l-0.000976562 79h1c6.66699 -2.66699 15.5 -5 26.5 -7s21.167 -3 30.5 -3c10 0 17.667 2.16699 23 6.5s8 9.83301 8 16.5c0 5.33301 -2.5 9.83301 -7.5 13.5s-11.167 5.5 -18.5 5.5c-10 0 -20.333 -1.33301 -31 -4h-1l25 92h75l-9 -34
c19.333 -5.33301 34.333 -14 45 -26s16 -29.667 16 -53c0 -31.333 -10.167 -55 -30.5 -71s-46.166 -24 -77.499 -24c-30 0 -55 3 -75 9z" />
    <glyph glyph-name="uni00B9" unicode="&#xb9;" horiz-adv-x="229" 
d="M80 547l1.00098 54.999v82h-1l-45 -49h-2v114l91 76h65l-1 -35c-1.33301 -24 -2 -43 -2 -57v-131c0 -10.667 0.666992 -26 2 -46c1.33301 -23.333 1.66602 -38.666 0.999023 -45.999h-110c0 14.667 0.333008 27 1 37z" />
    <glyph glyph-name="ordmasculine" unicode="&#xba;" horiz-adv-x="296" 
d="M65.5 507c-23 22.667 -34.5 50.332 -34.5 82.999s11.5 60.167 34.5 82.5s51.167 33.5 84.5 33.5c34 0 62.333 -11.167 85 -33.5s34 -49.833 34 -82.5c0 -33.333 -11.333 -61.166 -34 -83.499s-51 -33.5 -85 -33.5c-33.333 0 -61.5 11.333 -84.5 34zM183.5 553.998
c9 9.33301 13.5 21.333 13.5 36c0 14 -4.5 25.667 -13.5 35s-20.167 14 -33.5 14c-12.667 0 -23.667 -4.83301 -33 -14.5s-14 -21.167 -14 -34.5c0 -14 4.5 -25.833 13.5 -35.5s20.167 -14.5 33.5 -14.5s24.5 4.66699 33.5 14z" />
    <glyph glyph-name="guillemotright" unicode="&#xbb;" horiz-adv-x="501" 
d="M127 250l-85 192h101l122 -190v-4l-122 -190h-101zM335 250l-85 192h101l122 -190v-4l-122 -190h-101z" />
    <glyph glyph-name="onequarter" unicode="&#xbc;" horiz-adv-x="713" 
d="M150 427l1.00098 54.999v82h-1l-45 -49h-2v114l91 76h65l-1 -35c-1.33301 -24 -2 -43 -2 -57v-131c0 -10.667 0.666992 -26 2 -46c1.33301 -23.333 1.66602 -38.666 0.999023 -45.999h-110c0 14.667 0.333008 27 1 37zM517.001 699.999h122l-493 -700h-122z
M537.001 23.999l1 26v4h-32c-14 0 -26 -0.333008 -36 -1l-64 -1v81l89 182h136c-2 -28 -3 -58.667 -3 -92v-90h47v-81c-27.333 0 -43 0.333008 -47 1v-3l3 -50h-96c0 5.33301 0.666992 13.333 2 24zM538.001 132.999v79h-1l-38 -78v-1h39z" />
    <glyph glyph-name="onehalf" unicode="&#xbd;" horiz-adv-x="695" 
d="M150 427l1.00098 54.999v82h-1l-45 -49h-2v114l91 76h65l-1 -35c-1.33301 -24 -2 -43 -2 -57v-131c0 -10.667 0.666992 -26 2 -46c1.33301 -23.333 1.66602 -38.666 0.999023 -45.999h-110c0 14.667 0.333008 27 1 37zM517.001 699.999h122l-493 -700h-122z
M615.001 -1.00098l-31 1h-177v1l46 64c32.667 45.333 54 76 64 92s15 29.333 15 40c0 8 -2.33301 14.167 -7 18.5s-11.667 6.5 -21 6.5c-12 0 -25.333 -6 -40 -18s-29 -28.333 -43 -49h-3v122c14 12 31 22 51 30s41.333 12 64 12c34 0 60.833 -8.5 80.5 -25.5
s29.5 -40.833 29.5 -71.5c0 -36 -19.333 -75.667 -58 -119l-6 -7v-1h20c12.667 0 28 1 46 3v-100c-13.333 0 -23.333 0.333008 -30 1z" />
    <glyph glyph-name="threequarters" unicode="&#xbe;" horiz-adv-x="723" 
d="M81.5 398.5c-20.333 8.33301 -36.168 19.168 -47.501 32.501l60 72c15.333 -16.667 33.333 -25 54 -25c11.333 0 20 2.66699 26 8s9 12.333 9 21c0 18.667 -12.667 28 -38 28h-54v2l41 72v1h-10h-30c-16.667 0 -28.667 -0.666992 -36 -2v99c12 -1.33301 34 -2 66 -2h150
v-2l-57 -104c20.667 -6.66699 36.834 -17.834 48.501 -33.501s17.5 -34.167 17.5 -55.5c0 -37.333 -11.667 -67.333 -35 -90s-56 -34 -98 -34c-24 0 -46.167 4.16699 -66.5 12.5zM537.998 700.002h122l-493 -700h-122zM557.998 24.002l1 26v4h-32
c-14 0 -26 -0.333008 -36 -1l-64 -1v81l89 182h136c-2 -28 -3 -58.667 -3 -92v-90h47v-81c-27.333 0 -43 0.333008 -47 1v-3l3 -50h-96c0 5.33301 0.666992 13.333 2 24zM558.998 133.002v79h-1l-38 -78v-1h39z" />
    <glyph glyph-name="questiondown" unicode="&#xbf;" horiz-adv-x="458" 
d="M204.5 418c-15.667 16 -23.5 35.667 -23.5 59s7.83301 42.833 23.5 58.5s35.5 23.5 59.5 23.5c23.333 0 42.833 -7.83301 58.5 -23.5s23.5 -35.167 23.5 -58.5s-7.83301 -43 -23.5 -59s-35.167 -24 -58.5 -24c-24 0 -43.833 8 -59.5 24zM84.5 -111
c-39 30.667 -58.499 75.001 -58.499 133.001c0 28.667 5.83301 53.667 17.5 75s25.5 39 41.5 53s36.667 30 62 48c29.333 20.667 50.666 39.167 63.999 55.5s20 37.166 20 62.499c0 5.33301 -0.333008 10.333 -1 15h79c0.666992 -2.66699 3 -11 7 -25s6 -29.333 6 -46
c0 -24 -4.33301 -46.333 -13 -67s-25.667 -41.667 -51 -63l-31.5 -27c-15.667 -13.333 -26.834 -25.5 -33.501 -36.5s-10 -22.5 -10 -34.5c0 -18.667 6.33301 -32.5 19 -41.5s28.334 -13.5 47.001 -13.5c30 0 60.167 10 90.5 30s57.5 43.667 81.5 71h3v-185
c-28 -16.667 -57.833 -29.167 -89.5 -37.5s-60.5 -12.5 -86.5 -12.5c-70 0 -124.5 15.333 -163.5 46z" />
    <glyph glyph-name="Agrave" unicode="&#xc0;" horiz-adv-x="729" 
d="M0 1c14 18.667 28.333 45.665 43 80.998l232 558c7.33301 18 12.5 31.833 15.5 41.5s4.83301 15.834 5.5 18.501h128c1.33301 -5.33301 4.66602 -15 9.99902 -29l12 -31l247 -558c8 -18 16.333 -34.5 25 -49.5s15.334 -25.5 20.001 -31.5v-1h-166c-2 4 -5 11.833 -9 23.5
s-10 26.167 -18 43.5l-42 96h-277l-39 -96c-14.667 -37.333 -22 -59.666 -22 -66.999h-165v1zM448 296.998l-90 199l-82 -199h172zM172 899.998h165l93 -120h-122z" />
    <glyph glyph-name="Aacute" unicode="&#xc1;" horiz-adv-x="729" 
d="M0 1c14 18.667 28.333 45.665 43 80.998l232 558c7.33301 18 12.5 31.833 15.5 41.5s4.83301 15.834 5.5 18.501h128c1.33301 -5.33301 4.66602 -15 9.99902 -29l12 -31l247 -558c8 -18 16.333 -34.5 25 -49.5s15.334 -25.5 20.001 -31.5v-1h-166c-2 4 -5 11.833 -9 23.5
s-10 26.167 -18 43.5l-42 96h-277l-39 -96c-14.667 -37.333 -22 -59.666 -22 -66.999h-165v1zM448 296.998l-90 199l-82 -199h172zM379 899.998h165l-136 -120h-122z" />
    <glyph glyph-name="Acircumflex" unicode="&#xc2;" horiz-adv-x="729" 
d="M0 1c14 18.667 28.333 45.665 43 80.998l232 558c7.33301 18 12.5 31.833 15.5 41.5s4.83301 15.834 5.5 18.501h128c1.33301 -5.33301 4.66602 -15 9.99902 -29l12 -31l247 -558c8 -18 16.333 -34.5 25 -49.5s15.334 -25.5 20.001 -31.5v-1h-166c-2 4 -5 11.833 -9 23.5
s-10 26.167 -18 43.5l-42 96h-277l-39 -96c-14.667 -37.333 -22 -59.666 -22 -66.999h-165v1zM448 296.998l-90 199l-82 -199h172zM297 899.998h122l123 -120h-132l-49 46l-55 -46h-132z" />
    <glyph glyph-name="Atilde" unicode="&#xc3;" horiz-adv-x="729" 
d="M0 1c14 18.667 28.333 45.665 43 80.998l232 558c7.33301 18 12.5 31.833 15.5 41.5s4.83301 15.834 5.5 18.501h128c1.33301 -5.33301 4.66602 -15 9.99902 -29l12 -31l247 -558c8 -18 16.333 -34.5 25 -49.5s15.334 -25.5 20.001 -31.5v-1h-166c-2 4 -5 11.833 -9 23.5
s-10 26.167 -18 43.5l-42 96h-277l-39 -96c-14.667 -37.333 -22 -59.666 -22 -66.999h-165v1zM448 296.998l-90 199l-82 -199h172zM391 773.998c-12 4 -24.332 10.668 -36.999 20.001l-10 7c-11.333 8 -19.833 13.5 -25.5 16.5s-11.834 4.5 -18.501 4.5
c-16.667 0 -25 -13 -25 -39h-109c3.33301 44.667 15.333 81 36 109s47 42 79 42c16.667 0 30.5 -1.83301 41.5 -5.5s21.833 -9.16699 32.5 -16.5l17 -11c4 -2.66699 9 -5.83398 15 -9.50098s11.167 -6.5 15.5 -8.5s8.83301 -3 13.5 -3c16.667 0 25 13 25 39h109
c-3.33301 -44.667 -15.333 -81 -36 -109s-47 -42 -79 -42c-17.333 0 -32 2 -44 6z" />
    <glyph glyph-name="Adieresis" unicode="&#xc4;" horiz-adv-x="729" 
d="M0 1c14 18.667 28.333 45.665 43 80.998l232 558c7.33301 18 12.5 31.833 15.5 41.5s4.83301 15.834 5.5 18.501h128c1.33301 -5.33301 4.66602 -15 9.99902 -29l12 -31l247 -558c8 -18 16.333 -34.5 25 -49.5s15.334 -25.5 20.001 -31.5v-1h-166c-2 4 -5 11.833 -9 23.5
s-10 26.167 -18 43.5l-42 96h-277l-39 -96c-14.667 -37.333 -22 -59.666 -22 -66.999h-165v1zM448 296.998l-90 199l-82 -199h172zM205.5 783.998c-13 13.333 -19.5 29.998 -19.5 49.998c0 20.667 6.5 37.834 19.5 51.501s29.5 20.5 49.5 20.5
c21.333 0 38.833 -6.66699 52.5 -20s20.5 -30.666 20.5 -51.999c0 -20 -6.83301 -36.667 -20.5 -50s-31.167 -20 -52.5 -20c-20 0 -36.5 6.66699 -49.5 20zM407.5 783.996c-13 13.333 -19.5 29.998 -19.5 49.998c0 20.667 6.5 37.834 19.5 51.501s29.5 20.5 49.5 20.5
c21.333 0 38.833 -6.66699 52.5 -20s20.5 -30.666 20.5 -51.999c0 -20 -6.83301 -36.667 -20.5 -50s-31.167 -20 -52.5 -20c-20 0 -36.5 6.66699 -49.5 20z" />
    <glyph glyph-name="Aring" unicode="&#xc5;" horiz-adv-x="729" 
d="M0 1c14 18.667 28.333 45.665 43 80.998l232 558c7.33301 18 12.5 31.833 15.5 41.5s4.83301 15.834 5.5 18.501h128c1.33301 -5.33301 4.66602 -15 9.99902 -29l12 -31l247 -558c8 -18 16.333 -34.5 25 -49.5s15.334 -25.5 20.001 -31.5v-1h-166c-2 4 -5 11.833 -9 23.5
s-10 26.167 -18 43.5l-42 96h-277l-39 -96c-14.667 -37.333 -22 -59.666 -22 -66.999h-165v1zM448 296.998l-90 199l-82 -199h172zM276 774.998c-22.667 22.667 -34 49.667 -34 81s11.333 58.333 34 81s50 34 82 34c31.333 0 58.5 -11.333 81.5 -34s34.5 -49.667 34.5 -81
s-11.5 -58.333 -34.5 -81s-50.167 -34 -81.5 -34c-32 0 -59.333 11.333 -82 34zM379 833.998c6 6 9 13.333 9 22s-3 16 -9 22s-13 9 -21 9c-8.66699 0 -15.834 -3 -21.501 -9s-8.5 -13.333 -8.5 -22s2.83301 -16 8.5 -22s12.834 -9 21.501 -9c8 0 15 3 21 9z" />
    <glyph glyph-name="AE" unicode="&#xc6;" horiz-adv-x="1032" 
d="M-29 1l26.5 31.4971c8.33301 10.333 19.5 26.833 33.5 49.5l351 558c12.667 20 23.667 40 33 60h568l4 -138c-48.667 3.33301 -93 5 -133 5h-193c0.666992 -4.66699 1 -10.667 1 -18v-131h146c53.333 0 98.333 1.66699 135 5v-142
c-39.333 4.66699 -84 6.33398 -134 5.00098h-147v-130c0 -9.33301 -0.333008 -16.666 -1 -21.999h196c52.667 0 97.667 1.66699 135 5l-4 -139h-478c3.33301 52 5 100.667 5 146v17h-267l-60 -96c-22.667 -35.333 -34.667 -57.666 -36 -66.999h-181v1zM515 296.997v257v38
h-1l-186 -295h187z" />
    <glyph glyph-name="Ccedilla" unicode="&#xc7;" horiz-adv-x="689" 
d="M302.5 547c-35.667 -19.333 -63.9971 -46.167 -84.9971 -80.5s-31.5 -72.833 -31.5 -115.5s10.5 -81.167 31.5 -115.5s49.5 -61.166 85.5 -80.499s75 -29 117 -29c36 0 67.333 4.83301 94 14.5s49.167 21.834 67.5 36.501s38.166 33 59.499 55h3v-186
c-54.667 -30.667 -117 -48.334 -187 -53.001l-7 -27c19.333 -5.33301 34.333 -14 45 -26s16 -29.667 16 -53c0 -31.333 -10.167 -55 -30.5 -71s-46.166 -24 -77.499 -24c-30 0 -55 3 -75 9v79h1c6.66699 -2.66699 15.5 -5 26.5 -7s21.167 -3 30.5 -3
c10 0 17.667 2.16699 23 6.5s8 9.83301 8 16.5c0 5.33301 -2.5 9.83301 -7.5 13.5s-11.167 5.5 -18.5 5.5c-10 0 -20.333 -1.33301 -31 -4h-1l23 86c-63.333 5.33301 -121.333 23.333 -174 54s-94.334 72 -125.001 124s-46 111.667 -46 179c0 72 17.333 135.167 52 189.5
s81.167 96.166 139.5 125.499s122.166 44 191.499 44c48.667 0 90.5 -5 125.5 -15s67.833 -23 98.5 -39v-187h-3c-22 22.667 -42 41.167 -60 55.5s-40.333 26.5 -67 36.5s-58 15 -94 15c-42.667 0 -81.834 -9.66699 -117.501 -29z" />
    <glyph glyph-name="Egrave" unicode="&#xc8;" horiz-adv-x="587" 
d="M70 146v407.998c0 49.333 -1.66699 98 -5 146h473l4 -138c-48.667 3.33301 -93 5 -133 5h-193c0.666992 -4.66699 1 -10.667 1 -18v-131h146c53.333 0 98.333 1.66699 135 5v-142c-39.333 4.66699 -84 6.33398 -134 5.00098h-147v-130
c0 -9.33301 -0.333008 -16.666 -1 -21.999h196c52.667 0 97.667 1.66699 135 5l-4 -139h-478c3.33301 52 5 100.667 5 146zM121 899.998h165l93 -120h-122z" />
    <glyph glyph-name="Eacute" unicode="&#xc9;" horiz-adv-x="587" 
d="M70 146v407.998c0 49.333 -1.66699 98 -5 146h473l4 -138c-48.667 3.33301 -93 5 -133 5h-193c0.666992 -4.66699 1 -10.667 1 -18v-131h146c53.333 0 98.333 1.66699 135 5v-142c-39.333 4.66699 -84 6.33398 -134 5.00098h-147v-130
c0 -9.33301 -0.333008 -16.666 -1 -21.999h196c52.667 0 97.667 1.66699 135 5l-4 -139h-478c3.33301 52 5 100.667 5 146zM328 899.998h165l-136 -120h-122z" />
    <glyph glyph-name="Ecircumflex" unicode="&#xca;" horiz-adv-x="587" 
d="M70 146v407.998c0 49.333 -1.66699 98 -5 146h473l4 -138c-48.667 3.33301 -93 5 -133 5h-193c0.666992 -4.66699 1 -10.667 1 -18v-131h146c53.333 0 98.333 1.66699 135 5v-142c-39.333 4.66699 -84 6.33398 -134 5.00098h-147v-130
c0 -9.33301 -0.333008 -16.666 -1 -21.999h196c52.667 0 97.667 1.66699 135 5l-4 -139h-478c3.33301 52 5 100.667 5 146zM246 899.998h122l123 -120h-132l-49 46l-55 -46h-132z" />
    <glyph glyph-name="Edieresis" unicode="&#xcb;" horiz-adv-x="587" 
d="M70 146v407.998c0 49.333 -1.66699 98 -5 146h473l4 -138c-48.667 3.33301 -93 5 -133 5h-193c0.666992 -4.66699 1 -10.667 1 -18v-131h146c53.333 0 98.333 1.66699 135 5v-142c-39.333 4.66699 -84 6.33398 -134 5.00098h-147v-130
c0 -9.33301 -0.333008 -16.666 -1 -21.999h196c52.667 0 97.667 1.66699 135 5l-4 -139h-478c3.33301 52 5 100.667 5 146zM154.5 783.998c-13 13.333 -19.5 29.998 -19.5 49.998c0 20.667 6.5 37.834 19.5 51.501s29.5 20.5 49.5 20.5c21.333 0 38.833 -6.66699 52.5 -20
s20.5 -30.666 20.5 -51.999c0 -20 -6.83301 -36.667 -20.5 -50s-31.167 -20 -52.5 -20c-20 0 -36.5 6.66699 -49.5 20zM356.5 783.996c-13 13.333 -19.5 29.998 -19.5 49.998c0 20.667 6.5 37.834 19.5 51.501s29.5 20.5 49.5 20.5c21.333 0 38.833 -6.66699 52.5 -20
s20.5 -30.666 20.5 -51.999c0 -20 -6.83301 -36.667 -20.5 -50s-31.167 -20 -52.5 -20c-20 0 -36.5 6.66699 -49.5 20z" />
    <glyph glyph-name="Igrave" unicode="&#xcc;" horiz-adv-x="283" 
d="M70 146v408c0 49.333 -1.66699 98 -5 146h157c-3.33301 -48 -5 -96.667 -5 -146v-408c0 -45.333 1.66699 -94 5 -146h-157c3.33301 52 5 100.667 5 146zM-43 900h165l93 -120h-122z" />
    <glyph glyph-name="Iacute" unicode="&#xcd;" horiz-adv-x="283" 
d="M70 146v408c0 49.333 -1.66699 98 -5 146h157c-3.33301 -48 -5 -96.667 -5 -146v-408c0 -45.333 1.66699 -94 5 -146h-157c3.33301 52 5 100.667 5 146zM164 900h165l-136 -120h-122z" />
    <glyph glyph-name="Icircumflex" unicode="&#xce;" horiz-adv-x="283" 
d="M70 146v408c0 49.333 -1.66699 98 -5 146h157c-3.33301 -48 -5 -96.667 -5 -146v-408c0 -45.333 1.66699 -94 5 -146h-157c3.33301 52 5 100.667 5 146zM82 900h122l123 -120h-132l-49 46l-55 -46h-132z" />
    <glyph glyph-name="Idieresis" unicode="&#xcf;" horiz-adv-x="283" 
d="M70 146v408c0 49.333 -1.66699 98 -5 146h157c-3.33301 -48 -5 -96.667 -5 -146v-408c0 -45.333 1.66699 -94 5 -146h-157c3.33301 52 5 100.667 5 146zM-9.5 784c-13 13.333 -19.5 29.998 -19.5 49.998c0 20.667 6.5 37.834 19.5 51.501s29.5 20.5 49.5 20.5
c21.333 0 38.833 -6.66699 52.5 -20s20.5 -30.666 20.5 -51.999c0 -20 -6.83301 -36.667 -20.5 -50s-31.167 -20 -52.5 -20c-20 0 -36.5 6.66699 -49.5 20zM192.5 783.998c-13 13.333 -19.5 29.998 -19.5 49.998c0 20.667 6.5 37.834 19.5 51.501s29.5 20.5 49.5 20.5
c21.333 0 38.833 -6.66699 52.5 -20s20.5 -30.666 20.5 -51.999c0 -20 -6.83301 -36.667 -20.5 -50s-31.167 -20 -52.5 -20c-20 0 -36.5 6.66699 -49.5 20z" />
    <glyph glyph-name="Eth" unicode="&#xd0;" horiz-adv-x="738" 
d="M529.5 655.5c55 -29.667 97.834 -71.167 128.501 -124.5s46 -114 46 -182c0 -67.333 -15.5 -128 -46.5 -182s-74.333 -96.333 -130 -127s-118.834 -46 -189.501 -46c-16 0 -33.5 0.5 -52.5 1.5s-32.833 1.5 -41.5 1.5c-26 2 -51 3 -75 3h-77c3.33301 52 5 100.667 5 146
v144c-14.667 0 -40 -1 -76 -3v125l76 -3v145c0 49.333 -1.66699 98 -5 146h247c72 0 135.5 -14.833 190.5 -44.5zM449.501 157c33.667 19.333 59.6689 45.667 78.002 79s27.5 70.333 27.5 111c0 42 -9.16699 79.667 -27.5 113s-44.833 59.5 -79.5 78.5
s-75.334 28.5 -122.001 28.5h-81l-1 -31v-127h27c56.667 0 98.667 1 126 3v-125c-36 2.66699 -78 4 -126 4h-27v-129c0 -10.667 0.666992 -17.667 2 -21s4.66602 -5.66602 9.99902 -6.99902c8 -2.66699 18.5 -4.33398 31.5 -5.00098s27.5 -1 43.5 -1
c45.333 0 84.833 9.66699 118.5 29z" />
    <glyph glyph-name="Ntilde" unicode="&#xd1;" horiz-adv-x="762" 
d="M69 39c0.666992 12.667 1.33398 28 2.00098 46s1 38.333 1 61v478c0 14.667 -8.66699 40 -26 76h155l362 -452h1v306c0 20 -0.333008 38 -1 54s-1.33398 29.333 -2.00098 40l-3 52h143l-2 -39c-0.666992 -12.667 -1.33398 -28 -2.00098 -46s-1 -38.333 -1 -61v-408
c0 -22.667 0.333008 -43 1 -61s1.33398 -33.333 2.00098 -46l2 -39h-132l-364 461h-1v-315c0 -51.333 2 -100 6 -146h-143zM407 774c-12 4 -24.332 10.668 -36.999 20.001l-10 7c-11.333 8 -19.833 13.5 -25.5 16.5s-11.834 4.5 -18.501 4.5c-16.667 0 -25 -13 -25 -39h-109
c3.33301 44.667 15.333 81 36 109s47 42 79 42c16.667 0 30.5 -1.83301 41.5 -5.5s21.833 -9.16699 32.5 -16.5l17 -11c4 -2.66699 9 -5.83398 15 -9.50098s11.167 -6.5 15.5 -8.5s8.83301 -3 13.5 -3c16.667 0 25 13 25 39h109c-3.33301 -44.667 -15.333 -81 -36 -109
s-47 -42 -79 -42c-17.333 0 -32 2 -44 6z" />
    <glyph glyph-name="Ograve" unicode="&#xd2;" horiz-adv-x="794" 
d="M216 39c-55.333 31.333 -99 74.333 -131 129s-48 115.667 -48 183s16 128.333 48 183s75.667 97.667 131 129s116.333 47 183 47s127.667 -15.667 183 -47s99 -74.333 131 -129s48 -115.667 48 -183s-16 -128.333 -48 -183s-75.667 -97.667 -131 -129
s-116.333 -47 -183 -47s-127.667 15.667 -183 47zM506.5 155.5c32.333 19.667 58 46.834 77 81.501s28.5 72.667 28.5 114s-9.5 79.333 -28.5 114s-44.667 61.834 -77 81.501s-68.166 29.5 -107.499 29.5s-75.166 -9.83301 -107.499 -29.5s-58 -46.834 -77 -81.501
s-28.5 -72.667 -28.5 -114s9.5 -79.333 28.5 -114s44.667 -61.834 77 -81.501s68.166 -29.5 107.499 -29.5s75.166 9.83301 107.499 29.5zM213 900h165l93 -120h-122z" />
    <glyph glyph-name="Oacute" unicode="&#xd3;" horiz-adv-x="794" 
d="M216 39c-55.333 31.333 -99 74.333 -131 129s-48 115.667 -48 183s16 128.333 48 183s75.667 97.667 131 129s116.333 47 183 47s127.667 -15.667 183 -47s99 -74.333 131 -129s48 -115.667 48 -183s-16 -128.333 -48 -183s-75.667 -97.667 -131 -129
s-116.333 -47 -183 -47s-127.667 15.667 -183 47zM506.5 155.5c32.333 19.667 58 46.834 77 81.501s28.5 72.667 28.5 114s-9.5 79.333 -28.5 114s-44.667 61.834 -77 81.501s-68.166 29.5 -107.499 29.5s-75.166 -9.83301 -107.499 -29.5s-58 -46.834 -77 -81.501
s-28.5 -72.667 -28.5 -114s9.5 -79.333 28.5 -114s44.667 -61.834 77 -81.501s68.166 -29.5 107.499 -29.5s75.166 9.83301 107.499 29.5zM420 900h165l-136 -120h-122z" />
    <glyph glyph-name="Ocircumflex" unicode="&#xd4;" horiz-adv-x="794" 
d="M216 39c-55.333 31.333 -99 74.333 -131 129s-48 115.667 -48 183s16 128.333 48 183s75.667 97.667 131 129s116.333 47 183 47s127.667 -15.667 183 -47s99 -74.333 131 -129s48 -115.667 48 -183s-16 -128.333 -48 -183s-75.667 -97.667 -131 -129
s-116.333 -47 -183 -47s-127.667 15.667 -183 47zM506.5 155.5c32.333 19.667 58 46.834 77 81.501s28.5 72.667 28.5 114s-9.5 79.333 -28.5 114s-44.667 61.834 -77 81.501s-68.166 29.5 -107.499 29.5s-75.166 -9.83301 -107.499 -29.5s-58 -46.834 -77 -81.501
s-28.5 -72.667 -28.5 -114s9.5 -79.333 28.5 -114s44.667 -61.834 77 -81.501s68.166 -29.5 107.499 -29.5s75.166 9.83301 107.499 29.5zM338 900h122l123 -120h-132l-49 46l-55 -46h-132z" />
    <glyph glyph-name="Otilde" unicode="&#xd5;" horiz-adv-x="794" 
d="M216 39c-55.333 31.333 -99 74.333 -131 129s-48 115.667 -48 183s16 128.333 48 183s75.667 97.667 131 129s116.333 47 183 47s127.667 -15.667 183 -47s99 -74.333 131 -129s48 -115.667 48 -183s-16 -128.333 -48 -183s-75.667 -97.667 -131 -129
s-116.333 -47 -183 -47s-127.667 15.667 -183 47zM506.5 155.5c32.333 19.667 58 46.834 77 81.501s28.5 72.667 28.5 114s-9.5 79.333 -28.5 114s-44.667 61.834 -77 81.501s-68.166 29.5 -107.499 29.5s-75.166 -9.83301 -107.499 -29.5s-58 -46.834 -77 -81.501
s-28.5 -72.667 -28.5 -114s9.5 -79.333 28.5 -114s44.667 -61.834 77 -81.501s68.166 -29.5 107.499 -29.5s75.166 9.83301 107.499 29.5zM432 774c-12 4 -24.332 10.668 -36.999 20.001l-10 7c-11.333 8 -19.833 13.5 -25.5 16.5s-11.834 4.5 -18.501 4.5
c-16.667 0 -25 -13 -25 -39h-109c3.33301 44.667 15.333 81 36 109s47 42 79 42c16.667 0 30.5 -1.83301 41.5 -5.5s21.833 -9.16699 32.5 -16.5l17 -11c4 -2.66699 9 -5.83398 15 -9.50098s11.167 -6.5 15.5 -8.5s8.83301 -3 13.5 -3c16.667 0 25 13 25 39h109
c-3.33301 -44.667 -15.333 -81 -36 -109s-47 -42 -79 -42c-17.333 0 -32 2 -44 6z" />
    <glyph glyph-name="Odieresis" unicode="&#xd6;" horiz-adv-x="794" 
d="M216 39c-55.333 31.333 -99 74.333 -131 129s-48 115.667 -48 183s16 128.333 48 183s75.667 97.667 131 129s116.333 47 183 47s127.667 -15.667 183 -47s99 -74.333 131 -129s48 -115.667 48 -183s-16 -128.333 -48 -183s-75.667 -97.667 -131 -129
s-116.333 -47 -183 -47s-127.667 15.667 -183 47zM506.5 155.5c32.333 19.667 58 46.834 77 81.501s28.5 72.667 28.5 114s-9.5 79.333 -28.5 114s-44.667 61.834 -77 81.501s-68.166 29.5 -107.499 29.5s-75.166 -9.83301 -107.499 -29.5s-58 -46.834 -77 -81.501
s-28.5 -72.667 -28.5 -114s9.5 -79.333 28.5 -114s44.667 -61.834 77 -81.501s68.166 -29.5 107.499 -29.5s75.166 9.83301 107.499 29.5zM246.5 784c-13 13.333 -19.5 29.998 -19.5 49.998c0 20.667 6.5 37.834 19.5 51.501s29.5 20.5 49.5 20.5
c21.333 0 38.833 -6.66699 52.5 -20s20.5 -30.666 20.5 -51.999c0 -20 -6.83301 -36.667 -20.5 -50s-31.167 -20 -52.5 -20c-20 0 -36.5 6.66699 -49.5 20zM448.5 783.998c-13 13.333 -19.5 29.998 -19.5 49.998c0 20.667 6.5 37.834 19.5 51.501s29.5 20.5 49.5 20.5
c21.333 0 38.833 -6.66699 52.5 -20s20.5 -30.666 20.5 -51.999c0 -20 -6.83301 -36.667 -20.5 -50s-31.167 -20 -52.5 -20c-20 0 -36.5 6.66699 -49.5 20z" />
    <glyph glyph-name="multiply" unicode="&#xd7;" horiz-adv-x="545" 
d="M61 137c34 29.333 68.667 61.666 104 96.999l23 23l-23 23c-35.333 35.333 -70 67.666 -104 96.999l93 93c29.333 -34 61.666 -68.667 96.999 -104l23 -23l23 23c35.333 35.333 67.666 70 96.999 104l93 -93c-34 -29.333 -68.667 -61.666 -104 -96.999l-23 -23l23 -23
c35.333 -35.333 70 -67.666 104 -96.999l-93 -93c-29.333 34 -61.666 68.667 -96.999 104l-23 23l-23 -23c-35.333 -35.333 -67.666 -70 -96.999 -104z" />
    <glyph glyph-name="Oslash" unicode="&#xd8;" horiz-adv-x="795" 
d="M760 351c0 -67.333 -16 -128.334 -48 -183.001s-75.667 -97.667 -131 -129s-116.333 -47 -183 -47c-38.667 0 -76 5.66699 -112 17s-69 27.333 -99 48l-18 -21c-14.667 -15.333 -25.334 -27.666 -32.001 -36.999l-84 86c31.333 28.667 49.333 45 54 49
c-22.667 30 -40.167 63.5 -52.5 100.5s-18.5 75.833 -18.5 116.5c0 67.333 16 128.333 48 183s75.667 97.667 131 129s116.333 47 183 47c78.667 0 149.334 -21.667 212.001 -65l51 58l82 -87l-27 -25l-26 -24c46.667 -62.667 70 -134.667 70 -216zM290.5 546.499
c-32.333 -19.667 -58.001 -46.833 -77.001 -81.5s-28.5 -72.667 -28.5 -114c0 -40 9 -77.333 27 -112l300 303c-34 22.667 -72 34 -114 34c-39.333 0 -75.166 -9.83301 -107.499 -29.5zM505.499 155.5c32.333 19.667 58.001 46.833 77.001 81.5s28.5 72.667 28.5 114
c0 39.333 -9 76.333 -27 111l-298 -304c34 -21.333 71.333 -32 112 -32c39.333 0 75.166 9.83301 107.499 29.5z" />
    <glyph glyph-name="Ugrave" unicode="&#xd9;" horiz-adv-x="728" 
d="M208 26c-45.333 22.667 -81 56.999 -107 102.999s-39 103 -39 171v254c0 49.333 -1.66699 98 -5 146h157c-4 -58 -6 -106.667 -6 -146v-244c0 -58 13.333 -103.167 40 -135.5s65 -48.5 115 -48.5c48.667 0 87.667 16.5 117 49.5s44 77.833 44 134.5v244
c0 36 -1.33301 74.667 -4 116l-1 30h156l-1 -30c-2.66699 -41.333 -4 -80 -4 -116v-254c0 -67.333 -13.5 -124.166 -40.5 -170.499s-63.667 -80.833 -110 -103.5s-98.5 -34 -156.5 -34s-109.667 11.333 -155 34zM180 899.999h165l93 -120h-122z" />
    <glyph glyph-name="Uacute" unicode="&#xda;" horiz-adv-x="728" 
d="M208 26c-45.333 22.667 -81 56.999 -107 102.999s-39 103 -39 171v254c0 49.333 -1.66699 98 -5 146h157c-4 -58 -6 -106.667 -6 -146v-244c0 -58 13.333 -103.167 40 -135.5s65 -48.5 115 -48.5c48.667 0 87.667 16.5 117 49.5s44 77.833 44 134.5v244
c0 36 -1.33301 74.667 -4 116l-1 30h156l-1 -30c-2.66699 -41.333 -4 -80 -4 -116v-254c0 -67.333 -13.5 -124.166 -40.5 -170.499s-63.667 -80.833 -110 -103.5s-98.5 -34 -156.5 -34s-109.667 11.333 -155 34zM387 899.999h165l-136 -120h-122z" />
    <glyph glyph-name="Ucircumflex" unicode="&#xdb;" horiz-adv-x="728" 
d="M208 26c-45.333 22.667 -81 56.999 -107 102.999s-39 103 -39 171v254c0 49.333 -1.66699 98 -5 146h157c-4 -58 -6 -106.667 -6 -146v-244c0 -58 13.333 -103.167 40 -135.5s65 -48.5 115 -48.5c48.667 0 87.667 16.5 117 49.5s44 77.833 44 134.5v244
c0 36 -1.33301 74.667 -4 116l-1 30h156l-1 -30c-2.66699 -41.333 -4 -80 -4 -116v-254c0 -67.333 -13.5 -124.166 -40.5 -170.499s-63.667 -80.833 -110 -103.5s-98.5 -34 -156.5 -34s-109.667 11.333 -155 34zM305 899.999h122l123 -120h-132l-49 46l-55 -46h-132z" />
    <glyph glyph-name="Udieresis" unicode="&#xdc;" horiz-adv-x="728" 
d="M208 26c-45.333 22.667 -81 56.999 -107 102.999s-39 103 -39 171v254c0 49.333 -1.66699 98 -5 146h157c-4 -58 -6 -106.667 -6 -146v-244c0 -58 13.333 -103.167 40 -135.5s65 -48.5 115 -48.5c48.667 0 87.667 16.5 117 49.5s44 77.833 44 134.5v244
c0 36 -1.33301 74.667 -4 116l-1 30h156l-1 -30c-2.66699 -41.333 -4 -80 -4 -116v-254c0 -67.333 -13.5 -124.166 -40.5 -170.499s-63.667 -80.833 -110 -103.5s-98.5 -34 -156.5 -34s-109.667 11.333 -155 34zM213.5 783.999c-13 13.333 -19.5 29.998 -19.5 49.998
c0 20.667 6.5 37.834 19.5 51.501s29.5 20.5 49.5 20.5c21.333 0 38.833 -6.66699 52.5 -20s20.5 -30.666 20.5 -51.999c0 -20 -6.83301 -36.667 -20.5 -50s-31.167 -20 -52.5 -20c-20 0 -36.5 6.66699 -49.5 20zM415.5 783.997c-13 13.333 -19.5 29.998 -19.5 49.998
c0 20.667 6.5 37.834 19.5 51.501s29.5 20.5 49.5 20.5c21.333 0 38.833 -6.66699 52.5 -20s20.5 -30.666 20.5 -51.999c0 -20 -6.83301 -36.667 -20.5 -50s-31.167 -20 -52.5 -20c-20 0 -36.5 6.66699 -49.5 20z" />
    <glyph glyph-name="Yacute" unicode="&#xdd;" horiz-adv-x="674" 
d="M264 146l0.000976562 146.001l-199 325c-27.333 44 -45 71.667 -53 83h168c7.33301 -21.333 17.666 -43.666 30.999 -66.999l127 -218h1l132 218c18.667 31.333 29.667 53.666 33 66.999h163c-9.33301 -12.667 -27.333 -40.334 -54 -83.001l-202 -325v-146
c0 -45.333 1.66699 -94 5 -146h-157c3.33301 52 5 100.667 5 146zM360.001 900.001h165l-136 -120h-122z" />
    <glyph glyph-name="Thorn" unicode="&#xde;" horiz-adv-x="576" 
d="M67 39c0.666992 12.667 1.33203 28 1.99902 46s1 38.333 1 61v408c0 49.333 -1.66699 98 -5 146h157c-2 -28 -3.66699 -66.333 -5 -115h68c46 0 89 -8.66699 129 -26s72.333 -42.5 97 -75.5s37 -72.5 37 -118.5c0 -46.667 -12 -87.667 -36 -123
s-55.833 -62.333 -95.5 -81s-82.5 -28 -128.5 -28c-15.333 0 -39 1 -71 3c0 -22 0.333008 -41.5 1 -58.5s1.33398 -31.167 2.00098 -42.5l2 -35h-157zM368.498 292.5c20.333 17 30.5 41.167 30.5 72.5c0 30.667 -10.167 52.667 -30.5 66s-46.5 20 -78.5 20h-73v-178
c9.33301 -2 20 -3.5 32 -4.5s22.333 -1.5 31 -1.5c38.667 0 68.167 8.5 88.5 25.5z" />
    <glyph glyph-name="germandbls" unicode="&#xdf;" horiz-adv-x="608" 
d="M255 4v139h3c9.33301 -5.33301 21 -9.5 35 -12.5s26.667 -4.5 38 -4.5c31.333 0 57 9 77 27s30 43 30 75c0 34 -12.167 60.5 -36.5 79.5s-58.5 28.5 -102.5 28.5h-9v118c26.667 0 49 7.5 67 22.5s27 37.167 27 66.5c0 24.667 -7.5 44.334 -22.5 59.001
s-36.167 22 -63.5 22c-30.667 0 -54.667 -11.5 -72 -34.5s-26 -53.5 -26 -91.5v-352c0 -48.667 1.66699 -97.334 5 -146.001h-152l1 30c2.66699 41.333 4 80 4 116v383c0 46.667 10.833 87.334 32.5 122.001s51 61.334 88 80.001s77.5 28 121.5 28
c48.667 0 90 -9.16699 124 -27.5s59.5 -42.333 76.5 -72s25.5 -61.834 25.5 -96.501c0 -32.667 -6.5 -61 -19.5 -85s-31.167 -43.333 -54.5 -58v-1c40 -14.667 71.333 -39.5 94 -74.5s34 -74.5 34 -118.5c0 -46.667 -10.167 -87.834 -30.5 -123.501
s-48.333 -63.167 -84 -82.5s-75.5 -29 -119.5 -29c-30 0 -60.333 4.33301 -91 13z" />
    <glyph glyph-name="agrave" unicode="&#xe0;" horiz-adv-x="518" 
d="M115 11c-26 12.667 -46.6709 31.168 -62.0039 55.501s-23 52.833 -23 85.5c0 40 14 72.167 42 96.5s67.667 39.5 119 45.5l143 17c-2 48 -31 72 -87 72c-28.667 0 -57.834 -5.83301 -87.501 -17.5s-56.167 -25.5 -79.5 -41.5h-2v139
c20.667 11.333 46.834 21.666 78.501 30.999s64.834 14 99.501 14c61.333 0 111.833 -14.167 151.5 -42.5s59.5 -77.5 59.5 -147.5v-180v-42c0 -20.667 1.33301 -37.667 4 -51s8.33398 -28.333 17.001 -45h-145c-7.33301 14 -11.666 26.333 -12.999 37h-1
c-27.333 -30 -69.666 -45 -126.999 -45c-32 0 -61 6.33301 -87 19zM303.996 118.501c20 14.333 30 34.833 30 61.5v26l-106 -15c-38 -5.33301 -57 -19.666 -57 -42.999c0 -14.667 5.5 -26.834 16.5 -36.501s26.833 -14.5 47.5 -14.5c26 0 49 7.16699 69 21.5z
M76.9961 700.001h165l93 -120h-122z" />
    <glyph glyph-name="aacute" unicode="&#xe1;" horiz-adv-x="518" 
d="M115 11c-26 12.667 -46.6709 31.168 -62.0039 55.501s-23 52.833 -23 85.5c0 40 14 72.167 42 96.5s67.667 39.5 119 45.5l143 17c-2 48 -31 72 -87 72c-28.667 0 -57.834 -5.83301 -87.501 -17.5s-56.167 -25.5 -79.5 -41.5h-2v139
c20.667 11.333 46.834 21.666 78.501 30.999s64.834 14 99.501 14c61.333 0 111.833 -14.167 151.5 -42.5s59.5 -77.5 59.5 -147.5v-180v-42c0 -20.667 1.33301 -37.667 4 -51s8.33398 -28.333 17.001 -45h-145c-7.33301 14 -11.666 26.333 -12.999 37h-1
c-27.333 -30 -69.666 -45 -126.999 -45c-32 0 -61 6.33301 -87 19zM303.996 118.501c20 14.333 30 34.833 30 61.5v26l-106 -15c-38 -5.33301 -57 -19.666 -57 -42.999c0 -14.667 5.5 -26.834 16.5 -36.501s26.833 -14.5 47.5 -14.5c26 0 49 7.16699 69 21.5z
M283.996 700.001h165l-136 -120h-122z" />
    <glyph glyph-name="acircumflex" unicode="&#xe2;" horiz-adv-x="518" 
d="M115 11c-26 12.667 -46.6709 31.168 -62.0039 55.501s-23 52.833 -23 85.5c0 40 14 72.167 42 96.5s67.667 39.5 119 45.5l143 17c-2 48 -31 72 -87 72c-28.667 0 -57.834 -5.83301 -87.501 -17.5s-56.167 -25.5 -79.5 -41.5h-2v139
c20.667 11.333 46.834 21.666 78.501 30.999s64.834 14 99.501 14c61.333 0 111.833 -14.167 151.5 -42.5s59.5 -77.5 59.5 -147.5v-180v-42c0 -20.667 1.33301 -37.667 4 -51s8.33398 -28.333 17.001 -45h-145c-7.33301 14 -11.666 26.333 -12.999 37h-1
c-27.333 -30 -69.666 -45 -126.999 -45c-32 0 -61 6.33301 -87 19zM303.996 118.501c20 14.333 30 34.833 30 61.5v26l-106 -15c-38 -5.33301 -57 -19.666 -57 -42.999c0 -14.667 5.5 -26.834 16.5 -36.501s26.833 -14.5 47.5 -14.5c26 0 49 7.16699 69 21.5z
M201.996 700.001h122l123 -120h-132l-49 46l-55 -46h-132z" />
    <glyph glyph-name="atilde" unicode="&#xe3;" horiz-adv-x="518" 
d="M115 11c-26 12.667 -46.6709 31.168 -62.0039 55.501s-23 52.833 -23 85.5c0 40 14 72.167 42 96.5s67.667 39.5 119 45.5l143 17c-2 48 -31 72 -87 72c-28.667 0 -57.834 -5.83301 -87.501 -17.5s-56.167 -25.5 -79.5 -41.5h-2v139
c20.667 11.333 46.834 21.666 78.501 30.999s64.834 14 99.501 14c61.333 0 111.833 -14.167 151.5 -42.5s59.5 -77.5 59.5 -147.5v-180v-42c0 -20.667 1.33301 -37.667 4 -51s8.33398 -28.333 17.001 -45h-145c-7.33301 14 -11.666 26.333 -12.999 37h-1
c-27.333 -30 -69.666 -45 -126.999 -45c-32 0 -61 6.33301 -87 19zM303.996 118.501c20 14.333 30 34.833 30 61.5v26l-106 -15c-38 -5.33301 -57 -19.666 -57 -42.999c0 -14.667 5.5 -26.834 16.5 -36.501s26.833 -14.5 47.5 -14.5c26 0 49 7.16699 69 21.5z
M295.996 574.001c-12 4 -24.332 10.668 -36.999 20.001l-10 7c-11.333 8 -19.833 13.5 -25.5 16.5s-11.834 4.5 -18.501 4.5c-16.667 0 -25 -13 -25 -39h-109c3.33301 44.667 15.333 81 36 109s47 42 79 42c16.667 0 30.5 -1.83301 41.5 -5.5s21.833 -9.16699 32.5 -16.5
l17 -11c4 -2.66699 9 -5.83398 15 -9.50098s11.167 -6.5 15.5 -8.5s8.83301 -3 13.5 -3c16.667 0 25 13 25 39h109c-3.33301 -44.667 -15.333 -81 -36 -109s-47 -42 -79 -42c-17.333 0 -32 2 -44 6z" />
    <glyph glyph-name="adieresis" unicode="&#xe4;" horiz-adv-x="518" 
d="M115 11c-26 12.667 -46.6709 31.168 -62.0039 55.501s-23 52.833 -23 85.5c0 40 14 72.167 42 96.5s67.667 39.5 119 45.5l143 17c-2 48 -31 72 -87 72c-28.667 0 -57.834 -5.83301 -87.501 -17.5s-56.167 -25.5 -79.5 -41.5h-2v139
c20.667 11.333 46.834 21.666 78.501 30.999s64.834 14 99.501 14c61.333 0 111.833 -14.167 151.5 -42.5s59.5 -77.5 59.5 -147.5v-180v-42c0 -20.667 1.33301 -37.667 4 -51s8.33398 -28.333 17.001 -45h-145c-7.33301 14 -11.666 26.333 -12.999 37h-1
c-27.333 -30 -69.666 -45 -126.999 -45c-32 0 -61 6.33301 -87 19zM303.996 118.501c20 14.333 30 34.833 30 61.5v26l-106 -15c-38 -5.33301 -57 -19.666 -57 -42.999c0 -14.667 5.5 -26.834 16.5 -36.501s26.833 -14.5 47.5 -14.5c26 0 49 7.16699 69 21.5z
M110.496 584.001c-13 13.333 -19.5 29.998 -19.5 49.998c0 20.667 6.5 37.834 19.5 51.501s29.5 20.5 49.5 20.5c21.333 0 38.833 -6.66699 52.5 -20s20.5 -30.666 20.5 -51.999c0 -20 -6.83301 -36.667 -20.5 -50s-31.167 -20 -52.5 -20c-20 0 -36.5 6.66699 -49.5 20z
M312.496 583.999c-13 13.333 -19.5 29.998 -19.5 49.998c0 20.667 6.5 37.834 19.5 51.501s29.5 20.5 49.5 20.5c21.333 0 38.833 -6.66699 52.5 -20s20.5 -30.666 20.5 -51.999c0 -20 -6.83301 -36.667 -20.5 -50s-31.167 -20 -52.5 -20c-20 0 -36.5 6.66699 -49.5 20z" />
    <glyph glyph-name="aring" unicode="&#xe5;" horiz-adv-x="518" 
d="M115 11c-26 12.667 -46.6709 31.168 -62.0039 55.501s-23 52.833 -23 85.5c0 40 14 72.167 42 96.5s67.667 39.5 119 45.5l143 17c-2 48 -31 72 -87 72c-28.667 0 -57.834 -5.83301 -87.501 -17.5s-56.167 -25.5 -79.5 -41.5h-2v139
c20.667 11.333 46.834 21.666 78.501 30.999s64.834 14 99.501 14c61.333 0 111.833 -14.167 151.5 -42.5s59.5 -77.5 59.5 -147.5v-180v-42c0 -20.667 1.33301 -37.667 4 -51s8.33398 -28.333 17.001 -45h-145c-7.33301 14 -11.666 26.333 -12.999 37h-1
c-27.333 -30 -69.666 -45 -126.999 -45c-32 0 -61 6.33301 -87 19zM303.996 118.501c20 14.333 30 34.833 30 61.5v26l-106 -15c-38 -5.33301 -57 -19.666 -57 -42.999c0 -14.667 5.5 -26.834 16.5 -36.501s26.833 -14.5 47.5 -14.5c26 0 49 7.16699 69 21.5z
M180.996 575.001c-22.667 22.667 -34 49.667 -34 81s11.333 58.333 34 81s50 34 82 34c31.333 0 58.5 -11.333 81.5 -34s34.5 -49.667 34.5 -81s-11.5 -58.333 -34.5 -81s-50.167 -34 -81.5 -34c-32 0 -59.333 11.333 -82 34zM283.996 634.001c6 6 9 13.333 9 22
s-3 16 -9 22s-13 9 -21 9c-8.66699 0 -15.834 -3 -21.501 -9s-8.5 -13.333 -8.5 -22s2.83301 -16 8.5 -22s12.834 -9 21.501 -9c8 0 15 3 21 9z" />
    <glyph glyph-name="ae" unicode="&#xe6;" horiz-adv-x="847" 
d="M127 13c-30.667 14 -54.501 33.6719 -71.501 59.0049s-25.5 54.666 -25.5 87.999c0 47.333 18.5 84.166 55.5 110.499s88.167 39.5 153.5 39.5h95c-1.33301 26 -9.33301 44.667 -24 56s-37.667 17 -69 17c-25.333 0 -52.833 -5.83301 -82.5 -17.5
s-55.834 -25.5 -78.501 -41.5h-2v139c20.667 11.333 46.834 21.666 78.501 30.999s64.834 14 99.501 14c75.333 0 130.666 -19 165.999 -57h1c44.667 38 96.667 57 156 57c44.667 0 85.334 -10.5 122.001 -31.5s65.667 -51.167 87 -90.5s32 -85.333 32 -138
c0 -24 -2 -42.667 -6 -56h-337c6 -22 19.5 -39.833 40.5 -53.5s48.167 -20.5 81.5 -20.5c20.667 0 40.5 4 59.5 12s34.167 18 45.5 30l81 -102c-20.667 -20.667 -48.5 -36.834 -83.5 -48.501s-70.5 -17.5 -106.5 -17.5c-38 0 -73.167 5.66699 -105.5 17
s-59.833 27.666 -82.5 48.999h-1c-46 -44 -103.667 -66 -173 -66c-40 0 -75.333 7 -106 21zM683.999 310.005c-2.66699 23.333 -13.501 42.5 -32.501 57.5s-42.833 22.5 -71.5 22.5c-26.667 0 -49.667 -7.66699 -69 -23s-31.666 -34.333 -36.999 -57h210zM307.998 135.505
c17.333 11.667 25.999 28.167 25.999 49.5v7h-110c-15.333 0 -28 -3 -38 -9s-15 -14.333 -15 -25c0 -12 6.33301 -21.667 19 -29s29.334 -11 50.001 -11c28 0 50.667 5.83301 68 17.5z" />
    <glyph glyph-name="ccedilla" unicode="&#xe7;" horiz-adv-x="487" 
d="M214 338c-26 -23.333 -39.002 -52.668 -39.002 -88.001c0 -37.333 12.667 -67.166 38 -89.499s57 -33.5 95 -33.5c62 0 107.333 22 136 66h2v-170c-25.333 -15.333 -58.666 -24.666 -99.999 -27.999l-8 -29c19.333 -5.33301 34.333 -14 45 -26s16 -29.667 16 -53
c0 -31.333 -10.167 -55 -30.5 -71s-46.166 -24 -77.499 -24c-30 0 -55 3 -75 9v79h1c6.66699 -2.66699 15.5 -5 26.5 -7s21.167 -3 30.5 -3c10 0 17.667 2.16699 23 6.5s8 9.83301 8 16.5c0 5.33301 -2.5 9.83301 -7.5 13.5s-11.167 5.5 -18.5 5.5
c-10 0 -20.333 -1.33301 -31 -4h-1l23 85c-46.667 4 -88 17.167 -124 39.5s-63.833 52.166 -83.5 89.499s-29.5 80 -29.5 128c0 49.333 11.333 93.5 34 132.5s54.167 69.667 94.5 92s86.166 33.5 137.499 33.5c26.667 0 53.334 -2.5 80.001 -7.5s49 -13.167 67 -24.5v-169
h-2c-28 44 -73.333 66 -136 66c-36.667 0 -68 -11.667 -94 -35z" />
    <glyph glyph-name="egrave" unicode="&#xe8;" horiz-adv-x="546" 
d="M156 24.5c-39.333 21.667 -69.6699 52.002 -91.0029 91.002s-32 83.833 -32 134.5c0 48.667 10.833 92.667 32.5 132s51.334 70.166 89.001 92.499s78.834 33.5 123.501 33.5s85.334 -10.5 122.001 -31.5s65.667 -51.167 87 -90.5s32 -85.333 32 -138
c0 -24 -2 -42.667 -6 -56h-337c6 -22 19.5 -39.833 40.5 -53.5s48.167 -20.5 81.5 -20.5c20.667 0 40.5 4 59.5 12s34.167 18 45.5 30l81 -102c-20.667 -20.667 -48.5 -36.834 -83.5 -48.501s-70.5 -17.5 -106.5 -17.5c-52.667 0 -98.667 10.833 -138 32.5zM382.996 310.002
c-2.66699 23.333 -13.501 42.5 -32.501 57.5s-42.833 22.5 -71.5 22.5c-26.667 0 -49.667 -7.66699 -69 -23s-31.666 -34.333 -36.999 -57h210zM92.9951 700.002h165l93 -120h-122z" />
    <glyph glyph-name="eacute" unicode="&#xe9;" horiz-adv-x="546" 
d="M156 24.5c-39.333 21.667 -69.6699 52.002 -91.0029 91.002s-32 83.833 -32 134.5c0 48.667 10.833 92.667 32.5 132s51.334 70.166 89.001 92.499s78.834 33.5 123.501 33.5s85.334 -10.5 122.001 -31.5s65.667 -51.167 87 -90.5s32 -85.333 32 -138
c0 -24 -2 -42.667 -6 -56h-337c6 -22 19.5 -39.833 40.5 -53.5s48.167 -20.5 81.5 -20.5c20.667 0 40.5 4 59.5 12s34.167 18 45.5 30l81 -102c-20.667 -20.667 -48.5 -36.834 -83.5 -48.501s-70.5 -17.5 -106.5 -17.5c-52.667 0 -98.667 10.833 -138 32.5zM382.996 310.002
c-2.66699 23.333 -13.501 42.5 -32.501 57.5s-42.833 22.5 -71.5 22.5c-26.667 0 -49.667 -7.66699 -69 -23s-31.666 -34.333 -36.999 -57h210zM299.995 700.002h165l-136 -120h-122z" />
    <glyph glyph-name="ecircumflex" unicode="&#xea;" horiz-adv-x="546" 
d="M156 24.5c-39.333 21.667 -69.6699 52.002 -91.0029 91.002s-32 83.833 -32 134.5c0 48.667 10.833 92.667 32.5 132s51.334 70.166 89.001 92.499s78.834 33.5 123.501 33.5s85.334 -10.5 122.001 -31.5s65.667 -51.167 87 -90.5s32 -85.333 32 -138
c0 -24 -2 -42.667 -6 -56h-337c6 -22 19.5 -39.833 40.5 -53.5s48.167 -20.5 81.5 -20.5c20.667 0 40.5 4 59.5 12s34.167 18 45.5 30l81 -102c-20.667 -20.667 -48.5 -36.834 -83.5 -48.501s-70.5 -17.5 -106.5 -17.5c-52.667 0 -98.667 10.833 -138 32.5zM382.996 310.002
c-2.66699 23.333 -13.501 42.5 -32.501 57.5s-42.833 22.5 -71.5 22.5c-26.667 0 -49.667 -7.66699 -69 -23s-31.666 -34.333 -36.999 -57h210zM217.995 700.002h122l123 -120h-132l-49 46l-55 -46h-132z" />
    <glyph glyph-name="edieresis" unicode="&#xeb;" horiz-adv-x="546" 
d="M156 24.5c-39.333 21.667 -69.6699 52.002 -91.0029 91.002s-32 83.833 -32 134.5c0 48.667 10.833 92.667 32.5 132s51.334 70.166 89.001 92.499s78.834 33.5 123.501 33.5s85.334 -10.5 122.001 -31.5s65.667 -51.167 87 -90.5s32 -85.333 32 -138
c0 -24 -2 -42.667 -6 -56h-337c6 -22 19.5 -39.833 40.5 -53.5s48.167 -20.5 81.5 -20.5c20.667 0 40.5 4 59.5 12s34.167 18 45.5 30l81 -102c-20.667 -20.667 -48.5 -36.834 -83.5 -48.501s-70.5 -17.5 -106.5 -17.5c-52.667 0 -98.667 10.833 -138 32.5zM382.996 310.002
c-2.66699 23.333 -13.501 42.5 -32.501 57.5s-42.833 22.5 -71.5 22.5c-26.667 0 -49.667 -7.66699 -69 -23s-31.666 -34.333 -36.999 -57h210zM126.495 584.002c-13 13.333 -19.5 29.998 -19.5 49.998c0 20.667 6.5 37.834 19.5 51.501s29.5 20.5 49.5 20.5
c21.333 0 38.833 -6.66699 52.5 -20s20.5 -30.666 20.5 -51.999c0 -20 -6.83301 -36.667 -20.5 -50s-31.167 -20 -52.5 -20c-20 0 -36.5 6.66699 -49.5 20zM328.495 584c-13 13.333 -19.5 29.998 -19.5 49.998c0 20.667 6.5 37.834 19.5 51.501s29.5 20.5 49.5 20.5
c21.333 0 38.833 -6.66699 52.5 -20s20.5 -30.666 20.5 -51.999c0 -20 -6.83301 -36.667 -20.5 -50s-31.167 -20 -52.5 -20c-20 0 -36.5 6.66699 -49.5 20z" />
    <glyph glyph-name="igrave" unicode="&#xec;" horiz-adv-x="254" 
d="M55 35c2 64 3 100.999 3 110.999v208c0 36 -1.33301 74.667 -4 116l-1 30h152c-3.33301 -48 -5 -96.667 -5 -146v-208c0 -45.333 1.66699 -94 5 -146h-152c0 4.66699 0.666992 16.334 2 35.001zM-57 699.999h165l93 -120h-122z" />
    <glyph glyph-name="iacute" unicode="&#xed;" horiz-adv-x="254" 
d="M55 35c2 64 3 100.999 3 110.999v208c0 36 -1.33301 74.667 -4 116l-1 30h152c-3.33301 -48 -5 -96.667 -5 -146v-208c0 -45.333 1.66699 -94 5 -146h-152c0 4.66699 0.666992 16.334 2 35.001zM150 699.999h165l-136 -120h-122z" />
    <glyph glyph-name="icircumflex" unicode="&#xee;" horiz-adv-x="254" 
d="M55 35c2 64 3 100.999 3 110.999v208c0 36 -1.33301 74.667 -4 116l-1 30h152c-3.33301 -48 -5 -96.667 -5 -146v-208c0 -45.333 1.66699 -94 5 -146h-152c0 4.66699 0.666992 16.334 2 35.001zM68 699.999h122l123 -120h-132l-49 46l-55 -46h-132z" />
    <glyph glyph-name="idieresis" unicode="&#xef;" horiz-adv-x="254" 
d="M55 35c2 64 3 100.999 3 110.999v208c0 36 -1.33301 74.667 -4 116l-1 30h152c-3.33301 -48 -5 -96.667 -5 -146v-208c0 -45.333 1.66699 -94 5 -146h-152c0 4.66699 0.666992 16.334 2 35.001zM-23.5 583.999c-13 13.333 -19.5 29.998 -19.5 49.998
c0 20.667 6.5 37.834 19.5 51.501s29.5 20.5 49.5 20.5c21.333 0 38.833 -6.66699 52.5 -20s20.5 -30.666 20.5 -51.999c0 -20 -6.83301 -36.667 -20.5 -50s-31.167 -20 -52.5 -20c-20 0 -36.5 6.66699 -49.5 20zM178.5 583.997c-13 13.333 -19.5 29.998 -19.5 49.998
c0 20.667 6.5 37.834 19.5 51.501s29.5 20.5 49.5 20.5c21.333 0 38.833 -6.66699 52.5 -20s20.5 -30.666 20.5 -51.999c0 -20 -6.83301 -36.667 -20.5 -50s-31.167 -20 -52.5 -20c-20 0 -36.5 6.66699 -49.5 20z" />
    <glyph glyph-name="eth" unicode="&#xf0;" horiz-adv-x="584" 
d="M160.5 26c-39.667 22.667 -71 53.665 -94 92.998s-34.5 83 -34.5 131s11.5 91.667 34.5 131s54.333 70.333 94 93s83.5 34 131.5 34c30.667 0 58.667 -6.66699 84 -20l1 1c-16.667 28 -38.667 56.333 -66 85l-23 -7c-42.667 -13.333 -82.334 -27.333 -119.001 -42
l-35 109c11.333 2.66699 39 10.334 83 23.001c-32 25.333 -74 56 -126 92v2h195c20.667 -14 41.667 -31.333 63 -52l18 6c47.333 14.667 87.333 28.334 120 41.001l34 -109c-26.667 -6 -57.334 -14.333 -92.001 -25c44.667 -58 76.334 -112.333 95.001 -163s28 -108 28 -172
c0 -58.667 -11.167 -109.5 -33.5 -152.5s-53.166 -75.833 -92.499 -98.5s-84 -34 -134 -34c-48 0 -91.833 11.333 -131.5 34zM376 161.998c22.667 23.333 34 52.666 34 87.999s-11.333 64.666 -34 87.999s-50.667 35 -84 35c-32.667 0 -60.5 -11.667 -83.5 -35
s-34.5 -52.666 -34.5 -87.999s11.5 -64.666 34.5 -87.999s50.833 -35 83.5 -35c33.333 0 61.333 11.667 84 35z" />
    <glyph glyph-name="ntilde" unicode="&#xf1;" horiz-adv-x="575" 
d="M55 35c2 64 3.00098 100.998 3.00098 110.998v208c0 36 -1.33301 74.667 -4 116l-1 30h130l7 -53h1c16 18.667 36.333 33.5 61 44.5s49.667 16.5 75 16.5c63.333 0 112.5 -18.5 147.5 -55.5s52.5 -91.833 52.5 -164.5v-142c0 -45.333 1.66699 -94 5 -146h-153
c4 62 6 110.667 6 146v112c0 36.667 -7.83301 65 -23.5 85s-36.834 30 -63.501 30c-28 0 -51.333 -9.16699 -70 -27.5s-28 -48.166 -28 -89.499v-110c0 -45.333 1.66699 -94 5 -146h-152c0 4.66699 0.666992 16.334 2 35.001zM323.001 573.998
c-12 4 -24.332 10.668 -36.999 20.001l-10 7c-11.333 8 -19.833 13.5 -25.5 16.5s-11.834 4.5 -18.501 4.5c-16.667 0 -25 -13 -25 -39h-109c3.33301 44.667 15.333 81 36 109s47 42 79 42c16.667 0 30.5 -1.83301 41.5 -5.5s21.833 -9.16699 32.5 -16.5l17 -11
c4 -2.66699 9 -5.83398 15 -9.50098s11.167 -6.5 15.5 -8.5s8.83301 -3 13.5 -3c16.667 0 25 13 25 39h109c-3.33301 -44.667 -15.333 -81 -36 -109s-47 -42 -79 -42c-17.333 0 -32 2 -44 6z" />
    <glyph glyph-name="ograve" unicode="&#xf2;" horiz-adv-x="580" 
d="M160.5 26c-39.667 22.667 -71 53.667 -94 93s-34.5 83 -34.5 131s11.5 91.667 34.5 131s54.333 70.333 94 93s83.5 34 131.5 34c48.667 0 92.834 -11.333 132.501 -34s70.834 -53.667 93.501 -93s34 -83 34 -131c0 -48.667 -11.333 -92.5 -34 -131.5
s-53.834 -69.833 -93.501 -92.5s-83.834 -34 -132.501 -34c-48 0 -91.833 11.333 -131.5 34zM376 162c22.667 23.333 34 52.666 34 87.999s-11.333 64.666 -34 87.999s-50.667 35 -84 35c-32.667 0 -60.5 -11.667 -83.5 -35s-34.5 -52.666 -34.5 -87.999
s11.5 -64.666 34.5 -87.999s50.833 -35 83.5 -35c33.333 0 61.333 11.667 84 35zM106 700h165l93 -120h-122z" />
    <glyph glyph-name="oacute" unicode="&#xf3;" horiz-adv-x="580" 
d="M160.5 26c-39.667 22.667 -71 53.667 -94 93s-34.5 83 -34.5 131s11.5 91.667 34.5 131s54.333 70.333 94 93s83.5 34 131.5 34c48.667 0 92.834 -11.333 132.501 -34s70.834 -53.667 93.501 -93s34 -83 34 -131c0 -48.667 -11.333 -92.5 -34 -131.5
s-53.834 -69.833 -93.501 -92.5s-83.834 -34 -132.501 -34c-48 0 -91.833 11.333 -131.5 34zM376 162c22.667 23.333 34 52.666 34 87.999s-11.333 64.666 -34 87.999s-50.667 35 -84 35c-32.667 0 -60.5 -11.667 -83.5 -35s-34.5 -52.666 -34.5 -87.999
s11.5 -64.666 34.5 -87.999s50.833 -35 83.5 -35c33.333 0 61.333 11.667 84 35zM313 700h165l-136 -120h-122z" />
    <glyph glyph-name="ocircumflex" unicode="&#xf4;" horiz-adv-x="580" 
d="M160.5 26c-39.667 22.667 -71 53.667 -94 93s-34.5 83 -34.5 131s11.5 91.667 34.5 131s54.333 70.333 94 93s83.5 34 131.5 34c48.667 0 92.834 -11.333 132.501 -34s70.834 -53.667 93.501 -93s34 -83 34 -131c0 -48.667 -11.333 -92.5 -34 -131.5
s-53.834 -69.833 -93.501 -92.5s-83.834 -34 -132.501 -34c-48 0 -91.833 11.333 -131.5 34zM376 162c22.667 23.333 34 52.666 34 87.999s-11.333 64.666 -34 87.999s-50.667 35 -84 35c-32.667 0 -60.5 -11.667 -83.5 -35s-34.5 -52.666 -34.5 -87.999
s11.5 -64.666 34.5 -87.999s50.833 -35 83.5 -35c33.333 0 61.333 11.667 84 35zM231 700h122l123 -120h-132l-49 46l-55 -46h-132z" />
    <glyph glyph-name="otilde" unicode="&#xf5;" horiz-adv-x="580" 
d="M160.5 26c-39.667 22.667 -71 53.667 -94 93s-34.5 83 -34.5 131s11.5 91.667 34.5 131s54.333 70.333 94 93s83.5 34 131.5 34c48.667 0 92.834 -11.333 132.501 -34s70.834 -53.667 93.501 -93s34 -83 34 -131c0 -48.667 -11.333 -92.5 -34 -131.5
s-53.834 -69.833 -93.501 -92.5s-83.834 -34 -132.501 -34c-48 0 -91.833 11.333 -131.5 34zM376 162c22.667 23.333 34 52.666 34 87.999s-11.333 64.666 -34 87.999s-50.667 35 -84 35c-32.667 0 -60.5 -11.667 -83.5 -35s-34.5 -52.666 -34.5 -87.999
s11.5 -64.666 34.5 -87.999s50.833 -35 83.5 -35c33.333 0 61.333 11.667 84 35zM325 574c-12 4 -24.332 10.668 -36.999 20.001l-10 7c-11.333 8 -19.833 13.5 -25.5 16.5s-11.834 4.5 -18.501 4.5c-16.667 0 -25 -13 -25 -39h-109c3.33301 44.667 15.333 81 36 109
s47 42 79 42c16.667 0 30.5 -1.83301 41.5 -5.5s21.833 -9.16699 32.5 -16.5l17 -11c4 -2.66699 9 -5.83398 15 -9.50098s11.167 -6.5 15.5 -8.5s8.83301 -3 13.5 -3c16.667 0 25 13 25 39h109c-3.33301 -44.667 -15.333 -81 -36 -109s-47 -42 -79 -42
c-17.333 0 -32 2 -44 6z" />
    <glyph glyph-name="odieresis" unicode="&#xf6;" horiz-adv-x="580" 
d="M160.5 26c-39.667 22.667 -71 53.667 -94 93s-34.5 83 -34.5 131s11.5 91.667 34.5 131s54.333 70.333 94 93s83.5 34 131.5 34c48.667 0 92.834 -11.333 132.501 -34s70.834 -53.667 93.501 -93s34 -83 34 -131c0 -48.667 -11.333 -92.5 -34 -131.5
s-53.834 -69.833 -93.501 -92.5s-83.834 -34 -132.501 -34c-48 0 -91.833 11.333 -131.5 34zM376 162c22.667 23.333 34 52.666 34 87.999s-11.333 64.666 -34 87.999s-50.667 35 -84 35c-32.667 0 -60.5 -11.667 -83.5 -35s-34.5 -52.666 -34.5 -87.999
s11.5 -64.666 34.5 -87.999s50.833 -35 83.5 -35c33.333 0 61.333 11.667 84 35zM139.5 584c-13 13.333 -19.5 29.998 -19.5 49.998c0 20.667 6.5 37.834 19.5 51.501s29.5 20.5 49.5 20.5c21.333 0 38.833 -6.66699 52.5 -20s20.5 -30.666 20.5 -51.999
c0 -20 -6.83301 -36.667 -20.5 -50s-31.167 -20 -52.5 -20c-20 0 -36.5 6.66699 -49.5 20zM341.5 583.998c-13 13.333 -19.5 29.998 -19.5 49.998c0 20.667 6.5 37.834 19.5 51.501s29.5 20.5 49.5 20.5c21.333 0 38.833 -6.66699 52.5 -20s20.5 -30.666 20.5 -51.999
c0 -20 -6.83301 -36.667 -20.5 -50s-31.167 -20 -52.5 -20c-20 0 -36.5 6.66699 -49.5 20z" />
    <glyph glyph-name="divide" unicode="&#xf7;" horiz-adv-x="545" 
d="M217.5 374c-15 14.667 -22.5 33 -22.5 55c0 22.667 7.5 41.5 22.5 56.5s33.5 22.5 55.5 22.5s40.5 -7.5 55.5 -22.5s22.5 -33.833 22.5 -56.5c0 -22 -7.5 -40.333 -22.5 -55s-33.5 -22 -55.5 -22s-40.5 7.33301 -55.5 22zM62 324c52 -3.33301 100.334 -5 145.001 -5h135
c45.333 0 93.666 1.66699 144.999 5v-129c-52 3.33301 -100.333 5 -145 5h-135c-44.667 0 -93 -1.66699 -145 -5v129zM217.501 33c-15 14.667 -22.5 33 -22.5 55c0 22.667 7.5 41.5 22.5 56.5s33.5 22.5 55.5 22.5s40.5 -7.5 55.5 -22.5s22.5 -33.833 22.5 -56.5
c0 -22 -7.5 -40.333 -22.5 -55s-33.5 -22 -55.5 -22s-40.5 7.33301 -55.5 22z" />
    <glyph glyph-name="oslash" unicode="&#xf8;" horiz-adv-x="580" 
d="M552 250c0 -48.667 -11.3311 -92.499 -33.998 -131.499s-53.834 -69.833 -93.501 -92.5s-83.834 -34 -132.501 -34c-51.333 0 -97 12.333 -137 37c-16 -18.667 -26.333 -31 -31 -37l-84 86c20.667 18 31.667 27.667 33 29c-27.333 43.333 -41 91 -41 143
c0 48 11.5 91.667 34.5 131s54.333 70.333 94 93s83.5 34 131.5 34c51.333 0 98 -12.667 140 -38c8 9.33301 18 21.666 30 36.999l82 -87l-32 -28c26.667 -42.667 40 -90 40 -142zM208.502 338.001c-23 -23.333 -34.5 -52.667 -34.5 -88c0 -12 1.66699 -24.667 5 -38
l154 154c-12 4.66699 -25.667 7 -41 7c-32.667 0 -60.5 -11.667 -83.5 -35zM376.002 162c22.667 23.333 34 52.667 34 88c0 12 -1.66699 24 -5 36l-150 -153c12 -4 24.333 -6 37 -6c33.333 0 61.333 11.667 84 35z" />
    <glyph glyph-name="ugrave" unicode="&#xf9;" horiz-adv-x="562" 
d="M53 195l-0.000976562 159c0 10 -1 47 -3 111c-1.33301 18.667 -2 30.334 -2 35.001h152c-3.33301 -51.333 -5 -100 -5 -146v-125c0 -68 27.333 -102 82 -102c26.667 0 48.167 10 64.5 30s24.5 46 24.5 78v119c0 35.333 -2 84 -6 146h153
c-3.33301 -51.333 -5 -100 -5 -146v-208c0 -48.667 1.66699 -97.334 5 -146.001h-130l-8 57h-1c-35.333 -43.333 -78.666 -65 -129.999 -65c-127.333 0 -191 67.667 -191 203zM94.999 700h165l93 -120h-122z" />
    <glyph glyph-name="uacute" unicode="&#xfa;" horiz-adv-x="562" 
d="M53 195l-0.000976562 159c0 10 -1 47 -3 111c-1.33301 18.667 -2 30.334 -2 35.001h152c-3.33301 -51.333 -5 -100 -5 -146v-125c0 -68 27.333 -102 82 -102c26.667 0 48.167 10 64.5 30s24.5 46 24.5 78v119c0 35.333 -2 84 -6 146h153
c-3.33301 -51.333 -5 -100 -5 -146v-208c0 -48.667 1.66699 -97.334 5 -146.001h-130l-8 57h-1c-35.333 -43.333 -78.666 -65 -129.999 -65c-127.333 0 -191 67.667 -191 203zM301.999 700h165l-136 -120h-122z" />
    <glyph glyph-name="ucircumflex" unicode="&#xfb;" horiz-adv-x="562" 
d="M53 195l-0.000976562 159c0 10 -1 47 -3 111c-1.33301 18.667 -2 30.334 -2 35.001h152c-3.33301 -51.333 -5 -100 -5 -146v-125c0 -68 27.333 -102 82 -102c26.667 0 48.167 10 64.5 30s24.5 46 24.5 78v119c0 35.333 -2 84 -6 146h153
c-3.33301 -51.333 -5 -100 -5 -146v-208c0 -48.667 1.66699 -97.334 5 -146.001h-130l-8 57h-1c-35.333 -43.333 -78.666 -65 -129.999 -65c-127.333 0 -191 67.667 -191 203zM219.999 700h122l123 -120h-132l-49 46l-55 -46h-132z" />
    <glyph glyph-name="udieresis" unicode="&#xfc;" horiz-adv-x="562" 
d="M53 195l-0.000976562 159c0 10 -1 47 -3 111c-1.33301 18.667 -2 30.334 -2 35.001h152c-3.33301 -51.333 -5 -100 -5 -146v-125c0 -68 27.333 -102 82 -102c26.667 0 48.167 10 64.5 30s24.5 46 24.5 78v119c0 35.333 -2 84 -6 146h153
c-3.33301 -51.333 -5 -100 -5 -146v-208c0 -48.667 1.66699 -97.334 5 -146.001h-130l-8 57h-1c-35.333 -43.333 -78.666 -65 -129.999 -65c-127.333 0 -191 67.667 -191 203zM128.499 584c-13 13.333 -19.5 29.998 -19.5 49.998c0 20.667 6.5 37.834 19.5 51.501
s29.5 20.5 49.5 20.5c21.333 0 38.833 -6.66699 52.5 -20s20.5 -30.666 20.5 -51.999c0 -20 -6.83301 -36.667 -20.5 -50s-31.167 -20 -52.5 -20c-20 0 -36.5 6.66699 -49.5 20zM330.499 583.998c-13 13.333 -19.5 29.998 -19.5 49.998c0 20.667 6.5 37.834 19.5 51.501
s29.5 20.5 49.5 20.5c21.333 0 38.833 -6.66699 52.5 -20s20.5 -30.666 20.5 -51.999c0 -20 -6.83301 -36.667 -20.5 -50s-31.167 -20 -52.5 -20c-20 0 -36.5 6.66699 -49.5 20z" />
    <glyph glyph-name="yacute" unicode="&#xfd;" horiz-adv-x="528" 
d="M100 -199c0.666992 1.33301 3.33301 5.33301 8 12s9.66699 17 15 31l73 188l-169 414c-8 18.667 -17.667 36.334 -29 53.001v1h163c-0.666992 -2 -1 -5 -1 -9c0 -10 3 -22.333 9 -37l101 -249h1l96 249c7.33301 18.667 10.333 34 9 46h157v-1l-14 -23
c-6 -10 -11 -20 -15 -30l-237 -604c-3.33301 -8.66699 -5 -16.334 -5 -23.001s1.33301 -12.667 4 -18v-1h-166v1zM286.999 700h165l-136 -120h-122z" />
    <glyph glyph-name="thorn" unicode="&#xfe;" horiz-adv-x="608" 
d="M57 -54v659c0 49.333 -1.66699 98 -5 146h152l-1 -30c-2.66699 -41.333 -4 -80 -4 -116v-148h1c12.667 13.333 29.5 25.166 50.5 35.499s46.5 15.5 76.5 15.5c51.333 0 96 -11.167 134 -33.5s67.167 -53 87.5 -92s30.5 -83.167 30.5 -132.5
c0 -48.667 -10.167 -92.667 -30.5 -132s-49.5 -70.166 -87.5 -92.499s-82.667 -33.5 -134 -33.5c-52 0 -94.333 17 -127 51h-1v-97c0 -36 1.33301 -74.667 4 -116l1 -30h-152c3.33301 48 5 96.667 5 146zM402.5 162c23 23.333 34.5 52.668 34.5 88.001
s-11.5 64.666 -34.5 87.999s-51.833 35 -86.5 35c-32.667 0 -60.334 -12 -83.001 -36s-34 -53 -34 -87s11.333 -63 34 -87s50.334 -36 83.001 -36c34.667 0 63.5 11.667 86.5 35z" />
    <glyph glyph-name="ydieresis" unicode="&#xff;" horiz-adv-x="528" 
d="M100 -199c0.666992 1.33301 3.33301 5.33301 8 12s9.66699 17 15 31l73 188l-169 414c-8 18.667 -17.667 36.334 -29 53.001v1h163c-0.666992 -2 -1 -5 -1 -9c0 -10 3 -22.333 9 -37l101 -249h1l96 249c7.33301 18.667 10.333 34 9 46h157v-1l-14 -23
c-6 -10 -11 -20 -15 -30l-237 -604c-3.33301 -8.66699 -5 -16.334 -5 -23.001s1.33301 -12.667 4 -18v-1h-166v1zM113.499 584c-13 13.333 -19.5 29.998 -19.5 49.998c0 20.667 6.5 37.834 19.5 51.501s29.5 20.5 49.5 20.5c21.333 0 38.833 -6.66699 52.5 -20
s20.5 -30.666 20.5 -51.999c0 -20 -6.83301 -36.667 -20.5 -50s-31.167 -20 -52.5 -20c-20 0 -36.5 6.66699 -49.5 20zM315.499 583.998c-13 13.333 -19.5 29.998 -19.5 49.998c0 20.667 6.5 37.834 19.5 51.501s29.5 20.5 49.5 20.5c21.333 0 38.833 -6.66699 52.5 -20
s20.5 -30.666 20.5 -51.999c0 -20 -6.83301 -36.667 -20.5 -50s-31.167 -20 -52.5 -20c-20 0 -36.5 6.66699 -49.5 20z" />
    <glyph glyph-name="Amacron" unicode="&#x100;" horiz-adv-x="729" 
d="M0 1c14 18.667 28.333 45.665 43 80.998l232 558c7.33301 18 12.5 31.833 15.5 41.5s4.83301 15.834 5.5 18.501h128c1.33301 -5.33301 4.66602 -15 9.99902 -29l12 -31l247 -558c8 -18 16.333 -34.5 25 -49.5s15.334 -25.5 20.001 -31.5v-1h-166c-2 4 -5 11.833 -9 23.5
s-10 26.167 -18 43.5l-42 96h-277l-39 -96c-14.667 -37.333 -22 -59.666 -22 -66.999h-165v1zM448 296.998l-90 199l-82 -199h172zM201 888.998h314v-100h-314v100z" />
    <glyph glyph-name="amacron" unicode="&#x101;" horiz-adv-x="518" 
d="M115 11c-26 12.667 -46.6709 31.168 -62.0039 55.501s-23 52.833 -23 85.5c0 40 14 72.167 42 96.5s67.667 39.5 119 45.5l143 17c-2 48 -31 72 -87 72c-28.667 0 -57.834 -5.83301 -87.501 -17.5s-56.167 -25.5 -79.5 -41.5h-2v139
c20.667 11.333 46.834 21.666 78.501 30.999s64.834 14 99.501 14c61.333 0 111.833 -14.167 151.5 -42.5s59.5 -77.5 59.5 -147.5v-180v-42c0 -20.667 1.33301 -37.667 4 -51s8.33398 -28.333 17.001 -45h-145c-7.33301 14 -11.666 26.333 -12.999 37h-1
c-27.333 -30 -69.666 -45 -126.999 -45c-32 0 -61 6.33301 -87 19zM303.996 118.501c20 14.333 30 34.833 30 61.5v26l-106 -15c-38 -5.33301 -57 -19.666 -57 -42.999c0 -14.667 5.5 -26.834 16.5 -36.501s26.833 -14.5 47.5 -14.5c26 0 49 7.16699 69 21.5z
M105.996 689.001h314v-100h-314v100z" />
    <glyph glyph-name="Abreve" unicode="&#x102;" horiz-adv-x="729" 
d="M0 1c14 18.667 28.333 45.665 43 80.998l232 558c7.33301 18 12.5 31.833 15.5 41.5s4.83301 15.834 5.5 18.501h128c1.33301 -5.33301 4.66602 -15 9.99902 -29l12 -31l247 -558c8 -18 16.333 -34.5 25 -49.5s15.334 -25.5 20.001 -31.5v-1h-166c-2 4 -5 11.833 -9 23.5
s-10 26.167 -18 43.5l-42 96h-277l-39 -96c-14.667 -37.333 -22 -59.666 -22 -66.999h-165v1zM448 296.998l-90 199l-82 -199h172zM244 800.498c-29.333 25 -46 58.167 -50 99.5h103c2.66699 -14.667 9.16699 -26.334 19.5 -35.001s23.833 -13 40.5 -13
s30.167 4.33301 40.5 13s16.833 20.334 19.5 35.001h103c-4 -41.333 -20.667 -74.5 -50 -99.5s-67 -37.5 -113 -37.5s-83.667 12.5 -113 37.5z" />
    <glyph glyph-name="abreve" unicode="&#x103;" horiz-adv-x="518" 
d="M115 11c-26 12.667 -46.6709 31.168 -62.0039 55.501s-23 52.833 -23 85.5c0 40 14 72.167 42 96.5s67.667 39.5 119 45.5l143 17c-2 48 -31 72 -87 72c-28.667 0 -57.834 -5.83301 -87.501 -17.5s-56.167 -25.5 -79.5 -41.5h-2v139
c20.667 11.333 46.834 21.666 78.501 30.999s64.834 14 99.501 14c61.333 0 111.833 -14.167 151.5 -42.5s59.5 -77.5 59.5 -147.5v-180v-42c0 -20.667 1.33301 -37.667 4 -51s8.33398 -28.333 17.001 -45h-145c-7.33301 14 -11.666 26.333 -12.999 37h-1
c-27.333 -30 -69.666 -45 -126.999 -45c-32 0 -61 6.33301 -87 19zM303.996 118.501c20 14.333 30 34.833 30 61.5v26l-106 -15c-38 -5.33301 -57 -19.666 -57 -42.999c0 -14.667 5.5 -26.834 16.5 -36.501s26.833 -14.5 47.5 -14.5c26 0 49 7.16699 69 21.5z
M148.996 600.501c-29.333 25 -46 58.167 -50 99.5h103c2.66699 -14.667 9.16699 -26.334 19.5 -35.001s23.833 -13 40.5 -13s30.167 4.33301 40.5 13s16.833 20.334 19.5 35.001h103c-4 -41.333 -20.667 -74.5 -50 -99.5s-67 -37.5 -113 -37.5s-83.667 12.5 -113 37.5z" />
    <glyph glyph-name="Aogonek" unicode="&#x104;" horiz-adv-x="729" 
d="M674.5 -26.5c-11.667 -10.333 -17.499 -21.835 -17.499 -34.502c0 -9.33301 3.33301 -17 10 -23s15.334 -9 26.001 -9c8 0 16 1.66699 24 5h1v-105c-21.333 -8 -49.333 -12 -84 -12s-62.834 8.5 -84.501 25.5s-32.5 41.833 -32.5 74.5c0 43.333 18 78.666 54 105.999
c-0.666992 2.66699 -2.83398 9.16699 -6.50098 19.5s-10.167 25.833 -19.5 46.5l-42 96h-277l-39 -96c-14.667 -37.333 -22 -59.666 -22 -66.999h-165v1c14 18.667 28.333 45.667 43 81l232 558c7.33301 18 12.5 31.833 15.5 41.5s4.83301 15.834 5.5 18.501h128
c1.33301 -5.33301 4.66602 -15 9.99902 -29l12 -31l247 -558c8 -18 16.333 -34.5 25 -49.5s15.334 -25.5 20.001 -31.5v-1h-17c-19.333 -7.33301 -34.833 -16.166 -46.5 -26.499zM448.001 296.998l-90 199l-82 -199h172z" />
    <glyph glyph-name="aogonek" unicode="&#x105;" horiz-adv-x="518" 
d="M481 -89l0.99707 0.00195312v-105c-21.333 -8 -49.333 -12 -84 -12s-62.834 8.5 -84.501 25.5s-32.5 41.833 -32.5 74.5c0 46 20 82.667 60 110c-5.33301 11.333 -9 22.333 -11 33h-1c-27.333 -30 -69.666 -45 -126.999 -45c-32 0 -61 6.33301 -87 19
s-46.667 31.167 -62 55.5s-23 52.833 -23 85.5c0 40 14 72.167 42 96.5s67.667 39.5 119 45.5l143 17c-2 48 -31 72 -87 72c-28.667 0 -57.834 -5.83301 -87.501 -17.5s-56.167 -25.5 -79.5 -41.5h-2v139c20.667 11.333 46.834 21.666 78.501 30.999s64.834 14 99.501 14
c61.333 0 111.833 -14.167 151.5 -42.5s59.5 -77.5 59.5 -147.5v-180v-42c0 -20.667 1.33301 -37.667 4 -51s8.33398 -28.333 17.001 -45c-20.667 -7.33301 -37 -16.333 -49 -27s-18 -22.334 -18 -35.001c0 -9.33301 3.33301 -17 10 -23s15.334 -9 26.001 -9
c8 0 16 1.66699 24 5zM333.997 206.002l-106 -15c-38 -5.33301 -57 -19.666 -57 -42.999c0 -14.667 5.5 -26.834 16.5 -36.501s26.833 -14.5 47.5 -14.5c26 0 49 7.16699 69 21.5s30 34.833 30 61.5v26z" />
    <glyph glyph-name="Cacute" unicode="&#x106;" horiz-adv-x="689" 
d="M228.5 36c-58.333 29.333 -104.83 71.3311 -139.497 125.998s-52 117.667 -52 189c0 72 17.333 135.167 52 189.5s81.167 96.166 139.5 125.499s122.166 44 191.499 44c48.667 0 90.5 -5 125.5 -15s67.833 -23 98.5 -39v-187h-3c-22 22.667 -42 41.167 -60 55.5
s-40.333 26.5 -67 36.5s-58 15 -94 15c-42.667 0 -81.834 -9.66699 -117.501 -29s-64 -46.166 -85 -80.499s-31.5 -72.833 -31.5 -115.5s10.5 -81.167 31.5 -115.5s49.5 -61.166 85.5 -80.499s75 -29 117 -29c36 0 67.333 4.83301 94 14.5s49.167 21.834 67.5 36.501
s38.166 33 59.499 55h3v-186c-29.333 -16 -61.833 -29 -97.5 -39s-77.834 -15 -126.501 -15c-69.333 0 -133.166 14.667 -191.499 44zM441.003 899.998h165l-136 -120h-122z" />
    <glyph glyph-name="cacute" unicode="&#x107;" horiz-adv-x="487" 
d="M162 24c-40.667 21.333 -72.333 51.498 -95 90.498s-34 84.167 -34 135.5c0 49.333 11.333 93.5 34 132.5s54.167 69.667 94.5 92s86.166 33.5 137.499 33.5c26.667 0 53.334 -2.5 80.001 -7.5s49 -13.167 67 -24.5v-169h-2c-28 44 -73.333 66 -136 66
c-36.667 0 -68 -11.667 -94 -35s-39 -52.666 -39 -87.999c0 -37.333 12.667 -67.166 38 -89.499s57 -33.5 95 -33.5c62 0 107.333 22 136 66h2v-170c-18 -10.667 -40.5 -18.5 -67.5 -23.5s-52.833 -7.5 -77.5 -7.5c-52 0 -98.333 10.667 -139 32zM329.001 699.998h165
l-136 -120h-122z" />
    <glyph glyph-name="Cdotaccent" unicode="&#x10a;" horiz-adv-x="689" 
d="M228.5 36c-58.333 29.333 -104.83 71.3311 -139.497 125.998s-52 117.667 -52 189c0 72 17.333 135.167 52 189.5s81.167 96.166 139.5 125.499s122.166 44 191.499 44c48.667 0 90.5 -5 125.5 -15s67.833 -23 98.5 -39v-187h-3c-22 22.667 -42 41.167 -60 55.5
s-40.333 26.5 -67 36.5s-58 15 -94 15c-42.667 0 -81.834 -9.66699 -117.501 -29s-64 -46.166 -85 -80.499s-31.5 -72.833 -31.5 -115.5s10.5 -81.167 31.5 -115.5s49.5 -61.166 85.5 -80.499s75 -29 117 -29c36 0 67.333 4.83301 94 14.5s49.167 21.834 67.5 36.501
s38.166 33 59.499 55h3v-186c-29.333 -16 -61.833 -29 -97.5 -39s-77.834 -15 -126.501 -15c-69.333 0 -133.166 14.667 -191.499 44zM364.503 782.998c-15 14.667 -22.5 33 -22.5 55c0 22.667 7.5 41.5 22.5 56.5s33.5 22.5 55.5 22.5s40.5 -7.5 55.5 -22.5
s22.5 -33.833 22.5 -56.5c0 -22 -7.5 -40.333 -22.5 -55s-33.5 -22 -55.5 -22s-40.5 7.33301 -55.5 22z" />
    <glyph glyph-name="cdotaccent" unicode="&#x10b;" horiz-adv-x="487" 
d="M162 24c-40.667 21.333 -72.333 51.498 -95 90.498s-34 84.167 -34 135.5c0 49.333 11.333 93.5 34 132.5s54.167 69.667 94.5 92s86.166 33.5 137.499 33.5c26.667 0 53.334 -2.5 80.001 -7.5s49 -13.167 67 -24.5v-169h-2c-28 44 -73.333 66 -136 66
c-36.667 0 -68 -11.667 -94 -35s-39 -52.666 -39 -87.999c0 -37.333 12.667 -67.166 38 -89.499s57 -33.5 95 -33.5c62 0 107.333 22 136 66h2v-170c-18 -10.667 -40.5 -18.5 -67.5 -23.5s-52.833 -7.5 -77.5 -7.5c-52 0 -98.333 10.667 -139 32zM252.501 582.998
c-15 14.667 -22.5 33 -22.5 55c0 22.667 7.5 41.5 22.5 56.5s33.5 22.5 55.5 22.5s40.5 -7.5 55.5 -22.5s22.5 -33.833 22.5 -56.5c0 -22 -7.5 -40.333 -22.5 -55s-33.5 -22 -55.5 -22s-40.5 7.33301 -55.5 22z" />
    <glyph glyph-name="Ccaron" unicode="&#x10c;" horiz-adv-x="689" 
d="M228.5 36c-58.333 29.333 -104.83 71.3311 -139.497 125.998s-52 117.667 -52 189c0 72 17.333 135.167 52 189.5s81.167 96.166 139.5 125.499s122.166 44 191.499 44c48.667 0 90.5 -5 125.5 -15s67.833 -23 98.5 -39v-187h-3c-22 22.667 -42 41.167 -60 55.5
s-40.333 26.5 -67 36.5s-58 15 -94 15c-42.667 0 -81.834 -9.66699 -117.501 -29s-64 -46.166 -85 -80.499s-31.5 -72.833 -31.5 -115.5s10.5 -81.167 31.5 -115.5s49.5 -61.166 85.5 -80.499s75 -29 117 -29c36 0 67.333 4.83301 94 14.5s49.167 21.834 67.5 36.501
s38.166 33 59.499 55h3v-186c-29.333 -16 -61.833 -29 -97.5 -39s-77.834 -15 -126.501 -15c-69.333 0 -133.166 14.667 -191.499 44zM236.003 899.998h132l55 -46l49 46h132l-123 -120h-122z" />
    <glyph glyph-name="ccaron" unicode="&#x10d;" horiz-adv-x="487" 
d="M162 24c-40.667 21.333 -72.333 51.498 -95 90.498s-34 84.167 -34 135.5c0 49.333 11.333 93.5 34 132.5s54.167 69.667 94.5 92s86.166 33.5 137.499 33.5c26.667 0 53.334 -2.5 80.001 -7.5s49 -13.167 67 -24.5v-169h-2c-28 44 -73.333 66 -136 66
c-36.667 0 -68 -11.667 -94 -35s-39 -52.666 -39 -87.999c0 -37.333 12.667 -67.166 38 -89.499s57 -33.5 95 -33.5c62 0 107.333 22 136 66h2v-170c-18 -10.667 -40.5 -18.5 -67.5 -23.5s-52.833 -7.5 -77.5 -7.5c-52 0 -98.333 10.667 -139 32zM124.001 699.998h132
l55 -46l49 46h132l-123 -120h-122z" />
    <glyph glyph-name="Dcaron" unicode="&#x10e;" horiz-adv-x="711" 
d="M258.5 -4.5c-19 1 -32.832 1.5 -41.499 1.5c-26 2 -51 3 -75 3h-77c3.33301 52 5 100.667 5 146v408c0 49.333 -1.66699 98 -5 146h247c72 0 135.5 -14.833 190.5 -44.5s97.833 -71.167 128.5 -124.5s46 -114 46 -182c0 -67.333 -15.5 -128 -46.5 -182
s-74.333 -96.333 -130 -127s-118.834 -46 -189.501 -46c-16 0 -33.5 0.5 -52.5 1.5zM422.501 157c33.667 19.333 59.6689 45.667 78.002 79s27.5 70.333 27.5 111c0 42 -9.16699 79.667 -27.5 113s-44.833 59.5 -79.5 78.5s-75.334 28.5 -122.001 28.5h-81l-1 -31v-374
c0 -10.667 0.666992 -17.667 2 -21s4.66602 -5.66602 9.99902 -6.99902c8 -2.66699 18.5 -4.33398 31.5 -5.00098s27.5 -1 43.5 -1c45.333 0 84.833 9.66699 118.5 29zM185.003 900.001h132l55 -46l49 46h132l-123 -120h-122z" />
    <glyph glyph-name="dcaron" unicode="&#x10f;" horiz-adv-x="628" 
d="M151 25.5c-38 22.333 -67.167 53.002 -87.5 92.002s-30.5 83.167 -30.5 132.5c0 48.667 10.167 92.667 30.5 132s49.5 70.166 87.5 92.499s82.667 33.5 134 33.5c52 0 94.333 -17 127 -51h1v148c0 36 -1.33301 74.667 -4 116l-1 30h152c-3.33301 -48 -5 -96.667 -5 -146
v-460c0 -44.667 1.66699 -93 5 -145h-118c-7.33301 10.667 -14.333 28 -21 52h-1c-12.667 -16.667 -30.5 -30.834 -53.5 -42.501s-50.167 -17.5 -81.5 -17.5c-51.333 0 -96 11.167 -134 33.5zM379 163.002c22.667 24 34 52.998 34 86.998s-11.333 63 -34 87
s-50.334 36 -83.001 36c-34.667 0 -63.5 -11.667 -86.5 -35s-34.5 -52.666 -34.5 -87.999s11.5 -64.666 34.5 -87.999s51.833 -35 86.5 -35c32.667 0 60.334 12 83.001 36zM618 751h165l-76 -146h-111z" />
    <glyph glyph-name="Dcroat" unicode="&#x110;" horiz-adv-x="738" 
d="M529.5 655.5c55 -29.667 97.834 -71.167 128.501 -124.5s46 -114 46 -182c0 -67.333 -15.5 -128 -46.5 -182s-74.333 -96.333 -130 -127s-118.834 -46 -189.501 -46c-16 0 -33.5 0.5 -52.5 1.5s-32.833 1.5 -41.5 1.5c-26 2 -51 3 -75 3h-77c3.33301 52 5 100.667 5 146
v144c-14.667 0 -40 -1 -76 -3v125l76 -3v145c0 49.333 -1.66699 98 -5 146h247c72 0 135.5 -14.833 190.5 -44.5zM449.501 157c33.667 19.333 59.6689 45.667 78.002 79s27.5 70.333 27.5 111c0 42 -9.16699 79.667 -27.5 113s-44.833 59.5 -79.5 78.5
s-75.334 28.5 -122.001 28.5h-81l-1 -31v-127h27c56.667 0 98.667 1 126 3v-125c-36 2.66699 -78 4 -126 4h-27v-129c0 -10.667 0.666992 -17.667 2 -21s4.66602 -5.66602 9.99902 -6.99902c8 -2.66699 18.5 -4.33398 31.5 -5.00098s27.5 -1 43.5 -1
c45.333 0 84.833 9.66699 118.5 29z" />
    <glyph glyph-name="dcroat" unicode="&#x111;" horiz-adv-x="609" 
d="M555 555v-409.998c0 -44.667 1.66699 -93 5 -145h-118c-7.33301 10.667 -14.333 28 -21 52h-1c-12.667 -16.667 -30.5 -30.834 -53.5 -42.501s-50.167 -17.5 -81.5 -17.5c-51.333 0 -96 11.167 -134 33.5s-67.167 53 -87.5 92s-30.5 83.167 -30.5 132.5
c0 48.667 10.167 92.667 30.5 132s49.5 70.166 87.5 92.499s82.667 33.5 134 33.5c52 0 94.333 -17 127 -51h1v99h-22c-48 0 -90 -1.33301 -126 -4v125c27.333 -2 69.333 -3 126 -3h21l-4 77h152c-2 -38.667 -3.33301 -64 -4 -76c20.667 0 41 0.666992 61 2v-125z
M379 163.002c22.667 24 34 52.998 34 86.998s-11.333 63 -34 87s-50.334 36 -83.001 36c-34.667 0 -63.5 -11.667 -86.5 -35s-34.5 -52.666 -34.5 -87.999s11.5 -64.666 34.5 -87.999s51.833 -35 86.5 -35c32.667 0 60.334 12 83.001 36z" />
    <glyph glyph-name="Emacron" unicode="&#x112;" horiz-adv-x="587" 
d="M70 146v407.998c0 49.333 -1.66699 98 -5 146h473l4 -138c-48.667 3.33301 -93 5 -133 5h-193c0.666992 -4.66699 1 -10.667 1 -18v-131h146c53.333 0 98.333 1.66699 135 5v-142c-39.333 4.66699 -84 6.33398 -134 5.00098h-147v-130
c0 -9.33301 -0.333008 -16.666 -1 -21.999h196c52.667 0 97.667 1.66699 135 5l-4 -139h-478c3.33301 52 5 100.667 5 146zM150 888.998h314v-100h-314v100z" />
    <glyph glyph-name="emacron" unicode="&#x113;" horiz-adv-x="546" 
d="M156 24.5c-39.333 21.667 -69.6699 52.002 -91.0029 91.002s-32 83.833 -32 134.5c0 48.667 10.833 92.667 32.5 132s51.334 70.166 89.001 92.499s78.834 33.5 123.501 33.5s85.334 -10.5 122.001 -31.5s65.667 -51.167 87 -90.5s32 -85.333 32 -138
c0 -24 -2 -42.667 -6 -56h-337c6 -22 19.5 -39.833 40.5 -53.5s48.167 -20.5 81.5 -20.5c20.667 0 40.5 4 59.5 12s34.167 18 45.5 30l81 -102c-20.667 -20.667 -48.5 -36.834 -83.5 -48.501s-70.5 -17.5 -106.5 -17.5c-52.667 0 -98.667 10.833 -138 32.5zM382.996 310.002
c-2.66699 23.333 -13.501 42.5 -32.501 57.5s-42.833 22.5 -71.5 22.5c-26.667 0 -49.667 -7.66699 -69 -23s-31.666 -34.333 -36.999 -57h210zM121.995 689.002h314v-100h-314v100z" />
    <glyph glyph-name="Edotaccent" unicode="&#x116;" horiz-adv-x="587" 
d="M70 146v407.998c0 49.333 -1.66699 98 -5 146h473l4 -138c-48.667 3.33301 -93 5 -133 5h-193c0.666992 -4.66699 1 -10.667 1 -18v-131h146c53.333 0 98.333 1.66699 135 5v-142c-39.333 4.66699 -84 6.33398 -134 5.00098h-147v-130
c0 -9.33301 -0.333008 -16.666 -1 -21.999h196c52.667 0 97.667 1.66699 135 5l-4 -139h-478c3.33301 52 5 100.667 5 146zM251.5 782.998c-15 14.667 -22.5 33 -22.5 55c0 22.667 7.5 41.5 22.5 56.5s33.5 22.5 55.5 22.5s40.5 -7.5 55.5 -22.5s22.5 -33.833 22.5 -56.5
c0 -22 -7.5 -40.333 -22.5 -55s-33.5 -22 -55.5 -22s-40.5 7.33301 -55.5 22z" />
    <glyph glyph-name="edotaccent" unicode="&#x117;" horiz-adv-x="546" 
d="M156 24.5c-39.333 21.667 -69.6699 52.002 -91.0029 91.002s-32 83.833 -32 134.5c0 48.667 10.833 92.667 32.5 132s51.334 70.166 89.001 92.499s78.834 33.5 123.501 33.5s85.334 -10.5 122.001 -31.5s65.667 -51.167 87 -90.5s32 -85.333 32 -138
c0 -24 -2 -42.667 -6 -56h-337c6 -22 19.5 -39.833 40.5 -53.5s48.167 -20.5 81.5 -20.5c20.667 0 40.5 4 59.5 12s34.167 18 45.5 30l81 -102c-20.667 -20.667 -48.5 -36.834 -83.5 -48.501s-70.5 -17.5 -106.5 -17.5c-52.667 0 -98.667 10.833 -138 32.5zM382.996 310.002
c-2.66699 23.333 -13.501 42.5 -32.501 57.5s-42.833 22.5 -71.5 22.5c-26.667 0 -49.667 -7.66699 -69 -23s-31.666 -34.333 -36.999 -57h210zM223.495 583.002c-15 14.667 -22.5 33 -22.5 55c0 22.667 7.5 41.5 22.5 56.5s33.5 22.5 55.5 22.5s40.5 -7.5 55.5 -22.5
s22.5 -33.833 22.5 -56.5c0 -22 -7.5 -40.333 -22.5 -55s-33.5 -22 -55.5 -22s-40.5 7.33301 -55.5 22z" />
    <glyph glyph-name="Eogonek" unicode="&#x118;" horiz-adv-x="587" 
d="M494 -27c-12 -10.667 -18 -22.335 -18 -35.002c0 -9.33301 3.33301 -17 10 -23s15.334 -9 26.001 -9c8 0 16 1.66699 24 5h1v-105c-21.333 -8 -49.333 -12 -84 -12s-62.834 8.5 -84.501 25.5s-32.5 41.833 -32.5 74.5c0 44 18 79.333 54 106h-325
c3.33301 52 5 100.667 5 146v408c0 49.333 -1.66699 98 -5 146h473l4 -138c-48.667 3.33301 -93 5 -133 5h-193c0.666992 -4.66699 1 -10.667 1 -18v-131h146c53.333 0 98.333 1.66699 135 5v-142c-39.333 4.66699 -84 6.33398 -134 5.00098h-147v-130
c0 -9.33301 -0.333008 -16.666 -1 -21.999h196c52.667 0 97.667 1.66699 135 5l-4 -139c-20.667 -7.33301 -37 -16.333 -49 -27z" />
    <glyph glyph-name="eogonek" unicode="&#x119;" horiz-adv-x="546" 
d="M252.5 -181c-23.667 16.667 -35.5029 40.667 -35.5029 72c0 20.667 4.83301 39.834 14.5 57.501s23.5 33.167 41.5 46.5v1h-3c-46 0 -87 11.167 -123 33.5s-64 52.833 -84 91.5s-30 81.667 -30 129c0 48.667 10.833 92.667 32.5 132s51.334 70.166 89.001 92.499
s78.834 33.5 123.501 33.5s85.334 -10.5 122.001 -31.5s65.667 -51.167 87 -90.5s32 -85.333 32 -138c0 -24 -2 -42.667 -6 -56h-337c6 -22 19.5 -39.833 40.5 -53.5s48.167 -20.5 81.5 -20.5c20.667 0 40.5 4 59.5 12s34.167 18 45.5 30l81 -102
c-8 -7.33301 -18 -14.5 -30 -21.5s-28 -15.5 -48 -25.5c-34 -17.333 -51 -39 -51 -65c0 -12.667 3.5 -22.5 10.5 -29.5s16.833 -10.5 29.5 -10.5c6.66699 0 14 1.66699 22 5h1v-105c-25.333 -8 -52 -12 -80 -12c-33.333 0 -61.833 8.33301 -85.5 25zM382.997 310
c-2.66699 23.333 -13.501 42.5 -32.501 57.5s-42.833 22.5 -71.5 22.5c-26.667 0 -49.667 -7.66699 -69 -23s-31.666 -34.333 -36.999 -57h210z" />
    <glyph glyph-name="Ecaron" unicode="&#x11a;" horiz-adv-x="587" 
d="M70 146v407.998c0 49.333 -1.66699 98 -5 146h473l4 -138c-48.667 3.33301 -93 5 -133 5h-193c0.666992 -4.66699 1 -10.667 1 -18v-131h146c53.333 0 98.333 1.66699 135 5v-142c-39.333 4.66699 -84 6.33398 -134 5.00098h-147v-130
c0 -9.33301 -0.333008 -16.666 -1 -21.999h196c52.667 0 97.667 1.66699 135 5l-4 -139h-478c3.33301 52 5 100.667 5 146zM123 899.998h132l55 -46l49 46h132l-123 -120h-122z" />
    <glyph glyph-name="ecaron" unicode="&#x11b;" horiz-adv-x="546" 
d="M156 24.5c-39.333 21.667 -69.6699 52.002 -91.0029 91.002s-32 83.833 -32 134.5c0 48.667 10.833 92.667 32.5 132s51.334 70.166 89.001 92.499s78.834 33.5 123.501 33.5s85.334 -10.5 122.001 -31.5s65.667 -51.167 87 -90.5s32 -85.333 32 -138
c0 -24 -2 -42.667 -6 -56h-337c6 -22 19.5 -39.833 40.5 -53.5s48.167 -20.5 81.5 -20.5c20.667 0 40.5 4 59.5 12s34.167 18 45.5 30l81 -102c-20.667 -20.667 -48.5 -36.834 -83.5 -48.501s-70.5 -17.5 -106.5 -17.5c-52.667 0 -98.667 10.833 -138 32.5zM382.996 310.002
c-2.66699 23.333 -13.501 42.5 -32.501 57.5s-42.833 22.5 -71.5 22.5c-26.667 0 -49.667 -7.66699 -69 -23s-31.666 -34.333 -36.999 -57h210zM94.9951 700.002h132l55 -46l49 46h132l-123 -120h-122z" />
    <glyph glyph-name="Gcircumflex" unicode="&#x11c;" horiz-adv-x="722" 
d="M225 35c-56.667 28.667 -102.166 70.1689 -136.499 124.502s-51.5 118.166 -51.5 191.499c0 71.333 17.667 134.333 53 189s82.5 96.667 141.5 126s122.833 44 191.5 44c86.667 0 163.334 -18 230.001 -54v-187h-2c-32 33.333 -65 59.5 -99 78.5s-77 28.5 -129 28.5
c-42 0 -81.167 -9.66699 -117.5 -29s-65.333 -46.166 -87 -80.499s-32.5 -72.833 -32.5 -115.5c0 -44.667 10.667 -84 32 -118s50.5 -60.167 87.5 -78.5s78.167 -27.5 123.5 -27.5c16 0 31.167 1.66699 45.5 5s32.833 8.33301 55.5 15v36c0 26 -1 52 -3 78
c-1.33301 26.667 -2 46.667 -2 60h152l-2 -37c-0.666992 -11.333 -1.33398 -25.333 -2.00098 -42s-1 -36.334 -1 -59.001v-37c0 -30.667 2 -79.334 6 -146.001c-21.333 0 -47.333 0.666992 -78 2c-26.667 1.33301 -45.334 2 -56.001 2c-12.667 0 -33 -2 -61 -6
c-29.333 -4 -53.666 -6 -72.999 -6c-66.667 0 -128.334 14.333 -185.001 43zM362.001 900.002h122l123 -120h-132l-49 46l-55 -46h-132z" />
    <glyph glyph-name="gcircumflex" unicode="&#x11d;" horiz-adv-x="505" 
d="M96 -177c-43.333 20.667 -65.002 49.665 -65.002 86.998c0 28 15.667 49.333 47 64v1c-14 14 -24.5 28.5 -31.5 43.5s-10.5 32.5 -10.5 52.5c0 22.667 6.5 43.334 19.5 62.001s30.833 32.667 53.5 42v1c-20 18 -35.5 39 -46.5 63s-16.5 50 -16.5 78
c0 35.333 8.83301 67.666 26.5 96.999s41.667 52.333 72 69s63.166 25 98.499 25c24 0 55 -3.66699 93 -11c18.667 -3.33301 31.334 -5 38.001 -5c23.333 0 58.333 8.33301 105 25h2v-109c-8 -4 -18.667 -6 -32 -6c-9.33301 0 -20.666 2 -33.999 6v-3
c8.66699 -12.667 14.834 -27 18.501 -43s5.5 -31 5.5 -45c0 -36 -8.66699 -68.5 -26 -97.5s-41 -51.667 -71 -68s-63 -24.5 -99 -24.5l-67 -1c-16.667 0 -25 -7.66699 -25 -23c0 -7.33301 2.5 -13.166 7.5 -17.499s11.5 -6.5 19.5 -6.5h183c44 0 79 -11 105 -33
s39 -51.667 39 -89c0 -55.333 -21.833 -96.666 -65.5 -123.999s-102.167 -41 -175.5 -41c-68.667 0 -124.667 10.333 -168 31zM291.998 266.498c14.667 13.667 22 30.5 22 50.5s-7.33301 36.667 -22 50s-31 20 -49 20s-34.333 -6.66699 -49 -20s-22 -30 -22 -50
s7.33301 -36.833 22 -50.5s31 -20.5 49 -20.5s34.333 6.83301 49 20.5zM345.498 -98.002c17 4.66699 25.499 13.333 25.499 26c0 6.66699 -3.33301 12 -10 16s-14 6 -22 6h-139c-10.667 0 -19.167 -1.83301 -25.5 -5.5s-9.5 -8.5 -9.5 -14.5
c0 -13.333 7.33301 -22.5 22 -27.5s40.334 -7.5 77.001 -7.5c37.333 0 64.5 2.33301 81.5 7zM187.997 699.997h122l123 -120h-132l-49 46l-55 -46h-132z" />
    <glyph glyph-name="Gbreve" unicode="&#x11e;" horiz-adv-x="722" 
d="M225 35c-56.667 28.667 -102.166 70.1689 -136.499 124.502s-51.5 118.166 -51.5 191.499c0 71.333 17.667 134.333 53 189s82.5 96.667 141.5 126s122.833 44 191.5 44c86.667 0 163.334 -18 230.001 -54v-187h-2c-32 33.333 -65 59.5 -99 78.5s-77 28.5 -129 28.5
c-42 0 -81.167 -9.66699 -117.5 -29s-65.333 -46.166 -87 -80.499s-32.5 -72.833 -32.5 -115.5c0 -44.667 10.667 -84 32 -118s50.5 -60.167 87.5 -78.5s78.167 -27.5 123.5 -27.5c16 0 31.167 1.66699 45.5 5s32.833 8.33301 55.5 15v36c0 26 -1 52 -3 78
c-1.33301 26.667 -2 46.667 -2 60h152l-2 -37c-0.666992 -11.333 -1.33398 -25.333 -2.00098 -42s-1 -36.334 -1 -59.001v-37c0 -30.667 2 -79.334 6 -146.001c-21.333 0 -47.333 0.666992 -78 2c-26.667 1.33301 -45.334 2 -56.001 2c-12.667 0 -33 -2 -61 -6
c-29.333 -4 -53.666 -6 -72.999 -6c-66.667 0 -128.334 14.333 -185.001 43zM309.001 800.502c-29.333 25 -46 58.167 -50 99.5h103c2.66699 -14.667 9.16699 -26.334 19.5 -35.001s23.833 -13 40.5 -13s30.167 4.33301 40.5 13s16.833 20.334 19.5 35.001h103
c-4 -41.333 -20.667 -74.5 -50 -99.5s-67 -37.5 -113 -37.5s-83.667 12.5 -113 37.5z" />
    <glyph glyph-name="gbreve" unicode="&#x11f;" horiz-adv-x="505" 
d="M96 -177c-43.333 20.667 -65.002 49.665 -65.002 86.998c0 28 15.667 49.333 47 64v1c-14 14 -24.5 28.5 -31.5 43.5s-10.5 32.5 -10.5 52.5c0 22.667 6.5 43.334 19.5 62.001s30.833 32.667 53.5 42v1c-20 18 -35.5 39 -46.5 63s-16.5 50 -16.5 78
c0 35.333 8.83301 67.666 26.5 96.999s41.667 52.333 72 69s63.166 25 98.499 25c24 0 55 -3.66699 93 -11c18.667 -3.33301 31.334 -5 38.001 -5c23.333 0 58.333 8.33301 105 25h2v-109c-8 -4 -18.667 -6 -32 -6c-9.33301 0 -20.666 2 -33.999 6v-3
c8.66699 -12.667 14.834 -27 18.501 -43s5.5 -31 5.5 -45c0 -36 -8.66699 -68.5 -26 -97.5s-41 -51.667 -71 -68s-63 -24.5 -99 -24.5l-67 -1c-16.667 0 -25 -7.66699 -25 -23c0 -7.33301 2.5 -13.166 7.5 -17.499s11.5 -6.5 19.5 -6.5h183c44 0 79 -11 105 -33
s39 -51.667 39 -89c0 -55.333 -21.833 -96.666 -65.5 -123.999s-102.167 -41 -175.5 -41c-68.667 0 -124.667 10.333 -168 31zM291.998 266.498c14.667 13.667 22 30.5 22 50.5s-7.33301 36.667 -22 50s-31 20 -49 20s-34.333 -6.66699 -49 -20s-22 -30 -22 -50
s7.33301 -36.833 22 -50.5s31 -20.5 49 -20.5s34.333 6.83301 49 20.5zM345.498 -98.002c17 4.66699 25.499 13.333 25.499 26c0 6.66699 -3.33301 12 -10 16s-14 6 -22 6h-139c-10.667 0 -19.167 -1.83301 -25.5 -5.5s-9.5 -8.5 -9.5 -14.5
c0 -13.333 7.33301 -22.5 22 -27.5s40.334 -7.5 77.001 -7.5c37.333 0 64.5 2.33301 81.5 7zM134.997 600.497c-29.333 25 -46 58.167 -50 99.5h103c2.66699 -14.667 9.16699 -26.334 19.5 -35.001s23.833 -13 40.5 -13s30.167 4.33301 40.5 13s16.833 20.334 19.5 35.001
h103c-4 -41.333 -20.667 -74.5 -50 -99.5s-67 -37.5 -113 -37.5s-83.667 12.5 -113 37.5z" />
    <glyph glyph-name="Gdotaccent" unicode="&#x120;" horiz-adv-x="722" 
d="M225 35c-56.667 28.667 -102.166 70.1689 -136.499 124.502s-51.5 118.166 -51.5 191.499c0 71.333 17.667 134.333 53 189s82.5 96.667 141.5 126s122.833 44 191.5 44c86.667 0 163.334 -18 230.001 -54v-187h-2c-32 33.333 -65 59.5 -99 78.5s-77 28.5 -129 28.5
c-42 0 -81.167 -9.66699 -117.5 -29s-65.333 -46.166 -87 -80.499s-32.5 -72.833 -32.5 -115.5c0 -44.667 10.667 -84 32 -118s50.5 -60.167 87.5 -78.5s78.167 -27.5 123.5 -27.5c16 0 31.167 1.66699 45.5 5s32.833 8.33301 55.5 15v36c0 26 -1 52 -3 78
c-1.33301 26.667 -2 46.667 -2 60h152l-2 -37c-0.666992 -11.333 -1.33398 -25.333 -2.00098 -42s-1 -36.334 -1 -59.001v-37c0 -30.667 2 -79.334 6 -146.001c-21.333 0 -47.333 0.666992 -78 2c-26.667 1.33301 -45.334 2 -56.001 2c-12.667 0 -33 -2 -61 -6
c-29.333 -4 -53.666 -6 -72.999 -6c-66.667 0 -128.334 14.333 -185.001 43zM367.501 783.002c-15 14.667 -22.5 33 -22.5 55c0 22.667 7.5 41.5 22.5 56.5s33.5 22.5 55.5 22.5s40.5 -7.5 55.5 -22.5s22.5 -33.833 22.5 -56.5c0 -22 -7.5 -40.333 -22.5 -55
s-33.5 -22 -55.5 -22s-40.5 7.33301 -55.5 22z" />
    <glyph glyph-name="gdotaccent" unicode="&#x121;" horiz-adv-x="505" 
d="M96 -177c-43.333 20.667 -65.002 49.665 -65.002 86.998c0 28 15.667 49.333 47 64v1c-14 14 -24.5 28.5 -31.5 43.5s-10.5 32.5 -10.5 52.5c0 22.667 6.5 43.334 19.5 62.001s30.833 32.667 53.5 42v1c-20 18 -35.5 39 -46.5 63s-16.5 50 -16.5 78
c0 35.333 8.83301 67.666 26.5 96.999s41.667 52.333 72 69s63.166 25 98.499 25c24 0 55 -3.66699 93 -11c18.667 -3.33301 31.334 -5 38.001 -5c23.333 0 58.333 8.33301 105 25h2v-109c-8 -4 -18.667 -6 -32 -6c-9.33301 0 -20.666 2 -33.999 6v-3
c8.66699 -12.667 14.834 -27 18.501 -43s5.5 -31 5.5 -45c0 -36 -8.66699 -68.5 -26 -97.5s-41 -51.667 -71 -68s-63 -24.5 -99 -24.5l-67 -1c-16.667 0 -25 -7.66699 -25 -23c0 -7.33301 2.5 -13.166 7.5 -17.499s11.5 -6.5 19.5 -6.5h183c44 0 79 -11 105 -33
s39 -51.667 39 -89c0 -55.333 -21.833 -96.666 -65.5 -123.999s-102.167 -41 -175.5 -41c-68.667 0 -124.667 10.333 -168 31zM291.998 266.498c14.667 13.667 22 30.5 22 50.5s-7.33301 36.667 -22 50s-31 20 -49 20s-34.333 -6.66699 -49 -20s-22 -30 -22 -50
s7.33301 -36.833 22 -50.5s31 -20.5 49 -20.5s34.333 6.83301 49 20.5zM345.498 -98.002c17 4.66699 25.499 13.333 25.499 26c0 6.66699 -3.33301 12 -10 16s-14 6 -22 6h-139c-10.667 0 -19.167 -1.83301 -25.5 -5.5s-9.5 -8.5 -9.5 -14.5
c0 -13.333 7.33301 -22.5 22 -27.5s40.334 -7.5 77.001 -7.5c37.333 0 64.5 2.33301 81.5 7zM193.497 582.997c-15 14.667 -22.5 33 -22.5 55c0 22.667 7.5 41.5 22.5 56.5s33.5 22.5 55.5 22.5s40.5 -7.5 55.5 -22.5s22.5 -33.833 22.5 -56.5c0 -22 -7.5 -40.333 -22.5 -55
s-33.5 -22 -55.5 -22s-40.5 7.33301 -55.5 22z" />
    <glyph glyph-name="Gcommaaccent" unicode="&#x122;" horiz-adv-x="722" 
d="M225 35c-56.667 28.667 -102.166 70.1689 -136.499 124.502s-51.5 118.166 -51.5 191.499c0 71.333 17.667 134.333 53 189s82.5 96.667 141.5 126s122.833 44 191.5 44c86.667 0 163.334 -18 230.001 -54v-187h-2c-32 33.333 -65 59.5 -99 78.5s-77 28.5 -129 28.5
c-42 0 -81.167 -9.66699 -117.5 -29s-65.333 -46.166 -87 -80.499s-32.5 -72.833 -32.5 -115.5c0 -44.667 10.667 -84 32 -118s50.5 -60.167 87.5 -78.5s78.167 -27.5 123.5 -27.5c16 0 31.167 1.66699 45.5 5s32.833 8.33301 55.5 15v36c0 26 -1 52 -3 78
c-1.33301 26.667 -2 46.667 -2 60h152l-2 -37c-0.666992 -11.333 -1.33398 -25.333 -2.00098 -42s-1 -36.334 -1 -59.001v-37c0 -30.667 2 -79.334 6 -146.001c-21.333 0 -47.333 0.666992 -78 2c-26.667 1.33301 -45.334 2 -56.001 2c-12.667 0 -33 -2 -61 -6
c-29.333 -4 -53.666 -6 -72.999 -6c-66.667 0 -128.334 14.333 -185.001 43zM335.001 -53.998h165l-76 -146h-111z" />
    <glyph glyph-name="gcommaaccent" unicode="&#x123;" horiz-adv-x="505" 
d="M96 -177c-43.333 20.667 -65.002 49.665 -65.002 86.998c0 28 15.667 49.333 47 64v1c-14 14 -24.5 28.5 -31.5 43.5s-10.5 32.5 -10.5 52.5c0 22.667 6.5 43.334 19.5 62.001s30.833 32.667 53.5 42v1c-20 18 -35.5 39 -46.5 63s-16.5 50 -16.5 78
c0 35.333 8.83301 67.666 26.5 96.999s41.667 52.333 72 69s63.166 25 98.499 25c24 0 55 -3.66699 93 -11c18.667 -3.33301 31.334 -5 38.001 -5c23.333 0 58.333 8.33301 105 25h2v-109c-8 -4 -18.667 -6 -32 -6c-9.33301 0 -20.666 2 -33.999 6v-3
c8.66699 -12.667 14.834 -27 18.501 -43s5.5 -31 5.5 -45c0 -36 -8.66699 -68.5 -26 -97.5s-41 -51.667 -71 -68s-63 -24.5 -99 -24.5l-67 -1c-16.667 0 -25 -7.66699 -25 -23c0 -7.33301 2.5 -13.166 7.5 -17.499s11.5 -6.5 19.5 -6.5h183c44 0 79 -11 105 -33
s39 -51.667 39 -89c0 -55.333 -21.833 -96.666 -65.5 -123.999s-102.167 -41 -175.5 -41c-68.667 0 -124.667 10.333 -168 31zM291.998 266.498c14.667 13.667 22 30.5 22 50.5s-7.33301 36.667 -22 50s-31 20 -49 20s-34.333 -6.66699 -49 -20s-22 -30 -22 -50
s7.33301 -36.833 22 -50.5s31 -20.5 49 -20.5s34.333 6.83301 49 20.5zM345.498 -98.002c17 4.66699 25.499 13.333 25.499 26c0 6.66699 -3.33301 12 -10 16s-14 6 -22 6h-139c-10.667 0 -19.167 -1.83301 -25.5 -5.5s-9.5 -8.5 -9.5 -14.5
c0 -13.333 7.33301 -22.5 22 -27.5s40.334 -7.5 77.001 -7.5c37.333 0 64.5 2.33301 81.5 7zM239.997 725.997h111l-22 -146h-165z" />
    <glyph glyph-name="Hcircumflex" unicode="&#x124;" horiz-adv-x="744" 
d="M70 146v408.001c0 49.333 -1.66699 98 -5 146h157c-3.33301 -48 -5 -96.667 -5 -146v-135h315v135c0 39.333 -2 88 -6 146h157l-1 -30c-2.66699 -41.333 -4 -80 -4 -116v-408c0 -10 1 -47 3 -111c1.33301 -18.667 2 -30.334 2 -35.001h-157c4 62 6 110.667 6 146v139
h-315v-139c0 -45.333 1.66699 -94 5 -146h-157c3.33301 52 5 100.667 5 146zM313 900.001h122l123 -120h-132l-49 46l-55 -46h-132z" />
    <glyph glyph-name="hcircumflex" unicode="&#x125;" horiz-adv-x="575" 
d="M55 35c2 64 3.00098 100.999 3.00098 110.999v459c0 49.333 -1.66699 98 -5 146h153c-4 -58 -6 -106.667 -6 -146v-148h1c16.667 15.333 36.167 27.666 58.5 36.999s44.833 14 67.5 14c63.333 0 112.5 -18.5 147.5 -55.5s52.5 -91.833 52.5 -164.5v-142
c0 -45.333 1.66699 -94 5 -146h-153c4 62 6 110.667 6 146v112c0 36.667 -7.83301 65 -23.5 85s-36.834 30 -63.501 30c-28 0 -51.333 -9.16699 -70 -27.5s-28 -48.166 -28 -89.499v-110c0 -45.333 1.66699 -94 5 -146h-152c0 4.66699 0.666992 16.334 2 35.001z
M231.001 950.999h122l123 -120h-132l-49 46l-55 -46h-132z" />
    <glyph glyph-name="Hbar" unicode="&#x126;" horiz-adv-x="785" 
d="M699 503v-356.999c0 -10 1 -47 3 -111c1.33301 -18.667 2 -30.334 2 -35.001h-157c4 62 6 110.667 6 146v139h-315v-139c0 -45.333 1.66699 -94 5 -146h-157c3.33301 52 5 100.667 5 146v357l-67 -3v125c21.333 -1.33301 43.333 -2 66 -2l-4 77h157
c-2.66699 -43.333 -4 -69.333 -4 -78h313l-5 78h157l-4 -77c22 0 43.667 0.666992 65 2v-125zM553 419.001v85h-315v-85h315z" />
    <glyph glyph-name="hbar" unicode="&#x127;" horiz-adv-x="575" 
d="M385 146l0.000976562 111.999c0 36.667 -7.83301 65 -23.5 85s-36.834 30 -63.501 30c-28 0 -51.333 -9.16699 -70 -27.5s-28 -48.166 -28 -89.499v-110c0 -45.333 1.66699 -94 5 -146h-152c0 4.66699 0.666992 16.334 2 35.001c2 64 3 101 3 111v409l-62 -3v125
c20 -1.33301 40.333 -2 61 -2c-0.666992 12 -2 37.333 -4 76h153l-4 -77h10c57.333 0 99.333 1 126 3v-125c-36 2.66699 -78 4 -126 4h-12v-99h1c16.667 15.333 36.167 27.666 58.5 36.999s44.833 14 67.5 14c63.333 0 112.5 -18.5 147.5 -55.5s52.5 -91.833 52.5 -164.5
v-142c0 -45.333 1.66699 -94 5 -146h-153c4 62 6 110.667 6 146z" />
    <glyph glyph-name="Itilde" unicode="&#x128;" horiz-adv-x="283" 
d="M70 146v408c0 49.333 -1.66699 98 -5 146h157c-3.33301 -48 -5 -96.667 -5 -146v-408c0 -45.333 1.66699 -94 5 -146h-157c3.33301 52 5 100.667 5 146zM176 774c-12 4 -24.332 10.668 -36.999 20.001l-10 7c-11.333 8 -19.833 13.5 -25.5 16.5s-11.834 4.5 -18.501 4.5
c-16.667 0 -25 -13 -25 -39h-109c3.33301 44.667 15.333 81 36 109s47 42 79 42c16.667 0 30.5 -1.83301 41.5 -5.5s21.833 -9.16699 32.5 -16.5l17 -11c4 -2.66699 9 -5.83398 15 -9.50098s11.167 -6.5 15.5 -8.5s8.83301 -3 13.5 -3c16.667 0 25 13 25 39h109
c-3.33301 -44.667 -15.333 -81 -36 -109s-47 -42 -79 -42c-17.333 0 -32 2 -44 6z" />
    <glyph glyph-name="itilde" unicode="&#x129;" horiz-adv-x="254" 
d="M55 35c2 64 3 100.999 3 110.999v208c0 36 -1.33301 74.667 -4 116l-1 30h152c-3.33301 -48 -5 -96.667 -5 -146v-208c0 -45.333 1.66699 -94 5 -146h-152c0 4.66699 0.666992 16.334 2 35.001zM162 573.999c-12 4 -24.332 10.668 -36.999 20.001l-10 7
c-11.333 8 -19.833 13.5 -25.5 16.5s-11.834 4.5 -18.501 4.5c-16.667 0 -25 -13 -25 -39h-109c3.33301 44.667 15.333 81 36 109s47 42 79 42c16.667 0 30.5 -1.83301 41.5 -5.5s21.833 -9.16699 32.5 -16.5l17 -11c4 -2.66699 9 -5.83398 15 -9.50098
s11.167 -6.5 15.5 -8.5s8.83301 -3 13.5 -3c16.667 0 25 13 25 39h109c-3.33301 -44.667 -15.333 -81 -36 -109s-47 -42 -79 -42c-17.333 0 -32 2 -44 6z" />
    <glyph glyph-name="Imacron" unicode="&#x12a;" horiz-adv-x="283" 
d="M70 146v408c0 49.333 -1.66699 98 -5 146h157c-3.33301 -48 -5 -96.667 -5 -146v-408c0 -45.333 1.66699 -94 5 -146h-157c3.33301 52 5 100.667 5 146zM-14 889h314v-100h-314v100z" />
    <glyph glyph-name="imacron" unicode="&#x12b;" horiz-adv-x="254" 
d="M55 35c2 64 3 100.999 3 110.999v208c0 36 -1.33301 74.667 -4 116l-1 30h152c-3.33301 -48 -5 -96.667 -5 -146v-208c0 -45.333 1.66699 -94 5 -146h-152c0 4.66699 0.666992 16.334 2 35.001zM-28 688.999h314v-100h-314v100z" />
    <glyph glyph-name="Iogonek" unicode="&#x12e;" horiz-adv-x="283" 
d="M217 146c0 -45.333 1.66699 -93.999 5 -145.999h-6c-20.667 -7.33301 -37 -16.333 -49 -27s-18 -22.334 -18 -35.001c0 -9.33301 3.33301 -17 10 -23s15.334 -9 26.001 -9c8 0 16 1.66699 24 5h1v-105c-21.333 -8 -49.333 -12 -84 -12s-62.834 8.5 -84.501 25.5
s-32.5 41.833 -32.5 74.5c0 44 18.667 80 56 108c3.33301 52 5 100 5 144v408c0 49.333 -1.66699 98 -5 146h157c-3.33301 -48 -5 -96.667 -5 -146v-408z" />
    <glyph glyph-name="iogonek" unicode="&#x12f;" horiz-adv-x="254" 
d="M73.5 583c-15 14.667 -22.5 33 -22.5 55c0 22.667 7.5 41.5 22.5 56.5s33.5 22.5 55.5 22.5s40.5 -7.5 55.5 -22.5s22.5 -33.833 22.5 -56.5c0 -22 -7.5 -40.333 -22.5 -55s-33.5 -22 -55.5 -22s-40.5 7.33301 -55.5 22zM200 354v-208c0 -45.333 1.66699 -94 5 -146
c-20.667 -7.33301 -37 -16.333 -49 -27s-18 -22.334 -18 -35.001c0 -9.33301 3.33301 -17 10 -23s15.334 -9 26.001 -9c8 0 16 1.66699 24 5h1v-105c-21.333 -8 -49.333 -12 -84 -12s-62.834 8.5 -84.501 25.5s-32.5 41.833 -32.5 74.5c0 44 18.333 79.667 55 107
c0 4.66699 0.666992 16.334 2 35.001c2 64 3 100.667 3 110v208c0 36 -1.33301 74.667 -4 116l-1 30h152c-3.33301 -48 -5 -96.667 -5 -146z" />
    <glyph glyph-name="Idotaccent" unicode="&#x130;" horiz-adv-x="283" 
d="M70 146v408c0 49.333 -1.66699 98 -5 146h157c-3.33301 -48 -5 -96.667 -5 -146v-408c0 -45.333 1.66699 -94 5 -146h-157c3.33301 52 5 100.667 5 146zM87.5 783c-15 14.667 -22.5 33 -22.5 55c0 22.667 7.5 41.5 22.5 56.5s33.5 22.5 55.5 22.5s40.5 -7.5 55.5 -22.5
s22.5 -33.833 22.5 -56.5c0 -22 -7.5 -40.333 -22.5 -55s-33.5 -22 -55.5 -22s-40.5 7.33301 -55.5 22z" />
    <glyph glyph-name="dotlessi" unicode="&#x131;" horiz-adv-x="254" 
d="M55 35c2 64 3 100.999 3 110.999v208c0 36 -1.33301 74.667 -4 116l-1 30h152c-3.33301 -48 -5 -96.667 -5 -146v-208c0 -45.333 1.66699 -94 5 -146h-152c0 4.66699 0.666992 16.334 2 35.001z" />
    <glyph glyph-name="Jcircumflex" unicode="&#x134;" horiz-adv-x="457" 
d="M23 24l0.00292969 174h2c18.667 -22.667 40.167 -40.5 64.5 -53.5s51.166 -19.5 80.499 -19.5c22.667 0 41.5 6.16699 56.5 18.5s22.5 31.5 22.5 57.5v353c0 20 -0.333008 38 -1 54s-1.33398 29.333 -2.00098 40l-3 52h157l-2 -39
c-0.666992 -12.667 -1.33398 -28 -2.00098 -46s-1 -38.333 -1 -61v-364c0 -68 -21.167 -118.167 -63.5 -150.5s-97.833 -48.5 -166.5 -48.5c-50.667 0 -98 11 -142 33zM260.003 900h122l123 -120h-132l-49 46l-55 -46h-132z" />
    <glyph glyph-name="jcircumflex" unicode="&#x135;" horiz-adv-x="262" 
d="M-91 -178l-0.000976562 142h3c26.667 -25.333 57.667 -38 93 -38c20.667 0 36 5.16699 46 15.5s15 24.5 15 42.5v370c0 39.333 -2 88 -6 146h153c-3.33301 -48 -5 -96.667 -5 -146v-373c0 -64 -17.167 -111.5 -51.5 -142.5s-78.166 -46.5 -131.499 -46.5
c-41.333 0 -80 10 -116 30zM75.999 700h122l123 -120h-132l-49 46l-55 -46h-132z" />
    <glyph glyph-name="Kcommaaccent" unicode="&#x136;" horiz-adv-x="632" 
d="M70 146v408c0 49.333 -1.66699 98 -5 146h157c-3.33301 -48 -5 -96.667 -5 -146v-202l189 268c10.667 14 20.5 30 29.5 48s14.5 28.667 16.5 32h177l-241 -351l252 -349h-188l-17.5 34c-9 17.333 -18.5 32.333 -28.5 45l-189 267v-200c0 -45.333 1.66699 -94 5 -146h-157
c3.33301 52 5 100.667 5 146zM235 -54h165l-76 -146h-111z" />
    <glyph glyph-name="kcommaaccent" unicode="&#x137;" horiz-adv-x="534" 
d="M58 146l-0.000976562 459c0 49.333 -1.66699 98 -5 146h153c-4 -58 -6 -106.667 -6 -146v-325l106 159c2.66699 4 8.33398 13.667 17.001 29l20 32h184l-172 -231l188 -269h-191l-20 35l-14 26l-118 196v-111c0 -35.333 2 -84 6 -146h-153c3.33301 52 5 100.667 5 146z
M196.999 -54h165l-76 -146h-111z" />
    <glyph glyph-name="kgreenlandic" unicode="&#x138;" horiz-adv-x="534" 
d="M58 146l-0.000976562 208c0 49.333 -1.66699 98 -5 146h153c-4 -58 -6 -106.667 -6 -146v-74l106 159c2.66699 4 8.33398 13.667 17.001 29l20 32h184l-172 -231l188 -269h-191l-20 35l-14 26l-118 196v-111c0 -35.333 2 -84 6 -146h-153c3.33301 52 5 100.667 5 146z
" />
    <glyph glyph-name="Lacute" unicode="&#x139;" horiz-adv-x="556" 
d="M70 146v408c0 49.333 -1.66699 98 -5 146h157c-3.33301 -48 -5 -96.667 -5 -146v-396c0 -10.667 -0.333008 -18.667 -1 -24h217c50 0 88.333 1.66699 115 5l-4 -139h-479c3.33301 52 5 100.667 5 146zM164 900h165l-136 -120h-122z" />
    <glyph glyph-name="lacute" unicode="&#x13a;" horiz-adv-x="254" 
d="M58 146v459c0 49.333 -1.66699 98 -5 146h153c-4 -58 -6 -106.667 -6 -146v-459c0 -35.333 2 -84 6 -146h-153c3.33301 52 5 100.667 5 146zM151 951h165l-136 -120h-122z" />
    <glyph glyph-name="Lcommaaccent" unicode="&#x13b;" horiz-adv-x="556" 
d="M70 146v408c0 49.333 -1.66699 98 -5 146h157c-3.33301 -48 -5 -96.667 -5 -146v-396c0 -10.667 -0.333008 -18.667 -1 -24h217c50 0 88.333 1.66699 115 5l-4 -139h-479c3.33301 52 5 100.667 5 146zM232 -54h165l-76 -146h-111z" />
    <glyph glyph-name="lcommaaccent" unicode="&#x13c;" horiz-adv-x="254" 
d="M58 146v459c0 49.333 -1.66699 98 -5 146h153c-4 -58 -6 -106.667 -6 -146v-459c0 -35.333 2 -84 6 -146h-153c3.33301 52 5 100.667 5 146zM42 -54h165l-76 -146h-111z" />
    <glyph glyph-name="Lcaron" unicode="&#x13d;" horiz-adv-x="559" 
d="M70 146v408c0 49.333 -1.66699 98 -5 146h157c-3.33301 -48 -5 -96.667 -5 -146v-396c0 -10.667 -0.333008 -18.667 -1 -24h217c50 0 88.333 1.66699 115 5l-4 -139h-479c3.33301 52 5 100.667 5 146zM320 700h165l-76 -146h-111z" />
    <glyph glyph-name="lcaron" unicode="&#x13e;" horiz-adv-x="273" 
d="M58 146v459c0 49.333 -1.66699 98 -5 146h153c-4 -58 -6 -106.667 -6 -146v-459c0 -35.333 2 -84 6 -146h-153c3.33301 52 5 100.667 5 146zM263 751h165l-76 -146h-111z" />
    <glyph glyph-name="Ldot" unicode="&#x13f;" horiz-adv-x="562" 
d="M70 146v408c0 49.333 -1.66699 98 -5 146h157c-3.33301 -48 -5 -96.667 -5 -146v-396c0 -10.667 -0.333008 -18.667 -1 -24h217c50 0 88.333 1.66699 115 5l-4 -139h-479c3.33301 52 5 100.667 5 146zM384.5 313.5c-15.667 15.667 -23.5 35.167 -23.5 58.5
s7.83301 43 23.5 59s35.167 24 58.5 24c24 0 43.833 -8 59.5 -24s23.5 -35.667 23.5 -59s-7.83301 -42.833 -23.5 -58.5s-35.5 -23.5 -59.5 -23.5c-23.333 0 -42.833 7.83301 -58.5 23.5z" />
    <glyph glyph-name="ldot" unicode="&#x140;" horiz-adv-x="433" 
d="M58 146v459c0 49.333 -1.66699 98 -5 146h153c-4 -58 -6 -106.667 -6 -146v-459c0 -35.333 2 -84 6 -146h-153c3.33301 52 5 100.667 5 146zM280.5 243.5c-15.667 15.667 -23.5 35.167 -23.5 58.5s7.83301 43 23.5 59s35.167 24 58.5 24c24 0 43.833 -8 59.5 -24
s23.5 -35.667 23.5 -59s-7.83301 -42.833 -23.5 -58.5s-35.5 -23.5 -59.5 -23.5c-23.333 0 -42.833 7.83301 -58.5 23.5z" />
    <glyph glyph-name="Lslash" unicode="&#x141;" horiz-adv-x="592" 
d="M583 139l-4 -139h-479c3.33301 52 5 100.667 5 146v77l-66 -43v150l66 43v181c0 49.333 -1.66699 98 -5 146h157c-3.33301 -48 -5 -96.667 -5 -146v-86l180 116v-150l-180 -116v-160c0 -10.667 -0.333008 -18.667 -1 -24h217c50 0 88.333 1.66699 115 5z" />
    <glyph glyph-name="lslash" unicode="&#x142;" horiz-adv-x="361" 
d="M255 362v-216c0 -35.333 2 -84 6 -146h-153c3.33301 52 5 100.667 5 146v126l-81 -52v117l81 52v216c0 49.333 -1.66699 98 -5 146h153c-4 -58 -6 -106.667 -6 -146v-126l83 53v-117z" />
    <glyph glyph-name="Nacute" unicode="&#x143;" horiz-adv-x="762" 
d="M69 39c0.666992 12.667 1.33398 28 2.00098 46s1 38.333 1 61v478c0 14.667 -8.66699 40 -26 76h155l362 -452h1v306c0 20 -0.333008 38 -1 54s-1.33398 29.333 -2.00098 40l-3 52h143l-2 -39c-0.666992 -12.667 -1.33398 -28 -2.00098 -46s-1 -38.333 -1 -61v-408
c0 -22.667 0.333008 -43 1 -61s1.33398 -33.333 2.00098 -46l2 -39h-132l-364 461h-1v-315c0 -51.333 2 -100 6 -146h-143zM395 900h165l-136 -120h-122z" />
    <glyph glyph-name="nacute" unicode="&#x144;" horiz-adv-x="575" 
d="M55 35c2 64 3.00098 100.998 3.00098 110.998v208c0 36 -1.33301 74.667 -4 116l-1 30h130l7 -53h1c16 18.667 36.333 33.5 61 44.5s49.667 16.5 75 16.5c63.333 0 112.5 -18.5 147.5 -55.5s52.5 -91.833 52.5 -164.5v-142c0 -45.333 1.66699 -94 5 -146h-153
c4 62 6 110.667 6 146v112c0 36.667 -7.83301 65 -23.5 85s-36.834 30 -63.501 30c-28 0 -51.333 -9.16699 -70 -27.5s-28 -48.166 -28 -89.499v-110c0 -45.333 1.66699 -94 5 -146h-152c0 4.66699 0.666992 16.334 2 35.001zM311.001 699.998h165l-136 -120h-122z" />
    <glyph glyph-name="Ncommaaccent" unicode="&#x145;" horiz-adv-x="762" 
d="M69 39c0.666992 12.667 1.33398 28 2.00098 46s1 38.333 1 61v478c0 14.667 -8.66699 40 -26 76h155l362 -452h1v306c0 20 -0.333008 38 -1 54s-1.33398 29.333 -2.00098 40l-3 52h143l-2 -39c-0.666992 -12.667 -1.33398 -28 -2.00098 -46s-1 -38.333 -1 -61v-408
c0 -22.667 0.333008 -43 1 -61s1.33398 -33.333 2.00098 -46l2 -39h-132l-364 461h-1v-315c0 -51.333 2 -100 6 -146h-143zM286 -54h165l-76 -146h-111z" />
    <glyph glyph-name="ncommaaccent" unicode="&#x146;" horiz-adv-x="575" 
d="M55 35c2 64 3.00098 100.998 3.00098 110.998v208c0 36 -1.33301 74.667 -4 116l-1 30h130l7 -53h1c16 18.667 36.333 33.5 61 44.5s49.667 16.5 75 16.5c63.333 0 112.5 -18.5 147.5 -55.5s52.5 -91.833 52.5 -164.5v-142c0 -45.333 1.66699 -94 5 -146h-153
c4 62 6 110.667 6 146v112c0 36.667 -7.83301 65 -23.5 85s-36.834 30 -63.501 30c-28 0 -51.333 -9.16699 -70 -27.5s-28 -48.166 -28 -89.499v-110c0 -45.333 1.66699 -94 5 -146h-152c0 4.66699 0.666992 16.334 2 35.001zM202.001 -54.002h165l-76 -146h-111z" />
    <glyph glyph-name="Ncaron" unicode="&#x147;" horiz-adv-x="762" 
d="M69 39c0.666992 12.667 1.33398 28 2.00098 46s1 38.333 1 61v478c0 14.667 -8.66699 40 -26 76h155l362 -452h1v306c0 20 -0.333008 38 -1 54s-1.33398 29.333 -2.00098 40l-3 52h143l-2 -39c-0.666992 -12.667 -1.33398 -28 -2.00098 -46s-1 -38.333 -1 -61v-408
c0 -22.667 0.333008 -43 1 -61s1.33398 -33.333 2.00098 -46l2 -39h-132l-364 461h-1v-315c0 -51.333 2 -100 6 -146h-143zM190 900h132l55 -46l49 46h132l-123 -120h-122z" />
    <glyph glyph-name="ncaron" unicode="&#x148;" horiz-adv-x="575" 
d="M55 35c2 64 3.00098 100.998 3.00098 110.998v208c0 36 -1.33301 74.667 -4 116l-1 30h130l7 -53h1c16 18.667 36.333 33.5 61 44.5s49.667 16.5 75 16.5c63.333 0 112.5 -18.5 147.5 -55.5s52.5 -91.833 52.5 -164.5v-142c0 -45.333 1.66699 -94 5 -146h-153
c4 62 6 110.667 6 146v112c0 36.667 -7.83301 65 -23.5 85s-36.834 30 -63.501 30c-28 0 -51.333 -9.16699 -70 -27.5s-28 -48.166 -28 -89.499v-110c0 -45.333 1.66699 -94 5 -146h-152c0 4.66699 0.666992 16.334 2 35.001zM106.001 699.998h132l55 -46l49 46h132
l-123 -120h-122z" />
    <glyph glyph-name="Eng" unicode="&#x14a;" horiz-adv-x="762" 
d="M381 -189v152h2c31.333 -24 64 -36 98 -36c24.667 0 44.667 6.16699 60 18.5s23 31.5 23 57.5v3l-359 455h-1v-315c0 -51.333 2 -100 6 -146h-143l2 39c0.666992 12.667 1.33398 28 2.00098 46s1 38.333 1 61v478c0 14.667 -8.66699 40 -26 76h155l362 -452h1v306
c0 20 -0.333008 38 -1 54s-1.33398 29.333 -2.00098 40l-3 52h143l-2 -39c-0.666992 -12.667 -1.33398 -28 -2.00098 -46s-1 -38.333 -1 -61v-562c0 -67.333 -20.167 -117.333 -60.5 -150s-90.166 -49 -149.499 -49c-39.333 0 -74.333 6 -105 18z" />
    <glyph glyph-name="eng" unicode="&#x14b;" horiz-adv-x="575" 
d="M310.5 -204c-10.333 2.66699 -16.499 4.33008 -18.499 4.99707v135h1c10.667 -6.66699 23 -10 37 -10c16.667 0 30 5.33301 40 16s15 24.667 15 42v274c0 36.667 -7.83301 65 -23.5 85s-36.834 30 -63.501 30c-28 0 -51.333 -9.16699 -70 -27.5s-28 -48.166 -28 -89.499
v-110c0 -45.333 1.66699 -94 5 -146h-152c0 4.66699 0.666992 16.334 2 35.001c2 64 3 101 3 111v208c0 36 -1.33301 74.667 -4 116l-1 30h130l7 -53h1c16 18.667 36.333 33.5 61 44.5s49.667 16.5 75 16.5c63.333 0 112.5 -18.5 147.5 -55.5s52.5 -91.833 52.5 -164.5v-307
c0 -42.667 -8.33301 -78.167 -25 -106.5s-37.667 -49.166 -63 -62.499s-52 -20 -80 -20c-22 0 -38.167 1.33301 -48.5 4z" />
    <glyph glyph-name="Omacron" unicode="&#x14c;" horiz-adv-x="794" 
d="M216 39c-55.333 31.333 -99 74.333 -131 129s-48 115.667 -48 183s16 128.333 48 183s75.667 97.667 131 129s116.333 47 183 47s127.667 -15.667 183 -47s99 -74.333 131 -129s48 -115.667 48 -183s-16 -128.333 -48 -183s-75.667 -97.667 -131 -129
s-116.333 -47 -183 -47s-127.667 15.667 -183 47zM506.5 155.5c32.333 19.667 58 46.834 77 81.501s28.5 72.667 28.5 114s-9.5 79.333 -28.5 114s-44.667 61.834 -77 81.501s-68.166 29.5 -107.499 29.5s-75.166 -9.83301 -107.499 -29.5s-58 -46.834 -77 -81.501
s-28.5 -72.667 -28.5 -114s9.5 -79.333 28.5 -114s44.667 -61.834 77 -81.501s68.166 -29.5 107.499 -29.5s75.166 9.83301 107.499 29.5zM242 889h314v-100h-314v100z" />
    <glyph glyph-name="omacron" unicode="&#x14d;" horiz-adv-x="580" 
d="M160.5 26c-39.667 22.667 -71 53.667 -94 93s-34.5 83 -34.5 131s11.5 91.667 34.5 131s54.333 70.333 94 93s83.5 34 131.5 34c48.667 0 92.834 -11.333 132.501 -34s70.834 -53.667 93.501 -93s34 -83 34 -131c0 -48.667 -11.333 -92.5 -34 -131.5
s-53.834 -69.833 -93.501 -92.5s-83.834 -34 -132.501 -34c-48 0 -91.833 11.333 -131.5 34zM376 162c22.667 23.333 34 52.666 34 87.999s-11.333 64.666 -34 87.999s-50.667 35 -84 35c-32.667 0 -60.5 -11.667 -83.5 -35s-34.5 -52.666 -34.5 -87.999
s11.5 -64.666 34.5 -87.999s50.833 -35 83.5 -35c33.333 0 61.333 11.667 84 35zM135 689h314v-100h-314v100z" />
    <glyph glyph-name="Ohungarumlaut" unicode="&#x150;" horiz-adv-x="794" 
d="M216 39c-55.333 31.333 -99 74.333 -131 129s-48 115.667 -48 183s16 128.333 48 183s75.667 97.667 131 129s116.333 47 183 47s127.667 -15.667 183 -47s99 -74.333 131 -129s48 -115.667 48 -183s-16 -128.333 -48 -183s-75.667 -97.667 -131 -129
s-116.333 -47 -183 -47s-127.667 15.667 -183 47zM506.5 155.5c32.333 19.667 58 46.834 77 81.501s28.5 72.667 28.5 114s-9.5 79.333 -28.5 114s-44.667 61.834 -77 81.501s-68.166 29.5 -107.499 29.5s-75.166 -9.83301 -107.499 -29.5s-58 -46.834 -77 -81.501
s-28.5 -72.667 -28.5 -114s9.5 -79.333 28.5 -114s44.667 -61.834 77 -81.501s68.166 -29.5 107.499 -29.5s75.166 9.83301 107.499 29.5zM311 900h165l-136 -120h-122zM506 900h165l-136 -120h-122z" />
    <glyph glyph-name="ohungarumlaut" unicode="&#x151;" horiz-adv-x="580" 
d="M160.5 26c-39.667 22.667 -71 53.667 -94 93s-34.5 83 -34.5 131s11.5 91.667 34.5 131s54.333 70.333 94 93s83.5 34 131.5 34c48.667 0 92.834 -11.333 132.501 -34s70.834 -53.667 93.501 -93s34 -83 34 -131c0 -48.667 -11.333 -92.5 -34 -131.5
s-53.834 -69.833 -93.501 -92.5s-83.834 -34 -132.501 -34c-48 0 -91.833 11.333 -131.5 34zM376 162c22.667 23.333 34 52.666 34 87.999s-11.333 64.666 -34 87.999s-50.667 35 -84 35c-32.667 0 -60.5 -11.667 -83.5 -35s-34.5 -52.666 -34.5 -87.999
s11.5 -64.666 34.5 -87.999s50.833 -35 83.5 -35c33.333 0 61.333 11.667 84 35zM204 700h165l-136 -120h-122zM399 700h165l-136 -120h-122z" />
    <glyph glyph-name="OE" unicode="&#x152;" horiz-adv-x="1129" 
d="M216 39c-55.333 31.333 -98.998 74.332 -130.998 128.999s-48 115.667 -48 183s16 128.333 48 183s75.667 97.667 131 129s116.333 47 183 47c41.333 0 80.166 -7.16699 116.499 -21.5s67.5 -33.5 93.5 -57.5h1l-3 69h473l4 -138c-48.667 3.33301 -93 5 -133 5h-193
c0.666992 -4.66699 1 -10.667 1 -18v-131h146c53.333 0 98.333 1.66699 135 5v-142c-29.333 3.33301 -74 5 -134 5h-147v-130c0 -9.33301 -0.333008 -16.666 -1 -21.999h196c52.667 0 97.667 1.66699 135 5l-4 -139h-478l2 69h-1c-27.333 -25.333 -58.833 -44.5 -94.5 -57.5
s-73.834 -19.5 -114.501 -19.5c-66.667 0 -127.667 15.667 -183 47zM506.502 155.499c32.333 19.667 58 46.834 77 81.501s28.5 72.667 28.5 114s-9.5 79.333 -28.5 114s-44.667 61.834 -77 81.501s-68.166 29.5 -107.499 29.5s-75.166 -9.83301 -107.499 -29.5
s-58 -46.834 -77 -81.501s-28.5 -72.667 -28.5 -114s9.5 -79.333 28.5 -114s44.667 -61.834 77 -81.501s68.166 -29.5 107.499 -29.5s75.166 9.83301 107.499 29.5z" />
    <glyph glyph-name="oe" unicode="&#x153;" horiz-adv-x="923" 
d="M160.5 26c-39.667 22.667 -71 53.668 -94 93.001s-34.5 83 -34.5 131s11.5 91.667 34.5 131s54.333 70.333 94 93s83.5 34 131.5 34c36.667 0 71 -6.5 103 -19.5s59.667 -31.5 83 -55.5h1c22 24 48.333 42.5 79 55.5s63 19.5 97 19.5
c44.667 0 85.334 -10.5 122.001 -31.5s65.667 -51.167 87 -90.5s32 -85.333 32 -138c0 -24 -2 -42.667 -6 -56h-337c6 -22 19.5 -39.833 40.5 -53.5s48.167 -20.5 81.5 -20.5c20.667 0 40.5 4 59.5 12s34.167 18 45.5 30l81 -102
c-20.667 -20.667 -48.5 -36.834 -83.5 -48.501s-70.5 -17.5 -106.5 -17.5c-40 0 -76.5 6.33301 -109.5 19s-60.833 31 -83.5 55h-1c-23.333 -24 -50.833 -42.333 -82.5 -55s-65.834 -19 -102.501 -19c-48 0 -91.833 11.333 -131.5 34zM760 310.001
c-2.66699 23.333 -13.501 42.5 -32.501 57.5s-42.833 22.5 -71.5 22.5c-26.667 0 -49.667 -7.66699 -69 -23s-31.666 -34.333 -36.999 -57h210zM375.999 162.001c22.667 23.333 34 52.666 34 87.999s-11.333 64.666 -34 87.999s-50.667 35 -84 35
c-32.667 0 -60.5 -11.667 -83.5 -35s-34.5 -52.666 -34.5 -87.999s11.5 -64.666 34.5 -87.999s50.833 -35 83.5 -35c33.333 0 61.333 11.667 84 35z" />
    <glyph glyph-name="Racute" unicode="&#x154;" horiz-adv-x="619" 
d="M67 48c0.666992 9.33301 1.33301 20.499 2 33.499s1 28.167 1 45.5v446c0 17.333 -0.333008 32.5 -1 45.5s-1.33398 24.167 -2.00098 33.5l-3 48h242c46 0 86.5 -9.83301 121.5 -29.5s61.833 -46.167 80.5 -79.5s28 -69.666 28 -108.999
c0 -44 -12.833 -83.667 -38.5 -119s-57.5 -60 -95.5 -74v-1c25.333 -8.66699 46.333 -26.334 63 -53.001l61 -102c30 -47.333 61.333 -91.333 94 -132v-1h-190c-21.333 47.333 -43.333 90.333 -66 129l-51 84c-10 16 -22.5 27.667 -37.5 35s-33.5 11 -55.5 11h-3v-132
c0 -22 1 -44 3 -66c0.666992 -6.66699 1.33398 -16.167 2.00098 -28.5s1 -23.166 1 -32.499h-159zM360.999 412.999c17.333 16.667 25.999 39.667 25.999 69c0 24.667 -8.83301 45 -26.5 61s-42.5 24 -74.5 24h-69v-175c14.667 -2.66699 28.334 -4 41.001 -4h25
c34.667 0 60.667 8.33301 78 25zM305.998 899.999h165l-136 -120h-122z" />
    <glyph glyph-name="racute" unicode="&#x155;" horiz-adv-x="382" 
d="M55 35c2 64 3 101 3 111v208c0 36 -1.33301 74.667 -4 116l-1 30h130l6 -49h1c15.333 17.333 34.333 31.166 57 41.499s47 15.5 73 15.5c19.333 0 35 -1.33301 47 -4v-161h-3c-20.667 20.667 -45 31 -73 31c-60.667 0 -91 -38.667 -91 -116v-112
c0 -45.333 1.66699 -94 5 -146h-152c0 4.66699 0.666992 16.334 2 35.001zM232 700h165l-136 -120h-122z" />
    <glyph glyph-name="Rcommaaccent" unicode="&#x156;" horiz-adv-x="619" 
d="M67 48c0.666992 9.33301 1.33301 20.499 2 33.499s1 28.167 1 45.5v446c0 17.333 -0.333008 32.5 -1 45.5s-1.33398 24.167 -2.00098 33.5l-3 48h242c46 0 86.5 -9.83301 121.5 -29.5s61.833 -46.167 80.5 -79.5s28 -69.666 28 -108.999
c0 -44 -12.833 -83.667 -38.5 -119s-57.5 -60 -95.5 -74v-1c25.333 -8.66699 46.333 -26.334 63 -53.001l61 -102c30 -47.333 61.333 -91.333 94 -132v-1h-190c-21.333 47.333 -43.333 90.333 -66 129l-51 84c-10 16 -22.5 27.667 -37.5 35s-33.5 11 -55.5 11h-3v-132
c0 -22 1 -44 3 -66c0.666992 -6.66699 1.33398 -16.167 2.00098 -28.5s1 -23.166 1 -32.499h-159zM360.999 412.999c17.333 16.667 25.999 39.667 25.999 69c0 24.667 -8.83301 45 -26.5 61s-42.5 24 -74.5 24h-69v-175c14.667 -2.66699 28.334 -4 41.001 -4h25
c34.667 0 60.667 8.33301 78 25zM238.998 -54.001h165l-76 -146h-111z" />
    <glyph glyph-name="rcommaaccent" unicode="&#x157;" horiz-adv-x="382" 
d="M55 35c2 64 3 101 3 111v208c0 36 -1.33301 74.667 -4 116l-1 30h130l6 -49h1c15.333 17.333 34.333 31.166 57 41.499s47 15.5 73 15.5c19.333 0 35 -1.33301 47 -4v-161h-3c-20.667 20.667 -45 31 -73 31c-60.667 0 -91 -38.667 -91 -116v-112
c0 -45.333 1.66699 -94 5 -146h-152c0 4.66699 0.666992 16.334 2 35.001zM41 -54h165l-76 -146h-111z" />
    <glyph glyph-name="Rcaron" unicode="&#x158;" horiz-adv-x="619" 
d="M67 48c0.666992 9.33301 1.33301 20.499 2 33.499s1 28.167 1 45.5v446c0 17.333 -0.333008 32.5 -1 45.5s-1.33398 24.167 -2.00098 33.5l-3 48h242c46 0 86.5 -9.83301 121.5 -29.5s61.833 -46.167 80.5 -79.5s28 -69.666 28 -108.999
c0 -44 -12.833 -83.667 -38.5 -119s-57.5 -60 -95.5 -74v-1c25.333 -8.66699 46.333 -26.334 63 -53.001l61 -102c30 -47.333 61.333 -91.333 94 -132v-1h-190c-21.333 47.333 -43.333 90.333 -66 129l-51 84c-10 16 -22.5 27.667 -37.5 35s-33.5 11 -55.5 11h-3v-132
c0 -22 1 -44 3 -66c0.666992 -6.66699 1.33398 -16.167 2.00098 -28.5s1 -23.166 1 -32.499h-159zM360.999 412.999c17.333 16.667 25.999 39.667 25.999 69c0 24.667 -8.83301 45 -26.5 61s-42.5 24 -74.5 24h-69v-175c14.667 -2.66699 28.334 -4 41.001 -4h25
c34.667 0 60.667 8.33301 78 25zM100.998 899.999h132l55 -46l49 46h132l-123 -120h-122z" />
    <glyph glyph-name="rcaron" unicode="&#x159;" horiz-adv-x="382" 
d="M55 35c2 64 3 101 3 111v208c0 36 -1.33301 74.667 -4 116l-1 30h130l6 -49h1c15.333 17.333 34.333 31.166 57 41.499s47 15.5 73 15.5c19.333 0 35 -1.33301 47 -4v-161h-3c-20.667 20.667 -45 31 -73 31c-60.667 0 -91 -38.667 -91 -116v-112
c0 -45.333 1.66699 -94 5 -146h-152c0 4.66699 0.666992 16.334 2 35.001zM27 700h132l55 -46l49 46h132l-123 -120h-122z" />
    <glyph glyph-name="Sacute" unicode="&#x15a;" horiz-adv-x="566" 
d="M155 3.5c-36 7.66699 -68.3311 18.8311 -96.998 33.498v198h2c30 -36 64.167 -63.167 102.5 -81.5s77.166 -27.5 116.499 -27.5c33.333 0 58.833 6.83301 76.5 20.5s26.5 31.167 26.5 52.5c0 17.333 -7.33301 32.5 -22 45.5s-39.334 26.5 -74.001 40.5l-91 36
c-49.333 20 -85.833 44.333 -109.5 73s-35.5 67.334 -35.5 116.001c0 40.667 11 76.167 33 106.5s51.333 53.333 88 69s77 23.5 121 23.5c72 0 138 -12.333 198 -37v-196h-2c-21.333 28.667 -49 52.334 -83 71.001s-71 28 -111 28c-28 0 -50.833 -5.5 -68.5 -16.5
s-26.5 -24.833 -26.5 -41.5c0 -17.333 6.16699 -30.833 18.5 -40.5s36.833 -21.834 73.5 -36.501l91 -37c54 -21.333 92.167 -47.666 114.5 -78.999s33.5 -71 33.5 -119c0 -43.333 -11 -81 -33 -113s-52.667 -56.667 -92 -74s-85 -26 -137 -26
c-39.333 0 -77 3.83301 -113 11.5zM314.002 899.997h165l-136 -120h-122z" />
    <glyph glyph-name="sacute" unicode="&#x15b;" horiz-adv-x="456" 
d="M133.5 1c-31.667 6.66699 -59.8369 14.334 -84.5039 23.001v150h3c26 -20 54.667 -36.667 86 -50s61.333 -20 90 -20c18.667 0 33.167 4 43.5 12s15.5 18.333 15.5 31c0 10 -5.5 18.5 -16.5 25.5s-27.5 13.833 -49.5 20.5l-45 13
c-43.333 12.667 -76.666 30.667 -99.999 54s-35 55 -35 95c0 49.333 17.833 87.166 53.5 113.499s83.834 39.5 144.501 39.5c24.667 0 51 -2.16699 79 -6.5s51.667 -10.833 71 -19.5v-144h-2c-19.333 15.333 -43.166 28.666 -71.499 39.999s-53.833 17 -76.5 17
c-21.333 0 -36.333 -3.33301 -45 -10s-13 -15 -13 -25c0 -9.33301 3.83301 -16.166 11.5 -20.499s21.5 -9.83301 41.5 -16.5l58 -18c45.333 -14 79 -32.333 101 -55s33 -54.667 33 -96c0 -54 -17.667 -94.667 -53 -122s-84.666 -41 -147.999 -41
c-29.333 0 -59.833 3.33301 -91.5 10zM251.997 700h165l-136 -120h-122z" />
    <glyph glyph-name="Scedilla" unicode="&#x15e;" horiz-adv-x="566" 
d="M476.5 66.5c-35.667 -37 -84.165 -60.1689 -145.498 -69.502l-8 -31c19.333 -5.33301 34.333 -14 45 -26s16 -29.667 16 -53c0 -31.333 -10.167 -55 -30.5 -71s-46.166 -24 -77.499 -24c-30 0 -55 3 -75 9v79h1c6.66699 -2.66699 15.5 -5 26.5 -7s21.167 -3 30.5 -3
c10 0 17.667 2.16699 23 6.5s8 9.83301 8 16.5c0 5.33301 -2.5 9.83301 -7.5 13.5s-11.167 5.5 -18.5 5.5c-10 0 -20.333 -1.33301 -31 -4h-1l23 84c-76.667 2 -142.334 17 -197.001 45v198h2c30 -36 64.167 -63.167 102.5 -81.5s77.166 -27.5 116.499 -27.5
c33.333 0 58.833 6.83301 76.5 20.5s26.5 31.167 26.5 52.5c0 17.333 -7.33301 32.5 -22 45.5s-39.334 26.5 -74.001 40.5l-91 36c-49.333 20 -85.833 44.333 -109.5 73s-35.5 67.334 -35.5 116.001c0 40.667 11 76.167 33 106.5s51.333 53.333 88 69s77 23.5 121 23.5
c72 0 138 -12.333 198 -37v-196h-2c-21.333 28.667 -49 52.334 -83 71.001s-71 28 -111 28c-28 0 -50.833 -5.5 -68.5 -16.5s-26.5 -24.833 -26.5 -41.5c0 -17.333 6.16699 -30.833 18.5 -40.5s36.833 -21.834 73.5 -36.501l91 -37c54 -21.333 92.167 -47.666 114.5 -78.999
s33.5 -71 33.5 -119c0 -55.333 -17.833 -101.5 -53.5 -138.5z" />
    <glyph glyph-name="scedilla" unicode="&#x15f;" horiz-adv-x="456" 
d="M384.5 42.5c-27.667 -27 -66.5039 -43.499 -116.504 -49.499l-7 -27c19.333 -5.33301 34.333 -14 45 -26s16 -29.667 16 -53c0 -31.333 -10.167 -55 -30.5 -71s-46.166 -24 -77.499 -24c-30 0 -55 3 -75 9v79h1c6.66699 -2.66699 15.5 -5 26.5 -7s21.167 -3 30.5 -3
c10 0 17.667 2.16699 23 6.5s8 9.83301 8 16.5c0 5.33301 -2.5 9.83301 -7.5 13.5s-11.167 5.5 -18.5 5.5c-10 0 -20.333 -1.33301 -31 -4h-1l23 84c-25.333 2 -51 6.16699 -77 12.5s-48.333 12.833 -67 19.5v150h3c26 -20 54.667 -36.667 86 -50s61.333 -20 90 -20
c18.667 0 33.167 4 43.5 12s15.5 18.333 15.5 31c0 10 -5.5 18.5 -16.5 25.5s-27.5 13.833 -49.5 20.5l-45 13c-43.333 12.667 -76.666 30.667 -99.999 54s-35 55 -35 95c0 49.333 17.833 87.166 53.5 113.499s83.834 39.5 144.501 39.5c24.667 0 51 -2.16699 79 -6.5
s51.667 -10.833 71 -19.5v-144h-2c-19.333 15.333 -43.166 28.666 -71.499 39.999s-53.833 17 -76.5 17c-21.333 0 -36.333 -3.33301 -45 -10s-13 -15 -13 -25c0 -9.33301 3.83301 -16.166 11.5 -20.499s21.5 -9.83301 41.5 -16.5l58 -18c45.333 -14 79 -32.333 101 -55
s33 -54.667 33 -96c0 -47.333 -13.833 -84.5 -41.5 -111.5z" />
    <glyph glyph-name="Scaron" unicode="&#x160;" horiz-adv-x="566" 
d="M155 3.5c-36 7.66699 -68.3311 18.8311 -96.998 33.498v198h2c30 -36 64.167 -63.167 102.5 -81.5s77.166 -27.5 116.499 -27.5c33.333 0 58.833 6.83301 76.5 20.5s26.5 31.167 26.5 52.5c0 17.333 -7.33301 32.5 -22 45.5s-39.334 26.5 -74.001 40.5l-91 36
c-49.333 20 -85.833 44.333 -109.5 73s-35.5 67.334 -35.5 116.001c0 40.667 11 76.167 33 106.5s51.333 53.333 88 69s77 23.5 121 23.5c72 0 138 -12.333 198 -37v-196h-2c-21.333 28.667 -49 52.334 -83 71.001s-71 28 -111 28c-28 0 -50.833 -5.5 -68.5 -16.5
s-26.5 -24.833 -26.5 -41.5c0 -17.333 6.16699 -30.833 18.5 -40.5s36.833 -21.834 73.5 -36.501l91 -37c54 -21.333 92.167 -47.666 114.5 -78.999s33.5 -71 33.5 -119c0 -43.333 -11 -81 -33 -113s-52.667 -56.667 -92 -74s-85 -26 -137 -26
c-39.333 0 -77 3.83301 -113 11.5zM109.002 899.997h132l55 -46l49 46h132l-123 -120h-122z" />
    <glyph glyph-name="scaron" unicode="&#x161;" horiz-adv-x="456" 
d="M133.5 1c-31.667 6.66699 -59.8369 14.334 -84.5039 23.001v150h3c26 -20 54.667 -36.667 86 -50s61.333 -20 90 -20c18.667 0 33.167 4 43.5 12s15.5 18.333 15.5 31c0 10 -5.5 18.5 -16.5 25.5s-27.5 13.833 -49.5 20.5l-45 13
c-43.333 12.667 -76.666 30.667 -99.999 54s-35 55 -35 95c0 49.333 17.833 87.166 53.5 113.499s83.834 39.5 144.501 39.5c24.667 0 51 -2.16699 79 -6.5s51.667 -10.833 71 -19.5v-144h-2c-19.333 15.333 -43.166 28.666 -71.499 39.999s-53.833 17 -76.5 17
c-21.333 0 -36.333 -3.33301 -45 -10s-13 -15 -13 -25c0 -9.33301 3.83301 -16.166 11.5 -20.499s21.5 -9.83301 41.5 -16.5l58 -18c45.333 -14 79 -32.333 101 -55s33 -54.667 33 -96c0 -54 -17.667 -94.667 -53 -122s-84.666 -41 -147.999 -41
c-29.333 0 -59.833 3.33301 -91.5 10zM46.9971 700h132l55 -46l49 46h132l-123 -120h-122z" />
    <glyph glyph-name="Tcommaaccent" unicode="&#x162;" horiz-adv-x="599" 
d="M229 140v426h-76c-22 0 -41.667 -0.333008 -59 -1s-32 -1.33398 -44 -2.00098l-36 -2v139h575v-139l-36 2c-12 0.666992 -26.667 1.33398 -44 2.00098s-37 1 -59 1h-75v-426c0 -33.333 2 -80 6 -140h-157c3.33301 50 5 96.667 5 140zM210 -199l-0.000976562 79h1
c6.66699 -2.66699 15.5 -5 26.5 -7s21.167 -3 30.5 -3c10 0 17.667 2.16699 23 6.5s8 9.83301 8 16.5c0 5.33301 -2.5 9.83301 -7.5 13.5s-11.167 5.5 -18.5 5.5c-10 0 -20.333 -1.33301 -31 -4h-1l25 92h75l-9 -34c19.333 -5.33301 34.333 -14 45 -26s16 -29.667 16 -53
c0 -31.333 -10.167 -55 -30.5 -71s-46.166 -24 -77.499 -24c-30 0 -55 3 -75 9z" />
    <glyph glyph-name="tcommaaccent" unicode="&#x163;" horiz-adv-x="437" 
d="M249 382l0.000976562 -181c0 -49.333 25.667 -74 77 -74c16.667 0 33.167 2.66699 49.5 8s29.166 12 38.499 20h2v-145c-46.667 -10.667 -84.334 -16.667 -113.001 -18l-7 -26c19.333 -5.33301 34.333 -14 45 -26s16 -29.667 16 -53c0 -31.333 -10.167 -55 -30.5 -71
s-46.166 -24 -77.499 -24c-30 0 -55 3 -75 9v79h1c6.66699 -2.66699 15.5 -5 26.5 -7s21.167 -3 30.5 -3c10 0 17.667 2.16699 23 6.5s8 9.83301 8 16.5c0 5.33301 -2.5 9.83301 -7.5 13.5s-11.167 5.5 -18.5 5.5c-10 0 -20.333 -1.33301 -31 -4h-1l25 92h2
c-38 10.667 -68.333 30.667 -91 60s-34 65 -34 107v214h-6c-22 0 -50.333 -1.33301 -85 -4v127c28 -2 56.667 -3 86 -3h5v23c0 46 -1.66699 94.667 -5 146h152c-3.33301 -51.333 -5 -100 -5 -146v-24h17c48 0 98 1.66699 150 5v-129c-62 4 -112 6 -150 6h-17z" />
    <glyph glyph-name="Tcaron" unicode="&#x164;" horiz-adv-x="599" 
d="M229 140v426h-76c-22 0 -41.667 -0.333008 -59 -1s-32 -1.33398 -44 -2.00098l-36 -2v139h575v-139l-36 2c-12 0.666992 -26.667 1.33398 -44 2.00098s-37 1 -59 1h-75v-426c0 -33.333 2 -80 6 -140h-157c3.33301 50 5 96.667 5 140zM118 900h132l55 -46l49 46h132
l-123 -120h-122z" />
    <glyph glyph-name="tcaron" unicode="&#x165;" horiz-adv-x="437" 
d="M159 40c-34.667 32 -51.998 74.334 -51.998 127.001v214h-6c-22 0 -50.333 -1.33301 -85 -4v127c28 -2 56.667 -3 86 -3h5v23c0 46 -1.66699 94.667 -5 146h152c-3.33301 -51.333 -5 -100 -5 -146v-24h17c48 0 98 1.66699 150 5v-129c-62 4 -112 6 -150 6h-17v-181
c0 -49.333 25.667 -74 77 -74c16.667 0 33.167 2.66699 49.5 8s29.166 12 38.499 20h2v-145c-2 -0.666992 -15.5 -3.83398 -40.5 -9.50098s-52.5 -8.5 -82.5 -8.5c-54.667 0 -99.334 16 -134.001 48zM312.002 751.001h165l-76 -146h-111z" />
    <glyph glyph-name="Tbar" unicode="&#x166;" horiz-adv-x="622" 
d="M386 566v-172h25c56.667 0 98.667 1 126 3v-125c-36 2.66699 -78 4 -126 4h-25v-136c0 -33.333 2 -80 6 -140h-157c3.33301 50 5 96.667 5 140v136h-25c-48 0 -90 -1.33301 -126 -4v125c27.333 -2 69.333 -3 126 -3h25v172h-76c-22 0 -41.667 -0.333008 -59 -1
s-32 -1.33398 -44 -2.00098l-36 -2v139h575v-139l-36 2c-12 0.666992 -26.667 1.33398 -44 2.00098s-37 1 -59 1h-75z" />
    <glyph glyph-name="tbar" unicode="&#x167;" horiz-adv-x="454" 
d="M261 382l0.000976562 -60h41c56.667 0 98.667 1 126 3v-125c-36 2.66699 -78 4 -126 4h-41v-3c0 -49.333 25.667 -74 77 -74c16.667 0 33.167 2.66699 49.5 8s29.166 12 38.499 20h2v-145c-2 -0.666992 -15.5 -3.83398 -40.5 -9.50098s-52.5 -8.5 -82.5 -8.5
c-54.667 0 -99.334 16 -134.001 48s-52 74.333 -52 127v37c-45.333 -1.33301 -75.666 -2.66602 -90.999 -3.99902v125c20 -1.33301 40 -2 60 -2c6.66699 -0.666992 17 -1 31 -1v59h-6c-22 0 -50.333 -1.33301 -85 -4v127c28 -2 56.667 -3 86 -3h5v23
c0 46 -1.66699 94.667 -5 146h152c-3.33301 -51.333 -5 -100 -5 -146v-24h17c48.667 0 98.667 1.66699 150 5v-129c-62 4 -112 6 -150 6h-17z" />
    <glyph glyph-name="Umacron" unicode="&#x16a;" horiz-adv-x="728" 
d="M208 26c-45.333 22.667 -81 56.999 -107 102.999s-39 103 -39 171v254c0 49.333 -1.66699 98 -5 146h157c-4 -58 -6 -106.667 -6 -146v-244c0 -58 13.333 -103.167 40 -135.5s65 -48.5 115 -48.5c48.667 0 87.667 16.5 117 49.5s44 77.833 44 134.5v244
c0 36 -1.33301 74.667 -4 116l-1 30h156l-1 -30c-2.66699 -41.333 -4 -80 -4 -116v-254c0 -67.333 -13.5 -124.166 -40.5 -170.499s-63.667 -80.833 -110 -103.5s-98.5 -34 -156.5 -34s-109.667 11.333 -155 34zM209 888.999h314v-100h-314v100z" />
    <glyph glyph-name="umacron" unicode="&#x16b;" horiz-adv-x="562" 
d="M53 195l-0.000976562 159c0 10 -1 47 -3 111c-1.33301 18.667 -2 30.334 -2 35.001h152c-3.33301 -51.333 -5 -100 -5 -146v-125c0 -68 27.333 -102 82 -102c26.667 0 48.167 10 64.5 30s24.5 46 24.5 78v119c0 35.333 -2 84 -6 146h153
c-3.33301 -51.333 -5 -100 -5 -146v-208c0 -48.667 1.66699 -97.334 5 -146.001h-130l-8 57h-1c-35.333 -43.333 -78.666 -65 -129.999 -65c-127.333 0 -191 67.667 -191 203zM123.999 689h314v-100h-314v100z" />
    <glyph glyph-name="Uring" unicode="&#x16e;" horiz-adv-x="728" 
d="M208 26c-45.333 22.667 -81 56.999 -107 102.999s-39 103 -39 171v254c0 49.333 -1.66699 98 -5 146h157c-4 -58 -6 -106.667 -6 -146v-244c0 -58 13.333 -103.167 40 -135.5s65 -48.5 115 -48.5c48.667 0 87.667 16.5 117 49.5s44 77.833 44 134.5v244
c0 36 -1.33301 74.667 -4 116l-1 30h156l-1 -30c-2.66699 -41.333 -4 -80 -4 -116v-254c0 -67.333 -13.5 -124.166 -40.5 -170.499s-63.667 -80.833 -110 -103.5s-98.5 -34 -156.5 -34s-109.667 11.333 -155 34zM284 774.999c-22.667 22.667 -34 49.667 -34 81
s11.333 58.333 34 81s50 34 82 34c31.333 0 58.5 -11.333 81.5 -34s34.5 -49.667 34.5 -81s-11.5 -58.333 -34.5 -81s-50.167 -34 -81.5 -34c-32 0 -59.333 11.333 -82 34zM387 833.999c6 6 9 13.333 9 22s-3 16 -9 22s-13 9 -21 9c-8.66699 0 -15.834 -3 -21.501 -9
s-8.5 -13.333 -8.5 -22s2.83301 -16 8.5 -22s12.834 -9 21.501 -9c8 0 15 3 21 9z" />
    <glyph glyph-name="uring" unicode="&#x16f;" horiz-adv-x="562" 
d="M53 195l-0.000976562 159c0 10 -1 47 -3 111c-1.33301 18.667 -2 30.334 -2 35.001h152c-3.33301 -51.333 -5 -100 -5 -146v-125c0 -68 27.333 -102 82 -102c26.667 0 48.167 10 64.5 30s24.5 46 24.5 78v119c0 35.333 -2 84 -6 146h153
c-3.33301 -51.333 -5 -100 -5 -146v-208c0 -48.667 1.66699 -97.334 5 -146.001h-130l-8 57h-1c-35.333 -43.333 -78.666 -65 -129.999 -65c-127.333 0 -191 67.667 -191 203zM198.999 575c-22.667 22.667 -34 49.667 -34 81s11.333 58.333 34 81s50 34 82 34
c31.333 0 58.5 -11.333 81.5 -34s34.5 -49.667 34.5 -81s-11.5 -58.333 -34.5 -81s-50.167 -34 -81.5 -34c-32 0 -59.333 11.333 -82 34zM301.999 634c6 6 9 13.333 9 22s-3 16 -9 22s-13 9 -21 9c-8.66699 0 -15.834 -3 -21.501 -9s-8.5 -13.333 -8.5 -22
s2.83301 -16 8.5 -22s12.834 -9 21.501 -9c8 0 15 3 21 9z" />
    <glyph glyph-name="Uhungarumlaut" unicode="&#x170;" horiz-adv-x="728" 
d="M208 26c-45.333 22.667 -81 56.999 -107 102.999s-39 103 -39 171v254c0 49.333 -1.66699 98 -5 146h157c-4 -58 -6 -106.667 -6 -146v-244c0 -58 13.333 -103.167 40 -135.5s65 -48.5 115 -48.5c48.667 0 87.667 16.5 117 49.5s44 77.833 44 134.5v244
c0 36 -1.33301 74.667 -4 116l-1 30h156l-1 -30c-2.66699 -41.333 -4 -80 -4 -116v-254c0 -67.333 -13.5 -124.166 -40.5 -170.499s-63.667 -80.833 -110 -103.5s-98.5 -34 -156.5 -34s-109.667 11.333 -155 34zM278 899.999h165l-136 -120h-122zM473 899.999h165l-136 -120
h-122z" />
    <glyph glyph-name="uhungarumlaut" unicode="&#x171;" horiz-adv-x="562" 
d="M53 195l-0.000976562 159c0 10 -1 47 -3 111c-1.33301 18.667 -2 30.334 -2 35.001h152c-3.33301 -51.333 -5 -100 -5 -146v-125c0 -68 27.333 -102 82 -102c26.667 0 48.167 10 64.5 30s24.5 46 24.5 78v119c0 35.333 -2 84 -6 146h153
c-3.33301 -51.333 -5 -100 -5 -146v-208c0 -48.667 1.66699 -97.334 5 -146.001h-130l-8 57h-1c-35.333 -43.333 -78.666 -65 -129.999 -65c-127.333 0 -191 67.667 -191 203zM192.999 700h165l-136 -120h-122zM387.999 700h165l-136 -120h-122z" />
    <glyph glyph-name="Uogonek" unicode="&#x172;" horiz-adv-x="728" 
d="M311.5 -180.5c-21.667 17 -32.501 41.8311 -32.501 74.498c0 38.667 15.667 71.667 47 99v1c-80 6.66699 -144 35.834 -192 87.501s-72 124.5 -72 218.5v254c0 49.333 -1.66699 98 -5 146h157c-4 -58 -6 -106.667 -6 -146v-244c0 -58 13.333 -103.167 40 -135.5
s65 -48.5 115 -48.5c48.667 0 87.667 16.5 117 49.5s44 77.833 44 134.5v244c0 36 -1.33301 74.667 -4 116l-1 30h156l-1 -30c-2.66699 -41.333 -4 -80 -4 -116v-254c0 -75.333 -16.5 -137.166 -49.5 -185.499s-78.167 -82.5 -135.5 -102.5
c-19.333 -8 -35.166 -18.333 -47.499 -31s-18.5 -27 -18.5 -43c0 -9.33301 3.33301 -17 10 -23s15.334 -9 26.001 -9c8 0 16 1.66699 24 5h1v-105c-21.333 -8 -49.333 -12 -84 -12s-62.834 8.5 -84.501 25.5z" />
    <glyph glyph-name="uogonek" unicode="&#x173;" horiz-adv-x="562" 
d="M464 -27c-12 -10.667 -18.001 -22.333 -18.001 -35c0 -9.33301 3.33301 -17 10 -23s15.334 -9 26.001 -9c8 0 16 1.66699 24 5h1v-105c-21.333 -8 -49.333 -12 -84 -12s-62.834 8.5 -84.501 25.5s-32.5 41.833 -32.5 74.5c0 51.333 25 91.333 75 120l-6 43h-1
c-35.333 -43.333 -78.666 -65 -129.999 -65c-127.333 0 -191 67.667 -191 203v159c0 10 -1 47 -3 111c-1.33301 18.667 -2 30.334 -2 35.001h152c-3.33301 -51.333 -5 -100 -5 -146v-125c0 -68 27.333 -102 82 -102c26.667 0 48.167 10 64.5 30s24.5 46 24.5 78v119
c0 35.333 -2 84 -6 146h153c-3.33301 -51.333 -5 -100 -5 -146v-208c0 -48.667 1.66699 -97.334 5 -146.001c-20.667 -7.33301 -37 -16.333 -49 -27z" />
    <glyph glyph-name="Wcircumflex" unicode="&#x174;" horiz-adv-x="984" 
d="M256 60l-206 557.999c-14 38 -29.333 65.333 -46 82h163l177 -510h1l76 189l-95 239c-8 20.667 -16.167 38 -24.5 52s-15.5 24 -21.5 30h163l50 -140h1l55 140h163c-14.667 -17.333 -30 -44.666 -46 -81.999l-103 -240l69 -188h1l192 510h163
c-7.33301 -8 -14.333 -17.667 -21 -29s-15 -29 -25 -53l-224 -558c-11.333 -30 -18.333 -50 -21 -60h-128c-1.33301 6 -8.33301 26 -21 60l-57 147h-1l-63 -147c-10.667 -25.333 -17.667 -45.333 -21 -60h-128c-2 6.66699 -9.33301 26.667 -22 60zM435 899.999h122l123 -120
h-132l-49 46l-55 -46h-132z" />
    <glyph glyph-name="wcircumflex" unicode="&#x175;" horiz-adv-x="789" 
d="M155 12.5c-0.666992 6.33301 -2.66797 15.8291 -6.00098 28.4961l-113 404c-3.33301 12.667 -7.83301 23.834 -13.5 33.501s-11.5 16.5 -17.5 20.5v1h170c0 -9.33301 2.66699 -24.666 8 -45.999l65 -266h1l64 266c4.66699 20.667 7.66699 36 9 46h153
c0 -11.333 2.33301 -26.666 7 -45.999l65 -266h1l64 266c4.66699 18.667 7.66699 34 9 46h167v-1c-4.66699 -3.33301 -10.167 -10.166 -16.5 -20.499s-11.166 -21.5 -14.499 -33.5l-113 -404c-0.666992 -3.33301 -2 -8.33301 -4 -15s-3 -12.334 -3 -17.001l1 -9h-170
c-2 16.667 -4.33301 30.334 -7 41.001l-64 269h-1l-64 -269c-4 -16 -6 -29.667 -6 -41h-170c0 2 -0.333008 6.16699 -1 12.5zM335.999 699.996h122l123 -120h-132l-49 46l-55 -46h-132z" />
    <glyph glyph-name="Ycircumflex" unicode="&#x176;" horiz-adv-x="674" 
d="M264 146l0.000976562 146.001l-199 325c-27.333 44 -45 71.667 -53 83h168c7.33301 -21.333 17.666 -43.666 30.999 -66.999l127 -218h1l132 218c18.667 31.333 29.667 53.666 33 66.999h163c-9.33301 -12.667 -27.333 -40.334 -54 -83.001l-202 -325v-146
c0 -45.333 1.66699 -94 5 -146h-157c3.33301 52 5 100.667 5 146zM278.001 900.001h122l123 -120h-132l-49 46l-55 -46h-132z" />
    <glyph glyph-name="ycircumflex" unicode="&#x177;" horiz-adv-x="528" 
d="M100 -199c0.666992 1.33301 3.33301 5.33301 8 12s9.66699 17 15 31l73 188l-169 414c-8 18.667 -17.667 36.334 -29 53.001v1h163c-0.666992 -2 -1 -5 -1 -9c0 -10 3 -22.333 9 -37l101 -249h1l96 249c7.33301 18.667 10.333 34 9 46h157v-1l-14 -23
c-6 -10 -11 -20 -15 -30l-237 -604c-3.33301 -8.66699 -5 -16.334 -5 -23.001s1.33301 -12.667 4 -18v-1h-166v1zM204.999 700h122l123 -120h-132l-49 46l-55 -46h-132z" />
    <glyph glyph-name="Ydieresis" unicode="&#x178;" horiz-adv-x="674" 
d="M264 146l0.000976562 146.001l-199 325c-27.333 44 -45 71.667 -53 83h168c7.33301 -21.333 17.666 -43.666 30.999 -66.999l127 -218h1l132 218c18.667 31.333 29.667 53.666 33 66.999h163c-9.33301 -12.667 -27.333 -40.334 -54 -83.001l-202 -325v-146
c0 -45.333 1.66699 -94 5 -146h-157c3.33301 52 5 100.667 5 146zM186.501 784.001c-13 13.333 -19.5 29.998 -19.5 49.998c0 20.667 6.5 37.834 19.5 51.501s29.5 20.5 49.5 20.5c21.333 0 38.833 -6.66699 52.5 -20s20.5 -30.666 20.5 -51.999
c0 -20 -6.83301 -36.667 -20.5 -50s-31.167 -20 -52.5 -20c-20 0 -36.5 6.66699 -49.5 20zM388.501 783.999c-13 13.333 -19.5 29.998 -19.5 49.998c0 20.667 6.5 37.834 19.5 51.501s29.5 20.5 49.5 20.5c21.333 0 38.833 -6.66699 52.5 -20s20.5 -30.666 20.5 -51.999
c0 -20 -6.83301 -36.667 -20.5 -50s-31.167 -20 -52.5 -20c-20 0 -36.5 6.66699 -49.5 20z" />
    <glyph glyph-name="Zacute" unicode="&#x179;" horiz-adv-x="685" 
d="M626 -4c-48 2.66699 -84.999 4 -110.999 4h-488v103l403 462v1h-234c-25.333 0 -62 -1.33301 -110 -4l-30 -1v144c13.333 0 32.666 -0.666992 57.999 -2c28 -2 55.333 -3 82 -3h446v-110l-391 -455v-1h264c26 0 63 1.33301 111 4l30 1v-144zM363.001 900h165l-136 -120
h-122z" />
    <glyph glyph-name="zacute" unicode="&#x17a;" horiz-adv-x="509" 
d="M445 -2c-25.333 1.33301 -44 2 -56 2h-363v89l252 292v1h-137c-12.667 0 -31.667 -0.666992 -57 -2c-16 -1.33301 -28.333 -2 -37 -2v126c8.66699 0 21 -0.666992 37 -2c25.333 -1.33301 44.333 -2 57 -2h331v-95l-243 -285v-1h160c10 0 25.667 0.666992 47 2
c20 1.33301 35.333 2 46 2v-127c-8.66699 0 -21 0.666992 -37 2zM276 700h165l-136 -120h-122z" />
    <glyph glyph-name="Zdotaccent" unicode="&#x17b;" horiz-adv-x="685" 
d="M626 -4c-48 2.66699 -84.999 4 -110.999 4h-488v103l403 462v1h-234c-25.333 0 -62 -1.33301 -110 -4l-30 -1v144c13.333 0 32.666 -0.666992 57.999 -2c28 -2 55.333 -3 82 -3h446v-110l-391 -455v-1h264c26 0 63 1.33301 111 4l30 1v-144zM286.501 783
c-15 14.667 -22.5 33 -22.5 55c0 22.667 7.5 41.5 22.5 56.5s33.5 22.5 55.5 22.5s40.5 -7.5 55.5 -22.5s22.5 -33.833 22.5 -56.5c0 -22 -7.5 -40.333 -22.5 -55s-33.5 -22 -55.5 -22s-40.5 7.33301 -55.5 22z" />
    <glyph glyph-name="zdotaccent" unicode="&#x17c;" horiz-adv-x="509" 
d="M445 -2c-25.333 1.33301 -44 2 -56 2h-363v89l252 292v1h-137c-12.667 0 -31.667 -0.666992 -57 -2c-16 -1.33301 -28.333 -2 -37 -2v126c8.66699 0 21 -0.666992 37 -2c25.333 -1.33301 44.333 -2 57 -2h331v-95l-243 -285v-1h160c10 0 25.667 0.666992 47 2
c20 1.33301 35.333 2 46 2v-127c-8.66699 0 -21 0.666992 -37 2zM209.5 583c-15 14.667 -22.5 33 -22.5 55c0 22.667 7.5 41.5 22.5 56.5s33.5 22.5 55.5 22.5s40.5 -7.5 55.5 -22.5s22.5 -33.833 22.5 -56.5c0 -22 -7.5 -40.333 -22.5 -55s-33.5 -22 -55.5 -22
s-40.5 7.33301 -55.5 22z" />
    <glyph glyph-name="Zcaron" unicode="&#x17d;" horiz-adv-x="685" 
d="M626 -4c-48 2.66699 -84.999 4 -110.999 4h-488v103l403 462v1h-234c-25.333 0 -62 -1.33301 -110 -4l-30 -1v144c13.333 0 32.666 -0.666992 57.999 -2c28 -2 55.333 -3 82 -3h446v-110l-391 -455v-1h264c26 0 63 1.33301 111 4l30 1v-144zM158.001 900h132l55 -46
l49 46h132l-123 -120h-122z" />
    <glyph glyph-name="zcaron" unicode="&#x17e;" horiz-adv-x="509" 
d="M445 -2c-25.333 1.33301 -44 2 -56 2h-363v89l252 292v1h-137c-12.667 0 -31.667 -0.666992 -57 -2c-16 -1.33301 -28.333 -2 -37 -2v126c8.66699 0 21 -0.666992 37 -2c25.333 -1.33301 44.333 -2 57 -2h331v-95l-243 -285v-1h160c10 0 25.667 0.666992 47 2
c20 1.33301 35.333 2 46 2v-127c-8.66699 0 -21 0.666992 -37 2zM81 700h132l55 -46l49 46h132l-123 -120h-122z" />
    <glyph glyph-name="florin" unicode="&#x192;" horiz-adv-x="611" 
d="M68.5 -201c-17.667 4.66699 -31.834 10.667 -42.501 18v139h2c22.667 -20 48.334 -30 77.001 -30c44 0 71 25.333 81 76l56 295h-13c-44 0 -82.667 -1.33301 -116 -4v117c25.333 -2 64 -3 116 -3h34l33 177c10.667 56.667 33 100 67 130s75.333 45 124 45
c20 0 38.833 -2.33301 56.5 -7s31.834 -10.667 42.501 -18v-139h-2c-22.667 20 -48.334 30 -77.001 30c-44 0 -71 -25.333 -81 -76l-27 -142h31c52 0 91 1 117 3v-117c-34.667 2.66699 -73.667 4 -117 4h-52l-62 -330c-10.667 -56.667 -33 -100 -67 -130
s-75.333 -45 -124 -45c-20 0 -38.833 2.33301 -56.5 7z" />
    <glyph glyph-name="Scommaaccent" unicode="&#x218;" horiz-adv-x="566" 
d="M155 3.5c-36 7.66699 -68.3311 18.8311 -96.998 33.498v198h2c30 -36 64.167 -63.167 102.5 -81.5s77.166 -27.5 116.499 -27.5c33.333 0 58.833 6.83301 76.5 20.5s26.5 31.167 26.5 52.5c0 17.333 -7.33301 32.5 -22 45.5s-39.334 26.5 -74.001 40.5l-91 36
c-49.333 20 -85.833 44.333 -109.5 73s-35.5 67.334 -35.5 116.001c0 40.667 11 76.167 33 106.5s51.333 53.333 88 69s77 23.5 121 23.5c72 0 138 -12.333 198 -37v-196h-2c-21.333 28.667 -49 52.334 -83 71.001s-71 28 -111 28c-28 0 -50.833 -5.5 -68.5 -16.5
s-26.5 -24.833 -26.5 -41.5c0 -17.333 6.16699 -30.833 18.5 -40.5s36.833 -21.834 73.5 -36.501l91 -37c54 -21.333 92.167 -47.666 114.5 -78.999s33.5 -71 33.5 -119c0 -43.333 -11 -81 -33 -113s-52.667 -56.667 -92 -74s-85 -26 -137 -26
c-39.333 0 -77 3.83301 -113 11.5zM205.002 -54.0029h165l-76 -146h-111z" />
    <glyph glyph-name="scommaaccent" unicode="&#x219;" horiz-adv-x="456" 
d="M133.5 1c-31.667 6.66699 -59.8369 14.334 -84.5039 23.001v150h3c26 -20 54.667 -36.667 86 -50s61.333 -20 90 -20c18.667 0 33.167 4 43.5 12s15.5 18.333 15.5 31c0 10 -5.5 18.5 -16.5 25.5s-27.5 13.833 -49.5 20.5l-45 13
c-43.333 12.667 -76.666 30.667 -99.999 54s-35 55 -35 95c0 49.333 17.833 87.166 53.5 113.499s83.834 39.5 144.501 39.5c24.667 0 51 -2.16699 79 -6.5s51.667 -10.833 71 -19.5v-144h-2c-19.333 15.333 -43.166 28.666 -71.499 39.999s-53.833 17 -76.5 17
c-21.333 0 -36.333 -3.33301 -45 -10s-13 -15 -13 -25c0 -9.33301 3.83301 -16.166 11.5 -20.499s21.5 -9.83301 41.5 -16.5l58 -18c45.333 -14 79 -32.333 101 -55s33 -54.667 33 -96c0 -54 -17.667 -94.667 -53 -122s-84.666 -41 -147.999 -41
c-29.333 0 -59.833 3.33301 -91.5 10zM142.997 -54h165l-76 -146h-111z" />
    <glyph glyph-name="uni021A" unicode="&#x21a;" horiz-adv-x="599" 
d="M229 140v426h-76c-22 0 -41.667 -0.333008 -59 -1s-32 -1.33398 -44 -2.00098l-36 -2v139h575v-139l-36 2c-12 0.666992 -26.667 1.33398 -44 2.00098s-37 1 -59 1h-75v-426c0 -33.333 2 -80 6 -140h-157c3.33301 50 5 96.667 5 140zM214 -54h165l-76 -146h-111z" />
    <glyph glyph-name="uni021B" unicode="&#x21b;" horiz-adv-x="437" 
d="M159 40c-34.667 32 -51.998 74.334 -51.998 127.001v214h-6c-22 0 -50.333 -1.33301 -85 -4v127c28 -2 56.667 -3 86 -3h5v23c0 46 -1.66699 94.667 -5 146h152c-3.33301 -51.333 -5 -100 -5 -146v-24h17c48 0 98 1.66699 150 5v-129c-62 4 -112 6 -150 6h-17v-181
c0 -49.333 25.667 -74 77 -74c16.667 0 33.167 2.66699 49.5 8s29.166 12 38.499 20h2v-145c-2 -0.666992 -15.5 -3.83398 -40.5 -9.50098s-52.5 -8.5 -82.5 -8.5c-54.667 0 -99.334 16 -134.001 48zM178.002 -53.999h165l-76 -146h-111z" />
    <glyph glyph-name="uni0237" unicode="&#x237;" horiz-adv-x="262" 
d="M-91 -178l-0.000976562 142h3c26.667 -25.333 57.667 -38 93 -38c20.667 0 36 5.16699 46 15.5s15 24.5 15 42.5v370c0 39.333 -2 88 -6 146h153c-3.33301 -48 -5 -96.667 -5 -146v-373c0 -64 -17.167 -111.5 -51.5 -142.5s-78.166 -46.5 -131.499 -46.5
c-41.333 0 -80 10 -116 30z" />
    <glyph glyph-name="circumflex" unicode="&#x2c6;" horiz-adv-x="468" 
d="M175 700h122l123 -120h-132l-49 46l-55 -46h-132z" />
    <glyph glyph-name="caron" unicode="&#x2c7;" horiz-adv-x="468" 
d="M52 700h132l55 -46l49 46h132l-123 -120h-122z" />
    <glyph glyph-name="breve" unicode="&#x2d8;" horiz-adv-x="426" 
d="M102 600.5c-29.333 25 -46 58.167 -50 99.5h103c2.66699 -14.667 9.16699 -26.334 19.5 -35.001s23.833 -13 40.5 -13s30.167 4.33301 40.5 13s16.833 20.334 19.5 35.001h103c-4 -41.333 -20.667 -74.5 -50 -99.5s-67 -37.5 -113 -37.5s-83.667 12.5 -113 37.5z" />
    <glyph glyph-name="dotaccent" unicode="&#x2d9;" horiz-adv-x="256" 
d="M74.5 583c-15 14.667 -22.5 33 -22.5 55c0 22.667 7.5 41.5 22.5 56.5s33.5 22.5 55.5 22.5s40.5 -7.5 55.5 -22.5s22.5 -33.833 22.5 -56.5c0 -22 -7.5 -40.333 -22.5 -55s-33.5 -22 -55.5 -22s-40.5 7.33301 -55.5 22z" />
    <glyph glyph-name="ring" unicode="&#x2da;" horiz-adv-x="332" 
d="M86 575c-22.667 22.667 -34 49.667 -34 81s11.333 58.333 34 81s50 34 82 34c31.333 0 58.5 -11.333 81.5 -34s34.5 -49.667 34.5 -81s-11.5 -58.333 -34.5 -81s-50.167 -34 -81.5 -34c-32 0 -59.333 11.333 -82 34zM189 634c6 6 9 13.333 9 22s-3 16 -9 22s-13 9 -21 9
c-8.66699 0 -15.834 -3 -21.501 -9s-8.5 -13.333 -8.5 -22s2.83301 -16 8.5 -22s12.834 -9 21.501 -9c8 0 15 3 21 9z" />
    <glyph glyph-name="ogonek" unicode="&#x2db;" horiz-adv-x="307" 
d="M84.5 -180.5c-21.667 17 -32.5 41.834 -32.5 74.501c0 55.333 28.667 97.333 86 126l121 -20c-20.667 -7.33301 -37 -16.333 -49 -27s-18 -22.334 -18 -35.001c0 -9.33301 3.33301 -17 10 -23s15.334 -9 26.001 -9c8 0 16 1.66699 24 5h1v-105
c-21.333 -8 -49.333 -12 -84 -12s-62.834 8.5 -84.501 25.5z" />
    <glyph glyph-name="tilde" unicode="&#x2dc;" horiz-adv-x="484" 
d="M277 574c-12 4 -24.332 10.668 -36.999 20.001l-10 7c-11.333 8 -19.833 13.5 -25.5 16.5s-11.834 4.5 -18.501 4.5c-16.667 0 -25 -13 -25 -39h-109c3.33301 44.667 15.333 81 36 109s47 42 79 42c16.667 0 30.5 -1.83301 41.5 -5.5s21.833 -9.16699 32.5 -16.5l17 -11
c4 -2.66699 9 -5.83398 15 -9.50098s11.167 -6.5 15.5 -8.5s8.83301 -3 13.5 -3c16.667 0 25 13 25 39h109c-3.33301 -44.667 -15.333 -81 -36 -109s-47 -42 -79 -42c-17.333 0 -32 2 -44 6z" />
    <glyph glyph-name="hungarumlaut" unicode="&#x2dd;" horiz-adv-x="553" 
d="M145 700h165l-136 -120h-122zM340 700h165l-136 -120h-122z" />
    <glyph glyph-name="gravecomb" unicode="&#x300;" 
d="M-377 700h165l93 -120h-122z" />
    <glyph glyph-name="acutecomb" unicode="&#x301;" 
d="M-284 700h165l-136 -120h-122z" />
    <glyph glyph-name="uni0302" unicode="&#x302;" 
d="M-309 700h122l123 -120h-132l-49 46l-55 -46h-132z" />
    <glyph glyph-name="tildecomb" unicode="&#x303;" 
d="M-215 574c-12 4 -24.332 10.668 -36.999 20.001l-10 7c-11.333 8 -19.833 13.5 -25.5 16.5s-11.834 4.5 -18.501 4.5c-16.667 0 -25 -13 -25 -39h-109c3.33301 44.667 15.333 81 36 109s47 42 79 42c16.667 0 30.5 -1.83301 41.5 -5.5s21.833 -9.16699 32.5 -16.5l17 -11
c4 -2.66699 9 -5.83398 15 -9.50098s11.167 -6.5 15.5 -8.5s8.83301 -3 13.5 -3c16.667 0 25 13 25 39h109c-3.33301 -44.667 -15.333 -81 -36 -109s-47 -42 -79 -42c-17.333 0 -32 2 -44 6z" />
    <glyph glyph-name="uni0304" unicode="&#x304;" 
d="M-405 689h314v-100h-314v100z" />
    <glyph glyph-name="uni0306" unicode="&#x306;" 
d="M-361 600.5c-29.333 25 -46 58.167 -50 99.5h103c2.66699 -14.667 9.16699 -26.334 19.5 -35.001s23.833 -13 40.5 -13s30.167 4.33301 40.5 13s16.833 20.334 19.5 35.001h103c-4 -41.333 -20.667 -74.5 -50 -99.5s-67 -37.5 -113 -37.5s-83.667 12.5 -113 37.5z" />
    <glyph glyph-name="uni0307" unicode="&#x307;" 
d="M-303.5 583c-15 14.667 -22.5 33 -22.5 55c0 22.667 7.5 41.5 22.5 56.5s33.5 22.5 55.5 22.5s40.5 -7.5 55.5 -22.5s22.5 -33.833 22.5 -56.5c0 -22 -7.5 -40.333 -22.5 -55s-33.5 -22 -55.5 -22s-40.5 7.33301 -55.5 22z" />
    <glyph glyph-name="uni0308" unicode="&#x308;" 
d="M-400.5 584c-13 13.333 -19.5 29.998 -19.5 49.998c0 20.667 6.5 37.834 19.5 51.501s29.5 20.5 49.5 20.5c21.333 0 38.833 -6.66699 52.5 -20s20.5 -30.666 20.5 -51.999c0 -20 -6.83301 -36.667 -20.5 -50s-31.167 -20 -52.5 -20c-20 0 -36.5 6.66699 -49.5 20z
M-198.5 583.998c-13 13.333 -19.5 29.998 -19.5 49.998c0 20.667 6.5 37.834 19.5 51.501s29.5 20.5 49.5 20.5c21.333 0 38.833 -6.66699 52.5 -20s20.5 -30.666 20.5 -51.999c0 -20 -6.83301 -36.667 -20.5 -50s-31.167 -20 -52.5 -20c-20 0 -36.5 6.66699 -49.5 20z" />
    <glyph glyph-name="uni030A" unicode="&#x30a;" 
d="M-330 575c-22.667 22.667 -34 49.667 -34 81s11.333 58.333 34 81s50 34 82 34c31.333 0 58.5 -11.333 81.5 -34s34.5 -49.667 34.5 -81s-11.5 -58.333 -34.5 -81s-50.167 -34 -81.5 -34c-32 0 -59.333 11.333 -82 34zM-227 634c6 6 9 13.333 9 22s-3 16 -9 22
s-13 9 -21 9c-8.66699 0 -15.834 -3 -21.501 -9s-8.5 -13.333 -8.5 -22s2.83301 -16 8.5 -22s12.834 -9 21.501 -9c8 0 15 3 21 9z" />
    <glyph glyph-name="uni030B" unicode="&#x30b;" 
d="M-381 700h165l-136 -120h-122zM-186 700h165l-136 -120h-122z" />
    <glyph glyph-name="uni030C" unicode="&#x30c;" 
d="M-432 700h132l55 -46l49 46h132l-123 -120h-122z" />
    <glyph glyph-name="uni0312" unicode="&#x312;" 
d="M-265 726h111l-22 -146h-165z" />
    <glyph glyph-name="uni0326" unicode="&#x326;" 
d="M-319 -54h165l-76 -146h-111z" />
    <glyph glyph-name="uni0327" unicode="&#x327;" 
d="M-339 -199l-0.000976562 79h1c6.66699 -2.66699 15.5 -5 26.5 -7s21.167 -3 30.5 -3c10 0 17.667 2.16699 23 6.5s8 9.83301 8 16.5c0 5.33301 -2.5 9.83301 -7.5 13.5s-11.167 5.5 -18.5 5.5c-10 0 -20.333 -1.33301 -31 -4h-1l25 92h75l-9 -34
c19.333 -5.33301 34.333 -14 45 -26s16 -29.667 16 -53c0 -31.333 -10.167 -55 -30.5 -71s-46.166 -24 -77.499 -24c-30 0 -55 3 -75 9z" />
    <glyph glyph-name="uni0328" unicode="&#x328;" 
d="M-318.5 -180.5c-21.667 17 -32.5 41.834 -32.5 74.501c0 55.333 28.667 97.333 86 126l121 -20c-20.667 -7.33301 -37 -16.333 -49 -27s-18 -22.334 -18 -35.001c0 -9.33301 3.33301 -17 10 -23s15.334 -9 26.001 -9c8 0 16 1.66699 24 5h1v-105
c-21.333 -8 -49.333 -12 -84 -12s-62.834 8.5 -84.501 25.5z" />
    <glyph glyph-name="uni0335" unicode="&#x335;" 
d="M-472 318c27.333 -2 69.333 -3 126 -3h196c57.333 0 99.333 1 126 3v-125c-36 2.66699 -78 4 -126 4h-196c-48 0 -90 -1.33301 -126 -4v125z" />
    <glyph glyph-name="uni0336" unicode="&#x336;" 
d="M-618 414c26.667 -2 68.667 -3 126 -3h490c56 0 97.667 1 125 3v-125c-36 2.66699 -77.667 4 -125 4h-490c-48 0 -90 -1.33301 -126 -4v125z" />
    </font>
</defs>
</svg>
